<svg width="20" height="37" viewBox="0 0 20 37" fill="none" xmlns="http://www.w3.org/2000/svg">
<path d="M19.6965 18.0137L19.6897 17.9805C19.1095 14.7355 16.4196 12.1252 16.154 8.86972C16.0203 8.00428 15.5838 8.89245 15.3081 9.24912C14.897 9.79111 13.9919 11.2562 13.5334 10.6985C12.7688 9.67397 13.8498 2.97072 10.6287 0.453071C9.76254 -0.207813 9.19073 -0.256765 9.49693 1.06151C10.3851 5.50936 4.7668 8.71062 4.77019 13.2634C4.71605 13.9033 4.77018 14.8579 4.26435 15.2285C3.83296 15.5223 3.33727 15.1131 3.09874 14.7285C2.79422 14.2827 2.66396 13.6113 2.49817 13.2983C2.3476 12.9574 2.07861 13.0588 1.88068 13.3228C-1.897 18.8739 0.24983 27.8797 6.23355 30.7348C6.35028 30.7943 6.97961 31.0758 6.81213 30.7576C6.60066 30.3484 5.10346 29.0302 4.63823 27.9864C4.36586 27.4619 4.51135 26.9583 4.97489 26.6331C6.09821 25.9041 5.61606 25.404 4.78203 24.6278C3.79235 23.7641 2.68257 22.7255 2.62674 21.2901C2.532 20.2901 3.10043 19.1361 4.03258 19.255C4.62639 19.304 5.2388 19.776 5.78354 19.9421C6.62942 20.1957 6.40949 19.2638 6.2031 18.783C5.5467 17.3056 4.8294 14.5921 6.65649 14.3753C8.20105 14.1568 8.10124 13.5728 8.42606 12.1357C8.74411 10.7143 10.2616 9.64425 11.1971 11.216C11.747 11.9923 11.7334 13.3928 12.2054 13.9382C12.8889 14.6691 14.2169 14.0257 14.6991 15.1306C15.0932 15.9664 14.7549 16.9489 14.4149 17.7584C14.0833 18.5487 13.6603 19.4246 13.8024 19.7865C14.1086 20.4037 15.2827 19.4299 15.7886 19.3547C16.5651 19.1047 17.3636 19.6607 17.5649 20.4439C18.1029 22.2745 15.9104 23.9651 14.8226 25.4862C14.562 25.9443 14.809 26.2223 15.1423 26.5108C16.9102 27.9269 14.178 29.5319 13.4319 30.7051C13.2475 31.0897 13.7145 30.8852 14.0021 30.7558C18.3972 28.4987 20.9061 23.021 19.6965 18.0137ZM4.77526 13.5991C4.77188 13.5274 4.77695 13.37 4.78203 13.2686C4.78034 13.37 4.77526 13.5291 4.77526 13.5991Z" fill="white"/>
<path d="M15.0239 22.4441C14.9765 22.6084 14.6974 22.8514 14.5214 23.0105C13.1291 24.2554 11.3342 25.5404 10.8385 27.2818C10.6998 27.7556 10.4714 29.3676 10.9603 29.5617C11.2699 29.6701 12.1919 28.4917 12.5979 28.5389L12.6013 28.5441C12.6402 28.6683 12.3644 29.0511 12.2393 29.2102C11.2834 30.4289 10.7522 31.0285 10.7032 32.5339C10.5746 33.5375 13.1635 35.3573 12.5189 36.1912L7.4437 36.1038C6.72471 35.7017 9.87927 32.3433 9.25163 30.9691C8.92174 30.0215 7.76797 29.2207 7.32642 28.4095C7.33319 28.2416 7.73582 28.5109 7.84917 28.5651C8.83377 29.0984 9.81498 30.2278 9.54769 28.0493C9.40727 25.7922 7.44823 24.5141 5.86813 23.1486C3.84818 21.4755 7.16401 23.334 7.61571 23.7955C8.48865 24.418 9.49863 25.9181 9.71855 24.0683C10.0332 21.5069 9.13321 19.6624 7.78488 17.4769C7.72229 17.3563 7.3095 16.7251 7.47868 16.7619C7.85425 16.9822 8.25181 17.4962 8.65952 17.8773C8.80501 18.0242 9.07061 18.255 9.20257 18.2008C9.37175 18.1273 9.39374 17.956 9.45295 17.7322C9.53077 17.365 9.57306 16.886 9.62043 16.4839C9.90295 14.3316 10.0332 10.8227 10.287 13.8473C10.358 14.6131 10.424 15.4506 10.4815 16.2024C10.5577 16.7584 10.49 17.6081 10.7827 18.0854C11.275 18.706 12.5252 16.7356 12.8923 16.6045C12.9989 16.5818 12.9109 16.7514 12.8111 16.9612C11.3985 19.4386 10.2176 20.6555 10.4883 23.7081C10.5357 24.5106 10.5458 25.6698 11.5423 24.8253C12.2629 24.2624 13.1579 23.3602 14.0934 22.7797C14.5739 22.479 14.963 22.3234 15.0154 22.4021C15.0239 22.4126 15.0273 22.4266 15.0239 22.4441Z" fill="white"/>
</svg>
