<svg width="26" height="30" viewBox="0 0 26 30" fill="none" xmlns="http://www.w3.org/2000/svg">
<path d="M3.19359 18.9778C3.80452 20.1413 6.28766 21.0521 7.52294 21.2672C9.28188 21.6204 9.62594 20.1447 9.3767 18.7082C9.229 17.6945 8.41415 17.2726 7.49776 17.0424C6.99425 16.9294 6.35144 16.757 5.95954 17.0642C5.70443 17.2693 5.5819 17.7447 5.48288 17.9883C5.43589 18.1089 5.35365 18.2913 5.27728 18.0904C5.1791 17.8309 5.04567 16.8901 4.70663 16.4657C4.41712 16.0496 3.67277 15.2962 3.17261 15.7416C2.92673 16.0195 2.89064 16.438 2.8512 17.0014C2.82015 17.6468 2.89316 18.4228 3.18603 18.9644L3.19359 18.9786V18.9778Z" fill="white"/>
<path d="M15.5975 19.9238C15.4146 20.4026 15.0294 20.7726 14.546 20.9467C13.8864 21.2305 11.2237 21.5929 10.5717 21.1543C9.91206 20.7391 10.0933 19.1235 10.2721 18.4672C10.3468 18.1726 10.6111 17.7909 10.8864 18.0026L10.8931 18.0077C11.3874 18.4605 11.3252 19.2918 11.5283 19.8802C11.5636 19.9815 11.6274 20.0225 11.6811 19.9095C11.8615 19.4709 11.8657 18.9452 12.0235 18.4605C12.1888 17.9122 12.5899 17.5992 13.1664 17.4259C13.8151 17.2509 15.2988 16.8985 15.6647 17.6452C15.9492 18.3191 15.8568 19.2173 15.5975 19.9238Z" fill="white"/>
<path d="M23.1499 24.5321C23.1138 23.9243 23.1189 23.0697 22.487 23.0822C21.9348 23.1467 21.4011 23.6766 21.1107 24.1587C20.7373 24.7983 20.6676 25.5809 20.6693 26.3117C20.6752 26.8843 20.7205 27.4008 20.8917 27.6561C21.2635 28.1868 21.9843 27.6377 22.325 27.3079C23.0727 26.5905 23.1827 25.5793 23.1499 24.5513V24.5321Z" fill="white"/>
<path d="M6.21525 24.0817C6.03482 22.6762 4.8994 21.9237 3.98385 20.992C2.76703 19.7899 2.93067 21.2958 3.06326 22.2777C3.19334 23.2211 3.50636 24.0365 4.04511 24.8652C4.46639 25.4779 4.87842 26.0145 5.37102 26.5276C5.87789 27.0424 6.17915 26.937 6.25887 26.1166C6.31846 25.4637 6.31091 24.7388 6.21776 24.1009L6.21441 24.0817H6.21525Z" fill="white"/>
<path d="M25.7516 19.537C25.6727 19.5328 25.5729 19.5939 25.4579 19.7094C25.2976 19.8718 25.1289 20.1162 24.9947 20.3339C24.3569 21.3702 24.0229 22.3479 23.8794 23.4998C23.8206 24.074 23.6176 25.4334 24.1152 25.6829C24.5012 25.7507 24.8117 25.1463 24.988 24.8408C25.6098 23.6228 25.7843 22.1822 25.9236 20.8261C25.9547 20.5005 26.042 19.5587 25.7575 19.5378H25.7516V19.537Z" fill="white"/>
<path d="M20.557 17.8596C19.3737 19.0508 19.5256 16.8903 19.5894 16.2055C19.6481 15.5375 19.8067 14.9683 20.1877 14.374C20.3984 14.0492 21.8107 12.0418 22.0516 13.0447L22.0541 13.0564C22.2832 14.5246 21.611 16.6977 20.557 17.8596Z" fill="white"/>
<path d="M1.9832 17.8672C2.08726 17.5658 2.09985 16.9782 2.09901 16.5864C2.09649 16.1545 2.08306 15.7326 2.02684 15.3099C1.91942 14.4016 1.40752 13.6524 0.910718 12.9049C-0.0501489 11.5421 0.0807689 13.3301 0.139512 14.0191C0.212521 14.8595 0.384554 15.6773 0.705962 16.4776C0.811699 16.7756 1.66347 18.6783 1.97984 17.878L1.9832 17.868V17.8672Z" fill="white"/>
<path d="M18.5489 15.8337C18.2895 15.4989 17.776 15.6403 17.447 15.966C16.8579 16.5059 16.6221 17.394 16.5927 18.2035C16.5818 18.8121 16.4727 20.2602 17.4235 20.0468C18.277 19.7806 18.8182 18.6539 18.8577 17.7682C18.9181 17.0718 18.8686 16.2096 18.5572 15.8437L18.5489 15.8345V15.8337Z" fill="white"/>
<path d="M19.7329 27.9532C19.4559 28.5852 18.7653 28.858 18.1351 29.0246C16.4533 29.4658 15.7963 29.1335 15.8819 27.3212C15.9121 26.356 16.0019 25.4436 17.0567 25.1029C17.655 24.9011 18.4321 24.7304 19.0372 24.7823C19.5793 24.8375 19.8235 25.3214 19.8999 25.9031L19.9024 25.9199C19.9813 26.5711 19.9972 27.3438 19.7329 27.9532Z" fill="white"/>
<path d="M14.99 25.9641C14.7592 25.4108 14.2901 25.3455 14.0006 25.898C13.6658 26.535 13.7119 27.4273 13.5533 28.0619C13.2445 29.212 13.0968 27.2599 13.0347 26.9644C12.9869 26.6756 12.9214 26.3944 12.8065 26.1332C12.2769 24.9512 11.1122 24.9069 10.6959 26.1483C10.6011 26.3308 10.4643 27.0657 10.3191 27.0063C10.2906 26.987 10.2696 26.946 10.2545 26.9083C10.1739 26.7275 10.1211 26.2923 10.0187 25.8469C9.88022 25.1346 9.50679 24.5662 8.86817 24.2154C7.65387 23.5207 6.99594 24.0681 6.96405 25.3773C6.94727 26.2378 7.07483 27.1226 7.71932 27.727C8.20269 28.195 8.99068 28.5407 9.76273 28.7943C10.6288 29.0756 11.5183 29.3108 12.4112 29.4732C13.9998 29.7427 15.0723 29.6138 15.1847 27.691V27.6734C15.2292 27.0515 15.1847 26.3868 14.99 25.9641Z" fill="white"/>
<path d="M25.982 16.9128C25.8948 17.9969 25.4601 19.0742 24.7829 19.8962L24.772 19.9096C20.743 24.609 13.1316 25.6269 7.76503 22.9407C7.47971 22.78 7.34963 22.6477 7.426 22.5699C7.48726 22.5021 7.6979 22.4744 8.00672 22.4761C12.7213 22.7097 18.0476 23.2881 21.719 20.1214C23.6382 18.4531 24.0863 17.22 23.6357 14.7155C23.54 14.1044 23.4872 13.428 23.4855 12.8463C23.4922 12.1674 23.4695 11.7028 23.6189 11.4517C24.0813 11.1821 26.2153 14.091 25.982 16.9128Z" fill="white"/>
<path d="M10.1041 0.119117C9.17341 0.228776 8.23101 0.34262 7.30539 0.523431C2.86946 1.43083 -0.827149 5.47146 0.16141 9.84943C0.496245 11.3612 1.72733 12.8554 3.00121 13.8482L3.01548 13.8591C6.85475 17.0768 12.8306 17.3313 17.2246 15.0729C18.866 14.224 20.296 13.0262 21.2703 11.4725C25.2253 4.55987 16.6699 -0.88204 10.1041 0.119117ZM11.487 14.9548C7.22566 15.2327 1.90859 12.4863 2.38525 7.82033C2.86191 3.67256 7.47574 1.78743 11.5391 1.97745H11.5617C22.4644 2.02182 22.7758 14.0156 11.487 14.9548Z" fill="white"/>
<path d="M13.2274 9.23743L13.2198 9.22738C12.8733 8.79042 12.1834 8.42713 11.4424 8.07304C10.2365 7.53228 8.79986 6.93879 7.48402 7.27111C6.07167 7.67877 5.68313 9.39145 6.14048 10.6806C6.38552 11.4565 6.81099 12.3807 7.44038 12.7641C8.5481 13.4404 10.1979 12.7432 11.2754 12.1806C12.217 11.6432 14.0842 10.3934 13.2274 9.23743ZM8.79817 11.0414L8.78223 11.0338C7.88598 10.5877 7.81129 9.39145 8.65384 8.85823C9.51736 8.2798 10.9305 8.91766 10.9373 9.98076C10.9238 10.9903 9.62225 11.4925 8.79817 11.0414Z" fill="white"/>
<path d="M15.146 8.6189C15.0822 8.99559 14.7491 9.16803 14.384 9.06339C13.9116 8.93532 13.4618 8.57788 13.0455 8.30164C12.3977 7.85966 11.7842 7.45116 11.0155 7.18162C10.2712 6.91542 9.4773 6.80325 8.6935 6.69527C8.10859 6.58812 6.2842 6.49772 6.90017 5.60873L6.90689 5.59952C7.35753 5.06211 8.14384 4.81182 8.83029 4.70886C9.40178 4.62431 9.98837 4.6578 10.5456 4.58581C10.987 4.53391 11.4133 4.42006 11.8312 4.2652C12.5252 4.01659 13.2671 3.62065 13.9779 3.48253C14.3236 3.41807 14.6098 3.42644 14.7499 3.49592C15.0889 3.70435 14.5275 4.02831 14.2951 4.1907C13.9351 4.44099 13.5314 4.62683 13.3753 5.00017C13.1924 5.6531 14.3119 6.33532 14.7415 7.12135C15.0084 7.55077 15.2375 8.12669 15.146 8.6189Z" fill="white"/>
</svg>
