<svg width="25" height="28" viewBox="0 0 25 28" fill="none" xmlns="http://www.w3.org/2000/svg">
<path d="M24.9963 24.3882V24.3733C24.9922 24.271 24.9881 24.1662 24.9833 24.0597L24.9898 15.7202L24.9914 14.5823L24.9963 8.18419L24.9287 8.13844C24.8961 7.89223 24.8465 7.65434 24.7724 7.43225C24.3612 6.13383 23.1734 5.54576 21.8984 5.53827C21.6639 5.52746 21.4124 5.54243 21.1868 5.60398L3.35515 5.53578H3.15323L3.14917 5.53495C3.05635 5.53827 2.96516 5.54659 2.87886 5.55824C1.11214 5.74872 0.15958 7.01054 0.0358281 8.76977C0.0358281 8.77226 0.0358281 8.77476 0.0358281 8.77725L0.0333833 9.76542L0 24.2028C0.0170973 25.71 0.424996 27.2729 1.80662 27.7229C2.26255 27.8718 3.12393 28.0506 3.7492 27.9117H3.75083L21.6086 27.9999C21.896 28.0024 22.1996 27.9699 22.5001 27.915C23.0407 27.8052 23.6065 27.5432 24.0282 27.124C24.7822 26.4128 25.0345 25.3698 24.9963 24.3882ZM16.4248 19.677C16.1952 20.6835 15.8411 21.6566 15.184 22.4435C14.6166 23.1206 13.2708 24.2593 12.4314 24.3067C11.6677 24.3683 11.0074 23.717 10.4766 23.2196C10.2323 22.9892 9.99543 22.7579 9.77804 22.5001L9.7699 22.4901C8.994 21.5793 8.56575 20.3824 8.4249 19.1821C8.35 18.5325 8.26615 17.7156 8.46643 17.1725C8.68055 16.5129 9.40271 16.3207 10.0093 16.2084C10.7681 16.0704 11.5244 15.9057 12.2946 15.889C13.2602 15.884 14.2266 16.0388 15.1499 16.3232C15.7629 16.5096 16.3752 16.893 16.5518 17.5509C16.735 18.1715 16.573 18.9983 16.4248 19.677ZM17.1299 15.8591C16.8897 16.0521 16.5119 16.0446 16.0861 15.9498C14.4106 15.4548 12.639 15.1097 10.9227 15.3442C10.4701 15.3975 10.0312 15.5014 9.58753 15.6145C8.6602 15.8633 7.31521 16.1469 7.47234 14.668C7.60668 13.565 8.41188 12.4646 9.36526 11.9472C9.89365 11.617 10.5173 11.4631 11.0734 11.2102C11.3673 11.0697 11.6302 10.8717 11.8558 10.6346C12.4411 9.98834 12.775 8.83382 13.7756 8.73566H13.7837C14.6524 8.7182 13.7796 10.0906 13.8041 10.5315C13.787 10.712 13.8122 10.895 13.9009 11.0505C14.247 11.6012 14.9984 11.7268 15.5634 12.0711C16.2799 12.438 16.893 13.0294 17.1975 13.8062C17.427 14.3827 17.6477 15.4074 17.1299 15.8591Z" fill="white"/>
<path d="M24.9898 15.7202L24.9914 14.5823C24.9979 14.9142 24.9979 15.291 24.9898 15.7202Z" fill="white"/>
<path d="M18.1085 4.38871C18.1173 4.38871 18.1226 4.38871 18.1226 4.37793C18.1182 4.38152 18.1129 4.38512 18.1085 4.38871Z" fill="white"/>
<path d="M18.0572 4.09595C17.848 4.46277 17.3611 4.6441 17.0004 4.45196C16.5518 4.22738 16.3735 3.6917 16.1309 3.27332C15.5871 2.26852 14.3601 2.28848 13.3375 2.25438C12.3793 2.23691 11.3901 2.16454 10.431 2.34005C9.8733 2.45317 9.43202 2.69106 9.09903 3.11029C8.88654 3.37064 8.73429 3.68006 8.53726 3.95039C8.20753 4.44281 7.53422 4.78052 7.08318 4.28144L7.07585 4.27396C6.81044 3.99032 6.73228 3.48043 6.78357 3.0662C6.95129 1.50161 8.05203 0.243946 9.60788 0.0509708C10.5303 -0.067143 11.4902 0.0601205 12.411 0.0376623C13.7927 0.0393258 15.7597 -0.203556 16.9337 0.589969C17.5223 0.999209 17.8748 1.67545 18.0719 2.36168C18.2306 2.91482 18.3275 3.6235 18.0572 4.09595Z" fill="white"/>
<path d="M0.0211711 9.15738C0.0211711 9.02845 0.0268724 8.90119 0.0358281 8.77725L0.0333833 9.76542C0.0146576 9.56163 0.0138437 9.35119 0.0211711 9.15738Z" fill="white"/>
<path d="M3.35515 5.53578H3.15323C3.21999 5.53245 3.28758 5.53245 3.35515 5.53578Z" fill="white"/>
<path d="M11.6237 20.7009L11.6148 20.6901C11.0856 20.1029 11.0652 19.0723 11.4462 18.4027C12.0194 17.3239 13.3497 17.6225 13.7804 18.6556C14.4171 20.1336 12.8678 22.0301 11.6237 20.7009Z" fill="white"/>
</svg>
