<svg width="58" height="102" viewBox="0 0 58 102" fill="none" xmlns="http://www.w3.org/2000/svg">
<path d="M53.8988 40.9285H13.1314V18.081C13.1314 12.5723 17.5365 8.09233 22.9494 8.09233H35.0491C40.4637 8.09233 44.8671 12.5739 44.8671 18.081V41.8033H47.4795L47.6045 44.3115H44.9921L44.8671 46.8197H52.8213V18.081C52.8213 15.6486 52.3482 13.2822 51.4162 11.0495C50.5191 8.90043 49.2358 6.9687 47.6045 5.30742C45.9732 3.64774 44.0744 2.34222 41.9605 1.42948C39.7659 0.481322 37.4399 0 35.0491 0H22.9494C20.5586 0 18.2327 0.481322 16.038 1.42948C13.9257 2.34222 12.0254 3.64774 10.394 5.30742C8.76272 6.96709 7.47949 8.89882 6.58234 11.0495C5.65038 13.2822 5.17728 15.6486 5.17728 18.081V40.9285H4.10133C1.845 40.9285 6.00542e-05 42.8055 6.00542e-05 45.101V72.707C6.00542e-05 72.7295 6.00541e-05 72.7537 0.00164233 72.7762C0.148794 88.9415 13.076 102 29.0001 102C44.9241 102 57.8513 88.9415 57.9985 72.7762C57.9985 72.7537 58.0001 72.7295 58.0001 72.707V45.101C58.0001 42.8055 56.1551 40.9285 53.8988 40.9285ZM32.5064 69.1059C33.0317 73.7292 33.4336 82.7584 33.4336 82.7584C33.4336 83.3846 32.9304 83.8965 32.3149 83.8965H25.6852C25.0697 83.8965 24.5665 83.3846 24.5665 82.7584C24.5665 82.7584 24.9684 73.7292 25.4937 69.1059C23.4542 67.8825 22.0871 65.6256 22.0871 63.0435C22.0871 59.1591 25.182 56.0104 29.0001 56.0104C32.8181 56.0104 35.913 59.1591 35.913 63.0435C35.913 65.6256 34.5444 67.8825 32.5064 69.1059Z" fill="#F3FF90"/>
</svg>
