<svg width="108" height="90" viewBox="0 0 108 90" fill="none" xmlns="http://www.w3.org/2000/svg">
<path d="M36.0259 27.8068C33.9508 25.7188 31.5105 23.5515 29.1576 21.6425C27.6882 20.4326 20.7698 15.0682 21.2825 17.0614L21.2854 17.0685C21.9441 18.4371 22.6874 19.2169 24.6508 21.3818C26.2189 23.0372 28.4329 25.1145 30.7014 27.0697C33.4982 29.4918 36.5872 31.8902 39.6433 33.8834C44.6012 37.1444 36.9438 28.6102 36.0259 27.8068Z" fill="#F3FF90"/>
<path d="M54.4668 25.9855C54.3938 26.9038 53.7766 36.0981 53.2596 34.7543C52.9188 33.4331 52.8629 32.3239 52.671 30.8072L52.6681 30.7811C52.0309 24.7744 51.9507 17.7653 52.565 11.5856C52.9001 8.48922 53.5847 3.89624 54.1002 8.43708C54.769 14.0551 54.8048 20.2134 54.4668 25.9855Z" fill="#F3FF90"/>
<path d="M96.4284 47.8626C93.6387 48.0913 90.6328 48.192 87.7729 48.2133C82.6818 48.2595 77.3101 47.9929 72.2462 47.4881C70.7096 47.3317 69.1414 47.1433 67.8039 46.9122C67.2382 46.802 65.3564 46.4916 65.9278 46.1645C66.1899 46.0306 66.8802 45.9192 67.9757 45.8303C72.6372 45.5128 78.8696 45.5696 84.2027 45.6289C88.8112 45.7284 92.304 45.8529 96.2838 46.1503C97.5985 46.2783 99.8941 46.4145 100.773 46.8518L100.778 46.8542C101.551 47.4467 97.1674 47.7938 96.4284 47.8626Z" fill="#F3FF90"/>
<path d="M40.9336 58.2561C38.8055 62.2802 35.9528 66.4419 32.9526 70.2907L32.9268 70.3239C31.5449 72.0777 30.5367 73.2686 29.2363 74.6704C27.8458 76.1599 27.0381 76.7927 26.6929 76.7702C26.2533 76.6576 26.6958 75.6705 27.2443 74.5484C29.666 69.972 33.4481 64.9867 37.236 60.9258C38.933 59.1637 42.0435 56.1444 40.9336 58.2561Z" fill="#F3FF90"/>
<path d="M51.1745 25.1738C51.1587 25.7793 51.2131 29.4361 50.5129 28.7453C50.1978 28.3779 50.0632 28.0213 49.8283 27.5425C49.4574 26.7344 49.1223 25.9333 48.7514 24.9818C48.0769 23.2896 47.3064 20.8296 46.841 18.8424L46.831 18.8009C46.2495 16.3587 45.8142 13.8453 45.6667 11.396C45.522 8.81391 45.6996 7.53176 46.0147 7.1893C46.725 6.51149 48.147 10.2442 48.4005 10.8639C50.0073 15.1085 51.1487 20.7099 51.1745 25.1738Z" fill="#F3FF90"/>
<path d="M49.8011 32.7422C49.3729 30.537 48.896 28.2831 48.0984 25.7165C47.1374 22.6012 45.8586 19.2524 44.5024 16.2224C43.5801 14.1392 41.5967 10.1624 40.494 8.80087C39.881 8.04486 39.7879 8.73096 39.7794 9.34715V9.35781C39.8438 13.6557 41.7943 19.7726 43.805 24.458C45.3115 27.9869 47.1031 31.3748 49.2741 34.5434C50.7005 36.501 49.8913 33.4603 49.8011 32.7422Z" fill="#F3FF90"/>
<path d="M100.387 39.6282L100.378 39.6258C99.6635 39.3212 95.8742 39.5073 94.1643 39.6578C87.6712 40.1732 76.7544 41.7742 70.8786 43.8502C70.2542 44.2792 73.0639 44.3159 73.4692 44.3385C77.0824 44.4463 81.2956 44.2093 85.1765 43.7152C87.707 43.4035 90.259 43.0042 92.715 42.51C93.8679 42.2991 102.356 40.4363 100.387 39.6282Z" fill="#F3FF90"/>
<path d="M107.344 37.6943L107.339 37.6717C104.777 23.1439 93.103 10.1577 76.929 4.14271C39.4198 -9.97515 -2.4802 13.8145 0.114745 47.91C3.46583 87.8663 62.2645 104.692 94.4793 74.6929C105.077 64.7201 109.854 50.7942 107.344 37.6943ZM95.181 67.8828L95.1653 67.903C82.6073 83.8931 57.4025 90.273 36 83.4902C11.8178 75.9928 -0.871963 54.2567 6.06077 33.8158C13.7955 10.1897 45.3931 -2.22775 72.6743 6.63709C102.306 16.0435 112.273 46.3517 95.181 67.8828Z" fill="#F3FF90"/>
<path d="M57.3453 52.465L57.3196 52.4733C50.9453 54.6193 44.2847 50.3345 44.6427 44.7556C45.0079 38.57 53.4357 35.2651 59.4348 38.9835C65.2318 42.5918 64.0389 50.1887 57.3453 52.465Z" fill="#F3FF90"/>
<path d="M41.3632 46.2996C38.4847 46.7594 35.3456 46.8127 31.4761 46.9821C24.9658 47.2464 15.842 47.1871 9.97762 46.6444L9.95327 46.6421C4.92092 46.1681 6.82416 45.6727 10.2268 45.4322C13.449 45.1964 16.9232 45.1205 20.2199 45.0708C25.0145 45.002 29.9352 45.0826 34.7012 45.2912C36.1204 45.3552 37.5854 45.4393 38.8743 45.5471C39.9412 45.6585 41.0969 45.7142 41.7972 45.9962C41.979 46.1017 41.8258 46.2012 41.3632 46.2996Z" fill="#F3FF90"/>
<path d="M34.1498 49.7455C31.6967 50.5454 29.3695 51.1722 26.6328 51.7647L26.587 51.7742C22.7117 52.5966 18.4613 53.2566 14.4887 53.5671C13.7641 53.6216 13.0938 53.6619 12.4064 53.6868C9.82009 53.7768 8.65294 53.5931 8.29921 53.3265C7.53734 52.6428 11.7978 51.6415 12.6814 51.4009C19.3134 49.7894 27.6682 48.6269 34.462 48.858C36.1533 48.9303 35.7251 49.2016 34.1498 49.7455Z" fill="#F3FF90"/>
<path d="M40.8405 50.3416C39.8438 50.9056 38.9516 51.3784 37.763 51.9851C30.9362 55.405 21.8568 58.973 14.0218 60.3949L13.9989 60.3985C9.15846 61.1841 10.4445 60.1887 14.2209 58.4788C16.7528 57.2891 19.4509 56.0923 22.169 55.0151C27.2643 52.9627 33.1187 50.9412 38.3587 49.7159C39.6447 49.422 40.9322 49.0855 42.1122 49.0096C43.3166 48.9942 41.3776 50.0181 40.8405 50.3416Z" fill="#F3FF90"/>
<path d="M35.4759 56.0733C30.6083 59.9968 24.2426 63.7508 18.2307 66.1243L18.2064 66.1338C9.5795 69.2349 20.6094 62.1653 22.4482 61.1486C26.4996 58.7585 31.1525 56.3459 35.5919 54.9085C37.6198 54.2769 36.2765 55.4074 35.4759 56.0733Z" fill="#F3FF90"/>
<path d="M43.8135 52.4141C43.2565 53.1606 42.4158 54.0849 41.7084 54.8326C37.8432 58.9137 31.9788 64.1513 27.2787 67.839L27.25 67.8603C24.8441 69.8333 16.4535 75.9798 22.0831 69.7907C27.5021 64.0305 33.8147 58.5535 40.3565 53.669C41.1055 53.1085 45.8056 49.6851 43.8135 52.4141Z" fill="#F3FF90"/>
<path d="M46.4572 55.6349C44.3048 61.145 41.094 67.0119 37.836 72.0824L37.8145 72.1156C36.444 74.2391 35.3342 75.84 34.1083 77.5949C33.2719 78.7325 32.924 79.2823 32.4113 79.613C31.446 80.0561 32.9225 75.7867 33.3049 74.8482C34.3618 72.0694 35.7767 69.3771 37.3047 66.6836C39.4829 62.8715 42.1681 58.7526 44.8532 55.5756C46.3627 53.8183 47.8248 52.2304 46.4572 55.6349Z" fill="#F3FF90"/>
<path d="M46.1736 60.7327C46.0992 61.401 45.9774 62.1985 45.8414 62.9723C44.9793 67.9172 43.2393 73.1584 41.243 77.7679C40.8319 78.6934 40.262 79.8618 39.8452 80.5763C39.4987 81.1487 39.2724 81.5504 38.8514 81.913C37.7902 82.573 38.2513 79.408 38.6265 77.7419C39.5903 73.3124 41.369 68.031 43.3166 64.0234C44.0728 62.4509 45.6882 59.4315 46.0734 59.5181H46.0777C46.3355 59.5963 46.198 60.3298 46.1736 60.7327Z" fill="#F3FF90"/>
<path d="M50.3109 61.1723C50.2565 66.4466 49.2182 73.0505 47.8234 78.4066C47.3623 80.1628 46.5331 83.7189 45.9502 83.1584C45.7182 82.9629 45.6509 82.7235 45.5364 82.3846C45.4447 82.0896 45.3573 81.7092 45.2771 81.2352C45.1783 80.6451 45.0895 79.9068 45.0323 79.0074C44.7057 72.2933 46.1579 64.5993 48.4664 57.9942C48.7714 57.1493 49.0894 56.2961 49.4374 55.6491C49.6092 55.3481 49.7381 55.2142 49.8527 55.245H49.8541C50.2193 55.5827 50.1949 56.5189 50.2923 58.4208C50.3167 59.3202 50.3224 60.2492 50.3109 61.1723Z" fill="#F3FF90"/>
<path d="M54.1375 82.7994C53.0519 78.6247 52.7369 73.7852 52.6366 69.1804C52.5794 65.9904 52.6653 62.8277 52.9889 59.7017C53.2954 56.8767 53.5718 54.2153 54.0788 56.558C55.2588 62.0646 55.7242 68.2976 55.7099 74.0815V74.1206C55.7271 75.1314 55.4722 87.3781 54.1375 82.7994Z" fill="#F3FF90"/>
<path d="M64.9512 80.9615C64.8996 81.6594 64.8753 82.1619 64.6318 82.6773C63.91 83.7841 62.4622 79.7101 61.5414 77.5452C59.1168 71.3608 57.2723 64.322 56.963 57.9456C56.9644 57.5107 56.7668 55.1277 57.341 55.3943C57.5057 55.2391 58.9808 57.9965 59.6152 59.4387C62.0182 64.4037 64.0017 71.01 64.6834 76.0474L64.6891 76.0817C64.9225 77.9409 65.0185 79.3937 64.9512 80.9615Z" fill="#F3FF90"/>
<path d="M73.1398 80.1972C73.051 81.6227 71.5846 80.1557 70.3601 78.5927C68.8579 76.6707 67.5504 74.4974 66.4176 72.3621C65.0099 69.761 63.7697 66.7891 63.1023 64.2331C63.0307 63.8658 62.3677 61.9319 63.2269 62.5267C63.7697 62.785 66.5852 66.308 67.5576 67.8343C69.2446 70.3203 71.0146 73.6644 71.9856 76.0485L71.9985 76.0794C72.5813 77.6068 73.0854 78.7941 73.1398 80.1972Z" fill="#F3FF90"/>
<path d="M74.4516 72.7401C70.6208 69.1176 67.095 65.1266 63.9988 61.0206C62.561 59.0642 60.8583 56.872 59.979 54.8504C58.8505 51.4389 70.353 64.1312 71.0719 64.8931C73.3718 67.4302 75.4756 69.8854 77.3817 72.2293C78.6605 73.771 80.5867 76.3839 80.6855 76.9562L80.6884 76.9645C81.3228 79.1283 74.9113 73.2247 74.4516 72.7401Z" fill="#F3FF90"/>
<path d="M80.5767 69.4909C78.0175 67.7999 75.4197 65.8956 73.1069 63.9866C72.2204 63.3432 65.7359 57.4159 67.0678 57.5285C67.8998 57.7311 68.5457 58.1624 69.3591 58.5689C71.248 59.588 73.2458 60.7647 75.1147 62.0421C78.8639 64.5957 83.8919 68.467 86.4697 71.4307L86.4797 71.4425C89.4871 75.0591 82.4112 70.7303 80.5767 69.4909Z" fill="#F3FF90"/>
<path d="M81.3772 63.2638C76.7945 61.1154 72.2777 58.5689 68.1003 55.9133C66.82 55.0969 65.5383 54.2461 64.49 53.4438C63.9501 53.0279 63.5678 52.689 63.3544 52.4402C63.194 52.2529 63.1295 52.1143 63.1596 52.0278C63.3515 51.7339 64.3554 52.0835 65.3321 52.4176C68.9911 53.7863 73.4076 55.9655 77.4877 57.9954C80.6669 59.5927 84.4748 61.6688 87.1213 63.2306C88.7138 64.1288 92.4988 66.5379 92.6062 67.1197L92.6091 67.1245C93.043 68.6187 82.2651 63.7283 81.3772 63.2638Z" fill="#F3FF90"/>
<path d="M96.5473 60.6177H96.543C95.6608 60.9294 91.9102 60.0916 90.3965 59.7314C83.2103 58.0037 74.7996 54.8326 68.5099 51.2398C67.7695 50.8144 67.1738 50.4518 66.5551 50.0406C66.2028 49.7882 65.3994 49.2786 65.5354 49.0807C65.6472 48.9836 66.1555 49.0724 67.1107 49.3106C74.0993 51.1118 81.7753 53.6429 88.5004 56.4158C89.9769 57.064 97.6013 60.2338 96.5473 60.6177Z" fill="#F3FF90"/>
<path d="M95.1381 54.3314C92.0291 54.1477 88.6193 53.6477 85.4601 53.0765C81.5132 52.3726 77.2843 51.3476 73.896 50.1105C73.6081 49.9884 71.0246 49.1317 71.586 48.8757C71.6719 48.6636 75.9482 48.9611 77.4633 49.1151C82.4326 49.5536 88.3601 50.5359 92.9127 51.5692L92.9542 51.5787C95.31 52.1534 97.196 52.5527 99.0921 53.4047C101.166 54.4748 97.3564 54.4807 95.1381 54.3314Z" fill="#F3FF90"/>
<path d="M96.3984 35.1228C88.1295 38.4775 78.957 40.8937 69.9277 42.3951C69.309 42.4804 64.9784 43.1795 66.0009 42.2944C66.3145 42.036 67.0821 41.6675 68.2535 41.2077C69.6799 40.6472 71.7135 39.9493 74.1552 39.1779C80.0668 37.2819 89.0288 34.8361 94.8259 33.7305L94.8546 33.7258C99.2711 32.856 101.239 33.0479 96.3984 35.1228Z" fill="#F3FF90"/>
<path d="M93.444 29.3212C91.7169 30.4315 89.6375 31.5644 87.571 32.6024C84.1769 34.31 80.0067 36.1621 76.4852 37.3423C75.4383 37.6706 71.1392 39.1767 71.0547 38.5984C71.1177 38.128 73.747 36.5128 74.9486 35.7533C80.0955 32.6154 87.3433 29.2619 93.2664 27.5082L93.2864 27.5022C96.7005 26.5412 96.3583 27.4667 93.444 29.3212Z" fill="#F3FF90"/>
<path d="M90.617 23.9295C88.8283 25.3705 86.7232 26.8434 84.7225 28.1978C81.1638 30.6093 77.3516 32.9235 73.5465 35.0802C71.2982 36.341 68.825 37.7346 66.5408 38.7359C65.7345 39.0878 64.5258 39.4978 65.3178 38.5771C67.221 36.6005 70.2527 34.5339 73.1499 32.4756C77.8815 29.1636 84.3259 25.2057 89.1635 22.8856L89.1849 22.8749C93 21.0642 93.7218 21.434 90.617 23.9295Z" fill="#F3FF90"/>
<path d="M86.0744 19.1138C84.5206 20.7834 82.6331 22.5158 80.8387 24.1191C77.5392 27.0662 73.9762 29.9552 70.4117 32.6889C68.4884 34.1559 66.399 35.7521 64.4141 37.0082C59.3359 40.1021 66.7327 32.715 68.0574 31.5146C72.3021 27.3944 78.6219 22.1201 83.4752 18.9348L83.4967 18.9206C86.1546 17.1348 89.4341 15.4427 86.0744 19.1138Z" fill="#F3FF90"/>
<path d="M79.272 17.0981C75.5128 22.2741 70.7955 27.7629 66.0696 32.2434C64.7292 33.4852 63.8885 34.2981 62.6355 35.2722C61.4468 36.1372 61.8163 35.2994 62.9835 33.2624C65.988 28.0402 70.8241 22.2279 75.1992 17.9288L75.2264 17.9015C78.0333 15.1299 85.377 8.78547 79.272 17.0981Z" fill="#F3FF90"/>
<path d="M73.3976 13.7091C71.301 18.3589 68.1648 23.7032 64.5101 27.6326C62.8145 29.4658 62.223 30.0464 63.5377 26.7593C64.0074 25.5612 64.4671 24.4426 65.0629 23.1913L65.0786 23.1569C66.4949 20.1968 68.3695 17.078 70.3516 14.2826C71.1678 13.0952 73.6253 9.97993 74.4029 9.81996C75.2479 9.67776 73.6525 13.0929 73.3976 13.7091Z" fill="#F3FF90"/>
<path d="M68.023 9.77137C67.612 15.0623 65.418 20.7751 63.1525 25.9049C62.0025 28.5178 59.134 33.8976 57.6361 35.4049C56.7482 36.1917 57.5945 32.8631 57.6633 32.35L57.6676 32.3275C58.5898 27.5568 60.3613 22.286 62.4608 17.5567C63.4632 15.2069 66.094 10.1482 67.1623 9.0118C67.9399 8.13966 68.0473 9.14096 68.023 9.77137Z" fill="#F3FF90"/>
<path d="M61.1146 11.018C60.8983 15.3669 60.0348 20.4457 58.9006 24.804C58.5082 26.2876 56.9043 31.7172 56.2097 31.607H56.2068C55.793 31.7303 55.5939 29.3473 55.6354 27.6895C55.6354 23.0953 56.5691 17.5768 57.9039 12.9068C59.0853 8.81983 61.5156 3.21724 61.1146 11.018Z" fill="#F3FF90"/>
<path d="M43.1934 28.5118C41.1699 26.2296 39.3526 23.638 37.826 21.0074C36.3653 18.4905 35.2683 16.2781 34.4849 14.1297C33.8333 12.216 33.5884 11.3462 33.7259 10.5215L33.7288 10.5155C34.3904 8.85538 38.2771 15.1204 38.9201 16.143C40.2706 18.3412 41.5995 20.7964 42.6478 23.0787C43.477 24.874 44.0155 26.3599 44.5081 27.9277C45.1611 30.0334 45.0752 30.6187 43.1934 28.5118Z" fill="#F3FF90"/>
<path d="M47.1417 36.8802C46.9885 36.9323 46.6333 36.7486 46.0963 36.3375C41.9404 32.8358 37.2732 27.4228 33.6658 22.9507C31.3644 20.0084 28.6191 16.4357 27.3861 13.9235L27.3818 13.9129C25.6575 9.8875 34.9031 20.1708 35.2754 20.6341C38.9287 24.7329 42.3872 29.0771 45.4318 33.4615C46.0748 34.4154 46.735 35.412 47.1031 36.2533C47.2592 36.6254 47.2706 36.8375 47.1417 36.8802Z" fill="#F3FF90"/>
<path d="M43.5128 39.3438C43.2507 39.3817 42.6507 39.1933 41.747 38.7916C40.6572 38.3069 39.1206 37.5094 37.2703 36.4619C32.5187 33.8206 25.9654 29.5238 21.758 26.1822C20.1784 24.9984 16.8201 22.1331 16.6125 21.4328L16.6096 21.4268C15.9179 19.5439 25.7048 25.7734 26.8362 26.482C29.1189 27.9288 31.4861 29.4942 33.6901 31.0442C35.4416 32.2872 44.7888 38.8496 43.5128 39.3438Z" fill="#F3FF90"/>
<path d="M32.0346 36.7084C26.5913 35.1086 20.0409 31.9424 15.7403 29.1517C14.7322 28.5344 12.3792 26.8102 12.511 26.3552V26.3516C12.6685 25.6335 16.117 26.9335 17.2899 27.347C21.1794 28.8057 25.1162 30.7195 28.6277 32.7114C30.7687 33.9722 32.417 35.0233 34.041 36.3778C35.6693 37.8199 32.8681 36.9465 32.0346 36.7084Z" fill="#F3FF90"/>
<path d="M42.1967 42.3181C41.9576 42.4034 41.2988 42.3655 40.2577 42.2079C35.9815 41.5028 30.9147 40.2005 26.0027 38.8093C22.5628 37.8175 18.8136 36.5472 16.074 35.521C12.6456 34.1678 10.9228 33.5942 9.38903 32.4543L9.38473 32.4495C7.89536 30.5666 27.5522 36.4394 29.2406 37.065C32.7836 38.2074 38.0021 40.0216 40.524 41.1426C41.0367 41.3807 42.7252 42.1012 42.1967 42.3181Z" fill="#F3FF90"/>
<path d="M37.2847 43.7744C33.6944 44.0659 26.8104 43.4722 22.6788 42.9354C17.6608 42.241 10.645 41.2599 7.4686 39.5736L7.46287 39.5689C5.82457 38.1493 16.4592 39.2205 17.7195 39.3603C21.1851 39.7312 24.9372 40.268 28.3083 40.9091C29.1361 41.017 39.9784 43.3881 37.2847 43.7744Z" fill="#F3FF90"/>
</svg>
