<svg width="17" height="12" viewBox="0 0 17 12" fill="none" xmlns="http://www.w3.org/2000/svg">
<path d="M16.5655 4.23372C16.0893 3.09188 15.1212 2.95714 14.5238 4.09725C13.8328 5.41183 13.928 7.25329 13.6007 8.56269C12.9634 10.9362 12.6587 6.9078 12.5305 6.29801C12.4318 5.70205 12.2967 5.12162 12.0595 4.58266C10.9667 2.14352 8.56303 2.05197 7.70407 4.61376C7.50838 4.99034 7.22609 6.50703 6.92649 6.38439C6.86761 6.34466 6.82433 6.26001 6.79316 6.18227C6.62691 5.80915 6.5178 4.91088 6.30652 3.99188C6.02078 2.52183 5.25015 1.34889 3.93228 0.625094C1.42641 -0.808681 0.0686914 0.321066 0.00288425 3.02278C-0.0317511 4.79859 0.231478 6.6245 1.56148 7.87171C2.55897 8.83735 4.1851 9.55078 5.77833 10.0742C7.56551 10.6546 9.4012 11.14 11.2438 11.4752C14.522 12.0314 16.7352 11.7654 16.9673 7.79743V7.76116C17.0591 6.47767 16.9673 5.10608 16.5655 4.23372Z" fill="white"/>
</svg>
