<svg width="15" height="12" viewBox="0 0 15 12" fill="none" xmlns="http://www.w3.org/2000/svg">
<path d="M14.5609 4.13139L14.5458 4.11127C13.8515 3.23597 12.4697 2.50823 10.9854 1.79894C8.56977 0.715719 5.69188 -0.47314 3.05605 0.192555C0.226907 1.00916 -0.551404 4.43992 0.364748 7.02221C0.855604 8.57662 1.70788 10.4278 2.96864 11.1958C5.18758 12.5507 8.49244 11.1539 10.6509 10.0271C12.537 8.95055 16.2772 6.44707 14.5609 4.13139ZM5.68851 7.74492L5.65658 7.72983C3.86125 6.83609 3.71164 4.43992 5.39938 3.37179C7.12914 2.21311 9.95996 3.49085 9.97341 5.6204C9.94651 7.64263 7.33926 8.64872 5.68851 7.74492Z" fill="white"/>
</svg>
