<svg width="38" height="26" viewBox="0 0 38 26" fill="none" xmlns="http://www.w3.org/2000/svg">
<path d="M37.2465 10.9841C37.0715 13.1574 36.2 15.3174 34.8422 16.9655L34.8203 16.9923C26.7427 26.4143 11.4824 28.4551 0.722884 23.0694C0.150836 22.7472 -0.109957 22.482 0.0431501 22.3259C0.165972 22.19 0.588286 22.1346 1.20744 22.138C10.6597 22.6062 21.3385 23.7659 28.6994 17.4169C32.5473 14.0721 33.4457 11.6 32.5422 6.57854C32.3504 5.35339 32.2444 3.99733 32.2411 2.83092C32.2545 1.46982 32.2091 0.538375 32.5086 0.0348878C33.4356 -0.505522 37.7142 5.32654 37.2465 10.9841Z" fill="white"/>
</svg>
