<svg width="45" height="33" viewBox="0 0 45 33" fill="none" xmlns="http://www.w3.org/2000/svg">
<path d="M20.1391 0.23742C18.2841 0.455987 16.4057 0.682897 14.5608 1.04328C5.7193 2.85188 -1.64864 10.9055 0.321717 19.6315C0.989098 22.6447 3.44284 25.6229 5.9819 27.6017L6.01034 27.6234C13.6626 34.0369 25.5734 34.5441 34.3313 30.0427C37.603 28.3508 40.4532 25.9633 42.3951 22.8666C50.2782 9.08856 33.2257 -1.75805 20.1391 0.23742ZM22.8956 29.8074C14.4019 30.3613 3.80414 24.8871 4.75419 15.5872C5.70425 7.32 14.9004 3.56265 22.9993 3.94138H23.0444C44.7753 4.02981 45.3958 27.9354 22.8956 29.8074Z" fill="white"/>
</svg>
