<svg width="12" height="9" viewBox="0 0 12 9" fill="none" xmlns="http://www.w3.org/2000/svg">
<path d="M11.4939 5.7255C11.1111 6.72765 10.3049 7.50204 9.29317 7.86646C7.91264 8.46039 2.33959 9.21902 0.974863 8.30096C-0.405668 7.43197 -0.0262761 4.05058 0.347837 2.67701C0.504157 2.0603 1.05741 1.26138 1.63351 1.70464L1.64758 1.71515C2.6821 2.66299 2.55211 4.40274 2.97716 5.6344C3.05093 5.8464 3.18443 5.93224 3.29684 5.69572C3.67447 4.77767 3.68324 3.6774 4.01344 2.66299C4.35945 1.51542 5.19901 0.860169 6.40566 0.497503C7.76336 0.131333 10.8687 -0.606265 11.6345 0.956529C12.2299 2.3669 12.0367 4.24681 11.4939 5.7255Z" fill="white"/>
</svg>
