<svg width="17" height="12" viewBox="0 0 17 12" fill="none" xmlns="http://www.w3.org/2000/svg">
<path d="M16.9585 10.4943C16.8293 11.2574 16.1544 11.6067 15.4149 11.3947C14.4577 11.1353 13.5465 10.4112 12.7033 9.85154C11.3909 8.95616 10.1481 8.12862 8.59089 7.58257C7.08295 7.04331 5.4747 6.81607 3.88686 6.59731C2.70193 6.38025 -0.99396 6.19711 0.253872 4.39617L0.267486 4.37752C1.18041 3.28882 2.77334 2.78177 4.16397 2.57319C5.3217 2.40192 6.51004 2.46975 7.63887 2.32391C8.53309 2.21877 9.39671 1.98814 10.2433 1.67442C11.6493 1.17077 13.1521 0.368658 14.5921 0.0888515C15.2925 -0.0417248 15.8722 -0.0247668 16.1561 0.115984C16.8429 0.538237 15.7056 1.19451 15.2347 1.52349C14.5053 2.03054 13.6876 2.407 13.3714 3.16333C13.0008 4.48605 15.2687 5.86812 16.1391 7.46047C16.6797 8.33042 17.1438 9.49712 16.9585 10.4943Z" fill="white"/>
</svg>
