<svg width="50" height="62" viewBox="0 0 50 62" fill="none" xmlns="http://www.w3.org/2000/svg">
<path d="M48.4292 4.49683C48.0649 2.66969 47.8215 0.720845 46.0661 0.127358C44.7249 -0.24774 43.3483 0.292401 42.0297 0.630822C41.1512 0.889223 40.1292 1.16263 39.4231 1.49605C38.3189 1.98784 38.0691 2.75137 38.5623 3.68662L38.5736 3.70996C39.0991 4.71188 40.1292 5.88052 40.8707 6.88245C41.9169 8.15611 42.9195 9.73652 44.3816 10.47C45.705 11.1602 47.4346 10.7284 48.2342 9.42644C49.0337 8.17111 48.721 6.17393 48.4292 4.49683Z" fill="white"/>
<path d="M27.6235 8.42285C28.8325 9.84822 29.8883 11.512 31.2553 12.809C31.8678 13.3658 32.5529 13.7076 33.4314 13.7676C34.6984 13.8659 37.3711 13.2624 38.2964 12.4606C38.8944 11.8871 38.4011 11.0752 37.9627 10.5084C37.5113 9.9199 36.9762 9.29474 36.5119 8.68625C36.0332 8.06942 35.5496 7.44926 35.0579 6.83743C34.181 5.73381 33.2057 4.56851 31.8646 4.10172C30.3993 3.60993 28.3876 3.94168 27.0029 4.52017C25.0943 5.37539 26.6805 7.2242 27.6041 8.39951L27.6235 8.42285Z" fill="white"/>
<path d="M26.0663 15.1879C25.7036 16.3816 23.0664 16.8217 21.988 16.875C20.8709 16.9367 19.8183 16.5183 19.0671 15.6731C17.8195 14.226 16.7346 12.6039 15.5562 11.1102L15.5369 11.0852C14.5085 9.67984 13.4832 8.11777 15.5965 7.3559C16.5009 7.00248 17.5986 6.71074 18.5932 6.73574C20.563 6.7174 21.6818 8.24447 22.823 9.79487C23.434 10.5901 24.0497 11.3853 24.651 12.1905C25.2265 13.039 26.2904 14.131 26.0663 15.1879Z" fill="white"/>
<path d="M36.9745 25.5156C37.5855 24.4087 39.0363 22.6682 38.9911 21.4846C38.9911 20.6127 36.7876 20.7861 35.8655 20.8044C31.2875 20.9578 31.0312 23.2617 29.0114 26.7793C28.6632 27.4328 28.2199 28.0996 28.0781 28.8215C27.775 30.4219 30.9054 30.2552 31.8807 30.1852C33.0333 30.0735 33.9553 29.7334 34.6936 28.9348C35.5931 27.9313 36.2314 26.6993 36.96 25.5406L36.9762 25.514L36.9745 25.5156Z" fill="white"/>
<path d="M26.5273 22.8966C27.1077 21.5329 26.558 20.9628 25.1185 20.8294C24.0691 20.7327 22.8472 20.7294 21.8091 20.9728C20.2406 21.2912 19.4862 22.4432 18.7963 23.9102C18.2192 25.0672 17.5535 26.1958 16.9619 27.3411C16.3284 28.5597 15.8786 29.8768 17.6067 30.1668C18.5174 30.3252 19.6104 30.2135 20.5324 30.0351C22.8778 29.6067 23.787 28.1413 24.9589 25.8841C25.4634 24.9205 26.0986 23.9119 26.5177 22.9216L26.529 22.8949L26.5273 22.8966Z" fill="white"/>
<path d="M49.6156 28.098C49.1272 30.4136 47.8312 30.5103 44.8845 30.3002C43.8351 30.2285 42.6213 30.2235 41.6009 30.1202C39.9051 29.9568 40.018 29.1666 40.7337 27.8396C41.2979 26.811 41.9201 25.7574 42.4988 24.7288C43.2113 23.5051 43.8077 22.2664 44.8845 21.5329C46.1515 20.6527 48.1568 20.6027 49.2449 21.793C49.6624 22.2681 49.8752 22.8899 49.9574 23.6168L49.9606 23.6451C50.0815 25.0638 49.9122 26.6976 49.6156 28.098Z" fill="white"/>
<path d="M14.1055 20.0525C13.9894 19.8125 13.9346 19.5524 13.9346 19.279C14.1296 17.3352 14.2489 17.1518 12.9594 15.5164C11.32 13.6292 9.79022 10.5617 7.27876 10.205C5.79091 10.0133 4.22891 10.5184 2.85228 11.0485C-0.0944088 12.2105 -0.0154244 14.5028 0.00875526 17.4802C0.0168151 20.1092 -0.0170332 22.7466 0.0119824 25.3289C0.0168183 27.5595 0.105482 29.6917 2.55568 30.1051L2.58308 30.1118C3.9178 30.3519 5.39758 30.3335 6.75809 30.3702C9.99332 30.4669 11.8149 29.6417 13.2592 26.5626C13.8927 25.1989 14.7535 23.6285 14.9872 22.1648C15.1259 21.3362 14.4262 20.6944 14.1039 20.0509L14.1055 20.0525ZM5.60553 25.7423C5.02683 27.2077 3.29235 26.7559 3.09085 25.2756L3.0844 25.2456C2.88452 24.237 3.65182 22.8699 4.75602 23.2467C5.62165 23.5568 5.96178 24.8521 5.60553 25.7423ZM5.56039 17.2918C4.62545 17.8786 3.62442 16.895 3.55027 15.9148C3.26172 13.6792 5.59747 12.5356 6.29062 14.9946L6.29868 15.0262C6.48889 15.8364 6.25999 16.8667 5.56039 17.2918ZM11.5521 25.2139C11.3812 26.9493 9.41624 27.4228 8.99712 25.5406L8.99068 25.5106C8.86494 24.8521 9.02775 24.0486 9.52907 23.6018C10.6446 22.6599 11.752 23.9219 11.5521 25.2139Z" fill="white"/>
<path d="M22.8699 39.5661C22.8699 39.592 22.8699 39.6144 22.8699 39.6144C22.8699 39.6144 22.8699 39.5868 22.8699 39.5609C22.8699 39.5609 22.8699 39.5644 22.8666 39.5661H22.8699ZM22.8699 39.5661C22.8699 39.592 22.8699 39.6144 22.8699 39.6144C22.8699 39.6144 22.8699 39.5868 22.8699 39.5609C22.8699 39.5609 22.8699 39.5644 22.8666 39.5661H22.8699ZM22.8699 39.5661C22.8699 39.592 22.8699 39.6144 22.8699 39.6144C22.8699 39.6144 22.8699 39.5868 22.8699 39.5609C22.8699 39.5609 22.8699 39.5644 22.8666 39.5661H22.8699Z" fill="white"/>
<path d="M44.6492 55.4801C47.1525 55.2834 48.1375 54.4648 48.002 51.7274L47.9988 51.7008C47.9102 50.2904 47.2541 49.6052 46.2869 49.2935C46.2385 49.2768 46.1886 49.2618 46.137 49.2501C45.676 49.1218 45.1489 49.0717 44.5831 49.0617C44.1414 49.0317 41.7347 49.2234 41.5558 48.6333C41.4494 48.2649 42.7599 47.9848 44.338 48.0115C45.3117 48.0065 46.2998 48.0681 47.0961 47.4997C48.181 46.5728 48.1326 45.0157 48.0198 43.582C47.6232 39.8694 44.4944 40.9313 42.1151 40.2044C41.9362 40.1027 42.1635 40.0077 42.7228 39.9544C43.9302 39.8027 45.7663 40.0594 46.8882 39.3909C48.1858 38.594 47.5765 37.2253 46.3433 36.8252C45.4648 36.4785 43.4353 36.7269 43.4192 36.2017C43.4128 35.95 43.8351 35.6366 44.7378 35.5316C45.5857 35.4315 46.3885 35.5549 46.9382 35.2965C47.8666 34.9331 47.9908 33.7711 47.1671 33.0959C46.382 32.3957 44.9377 32.4291 43.8641 32.4057C42.0233 32.4124 39.9938 32.3891 38.2383 32.3641C27.3607 32.4441 16.5089 32.3124 5.23479 32.4758C3.95649 32.4441 2.45896 32.6225 2.04952 33.9728C1.75453 34.8247 1.98343 35.9817 2.52183 36.7202C3.85816 38.4223 6.34543 37.317 6.58078 38.1722C6.73714 38.9741 5.79736 38.579 3.86138 38.9024C1.87865 39.1308 1.49017 41.5148 3.36167 42.315C4.88015 42.8268 5.20577 42.4617 6.79517 42.8685C7.50605 43.0502 8.61509 43.4703 5.98596 43.5203C4.67381 43.6153 2.98124 43.5486 2.22039 44.8173C1.71907 45.7009 1.80289 47.0079 2.45735 47.7747C2.99414 48.4049 3.95809 48.6266 4.7528 48.7733C5.2654 48.8767 5.76673 48.9884 5.44111 49.1734C4.7254 49.4152 3.01025 49.5619 2.41705 50.5555C1.75936 51.344 1.52725 54.7432 2.5444 55.0966C3.23271 55.35 4.05643 55.2834 4.77859 55.4001C5.01072 55.4484 5.57652 55.4934 5.65712 55.6501C5.69097 55.7285 5.59425 55.7718 5.52655 55.8035C5.16225 55.9852 3.82914 56.0452 3.07958 56.5253C2.04791 57.1155 2.02695 58.5259 2.62016 59.4794C3.98389 61.8334 7.01118 61.7634 9.36627 61.7467C12.3726 61.6934 15.6207 61.9918 18.5626 61.8434C20.6195 61.6984 22.441 61.5383 24.4527 61.7534C30.3332 62.2785 37.2857 61.8334 43.3741 61.625C44.2961 61.525 45.1988 61.2916 45.9549 60.8065C47.9392 59.5028 48.5695 56.7988 45.4648 56.457C44.4331 56.3203 42.1973 56.497 42.1183 56.1753C42.0442 55.8752 43.5836 55.5868 44.6492 55.4801ZM24.6478 55.115C24.1771 55.115 23.6371 55.1133 23.2035 55.2383C22.0815 55.4951 22.2685 56.7804 21.635 57.5173C20.9983 58.2791 19.562 58.0291 18.6545 57.6873C16.949 57.0355 15.4144 56.2603 13.7476 57.3289C12.9191 57.819 12.0647 58.6409 11.2039 58.9827C9.98204 59.4528 9.69511 58.6009 10.248 57.6056C10.5704 56.9821 11.0073 56.4503 11.4167 55.8802C12.7595 54.1914 12.5983 52.6943 12.4871 50.5721C12.45 49.2435 12.5564 47.3863 13.9072 46.8112C14.3553 46.6144 14.8599 46.5194 15.2145 46.1426C15.948 45.2874 15.9689 44.1905 16.3026 42.9385C16.5976 41.5848 17.1102 40.1778 18.1161 39.2275C18.598 38.7857 19.159 38.4206 19.7796 38.6074C20.4792 38.8824 20.7613 39.801 21.1643 40.3712C21.361 40.6562 21.6269 40.9463 21.9703 40.8096C22.254 40.7179 22.5781 40.1629 22.8699 39.5661L22.8698 39.5159C22.8698 39.5159 22.8699 39.5426 22.8699 39.5609C23.0456 39.1992 23.2147 38.8224 23.3534 38.5223C23.9498 37.1103 25.4183 34.828 26.853 36.4385L26.8675 36.4551C27.393 37.0203 27.7831 38.2139 28.7164 37.9789C29.3596 37.8088 30.2397 36.8536 31.1553 36.3651C32.2579 35.7299 33.7313 35.8216 34.6904 36.6952C36.5441 38.4707 35.34 40.6912 33.9279 42.225C32.7093 43.572 33.5717 43.6237 34.2922 44.979C34.9709 46.281 34.4986 48.0198 33.2654 48.7817C32.403 49.3785 31.115 49.5002 30.0817 49.6652C29.6804 49.7486 29.2403 49.8053 28.934 50.082C28.3843 50.6288 29.3757 51.8808 29.503 52.576C29.9496 53.9447 28.8405 54.6782 27.7121 54.9099C26.7369 55.1333 25.6698 55.1283 24.6478 55.115Z" fill="white"/>
<path d="M25.2507 44.7606C24.219 44.5072 25.4167 41.9282 24.572 43.1669C23.687 44.4855 21.0515 48.6666 19.8876 47.5163C19.6329 47.1946 19.5652 46.6128 19.5169 46.1793C19.4717 45.9709 19.483 45.0974 19.2896 45.2891C19.1606 45.4258 18.4788 46.0626 18.5997 47.0345C18.7367 48.1498 19.2461 49.4218 18.2273 50.6622C17.7534 51.2406 15.5014 52.9794 15.1339 53.5246C14.8679 53.923 14.7261 54.2664 15.3451 54.0164C15.8932 53.818 17.1086 53.2478 18.0838 52.6527C18.7818 52.2259 19.4475 51.7141 20.0778 51.6574C21.0321 51.5591 22.1927 52.5376 23.0439 52.3309C23.5194 52.2042 23.2695 51.9508 22.9971 51.7874C22.1621 51.2556 20.3938 50.7422 21.3174 49.4552C22.1057 48.3532 23.4501 47.2346 25.1684 46.7928C26.8868 46.351 28.7664 47.1829 29.063 46.4544C29.1581 46.2227 27.0029 46.2077 26.6902 45.5642C26.1985 44.4055 29.8657 42.1616 30.5895 41.4198C30.8039 41.243 32.1934 40.0294 31.3375 40.3011C30.7378 40.5379 30.1043 40.953 29.4515 41.3731C28.4843 41.9549 25.2507 44.7606 25.2507 44.7606Z" fill="white"/>
</svg>
