<?xml version="1.0" encoding="UTF-8"?>
<svg width="40" height="40" viewBox="0 0 40 40" fill="none" xmlns="http://www.w3.org/2000/svg">
  <path d="M20 40C31.0457 40 40 31.0457 40 20C40 8.9543 31.0457 0 20 0C8.9543 0 0 8.9543 0 20C0 31.0457 8.9543 40 20 40Z" fill="#06D001"/>
  <path d="M22.8413 9.50146C19.752 9.32189 16.7082 10.6019 14.5938 12.8981C14.0603 13.4683 13.1366 13.4969 12.5664 12.9634C11.9962 12.4299 11.9676 11.5061 12.5011 10.936C15.2451 7.96799 19.1693 6.32373 23.1587 6.55104C29.0639 6.89897 33.9323 11.3687 34.7803 17.2272C35.773 24.165 30.9584 30.6098 24.0206 31.6025C19.809 32.2002 15.6427 30.3693 13.3294 27.0206C12.9188 26.4032 13.0963 25.5906 13.7137 25.18C14.3311 24.7695 15.1436 24.947 15.5542 25.5644C17.2693 28.0704 20.3693 29.4431 23.5794 28.9975C28.7443 28.2622 32.295 23.6281 31.5598 18.4633C30.9321 14.0654 27.2399 10.7811 22.8413 9.50146Z" fill="white" stroke="white" stroke-width="0.5"/>
  <path d="M18.1608 16.0001C18.1608 14.4812 17.148 13.3334 15.6292 13.3334H12.6719V21.3334H15.0871C15.2969 21.3334 15.5067 21.3334 15.6292 21.3334C17.148 21.2624 18.1608 20.0437 18.1608 18.6667V16.0001ZM15.2205 18.6667C15.2205 19.0154 14.9573 19.3334 14.6086 19.3334H15.6292H14.6086C14.26 19.3334 13.9968 19.0702 13.9968 18.7215V15.9452C13.9968 15.5966 14.26 15.3334 14.6086 15.3334H15.6292C15.9778 15.3334 16.2411 15.5966 16.2411 15.9452V18.6667H15.2205Z" fill="white"/>
  <path d="M27.5429 16.5477C27.5429 14.8081 26.1659 13.3334 24.4811 13.3334H19.543V21.3334H21.8779V18.6667H23.8984L25.2081 21.3334H27.543L26.099 18.4995C26.9061 18.0831 27.5429 17.3935 27.5429 16.5477ZM24.7865 16.5477C24.7865 16.9511 24.4811 17.3334 24.0776 17.3334H21.8779V15.3334H24.0776C24.4811 15.3334 24.7865 15.7157 24.7865 16.1192V16.5477Z" fill="white"/>
</svg> 