<svg width="407" height="41" viewBox="0 0 407 41" fill="none" xmlns="http://www.w3.org/2000/svg">
<g opacity="0.1">
<rect width="407" height="41" rx="20.5" fill="white"/>
</g>
<path d="M5.95605 20.5C5.95605 11.3873 13.3434 4 22.4561 4H185.044C194.157 4 201.544 11.3873 201.544 20.5C201.544 29.6127 194.157 37 185.044 37H22.456C13.3433 37 5.95605 29.6127 5.95605 20.5Z" fill="#F3FF90"/>
<path d="M73.5805 27V14.04H79.6005C80.6672 14.04 81.5339 14.32 82.2005 14.88C82.8805 15.44 83.2205 16.2067 83.2205 17.18C83.2205 17.7 83.0739 18.1867 82.7805 18.64C82.4872 19.0933 82.1472 19.3933 81.7605 19.54C82.5339 19.6733 83.1805 20.0667 83.7005 20.72C84.2339 21.3733 84.5005 22.1467 84.5005 23.04C84.5005 24.24 84.0539 25.2 83.1605 25.92C82.2672 26.64 81.0805 27 79.6005 27H73.5805ZM75.1805 25.58H79.5005C80.5139 25.58 81.3205 25.3533 81.9205 24.9C82.5205 24.4333 82.8205 23.82 82.8205 23.06C82.8205 22.2733 82.5605 21.6467 82.0405 21.18C81.5339 20.7 80.8072 20.46 79.8605 20.46H75.1805V25.58ZM75.1805 19.04H79.6805C80.2539 19.04 80.7072 18.88 81.0405 18.56C81.3739 18.2267 81.5405 17.8 81.5405 17.28C81.5405 16.7467 81.3605 16.3133 81.0005 15.98C80.6405 15.6333 80.1339 15.46 79.4805 15.46H75.1805V19.04ZM86.2204 22.14C86.2204 20.74 86.7204 19.5467 87.7204 18.56C88.7204 17.56 89.9271 17.06 91.3404 17.06C92.7537 17.06 93.9604 17.56 94.9604 18.56C95.9604 19.5467 96.4604 20.74 96.4604 22.14C96.4604 23.5267 95.9604 24.72 94.9604 25.72C93.9604 26.7067 92.7537 27.2 91.3404 27.2C89.9271 27.2 88.7204 26.7067 87.7204 25.72C86.7204 24.72 86.2204 23.5267 86.2204 22.14ZM88.8204 19.6C88.1271 20.3067 87.7804 21.1533 87.7804 22.14C87.7804 23.1267 88.1271 23.9733 88.8204 24.68C89.5137 25.3733 90.3537 25.72 91.3404 25.72C92.3271 25.72 93.1671 25.3733 93.8604 24.68C94.5537 23.9733 94.9004 23.1267 94.9004 22.14C94.9004 21.1533 94.5537 20.3067 93.8604 19.6C93.1671 18.8933 92.3271 18.54 91.3404 18.54C90.3537 18.54 89.5137 18.8933 88.8204 19.6ZM98.3954 23.28V17.26H99.9154V22.96C99.9154 24.8 100.749 25.72 102.415 25.72C103.215 25.72 103.875 25.4467 104.395 24.9C104.915 24.3533 105.175 23.6133 105.175 22.68V17.26H106.695V27H105.175V25.5C104.482 26.6333 103.435 27.2 102.035 27.2C100.849 27.2 99.9421 26.84 99.3154 26.12C98.7021 25.3867 98.3954 24.44 98.3954 23.28ZM109.338 27V17.26H110.858V19.32C111.151 18.6533 111.618 18.1133 112.258 17.7C112.898 17.2733 113.684 17.06 114.618 17.06V18.74C113.524 18.74 112.624 19.06 111.918 19.7C111.211 20.3267 110.858 21.3267 110.858 22.7V27H109.338ZM115.634 25.68L116.374 24.46C117.188 25.3 118.208 25.72 119.434 25.72C120.128 25.72 120.708 25.5867 121.174 25.32C121.641 25.04 121.874 24.68 121.874 24.24C121.874 24.0133 121.808 23.8133 121.674 23.64C121.554 23.4667 121.361 23.32 121.094 23.2C120.841 23.08 120.601 22.9867 120.374 22.92C120.161 22.8533 119.868 22.7733 119.494 22.68C118.948 22.5467 118.508 22.4267 118.174 22.32C117.854 22.2 117.508 22.0333 117.134 21.82C116.761 21.6067 116.488 21.34 116.314 21.02C116.141 20.6867 116.054 20.2933 116.054 19.84C116.054 19.0133 116.414 18.3467 117.134 17.84C117.854 17.32 118.661 17.06 119.554 17.06C120.741 17.06 121.861 17.42 122.914 18.14L122.174 19.32C121.414 18.8 120.548 18.54 119.574 18.54C119.054 18.54 118.594 18.6667 118.194 18.92C117.808 19.16 117.614 19.46 117.614 19.82C117.614 20.0333 117.668 20.22 117.774 20.38C117.881 20.54 118.061 20.68 118.314 20.8C118.581 20.9067 118.801 20.9867 118.974 21.04C119.161 21.08 119.448 21.1467 119.834 21.24C120.368 21.36 120.808 21.4867 121.154 21.62C121.514 21.74 121.888 21.9133 122.274 22.14C122.661 22.3533 122.948 22.6333 123.134 22.98C123.334 23.3267 123.434 23.7333 123.434 24.2C123.434 25.1733 123.034 25.92 122.234 26.44C121.434 26.9467 120.508 27.2 119.454 27.2C117.868 27.2 116.594 26.6933 115.634 25.68ZM126.648 21.5H133.088C132.995 20.6067 132.641 19.8733 132.028 19.3C131.428 18.7133 130.715 18.42 129.888 18.42C129.075 18.42 128.361 18.7133 127.748 19.3C127.135 19.8867 126.768 20.62 126.648 21.5ZM125.068 22.14C125.068 20.74 125.541 19.5467 126.488 18.56C127.435 17.56 128.588 17.06 129.948 17.06C131.228 17.06 132.328 17.5533 133.248 18.54C134.168 19.5267 134.628 20.7 134.628 22.06L134.588 22.7H126.668C126.788 23.6333 127.181 24.3867 127.848 24.96C128.515 25.5333 129.301 25.82 130.208 25.82C131.381 25.82 132.381 25.4467 133.208 24.7L133.928 25.8C132.821 26.7333 131.581 27.2 130.208 27.2C128.781 27.2 127.568 26.7267 126.568 25.78C125.568 24.8333 125.068 23.62 125.068 22.14Z" fill="#0A0400"/>
<path d="M275.631 24.26C274.338 22.9533 273.691 21.3733 273.691 19.52C273.691 17.6667 274.338 16.0933 275.631 14.8C276.938 13.4933 278.538 12.84 280.431 12.84C282.165 12.84 283.665 13.4 284.931 14.52L283.951 15.62C282.965 14.74 281.825 14.3 280.531 14.3C279.065 14.3 277.838 14.8067 276.851 15.82C275.865 16.8333 275.371 18.0667 275.371 19.52C275.371 20.96 275.858 22.1933 276.831 23.22C277.818 24.2333 279.025 24.74 280.451 24.74C281.945 24.74 283.205 24.2067 284.231 23.14L285.251 24.24C283.945 25.5467 282.345 26.2 280.451 26.2C278.545 26.2 276.938 25.5533 275.631 24.26ZM286.924 26V16.26H288.444V18.32C288.737 17.6533 289.204 17.1133 289.844 16.7C290.484 16.2733 291.27 16.06 292.204 16.06V17.74C291.11 17.74 290.21 18.06 289.504 18.7C288.797 19.3267 288.444 20.3267 288.444 21.7V26H286.924ZM294.716 28.94V27.5C295.289 27.5 295.742 27.38 296.076 27.14C296.422 26.9133 296.749 26.4667 297.056 25.8L297.256 25.36L292.816 16.26H294.436L297.316 22.36L297.976 23.88L298.636 22.3L301.256 16.26H302.836L298.276 26.48C298.036 27.0267 297.769 27.4733 297.476 27.82C297.182 28.18 296.862 28.4333 296.516 28.58C296.182 28.7267 295.889 28.82 295.636 28.86C295.382 28.9133 295.076 28.94 294.716 28.94ZM304.384 28.74V16.26H305.904V17.94C306.278 17.3533 306.771 16.8933 307.384 16.56C307.998 16.2267 308.678 16.06 309.424 16.06C310.758 16.06 311.871 16.5533 312.764 17.54C313.658 18.5267 314.104 19.7267 314.104 21.14C314.104 22.54 313.658 23.7333 312.764 24.72C311.871 25.7067 310.758 26.2 309.424 26.2C308.704 26.2 308.031 26.0333 307.404 25.7C306.791 25.3533 306.291 24.9 305.904 24.34V28.74H304.384ZM306.844 18.58C306.218 19.2733 305.904 20.1267 305.904 21.14C305.904 22.1533 306.218 23.0067 306.844 23.7C307.484 24.38 308.278 24.72 309.224 24.72C310.171 24.72 310.958 24.38 311.584 23.7C312.224 23.0067 312.544 22.1533 312.544 21.14C312.544 20.1267 312.224 19.2733 311.584 18.58C310.958 17.8867 310.171 17.54 309.224 17.54C308.278 17.54 307.484 17.8867 306.844 18.58ZM316.64 23.08V17.56H315.18V16.26H316.64V14.1L318.16 13.86V16.26H321.5V17.56H318.16V22.8C318.16 24.16 318.62 24.84 319.54 24.84C319.807 24.84 320.073 24.7933 320.34 24.7C320.607 24.6067 320.807 24.52 320.94 24.44L321.14 24.3L321.64 25.48C320.933 25.96 320.187 26.2 319.4 26.2C318.547 26.2 317.873 25.9467 317.38 25.44C316.887 24.92 316.64 24.1333 316.64 23.08ZM322.674 21.14C322.674 19.74 323.174 18.5467 324.174 17.56C325.174 16.56 326.38 16.06 327.794 16.06C329.207 16.06 330.414 16.56 331.414 17.56C332.414 18.5467 332.914 19.74 332.914 21.14C332.914 22.5267 332.414 23.72 331.414 24.72C330.414 25.7067 329.207 26.2 327.794 26.2C326.38 26.2 325.174 25.7067 324.174 24.72C323.174 23.72 322.674 22.5267 322.674 21.14ZM325.274 18.6C324.58 19.3067 324.234 20.1533 324.234 21.14C324.234 22.1267 324.58 22.9733 325.274 23.68C325.967 24.3733 326.807 24.72 327.794 24.72C328.78 24.72 329.62 24.3733 330.314 23.68C331.007 22.9733 331.354 22.1267 331.354 21.14C331.354 20.1533 331.007 19.3067 330.314 18.6C329.62 17.8933 328.78 17.54 327.794 17.54C326.807 17.54 325.967 17.8933 325.274 18.6Z" fill="white"/>
</svg>
