<svg width="40" height="73" viewBox="0 0 40 73" fill="none" xmlns="http://www.w3.org/2000/svg">
<path d="M39.393 36.0274L39.3795 35.9609C38.2189 29.471 32.8391 24.2504 32.3079 17.7394C32.0406 16.0086 31.1677 17.7849 30.6162 18.4982C29.794 19.5822 27.9838 22.5125 27.0669 21.397C25.5376 19.3479 27.6996 5.94144 21.2574 0.906142C19.5251 -0.415625 18.3815 -0.51353 18.9939 2.12301C20.7702 11.0187 9.5336 17.4212 9.54037 26.5267C9.4321 27.8065 9.54037 29.7158 8.5287 30.4571C7.66591 31.0445 6.67455 30.2263 6.19747 29.457C5.58844 28.5653 5.32791 27.2226 4.99633 26.5967C4.6952 25.9148 4.15722 26.1176 3.76135 26.6456C-3.794 37.7478 0.499659 55.7595 12.4671 61.4697C12.7006 61.5885 13.9592 62.1515 13.6243 61.5151C13.2013 60.6969 10.2069 58.0603 9.27646 55.9728C8.73171 54.9238 9.02269 53.9167 9.94977 53.2663C12.1964 51.8082 11.2321 50.8081 9.56406 49.2555C7.58471 47.5281 5.36513 45.4511 5.25348 42.5803C5.064 40.5801 6.20086 38.2723 8.06516 38.5101C9.25277 38.608 10.4776 39.5521 11.5671 39.8843C13.2588 40.3913 12.819 38.5275 12.4062 37.5659C11.0934 34.6112 9.65879 29.1843 13.313 28.7507C16.4021 28.3136 16.2025 27.1457 16.8521 24.2714C17.4882 21.4285 20.5232 19.2885 22.3943 22.4321C23.4939 23.9846 23.4669 26.7855 24.4109 27.8765C25.7778 29.3381 28.4338 28.0513 29.3981 30.2613C30.1865 31.9327 29.5098 33.8979 28.8297 35.5169C28.1665 37.0974 27.3207 38.8493 27.6049 39.5731C28.2173 40.8074 30.5654 38.8597 31.5771 38.7094C33.1301 38.2094 34.7271 39.3213 35.1298 40.8878C36.2057 44.5489 31.8207 47.9303 29.6451 50.9724C29.1241 51.8886 29.6181 52.4446 30.2846 53.0215C33.8204 55.8539 28.356 59.0639 26.8639 61.4102C26.4951 62.1795 27.4289 61.7704 28.0041 61.5116C36.7945 56.9973 41.8122 46.042 39.393 36.0274ZM9.55052 27.1981C9.54375 27.0548 9.5539 26.74 9.56406 26.5372C9.56067 26.74 9.55052 27.0582 9.55052 27.1981Z" fill="white"/>
<path d="M30.0478 44.8881C29.953 45.2168 29.3947 45.7029 29.0429 46.0211C26.2582 48.5107 22.6683 51.0808 21.677 54.5636C21.3995 55.5112 20.9428 58.7352 21.9206 59.1233C22.5398 59.3401 24.3838 56.9833 25.1958 57.0778L25.2026 57.0882C25.2804 57.3365 24.7289 58.1023 24.4785 58.4205C22.5668 60.8577 21.5044 62.0571 21.4063 65.0678C21.1492 67.0749 26.327 70.7145 25.0379 72.3825L14.8874 72.2076C13.4494 71.4034 19.7585 64.6867 18.5033 61.9382C17.8435 60.043 15.5359 58.4415 14.6528 56.819C14.6664 56.4833 15.4716 57.0218 15.6983 57.1302C17.6675 58.1967 19.63 60.4556 19.0954 56.0987C18.8145 51.5844 14.8965 49.0283 11.7363 46.2973C7.69636 42.9509 14.328 46.668 15.2314 47.5911C16.9773 48.8359 18.9973 51.8361 19.4371 48.1366C20.0664 43.0139 18.2664 39.3248 15.5698 34.9539C15.4446 34.7126 14.619 33.4503 14.9574 33.5237C15.7085 33.9643 16.5036 34.9923 17.319 35.7546C17.61 36.0484 18.1412 36.5099 18.4051 36.4015C18.7435 36.2547 18.7875 35.912 18.9059 35.4644C19.0615 34.7301 19.1461 33.772 19.2409 32.9677C19.8059 28.6633 20.0664 21.6453 20.574 27.6947C20.7161 29.2262 20.848 30.9012 20.9631 32.4048C21.1153 33.5167 20.98 35.2161 21.5653 36.1707C22.5499 37.4121 25.0503 33.4713 25.7846 33.209C25.9977 33.1636 25.8218 33.5027 25.6221 33.9224C22.7969 38.8772 20.4352 41.311 20.9766 47.4163C21.0713 49.0213 21.0916 51.3396 23.0845 49.6507C24.5259 48.5247 26.3158 46.7204 28.1868 45.5595C29.1477 44.9581 29.926 44.6468 30.0308 44.8042C30.0478 44.8252 30.0545 44.8531 30.0478 44.8881Z" fill="white"/>
</svg>
