<svg width="44" height="60" viewBox="0 0 44 60" fill="none" xmlns="http://www.w3.org/2000/svg">
<path d="M36.9902 59.8324C35.2233 59.7628 33.5225 59.7196 31.7726 59.7611C25.0677 59.9403 18.3255 59.8374 11.5731 59.8955C10.1451 59.8988 8.60014 59.9967 7.07722 60C6.15906 60 5.25446 59.9685 4.38543 59.8557C3.61973 59.7594 2.88453 59.6002 2.20354 59.353C-1.28444 58.0125 0.152083 53.6312 1.22778 50.8772C2.51524 47.7235 5.28665 45.4092 7.81242 43.2144C8.8661 42.3484 9.98754 41.504 11.1767 40.8454C14.9544 38.6173 16.8076 41.8739 21.5035 42.083C23.3025 42.2571 25.3167 41.8889 26.9497 41.0726C28.6946 40.1901 30.1345 39.4518 32.0301 40.1701C37.949 42.5458 43.2309 48.4203 43.9356 54.9252L43.939 54.9567C44.5184 59.8291 40.8762 59.9585 36.9935 59.8324H36.9902Z" fill="white"/>
<path d="M22.7689 38.7567C22.6994 38.765 22.5317 38.7865 22.4572 38.8081V38.8114C22.4877 38.8197 22.7503 38.7749 22.7841 38.7633C22.8214 38.755 22.8163 38.7517 22.7689 38.7567Z" fill="white"/>
<path d="M34.8523 24.7383V24.7515C34.5389 26.4902 34.6778 28.4627 33.8325 30.1781C32.645 32.7644 29.8888 35.3292 27.297 36.824C25.3624 37.9521 23.2991 38.969 21.2341 38.6505C18.2831 38.2258 13.8347 34.8647 12.1999 32.4575C10.7346 30.329 9.8283 27.7145 9.87743 25.1165C9.90792 23.8623 9.94011 22.268 11.3428 21.8616C11.6866 21.7554 12.0644 21.7106 12.4337 21.689C13.7601 21.6094 15.3982 21.6409 16.7941 21.6575C21.1172 21.8749 26.6736 21.0022 30.8765 21.4551C31.9284 21.5978 32.9703 21.8135 33.819 22.4422C34.6033 23.1042 34.9438 23.8424 34.8523 24.7383Z" fill="white"/>
<path d="M34.8182 18.6354C33.9322 18.9174 32.8413 18.9108 31.8689 18.8942C25.9314 18.4745 11.3612 21.4158 7.70717 17.8872L7.69193 17.8689C7.18711 17.2833 7.00585 16.4721 7.07192 15.6923C7.47679 11.6776 11.9608 8.18875 16.1214 6.71889C17.1378 6.36885 18.2372 6.05364 19.0012 5.31539C19.6449 4.73474 20.1616 3.74765 20.6799 2.8717C21.1424 2.08866 21.7235 1.35373 22.3689 0.826175C22.9906 0.316866 23.6784 0.00165899 24.3577 0C26.1601 0.0564055 26.177 1.27078 25.1877 2.37567C24.1391 3.55686 22.4366 5.32203 24.9302 6.00387C25.6807 6.21622 26.5175 6.31244 27.2917 6.52147C30.0733 7.28295 32.5669 8.74285 34.3524 11.1086C35.8566 13.0662 38.3096 17.421 34.8182 18.6354Z" fill="white"/>
</svg>
