<svg width="142" height="107" viewBox="0 0 142 107" fill="none" xmlns="http://www.w3.org/2000/svg">
<path d="M52.8075 18.1364C42.1809 19.2176 34.755 25.3055 28.642 31.3169C30.0123 33.9476 35.7126 34.8152 38.7 36.6904C36.374 39.6496 30.9087 35.428 27.6548 35.0715C22.6495 33.0727 24.5845 41.8547 20.3572 41.84C20.2288 40.3007 19.597 39.2666 20.5487 37.7892C20.9475 36.929 21.1707 37.4077 20.9495 36.2485C20.7837 34.908 22.9595 33.9226 23.3169 32.5719C18.6651 30.4154 17.4922 29.9882 15.6224 34.4838C2.49419 51.715 29.5266 44.0893 23.7177 49.9106C0.717174 44.0775 11.6419 63.3635 17.3975 74.0693C18.6868 76.4437 20.9633 73.8954 22.7206 73.3313C20.7758 71.054 19.1488 67.9003 17.3955 65.3859C17.2099 61.8581 13.8533 54.1661 19.2613 52.8757C20.0097 57.0207 20.2703 75.7558 29.8228 69.3601C34.3265 68.1007 26.0219 61.478 27.0605 58.2507C26.326 52.9243 28.2274 47.5272 29.6253 42.5765C35.9633 35.101 26.2016 62.5695 34.9544 66.5628C39.8609 67.7162 43.0833 62.7551 47.9484 63.1956C41.8117 71.6521 65.6001 75.6778 74.0073 75.2462C75.2789 70.945 75.4961 72.0616 77.7726 75.3832C83.8619 74.875 88.9699 72.2899 92.9445 68.4763C94.4747 67.0622 90.4843 65.4448 91.9572 64.209C94.1844 64.1456 95.221 67.5586 96.4945 64.6509C100.031 60.7916 99.0041 56.1796 100.469 51.9448C107.469 52.4382 100.862 63.119 99.4543 66.4155C99.1699 66.8648 97.5706 67.8061 98.6645 68.1817C106.227 75.6071 110.174 61.2041 109.319 57.2918C104.653 56.3461 103.889 55.4829 109.119 54.7906C112.344 54.4813 116.964 56.5052 119.181 54.3502C119.594 54.3163 119.27 54.8598 119.375 54.9379C131.421 52.4942 102.694 19.2279 121.545 36.9835C125.634 40.6969 123.657 56.3829 128.447 55.6729C138.136 56.7217 124.194 24.9196 117.799 25.6532C116.571 26.3013 117.116 26.3101 117.799 27.1247C115.544 25.1892 110.956 31.7838 108.527 32.8635C106.714 34.8815 117.902 43.1112 111.88 49.7868C110.201 45.4179 108.023 33.8489 101.229 35.6593C97.2705 36.5107 99.1048 34.6753 101.18 33.6751C103.237 32.703 95.4204 28.8746 93.9317 28.3016C85.5066 23.7898 72.5581 22.6158 63.055 25.3527C63.9494 35.3661 83.7671 26.2379 90.3796 34.3365C93.0116 36.0555 106.598 45.6315 99.7346 47.0014C95.9654 39.5995 86.1187 33.3363 75.3895 32.4216C71.6972 32.7015 64.7945 31.2064 65.9219 35.6593C62.7233 38.3917 66.4609 28.4239 51.7196 37.1308C36.7985 44.3456 44.0053 65.0471 38.7019 56.8499C35.2802 44.8258 46.5583 33.765 61.6966 30.5111C60.1051 23.5394 51.9309 28.7141 45.9996 29.6259C43.9619 30.1164 35.9318 36.3884 38.1076 31.9812C48.5328 21.0677 62.9859 28.3944 52.8075 18.1364ZM17.0026 46.1073C17.0203 46.0528 17.0776 46.0999 17.123 46.1102L17.0026 46.1073ZM21.2082 46.2443C21.2812 46.284 21.3207 46.3385 21.3444 46.4019C21.295 46.3429 21.2496 46.2914 21.2082 46.2443ZM20.4105 74.3859C20.3335 74.4405 20.2506 74.4846 20.1597 74.5097C20.2446 74.4699 20.3256 74.4272 20.4105 74.3859ZM17.5969 73.9205C17.5732 73.8851 17.5514 73.8424 17.5297 73.7982C17.5514 73.838 17.5732 73.8763 17.5969 73.9205ZM16.3431 49.6513C16.0568 49.6277 16.4398 49.6513 16.5425 49.6557C16.4694 49.6557 16.4003 49.6557 16.3431 49.6513ZM24.2824 52.5826C24.2627 52.5826 24.3002 52.506 24.3002 52.5737C24.2943 52.5767 24.2883 52.5796 24.2824 52.5826ZM29.6293 69.2128C29.5937 69.2599 29.5838 69.2997 29.5443 69.338C29.572 69.2967 29.6016 69.257 29.6293 69.2128ZM30.6145 36.1026L30.7113 36.1026C30.6777 36.1071 30.6422 36.11 30.6145 36.1026ZM30.812 56.1148C30.8594 56.0338 30.8949 56.0147 30.9206 56.0324L30.812 56.1148ZM31.6018 48.7572L31.6018 48.6099C31.5919 48.6585 31.6116 48.7086 31.6018 48.7572ZM127.071 36.2485C127.002 36.0835 126.939 35.917 126.876 35.7521C126.972 35.9259 127.045 36.0938 127.071 36.2485ZM104.614 66.5938C104.588 66.5938 104.554 66.6011 104.535 66.5849C104.564 66.5879 104.592 66.5908 104.614 66.5938ZM103.599 70.2424C103.498 70.2645 103.415 70.2557 103.346 70.2291C103.431 70.2365 103.516 70.2409 103.599 70.2424ZM103.204 46.1087C103.204 46.1087 103.204 46.1161 103.2 46.1176L103.204 46.1087ZM63.5565 26.0951C63.5506 26.0744 63.5525 26.0524 63.5565 26.0303L63.5565 26.0951ZM71.6439 29.7746C71.7111 29.7761 71.7821 29.7746 71.8512 29.7776C71.7446 29.7864 71.6696 29.7879 71.6439 29.7746ZM80.914 29.1854L80.914 29.0381C80.9101 29.0882 80.9278 29.1471 80.914 29.1854ZM96.1056 38.455C96.0918 38.4462 96.0839 38.4373 96.0799 38.43C96.0878 38.4388 96.1036 38.4506 96.1056 38.455ZM48.5644 62.7375C48.5802 62.7375 48.5999 62.7463 48.6236 62.7566C48.6039 62.7507 48.5861 62.7463 48.5644 62.7375ZM61.7617 68.4881C61.813 68.4881 61.8644 68.4881 61.9078 68.5072C61.8585 68.4998 61.8091 68.4925 61.7617 68.4881ZM89.8919 70.5341C89.8129 70.5075 89.8919 70.4619 89.9057 70.4206C89.9057 70.456 89.8998 70.4928 89.8919 70.5341ZM91.7637 64.209L91.8545 64.209C91.823 64.2119 91.7933 64.2134 91.7637 64.209ZM92.1645 45.3796C92.1685 45.4356 92.1665 45.4842 92.1566 45.5195C92.1566 45.4709 92.1606 45.4253 92.1645 45.3796ZM66.3267 33.603C66.3227 33.6147 66.3207 33.6162 66.3188 33.6015L66.3267 33.603ZM49.9445 41.9888C49.9445 41.9917 49.9445 41.9917 49.9445 41.9888V41.9888ZM48.9593 52.9508C48.592 43.1686 60.3835 38.8969 70.4612 37.5742C106.554 37.1234 93.2169 80.4091 60.7922 67.8871C54.7543 64.7142 47.6996 60.1111 48.9593 52.9508ZM48.7144 51.6443C48.7223 51.5147 48.7322 51.385 48.748 51.2584C48.7717 51.3703 48.7164 51.5176 48.7144 51.6443ZM48.7539 39.8043C48.6552 39.8647 48.4815 39.9104 48.1695 39.928C48.3117 39.9089 48.5209 39.8647 48.7539 39.8043ZM47.5989 56.2975C47.6226 56.3387 47.5949 56.3093 47.5791 56.2621C47.5851 56.2739 47.6028 56.3093 47.5989 56.2975ZM46.817 62.8597C46.7597 62.8862 46.6906 62.901 46.5919 62.8848C46.6689 62.873 46.7439 62.8671 46.817 62.8597ZM37.5133 59.491C37.5133 59.491 37.5133 59.4969 37.5172 59.4998L37.5133 59.491ZM57.0467 27.1262C56.869 27.1645 56.6873 27.1998 56.5077 27.2381C56.634 27.1586 56.7999 27.1026 57.0467 27.1262ZM55.5994 32.2861L55.6073 32.289C55.5619 32.289 55.5599 32.289 55.5994 32.2861ZM43.3814 36.1866C43.3202 36.2205 43.2669 36.2499 43.2393 36.2485C43.3064 36.2028 43.3518 36.1851 43.3814 36.1866ZM39.9893 33.1375C39.9498 33.164 39.9379 33.2494 39.8866 33.2332C39.9044 33.1994 39.9419 33.167 39.9893 33.1375Z" fill="#7C6354"/>
<path d="M43.2393 13.5863C35.4421 17.6238 24.9774 21.2401 21.145 28.007C25.0347 30.8661 26.3576 29.0367 29.2344 26.5355C35.1123 21.405 42.7812 16.9978 51.5004 14.8929C51.2398 9.93035 47.4765 11.9822 43.2393 13.5863ZM47.5811 15.924C47.5317 15.9372 47.5574 15.9299 47.5811 15.924C47.5357 15.9358 47.585 15.952 47.5811 15.924ZM47.1151 16.0463C46.8367 16.1435 46.5445 16.2672 46.3944 16.2363C46.6314 16.1744 46.8742 16.1096 47.1151 16.0463Z" fill="#7C6354"/>
<path d="M85.6488 11.5271C89.3075 6.38631 60.2868 8.08468 56.3418 9.46193C56.5748 16.6723 62.3323 11.5359 70.2638 13.2932C72.1612 13.6556 80.7719 13.8014 75.5889 15.2066C67.3238 15.9299 50.3039 14.8472 62.5692 22.5658C75.7962 20.0764 89.4733 22.3846 100.049 28.4504C105.449 33.002 108.884 28.3326 112.871 24.7708C121.128 22.0266 94.9742 10.5682 91.0805 11.2384C86.3833 18.5548 82.4975 24.2391 85.6507 11.5286L85.6488 11.5271ZM62.3896 8.79466C62.6147 8.62821 63.5663 8.62969 63.7539 8.58402C63.288 8.64736 62.8338 8.71807 62.3896 8.79466ZM74.8011 12.4079C74.8011 12.4079 74.8129 12.405 74.8109 12.4079C74.807 12.4079 74.805 12.4079 74.8011 12.4079ZM60.7942 16.3836C60.8673 16.4116 60.9581 16.4263 61.0272 16.4631C60.9522 16.4395 60.8752 16.4145 60.7942 16.3836ZM74.6569 20.0072C74.7794 19.9865 74.8761 20.0204 74.9985 20.0617C74.886 20.0455 74.7715 20.0263 74.6569 20.0072ZM91.3688 19.3252C91.3886 19.3031 91.3945 19.3134 91.4123 19.331C91.3984 19.331 91.3826 19.3296 91.3688 19.3252ZM105.022 27.2146C105.074 27.2337 105.123 27.2514 105.176 27.2735C105.156 27.2735 105.099 27.2499 105.022 27.2146ZM90.9739 15.7944C94.5655 15.0446 114.484 25.5795 103.405 24.105C100.696 20.891 91.6946 19.2147 90.9739 15.7944ZM87.5265 17.0066C87.6588 16.9654 87.5245 17.2173 87.5008 17.1289C87.5087 17.0877 87.5206 17.0479 87.5265 17.0066Z" fill="#7C6354"/>
<path d="M6.05809 44.0495C10.009 28.1219 24.699 15.8872 44.4259 9.1747C49.4805 8.75636 47.6542 5.80889 45.7251 3.59349C38.1333 6.21249 31.9236 9.90089 24.699 12.9986C19.4845 15.8135 16.9532 20.3798 12.8147 23.8502C8.19841 25.1671 -3.83793 45.4577 6.05809 44.0495ZM45.5513 8.7652C45.4724 8.80497 45.3914 8.8418 45.3105 8.87715C45.2966 8.82265 45.4803 8.80645 45.5513 8.7652ZM36.7255 10.5004C36.6702 10.5078 36.607 10.5078 36.532 10.496C36.5991 10.496 36.6623 10.4975 36.7255 10.5004ZM30.0597 13.8795C30.0439 13.8839 30.0261 13.9016 30.0242 13.8824L30.0597 13.8795ZM2.82194 43.6945C2.75481 43.6709 2.71729 43.6267 2.67583 43.5708C2.72124 43.6149 2.7706 43.6562 2.82194 43.6945Z" fill="#7C6354"/>
<path d="M142 50.6161C140.239 20.9042 103.048 -2.15269 63.904 0.159927C60.9522 0.232104 51.2753 -0.217162 54.0869 3.43294C85.9528 5.15782 118.492 8.66798 132.199 36.2529C135.69 42.1022 134.258 51.2009 137.326 56.2636C142.735 58.0636 141.526 53.3117 142 50.6161ZM62.3935 0.38235C62.3995 0.374985 62.4014 0.372039 62.3935 0.38235V0.38235ZM72.8266 0.93178L73.105 0.903793C73.1583 0.912631 72.8997 0.921469 72.8266 0.93178ZM130.228 24.7708C130.21 24.7031 130.189 24.6339 130.163 24.5617C130.214 24.6294 130.242 24.6987 130.228 24.7708ZM136.487 51.986C136.505 52.0376 136.525 52.0906 136.541 52.1422C136.503 52.0921 136.489 52.0405 136.487 51.986ZM136.545 55.9661C136.545 55.9631 136.545 55.9631 136.545 55.9661V55.9661Z" fill="#7C6354"/>
<path d="M95.7087 94.9653C99.1245 94.2833 120.624 85.2921 113.856 81.8688C100.765 70.7359 103.182 79.2675 89.8642 82.7084C80.5152 81.1898 100.722 76.8311 101.18 73.2591C93.7243 62.7154 84.6517 91.3918 46.7893 70.3882C44.4476 68.7282 44.3746 66.1342 41.0693 68.6236C31.9058 70.8301 47.7687 80.468 52.7048 79.3662C53.7868 78.8742 54.8511 75.2506 55.9351 77.4542C53.1669 83.2475 63.6315 81.9336 68.9823 83.1886C71.8433 83.6452 79.4944 81.9012 77.1645 85.5454C64.1627 87.9744 52.5587 78.7799 51.3168 88.4148C54.9202 90.9351 85.7396 94.7605 81.5064 87.6076C81.1075 86.0507 81.4728 82.9809 83.6763 85.6927C85.0249 86.7459 84.8353 90.0764 87.2264 89.3723C91.3984 89.0644 94.834 87.4206 98.6684 86.2819C123 75.0032 97.3021 92.0414 87.8167 92.4597C87.3843 97.0481 91.2484 97.0186 95.7087 94.9638L95.7087 94.9653ZM45.6204 77.3894C45.6698 77.413 45.7192 77.4351 45.7666 77.4542C45.6718 77.4793 45.6303 77.4498 45.6204 77.3894ZM56.8038 81.2796L57.0467 81.2796C56.9677 81.287 56.8848 81.2826 56.8038 81.2796ZM53.7098 84.3022C53.7098 84.3022 53.7 84.2978 53.694 84.2948C53.7039 84.2963 53.7335 84.2948 53.7098 84.3022ZM81.0957 84.8295C81.0977 84.7588 81.1036 84.7014 81.1115 84.6646C81.1075 84.722 81.1016 84.7765 81.0957 84.8295ZM94.1666 87.6415C94.289 87.5944 94.4115 87.5458 94.5319 87.4957C94.4292 87.5826 94.2989 87.6341 94.1666 87.6415ZM101.626 92.3153L101.61 92.305C101.62 92.3094 101.628 92.3139 101.626 92.3153ZM89.5701 95.8579C89.5622 95.8491 89.5839 95.8535 89.5938 95.8491L89.5701 95.8579Z" fill="#7C6354"/>
<path d="M86.4386 102.028C86.7327 100.393 84.3219 101.357 83.0859 101.586C65.8982 103.599 46.1595 100.739 32.1941 93.0518C30.0774 91.8558 27.8226 90.2325 25.781 88.9333C25.8758 88.9628 24.5213 90.072 24.699 89.225C24.3061 85.1654 16.274 80.331 13.8513 76.5689C1.29368 61.8124 10.1867 41.8149 0.130722 49.9253C-2.0017 74.0486 22.1875 101.5 55.6665 104.678C62.4014 105.911 88.1642 110.124 86.4386 102.028ZM5.7303 50.3009L5.76388 50.3053C5.71846 50.5101 5.72043 50.488 5.7303 50.3009ZM13.8473 78.0419C13.9342 78.0037 14.0092 77.9727 14.0724 77.9492C13.9776 77.9919 13.8967 78.039 13.8473 78.0419ZM16.6096 86.0565L16.6096 85.9888C16.6175 86.0094 16.6136 86.033 16.6096 86.0565ZM19.8793 87.4795C19.907 87.4736 19.9346 87.4662 19.9623 87.4589C19.9405 87.4721 19.9109 87.4765 19.8793 87.4795ZM48.7618 103.646C48.7105 103.652 48.746 103.635 48.7618 103.616C48.7658 103.632 48.7658 103.643 48.7618 103.646ZM50.0255 100.137C50.0551 100.099 50.0827 100.088 50.1025 100.137C50.0768 100.137 50.0511 100.137 50.0255 100.137ZM51.4254 102.329C51.4234 102.32 51.4254 102.324 51.4254 102.329V102.329ZM54.2489 100.675C54.3061 100.675 54.3436 100.679 54.3673 100.688C54.3278 100.683 54.2884 100.679 54.2489 100.675ZM61.3372 105.823C61.4201 105.833 61.4991 105.843 61.582 105.855C61.4951 105.855 61.4142 105.842 61.3372 105.823ZM66.7117 103.942C66.7117 103.942 66.7275 103.951 66.7334 103.956C66.7255 103.952 66.7196 103.948 66.7117 103.942Z" fill="#7C6354"/>
<path d="M48.1695 81.4269C41.2924 79.9362 37.8568 75.0709 33.1793 71.8598C25.5994 74.3285 29.7339 76.2051 33.5723 80.3973C37.15 84.4466 29.185 79.4177 27.8522 78.4838C8.36623 70.6416 40.2144 97.7684 44.2245 93.1991C45.9127 91.7968 46.3727 88.6888 43.0398 89.521C43.7447 88.8611 37.5133 86.8461 36.532 85.8415C33.8684 80.6639 46.9493 90.614 48.7598 85.9888C49.7076 84.5747 50.4836 82.3357 48.1695 81.4269ZM31.5919 72.826C31.5781 72.7495 31.6195 72.7318 31.7182 72.745C31.6768 72.7745 31.6353 72.801 31.5919 72.826ZM35.3493 84.2227C35.4954 84.2551 35.6494 84.2786 35.8093 84.2963C35.6455 84.2904 35.4895 84.2698 35.3493 84.2227ZM45.7587 81.0336C45.7666 81.0189 45.7804 81.0027 45.8021 80.985C45.7843 81.0027 45.7725 81.0174 45.7587 81.0336Z" fill="#7C6354"/>
<path d="M131.016 61.8537C132.604 59.463 127.124 58.7442 125.099 59.0579C123.213 64.4623 123.071 68.8136 117.207 73.184C111.57 74.4596 129.592 57.6144 116.417 57.881C115.564 57.6556 112.561 57.6291 113.461 58.7633C113.878 67.0475 101.389 72.8349 109.514 75.2447C121.673 87.7844 127.533 69.3571 131.016 61.8537ZM117.209 76.7177C117.215 76.7369 117.217 76.7501 117.218 76.7663C117.213 76.7472 117.207 76.7295 117.209 76.7177ZM118.788 72.7436C118.788 72.7112 118.788 72.6787 118.788 72.6478C118.816 72.6522 118.818 72.6817 118.788 72.7436ZM124.042 74.2136C124.074 74.1827 124.086 74.1694 124.113 74.2107L124.042 74.2136ZM127.071 62.8848C127.124 62.9275 127.17 62.9672 127.209 63.0055C127.17 62.9864 127.124 62.9496 127.071 62.8848Z" fill="#7C6354"/>
<path d="M84.1877 95.1126C82.9319 91.9721 75.6758 94.7576 71.8413 94.5219C64.4825 94.435 57.412 92.9443 50.3473 91.1988C43.3696 96.6003 54.7227 97.1615 60.2038 97.4664C65.3671 99.0926 85.9765 100.856 84.1877 95.1126ZM48.1715 95.4042C48.1833 95.3851 48.1912 95.3998 48.205 95.4101L48.1715 95.4042ZM51.6801 95.1906C51.6801 95.17 51.6998 95.1833 51.7176 95.1877L51.6801 95.1906ZM60.3539 93.5085C60.498 93.504 60.6461 93.5026 60.7942 93.4937C60.652 93.5055 60.504 93.5085 60.3539 93.5085ZM64.3443 94.2288C64.5082 94.27 64.6266 94.3054 64.7135 94.3363C64.597 94.3098 64.4746 94.2744 64.3443 94.2288ZM68.6387 98.3443C68.7019 98.3443 68.7829 98.3443 68.8816 98.3487C68.8007 98.3532 68.7177 98.3488 68.6387 98.3443ZM74.9985 97.4694C74.9985 97.4694 74.9985 97.4694 74.9965 97.4694C74.9965 97.4694 75.0005 97.4694 74.9985 97.4694ZM77.281 98.2147C77.3461 98.2235 77.4113 98.2309 77.4784 98.2383C77.4034 98.2368 77.3363 98.225 77.281 98.2147Z" fill="#7C6354"/>
<path d="M139.301 61.5605C133.395 59.3068 133.942 69.9169 131.014 72.7436C120.78 94.5381 89.3766 97.9113 92.2494 101.88C92.7272 105.627 101.96 101.274 104.386 100.116C122.283 94.3746 141.86 75.9194 139.301 61.5605ZM104.578 97.7699C104.578 97.7699 104.576 97.7728 104.574 97.7757C104.574 97.7743 104.578 97.7699 104.578 97.7699ZM113.066 93.6396C113.11 93.6248 113.165 93.6189 113.226 93.6189C113.175 93.6263 113.123 93.6337 113.066 93.6396ZM114.196 92.0576C114.006 92.0045 114.119 92.0178 114.249 92.0222L114.196 92.0576ZM121.047 85.2464C121.085 85.1831 121.122 85.133 121.154 85.105C121.12 85.1536 121.083 85.1993 121.047 85.2464Z" fill="#7C6354"/>
<path d="M52.7068 56.2621C58.2472 72.9837 94.1627 68.5543 89.1989 50.8165C84.0001 33.4733 46.5564 39.8647 52.7068 56.2621ZM78.8922 62.7551C78.904 62.7492 78.9198 62.7434 78.9435 62.7375C78.9415 62.7434 78.9198 62.7492 78.8922 62.7551ZM83.082 53.0893C83.082 53.0466 83.0721 53.0127 83.1452 53.0245C83.1215 53.0436 83.0998 53.0643 83.082 53.0893ZM62.9405 45.0173C62.9345 45.029 62.9405 45.0467 62.9306 45.0526L62.9405 45.0173ZM60.9877 46.2605C60.9877 46.2605 60.9897 46.2634 60.9877 46.2649L60.9877 46.2605ZM59.0192 53.761C66.1055 31.909 100.603 57.2004 72.2343 62.1497C72.2284 62.1144 71.5116 62.7669 71.6439 62.1497C71.4978 62.0672 69.551 62.1188 69.1877 62.1497C69.3456 61.2497 66.8164 61.9833 65.9219 61.1186C62.3837 59.6191 59.0251 57.0016 59.0172 53.761L59.0192 53.761ZM58.9441 53.1158C58.8968 53.241 58.8553 53.3176 58.8217 53.3191C58.8652 53.2558 58.9047 53.1865 58.9441 53.1158ZM53.5381 56.8941C53.619 57.0163 53.7118 57.1857 53.5381 56.9751C53.5282 56.9604 53.5302 56.9324 53.5381 56.8941Z" fill="#7C6354"/>
<path d="M63.5565 55.5271C64.3482 58.0887 70.0387 59.8106 72.4337 58.4702C92.0322 55.262 61.193 38.4801 63.5565 55.5271ZM77.9681 53.0451C77.9523 53.0083 77.9563 52.8374 77.9563 52.7314C77.9523 52.8448 77.9582 52.9479 77.9681 53.0451ZM77.8556 51.8976C77.8398 51.8608 77.82 51.824 77.8023 51.7857C77.8496 51.8166 77.8733 51.8534 77.8556 51.8976ZM74.8781 55.4815C74.7537 55.4815 74.6017 55.4549 74.4042 55.3798C74.5543 55.4284 74.7122 55.4608 74.8781 55.4815ZM63.359 53.8346C63.365 53.8229 63.3669 53.8273 63.3669 53.8361C63.365 53.8361 63.361 53.8361 63.359 53.8346Z" fill="#7C6354"/>
</svg>
