<svg width="14" height="12" viewBox="0 0 14 12" fill="none" xmlns="http://www.w3.org/2000/svg">
<path d="M0.732816 7.08136C2.01562 9.52454 7.22963 11.4369 9.82343 11.8886C13.5168 12.6304 14.2392 9.53157 13.7159 6.51538C13.4058 4.38682 11.6948 3.50095 9.77056 3.01759C8.71331 2.7803 7.36355 2.41821 6.54066 3.06329C6.00498 3.49392 5.74771 4.49229 5.53978 5.00377C5.4411 5.25688 5.26843 5.64006 5.10808 5.21821C4.90191 4.67333 4.62173 2.69769 3.90985 1.80654C3.30193 0.932971 1.73897 -0.648946 0.688764 0.286143C0.172471 0.869695 0.0966878 1.74854 0.0138696 2.93146C-0.0513277 4.28664 0.101972 5.91601 0.716942 7.05324L0.732816 7.08312V7.08136Z" fill="white"/>
</svg>
