<svg width="302" height="264" viewBox="0 0 302 264" fill="none" xmlns="http://www.w3.org/2000/svg">
<g opacity="0.5" filter="url(#filter0_d_0_808)">
<path d="M164.95 58C209.702 63.3729 244 94.2707 244 131.583C244 141.153 241.75 150.291 237.639 158.701" stroke="#F3FF90" stroke-width="8" stroke-miterlimit="10" stroke-linecap="round"/>
<path d="M64.417 158.79C60.2692 150.366 58 141.183 58 131.583C58 94.2707 92.317 63.3729 137.05 58" stroke="#F3FF90" stroke-width="8" stroke-miterlimit="10" stroke-linecap="round"/>
<path d="M78.4229 178.094C95.4418 195.106 121.631 206 151 206C180.369 206 206.633 195.076 223.689 178.02" stroke="#F3FF90" stroke-width="8" stroke-miterlimit="10" stroke-linecap="round"/>
</g>
<ellipse cx="151.026" cy="131.865" rx="71" ry="60" fill="#0A0400"/>
<path d="M132.834 91.8767C122.207 92.9579 114.781 99.0458 108.668 105.057C110.039 107.688 115.739 108.555 118.726 110.431C116.4 113.39 110.935 109.168 107.681 108.812C102.676 106.813 104.611 115.595 100.384 115.58C100.255 114.041 99.6234 113.007 100.575 111.529C100.974 110.669 101.197 111.148 100.976 109.989C100.81 108.648 102.986 107.663 103.343 106.312C98.6914 104.156 97.5186 103.728 95.6488 108.224C82.5206 125.455 109.553 117.829 103.744 123.651C80.7435 117.818 91.6683 137.104 97.4238 147.809C98.7131 150.184 100.99 147.636 102.747 147.072C100.802 144.794 99.1752 141.641 97.4218 139.126C97.2362 135.598 93.8796 127.906 99.2877 126.616C100.036 130.761 100.297 149.496 109.849 143.1C114.353 141.841 106.048 135.218 107.087 131.991C106.352 126.665 108.254 121.267 109.652 116.317C115.99 108.841 106.228 136.31 114.981 140.303C119.887 141.456 123.11 136.495 127.975 136.936C121.838 145.392 145.626 149.418 154.034 148.986C155.305 144.685 155.522 145.802 157.799 149.123C163.888 148.615 168.996 146.03 172.971 142.216C174.501 140.802 170.511 139.185 171.984 137.949C174.211 137.886 175.247 141.299 176.521 138.391C180.057 134.532 179.03 129.92 180.496 125.685C187.495 126.178 180.888 136.859 179.481 140.156C179.196 140.605 177.597 141.546 178.691 141.922C186.253 149.347 190.2 134.944 189.345 131.032C184.679 130.086 183.915 129.223 189.146 128.531C192.37 128.222 196.99 130.245 199.208 128.09C199.62 128.057 199.296 128.6 199.401 128.678C211.447 126.234 182.721 92.9682 201.571 110.724C205.66 114.437 203.684 130.123 208.474 129.413C218.162 130.462 204.221 98.6598 197.825 99.3934C196.597 100.042 197.142 100.05 197.825 100.865C195.571 98.9294 190.982 105.524 188.553 106.604C186.741 108.622 197.928 116.851 191.906 123.527C190.228 119.158 188.05 107.589 181.256 109.4C177.297 110.251 179.131 108.416 181.206 107.415C183.264 106.443 175.447 102.615 173.958 102.042C165.533 97.5301 152.584 96.3561 143.081 99.0929C143.976 109.106 163.794 99.9782 170.406 108.077C173.038 109.796 186.624 119.372 179.761 120.742C175.992 113.34 166.145 107.077 155.416 106.162C151.724 106.442 144.821 104.947 145.948 109.4C142.75 112.132 146.487 102.164 131.746 110.871C116.825 118.086 124.032 138.787 118.728 130.59C115.307 118.566 126.585 107.505 141.723 104.251C140.132 97.2796 131.957 102.454 126.026 103.366C123.988 103.857 115.958 110.129 118.134 105.721C128.559 94.8079 143.012 102.135 132.834 91.8767ZM97.0289 119.847C97.0467 119.793 97.104 119.84 97.1494 119.85L97.0289 119.847ZM101.235 119.984C101.308 120.024 101.347 120.079 101.371 120.142C101.321 120.083 101.276 120.032 101.235 119.984ZM100.437 148.126C100.36 148.181 100.277 148.225 100.186 148.25C100.271 148.21 100.352 148.167 100.437 148.126ZM97.6232 147.661C97.5996 147.625 97.5778 147.583 97.5561 147.538C97.5778 147.578 97.5996 147.617 97.6232 147.661ZM96.3694 123.392C96.0831 123.368 96.4662 123.392 96.5689 123.396C96.4958 123.396 96.4267 123.396 96.3694 123.392ZM104.309 126.323C104.289 126.323 104.327 126.246 104.327 126.314C104.321 126.317 104.315 126.32 104.309 126.323ZM109.656 142.953C109.62 143 109.61 143.04 109.571 143.078C109.598 143.037 109.628 142.997 109.656 142.953ZM110.641 109.843L110.738 109.843C110.704 109.847 110.669 109.85 110.641 109.843ZM110.838 129.855C110.886 129.774 110.921 129.755 110.947 129.773L110.838 129.855ZM111.628 122.497L111.628 122.35C111.618 122.399 111.638 122.449 111.628 122.497ZM207.097 109.989C207.028 109.824 206.965 109.657 206.902 109.492C206.999 109.666 207.072 109.834 207.097 109.989ZM184.64 140.334C184.614 140.334 184.581 140.341 184.561 140.325C184.591 140.328 184.618 140.331 184.64 140.334ZM183.625 143.983C183.524 144.005 183.441 143.996 183.372 143.969C183.457 143.977 183.542 143.981 183.625 143.983ZM183.23 119.849C183.23 119.849 183.23 119.856 183.226 119.858L183.23 119.849ZM143.583 99.8353C143.577 99.8147 143.579 99.7926 143.583 99.7705L143.583 99.8353ZM151.67 103.515C151.737 103.516 151.808 103.515 151.878 103.518C151.771 103.527 151.696 103.528 151.67 103.515ZM160.94 102.926L160.94 102.778C160.936 102.828 160.954 102.887 160.94 102.926ZM176.132 112.195C176.118 112.186 176.11 112.178 176.106 112.17C176.114 112.179 176.13 112.191 176.132 112.195ZM128.591 136.478C128.607 136.478 128.626 136.487 128.65 136.497C128.63 136.491 128.612 136.487 128.591 136.478ZM141.788 142.228C141.839 142.228 141.891 142.228 141.934 142.247C141.885 142.24 141.835 142.233 141.788 142.228ZM169.918 144.274C169.839 144.248 169.918 144.202 169.932 144.161C169.932 144.196 169.926 144.233 169.918 144.274ZM171.79 137.949L171.881 137.949C171.849 137.952 171.82 137.954 171.79 137.949ZM172.191 119.12C172.195 119.176 172.193 119.224 172.183 119.26C172.183 119.211 172.187 119.166 172.191 119.12ZM146.353 107.343C146.349 107.355 146.347 107.356 146.345 107.342L146.353 107.343ZM129.971 115.729C129.971 115.732 129.971 115.732 129.971 115.729V115.729ZM128.986 126.691C128.618 116.909 140.41 112.637 150.488 111.314C186.581 110.864 173.243 154.149 140.819 141.627C134.781 138.454 127.726 133.851 128.986 126.691ZM128.741 125.385C128.749 125.255 128.759 125.125 128.774 124.999C128.798 125.111 128.743 125.258 128.741 125.385ZM128.78 113.545C128.682 113.605 128.508 113.651 128.196 113.668C128.338 113.649 128.547 113.605 128.78 113.545ZM127.625 130.038C127.649 130.079 127.621 130.05 127.605 130.002C127.611 130.014 127.629 130.05 127.625 130.038ZM126.843 136.6C126.786 136.626 126.717 136.641 126.618 136.625C126.695 136.613 126.77 136.607 126.843 136.6ZM117.54 133.231C117.54 133.231 117.54 133.237 117.544 133.24L117.54 133.231ZM137.073 100.866C136.895 100.905 136.714 100.94 136.534 100.978C136.66 100.899 136.826 100.843 137.073 100.866ZM135.626 106.026L135.634 106.029C135.588 106.029 135.586 106.029 135.626 106.026ZM123.408 109.927C123.347 109.961 123.293 109.99 123.266 109.989C123.333 109.943 123.378 109.925 123.408 109.927ZM120.016 106.878C119.976 106.904 119.964 106.99 119.913 106.973C119.931 106.94 119.968 106.907 120.016 106.878Z" fill="#7C6354"/>
<path d="M123.266 87.3266C115.468 91.3641 105.004 94.9803 101.171 101.747C105.061 104.606 106.384 102.777 109.261 100.276C115.139 95.1453 122.808 90.738 131.527 88.6331C131.266 83.6706 127.503 85.7225 123.266 87.3266ZM127.607 89.6642C127.558 89.6775 127.584 89.6701 127.607 89.6642C127.562 89.676 127.611 89.6922 127.607 89.6642ZM127.141 89.7865C126.863 89.8837 126.571 90.0074 126.421 89.9765C126.658 89.9146 126.901 89.8498 127.141 89.7865Z" fill="#7C6354"/>
<path d="M165.675 85.2673C169.334 80.1265 140.313 81.8249 136.368 83.2022C136.601 90.4125 142.359 85.2762 150.29 87.0334C152.188 87.3958 160.798 87.5416 155.615 88.9469C147.35 89.6701 130.33 88.5875 142.596 96.306C155.823 93.8166 169.5 96.1248 180.075 102.191C185.475 106.742 188.911 102.073 192.897 98.5111C201.154 95.7669 175.001 84.3084 171.107 84.9786C166.41 92.295 162.524 97.9793 165.677 85.2688L165.675 85.2673ZM142.416 82.5349C142.641 82.3684 143.593 82.3699 143.78 82.3243C143.314 82.3876 142.86 82.4583 142.416 82.5349ZM154.827 86.1482C154.827 86.1482 154.839 86.1452 154.837 86.1482C154.833 86.1482 154.831 86.1482 154.827 86.1482ZM140.821 90.1238C140.894 90.1518 140.984 90.1665 141.054 90.2033C140.979 90.1798 140.902 90.1547 140.821 90.1238ZM154.683 93.7474C154.806 93.7268 154.902 93.7606 155.025 93.8019C154.912 93.7857 154.798 93.7665 154.683 93.7474ZM171.395 93.0654C171.415 93.0433 171.421 93.0536 171.439 93.0713C171.425 93.0713 171.409 93.0698 171.395 93.0654ZM185.049 100.955C185.1 100.974 185.149 100.992 185.203 101.014C185.183 101.014 185.126 100.99 185.049 100.955ZM171 89.5346C174.592 88.7848 194.51 99.3198 183.432 97.8453C180.723 94.6312 171.721 92.9549 171 89.5346ZM167.553 90.7469C167.685 90.7056 167.551 90.9575 167.527 90.8691C167.535 90.8279 167.547 90.7881 167.553 90.7469Z" fill="#7C6354"/>
<path d="M86.0845 117.79C90.0354 101.862 104.725 89.6274 124.452 82.9149C129.507 82.4966 127.681 79.5491 125.751 77.3337C118.16 79.9527 111.95 83.6411 104.725 86.7388C99.5108 89.5538 96.9796 94.1201 92.8411 97.5904C88.2248 98.9073 76.1884 119.198 86.0845 117.79ZM125.578 82.5054C125.499 82.5452 125.418 82.582 125.337 82.6174C125.323 82.5629 125.507 82.5467 125.578 82.5054ZM116.752 84.2406C116.697 84.248 116.633 84.248 116.558 84.2362C116.625 84.2362 116.689 84.2377 116.752 84.2406ZM110.086 87.6197C110.07 87.6241 110.052 87.6418 110.051 87.6226L110.086 87.6197ZM82.8483 117.435C82.7812 117.411 82.7437 117.367 82.7022 117.311C82.7476 117.355 82.797 117.396 82.8483 117.435Z" fill="#7C6354"/>
<path d="M222.026 124.356C220.265 94.6444 183.074 71.5875 143.93 73.9002C140.979 73.9723 131.302 73.5231 134.113 77.1732C165.979 78.8981 198.518 82.4082 212.225 109.993C215.716 115.842 214.284 124.941 217.353 130.004C222.761 131.804 221.553 127.052 222.026 124.356ZM142.42 74.1226C142.426 74.1152 142.428 74.1123 142.42 74.1226V74.1226ZM152.853 74.672L153.131 74.644C153.185 74.6529 152.926 74.6617 152.853 74.672ZM210.255 98.5111C210.237 98.4433 210.215 98.3741 210.189 98.3019C210.241 98.3697 210.268 98.4389 210.255 98.5111ZM216.514 125.726C216.531 125.778 216.551 125.831 216.567 125.882C216.529 125.832 216.516 125.781 216.514 125.726ZM216.571 129.706C216.571 129.703 216.571 129.703 216.571 129.706V129.706Z" fill="#7C6354"/>
<path d="M175.735 168.706C179.151 168.024 200.651 159.032 193.882 155.609C180.792 144.476 183.208 153.008 169.891 156.449C160.542 154.93 180.748 150.571 181.206 146.999C173.751 136.456 164.678 165.132 126.816 144.128C124.474 142.468 124.401 139.874 121.096 142.364C111.932 144.57 127.795 154.208 132.731 153.106C133.813 152.614 134.877 148.991 135.961 151.194C133.193 156.988 143.658 155.674 149.009 156.929C151.87 157.385 159.521 155.641 157.191 159.286C144.189 161.715 132.585 152.52 131.343 162.155C134.947 164.675 165.766 168.501 161.533 161.348C161.134 159.791 161.499 156.721 163.703 159.433C165.051 160.486 164.862 163.817 167.253 163.113C171.425 162.805 174.86 161.161 178.695 160.022C203.026 148.743 177.328 165.782 167.843 166.2C167.411 170.788 171.275 170.759 175.735 168.704L175.735 168.706ZM125.647 151.13C125.696 151.153 125.746 151.175 125.793 151.194C125.698 151.219 125.657 151.19 125.647 151.13ZM136.83 155.02L137.073 155.02C136.994 155.027 136.911 155.023 136.83 155.02ZM133.736 158.042C133.736 158.042 133.726 158.038 133.72 158.035C133.73 158.037 133.76 158.035 133.736 158.042ZM161.122 158.57C161.124 158.499 161.13 158.442 161.138 158.405C161.134 158.462 161.128 158.517 161.122 158.57ZM174.193 161.382C174.315 161.335 174.438 161.286 174.558 161.236C174.456 161.323 174.325 161.374 174.193 161.382ZM181.653 166.056L181.637 166.045C181.647 166.05 181.655 166.054 181.653 166.056ZM169.596 169.598C169.589 169.589 169.61 169.594 169.62 169.589L169.596 169.598Z" fill="#7C6354"/>
<path d="M166.465 175.769C166.759 174.134 164.348 175.097 163.112 175.327C145.925 177.339 126.186 174.48 112.22 166.792C110.104 165.596 107.849 163.973 105.807 162.674C105.902 162.703 104.548 163.812 104.725 162.965C104.332 158.906 96.3003 154.071 93.8776 150.309C81.32 135.553 90.213 115.555 80.1571 123.666C78.0247 147.789 102.214 175.24 135.693 178.418C142.428 179.651 168.191 183.864 166.465 175.769ZM85.7567 124.041L85.7902 124.046C85.7448 124.25 85.7468 124.228 85.7567 124.041ZM93.8737 151.782C93.9606 151.744 94.0356 151.713 94.0988 151.689C94.004 151.732 93.9231 151.779 93.8737 151.782ZM96.636 159.797L96.636 159.729C96.6439 159.75 96.6399 159.773 96.636 159.797ZM99.9057 161.22C99.9333 161.214 99.961 161.206 99.9886 161.199C99.9669 161.212 99.9373 161.217 99.9057 161.22ZM128.788 177.386C128.737 177.392 128.772 177.376 128.788 177.356C128.792 177.373 128.792 177.383 128.788 177.386ZM130.052 173.877C130.081 173.839 130.109 173.829 130.129 173.877C130.103 173.877 130.078 173.877 130.052 173.877ZM131.452 176.069C131.45 176.06 131.452 176.065 131.452 176.069V176.069ZM134.275 174.415C134.332 174.415 134.37 174.419 134.394 174.428C134.354 174.424 134.315 174.419 134.275 174.415ZM141.364 179.563C141.446 179.573 141.525 179.584 141.608 179.595C141.521 179.595 141.441 179.582 141.364 179.563ZM146.738 177.682C146.738 177.682 146.754 177.691 146.76 177.697C146.752 177.692 146.746 177.688 146.738 177.682Z" fill="#7C6354"/>
<path d="M128.196 155.167C121.319 153.676 117.883 148.811 113.206 145.6C105.626 148.069 109.76 149.945 113.599 154.138C117.176 158.187 109.211 153.158 107.879 152.224C88.3926 144.382 120.241 171.509 124.251 166.939C125.939 165.537 126.399 162.429 123.066 163.261C123.771 162.601 117.54 160.586 116.558 159.582C113.895 154.404 126.976 164.354 128.786 159.729C129.734 158.315 130.51 156.076 128.196 155.167ZM111.618 146.566C111.604 146.49 111.646 146.472 111.745 146.485C111.703 146.515 111.662 146.541 111.618 146.566ZM115.376 157.963C115.522 157.995 115.676 158.019 115.836 158.037C115.672 158.031 115.516 158.01 115.376 157.963ZM125.785 154.774C125.793 154.759 125.807 154.743 125.828 154.725C125.811 154.743 125.799 154.758 125.785 154.774Z" fill="#7C6354"/>
<path d="M211.042 135.594C212.63 133.203 207.151 132.484 205.125 132.798C203.239 138.203 203.097 142.554 197.233 146.924C191.596 148.2 209.619 131.355 196.443 131.621C195.59 131.396 192.587 131.369 193.487 132.504C193.904 140.788 181.416 146.575 189.541 148.985C201.699 161.525 207.559 143.097 211.042 135.594ZM197.235 150.458C197.241 150.477 197.243 150.49 197.245 150.507C197.239 150.487 197.233 150.47 197.235 150.458ZM198.815 146.484C198.815 146.451 198.815 146.419 198.815 146.388C198.842 146.392 198.844 146.422 198.815 146.484ZM204.069 147.954C204.1 147.923 204.112 147.91 204.14 147.951L204.069 147.954ZM207.097 136.625C207.151 136.668 207.196 136.707 207.236 136.746C207.196 136.727 207.151 136.69 207.097 136.625Z" fill="#7C6354"/>
<path d="M164.214 168.853C162.958 165.712 155.702 168.498 151.868 168.262C144.509 168.175 137.438 166.685 130.374 164.939C123.396 170.341 134.749 170.902 140.23 171.207C145.393 172.833 166.003 174.596 164.214 168.853ZM128.198 169.144C128.21 169.125 128.218 169.14 128.231 169.15L128.198 169.144ZM131.706 168.931C131.706 168.91 131.726 168.924 131.744 168.928L131.706 168.931ZM140.38 167.249C140.524 167.244 140.672 167.243 140.821 167.234C140.678 167.246 140.53 167.249 140.38 167.249ZM144.371 167.969C144.535 168.01 144.653 168.046 144.74 168.077C144.623 168.05 144.501 168.015 144.371 167.969ZM148.665 172.085C148.728 172.085 148.809 172.085 148.908 172.089C148.827 172.093 148.744 172.089 148.665 172.085ZM155.025 171.21C155.025 171.21 155.025 171.21 155.023 171.21C155.023 171.21 155.027 171.21 155.025 171.21ZM157.307 171.955C157.373 171.964 157.438 171.971 157.505 171.979C157.43 171.977 157.363 171.965 157.307 171.955Z" fill="#7C6354"/>
<path d="M219.327 135.301C213.422 133.047 213.969 143.657 211.04 146.484C200.807 168.278 169.403 171.652 172.276 175.62C172.754 179.367 181.986 175.014 184.413 173.857C202.309 168.115 221.886 149.66 219.327 135.301ZM184.604 171.51C184.604 171.51 184.602 171.513 184.6 171.516C184.6 171.515 184.604 171.51 184.604 171.51ZM193.093 167.38C193.136 167.365 193.191 167.359 193.253 167.359C193.201 167.367 193.15 167.374 193.093 167.38ZM194.222 165.798C194.032 165.745 194.145 165.758 194.275 165.762L194.222 165.798ZM201.073 158.987C201.111 158.923 201.148 158.873 201.18 158.845C201.146 158.894 201.109 158.939 201.073 158.987Z" fill="#7C6354"/>
<path d="M132.733 130.002C138.274 146.724 174.189 142.295 169.225 124.557C164.026 107.214 126.583 113.605 132.733 130.002ZM158.919 136.495C158.93 136.489 158.946 136.484 158.97 136.478C158.968 136.484 158.946 136.489 158.919 136.495ZM163.108 126.83C163.108 126.787 163.098 126.753 163.172 126.765C163.148 126.784 163.126 126.804 163.108 126.83ZM142.967 118.757C142.961 118.769 142.967 118.787 142.957 118.793L142.967 118.757ZM141.014 120.001C141.014 120.001 141.016 120.004 141.014 120.005L141.014 120.001ZM139.046 127.501C146.132 105.649 180.63 130.941 152.261 135.89C152.255 135.855 151.538 136.507 151.67 135.89C151.524 135.807 149.577 135.859 149.214 135.89C149.372 134.99 146.843 135.724 145.948 134.859C142.41 133.359 139.051 130.742 139.044 127.501L139.046 127.501ZM138.971 126.856C138.923 126.981 138.882 127.058 138.848 127.059C138.892 126.996 138.931 126.927 138.971 126.856ZM133.564 130.634C133.645 130.757 133.738 130.926 133.564 130.715C133.555 130.701 133.557 130.673 133.564 130.634Z" fill="#7C6354"/>
<path d="M143.583 129.267C144.375 131.829 150.065 133.551 152.46 132.21C172.059 129.002 141.219 112.22 143.583 129.267ZM157.994 126.785C157.979 126.749 157.983 126.578 157.983 126.472C157.979 126.585 157.985 126.688 157.994 126.785ZM157.882 125.638C157.866 125.601 157.846 125.564 157.829 125.526C157.876 125.557 157.9 125.594 157.882 125.638ZM154.904 129.222C154.78 129.222 154.628 129.195 154.431 129.12C154.581 129.169 154.739 129.201 154.904 129.222ZM143.385 127.575C143.391 127.563 143.393 127.568 143.393 127.576C143.391 127.576 143.387 127.576 143.385 127.575Z" fill="#7C6354"/>
<path d="M173.899 92.9285H133.131V70.081C133.131 64.5723 137.536 60.0923 142.949 60.0923H155.049C160.464 60.0923 164.867 64.5739 164.867 70.081V93.8033H167.479L167.604 96.3115H164.992L164.867 98.8197H172.821V70.081C172.821 67.6486 172.348 65.2822 171.416 63.0495C170.519 60.9004 169.236 58.9687 167.604 57.3074C165.973 55.6477 164.074 54.3422 161.961 53.4295C159.766 52.4813 157.44 52 155.049 52H142.949C140.559 52 138.233 52.4813 136.038 53.4295C133.926 54.3422 132.025 55.6477 130.394 57.3074C128.763 58.9671 127.479 60.8988 126.582 63.0495C125.65 65.2822 125.177 67.6486 125.177 70.081V92.9285H124.101C121.845 92.9285 120 94.8055 120 97.101V124.707C120 124.73 120 124.754 120.002 124.776C120.149 140.942 133.076 154 149 154C164.924 154 177.851 140.942 177.998 124.776C177.998 124.754 178 124.73 178 124.707V97.101C178 94.8055 176.155 92.9285 173.899 92.9285ZM152.506 121.106C153.032 125.729 153.434 134.758 153.434 134.758C153.434 135.385 152.93 135.896 152.315 135.896H145.685C145.07 135.896 144.567 135.385 144.567 134.758C144.567 134.758 144.968 125.729 145.494 121.106C143.454 119.882 142.087 117.626 142.087 115.044C142.087 111.159 145.182 108.01 149 108.01C152.818 108.01 155.913 111.159 155.913 115.044C155.913 117.626 154.544 119.882 152.506 121.106Z" fill="#F3FF90"/>
<defs>
<filter id="filter0_d_0_808" x="0" y="0" width="302" height="264" filterUnits="userSpaceOnUse" color-interpolation-filters="sRGB">
<feFlood flood-opacity="0" result="BackgroundImageFix"/>
<feColorMatrix in="SourceAlpha" type="matrix" values="0 0 0 0 0 0 0 0 0 0 0 0 0 0 0 0 0 0 127 0" result="hardAlpha"/>
<feOffset/>
<feGaussianBlur stdDeviation="12.5"/>
<feComposite in2="hardAlpha" operator="out"/>
<feColorMatrix type="matrix" values="0 0 0 0 0 0 0 0 0 0 0 0 0 0 0 0 0 0 0.5 0"/>
<feBlend mode="normal" in2="BackgroundImageFix" result="effect1_dropShadow_0_808"/>
<feBlend mode="normal" in="SourceGraphic" in2="effect1_dropShadow_0_808" result="shape"/>
</filter>
</defs>
</svg>
