<svg width="814" height="82" viewBox="0 0 814 82" fill="none" xmlns="http://www.w3.org/2000/svg">
<g opacity="0.1">
<rect width="814" height="82" rx="20.5" fill="white"/>
</g>
<path d="M11.9121 41C11.9121 22.7746 26.6867 8 44.9121 8H370.089C388.314 8 403.089 22.7746 403.089 41C403.089 59.2254 388.314 74 370.089 74H44.9121C26.6867 74 11.9121 59.2254 11.9121 41Z" fill="#F3FF90"/>
<path d="M147.161 54V28.08H159.201C161.334 28.08 163.068 28.64 164.401 29.76C165.761 30.88 166.441 32.4133 166.441 34.36C166.441 35.4 166.148 36.3733 165.561 37.28C164.974 38.1867 164.294 38.7867 163.521 39.08C165.068 39.3467 166.361 40.1333 167.401 41.44C168.468 42.7467 169.001 44.2933 169.001 46.08C169.001 48.48 168.108 50.4 166.321 51.84C164.534 53.28 162.161 54 159.201 54H147.161ZM150.361 51.16H159.001C161.028 51.16 162.641 50.7067 163.841 49.8C165.041 48.8667 165.641 47.64 165.641 46.12C165.641 44.5467 165.121 43.2933 164.081 42.36C163.068 41.4 161.614 40.92 159.721 40.92H150.361V51.16ZM150.361 38.08H159.361C160.508 38.08 161.414 37.76 162.081 37.12C162.748 36.4533 163.081 35.6 163.081 34.56C163.081 33.4933 162.721 32.6267 162.001 31.96C161.281 31.2667 160.268 30.92 158.961 30.92H150.361V38.08ZM172.441 44.28C172.441 41.48 173.441 39.0933 175.441 37.12C177.441 35.12 179.854 34.12 182.681 34.12C185.507 34.12 187.921 35.12 189.921 37.12C191.921 39.0933 192.921 41.48 192.921 44.28C192.921 47.0533 191.921 49.44 189.921 51.44C187.921 53.4133 185.507 54.4 182.681 54.4C179.854 54.4 177.441 53.4133 175.441 51.44C173.441 49.44 172.441 47.0533 172.441 44.28ZM177.641 39.2C176.254 40.6133 175.561 42.3067 175.561 44.28C175.561 46.2533 176.254 47.9467 177.641 49.36C179.027 50.7467 180.707 51.44 182.681 51.44C184.654 51.44 186.334 50.7467 187.721 49.36C189.107 47.9467 189.801 46.2533 189.801 44.28C189.801 42.3067 189.107 40.6133 187.721 39.2C186.334 37.7867 184.654 37.08 182.681 37.08C180.707 37.08 179.027 37.7867 177.641 39.2ZM196.791 46.56V34.52H199.831V45.92C199.831 49.6 201.497 51.44 204.831 51.44C206.431 51.44 207.751 50.8933 208.791 49.8C209.831 48.7067 210.351 47.2267 210.351 45.36V34.52H213.391V54H210.351V51C208.964 53.2667 206.871 54.4 204.071 54.4C201.697 54.4 199.884 53.68 198.631 52.24C197.404 50.7733 196.791 48.88 196.791 46.56ZM218.675 54V34.52H221.715V38.64C222.302 37.3067 223.235 36.2267 224.515 35.4C225.795 34.5467 227.368 34.12 229.235 34.12V37.48C227.048 37.48 225.248 38.12 223.835 39.4C222.422 40.6533 221.715 42.6533 221.715 45.4V54H218.675ZM231.269 51.36L232.749 48.92C234.376 50.6 236.416 51.44 238.869 51.44C240.256 51.44 241.416 51.1733 242.349 50.64C243.282 50.08 243.749 49.36 243.749 48.48C243.749 48.0267 243.616 47.6267 243.349 47.28C243.109 46.9333 242.722 46.64 242.189 46.4C241.682 46.16 241.202 45.9733 240.749 45.84C240.322 45.7067 239.736 45.5467 238.989 45.36C237.896 45.0933 237.016 44.8533 236.349 44.64C235.709 44.4 235.016 44.0667 234.269 43.64C233.522 43.2133 232.976 42.68 232.629 42.04C232.282 41.3733 232.109 40.5867 232.109 39.68C232.109 38.0267 232.829 36.6933 234.269 35.68C235.709 34.64 237.322 34.12 239.109 34.12C241.482 34.12 243.722 34.84 245.829 36.28L244.349 38.64C242.829 37.6 241.096 37.08 239.149 37.08C238.109 37.08 237.189 37.3333 236.389 37.84C235.616 38.32 235.229 38.92 235.229 39.64C235.229 40.0667 235.336 40.44 235.549 40.76C235.762 41.08 236.122 41.36 236.629 41.6C237.162 41.8133 237.602 41.9733 237.949 42.08C238.322 42.16 238.896 42.2933 239.669 42.48C240.736 42.72 241.616 42.9733 242.309 43.24C243.029 43.48 243.776 43.8267 244.549 44.28C245.322 44.7067 245.896 45.2667 246.269 45.96C246.669 46.6533 246.869 47.4667 246.869 48.4C246.869 50.3467 246.069 51.84 244.469 52.88C242.869 53.8933 241.016 54.4 238.909 54.4C235.736 54.4 233.189 53.3867 231.269 51.36ZM253.296 43H266.176C265.989 41.2133 265.283 39.7467 264.056 38.6C262.856 37.4267 261.429 36.84 259.776 36.84C258.149 36.84 256.723 37.4267 255.496 38.6C254.269 39.7733 253.536 41.24 253.296 43ZM250.136 44.28C250.136 41.48 251.083 39.0933 252.976 37.12C254.869 35.12 257.176 34.12 259.896 34.12C262.456 34.12 264.656 35.1067 266.496 37.08C268.336 39.0533 269.256 41.4 269.256 44.12L269.176 45.4H253.336C253.576 47.2667 254.363 48.7733 255.696 49.92C257.029 51.0667 258.603 51.64 260.416 51.64C262.763 51.64 264.763 50.8933 266.416 49.4L267.856 51.6C265.643 53.4667 263.163 54.4 260.416 54.4C257.563 54.4 255.136 53.4533 253.136 51.56C251.136 49.6667 250.136 47.24 250.136 44.28Z" fill="#0A0400"/>
<path d="M551.263 48.52C548.676 45.9067 547.383 42.7467 547.383 39.04C547.383 35.3333 548.676 32.1867 551.263 29.6C553.876 26.9867 557.076 25.68 560.863 25.68C564.33 25.68 567.33 26.8 569.863 29.04L567.903 31.24C565.93 29.48 563.65 28.6 561.063 28.6C558.13 28.6 555.676 29.6133 553.703 31.64C551.73 33.6667 550.743 36.1333 550.743 39.04C550.743 41.92 551.716 44.3867 553.663 46.44C555.636 48.4667 558.05 49.48 560.903 49.48C563.89 49.48 566.41 48.4133 568.463 46.28L570.503 48.48C567.89 51.0933 564.69 52.4 560.903 52.4C557.09 52.4 553.876 51.1067 551.263 48.52ZM573.847 52V32.52H576.887V36.64C577.474 35.3067 578.407 34.2267 579.687 33.4C580.967 32.5467 582.54 32.12 584.407 32.12V35.48C582.22 35.48 580.42 36.12 579.007 37.4C577.594 38.6533 576.887 40.6533 576.887 43.4V52H573.847ZM589.431 57.88V55C590.578 55 591.485 54.76 592.151 54.28C592.845 53.8267 593.498 52.9333 594.111 51.6L594.511 50.72L585.631 32.52H588.871L594.631 44.72L595.951 47.76L597.271 44.6L602.511 32.52H605.671L596.551 52.96C596.071 54.0533 595.538 54.9467 594.951 55.64C594.365 56.36 593.725 56.8667 593.031 57.16C592.365 57.4533 591.778 57.64 591.271 57.72C590.765 57.8267 590.151 57.88 589.431 57.88ZM608.769 57.48V32.52H611.809V35.88C612.556 34.7067 613.542 33.7867 614.769 33.12C615.996 32.4533 617.356 32.12 618.849 32.12C621.516 32.12 623.742 33.1067 625.529 35.08C627.316 37.0533 628.209 39.4533 628.209 42.28C628.209 45.08 627.316 47.4667 625.529 49.44C623.742 51.4133 621.516 52.4 618.849 52.4C617.409 52.4 616.062 52.0667 614.809 51.4C613.582 50.7067 612.582 49.8 611.809 48.68V57.48H608.769ZM613.689 37.16C612.436 38.5467 611.809 40.2533 611.809 42.28C611.809 44.3067 612.436 46.0133 613.689 47.4C614.969 48.76 616.556 49.44 618.449 49.44C620.342 49.44 621.916 48.76 623.169 47.4C624.449 46.0133 625.089 44.3067 625.089 42.28C625.089 40.2533 624.449 38.5467 623.169 37.16C621.916 35.7733 620.342 35.08 618.449 35.08C616.556 35.08 614.969 35.7733 613.689 37.16ZM633.28 46.16V35.12H630.36V32.52H633.28V28.2L636.32 27.72V32.52H643V35.12H636.32V45.6C636.32 48.32 637.24 49.68 639.08 49.68C639.613 49.68 640.147 49.5867 640.68 49.4C641.213 49.2133 641.613 49.04 641.88 48.88L642.28 48.6L643.28 50.96C641.867 51.92 640.373 52.4 638.8 52.4C637.093 52.4 635.747 51.8933 634.76 50.88C633.773 49.84 633.28 48.2667 633.28 46.16ZM645.347 42.28C645.347 39.48 646.347 37.0933 648.347 35.12C650.347 33.12 652.76 32.12 655.587 32.12C658.414 32.12 660.827 33.12 662.827 35.12C664.827 37.0933 665.827 39.48 665.827 42.28C665.827 45.0533 664.827 47.44 662.827 49.44C660.827 51.4133 658.414 52.4 655.587 52.4C652.76 52.4 650.347 51.4133 648.347 49.44C646.347 47.44 645.347 45.0533 645.347 42.28ZM650.547 37.2C649.16 38.6133 648.467 40.3067 648.467 42.28C648.467 44.2533 649.16 45.9467 650.547 47.36C651.934 48.7467 653.614 49.44 655.587 49.44C657.56 49.44 659.24 48.7467 660.627 47.36C662.014 45.9467 662.707 44.2533 662.707 42.28C662.707 40.3067 662.014 38.6133 660.627 37.2C659.24 35.7867 657.56 35.08 655.587 35.08C653.614 35.08 651.934 35.7867 650.547 37.2Z" fill="white"/>
</svg>
