<svg width="814" height="222" viewBox="0 0 814 222" fill="none" xmlns="http://www.w3.org/2000/svg">
<path d="M225.589 74.4H234.789C239.696 74.4 243.642 72.88 246.629 69.84C249.669 66.7467 251.189 62.8267 251.189 58.08C251.189 53.3333 249.669 49.44 246.629 46.4C243.642 43.3067 239.696 41.76 234.789 41.76H225.589V74.4ZM214.389 84V32.16H235.109C243.429 32.16 250.122 34.6667 255.189 39.68C260.309 44.64 262.869 50.7733 262.869 58.08C262.869 65.3867 260.309 71.5467 255.189 76.56C250.122 81.52 243.429 84 235.109 84H214.389ZM267.655 84V32.16H308.535V41.76H278.855V52.32H307.015V61.84H278.855V74.4H309.575V84H267.655ZM281.815 28.88L289.335 16.24H300.055L291.175 28.88H281.815ZM313.577 84V32.16H337.817C342.51 32.16 346.377 33.2533 349.417 35.44C352.457 37.6267 353.977 41.04 353.977 45.68C353.977 47.5467 353.497 49.3333 352.537 51.04C351.577 52.6933 350.35 53.9733 348.857 54.88C351.737 55.6267 354.083 57.1733 355.897 59.52C357.763 61.8133 358.697 64.5333 358.697 67.68C358.697 73.12 356.91 77.2 353.337 79.92C349.763 82.64 344.99 84 339.017 84H313.577ZM324.777 74.4H338.057C343.923 74.4 346.857 72.2133 346.857 67.84C346.857 65.5467 346.083 63.84 344.537 62.72C342.99 61.6 340.99 61.04 338.537 61.04H324.777V74.4ZM324.777 51.52H336.857C340.483 51.52 342.297 49.92 342.297 46.72C342.297 43.4133 340.43 41.76 336.697 41.76H324.777V51.52ZM401.073 78.88C396.807 82.8267 391.553 84.8 385.313 84.8C379.073 84.8 373.793 82.8533 369.473 78.96C365.207 75.0133 363.073 69.8933 363.073 63.6V32.16H374.113V63.12C374.113 66.48 375.18 69.2533 377.313 71.44C379.5 73.5733 382.167 74.64 385.313 74.64C388.46 74.64 391.1 73.5733 393.233 71.44C395.367 69.2533 396.433 66.48 396.433 63.12V32.16H407.553V63.6C407.553 69.84 405.393 74.9333 401.073 78.88ZM427.536 84V41.76H409.936V32.16H456.336V41.76H438.736V84H427.536ZM447.939 84L470.499 32.16H481.619L504.179 84H492.739L489.139 75.76H462.899L459.379 84H447.939ZM466.739 66.96H485.379L481.219 57.44L476.019 44C474.206 49.3333 472.499 53.8133 470.899 57.44L466.739 66.96ZM506.17 84V32.16H517.85L532.01 52.88C533.13 54.5333 534.41 56.5333 535.85 58.88C537.344 61.1733 538.544 63.0667 539.45 64.56L540.81 66.8V32.16H552.01V84H540.17L526.97 64.72C525.53 62.64 524.01 60.3467 522.41 57.84C520.81 55.3333 519.557 53.3333 518.65 51.84L517.37 49.68V84H506.17ZM572.802 84V41.76H555.202V32.16H601.602V41.76H584.002V84H572.802Z" fill="white"/>
</svg>
