<svg width="900" height="278" viewBox="0 0 900 278" fill="none" xmlns="http://www.w3.org/2000/svg">
<rect width="450" height="139" transform="matrix(2 0 0 -2 0 278)" fill="url(#paint0_linear_120_1538)" fill-opacity="0.5"/>
<rect x="42" y="86" width="816" height="108" rx="27" fill="black" fill-opacity="0.5"/>
<path d="M159.101 170.832C157.334 170.763 155.633 170.72 153.883 170.761C147.178 170.94 140.436 170.837 133.683 170.895C132.255 170.899 130.71 170.997 129.188 171C128.269 171 127.365 170.968 126.496 170.856C125.73 170.759 124.995 170.6 124.314 170.353C120.826 169.013 122.262 164.631 123.338 161.877C124.626 158.724 127.397 156.409 129.923 154.214C130.976 153.348 132.098 152.504 133.287 151.845C137.065 149.617 138.918 152.874 143.614 153.083C145.413 153.257 147.427 152.889 149.06 152.073C150.805 151.19 152.245 150.452 154.14 151.17C160.059 153.546 165.341 159.42 166.046 165.925L166.049 165.957C166.629 170.829 162.987 170.959 159.104 170.832H159.101Z" fill="white"/>
<path d="M144.879 149.757C144.81 149.765 144.642 149.787 144.568 149.808V149.811C144.598 149.82 144.861 149.775 144.894 149.763C144.932 149.755 144.927 149.752 144.879 149.757Z" fill="white"/>
<path d="M156.963 135.738V135.752C156.649 137.49 156.788 139.463 155.943 141.178C154.755 143.764 151.999 146.329 149.407 147.824C147.473 148.952 145.409 149.969 143.344 149.651C140.393 149.226 135.945 145.865 134.31 143.458C132.845 141.329 131.939 138.714 131.988 136.117C132.018 134.862 132.05 133.268 133.453 132.862C133.797 132.755 134.175 132.711 134.544 132.689C135.87 132.609 137.509 132.641 138.904 132.658C143.228 132.875 148.784 132.002 152.987 132.455C154.039 132.598 155.081 132.813 155.929 133.442C156.714 134.104 157.054 134.842 156.963 135.738Z" fill="white"/>
<path d="M156.929 129.635C156.043 129.917 154.952 129.911 153.979 129.894C148.042 129.474 133.472 132.416 129.818 128.887L129.802 128.869C129.297 128.283 129.116 127.472 129.182 126.692C129.587 122.678 134.071 119.189 138.232 117.719C139.248 117.369 140.348 117.054 141.112 116.315C141.755 115.735 142.272 114.748 142.79 113.872C143.253 113.089 143.834 112.354 144.479 111.826C145.101 111.317 145.789 111.002 146.468 111C148.27 111.056 148.287 112.271 147.298 113.376C146.249 114.557 144.547 116.322 147.041 117.004C147.791 117.216 148.628 117.312 149.402 117.521C152.184 118.283 154.677 119.743 156.463 122.109C157.967 124.066 160.42 128.421 156.929 129.635Z" fill="white"/>
<path d="M316.103 161.776V161.747C316.095 161.542 316.087 161.332 316.077 161.119L316.09 144.44L316.093 142.165L316.103 129.368L315.968 129.277C315.903 128.784 315.803 128.309 315.655 127.865C314.833 125.268 312.457 124.092 309.907 124.077C309.438 124.055 308.935 124.085 308.484 124.208L272.821 124.072H272.417L272.409 124.07C272.223 124.077 272.041 124.093 271.868 124.116C268.335 124.497 266.43 127.021 266.182 130.54C266.182 130.545 266.182 130.55 266.182 130.555L266.177 132.531L266.11 161.406C266.145 164.42 266.96 167.546 269.724 168.446C270.635 168.744 272.358 169.101 273.609 168.823H273.612L309.327 169C309.902 169.005 310.51 168.94 311.11 168.83C312.192 168.61 313.323 168.086 314.167 167.248C315.675 165.826 316.179 163.74 316.103 161.776ZM298.96 152.354C298.501 154.367 297.792 156.313 296.478 157.887C295.344 159.241 292.652 161.519 290.973 161.613C289.446 161.737 288.125 160.434 287.064 159.439C286.575 158.978 286.101 158.516 285.666 158L285.65 157.98C284.098 156.159 283.242 153.765 282.96 151.364C282.81 150.065 282.643 148.431 283.043 147.345C283.471 146.026 284.916 145.641 286.129 145.417C287.646 145.141 289.159 144.811 290.7 144.778C292.631 144.768 294.564 145.078 296.41 145.646C297.636 146.019 298.861 146.786 299.214 148.102C299.58 149.343 299.256 150.997 298.96 152.354ZM300.37 144.718C299.89 145.104 299.134 145.089 298.283 144.9C294.932 143.91 291.388 143.219 287.956 143.688C287.051 143.795 286.173 144.003 285.285 144.229C283.431 144.727 280.741 145.294 281.055 142.336C281.324 140.13 282.934 137.929 284.841 136.894C285.898 136.234 287.145 135.926 288.257 135.42C288.845 135.139 289.371 134.743 289.822 134.269C290.993 132.977 291.66 130.668 293.661 130.471H293.678C295.415 130.436 293.67 133.181 293.718 134.063C293.684 134.424 293.735 134.79 293.912 135.101C294.604 136.202 296.107 136.454 297.237 137.142C298.67 137.876 299.896 139.059 300.505 140.612C300.964 141.765 301.406 143.815 300.37 144.718Z" fill="white"/>
<path d="M316.09 144.44L316.093 142.165C316.106 142.828 316.106 143.582 316.09 144.44Z" fill="white"/>
<path d="M302.327 121.777C302.345 121.777 302.355 121.777 302.355 121.756C302.347 121.763 302.336 121.77 302.327 121.777Z" fill="white"/>
<path d="M302.225 121.192C301.806 121.926 300.833 122.288 300.111 121.904C299.214 121.455 298.857 120.383 298.372 119.547C297.284 117.537 294.831 117.577 292.785 117.509C290.869 117.474 288.89 117.329 286.972 117.68C285.857 117.906 284.974 118.382 284.308 119.221C283.883 119.741 283.579 120.36 283.185 120.901C282.525 121.886 281.179 122.561 280.277 121.563L280.262 121.548C279.731 120.981 279.575 119.961 279.677 119.132C280.013 116.003 282.214 113.488 285.326 113.102C287.171 112.866 289.091 113.12 290.932 113.075C293.696 113.079 297.63 112.593 299.978 114.18C301.155 114.998 301.86 116.351 302.254 117.723C302.572 118.83 302.765 120.247 302.225 121.192Z" fill="white"/>
<path d="M266.153 131.315C266.153 131.057 266.164 130.802 266.182 130.555L266.177 132.531C266.14 132.123 266.138 131.702 266.153 131.315Z" fill="white"/>
<path d="M272.821 124.072H272.417C272.55 124.065 272.686 124.065 272.821 124.072Z" fill="white"/>
<path d="M289.358 154.402L289.34 154.38C288.281 153.206 288.241 151.145 289.003 149.805C290.149 147.648 292.81 148.245 293.671 150.311C294.945 153.267 291.846 157.06 289.358 154.402Z" fill="white"/>
<path d="M469.298 159.376C469.25 164.012 469.163 167.943 467.278 168.893C467.247 168.908 467.212 168.922 467.177 168.929C466.226 169.121 465.839 168.194 465.625 167.218C465.62 167.198 465.618 167.178 465.617 167.158C465.6 166.93 465.584 166.705 465.569 166.477C465.556 166.269 465.386 166.109 465.182 166.109H464.924C464.715 166.109 464.547 166.276 464.537 166.489C464.507 167.136 464.412 167.791 464.076 168.234L464.063 168.251C462.797 169.715 459.773 168.942 459.807 166.723C459.809 166.653 459.811 166.582 459.812 166.512C459.817 166.291 459.643 166.109 459.425 166.109H459.177C458.981 166.109 458.818 166.258 458.793 166.455C458.729 166.961 458.611 167.417 458.402 167.774C457.982 168.51 457.108 168.915 456.237 168.835C454.38 168.668 454.056 166.889 454.1 165.279C454.232 156.925 456.666 144.014 445.932 143C435.75 142.491 437.761 158.687 437.748 165.513C437.776 166.599 437.722 167.869 436.731 168.498C435.923 169.009 434.716 168.987 433.965 168.378C433.48 167.975 433.238 167.272 433.127 166.452C433.101 166.256 432.938 166.109 432.744 166.109C432.558 166.109 432.397 166.244 432.364 166.432C432.224 167.208 431.972 167.846 431.534 168.212C430.505 169.062 428.826 168.688 428.128 167.57C427.902 167.245 427.758 166.847 427.667 166.423C427.628 166.241 427.471 166.109 427.288 166.109H427.037C426.839 166.109 426.676 166.259 426.651 166.46C426.594 166.947 426.483 167.417 426.278 167.791C425.863 168.565 425.122 168.915 424.439 168.547C423.589 168.114 423.283 166.837 423.235 165.834C423 158.516 422.691 150.909 423.156 143.597C423.156 143.58 423.16 143.565 423.161 143.549C423.288 142.796 423.532 142.061 423.896 141.4C424.273 140.692 424.811 140.071 425.321 139.8C425.344 139.788 425.366 139.773 425.385 139.757L445.859 122.326C446.113 122.11 446.228 122.192 446.368 122.326L462.94 136.5L462.943 136.503L466.963 139.942C468.012 140.699 468.768 142.31 468.856 143.671L468.86 143.696C468.814 148.676 469.214 154.155 469.298 159.376Z" fill="white"/>
<path d="M475.853 142.59C475.29 143.201 474.108 142.841 472.567 141.865C465.658 137.278 457.28 126.964 451.529 122.377C449.873 120.97 448.213 118.425 446.243 118.187C444.964 118.077 443.861 119.071 442.922 119.938C435.756 126.861 428.525 133.632 421.329 140.518C420.565 141.226 419.747 142.034 418.809 142.421C417.057 143.206 415.405 141.944 416.422 140.158C417.141 138.955 418.404 137.951 419.413 136.979C420.164 136.281 420.888 135.581 421.629 134.872C428.938 127.838 436.415 120.804 443.917 113.935C445.438 112.643 446.715 112.721 448.274 113.977C456.815 122.058 465.671 130.024 474.002 138.386C474.689 139.077 475.468 139.977 475.835 140.781L475.843 140.801C476.11 141.397 476.276 142.079 475.851 142.591L475.853 142.59Z" fill="white"/>
<path d="M582.47 149.341C583.687 151.658 588.632 153.472 591.092 153.9C594.595 154.604 595.281 151.665 594.784 148.804C594.49 146.785 592.867 145.945 591.042 145.487C590.039 145.261 588.759 144.918 587.979 145.53C587.471 145.938 587.227 146.885 587.03 147.37C586.936 147.61 586.772 147.974 586.62 147.574C586.425 147.057 586.159 145.183 585.484 144.338C584.907 143.509 583.425 142.009 582.429 142.896C581.939 143.449 581.867 144.283 581.789 145.405C581.727 146.69 581.872 148.236 582.455 149.314L582.47 149.342V149.341Z" fill="white"/>
<path d="M607.173 151.225C606.809 152.178 606.042 152.915 605.079 153.262C603.765 153.827 598.462 154.549 597.164 153.675C595.85 152.849 596.211 149.631 596.567 148.324C596.716 147.737 597.242 146.977 597.791 147.399L597.804 147.409C598.788 148.311 598.665 149.966 599.069 151.138C599.139 151.34 599.266 151.421 599.373 151.196C599.733 150.323 599.741 149.276 600.055 148.311C600.384 147.219 601.183 146.595 602.331 146.25C603.623 145.902 606.578 145.2 607.307 146.687C607.873 148.029 607.689 149.818 607.173 151.225Z" fill="white"/>
<path d="M622.214 160.402C622.142 159.192 622.152 157.49 620.893 157.515C619.794 157.643 618.731 158.699 618.153 159.659C617.409 160.932 617.27 162.491 617.273 163.946C617.285 165.087 617.375 166.115 617.716 166.624C618.457 167.681 619.892 166.587 620.571 165.93C622.06 164.502 622.279 162.488 622.214 160.441V160.402Z" fill="white"/>
<path d="M588.488 159.505C588.129 156.706 585.868 155.208 584.044 153.352C581.621 150.958 581.947 153.957 582.211 155.913C582.47 157.792 583.093 159.415 584.166 161.066C585.005 162.286 585.826 163.355 586.807 164.376C587.816 165.402 588.416 165.192 588.575 163.558C588.694 162.258 588.679 160.814 588.493 159.544L588.486 159.505H588.488Z" fill="white"/>
<path d="M627.395 150.455C627.238 150.446 627.039 150.568 626.81 150.798C626.491 151.121 626.155 151.608 625.888 152.042C624.617 154.105 623.952 156.053 623.666 158.346C623.549 159.49 623.145 162.197 624.136 162.694C624.905 162.829 625.523 161.626 625.874 161.017C627.113 158.591 627.46 155.722 627.738 153.022C627.799 152.373 627.973 150.498 627.407 150.456H627.395V150.455Z" fill="white"/>
<path d="M617.05 147.114C614.693 149.486 614.996 145.184 615.123 143.82C615.24 142.49 615.556 141.356 616.314 140.172C616.734 139.525 619.547 135.528 620.026 137.525L620.031 137.548C620.488 140.472 619.149 144.8 617.05 147.114Z" fill="white"/>
<path d="M580.06 147.129C580.267 146.529 580.292 145.359 580.291 144.578C580.286 143.718 580.259 142.878 580.147 142.036C579.933 140.227 578.913 138.735 577.924 137.247C576.01 134.533 576.271 138.094 576.388 139.466C576.534 141.139 576.876 142.768 577.516 144.362C577.727 144.955 579.423 148.744 580.053 147.151L580.06 147.131V147.129Z" fill="white"/>
<path d="M613.051 143.079C612.534 142.413 611.511 142.694 610.856 143.343C609.683 144.418 609.213 146.187 609.155 147.799C609.133 149.011 608.916 151.895 610.809 151.47C612.509 150.94 613.587 148.696 613.666 146.932C613.786 145.545 613.687 143.828 613.067 143.099L613.051 143.081V143.079Z" fill="white"/>
<path d="M615.409 167.215C614.857 168.474 613.482 169.018 612.227 169.349C608.877 170.228 607.569 169.566 607.739 165.957C607.799 164.035 607.978 162.218 610.079 161.539C611.271 161.137 612.818 160.797 614.023 160.901C615.103 161.011 615.589 161.974 615.741 163.133L615.746 163.166C615.903 164.463 615.935 166.002 615.409 167.215Z" fill="white"/>
<path d="M605.963 163.254C605.504 162.152 604.569 162.022 603.993 163.123C603.326 164.391 603.418 166.168 603.102 167.432C602.487 169.722 602.193 165.835 602.069 165.246C601.974 164.671 601.844 164.111 601.615 163.591C600.56 161.237 598.24 161.149 597.411 163.621C597.223 163.984 596.95 165.448 596.661 165.33C596.604 165.291 596.562 165.21 596.532 165.135C596.372 164.775 596.267 163.908 596.063 163.021C595.787 161.602 595.043 160.47 593.771 159.772C591.353 158.388 590.043 159.478 589.979 162.086C589.946 163.799 590.2 165.561 591.483 166.765C592.446 167.697 594.015 168.385 595.553 168.891C597.278 169.451 599.049 169.919 600.827 170.243C603.991 170.779 606.127 170.523 606.351 166.693V166.658C606.439 165.42 606.351 164.096 605.963 163.254Z" fill="white"/>
<path d="M627.854 145.228C627.68 147.387 626.814 149.533 625.466 151.17L625.444 151.197C617.42 160.556 602.262 162.583 591.574 157.233C591.006 156.913 590.747 156.65 590.899 156.495C591.021 156.36 591.441 156.305 592.056 156.308C601.445 156.773 612.052 157.925 619.364 151.618C623.186 148.296 624.079 145.84 623.181 140.852C622.991 139.635 622.885 138.288 622.882 137.13C622.895 135.778 622.85 134.853 623.148 134.353C624.069 133.816 628.319 139.609 627.854 145.228Z" fill="white"/>
<path d="M596.233 111.784C594.379 112.002 592.503 112.229 590.659 112.589C581.825 114.396 574.463 122.443 576.432 131.162C577.099 134.172 579.55 137.148 582.087 139.125L582.116 139.147C589.762 145.555 601.663 146.062 610.413 141.564C613.682 139.874 616.53 137.488 618.47 134.394C626.347 120.627 609.309 109.79 596.233 111.784ZM598.987 141.329C590.5 141.883 579.911 136.413 580.861 127.121C581.81 118.86 590.998 115.106 599.091 115.485H599.136C620.849 115.573 621.469 139.459 598.987 141.329Z" fill="white"/>
<path d="M602.453 129.943L602.438 129.923C601.748 129.053 600.374 128.329 598.898 127.624C596.497 126.547 593.635 125.365 591.015 126.027C588.202 126.839 587.428 130.25 588.339 132.817C588.827 134.362 589.675 136.203 590.928 136.966C593.134 138.313 596.42 136.925 598.566 135.804C600.441 134.734 604.159 132.245 602.453 129.943ZM593.632 133.535L593.6 133.52C591.815 132.632 591.667 130.25 593.345 129.188C595.064 128.036 597.879 129.306 597.892 131.423C597.865 133.434 595.273 134.434 593.632 133.535Z" fill="white"/>
<path d="M606.274 128.711C606.147 129.461 605.483 129.805 604.756 129.596C603.815 129.341 602.92 128.629 602.091 128.079C600.8 127.199 599.579 126.385 598.048 125.849C596.566 125.319 594.985 125.095 593.424 124.88C592.259 124.667 588.625 124.487 589.852 122.716L589.865 122.698C590.763 121.628 592.329 121.129 593.696 120.924C594.834 120.756 596.002 120.822 597.112 120.679C597.991 120.576 598.84 120.349 599.672 120.041C601.054 119.545 602.532 118.757 603.947 118.482C604.636 118.354 605.206 118.37 605.485 118.509C606.16 118.924 605.042 119.569 604.579 119.892C603.862 120.391 603.058 120.761 602.747 121.504C602.383 122.805 604.613 124.163 605.468 125.729C606 126.584 606.456 127.731 606.274 128.711Z" fill="white"/>
<path d="M776.319 114.497C775.955 112.67 775.711 110.721 773.956 110.127C772.615 109.752 771.238 110.292 769.919 110.631C769.041 110.889 768.019 111.163 767.313 111.496C766.209 111.988 765.959 112.751 766.452 113.687L766.463 113.71C766.989 114.712 768.019 115.881 768.76 116.882C769.806 118.156 770.809 119.737 772.271 120.47C773.595 121.16 775.324 120.728 776.124 119.426C776.923 118.171 776.611 116.174 776.319 114.497Z" fill="white"/>
<path d="M755.513 118.423C756.722 119.848 757.778 121.512 759.145 122.809C759.757 123.366 760.443 123.708 761.321 123.768C762.588 123.866 765.261 123.262 766.186 122.461C766.784 121.887 766.291 121.075 765.852 120.508C765.401 119.92 764.866 119.295 764.402 118.686C763.923 118.069 763.439 117.449 762.948 116.837C762.071 115.734 761.095 114.569 759.754 114.102C758.289 113.61 756.277 113.942 754.893 114.52C752.984 115.375 754.57 117.224 755.494 118.4L755.513 118.423Z" fill="white"/>
<path d="M753.956 125.188C753.593 126.382 750.956 126.822 749.878 126.875C748.761 126.937 747.708 126.518 746.957 125.673C745.709 124.226 744.624 122.604 743.446 121.11L743.427 121.085C742.398 119.68 741.373 118.118 743.486 117.356C744.391 117.002 745.488 116.711 746.483 116.736C748.453 116.717 749.571 118.244 750.713 119.795C751.324 120.59 751.939 121.385 752.541 122.19C753.116 123.039 754.18 124.131 753.956 125.188Z" fill="white"/>
<path d="M764.864 135.516C765.475 134.409 766.926 132.668 766.881 131.485C766.881 130.613 764.677 130.786 763.755 130.804C759.177 130.958 758.921 133.262 756.901 136.779C756.553 137.433 756.11 138.1 755.968 138.821C755.665 140.422 758.795 140.255 759.77 140.185C760.923 140.073 761.845 139.733 762.583 138.935C763.483 137.931 764.121 136.699 764.85 135.541L764.866 135.514L764.864 135.516Z" fill="white"/>
<path d="M754.417 132.897C754.997 131.533 754.448 130.963 753.008 130.829C751.959 130.733 750.737 130.729 749.699 130.973C748.13 131.291 747.376 132.443 746.686 133.91C746.109 135.067 745.443 136.196 744.852 137.341C744.218 138.56 743.768 139.877 745.496 140.167C746.407 140.325 747.5 140.214 748.422 140.035C750.767 139.607 751.677 138.141 752.849 135.884C753.353 134.92 753.988 133.912 754.407 132.922L754.419 132.895L754.417 132.897Z" fill="white"/>
<path d="M777.505 138.098C777.017 140.414 775.721 140.51 772.774 140.3C771.725 140.229 770.511 140.224 769.491 140.12C767.795 139.957 767.908 139.167 768.623 137.84C769.188 136.811 769.81 135.757 770.388 134.729C771.101 133.505 771.697 132.266 772.774 131.533C774.041 130.653 776.046 130.603 777.135 131.793C777.552 132.268 777.765 132.89 777.847 133.617L777.85 133.645C777.971 135.064 777.802 136.698 777.505 138.098Z" fill="white"/>
<path d="M741.995 130.053C741.879 129.812 741.824 129.552 741.824 129.279C742.019 127.335 742.139 127.152 740.849 125.516C739.21 123.629 737.68 120.562 735.168 120.205C733.681 120.013 732.119 120.518 730.742 121.049C727.795 122.21 727.874 124.503 727.898 127.48C727.906 130.109 727.873 132.747 727.902 135.329C727.906 137.559 727.995 139.692 730.445 140.105L730.473 140.112C731.807 140.352 733.287 140.334 734.648 140.37C737.883 140.467 739.705 139.642 741.149 136.563C741.782 135.199 742.643 133.628 742.877 132.165C743.016 131.336 742.316 130.694 741.994 130.051L741.995 130.053ZM733.495 135.742C732.916 137.208 731.182 136.756 730.98 135.276L730.974 135.246C730.774 134.237 731.541 132.87 732.646 133.247C733.511 133.557 733.851 134.852 733.495 135.742ZM733.45 127.292C732.515 127.879 731.514 126.895 731.44 125.915C731.151 123.679 733.487 122.536 734.18 124.995L734.188 125.026C734.379 125.836 734.15 126.867 733.45 127.292ZM739.442 135.214C739.271 136.949 737.306 137.423 736.887 135.541L736.88 135.511C736.755 134.852 736.917 134.049 737.419 133.602C738.534 132.66 739.642 133.922 739.442 135.214Z" fill="white"/>
<path d="M750.76 149.566C750.76 149.592 750.76 149.614 750.76 149.614C750.76 149.614 750.76 149.587 750.76 149.561C750.76 149.561 750.76 149.564 750.756 149.566H750.76ZM750.76 149.566C750.76 149.592 750.76 149.614 750.76 149.614C750.76 149.614 750.76 149.587 750.76 149.561C750.76 149.561 750.76 149.564 750.756 149.566H750.76ZM750.76 149.566C750.76 149.592 750.76 149.614 750.76 149.614C750.76 149.614 750.76 149.587 750.76 149.561C750.76 149.561 750.76 149.564 750.756 149.566H750.76Z" fill="white"/>
<path d="M772.539 165.48C775.042 165.283 776.027 164.465 775.892 161.727L775.888 161.701C775.8 160.29 775.144 159.605 774.177 159.293C774.128 159.277 774.078 159.262 774.027 159.25C773.566 159.122 773.039 159.072 772.473 159.062C772.031 159.032 769.624 159.223 769.445 158.633C769.339 158.265 770.65 157.985 772.228 158.011C773.201 158.006 774.189 158.068 774.986 157.5C776.071 156.573 776.022 155.016 775.909 153.582C775.513 149.869 772.384 150.931 770.005 150.204C769.826 150.103 770.053 150.008 770.612 149.954C771.82 149.803 773.656 150.059 774.778 149.391C776.075 148.594 775.466 147.225 774.233 146.825C773.354 146.478 771.325 146.727 771.309 146.202C771.302 145.95 771.725 145.637 772.627 145.532C773.475 145.432 774.278 145.555 774.828 145.296C775.756 144.933 775.88 143.771 775.057 143.096C774.272 142.396 772.827 142.429 771.754 142.406C769.913 142.412 767.883 142.389 766.128 142.364C755.25 142.444 744.399 142.312 733.124 142.476C731.846 142.444 730.349 142.622 729.939 143.973C729.644 144.825 729.873 145.982 730.411 146.72C731.748 148.422 734.235 147.317 734.47 148.172C734.627 148.974 733.687 148.579 731.751 148.902C729.768 149.131 729.38 151.515 731.251 152.315C732.77 152.827 733.095 152.462 734.685 152.868C735.396 153.05 736.505 153.47 733.876 153.52C732.563 153.615 730.871 153.549 730.11 154.817C729.609 155.701 729.693 157.008 730.347 157.775C730.884 158.405 731.848 158.627 732.642 158.773C733.155 158.877 733.656 158.988 733.331 159.173C732.615 159.415 730.9 159.562 730.307 160.555C729.649 161.344 729.417 164.743 730.434 165.097C731.122 165.35 731.946 165.283 732.668 165.4C732.9 165.448 733.466 165.493 733.547 165.65C733.581 165.728 733.484 165.772 733.416 165.803C733.052 165.985 731.719 166.045 730.969 166.525C729.938 167.115 729.917 168.526 730.51 169.479C731.874 171.833 734.901 171.763 737.256 171.747C740.262 171.693 743.51 171.992 746.452 171.843C748.509 171.698 750.331 171.538 752.342 171.753C758.223 172.279 765.175 171.833 771.264 171.625C772.186 171.525 773.088 171.292 773.845 170.806C775.829 169.503 776.459 166.799 773.354 166.457C772.323 166.32 770.087 166.497 770.008 166.175C769.934 165.875 771.473 165.587 772.539 165.48ZM752.537 165.115C752.067 165.115 751.527 165.113 751.093 165.238C749.971 165.495 750.158 166.78 749.525 167.517C748.888 168.279 747.452 168.029 746.544 167.687C744.839 167.035 743.304 166.26 741.637 167.329C740.809 167.819 739.954 168.641 739.094 168.983C737.872 169.453 737.585 168.601 738.138 167.606C738.46 166.982 738.897 166.45 739.306 165.88C740.649 164.191 740.488 162.694 740.377 160.572C740.34 159.243 740.446 157.386 741.797 156.811C742.245 156.614 742.75 156.519 743.104 156.143C743.838 155.287 743.859 154.19 744.192 152.938C744.487 151.585 745 150.178 746.006 149.228C746.488 148.786 747.049 148.421 747.669 148.607C748.369 148.882 748.651 149.801 749.054 150.371C749.251 150.656 749.517 150.946 749.86 150.81C750.144 150.718 750.468 150.163 750.76 149.566L750.759 149.516C750.759 149.516 750.76 149.543 750.76 149.561C750.935 149.199 751.104 148.822 751.243 148.522C751.839 147.11 753.308 144.828 754.743 146.438L754.757 146.455C755.283 147.02 755.673 148.214 756.606 147.979C757.249 147.809 758.129 146.854 759.045 146.365C760.148 145.73 761.621 145.822 762.58 146.695C764.434 148.471 763.23 150.691 761.818 152.225C760.599 153.572 761.461 153.624 762.182 154.979C762.861 156.281 762.388 158.02 761.155 158.782C760.293 159.378 759.005 159.5 757.971 159.665C757.57 159.749 757.13 159.805 756.824 160.082C756.274 160.629 757.265 161.881 757.393 162.576C757.839 163.945 756.73 164.678 755.602 164.91C754.627 165.133 753.559 165.128 752.537 165.115Z" fill="white"/>
<path d="M753.14 154.761C752.109 154.507 753.306 151.928 752.462 153.167C751.577 154.486 748.941 158.667 747.777 157.516C747.523 157.195 747.455 156.613 747.407 156.179C747.361 155.971 747.373 155.097 747.179 155.289C747.05 155.426 746.368 156.063 746.489 157.035C746.626 158.15 747.136 159.422 746.117 160.662C745.643 161.241 743.391 162.979 743.024 163.525C742.758 163.923 742.616 164.266 743.235 164.016C743.783 163.818 744.998 163.248 745.973 162.653C746.671 162.226 747.337 161.714 747.967 161.657C748.922 161.559 750.082 162.538 750.934 162.331C751.409 162.204 751.159 161.951 750.887 161.787C750.052 161.256 748.283 160.742 749.207 159.455C749.995 158.353 751.34 157.235 753.058 156.793C754.776 156.351 756.656 157.183 756.953 156.454C757.048 156.223 754.893 156.208 754.58 155.564C754.088 154.406 757.755 152.162 758.479 151.42C758.694 151.243 760.083 150.029 759.227 150.301C758.627 150.538 757.994 150.953 757.341 151.373C756.374 151.955 753.14 154.761 753.14 154.761Z" fill="white"/>
<defs>
<linearGradient id="paint0_linear_120_1538" x1="225" y1="0" x2="225" y2="139" gradientUnits="userSpaceOnUse">
<stop offset="0.47" stop-color="#0A0400"/>
<stop offset="1" stop-opacity="0"/>
</linearGradient>
</defs>
</svg>
