<svg width="132" height="118" viewBox="0 0 132 118" fill="none" xmlns="http://www.w3.org/2000/svg">
<ellipse cx="68" cy="60" rx="54" ry="48" fill="#F1E61C"/>
<ellipse cx="67" cy="59" rx="63" ry="57" stroke="white" stroke-width="2"/>
<path d="M50.0259 39.8068C47.9508 37.7188 45.5105 35.5515 43.1576 33.6425C41.6882 32.4326 34.7698 27.0682 35.2825 29.0614L35.2854 29.0685C35.9441 30.4371 36.6874 31.2169 38.6508 33.3818C40.2189 35.0372 42.4329 37.1145 44.7014 39.0697C47.4982 41.4918 50.5872 43.8902 53.6433 45.8834C58.6012 49.1444 50.9438 40.6102 50.0259 39.8068Z" fill="#F3FF90"/>
<path d="M68.4668 37.9855C68.3938 38.9038 67.7766 48.0981 67.2596 46.7543C66.9188 45.4331 66.8629 44.3239 66.671 42.8072L66.6681 42.7811C66.0309 36.7744 65.9507 29.7653 66.565 23.5856C66.9001 20.4892 67.5847 15.8962 68.1002 20.4371C68.769 26.0551 68.8048 32.2134 68.4668 37.9855Z" fill="#F3FF90"/>
<path d="M110.428 59.8626C107.639 60.0913 104.633 60.192 101.773 60.2133C96.6818 60.2595 91.3101 59.9929 86.2462 59.4881C84.7096 59.3317 83.1414 59.1433 81.8039 58.9122C81.2382 58.802 79.3564 58.4916 79.9278 58.1645C80.1899 58.0306 80.8802 57.9192 81.9757 57.8303C86.6372 57.5128 92.8696 57.5696 98.2027 57.6289C102.811 57.7284 106.304 57.8529 110.284 58.1503C111.598 58.2783 113.894 58.4145 114.773 58.8518L114.778 58.8542C115.551 59.4467 111.167 59.7938 110.428 59.8626Z" fill="#F3FF90"/>
<path d="M54.9336 70.2561C52.8055 74.2802 49.9528 78.4419 46.9526 82.2907L46.9268 82.3239C45.5449 84.0777 44.5367 85.2686 43.2363 86.6704C41.8458 88.1599 41.0381 88.7927 40.6929 88.7702C40.2533 88.6576 40.6958 87.6705 41.2443 86.5484C43.666 81.972 47.4481 76.9867 51.236 72.9258C52.933 71.1637 56.0435 68.1444 54.9336 70.2561Z" fill="#F3FF90"/>
<path d="M65.1745 37.1738C65.1587 37.7793 65.2131 41.4361 64.5129 40.7453C64.1978 40.3779 64.0632 40.0213 63.8283 39.5425C63.4574 38.7344 63.1223 37.9333 62.7514 36.9818C62.0769 35.2896 61.3064 32.8296 60.841 30.8424L60.831 30.8009C60.2495 28.3587 59.8142 25.8453 59.6667 23.396C59.522 20.8139 59.6996 19.5318 60.0147 19.1893C60.725 18.5115 62.147 22.2442 62.4005 22.8639C64.0073 27.1085 65.1487 32.7099 65.1745 37.1738Z" fill="#F3FF90"/>
<path d="M63.8011 44.7422C63.3729 42.537 62.896 40.2831 62.0984 37.7165C61.1374 34.6012 59.8586 31.2524 58.5024 28.2224C57.5801 26.1392 55.5967 22.1624 54.494 20.8009C53.881 20.0449 53.7879 20.731 53.7794 21.3471V21.3578C53.8438 25.6557 55.7943 31.7726 57.805 36.458C59.3115 39.9869 61.1031 43.3748 63.2741 46.5434C64.7005 48.501 63.8913 45.4603 63.8011 44.7422Z" fill="#F3FF90"/>
<path d="M114.387 51.6282L114.378 51.6258C113.664 51.3212 109.874 51.5073 108.164 51.6578C101.671 52.1732 90.7544 53.7742 84.8786 55.8502C84.2542 56.2792 87.0639 56.3159 87.4692 56.3385C91.0824 56.4463 95.2956 56.2093 99.1765 55.7152C101.707 55.4035 104.259 55.0042 106.715 54.51C107.868 54.2991 116.356 52.4363 114.387 51.6282Z" fill="#F3FF90"/>
<path d="M121.344 49.6943L121.339 49.6717C118.777 35.1439 107.103 22.1577 90.929 16.1427C53.4198 2.02485 11.5198 25.8145 14.1147 59.91C17.4658 99.8663 76.2645 116.692 108.479 86.6929C119.077 76.7201 123.854 62.7942 121.344 49.6943ZM109.181 79.8828L109.165 79.903C96.6073 95.8931 71.4025 102.273 50 95.4902C25.8178 87.9928 13.128 66.2567 20.0608 45.8158C27.7955 22.1897 59.3931 9.77225 86.6743 18.6371C116.306 28.0435 126.273 58.3517 109.181 79.8828Z" fill="#F3FF90"/>
<path d="M71.3453 64.465L71.3196 64.4733C64.9453 66.6193 58.2847 62.3345 58.6427 56.7556C59.0079 50.57 67.4357 47.2651 73.4348 50.9835C79.2318 54.5918 78.0389 62.1887 71.3453 64.465Z" fill="#F3FF90"/>
<path d="M55.3632 58.2996C52.4847 58.7594 49.3456 58.8127 45.4761 58.9821C38.9658 59.2464 29.842 59.1871 23.9776 58.6444L23.9533 58.6421C18.9209 58.1681 20.8242 57.6727 24.2268 57.4322C27.449 57.1964 30.9232 57.1205 34.2199 57.0708C39.0145 57.002 43.9352 57.0826 48.7012 57.2912C50.1204 57.3552 51.5854 57.4393 52.8743 57.5471C53.9412 57.6585 55.0969 57.7142 55.7972 57.9962C55.979 58.1017 55.8258 58.2012 55.3632 58.2996Z" fill="#F3FF90"/>
<path d="M48.1498 61.7455C45.6967 62.5454 43.3695 63.1722 40.6328 63.7647L40.587 63.7742C36.7117 64.5966 32.4613 65.2566 28.4887 65.5671C27.7641 65.6216 27.0938 65.6619 26.4064 65.6868C23.8201 65.7768 22.6529 65.5931 22.2992 65.3265C21.5373 64.6428 25.7978 63.6415 26.6814 63.4009C33.3134 61.7894 41.6682 60.6269 48.462 60.858C50.1533 60.9303 49.7251 61.2016 48.1498 61.7455Z" fill="#F3FF90"/>
<path d="M54.8405 62.3416C53.8438 62.9056 52.9516 63.3784 51.763 63.9851C44.9362 67.405 35.8568 70.973 28.0218 72.3949L27.9989 72.3985C23.1585 73.1841 24.4445 72.1887 28.2209 70.4788C30.7528 69.2891 33.4509 68.0923 36.169 67.0151C41.2643 64.9627 47.1187 62.9412 52.3587 61.7159C53.6447 61.422 54.9322 61.0855 56.1122 61.0096C57.3166 60.9942 55.3776 62.0181 54.8405 62.3416Z" fill="#F3FF90"/>
<path d="M49.4759 68.0733C44.6083 71.9968 38.2426 75.7508 32.2307 78.1243L32.2064 78.1338C23.5795 81.2349 34.6094 74.1653 36.4482 73.1486C40.4996 70.7585 45.1525 68.3459 49.5919 66.9085C51.6198 66.2769 50.2765 67.4074 49.4759 68.0733Z" fill="#F3FF90"/>
<path d="M57.8135 64.4141C57.2565 65.1606 56.4158 66.0849 55.7084 66.8326C51.8432 70.9137 45.9788 76.1513 41.2787 79.839L41.25 79.8603C38.8441 81.8333 30.4535 87.9798 36.0831 81.7907C41.5021 76.0305 47.8147 70.5535 54.3565 65.669C55.1055 65.1085 59.8056 61.6851 57.8135 64.4141Z" fill="#F3FF90"/>
<path d="M60.4572 67.6349C58.3048 73.145 55.094 79.0119 51.836 84.0824L51.8145 84.1156C50.444 86.2391 49.3342 87.84 48.1083 89.5949C47.2719 90.7325 46.924 91.2823 46.4113 91.613C45.446 92.0561 46.9225 87.7867 47.3049 86.8482C48.3618 84.0694 49.7767 81.3771 51.3047 78.6836C53.4829 74.8715 56.1681 70.7526 58.8532 67.5756C60.3627 65.8183 61.8248 64.2304 60.4572 67.6349Z" fill="#F3FF90"/>
<path d="M60.1736 72.7327C60.0992 73.401 59.9774 74.1985 59.8414 74.9723C58.9793 79.9172 57.2393 85.1584 55.243 89.7679C54.8319 90.6934 54.262 91.8618 53.8452 92.5763C53.4987 93.1487 53.2724 93.5504 52.8514 93.913C51.7902 94.573 52.2513 91.408 52.6265 89.7419C53.5903 85.3124 55.369 80.031 57.3166 76.0234C58.0728 74.4509 59.6882 71.4315 60.0734 71.5181H60.0777C60.3355 71.5963 60.198 72.3298 60.1736 72.7327Z" fill="#F3FF90"/>
<path d="M64.3109 73.1723C64.2565 78.4466 63.2182 85.0505 61.8234 90.4066C61.3623 92.1628 60.5331 95.7189 59.9502 95.1584C59.7182 94.9629 59.6509 94.7235 59.5364 94.3846C59.4447 94.0896 59.3573 93.7092 59.2771 93.2352C59.1783 92.6451 59.0895 91.9068 59.0323 91.0074C58.7057 84.2933 60.1579 76.5993 62.4664 69.9942C62.7714 69.1493 63.0894 68.2961 63.4374 67.6491C63.6092 67.3481 63.7381 67.2142 63.8527 67.245H63.8541C64.2193 67.5827 64.1949 68.5189 64.2923 70.4208C64.3167 71.3202 64.3224 72.2492 64.3109 73.1723Z" fill="#F3FF90"/>
<path d="M68.1375 94.7994C67.0519 90.6247 66.7369 85.7852 66.6366 81.1804C66.5794 77.9904 66.6653 74.8277 66.9889 71.7017C67.2954 68.8767 67.5718 66.2153 68.0788 68.558C69.2588 74.0646 69.7242 80.2976 69.7099 86.0815V86.1206C69.7271 87.1314 69.4722 99.3781 68.1375 94.7994Z" fill="#F3FF90"/>
<path d="M78.9512 92.9615C78.8996 93.6594 78.8753 94.1619 78.6318 94.6773C77.91 95.7841 76.4622 91.7101 75.5414 89.5452C73.1168 83.3608 71.2723 76.322 70.963 69.9456C70.9644 69.5107 70.7668 67.1277 71.341 67.3943C71.5057 67.2391 72.9808 69.9965 73.6152 71.4387C76.0182 76.4037 78.0017 83.01 78.6834 88.0474L78.6891 88.0817C78.9225 89.9409 79.0185 91.3937 78.9512 92.9615Z" fill="#F3FF90"/>
<path d="M87.1398 92.1972C87.051 93.6227 85.5846 92.1557 84.3601 90.5927C82.8579 88.6707 81.5504 86.4974 80.4176 84.3621C79.0099 81.761 77.7697 78.7891 77.1023 76.2331C77.0307 75.8658 76.3677 73.9319 77.2269 74.5267C77.7697 74.785 80.5852 78.308 81.5576 79.8343C83.2446 82.3203 85.0146 85.6644 85.9856 88.0485L85.9985 88.0794C86.5813 89.6068 87.0854 90.7941 87.1398 92.1972Z" fill="#F3FF90"/>
<path d="M88.4516 84.7401C84.6208 81.1176 81.095 77.1266 77.9988 73.0206C76.561 71.0642 74.8583 68.872 73.979 66.8504C72.8505 63.4389 84.353 76.1312 85.0719 76.8931C87.3718 79.4302 89.4756 81.8854 91.3817 84.2293C92.6605 85.771 94.5867 88.3839 94.6855 88.9562L94.6884 88.9645C95.3228 91.1283 88.9113 85.2247 88.4516 84.7401Z" fill="#F3FF90"/>
<path d="M94.5767 81.4909C92.0175 79.7999 89.4197 77.8956 87.1069 75.9866C86.2204 75.3432 79.7359 69.4159 81.0678 69.5285C81.8998 69.7311 82.5457 70.1624 83.3591 70.5689C85.248 71.588 87.2458 72.7647 89.1147 74.0421C92.8639 76.5957 97.8919 80.467 100.47 83.4307L100.48 83.4425C103.487 87.0591 96.4112 82.7303 94.5767 81.4909Z" fill="#F3FF90"/>
<path d="M95.3772 75.2638C90.7945 73.1154 86.2777 70.5689 82.1003 67.9133C80.82 67.0969 79.5383 66.2461 78.49 65.4438C77.9501 65.0279 77.5678 64.689 77.3544 64.4402C77.194 64.2529 77.1295 64.1143 77.1596 64.0278C77.3515 63.7339 78.3554 64.0835 79.3321 64.4176C82.9911 65.7863 87.4076 67.9655 91.4877 69.9954C94.6669 71.5927 98.4748 73.6688 101.121 75.2306C102.714 76.1288 106.499 78.5379 106.606 79.1197L106.609 79.1245C107.043 80.6187 96.2651 75.7283 95.3772 75.2638Z" fill="#F3FF90"/>
<path d="M110.547 72.6177H110.543C109.661 72.9294 105.91 72.0916 104.396 71.7314C97.2103 70.0037 88.7996 66.8326 82.5099 63.2398C81.7695 62.8144 81.1738 62.4518 80.5551 62.0406C80.2028 61.7882 79.3994 61.2786 79.5354 61.0807C79.6472 60.9836 80.1555 61.0724 81.1107 61.3106C88.0993 63.1118 95.7753 65.6429 102.5 68.4158C103.977 69.064 111.601 72.2338 110.547 72.6177Z" fill="#F3FF90"/>
<path d="M109.138 66.3314C106.029 66.1477 102.619 65.6477 99.4601 65.0765C95.5132 64.3726 91.2843 63.3476 87.896 62.1105C87.6081 61.9884 85.0246 61.1317 85.586 60.8757C85.6719 60.6636 89.9482 60.9611 91.4633 61.1151C96.4326 61.5536 102.36 62.5359 106.913 63.5692L106.954 63.5787C109.31 64.1534 111.196 64.5527 113.092 65.4047C115.166 66.4748 111.356 66.4807 109.138 66.3314Z" fill="#F3FF90"/>
<path d="M110.398 47.1228C102.129 50.4775 92.957 52.8937 83.9277 54.3951C83.309 54.4804 78.9784 55.1795 80.0009 54.2944C80.3145 54.036 81.0821 53.6675 82.2535 53.2077C83.6799 52.6472 85.7135 51.9493 88.1552 51.1779C94.0668 49.2819 103.029 46.8361 108.826 45.7305L108.855 45.7258C113.271 44.856 115.239 45.0479 110.398 47.1228Z" fill="#F3FF90"/>
<path d="M107.444 41.3212C105.717 42.4315 103.637 43.5644 101.571 44.6024C98.1769 46.31 94.0067 48.1621 90.4852 49.3423C89.4383 49.6706 85.1392 51.1767 85.0547 50.5984C85.1177 50.128 87.747 48.5128 88.9486 47.7533C94.0955 44.6154 101.343 41.2619 107.266 39.5082L107.286 39.5022C110.701 38.5412 110.358 39.4667 107.444 41.3212Z" fill="#F3FF90"/>
<path d="M104.617 35.9295C102.828 37.3705 100.723 38.8434 98.7225 40.1978C95.1638 42.6093 91.3516 44.9235 87.5465 47.0802C85.2982 48.341 82.825 49.7346 80.5408 50.7359C79.7345 51.0878 78.5258 51.4978 79.3178 50.5771C81.221 48.6005 84.2527 46.5339 87.1499 44.4756C91.8815 41.1636 98.3259 37.2057 103.163 34.8856L103.185 34.8749C107 33.0642 107.722 33.434 104.617 35.9295Z" fill="#F3FF90"/>
<path d="M100.074 31.1138C98.5206 32.7834 96.6331 34.5158 94.8387 36.1191C91.5392 39.0662 87.9762 41.9552 84.4117 44.6889C82.4884 46.1559 80.399 47.7521 78.4141 49.0082C73.3359 52.1021 80.7327 44.715 82.0574 43.5146C86.3021 39.3944 92.6219 34.1201 97.4752 30.9348L97.4967 30.9206C100.155 29.1348 103.434 27.4427 100.074 31.1138Z" fill="#F3FF90"/>
<path d="M93.272 29.0981C89.5128 34.2741 84.7955 39.7629 80.0696 44.2434C78.7292 45.4852 77.8885 46.2981 76.6355 47.2722C75.4468 48.1372 75.8163 47.2994 76.9835 45.2624C79.988 40.0402 84.8241 34.2279 89.1992 29.9288L89.2264 29.9015C92.0333 27.1299 99.377 20.7855 93.272 29.0981Z" fill="#F3FF90"/>
<path d="M87.3976 25.7091C85.301 30.3589 82.1648 35.7032 78.5101 39.6326C76.8145 41.4658 76.223 42.0464 77.5377 38.7593C78.0074 37.5612 78.4671 36.4426 79.0629 35.1913L79.0786 35.1569C80.4949 32.1968 82.3695 29.078 84.3516 26.2826C85.1678 25.0952 87.6253 21.9799 88.4029 21.82C89.2479 21.6778 87.6525 25.0929 87.3976 25.7091Z" fill="#F3FF90"/>
<path d="M82.023 21.7714C81.612 27.0623 79.418 32.7751 77.1525 37.9049C76.0025 40.5178 73.134 45.8976 71.6361 47.4049C70.7482 48.1917 71.5945 44.8631 71.6633 44.35L71.6676 44.3275C72.5898 39.5568 74.3613 34.286 76.4608 29.5567C77.4632 27.2069 80.094 22.1482 81.1623 21.0118C81.9399 20.1397 82.0473 21.141 82.023 21.7714Z" fill="#F3FF90"/>
<path d="M75.1146 23.018C74.8983 27.3669 74.0348 32.4457 72.9006 36.804C72.5082 38.2876 70.9043 43.7172 70.2097 43.607H70.2068C69.793 43.7303 69.5939 41.3473 69.6354 39.6895C69.6354 35.0953 70.5691 29.5768 71.9039 24.9068C73.0853 20.8198 75.5156 15.2172 75.1146 23.018Z" fill="#F3FF90"/>
<path d="M57.1934 40.5118C55.1699 38.2296 53.3526 35.638 51.826 33.0074C50.3653 30.4905 49.2683 28.2781 48.4849 26.1297C47.8333 24.216 47.5884 23.3462 47.7259 22.5215L47.7288 22.5155C48.3904 20.8554 52.2771 27.1204 52.9201 28.143C54.2706 30.3412 55.5995 32.7964 56.6478 35.0787C57.477 36.874 58.0155 38.3599 58.5081 39.9277C59.1611 42.0334 59.0752 42.6187 57.1934 40.5118Z" fill="#F3FF90"/>
<path d="M61.1417 48.8802C60.9885 48.9323 60.6333 48.7486 60.0963 48.3375C55.9404 44.8358 51.2732 39.4228 47.6658 34.9507C45.3644 32.0084 42.6191 28.4357 41.3861 25.9235L41.3818 25.9129C39.6575 21.8875 48.9031 32.1708 49.2754 32.6341C52.9287 36.7329 56.3872 41.0771 59.4318 45.4615C60.0748 46.4154 60.735 47.412 61.1031 48.2533C61.2592 48.6254 61.2706 48.8375 61.1417 48.8802Z" fill="#F3FF90"/>
<path d="M57.5128 51.3438C57.2507 51.3817 56.6507 51.1933 55.747 50.7916C54.6572 50.3069 53.1206 49.5094 51.2703 48.4619C46.5187 45.8206 39.9654 41.5238 35.758 38.1822C34.1784 36.9984 30.8201 34.1331 30.6125 33.4328L30.6096 33.4268C29.9179 31.5439 39.7048 37.7734 40.8362 38.482C43.1189 39.9288 45.4861 41.4942 47.6901 43.0442C49.4416 44.2872 58.7888 50.8496 57.5128 51.3438Z" fill="#F3FF90"/>
<path d="M46.0346 48.7084C40.5913 47.1086 34.0409 43.9424 29.7403 41.1517C28.7322 40.5344 26.3792 38.8102 26.511 38.3552V38.3516C26.6685 37.6335 30.117 38.9335 31.2899 39.347C35.1794 40.8057 39.1162 42.7195 42.6277 44.7114C44.7687 45.9722 46.417 47.0233 48.041 48.3778C49.6693 49.8199 46.8681 48.9465 46.0346 48.7084Z" fill="#F3FF90"/>
<path d="M56.1967 54.3181C55.9576 54.4034 55.2988 54.3655 54.2577 54.2079C49.9815 53.5028 44.9147 52.2005 40.0027 50.8093C36.5628 49.8175 32.8136 48.5472 30.074 47.521C26.6456 46.1678 24.9228 45.5942 23.389 44.4543L23.3847 44.4495C21.8954 42.5666 41.5522 48.4394 43.2406 49.065C46.7836 50.2074 52.0021 52.0216 54.524 53.1426C55.0367 53.3807 56.7252 54.1012 56.1967 54.3181Z" fill="#F3FF90"/>
<path d="M51.2847 55.7744C47.6944 56.0659 40.8104 55.4722 36.6788 54.9354C31.6608 54.241 24.645 53.2599 21.4686 51.5736L21.4629 51.5689C19.8246 50.1493 30.4592 51.2205 31.7195 51.3603C35.1851 51.7312 38.9372 52.268 42.3083 52.9091C43.1361 53.017 53.9784 55.3881 51.2847 55.7744Z" fill="#F3FF90"/>
</svg>
