<svg width="168" height="188" viewBox="0 0 168 188" fill="none" xmlns="http://www.w3.org/2000/svg">
<path d="M150.314 106.519L150.328 106.48C151.07 104.282 152.963 100.398 151.393 98.6295C149.737 97.046 147.026 99.2462 145.543 100.672C143.892 102.202 142.603 104.377 140.622 105.418C138.606 106.438 136.569 103.259 134.811 103.906C133.698 104.402 133.234 105.587 132.809 106.725C132.296 108.209 131.985 110.168 131.525 111.627C130.95 113.34 130.331 114.877 128.597 113.91C127.481 113.308 126.289 112.067 124.966 111.865C122.352 111.74 121.613 116.041 121.336 118.065C120.645 124.946 120.271 125.864 116.082 131.127C115.266 132.27 114.996 132.986 116.608 132.708C117.539 132.541 118.793 132.17 119.837 131.871C121.243 131.459 122.694 131.118 124.165 131.074C127.181 130.863 130.105 131.969 132.518 130.336C133.243 129.829 133.823 129.203 134.509 128.635C136.333 126.907 139.192 126.838 141.486 126.04C143.917 125.185 143.278 123.469 142.721 121.501C142.197 119.832 143.093 119.224 144.721 118.656C146.622 117.94 149.104 117.395 150.402 115.665C152.151 113.09 148.816 110.331 150.314 106.519ZM145.356 107.252C143.46 110.433 140.961 113.314 138.442 116.032C135.758 118.869 132.971 121.659 129.938 124.104C128.677 125.006 127.319 126.233 125.83 126.133C125.052 126.006 124.587 125.136 124.89 124.406C125.652 122.6 128.072 122.155 129.751 121.056L129.784 121.035C132.453 119.424 134.777 114.07 136.973 113.011C138.698 112.049 140.206 111.137 141.557 109.522C142.855 108.091 144.541 105.898 145.917 104.848C147.201 104.011 145.707 106.677 145.356 107.252Z" fill="white"/>
<path d="M48.8171 122.456C48.0596 121.223 47.4314 119.915 46.9326 118.552C46.0804 116.317 45.6232 114.24 44.4477 112.552C43.6116 111.323 42.129 111.063 40.838 110.595C39.5678 110.127 38.8865 109.127 38.1706 107.815C37.166 106.1 36.3046 103.846 34.5702 102.752C33.2654 102.019 32.1291 103.357 31.0737 103.881C30.0044 104.423 29.2723 103.797 28.3347 102.974C27.2031 101.959 26.0461 100.598 24.6766 99.8768C22.4526 98.6643 20.1755 100.971 17.6605 101.045C15.9977 101.203 14.104 100.827 12.492 101.205C10.6421 101.694 10.3765 103.294 11.2864 105.063C12.4966 107.514 15.3972 109.049 17.1501 111.07C19.3995 113.375 16.8868 116.852 19.1085 118.359C21.866 120.075 26.1246 118.457 28.9121 119.512C30.2538 120.168 28.6395 122.514 28.7827 123.717C28.7689 124.378 29.1315 124.937 29.6903 125.282C32.2122 126.838 36.8565 125.89 39.8934 125.567C42.0966 125.312 44.2583 125.47 46.2883 126.402L46.3298 126.421C47.7317 127.04 49.6485 128.076 50.6554 128.322C53.8817 129.298 49.2328 123.388 48.8171 122.456ZM40.4084 119.778C38.8773 118.988 37.3646 118.111 35.8635 117.251L35.815 117.223C31.5679 114.775 27.1453 112.352 22.799 110.043C21.441 109.313 20.0184 108.501 18.8637 107.69C15.1109 104.959 20.7113 106.997 23.1108 108.202C26.0091 109.596 28.8936 111.08 31.7411 112.566C35.3138 114.474 38.965 116.43 42.1705 118.909C45.3691 121.45 44.5054 121.921 40.4084 119.778Z" fill="white"/>
<path d="M94.1952 115.396C92.8049 116.129 90.8419 116.454 89.0914 116.59C87.0544 116.757 84.8443 116.801 82.7196 116.776C79.8906 116.709 76.4241 116.623 73.9922 115.677L73.953 115.661C71.6782 114.882 68.7314 111.687 71.7729 110.041C74.3502 108.835 77.8005 109.719 80.9598 109.649C83.3824 109.7 85.8073 109.672 88.2253 109.526C91.3061 109.438 95.5855 108.462 96.895 111.161C97.4654 112.99 95.7749 114.58 94.1952 115.396Z" fill="white"/>
<path d="M106.324 159.215C92.5139 159.959 78.371 160.012 64.5421 159.403C62.7176 159.303 60.7038 159.277 58.9648 158.846C54.2743 157.583 55.3089 154.501 58.489 152.315C60.2442 151.052 62.3735 150.101 64.1864 148.828C65.6644 147.808 67.0131 146.603 68.1771 145.235L68.2071 145.2C71.3456 141.435 73.2717 136.687 74.184 131.878C74.3618 130.932 74.5003 129.977 74.5996 129.02C75.0361 125.957 74.3595 122.604 76.558 120.495C78.4148 119.004 80.9483 119.252 83.2577 119.171C87.0383 119.15 91.7403 118.498 92.5278 123.138C92.8811 124.974 92.8326 127.058 93.0798 128.952C93.8742 135.548 96.3545 142.195 101.299 146.711C103.839 149.197 107.414 150.493 110.061 152.786C114.396 156.604 110.555 158.99 106.324 159.215Z" fill="white"/>
<path d="M110.28 186.728C96.4538 188.012 82.4356 188.448 68.5489 187.456C63.4982 187.068 58.489 186.714 53.4106 186.065C50.9302 185.714 48.2143 185.327 46.2421 183.767C43.5216 181.653 43.5885 177.612 43.9326 174.421C44.4245 170.663 44.607 166.003 47.4476 163.525C49.7432 161.54 53.4059 161.67 56.4405 161.756C66.4196 162.141 76.3594 163.038 86.3547 162.913C95.7079 162.894 105.047 161.719 114.389 161.57C122.768 161.624 123.283 167.225 124.015 174.148L124.019 174.194C125.555 185.207 119.133 185.733 110.28 186.728Z" fill="white"/>
<path d="M159.137 36.1408H159.146C159.185 36.0944 159.19 36.0713 159.137 36.1408ZM159.137 36.1408H159.146C159.185 36.0944 159.19 36.0713 159.137 36.1408ZM159.137 36.1408H159.146C159.185 36.0944 159.19 36.0713 159.137 36.1408Z" fill="white"/>
<path d="M164.979 22.7403L164.952 22.7055C161.538 18.4512 155.922 17.3383 150.668 17.3059C147.753 17.1969 143.79 18.1104 141.529 15.8893C139.615 13.6312 140.148 10.0979 138.446 7.62874C136.557 4.91385 133.59 4.20905 130.262 3.4231C126.222 2.55137 121.481 2.01581 117.417 1.64486C101.689 0.314083 85.8835 -0.360581 70.0939 0.195843C59.4035 0.43696 47.8148 1.01193 37.1637 3.02433C34.2099 3.65031 31.4039 4.21832 29.3023 6.20522C25.0969 10.4062 29.0114 16.8329 20.7113 17.2943C14.6328 17.5053 7.7553 17.1714 3.4713 22.374C-4.90041 32.8092 3.57061 56.1953 10.9839 65.5965C15.9838 71.9305 22.6951 76.6833 29.8428 80.3232C34.039 82.5953 38.8727 83.7522 43.0204 86.052C45.7709 87.566 48.0504 89.7801 50.1496 92.1147C52.1727 94.3381 54.3205 96.5105 56.6807 98.3861C62.4636 103.113 69.4034 105.777 76.8952 106.498C82.4448 107.064 88.1191 106.994 93.6132 106.1C101.685 104.75 109.357 100.032 115.015 94.1202C120.193 88.4261 122.301 86.474 129.788 83.8031C148.603 77.2327 159.185 67.4536 165.291 48.192C166.455 44.4083 167.672 39.7182 167.945 35.13C168.213 30.5696 167.55 26.109 164.979 22.7403ZM37.8519 72.9483C36.1683 74.4413 31.1984 71.4366 29.2954 70.3817L29.2562 70.3562C20.5727 65.2047 14.4388 58.0778 10.8985 48.5723C9.34189 44.2739 8.26338 39.7228 8.03706 35.1485C7.67448 26.2342 13.686 24.5811 21.5011 25.4992C27.7065 26.0603 29.3462 28.9977 30.1291 34.8263C31.076 41.5034 31.9374 48.148 33.457 54.7602C34.427 58.9333 35.6325 63.1204 37.0459 67.1035C37.5309 68.7078 38.8981 71.636 37.8519 72.9483ZM104.435 79.0828C101.578 83.2004 97.3522 86.4485 93.1675 89.1819C91.6502 90.1928 90.2114 91.1781 88.8489 92.1286C87.3039 93.1905 85.5233 94.3335 83.6503 94.4564H83.618C79.9575 94.6975 76.0846 90.6935 72.9877 88.6974C70.2487 86.8218 67.4358 85.0412 65.1055 82.6625C60.7245 78.1601 57.7454 72.2365 56.5214 66.0509C55.5884 60.3615 54.4729 53.0607 60.8216 50.4734C72.184 46.2167 94.5948 47.9115 105.766 52.7315C106.957 53.3274 107.98 54.0901 108.747 55.0662C113.262 60.9272 108.278 73.7249 104.435 79.0828ZM114.936 49.0313C114.195 51.468 111.047 51.9247 108.738 51.3799C107.468 51.1202 106.11 50.6148 104.844 50.1627C93.5255 46.0892 80.9829 45.862 69.0524 46.903C66.736 47.165 64.5074 47.6194 62.3158 48.3056C61.004 48.7114 59.6668 49.2933 58.3897 49.7245C56.4867 50.3899 54.4914 50.6102 53.2304 48.9339C51.5145 46.4694 52.1796 42.9014 53.0434 40.1656C54.3805 36.2962 57.1934 33.3193 60.3735 30.9591C64.4451 27.8617 69.2094 26.2179 74.2786 25.6383C77.4518 25.2813 80.4079 24.3493 82.5672 21.9775C84.9759 19.4342 86.5394 15.9055 89.6987 14.0577C91.1444 13.193 93.0035 12.1474 94.5763 13.0075L94.5948 13.0191C97.4538 15.3677 91.1999 20.3755 90.6225 22.7704C89.7403 25.9397 94.3384 26.7883 96.8834 27.7643C98.7055 28.3949 100.488 29.1461 102.186 30.0596C105.703 31.9375 108.913 34.6176 111.135 38.0025C112.807 40.5922 115.761 46.3952 114.936 49.0313ZM158.467 41.7329C156.829 51.4355 152.943 59.2904 145.532 65.8446L145.499 65.8747C143.449 67.7341 141.326 69.4915 139.033 71.0379C137.01 72.3617 129.966 76.7783 128.195 74.4761C127.59 73.5047 127.929 72.2458 128.403 70.5278C129.486 67.1568 130.779 63.7 131.791 60.2873C133.894 53.4271 135.416 46.1054 136.414 39.0273C137.026 35.6215 136.874 31.184 139.181 28.4969C141.721 25.7774 145.707 25.949 149.476 25.8122C152.661 25.7542 156.774 26.3617 158.319 29.3988C160.033 32.8116 158.996 37.8773 158.467 41.7329Z" fill="white"/>
<path d="M92.5186 70.6298L92.4978 70.6739C90.0221 76.4444 83.2277 78.9112 77.7913 75.6376C71.348 71.8632 70.5812 62.5385 76.6758 58.0894C85.2623 51.832 96.7656 60.6884 92.5186 70.6298Z" fill="white"/>
</svg>
