<svg width="25" height="31" viewBox="0 0 25 31" fill="none" xmlns="http://www.w3.org/2000/svg">
<path d="M24.2146 2.24841C24.0325 1.33484 23.9108 0.360423 23.033 0.063679C22.3625 -0.12387 21.6741 0.1462 21.0148 0.315411C20.5756 0.444611 20.0646 0.581313 19.7116 0.748023C19.1595 0.993921 19.0345 1.37569 19.2812 1.84331L19.2868 1.85498C19.5496 2.35594 20.0646 2.94026 20.4353 3.44122C20.9584 4.07806 21.4598 4.86826 22.1908 5.23502C22.8525 5.58011 23.7173 5.36422 24.1171 4.71322C24.5169 4.08556 24.3605 3.08696 24.2146 2.24841Z" fill="url(#paint0_linear_1128_3510)"/>
<path d="M13.8117 4.21142C14.4162 4.92411 14.9441 5.75599 15.6276 6.40449C15.9339 6.6829 16.2764 6.85378 16.7157 6.88378C17.3492 6.93296 18.6855 6.63122 19.1482 6.23028C19.4472 5.94354 19.2006 5.5376 18.9813 5.25419C18.7557 4.95995 18.4881 4.64737 18.256 4.34312C18.0166 4.03471 17.7748 3.72463 17.529 3.41872C17.0905 2.86691 16.6029 2.28426 15.9323 2.05086C15.1996 1.80496 14.1938 1.97084 13.5014 2.26008C12.5471 2.68769 13.3402 3.6121 13.8021 4.19975L13.8117 4.21142Z" fill="url(#paint1_linear_1128_3510)"/>
<path d="M13.0332 7.59397C12.8518 8.19079 11.5332 8.41085 10.994 8.43752C10.4355 8.46836 9.90915 8.25914 9.53357 7.83653C8.90973 7.11301 8.3673 6.30197 7.77812 5.55511L7.76845 5.5426C7.25423 4.83992 6.74162 4.05888 7.79827 3.67795C8.25043 3.50124 8.79931 3.35537 9.2966 3.36787C10.2815 3.3587 10.8409 4.12223 11.4115 4.89744C11.717 5.29504 12.0249 5.69264 12.3255 6.09525C12.6132 6.51952 13.1452 7.0655 13.0332 7.59397Z" fill="url(#paint2_linear_1128_3510)"/>
<path d="M18.4873 12.7578C18.7927 12.2043 19.5181 11.3341 19.4956 10.7423C19.4956 10.3063 18.3938 10.393 17.9328 10.4022C15.6438 10.4789 15.5156 11.6309 14.5057 13.3896C14.3316 13.7164 14.11 14.0498 14.039 14.4107C13.8875 15.2109 15.4527 15.1276 15.9403 15.0926C16.5166 15.0367 16.9777 14.8667 17.3468 14.4674C17.7965 13.9656 18.1157 13.3496 18.48 12.7703L18.4881 12.757L18.4873 12.7578Z" fill="url(#paint3_linear_1128_3510)"/>
<path d="M13.2637 11.4483C13.5538 10.7665 13.279 10.4814 12.5592 10.4147C12.0345 10.3664 11.4236 10.3647 10.9045 10.4864C10.1203 10.6456 9.74312 11.2216 9.39816 11.9551C9.10962 12.5336 8.77674 13.0979 8.48095 13.6705C8.16419 14.2799 7.93932 14.9384 8.80334 15.0834C9.25872 15.1626 9.80518 15.1068 10.2662 15.0176C11.4389 14.8033 11.8935 14.0707 12.4794 12.942C12.7317 12.4602 13.0493 11.9559 13.2588 11.4608L13.2645 11.4475L13.2637 11.4483Z" fill="url(#paint4_linear_1128_3510)"/>
<path d="M24.8078 14.049C24.5636 15.2068 23.9156 15.2551 22.4422 15.1501C21.9176 15.1143 21.3106 15.1118 20.8005 15.0601C19.9526 14.9784 20.009 14.5833 20.3668 13.9198C20.6489 13.4055 20.96 12.8787 21.2494 12.3644C21.6056 11.7525 21.9039 11.1332 22.4422 10.7665C23.0758 10.3263 24.0784 10.3013 24.6224 10.8965C24.8312 11.1341 24.9376 11.445 24.9787 11.8084L24.9803 11.8226C25.0408 12.5319 24.9561 13.3488 24.8078 14.049Z" fill="url(#paint5_linear_1128_3510)"/>
<path d="M7.05273 10.0263C6.9947 9.90624 6.9673 9.7762 6.9673 9.6395C7.06482 8.66758 7.12447 8.57589 6.47968 7.75818C5.65999 6.8146 4.89511 5.28087 3.63938 5.10249C2.89546 5.00663 2.11445 5.2592 1.42614 5.52426C-0.0472044 6.10525 -0.00771218 7.25138 0.00437763 8.7401C0.00840756 10.0546 -0.00851659 11.3733 0.00599118 12.6645C0.00840914 13.7797 0.0527408 14.8459 1.27784 15.0526L1.29154 15.0559C1.9589 15.1759 2.69879 15.1668 3.37904 15.1851C4.99666 15.2335 5.90743 14.8208 6.62959 13.2813C6.94634 12.5994 7.37674 11.8142 7.49361 11.0824C7.56293 10.6681 7.21312 10.3472 7.05193 10.0254L7.05273 10.0263ZM2.80277 12.8712C2.51342 13.6039 1.64617 13.378 1.54542 12.6378L1.5422 12.6228C1.44226 12.1185 1.82591 11.435 2.37801 11.6233C2.81083 11.7784 2.98089 12.4261 2.80277 12.8712ZM2.7802 8.64591C2.31272 8.93932 1.81221 8.44752 1.77513 7.9574C1.63086 6.83961 2.79874 6.26779 3.14531 7.49728L3.14934 7.51311C3.24445 7.91822 3.13 8.43335 2.7802 8.64591ZM5.77605 12.6069C5.69062 13.4747 4.70812 13.7114 4.49856 12.7703L4.49534 12.7553C4.43247 12.4261 4.51387 12.0243 4.76454 11.8009C5.32228 11.3299 5.876 11.9609 5.77605 12.6069Z" fill="url(#paint6_linear_1128_3510)"/>
<path d="M11.4349 19.7831C11.4349 19.796 11.4349 19.8072 11.4349 19.8072C11.4349 19.8072 11.4349 19.7934 11.4349 19.7805C11.4349 19.7805 11.4349 19.7822 11.4333 19.7831H11.4349ZM11.4349 19.7831C11.4349 19.796 11.4349 19.8072 11.4349 19.8072C11.4349 19.8072 11.4349 19.7934 11.4349 19.7805C11.4349 19.7805 11.4349 19.7822 11.4333 19.7831H11.4349ZM11.4349 19.7831C11.4349 19.796 11.4349 19.8072 11.4349 19.8072C11.4349 19.8072 11.4349 19.7934 11.4349 19.7805C11.4349 19.7805 11.4349 19.7822 11.4333 19.7831H11.4349Z" fill="url(#paint7_linear_1128_3510)"/>
<path d="M22.3246 27.74C23.5763 27.6417 24.0687 27.2324 24.001 25.8637L23.9994 25.8504C23.9551 25.1452 23.627 24.8026 23.1435 24.6467C23.1193 24.6384 23.0943 24.6309 23.0685 24.6251C22.838 24.5609 22.5744 24.5359 22.2915 24.5309C22.0707 24.5159 20.8673 24.6117 20.7779 24.3166C20.7247 24.1324 21.38 23.9924 22.169 24.0057C22.6558 24.0032 23.1499 24.0341 23.5481 23.7498C24.0905 23.2864 24.0663 22.5078 24.0099 21.791C23.8116 19.9347 22.2472 20.4656 21.0576 20.1022C20.9681 20.0514 21.0817 20.0039 21.3614 19.9772C21.9651 19.9013 22.8831 20.0297 23.4441 19.6954C24.0929 19.297 23.7883 18.6127 23.1717 18.4126C22.7324 18.2392 21.7177 18.3634 21.7096 18.1009C21.7064 17.975 21.9175 17.8183 22.3689 17.7658C22.7929 17.7158 23.1942 17.7774 23.4691 17.6482C23.9333 17.4665 23.9954 16.8855 23.5835 16.548C23.191 16.1979 22.4689 16.2145 21.9321 16.2029C21.0116 16.2062 19.9969 16.1945 19.1192 16.182C13.6804 16.222 8.25447 16.1562 2.61739 16.2379C1.97825 16.222 1.22948 16.3112 1.02476 16.9864C0.877266 17.4124 0.991716 17.9908 1.26092 18.3601C1.92908 19.2112 3.17272 18.6585 3.29039 19.0861C3.36857 19.4871 2.89868 19.2895 1.93069 19.4512C0.939326 19.5654 0.745086 20.7574 1.68084 21.1575C2.44008 21.4134 2.60288 21.2308 3.39759 21.4342C3.75303 21.5251 4.30754 21.7351 2.99298 21.7601C2.33691 21.8077 1.49062 21.7743 1.1102 22.4087C0.859534 22.8504 0.901443 23.5039 1.22867 23.8874C1.49707 24.2025 1.97905 24.3133 2.3764 24.3867C2.6327 24.4383 2.88337 24.4942 2.72056 24.5867C2.3627 24.7076 1.50513 24.7809 1.20852 25.2777C0.879682 25.672 0.763623 27.3716 1.2722 27.5483C1.61636 27.675 2.02821 27.6417 2.3893 27.7C2.50536 27.7242 2.78826 27.7467 2.82856 27.8251C2.84549 27.8642 2.79713 27.8859 2.76328 27.9017C2.58112 27.9926 1.91457 28.0226 1.53979 28.2627C1.02396 28.5577 1.01348 29.2629 1.31008 29.7397C1.99194 30.9167 3.50559 30.8817 4.68314 30.8734C6.1863 30.8467 7.81037 30.9959 9.28129 30.9217C10.3097 30.8492 11.2205 30.7692 12.2264 30.8767C15.1666 31.1393 18.6428 30.9167 21.687 30.8125C22.1481 30.7625 22.5994 30.6458 22.9774 30.4032C23.9696 29.7514 24.2847 28.3994 22.7324 28.2285C22.2166 28.1601 21.0987 28.2485 21.0592 28.0876C21.0221 27.9376 21.7918 27.7934 22.3246 27.74ZM12.3239 27.5575C12.0885 27.5575 11.8185 27.5567 11.6017 27.6192C11.0408 27.7475 11.1343 28.3902 10.8175 28.7586C10.4991 29.1396 9.781 29.0145 9.32723 28.8437C8.4745 28.5177 7.7072 28.1301 6.87381 28.6644C6.45953 28.9095 6.03236 29.3204 5.60196 29.4913C4.99102 29.7264 4.84756 29.3004 5.12401 28.8028C5.28521 28.4911 5.50363 28.2252 5.70835 27.9401C6.37974 27.0957 6.29914 26.3472 6.24353 25.2861C6.22499 24.6217 6.27818 23.6932 6.9536 23.4056C7.17767 23.3072 7.42994 23.2597 7.60725 23.0713C7.97398 22.6437 7.98446 22.0952 8.1513 21.4692C8.29879 20.7924 8.5551 20.0889 9.05803 19.6138C9.29902 19.3929 9.57951 19.2103 9.88981 19.3037C10.2396 19.4412 10.3807 19.9005 10.5821 20.1856C10.6805 20.3281 10.8135 20.4731 10.9851 20.4048C11.127 20.359 11.2891 20.0815 11.4349 19.7831L11.4349 19.758C11.4349 19.758 11.4349 19.7713 11.4349 19.7805C11.5228 19.5996 11.6074 19.4112 11.6767 19.2612C11.9749 18.5551 12.7092 17.414 13.4265 18.2192L13.4337 18.2276C13.6965 18.5101 13.8915 19.107 14.3582 18.9894C14.6798 18.9044 15.1199 18.4268 15.5777 18.1826C16.129 17.865 16.8656 17.9108 17.3452 18.3476C18.2721 19.2353 17.67 20.3456 16.964 21.1125C16.3546 21.786 16.7858 21.8118 17.1461 22.4895C17.4854 23.1405 17.2493 24.0099 16.6327 24.3908C16.2015 24.6892 15.5575 24.7501 15.0409 24.8326C14.8402 24.8743 14.6201 24.9026 14.467 25.041C14.1922 25.3144 14.6879 25.9404 14.7515 26.288C14.9748 26.9723 14.4203 27.3391 13.8561 27.455C13.3685 27.5667 12.8349 27.5642 12.3239 27.5575Z" fill="url(#paint8_linear_1128_3510)"/>
<path d="M12.6253 22.3803C12.1095 22.2536 12.7083 20.9641 12.286 21.5834C11.8435 22.2428 10.5257 24.3333 9.94381 23.7582C9.81646 23.5973 9.78261 23.3064 9.75843 23.0897C9.73587 22.9855 9.74151 22.5487 9.64479 22.6445C9.58031 22.7129 9.23938 23.0313 9.29983 23.5173C9.36834 24.0749 9.62303 24.7109 9.11364 25.3311C8.87668 25.6203 7.75072 26.4897 7.56696 26.7623C7.43397 26.9615 7.36304 27.1332 7.67254 27.0082C7.94658 26.909 8.55429 26.6239 9.04191 26.3263C9.3909 26.1129 9.72377 25.857 10.0389 25.8287C10.5161 25.7795 11.0964 26.2688 11.5219 26.1655C11.7597 26.1021 11.6348 25.9754 11.4986 25.8937C11.0811 25.6278 10.1969 25.3711 10.6587 24.7276C11.0528 24.1766 11.725 23.6173 12.5842 23.3964C13.4434 23.1755 14.3832 23.5915 14.5315 23.2272C14.579 23.1113 13.5014 23.1038 13.3451 22.7821C13.0992 22.2028 14.9329 21.0808 15.2948 20.7099C15.402 20.6215 16.0967 20.0147 15.6687 20.1506C15.3689 20.2689 15.0522 20.4765 14.7257 20.6865C14.2421 20.9774 12.6253 22.3803 12.6253 22.3803Z" fill="url(#paint9_linear_1128_3510)"/>
<defs>
<linearGradient id="paint0_linear_1128_3510" x1="12.5" y1="0" x2="12.5" y2="31" gradientUnits="userSpaceOnUse">
<stop stop-color="#F3FF90"/>
<stop offset="0.33" stop-color="#9BEC00"/>
<stop offset="0.66" stop-color="#06D001"/>
<stop offset="1" stop-color="#059212"/>
</linearGradient>
<linearGradient id="paint1_linear_1128_3510" x1="12.5" y1="0" x2="12.5" y2="31" gradientUnits="userSpaceOnUse">
<stop stop-color="#F3FF90"/>
<stop offset="0.33" stop-color="#9BEC00"/>
<stop offset="0.66" stop-color="#06D001"/>
<stop offset="1" stop-color="#059212"/>
</linearGradient>
<linearGradient id="paint2_linear_1128_3510" x1="12.5" y1="0" x2="12.5" y2="31" gradientUnits="userSpaceOnUse">
<stop stop-color="#F3FF90"/>
<stop offset="0.33" stop-color="#9BEC00"/>
<stop offset="0.66" stop-color="#06D001"/>
<stop offset="1" stop-color="#059212"/>
</linearGradient>
<linearGradient id="paint3_linear_1128_3510" x1="12.5" y1="0" x2="12.5" y2="31" gradientUnits="userSpaceOnUse">
<stop stop-color="#F3FF90"/>
<stop offset="0.33" stop-color="#9BEC00"/>
<stop offset="0.66" stop-color="#06D001"/>
<stop offset="1" stop-color="#059212"/>
</linearGradient>
<linearGradient id="paint4_linear_1128_3510" x1="12.5" y1="0" x2="12.5" y2="31" gradientUnits="userSpaceOnUse">
<stop stop-color="#F3FF90"/>
<stop offset="0.33" stop-color="#9BEC00"/>
<stop offset="0.66" stop-color="#06D001"/>
<stop offset="1" stop-color="#059212"/>
</linearGradient>
<linearGradient id="paint5_linear_1128_3510" x1="12.5" y1="0" x2="12.5" y2="31" gradientUnits="userSpaceOnUse">
<stop stop-color="#F3FF90"/>
<stop offset="0.33" stop-color="#9BEC00"/>
<stop offset="0.66" stop-color="#06D001"/>
<stop offset="1" stop-color="#059212"/>
</linearGradient>
<linearGradient id="paint6_linear_1128_3510" x1="12.5" y1="0" x2="12.5" y2="31" gradientUnits="userSpaceOnUse">
<stop stop-color="#F3FF90"/>
<stop offset="0.33" stop-color="#9BEC00"/>
<stop offset="0.66" stop-color="#06D001"/>
<stop offset="1" stop-color="#059212"/>
</linearGradient>
<linearGradient id="paint7_linear_1128_3510" x1="12.5" y1="0" x2="12.5" y2="31" gradientUnits="userSpaceOnUse">
<stop stop-color="#F3FF90"/>
<stop offset="0.33" stop-color="#9BEC00"/>
<stop offset="0.66" stop-color="#06D001"/>
<stop offset="1" stop-color="#059212"/>
</linearGradient>
<linearGradient id="paint8_linear_1128_3510" x1="12.5" y1="0" x2="12.5" y2="31" gradientUnits="userSpaceOnUse">
<stop stop-color="#F3FF90"/>
<stop offset="0.33" stop-color="#9BEC00"/>
<stop offset="0.66" stop-color="#06D001"/>
<stop offset="1" stop-color="#059212"/>
</linearGradient>
<linearGradient id="paint9_linear_1128_3510" x1="12.5" y1="0" x2="12.5" y2="31" gradientUnits="userSpaceOnUse">
<stop stop-color="#F3FF90"/>
<stop offset="0.33" stop-color="#9BEC00"/>
<stop offset="0.66" stop-color="#06D001"/>
<stop offset="1" stop-color="#059212"/>
</linearGradient>
</defs>
</svg>
