<svg width="57" height="41" viewBox="0 0 57 41" fill="none" xmlns="http://www.w3.org/2000/svg">
<path d="M56.1398 35.46C56.1398 37.32 55.8698 39.11 55.3798 40.81C55.2498 40.73 55.0998 40.65 54.9698 40.57C48.4598 33.17 38.7298 28.51 27.6998 28.51C16.6698 28.51 7.16977 33.11 0.659765 40.43C0.229765 38.84 0.00976562 37.17 0.00976562 35.46C0.00976562 28.52 3.69977 22.43 9.24977 19.03C9.25977 19.03 9.25977 19 9.27977 19C9.30977 18.99 9.32977 18.97 9.34977 18.96C11.5198 17.26 14.9398 15.94 19.0798 15.18H19.0898L27.1198 11.13L31.8698 0L40.4298 3.09L34.7598 13.01L39.2398 16.05C39.9398 16.25 40.5998 16.45 41.2398 16.69C41.2498 16.69 41.2698 16.69 41.2798 16.7C49.8098 18.74 56.1298 26.36 56.1298 35.45L56.1398 35.46Z" fill="url(#paint0_linear_414_1707)"/>
<defs>
<linearGradient id="paint0_linear_414_1707" x1="28.0698" y1="66.27" x2="28.0698" y2="25.46" gradientUnits="userSpaceOnUse">
<stop stop-color="#9BEC00"/>
<stop offset="1" stop-color="#059212"/>
</linearGradient>
</defs>
</svg>
