<svg width="119" height="207" viewBox="0 0 119 207" fill="none" xmlns="http://www.w3.org/2000/svg">
<path d="M116.427 103.031L116.387 102.841C112.957 84.2814 97.0568 69.3514 95.4868 50.7314C94.6968 45.7814 92.1168 50.8614 90.4868 52.9014C88.0568 56.0014 82.7068 64.3814 79.9968 61.1914C75.4768 55.3314 81.8668 16.9914 62.8268 2.59139C57.7068 -1.18861 54.3268 -1.4686 56.1368 6.0714C61.3868 31.5114 28.1768 49.8214 28.1968 75.8614C27.8768 79.5214 28.1968 84.9814 25.2068 87.1014C22.6568 88.7814 19.7268 86.4414 18.3168 84.2414C16.5168 81.6914 15.7468 77.8514 14.7668 76.0614C13.8768 74.1114 12.2868 74.6914 11.1168 76.2014C-11.2132 107.951 1.47675 159.461 36.8468 175.791C37.5368 176.131 41.2568 177.741 40.2668 175.921C39.0168 173.581 30.1668 166.041 27.4168 160.071C25.8068 157.071 26.6668 154.191 29.4068 152.331C36.0468 148.161 33.1968 145.301 28.2668 140.861C22.4168 135.921 15.8568 129.981 15.5268 121.771C14.9668 116.051 18.3268 109.451 23.8368 110.131C27.3468 110.411 30.9668 113.111 34.1868 114.061C39.1868 115.511 37.8868 110.181 36.6668 107.431C32.7868 98.9814 28.5468 83.4614 39.3468 82.2214C48.4768 80.9714 47.8868 77.6314 49.8068 69.4114C51.6868 61.2814 60.6568 55.1614 66.1868 64.1514C69.4368 68.5914 69.3568 76.6014 72.1468 79.7214C76.1868 83.9014 84.0368 80.2214 86.8868 86.5414C89.2168 91.3214 87.2168 96.9414 85.2068 101.571C83.2468 106.091 80.7468 111.101 81.5868 113.171C83.3968 116.701 90.3368 111.131 93.3268 110.701C97.9168 109.271 102.637 112.451 103.827 116.931C107.007 127.401 94.0468 137.071 87.6168 145.771C86.0768 148.391 87.5368 149.981 89.5068 151.631C99.9568 159.731 83.8068 168.911 79.3968 175.621C78.3068 177.821 81.0668 176.651 82.7668 175.911C108.747 163.001 123.577 131.671 116.427 103.031ZM28.2268 77.7814C28.2068 77.3714 28.2368 76.4714 28.2668 75.8914C28.2568 76.4714 28.2268 77.3814 28.2268 77.7814Z" fill="url(#paint0_linear_537_2287)"/>
<path d="M88.8068 128.371C88.5268 129.311 86.8768 130.701 85.8368 131.611C77.6068 138.731 66.9968 146.081 64.0668 156.041C63.2468 158.751 61.8968 167.971 64.7868 169.081C66.6168 169.701 72.0668 162.961 74.4668 163.231L74.4868 163.261C74.7168 163.971 73.0868 166.161 72.3468 167.071C66.6968 174.041 63.5568 177.471 63.2668 186.081C62.5068 191.821 77.81 202.23 74 207L44 206.5C39.75 204.2 58.3968 184.991 54.6868 177.131C52.7368 171.711 45.9168 167.131 43.3068 162.491C43.3468 161.531 45.7268 163.071 46.3968 163.381C52.2168 166.431 58.0168 172.891 56.4368 160.431C55.6068 147.521 44.0268 140.211 34.6868 132.401C22.7468 122.831 42.3468 133.461 45.0168 136.101C50.1768 139.661 56.1468 148.241 57.4468 137.661C59.3068 123.011 53.9868 112.461 46.0168 99.9614C45.6468 99.2714 43.2068 95.6614 44.2068 95.8714C46.4268 97.1314 48.7768 100.071 51.1868 102.251C52.0468 103.091 53.6168 104.411 54.3968 104.101C55.3968 103.681 55.5268 102.701 55.8768 101.421C56.3368 99.3214 56.5868 96.5814 56.8668 94.2814C58.5368 81.9714 59.3068 61.9014 60.8068 79.2014C61.2268 83.5814 61.6168 88.3714 61.9568 92.6714C62.4068 95.8514 62.0068 100.711 63.7368 103.441C66.6468 106.991 74.0368 95.7214 76.2068 94.9714C76.8368 94.8414 76.3168 95.8114 75.7268 97.0114C67.3768 111.181 60.3968 118.141 61.9968 135.601C62.2768 140.191 62.3368 146.821 68.2268 141.991C72.4868 138.771 77.7768 133.611 83.3068 130.291C86.1468 128.571 88.4468 127.681 88.7568 128.131C88.8068 128.191 88.8268 128.271 88.8068 128.371Z" fill="url(#paint1_linear_537_2287)"/>
<defs>
<linearGradient id="paint0_linear_537_2287" x1="59.1104" y1="0" x2="59.1104" y2="207" gradientUnits="userSpaceOnUse">
<stop stop-color="#F3FF90"/>
<stop offset="0.33" stop-color="#9BEC00"/>
<stop offset="0.66" stop-color="#06D001"/>
<stop offset="1" stop-color="#059212"/>
</linearGradient>
<linearGradient id="paint1_linear_537_2287" x1="59.1104" y1="0" x2="59.1104" y2="207" gradientUnits="userSpaceOnUse">
<stop stop-color="#F3FF90"/>
<stop offset="0.33" stop-color="#9BEC00"/>
<stop offset="0.66" stop-color="#06D001"/>
<stop offset="1" stop-color="#059212"/>
</linearGradient>
</defs>
</svg>
