<svg width="153" height="55" viewBox="0 0 153 55" fill="none" xmlns="http://www.w3.org/2000/svg">
<path d="M60.7638 44.5155C60.0277 45.477 57.2991 50.1184 60.3888 49.1102C61.6883 48.6416 62.9308 47.9031 63.8674 46.8777C64.9647 45.8384 67.9629 39.8758 64.1439 41.6829C62.7977 42.3054 61.6451 43.305 60.7828 44.4913L60.7638 44.5172V44.5155Z" fill="#F1E61C"/>
<path d="M55.692 34.7281C53.7099 31.79 51.0176 29.2203 47.9469 27.4097C46.5748 26.6436 44.9004 25.7842 43.5784 26.9013C42.984 27.3786 42.507 28.0789 42.0629 28.724C40.8775 30.4273 40.0636 32.4973 39.934 34.5603C39.8095 36.0925 40.0998 37.6021 40.4938 39.0807C40.7842 40.1148 40.8671 41.3149 41.6343 42.0568C42.2063 42.5669 43.0202 42.5911 43.7529 42.6534C45.3237 42.7641 46.9878 43.148 48.5396 42.8626C51.2388 42.4372 53.8897 41.2596 55.7266 39.2104C56.2001 38.6951 56.6321 38.0777 56.6753 37.3635V37.3341C56.7288 36.383 56.1897 35.5062 55.692 34.7281ZM50.5131 37.1318L50.4923 37.1594C49.8097 38.114 48.5915 38.6553 47.4285 38.555C46.2379 38.4408 44.9764 37.303 44.4407 36.0769C43.9793 34.9529 44.2921 33.5971 45.0127 32.6546C45.7125 31.7571 46.9118 31.3732 48.0299 31.5116C50.7654 31.8384 52.0614 34.8993 50.5131 37.1318Z" fill="#F1E61C"/>
<path d="M61.0249 35.8658C59.2381 39.691 58.2842 36.2117 57.002 34.3873C54.8368 31.1535 51.9959 28.3607 48.6953 26.3236C47.5237 25.5662 46.1361 25.165 44.8642 24.5666C42.8407 23.6086 45.0491 21.9658 46.1395 21.3069C48.3877 19.9166 50.8087 20.2797 53.1848 21.3121C55.4295 22.2286 56.8154 23.7487 58.419 20.8833L58.4398 20.8539C58.7612 20.3973 59.0981 19.8785 59.6494 19.7713C60.4961 19.7419 60.5134 20.7881 60.2646 21.5266C59.8948 22.7042 58.6488 23.6985 58.934 25.0145C59.0878 25.7789 59.7496 26.5121 60.2162 27.3577C61.7887 30.2456 62.4609 32.7341 61.0249 35.8658Z" fill="#F1E61C"/>
<path d="M148.474 9.45083C147.861 10.1408 147.716 10.938 148.072 11.6747C148.948 13.3815 149.444 15.3339 149.041 17.2603C148.756 18.8616 148.027 20.38 146.935 21.5265C146.121 22.3704 145.037 23.1053 144.365 21.9035C143.966 21.1685 143.802 20.207 143.537 19.3995C143.232 18.3861 142.844 17.4056 142.373 16.4285C140.176 12.0845 137.861 9.43181 133.712 6.8569L133.682 6.83614C131.099 5.20715 133.095 4.00702 134.975 3.42252C137.702 2.60803 140.648 3.67327 142.957 5.20196C144.325 5.9836 145.438 7.95327 147.199 7.46734C147.925 7.2823 148.709 6.70645 149.513 6.51968C150.6 6.19458 151.855 6.84825 150.794 7.88064C150.137 8.49281 149.122 8.80062 148.474 9.45083Z" fill="#F1E61C"/>
<path d="M141.519 17.9587C140.474 15.2938 138.853 13.0579 136.905 11.038C135.613 9.82753 133.596 7.5172 131.638 8.18297C130.843 8.45447 130.185 9.06318 129.592 9.64596C127.138 11.9165 126.065 15.2316 126.248 18.5034V18.538C126.283 19.1311 126.333 19.7277 126.349 20.3243C126.383 21.2582 126.3 22.2283 126.705 22.8958C127.292 23.8711 128.554 23.9628 129.564 24.1772C130.75 24.3882 131.859 24.8188 133.048 25.0436C135.877 25.5969 139.865 24.3138 141.851 22.2594C142.895 20.9797 142.008 19.2954 141.519 17.9587ZM132.283 20.2413C130.076 19.1294 129.775 15.9008 131.725 14.3946L131.752 14.3738C133.653 12.878 136.826 13.9519 137.259 16.3867C137.902 19.1432 134.794 21.5781 132.283 20.2413Z" fill="#F1E61C"/>
<path d="M16.6328 6.0145C16.2095 6.32058 15.6219 6.53328 15.1208 6.74426C14.1444 7.14891 13.2994 7.60199 12.4527 8.14844C9.82951 9.87082 7.66599 12.1258 5.639 14.4949C4.832 15.472 4.17534 16.5666 3.65174 17.7149C3.3597 18.3392 2.84474 19.2764 2.07576 18.8597L2.0533 18.8476C0.307972 17.6457 -0.267467 15.0933 0.110975 13.0475C0.295876 11.984 0.670863 10.9361 1.17545 9.97976C1.585 9.18602 2.16735 8.45798 2.40064 7.59161C2.77389 6.24103 1.58846 5.34353 1.11324 4.30423C0.916245 3.81484 0.926613 3.28048 1.40528 3.09545C2.76871 2.77553 3.59472 4.8697 5.10849 4.72617C6.12976 4.6449 7.00415 3.90476 7.96149 3.54852C8.81687 3.18191 9.73274 2.91733 10.6382 2.78245C11.8444 2.60779 13.0489 2.68215 14.2326 3.0868C15.2556 3.4292 18.2866 4.80745 16.6328 6.0145Z" fill="#F1E61C"/>
<path d="M19.5327 9.73794C18.7378 8.64157 17.8116 7.48294 16.4585 7.65069L16.4309 7.65414C16.0041 7.70256 15.5807 7.86339 15.1815 8.03632C14.0583 8.53089 12.9005 9.169 11.8861 9.91433C9.5619 11.6004 7.60575 13.743 5.98139 16.1087C5.03096 17.4852 4.64388 18.7285 5.72737 20.048C7.18929 21.8067 9.16445 22.9757 11.4005 23.638C13.1096 24.1378 14.886 23.932 16.6262 23.7971C17.5714 23.7383 18.6151 23.823 19.4532 23.6121C21.1761 23.2403 20.8892 21.1599 21.2245 19.7869C21.5079 18.5625 21.85 17.3555 21.8155 16.0896C21.7619 13.8537 20.7856 11.5969 19.5327 9.73794ZM16.8093 18.2789C14.4765 21.1599 9.90233 18.9032 10.896 15.2613C11.2537 13.4732 13.0629 12.5169 14.7737 12.8161L14.8065 12.8213C15.8313 13.0028 16.8923 13.743 17.2431 14.701C17.6803 15.8493 17.5697 17.2742 16.8093 18.2789Z" fill="#F1E61C"/>
<path d="M49.6162 1.75896C49.5989 1.76242 49.5281 1.76588 49.5592 1.78144C49.5661 1.78144 49.5782 1.78663 49.5851 1.78836C49.5868 1.78663 49.611 1.76588 49.6231 1.75723H49.6162V1.75896ZM43.7961 9.88318C43.7253 9.88318 43.632 9.91431 43.6129 9.92468H43.6147C43.6354 9.91431 43.8134 9.89182 43.8359 9.88491H43.8376C43.8376 9.88491 43.8255 9.88318 43.7961 9.88491V9.88318ZM43.7961 9.88318C43.7253 9.88318 43.632 9.91431 43.6129 9.92468H43.6147C43.6354 9.91431 43.8134 9.89182 43.8359 9.88491H43.8376C43.8376 9.88491 43.8255 9.88318 43.7961 9.88491V9.88318ZM43.7961 9.88318C43.7253 9.88318 43.632 9.91431 43.6129 9.92468H43.6147C43.6354 9.91431 43.8134 9.89182 43.8359 9.88491H43.8376C43.8376 9.88491 43.8255 9.88318 43.7961 9.88491V9.88318Z" fill="#F1E61C"/>
<path d="M58.7679 4.09353C58.0715 3.78918 57.0019 4.26819 56.2277 4.34082C53.9467 4.75067 52.7837 2.15154 50.8449 1.55666C49.4762 1.14855 48.944 3.22716 47.6065 3.02829C47.0241 2.96604 46.4694 2.61845 45.951 2.33657C45.1907 1.89906 44.185 1.43042 43.2846 1.43215C42.5329 1.39757 41.8435 1.91981 41.8694 2.71529C41.8469 3.24445 42.0335 3.91023 41.9644 4.4221C41.7588 5.72945 40.0843 5.26945 39.184 5.0654C37.9502 4.75758 36.5695 4.60195 35.4272 5.24006C34.6254 5.66546 34.3956 6.55086 34.9676 7.28927C35.2406 7.76655 35.9335 8.29571 35.5741 8.84563C35.1749 9.35058 34.3645 9.54772 33.7683 9.80193C32.887 10.134 32.0886 10.5317 31.4752 11.1387C30.2621 12.2333 30.3278 14.1511 32.0057 14.7339L32.0368 14.7442C32.9457 15.0607 33.9376 14.9621 34.8967 14.8497C35.524 14.7667 36.1565 14.6854 36.5487 14.8255C37.532 15.1731 36.6455 16.6897 37.449 17.3416C37.8413 17.6996 38.4323 17.7342 38.9438 17.6183C40.4265 17.1981 41.5687 16.145 42.6055 14.9967C43.0496 14.5177 43.5387 13.8882 44.1677 13.6894C45.1337 13.4577 45.4343 14.7304 46.053 15.2215C46.9861 16.0464 48.4999 15.3599 49.084 14.3534C49.611 13.6098 49.7596 12.4962 50.3852 11.8511C50.8034 11.4517 51.3443 11.6263 51.8402 11.782C53.6961 12.5671 54.1523 10.4072 54.4928 9.04969C54.7312 8.05707 54.9922 7.11807 55.6575 6.36237C56.1603 5.77441 56.8654 5.44411 57.5739 5.16397C57.9834 5.01006 59.2328 4.50165 58.7679 4.09353ZM38.498 7.64031C38.4807 7.64031 38.4599 7.63167 38.4392 7.61956C38.4565 7.62475 38.4755 7.62994 38.498 7.64031ZM53.1967 6.48169L53.1691 6.49379C51.9543 7.01431 50.3092 7.22182 49.5367 8.22135C48.7211 9.26066 48.7712 10.8153 48.3651 12.0016C48.1024 12.7901 47.9227 12.5826 47.9262 11.7681C47.9054 11.0989 48.1094 10.2515 48.0454 9.58058C47.8761 8.04843 45.7039 9.13961 44.7016 9.4578C44.3854 9.56674 44.0986 9.71201 43.8376 9.88321H43.8359C42.5571 10.7219 41.8521 12.2195 41.0002 13.5407C40.6511 14.0577 40.2312 14.72 39.7404 15.0572C39.5832 15.142 39.5987 14.9552 39.7784 14.5558C40.0843 13.8295 40.7807 12.868 40.9725 12.0569C41.2093 10.7063 39.6229 11.2701 38.6431 11.5572C37.43 11.8978 36.2446 12.4062 35.028 12.7158C34.6444 12.8144 33.9912 12.8783 34.5805 12.3959C34.6461 12.3492 34.7118 12.3042 34.7775 12.2627C34.7896 12.2523 34.8017 12.2454 34.8138 12.2385C36.2999 11.2684 38.0988 10.8274 39.7923 10.2412C40.2882 10.0371 41.0745 9.92471 41.3579 9.4699C41.5169 9.19841 40.76 8.77646 40.226 8.543C39.9772 8.41331 38.4824 7.77693 38.9818 7.62821C39.5866 7.55385 40.715 7.87723 41.4426 8.0173C42.0802 8.147 42.7075 8.24038 43.3486 8.26459C44.2835 8.34586 48.239 7.91181 47.5598 6.40214C47.47 5.89892 44.8986 4.0676 45.519 3.84452C46.0582 3.8497 47.0552 4.50684 47.6238 4.86999C48.7159 5.6205 49.9238 6.3347 51.2959 6.10816C52.0286 6.01997 53.1172 5.77268 53.5562 5.83493C54.2508 5.91967 53.5527 6.34334 53.1967 6.47996V6.48169Z" fill="#F1E61C"/>
<path d="M95.926 37.5312C97.578 36.6735 100.336 33.9741 98.3193 32.2863C97.8406 31.9387 97.2134 31.8419 96.6327 31.9024C95.8344 31.9768 95.0844 32.3624 94.3517 32.6391C94.0078 32.7636 93.5775 32.9037 93.2388 32.7947C92.6167 32.5491 92.6254 31.6828 92.2884 31.1744C91.5937 29.9984 89.8795 30.7317 89.0362 31.3629L88.9809 31.4009C88.129 32.0183 87.4015 32.767 86.7034 33.5608C86.2904 34.0052 85.8998 34.4738 85.3088 34.626C83.4356 34.9165 84.526 31.4078 82.2606 31.8107C80.866 32.1307 79.8154 33.2876 78.9859 34.3926C77.9958 35.776 76.9624 37.8045 75.8806 38.9527C75.2965 39.6116 74.4602 39.8381 73.6307 40.0474C73.1071 40.184 72.1118 40.535 72.1325 41.0434C72.3278 41.5518 73.3767 41.4256 73.9504 41.4048C74.5898 41.3668 75.2585 41.3253 75.8806 41.4982C76.8552 41.7473 77.4583 42.6188 78.1081 43.4074C82.6286 49.1763 81.559 43.8397 84.2271 45.3338C84.9149 45.6831 85.6164 46.1327 86.3871 46.3109C87.3445 46.5149 88.1705 46.5184 88.5852 45.7748C88.9222 45.0156 88.4159 44.0956 88.4539 43.3278C88.4988 42.2401 89.8484 42.3266 90.6364 42.4718C91.8098 42.6534 93.0401 42.8955 94.2117 42.6119C95.4577 42.3784 96.5412 41.2285 95.6408 40.0128C95.3574 39.5199 94.5435 39.0444 94.6541 38.4945C94.8373 38.0448 95.5026 37.7854 95.926 37.5312ZM93.5724 36.2792C92.4526 36.9087 91.2706 37.424 90.0696 37.865C88.5939 38.3959 89.1589 38.7227 90.0852 39.098C90.6623 39.3141 91.4918 39.6496 91.9635 39.9505C92.7999 40.4693 92.228 40.4347 91.6335 40.2722C90.0783 39.8295 88.4176 39.3176 86.8122 39.4663C85.7236 39.5389 84.6539 39.8848 83.6465 40.2618C82.4973 40.6613 83.0244 41.5086 83.7363 42.2332C84.7403 43.186 86.0623 44.6767 83.7208 43.122C82.779 42.4908 81.8735 41.5985 80.9006 41.1558C79.9536 40.6699 78.7595 40.7408 77.7659 40.58C77.441 40.4901 77.5084 40.3361 77.7659 40.1131C78.0735 39.8554 78.4658 39.5805 78.7855 39.2657C79.7739 38.4011 80.1679 36.7686 80.7658 35.7691C81.1805 35.1517 81.1512 35.7622 81.044 36.1858C80.9334 36.7064 80.7088 37.4776 80.7105 38.0051C80.7382 39.8796 83.1678 39.0599 84.2876 38.7072C85.1412 38.3993 85.9119 37.9203 86.534 37.258C87.5138 36.2256 88.1688 34.7488 89.3145 33.853C89.9521 33.4709 89.0552 34.8456 88.898 35.1258C87.5052 37.3721 88.3761 37.6419 90.6416 36.6891C91.4866 36.3605 92.3264 36.0164 93.1611 35.6567C93.7659 35.418 95.3885 34.5845 95.4853 34.9044V34.9131C95.1743 35.4059 94.4053 35.795 93.5741 36.2792H93.5724Z" fill="#F1E61C"/>
<path d="M85.1864 16.2177C84.6455 15.6332 83.9975 15.1317 83.3581 14.6682C80.2131 12.4547 76.6049 10.8984 72.7911 10.3225C70.1213 9.89885 69.3886 10.8707 68.7993 13.5062C68.1323 16.2453 67.9077 19.2353 69.3195 21.7946L69.335 21.824C69.9796 23.1055 70.8626 24.0929 71.5573 25.3189C72.6097 27.3301 73.8556 26.8165 75.677 26.2701C78.2708 25.5628 80.5224 24.9852 82.5235 23.0363C83.7089 21.914 84.6835 20.5911 85.4784 19.154C86.0642 18.132 86.0521 17.0789 85.1864 16.2177ZM79.216 19.8959L79.2004 19.9253C78.0997 22.0298 75.0825 22.4725 73.529 20.5997C71.7042 18.6076 72.8844 15.3409 75.5128 14.9017C78.4418 14.2947 80.5535 17.2708 79.216 19.8959Z" fill="#F1E61C"/>
<path d="M89.4718 14.5902C89.2229 16.2157 88.3986 17.5524 86.852 16.0497C84.8561 14.1354 82.5561 12.6534 80.0539 11.4636C78.4105 10.6612 76.7793 10.0041 74.9579 9.61672C73.8779 9.3677 72.7927 9.20688 71.6902 9.17056C71.0249 9.1377 70.1038 9.14635 69.6407 8.69328L69.6234 8.67598C68.8838 7.75081 70.0226 6.28091 70.6913 5.53559C71.7455 4.38388 73.1158 3.56247 74.652 3.24082C75.675 3.01774 76.7464 2.96586 77.7867 3.02293C78.6784 3.07308 79.577 3.27022 80.4565 3.10766C81.8649 2.90706 82.4438 1.20717 83.4737 0.396132C84.2461 -0.248894 85.3365 -0.145136 85.1033 0.996197C84.9581 1.72596 84.3446 2.40211 84.0975 3.13533C83.2802 5.55115 86.833 5.63416 88.6769 10.0214C89.3162 11.4394 89.7033 13.0338 89.4718 14.5902Z" fill="#F1E61C"/>
<path d="M6.1162 31.3905C4.82189 30.0469 -0.225729 27.6293 1.9205 31.6223C2.79317 33.3222 4.29484 34.6209 5.97623 35.508C6.54821 35.7726 8.06544 36.6044 8.46289 35.8573C8.60977 35.5253 8.42833 34.8802 8.13456 34.2335C7.65935 33.1561 6.99232 32.1808 6.14039 31.413L6.11447 31.3888L6.1162 31.3905Z" fill="#F1E61C"/>
<path d="M32.9126 25.3931C32.7346 25.2098 32.3147 25.3758 31.9173 25.7753C31.5457 26.135 31.2105 26.7074 30.8925 27.1812C30.5331 27.7156 30.1253 28.2672 29.6172 28.6598C27.9877 30.0224 26.0004 28.601 24.0426 28.4851C21.9966 28.4367 23.1094 30.1262 22.1573 30.9199L22.1383 30.932C21.7875 31.1638 21.25 31.2053 20.7973 31.2278C19.5583 31.2606 18.2657 31.1499 17.0872 31.4664C14.9876 32.0198 14.7733 33.7698 16.5981 34.9336C17.8268 35.6772 18.6891 36.5125 17.0837 37.4307C16.275 37.8561 15.3159 37.9547 14.4243 38.1397C12.9537 38.4389 11.4762 38.9508 10.4739 40.0731C10.0402 40.5884 9.80519 41.3424 10.2026 41.9338C10.4584 42.3298 10.899 42.5581 11.2965 42.8002C12.4422 43.4106 12.0447 44.2805 11.3069 45.0932C10.1923 46.3988 8.50397 47.8065 8.974 49.6707C9.43711 51.0454 11.0995 51.3429 12.3333 50.6719C12.7947 50.4436 13.2215 50.1462 13.6501 49.8609C16.1558 48.1091 15.5838 50.6633 17.2151 51.355C19.0019 51.7977 20.2046 48.9686 20.7817 47.6024C21.2777 46.4905 21.4419 45.1537 22.2419 44.2113C23.4792 43.0578 23.9925 46.6582 25.9711 46.0668C27.0442 45.7417 27.6507 44.6177 27.9117 43.587C28.3471 42.0497 28.0914 40.3014 28.1933 38.6793C28.4093 36.5298 29.9197 38.0585 31.0619 37.4376C31.8378 36.95 31.8654 35.8156 31.7358 34.9699C31.6615 34.4494 31.5267 33.9393 31.3989 33.4291C30.5089 30.2957 31.4835 29.0143 32.8418 26.3875C33.044 25.9136 33.0595 25.5332 32.9126 25.3931ZM25.5736 36.4243C25.3075 37.4359 25.5511 38.5081 25.7827 39.5042C25.9607 40.2045 26.2389 41.4807 26.0281 42.0255C25.94 42.2088 25.7793 42.0549 25.6134 41.5862C25.3974 40.981 25.1796 40.0489 24.9705 39.352C24.7735 38.7761 24.6629 38.0498 24.1255 37.7316C23.4084 37.4982 22.5634 38.6412 21.8497 39.243C20.0871 40.7907 19.4546 42.041 19.0589 44.3635L19.052 44.398C18.9656 44.8563 18.3556 47.6889 17.9875 47.6007C17.8786 46.717 18.2951 45.1105 18.4247 43.8343C18.4523 43.5126 18.5145 43.1668 18.416 42.8849C18.2018 42.4301 17.2583 43.6873 16.7156 44.1802C15.7669 45.1399 14.7198 45.989 13.7071 46.8778C11.5471 48.6227 13.1092 46.5718 13.8194 45.8939C14.6766 45.005 15.5129 44.1248 16.3683 43.2533C16.9714 42.5719 17.9097 41.8958 17.8665 41.2922C17.5866 40.6732 15.3781 41.2196 14.7474 40.9429C14.2618 40.7441 15.2848 40.4708 15.5924 40.3826C20.0836 39.4211 20.1113 39.5232 23.4481 36.2323C23.7868 35.8623 24.8513 35.0651 24.0218 34.759C23.2511 34.4892 21.4505 34.4546 20.5294 34.2367C19.2421 33.9531 20.6107 33.7439 21.0738 33.7197C21.8963 33.6591 22.7379 33.7058 23.5691 33.7076C24.6076 33.73 25.6911 33.6349 26.5258 33.1127C27.0736 32.7928 27.4883 32.2826 27.9255 31.8347C28.2296 31.5408 28.9364 30.8767 29.1679 31.2693C29.2647 32.7928 25.9089 34.6967 25.5736 36.4243Z" fill="#F1E61C"/>
<path d="M97.2203 11.2837C97.2203 11.2837 97.2099 11.2976 97.1995 11.3114C97.2255 11.2976 97.2496 11.2837 97.2773 11.2716C97.2531 11.2716 97.2341 11.2716 97.2203 11.2837Z" fill="#F1E61C"/>
<path d="M117.712 2.37813C116.873 2.25363 116.058 2.58738 115.263 2.91594C114.853 3.06812 114.35 3.31714 113.929 3.20301C112.994 2.78279 113.842 0.700721 112.463 0.411929C111.625 0.271857 110.751 0.806208 110.124 1.34921C108.885 2.45768 108.154 3.99502 107.367 5.4044C107.067 5.91972 106.725 6.46791 106.189 6.74806C105.458 7.11121 105.071 6.40911 104.748 5.8177C104.081 4.38238 102.629 4.20081 101.732 5.53928C100.854 6.91753 100.664 8.59667 100.115 10.1392C99.2387 12.9994 96.918 9.96281 96.3062 12.7573C95.9243 15.5346 97.5867 18.03 95.2452 20.4095C94.8512 20.8919 94.2084 21.5214 94.2602 22.0454L94.2637 22.0575C94.4693 22.5936 95.3714 21.9762 95.7446 21.7324C96.8056 20.9248 97.8995 20.3265 99.2698 20.7138C100.388 20.9127 101.57 21.9693 102.659 21.3485C103.142 20.9715 103.153 20.2279 103.447 19.7264C103.906 18.9119 105.076 19.1021 105.887 19.1955C107.426 19.3788 109.896 19.8717 110.359 18.0697C110.511 17.193 109.669 16.4286 109.472 15.6401C109.22 14.2999 111.031 14.286 111.954 14.2497C113.436 14.203 114.922 14.0197 116.156 13.1758C117.181 12.5222 117.67 11.3272 116.632 10.4159C116.336 10.1444 115.963 9.91612 115.702 9.68958C115.021 9.17252 115.327 8.6105 115.882 8.12457C117.02 7.16309 118.456 6.4022 119.241 5.10177C120.058 3.84457 119.077 2.53377 117.712 2.37813ZM114.473 6.00792C114.095 6.57513 112.807 7.483 112.056 8.05713C109.763 9.73108 108.204 10.7548 112.073 11.0592C112.279 11.0955 113.087 11.1941 112.845 11.3877C112.23 11.6471 111.138 11.6108 110.196 11.6368C109.239 11.6523 108.273 11.7647 107.38 12.121C106.517 12.4582 105.726 13.0098 104.993 13.5857C104.433 14.0232 103.88 14.4866 103.628 14.8757C103.047 15.7456 104.158 16.0568 104.879 16.2972C105.392 16.4649 105.983 16.6638 106.403 16.9076C106.704 17.0719 106.799 17.2535 106.398 17.2466C105.356 17.2137 103.704 16.6068 102.472 16.7537C101.207 16.8316 100.115 17.6997 99.097 18.3274C98.6218 18.6058 98.0654 18.8012 98.3505 18.2236C98.5631 17.8622 98.8309 17.5855 99.1402 17.2691L99.1644 17.2449C101.483 15.2129 101.528 14.3777 101.943 11.4033C102.087 10.5871 102.292 9.68958 102.462 9.29876C102.505 9.20711 102.55 9.0705 102.646 9.05666C102.738 9.10508 102.728 9.22094 102.75 9.35064C102.781 9.68785 102.755 10.07 102.735 10.4591C102.748 11.1422 102.258 13.5649 103.358 13.3194C104.155 13.0565 104.817 12.3233 105.489 11.8149C106.548 10.9381 107.63 10.1098 108.347 8.96501C109.12 7.80465 109.426 6.22581 110.132 5.08275C110.264 4.87869 110.749 4.10397 110.936 4.42216C110.924 5.31274 110.279 6.32438 110.039 7.15963C109.4 9.10854 111.803 7.16654 112.482 6.82241C112.737 6.67197 114.665 5.47875 114.473 6.00792Z" fill="#F1E61C"/>
<path d="M123.131 34.797C122.986 35.5476 121.89 35.8467 121.194 36.1061C120.425 36.3811 119.68 36.6993 118.972 37.0209C116.516 38.1277 114.389 39.7688 112.521 41.645C111.499 42.7501 110.527 43.9156 109.609 45.114C109.234 45.6207 108.88 46.1429 108.544 46.6686C108.119 47.2946 107.563 48.4533 106.695 48.0538C106.12 47.7719 105.607 46.7084 105.37 46.0011C104.47 43.4556 105.043 40.7147 106.405 38.3663C107.108 37.0417 108.925 35.5908 107.755 34.0344C107.262 33.1802 105.275 32.0146 106.072 30.977C107.349 30.2144 108.698 32.0648 109.78 32.6147C112.419 34.2247 115.075 30.2715 119.429 31.6446L119.466 31.6532C120.596 31.9766 121.662 32.5732 122.44 33.3911C122.791 33.7681 123.212 34.261 123.131 34.797Z" fill="#F1E61C"/>
<path d="M113.066 25.7561C110.836 26.9078 115.256 28.4814 116.194 28.6976C117.295 28.9795 118.496 29.0469 119.659 28.7996C121.938 28.2947 121.181 26.8922 119.573 26.0656C117.604 24.9433 115.194 24.8015 113.096 25.7405L113.066 25.7561Z" fill="#F1E61C"/>
<path d="M126.633 44.5242C126.258 42.3678 125.28 39.3675 123.537 38.0999C121.992 37.0986 120.105 37.9754 118.594 38.6757L118.562 38.6913C116.089 39.8776 113.967 41.5498 112.168 43.6181C111.382 44.5294 110.676 45.4148 110.165 46.4558C109.562 47.5799 109.907 48.8111 110.801 49.6827C112.525 51.2771 114.38 52.8335 116.742 53.4612C118.316 53.9039 119.961 53.7863 121.568 53.8019C123.376 53.9039 124.893 54.21 125.432 52.1158C125.714 50.8137 126.186 49.4821 126.554 48.2007C126.848 47.0265 126.832 45.8039 126.633 44.5242ZM120.939 49.0861C117.571 51.118 114.293 47.5176 116.184 44.2475L116.201 44.2199C117.323 42.3401 120.2 42.2139 121.606 43.836C123.11 45.3698 122.837 48.0087 120.939 49.0861Z" fill="#F1E61C"/>
<path d="M152.184 37.2701C151.847 36.5455 150.94 36.3622 150.247 36.1633C149.882 36.0509 149.601 35.9057 149.449 35.6687L149.437 35.6515C149.051 34.8836 149.578 34.1072 149.831 33.1665C150.015 32.5647 150.14 31.9352 150.126 31.304C150.162 29.6439 148.965 28.3659 147.401 29.5177C146.57 30.0728 146 31.2366 145.225 31.6257C144.821 31.8263 144.375 31.7104 143.95 31.6343C143.129 31.4078 142.485 31.9162 142.137 32.6684C141.757 33.431 141.629 34.3545 141.491 35.2295C141.33 36.1322 141.081 37.5485 140.197 37.2735C139.405 36.9363 138.79 35.9351 137.895 35.8071C136.848 35.6186 136.352 36.8066 136.302 37.6799C136.177 38.9665 136.502 40.2151 136.822 41.4429C137.045 42.3663 137.501 43.959 136.359 44.1319C135.588 44.2184 134.458 43.8414 134.161 44.8409C133.799 46.6446 135.267 48.4897 135.153 50.2813C135.144 51.4849 134.387 52.4965 133.549 53.2954C133.288 53.5531 133.029 53.8142 132.854 54.0719C132.341 54.7861 132.579 55.2893 133.457 54.8137C134.349 54.3226 135.056 53.311 135.977 52.8285C136.592 52.4844 137.304 52.3979 138.004 52.4757C139.583 52.6072 142.879 54.0736 142.533 51.2912C142.281 49.6224 143.732 49.3717 145.004 49.0172C146.584 48.571 148.339 48.0211 149.267 46.6117C149.967 45.4583 149.471 44.502 148.192 44.1077C147.221 43.7912 146.499 43.1739 147.482 42.3438C148.514 41.5483 149.9 41.2717 150.909 40.4191C151.802 39.7049 152.708 38.4304 152.184 37.2701ZM148.381 38.6829C145.179 40.5782 144.401 40.0611 142.125 43.703C141.799 44.3204 140.259 46.0359 141.361 46.4457C142.028 46.6809 143.126 46.5235 143.836 46.6705C145.11 46.9351 142.638 47.2758 142.056 47.3743C140.554 47.5646 139.331 48.2442 138.413 49.4547C138.089 49.804 137.447 50.6859 137.098 50.5095C136.95 50.2277 137.257 49.657 137.428 49.2904C139.262 46.124 140.292 45.4808 139.051 41.64C138.961 41.2734 138.505 39.8312 138.79 39.8554L138.797 39.8588C139.583 40.4451 139.832 43.1445 140.767 43.1877C141.356 43.0494 141.6 42.4925 141.996 41.9634C142.87 40.7598 143.449 39.3124 143.326 37.801C143.309 37.3375 143.122 35.1949 143.532 35.6912C144.066 36.8568 144.289 38.465 145.462 36.4504C145.968 35.5806 146.435 34.4254 147.145 33.7371C147.681 33.2858 147.532 34.102 147.152 34.9252C146.915 35.4491 146.646 35.9645 146.373 36.4729C146.02 37.1283 145.59 37.8494 145.417 38.3388C145.348 38.5307 145.322 38.6846 145.346 38.7901C145.507 39.423 147.633 38.401 148.172 38.3872C148.597 38.299 148.839 38.3664 148.381 38.6829Z" fill="#F1E61C"/>
</svg>
