<svg width="86" height="126" viewBox="0 0 86 126" fill="none" xmlns="http://www.w3.org/2000/svg">
<path d="M81.105 61.7428C79.891 55.1279 76.7452 54.3423 70.9619 52.6009C66.1751 51.2595 61.1016 50.3078 56.2232 49.6699C54.2975 49.4114 52.382 49.1489 50.4502 48.9232C40.3844 47.6679 29.9425 49.194 20.0638 51.2738C16.0152 52.2092 11.3808 52.8019 7.86699 55.0151C5.47358 56.576 4.406 59.0148 3.85289 61.9213C2.64907 68.3044 2.54943 75.8362 3.67191 82.2275C5.19499 93.0985 10.6407 103.188 18.4248 110.798C22.6952 115.021 27.8521 118.436 33.0273 121.474C35.2987 122.783 37.4216 124.327 39.7866 125.439C43.0686 126.981 46.2287 125.031 49.0349 123.365C52.6524 121.218 56.1948 118.924 59.5765 116.43C65.3678 111.942 70.8481 106.858 74.671 100.54C81.6865 89.2937 83.3255 74.6281 81.1172 61.7798L81.109 61.7408L81.105 61.7428ZM62.9541 70.1484C63.6821 73.4035 62.9175 77.3561 60.2943 79.5405C59.548 80.1477 58.6655 80.5661 57.7585 80.7363C55.5075 81.1896 53.1608 79.9549 52.018 77.9858C50.137 74.7655 50.2611 69.0859 52.7155 66.2082C53.9722 64.7334 56.0057 63.9191 57.9151 64.2862C60.6623 64.8031 62.3664 67.4552 62.9459 70.1053L62.9541 70.1463V70.1484ZM16.9831 60.7644C16.312 60.3768 16.8672 59.2794 17.2617 58.6764C18.7868 56.3648 21.41 54.9843 24.0861 54.531C26.9411 54.09 30.1011 54.2582 32.5515 55.8622C33.3892 56.4673 34.4914 57.6836 33.9281 58.6579C32.9134 59.7799 30.5973 58.8569 29.247 58.7092C27.7972 58.461 26.3331 58.4569 24.8852 58.66C23.4231 58.8528 21.9529 59.3061 20.5458 59.8948C19.5189 60.2742 17.9632 61.148 16.9973 60.7726L16.9811 60.7644H16.9831ZM31.3619 78.5252C29.4219 81.0666 25.9528 81.3537 23.6814 79.0995C20.7186 76.1172 20.4949 70.6796 22.6931 67.1947C25.0357 63.5027 30.4285 63.6976 32.2261 67.808C33.5987 70.9873 33.5458 75.67 31.3863 78.4924L31.3619 78.5232V78.5252ZM64.5341 89.6219C63.861 90.549 62.4315 91.0966 61.4554 92.4319C61.2053 92.7621 60.9897 93.1088 60.7762 93.4739C59.0173 96.8357 56.6543 99.8386 53.6854 102.193C50.4014 104.854 46.3486 106.529 42.1149 106.636C36.6774 106.948 31.3639 104.845 27.2115 101.354C23.9254 98.7063 21.7882 95.244 20.5539 91.1458C19.1549 86.7421 22.018 86.1965 25.6071 87.2507C27.5633 87.7984 29.5053 88.4753 31.4778 88.9716C37.9524 90.7049 44.7056 90.6474 51.1985 89.2342C52.9554 88.824 54.7917 88.3625 56.3717 87.4989C58.2588 86.4426 58.6228 84.3361 60.8311 84.4981C62.9581 84.654 65.8925 87.6056 64.5463 89.6013L64.5321 89.6219H64.5341ZM67.7145 60.7521C66.5574 60.7993 64.9205 59.8907 63.7288 59.4845C61.5937 58.6846 59.3202 58.342 57.0488 58.6169C55.5969 58.6231 51.0277 60.5593 50.9626 58.1492C51.3347 55.694 54.3036 54.5413 56.51 54.2829C60.1133 53.8685 63.9383 54.8674 66.5716 57.456C67.1776 58.0098 69.2355 60.4506 67.7328 60.7501H67.7104L67.7145 60.7521Z" fill="white"/>
<path d="M46.1372 97.568C42.7209 96.7352 39.1338 96.8521 35.7644 97.8469C33.6678 98.4622 28.9115 99.8057 32.6633 101.613C37.7694 103.836 44.0508 104.136 49.1304 101.82C53.3133 99.7524 48.555 98.1177 46.1819 97.5782L46.1372 97.568Z" fill="white"/>
<path d="M85.9589 44.7676C85.6132 36.8708 80.6027 30.1882 74.0772 26.2192C71.0514 24.2912 67.684 22.9231 64.2677 21.8606C60.3655 20.554 56.2537 19.6782 52.2091 18.868C49.0023 18.1378 48.9047 16.3656 50.2692 13.7094C51.2392 11.81 52.4084 9.97014 53.598 8.20206C54.4643 6.83806 55.6518 5.33048 55.1923 3.6547C54.5151 1.36563 49.7954 -0.486542 47.4711 0.11444C43.0951 1.09078 41.9055 10.0871 41.21 13.9042C40.7871 16.5707 39.7846 18.2588 37.0048 18.5931C32.5027 18.9192 28.0636 19.7356 23.7485 21.0811C15.216 23.6451 6.54727 28.3606 2.23831 36.4872C0.654231 39.4491 -0.122559 42.7903 0.0157182 46.1604C0.0787562 47.5121 0.312601 48.833 0.912479 49.7437C1.91905 51.3128 3.87527 51.4379 5.60983 51.038C7.63315 50.5826 9.88219 49.9242 11.0636 48.0782C12.1109 46.468 12.2492 44.5912 12.8877 42.6632C13.5974 40.4726 14.6324 38.4584 15.8688 36.518C17.6928 33.5541 21.9062 29.2241 18.9271 36.2124C18.1097 38.2799 15.5658 44.7164 16.9689 46.4783C17.3715 46.9357 18.1076 47.0177 19.0776 46.8762C19.889 46.7593 20.8528 46.505 21.8106 46.3286C23.3662 46.0311 24.9422 45.746 26.5405 45.5204C37.1593 44.0846 47.4305 44.4518 57.9375 45.6742C59.7595 45.8958 61.5876 46.1604 63.3811 46.5275C64.951 46.7511 67.7429 47.8895 68.8797 47.0916C70.4942 46.0127 68.3469 39.4552 67.9748 37.7158C66.7099 32.6044 70.7017 38.1281 71.3707 39.5229C71.934 40.532 72.4281 41.5904 72.8246 42.6796C73.3899 44.1933 73.6807 45.8527 74.2867 47.1654C74.8235 48.4002 75.7549 49.4176 76.9628 50.0144C77.5972 50.3406 78.3028 50.5765 78.9983 50.7529C84.2874 52.1681 86.3148 49.9939 85.9609 44.8107V44.7697L85.9589 44.7676Z" fill="white"/>
</svg>
