<svg width="88" height="126" viewBox="0 0 88 126" fill="none" xmlns="http://www.w3.org/2000/svg">
<path d="M59.0325 73.2241C59.0138 73.3445 59.0221 73.3262 59.0325 73.2241V73.2241Z" fill="white"/>
<path d="M81.922 57.3708C79.9882 54.3112 75.9008 53.8478 72.606 53.064C66.0475 51.6251 59.6093 50.3636 53.1815 48.6063C51.3183 48.0776 49.5423 47.2509 47.6604 46.8958C45.6748 46.4692 43.7307 46.9223 41.8281 47.4938C36.0248 49.1145 30.0223 50.1555 24.0593 51.076C19.0465 51.9659 10.1206 52.2517 6.80919 56.1951C5.07049 58.2832 4.56215 61.3306 4.06627 63.982C2.35247 75.0203 4.03722 86.7404 8.99605 96.801C11.7535 102.377 15.7392 107.392 20.3453 111.558C24.0281 114.949 28.2691 117.749 32.5702 120.382C34.589 121.617 36.5912 122.795 38.5457 123.987C39.6868 124.66 40.8467 125.385 42.1227 125.758C44.9548 126.64 47.6459 124.928 49.9966 123.544C53.8019 121.319 57.5988 118.923 61.2152 116.296C72.8944 108.166 80.7538 97.3154 83.1814 83.3195C84.3599 76.7593 85.1172 63.1369 81.9406 57.3994L81.922 57.3688V57.3708ZM53.1068 57.1279C55.4514 53.1069 62.8024 53.5253 66.4085 55.7012C67.4853 56.3115 69.6162 58.026 69.2033 59.3262C68.4584 60.4488 65.0827 58.673 63.8751 58.4465C61.958 57.9035 59.9454 57.6668 57.966 57.9607C56.6734 58.0872 52.3246 59.4487 53.0964 57.1524L53.1068 57.1259V57.1279ZM20.3267 58.3424C22.8019 53.8723 29.5825 52.4517 33.9645 54.9439C34.9832 55.5767 36.4792 57.081 35.948 58.2668C35.1347 59.4262 31.8419 57.9505 30.4808 57.9219C27.8437 57.5729 25.134 58.1199 22.7438 59.218C21.5176 59.7446 19.1648 60.5937 20.3101 58.375L20.3267 58.3444V58.3424ZM28.0554 76.4879C28.0118 74.6325 28.3251 72.7281 29.2505 71.0952C29.9455 69.8461 31.095 68.7623 31.5535 67.8723C31.9519 67.2151 31.8689 66.4313 31.122 66.0557C29.4849 65.2087 26.8727 65.4067 25.2523 66.4293C20.7147 69.2623 21.8475 76.1776 23.1795 80.6946C23.8912 83.1664 23.1215 83.7359 21.472 81.6213C20.7976 80.7252 20.2623 79.6577 19.8702 78.6004C19.1876 76.9043 19.227 75.2897 18.3099 73.8997C17.1231 72.3322 14.7993 72.3913 13.459 70.9197C12.5108 69.9992 11.2763 68.005 13.2183 68.1622C14.1997 68.2622 15.6417 68.8439 16.7206 68.7847C17.4779 68.7684 18.6627 68.5071 18.3826 67.5764C18.0589 66.6864 17.1128 66.019 16.2808 64.9617C15.6853 64.2881 14.6084 62.0164 16.1832 61.9817C17.6771 62.1633 19.2851 63.4002 21.0134 63.3145C23.1443 63.3186 25.1548 62.1409 27.2545 61.8265C30.3833 61.3081 33.6242 62.6165 35.7613 64.876C38.2324 67.4192 39.0561 70.9993 38.9835 74.4815C38.9129 76.992 38.4751 79.6496 37.0373 81.7641C35.7634 83.7297 33.2549 84.6503 31.1842 83.3215C28.9496 81.8601 28.1716 79.1229 28.0616 76.5266V76.4838L28.0554 76.4879ZM58.1652 94.3619C56.4473 95.6356 54.6484 97.1133 52.7022 98.1257C49.2331 99.8566 45.2017 100.442 41.3695 99.9403C38.7428 99.5749 36.1783 98.5931 33.9188 97.2113C32.7901 96.5173 31.5183 95.9029 30.4871 95.1783C28.3459 93.7965 28.9745 92.1391 30.7796 90.7471C33.4603 88.7162 34.4541 91.8819 36.5331 92.9882C39.942 94.7232 44.0668 95.0334 47.789 94.3374C49.3472 94.0088 50.9926 93.5148 52.1835 92.4514C52.8163 91.9003 53.3454 91.1941 53.9409 90.6246C54.7065 89.8714 55.7024 89.4081 56.8228 89.5469C59.8085 90.047 61.0098 92.0554 58.1901 94.3394L58.1611 94.3639L58.1652 94.3619ZM76.7598 69.0398C76.4818 70.1767 74.8364 71.6933 73.5189 72.1505C72.0624 72.7383 70.4254 73.2731 69.9378 74.8897C69.5269 76.0102 69.3962 77.7636 68.9045 79.1495C68.2447 81.3314 66.5434 83.5522 64.0805 83.7093C62.2256 83.844 60.5865 82.55 59.6902 81.0314C58.1092 78.4106 58.1071 75.153 58.9599 72.2505C59.1985 71.4239 59.5512 70.6033 59.9309 69.8481C60.3749 68.8521 61.126 67.7662 60.7588 66.7273C60.3459 65.9129 59.4454 65.8108 58.4578 65.8292C56.9245 65.8924 55.3829 66.6334 54.2936 67.7131C51.81 70.1502 51.6358 73.8569 52.0984 77.239C52.3101 78.978 53.14 80.6803 53.5653 82.3275C54.1089 84.9197 51.8142 82.701 51.144 81.3539C48.7849 76.9573 49.3431 71.4422 51.3411 67.013C53.111 63.0655 57.5614 60.3876 61.9248 61.4326C64.5743 62.0184 67.1741 64.0575 69.9544 63.1022C70.7719 62.841 71.5893 62.3062 72.33 61.9572C73.3944 61.4163 74.0895 61.6388 73.6911 63.1982C73.4899 63.9881 72.9587 64.8923 72.3238 65.4903C71.7263 66.2027 69.3838 67.5417 70.2407 68.4908C70.7843 68.9868 71.7159 69.0398 72.4462 68.997C73.467 69.0827 77.2432 67.1457 76.7639 69.0154L76.7577 69.0378L76.7598 69.0398Z" fill="white"/>
<path d="M87.6298 48.6001C86.9202 50.7596 84.6545 51.1719 82.5465 50.8004C80.316 50.3718 77.7121 49.9677 76.5336 47.8327C75.2576 45.6038 75.0439 42.7789 73.7326 40.4826C72.9795 39.0457 71.9234 37.376 70.8549 36.2289C70.4606 35.8105 70.1121 35.5268 69.8589 35.4288C68.5829 34.9839 70.2407 39.1089 70.3382 39.8152C70.5104 40.4724 70.6598 41.1358 70.7885 41.8053C71.1142 43.8892 72.0935 47.553 69.3029 47.5428C68.0144 47.5122 66.3463 47.0407 64.9644 46.8325C62.9664 46.4855 60.9289 46.259 58.9163 45.9793C57.4287 45.7691 55.8559 45.5303 55.0219 45.1466C54.8185 45.0568 54.6152 44.9363 54.472 44.7873C53.6691 43.8994 55.385 42.4809 55.9638 41.7359C56.4722 41.1746 56.9701 40.5683 57.4224 39.9295C58.2171 38.8089 58.9288 37.6251 59.489 36.3922C61.1198 32.6794 59.3479 33.5469 57.2295 35.2349C54.4036 37.423 51.3972 39.3682 48.1604 40.9133C45.1021 42.3237 42.1953 43.2136 39.0914 44.2383C34.8712 45.5548 29.4932 46.3467 25.0448 47.0101C23.4721 47.2244 21.9035 47.4673 20.3412 47.6204C18.7685 47.7878 17.0194 47.5285 16.8659 45.7038C16.7953 44.9914 16.9281 44.2689 17.0962 43.5647C17.7352 41.0582 18.5755 38.5701 19.3992 36.1208C20.2042 33.7796 22.3828 29.5586 18.7145 33.5877C16.2849 36.531 13.9362 39.9764 13.0565 43.6627C12.8034 44.7118 12.683 45.8324 12.378 46.8591C11.5917 50.0126 8.50017 50.9045 5.4481 51.223C-0.309532 51.8516 -0.469294 46.5284 0.373085 42.2502C1.11172 38.4558 2.96661 34.9532 5.56222 32.1569C9.22428 28.0053 14.1146 25.1702 19.2187 23.0393C24.5303 20.6042 30.2858 19.1203 36.1244 18.8366C39.7927 18.6835 41.0521 17.4589 41.5687 13.9379C42.2015 10.3823 43.0398 6.81853 44.4797 3.49151C45.5337 1.06463 47.372 -0.511111 50.2124 0.152251C52.4138 0.719681 56.4099 2.1505 56.0033 4.94274C55.6194 7.09408 53.7728 8.89638 52.6898 10.762C51.8847 12.0397 51.0839 13.4052 50.478 14.7727C49.924 15.9607 49.6771 17.5487 50.812 18.2794C51.559 18.8427 53.0072 19.0917 54.0861 19.2571C55.2833 19.4428 56.4825 19.6388 57.6735 19.8633C67.3505 21.8922 77.8947 25.2906 83.8163 33.5796C86.2127 36.9025 87.7813 40.6847 87.9742 44.8077C88.0344 46.1243 88.0136 47.4979 87.6423 48.5675L87.6298 48.6022V48.6001Z" fill="white"/>
</svg>
