<svg width="30" height="28" viewBox="0 0 30 28" fill="none" xmlns="http://www.w3.org/2000/svg">
<path d="M26.5937 23.1882C26.5698 25.5059 26.5262 27.4714 25.5837 27.9467C25.5681 27.9542 25.5508 27.9609 25.5335 27.9643C25.0578 28.0605 24.8643 27.597 24.7573 27.1091C24.7549 27.0991 24.754 27.0891 24.7532 27.079C24.745 26.9652 24.7368 26.8523 24.7293 26.7385C24.7228 26.6347 24.638 26.5544 24.5359 26.5544H24.4067C24.3022 26.5544 24.2182 26.6381 24.2133 26.7443C24.1984 27.0681 24.1507 27.3953 23.9828 27.617L23.9762 27.6254C23.3432 28.3575 21.8312 27.971 21.8485 26.8615C21.8493 26.8263 21.8501 26.7912 21.851 26.756C21.8534 26.6456 21.7662 26.5544 21.6575 26.5544H21.5333C21.4353 26.5544 21.3538 26.6288 21.3415 26.7276C21.3094 26.9803 21.2501 27.2087 21.1456 27.3869C20.9357 27.7551 20.4986 27.9576 20.0632 27.9174C19.1347 27.8338 18.9726 26.9443 18.9948 26.1394C19.0607 21.9624 20.278 15.5069 14.9106 14.9999C9.81975 14.7455 10.8256 22.8434 10.819 26.2565C10.833 26.7995 10.8058 27.4346 10.3103 27.7492C9.90617 28.0044 9.30284 27.9936 8.92751 27.689C8.6847 27.4873 8.5637 27.1359 8.50855 26.7259C8.49538 26.628 8.4139 26.5544 8.31677 26.5544C8.22376 26.5544 8.1431 26.6222 8.12664 26.7159C8.05667 27.1041 7.93074 27.4229 7.71179 27.6062C7.19736 28.0312 6.3578 27.8438 6.0088 27.2848C5.89604 27.1225 5.82361 26.9234 5.77834 26.7117C5.75858 26.6205 5.68039 26.5544 5.58902 26.5544H5.46309C5.36432 26.5544 5.28283 26.6297 5.27049 26.7301C5.24168 26.9736 5.18653 27.2087 5.08364 27.3953C4.87622 27.7827 4.50583 27.9576 4.16424 27.7735C3.73952 27.5568 3.58643 26.9184 3.56256 26.4172C3.44485 22.7581 3.29011 18.9543 3.52305 15.2986C3.52305 15.2902 3.5247 15.2827 3.52552 15.2743C3.5889 14.8978 3.71072 14.5304 3.89262 14.1999C4.08111 13.846 4.35026 13.5356 4.60542 13.4C4.61695 13.3942 4.62765 13.3866 4.63752 13.3783L14.8744 4.66278C15.0011 4.55484 15.0588 4.59584 15.1287 4.66278L23.4149 11.75L23.4165 11.7516L25.4265 13.4711C25.9508 13.8493 26.3286 14.6551 26.3731 15.3354L26.3747 15.3479C26.3517 17.8381 26.5517 20.5776 26.5937 23.1882Z" fill="white"/>
<path d="M29.8712 14.7949C29.5897 15.1003 28.9988 14.9204 28.2283 14.4325C24.7738 12.139 20.585 6.98222 17.7091 4.68872C16.8811 3.98503 16.0514 2.71235 15.0662 2.59353C14.4266 2.5383 13.8752 3.03533 13.406 3.46876C9.82304 6.93035 6.20717 10.3158 2.60941 13.759C2.22749 14.1129 1.81842 14.5171 1.34925 14.7103C0.473473 15.1028 -0.352917 14.4719 0.155758 13.5791C0.515451 12.9775 1.14677 12.4754 1.65133 11.9893C2.02666 11.6403 2.38882 11.2906 2.75921 10.9358C6.41377 7.419 10.1523 3.90219 13.9031 0.467376C14.6637 -0.178586 15.3024 -0.139259 16.0819 0.488295C20.3521 4.52891 24.7804 8.51178 28.9461 12.693C29.2893 13.0385 29.6786 13.4887 29.8622 13.8903L29.8663 13.9004C29.9996 14.1983 30.0828 14.5396 29.8704 14.7957L29.8712 14.7949Z" fill="white"/>
</svg>
