<svg width="19" height="13" viewBox="0 0 19 13" fill="none" xmlns="http://www.w3.org/2000/svg">
<path d="M18.6232 5.49203C18.5357 6.57872 18.1 7.6587 17.4211 8.48274L17.4102 8.49617C13.3713 13.2071 5.74122 14.2275 0.361442 11.5347C0.0754181 11.3736 -0.0549785 11.241 0.021575 11.163C0.0829861 11.095 0.294143 11.0673 0.603722 11.069C5.32985 11.3031 10.6692 11.883 14.3497 8.70847C16.2736 7.03606 16.7229 5.79999 16.2711 3.28927C16.1752 2.67669 16.1222 1.99866 16.1205 1.41546C16.1273 0.734912 16.1045 0.269187 16.2543 0.0174439C16.7178 -0.252761 18.8571 2.66327 18.6232 5.49203Z" fill="white"/>
</svg>
