<svg width="9" height="6" viewBox="0 0 9 6" fill="none" xmlns="http://www.w3.org/2000/svg">
<path d="M8.49962 2.17228C8.25526 1.58642 7.75856 1.51728 7.45201 2.10226C7.09747 2.77676 7.14635 3.7216 6.97841 4.39344C6.65142 5.61126 6.49504 3.54433 6.42929 3.23145C6.37864 2.92567 6.30933 2.62786 6.1876 2.35132C5.62692 1.09982 4.39361 1.05284 3.95289 2.36728C3.85248 2.5605 3.70764 3.3387 3.55392 3.27577C3.52371 3.25539 3.5015 3.21195 3.48551 3.17207C3.40021 2.98062 3.34422 2.51973 3.23582 2.0482C3.08921 1.29393 2.69381 0.692104 2.01762 0.32073C0.731877 -0.414927 0.035245 0.164736 0.00147988 1.55096C-0.0162912 2.46211 0.118769 3.39897 0.801179 4.0389C1.31299 4.53436 2.14734 4.90042 2.96481 5.16898C3.8818 5.46679 4.82367 5.71585 5.76909 5.8878C7.45112 6.1732 8.5867 6.0367 8.70577 4.00079V3.98218C8.75286 3.32363 8.70576 2.61988 8.49962 2.17228Z" fill="white"/>
</svg>
