<svg width="26" height="30" viewBox="0 0 26 30" fill="none" xmlns="http://www.w3.org/2000/svg">
<path d="M3.19338 18.9778C3.80431 20.1414 6.28745 21.0521 7.52272 21.2673C9.28165 21.6205 9.62571 20.1447 9.37647 18.7083C9.22878 17.6946 8.41393 17.2727 7.49754 17.0425C6.99403 16.9295 6.35122 16.757 5.95932 17.0642C5.70421 17.2693 5.58169 17.7448 5.48266 17.9884C5.43567 18.1089 5.35343 18.2914 5.27707 18.0905C5.17888 17.831 5.04545 16.8901 4.70642 16.4657C4.4169 16.0497 3.67255 15.2963 3.1724 15.7417C2.92652 16.0196 2.89043 16.4381 2.85099 17.0015C2.81994 17.6469 2.89295 18.4228 3.18582 18.9644L3.19338 18.9778Z" fill="white"/>
<path d="M15.5973 19.9237C15.4144 20.4025 15.0292 20.7725 14.5458 20.9466C13.8862 21.2304 11.2235 21.5929 10.5715 21.1542C9.91188 20.7391 10.0931 19.1235 10.2719 18.4672C10.3466 18.1725 10.6109 17.7908 10.8862 18.0026L10.8929 18.0076C11.3872 18.4605 11.3251 19.2917 11.5281 19.8802C11.5634 19.9815 11.6272 20.0225 11.6809 19.9095C11.8613 19.4709 11.8655 18.9452 12.0233 18.4605C12.1886 17.9122 12.5897 17.5991 13.1662 17.4259C13.8149 17.2509 15.2986 16.8985 15.6645 17.6452C15.949 18.319 15.8567 19.2172 15.5973 19.9237Z" fill="white"/>
<path d="M23.15 24.5319C23.1139 23.9242 23.119 23.0695 22.487 23.0821C21.9349 23.1465 21.4011 23.6764 21.1108 24.1585C20.7373 24.7981 20.6677 25.5808 20.6694 26.3115C20.6752 26.8841 20.7206 27.4006 20.8918 27.6559C21.2635 28.1866 21.9844 27.6375 22.3251 27.3077C23.0728 26.5903 23.1827 25.5791 23.15 24.5511V24.5319Z" fill="white"/>
<path d="M6.21528 24.0815C6.03485 22.6761 4.89943 21.9235 3.98388 20.9919C2.76707 19.7898 2.93071 21.2957 3.0633 22.2776C3.19337 23.221 3.5064 24.0363 4.04515 24.865C4.46642 25.4778 4.87845 26.0144 5.37105 26.5275C5.87792 27.0423 6.17918 26.9368 6.25891 26.1165C6.31849 25.4636 6.31094 24.7386 6.21779 24.1008L6.21528 24.0815Z" fill="white"/>
<path d="M25.7514 19.537C25.6726 19.5328 25.5727 19.5939 25.4577 19.7094C25.2974 19.8718 25.1288 20.1163 24.9945 20.3339C24.3567 21.3702 24.0227 22.3479 23.8792 23.4998C23.8205 24.074 23.6174 25.4334 24.115 25.6829C24.5011 25.7507 24.8116 25.1463 24.9878 24.8408C25.6096 23.6228 25.7842 22.1822 25.9235 20.8261C25.9545 20.5005 26.0418 19.5588 25.7573 19.5378L25.7514 19.537Z" fill="white"/>
<path d="M20.5569 17.8595C19.3737 19.0506 19.5256 16.8901 19.5893 16.2054C19.6481 15.5374 19.8067 14.9682 20.1877 14.3739C20.3983 14.0491 21.8106 12.0417 22.0515 13.0446L22.054 13.0563C22.2831 14.5245 21.6109 16.6976 20.5569 17.8595Z" fill="white"/>
<path d="M1.98328 17.867C2.08734 17.5657 2.09993 16.978 2.09909 16.5863C2.09657 16.1543 2.08315 15.7324 2.02692 15.3097C1.91951 14.4015 1.4076 13.6523 0.910804 12.9048C-0.0500603 11.542 0.0808572 13.33 0.1396 14.0189C0.212609 14.8594 0.384641 15.6772 0.706048 16.4774C0.811785 16.7755 1.66355 18.6781 1.97992 17.8779L1.98328 17.867Z" fill="white"/>
<path d="M18.5487 15.8337C18.2894 15.4989 17.7759 15.6404 17.4469 15.966C16.8578 16.5059 16.622 17.3941 16.5926 18.2035C16.5817 18.8121 16.4726 20.2602 17.4234 20.0468C18.2768 19.7806 18.8181 18.6539 18.8576 17.7682C18.918 17.0718 18.8685 16.2096 18.5571 15.8438L18.5487 15.8337Z" fill="white"/>
<path d="M19.7328 27.9531C19.4559 28.5851 18.7653 28.858 18.135 29.0245C16.4533 29.4657 15.7962 29.1334 15.8818 27.3211C15.912 26.3559 16.0018 25.4435 17.0567 25.1028C17.655 24.901 18.4321 24.7303 19.0372 24.7822C19.5793 24.8374 19.8235 25.3213 19.8998 25.903L19.9024 25.9198C19.9812 26.571 19.9972 27.3437 19.7328 27.9531Z" fill="white"/>
<path d="M14.9898 25.9641C14.759 25.4108 14.2899 25.3455 14.0004 25.898C13.6655 26.535 13.7117 27.4274 13.5531 28.0619C13.2443 29.212 13.0966 27.26 13.0345 26.9645C12.9867 26.6757 12.9212 26.3944 12.8062 26.1332C12.2767 24.9513 11.1119 24.9069 10.6957 26.1483C10.6009 26.3308 10.4641 27.0657 10.3189 27.0063C10.2903 26.9871 10.2694 26.946 10.2543 26.9084C10.1737 26.7276 10.1208 26.2923 10.0185 25.847C9.87999 25.1346 9.50656 24.5662 8.86794 24.2155C7.65364 23.5207 6.99572 24.0681 6.96383 25.3773C6.94705 26.2379 7.0746 27.1227 7.7191 27.727C8.20246 28.195 8.99046 28.5407 9.7625 28.7943C10.6285 29.0756 11.5181 29.3108 12.411 29.4732C13.9995 29.7427 15.072 29.6138 15.1845 27.6911V27.6735C15.2289 27.0515 15.1845 26.3869 14.9898 25.9641Z" fill="white"/>
<path d="M25.9822 16.9127C25.8949 17.9968 25.4603 19.0741 24.783 19.8961L24.7721 19.9095C20.7432 24.6089 13.1318 25.6268 7.76525 22.9406C7.47993 22.7799 7.34985 22.6476 7.42622 22.5698C7.48748 22.502 7.69812 22.4743 8.00693 22.476C12.7215 22.7096 18.0477 23.288 21.7192 20.1213C23.6384 18.453 24.0865 17.2199 23.6359 14.7154C23.5402 14.1043 23.4873 13.4279 23.4857 12.8462C23.4924 12.1673 23.4697 11.7027 23.6191 11.4516C24.0815 11.182 26.2155 14.0909 25.9822 16.9127Z" fill="white"/>
<path d="M10.104 0.119117C9.17339 0.228775 8.23099 0.342619 7.30537 0.523429C2.86945 1.43083 -0.827147 5.47144 0.16141 9.8494C0.496244 11.3612 1.72732 12.8554 3.0012 13.8482L3.01547 13.859C6.85473 17.0768 12.8305 17.3313 17.2245 15.0728C18.866 14.224 20.2959 13.0261 21.2702 11.4725C25.2253 4.55986 16.6698 -0.882038 10.104 0.119117ZM11.487 14.9548C7.22565 15.2327 1.90859 12.4862 2.38524 7.82031C2.8619 3.67255 7.47572 1.78743 11.539 1.97745H11.5617C22.4644 2.02181 22.7757 14.0156 11.487 14.9548Z" fill="white"/>
<path d="M13.2275 9.23749L13.2199 9.22745C12.8734 8.79049 12.1835 8.42719 11.4425 8.07311C10.2366 7.53235 8.79997 6.93886 7.48413 7.27118C6.07178 7.67884 5.68324 9.39152 6.14059 10.6806C6.38564 11.4566 6.8111 12.3808 7.44049 12.7641C8.54821 13.4405 10.198 12.7432 11.2755 12.1807C12.2171 11.6433 14.0843 10.3935 13.2275 9.23749ZM8.79828 11.0414L8.78234 11.0339C7.88609 10.5877 7.8114 9.39152 8.65394 8.85829C9.51746 8.27987 10.9306 8.91773 10.9374 9.98083C10.9239 10.9904 9.62236 11.4926 8.79828 11.0414Z" fill="white"/>
<path d="M15.1459 8.61889C15.0821 8.99558 14.7489 9.16801 14.3839 9.06338C13.9114 8.9353 13.4616 8.57787 13.0454 8.30163C12.3975 7.85965 11.7841 7.45115 11.0154 7.18161C10.2711 6.91542 9.47718 6.80325 8.69338 6.69526C8.10847 6.58812 6.28409 6.49771 6.90005 5.60873L6.90677 5.59952C7.35741 5.06211 8.14372 4.81182 8.83017 4.70886C9.40165 4.62431 9.98825 4.6578 10.5455 4.58581C10.9869 4.53391 11.4132 4.42006 11.8311 4.2652C12.5251 4.01659 13.2669 3.62065 13.9777 3.48253C14.3235 3.41807 14.6096 3.42644 14.7498 3.49592C15.0888 3.70436 14.5274 4.02831 14.2949 4.1907C13.9349 4.44099 13.5313 4.62682 13.3752 5.00016C13.1922 5.65309 14.3117 6.33532 14.7414 7.12134C15.0082 7.55077 15.2373 8.12668 15.1459 8.61889Z" fill="white"/>
</svg>
