<svg width="23" height="17" viewBox="0 0 23 17" fill="none" xmlns="http://www.w3.org/2000/svg">
<path d="M10.3747 0.122307C9.41909 0.234903 8.45145 0.351795 7.50104 0.537449C2.94631 1.46915 -0.849301 5.61799 0.165733 10.1132C0.509535 11.6655 1.77359 13.1997 3.08158 14.2191L3.09624 14.2302C7.03833 17.5342 13.1742 17.7955 17.6858 15.4765C19.3712 14.605 20.8395 13.375 21.8399 11.7798C25.9009 4.68199 17.1163 -0.905662 10.3747 0.122307ZM11.7947 15.3553C7.41917 15.6407 1.95971 12.8206 2.44913 8.02976C2.93855 3.77091 7.67595 1.8353 11.8481 2.03041H11.8714C23.066 2.07596 23.3857 14.391 11.7947 15.3553Z" fill="white"/>
</svg>
