<svg width="8" height="6" viewBox="0 0 8 6" fill="none" xmlns="http://www.w3.org/2000/svg">
<path d="M7.43292 2.10895L7.4252 2.09868C7.0708 1.65187 6.36543 1.28038 5.60772 0.918308C4.37462 0.365354 2.90554 -0.241525 1.56003 0.0982936C0.115829 0.515149 -0.281476 2.26645 0.186194 3.58464C0.436762 4.37812 0.871822 5.3231 1.5154 5.71514C2.64811 6.40676 4.33515 5.69374 5.43696 5.11853C6.39976 4.569 8.30905 3.29104 7.43292 2.10895ZM2.90382 3.95356L2.88752 3.94586C1.97106 3.48963 1.89469 2.26645 2.75623 1.7212C3.63922 1.12973 5.08427 1.78198 5.09114 2.86905C5.07741 3.90135 3.74648 4.41492 2.90382 3.95356Z" fill="white"/>
</svg>
