<svg width="6" height="5" viewBox="0 0 6 5" fill="none" xmlns="http://www.w3.org/2000/svg">
<path d="M5.74697 2.86275C5.55553 3.36383 5.15243 3.75102 4.64659 3.93323C3.95632 4.2302 1.16979 4.60951 0.487431 4.15048C-0.202834 3.71598 -0.0131381 2.02529 0.173919 1.3385C0.252078 1.03015 0.528707 0.63069 0.816756 0.852319L0.823789 0.857575C1.34105 1.33149 1.27606 2.20137 1.48858 2.8172C1.52547 2.9232 1.59222 2.96612 1.64842 2.84786C1.83723 2.38883 1.84162 1.8387 2.00672 1.33149C2.17973 0.757711 2.59951 0.430085 3.20283 0.248752C3.88168 0.0656663 5.43434 -0.303133 5.81723 0.478265C6.11494 1.18345 6.01834 2.1234 5.74697 2.86275Z" fill="white"/>
</svg>
