<svg width="7" height="6" viewBox="0 0 7 6" fill="none" xmlns="http://www.w3.org/2000/svg">
<path d="M0.366424 3.54083C1.00785 4.76247 3.61497 5.7187 4.91193 5.94457C6.75867 6.31546 7.11992 4.76599 6.85823 3.25783C6.70316 2.19351 5.84763 1.75055 4.88549 1.50886C4.35684 1.39021 3.68193 1.20916 3.27047 1.53171C3.00262 1.74703 2.87398 2.24624 2.77001 2.50199C2.72067 2.62855 2.63433 2.82015 2.55415 2.60922C2.45106 2.33676 2.31096 1.3489 1.95501 0.903309C1.65103 0.466505 0.869522 -0.324487 0.344397 0.143078C0.0862394 0.434866 0.048346 0.874305 0.00693511 1.46579C-0.0256649 2.14341 0.0509884 2.95813 0.358486 3.52677L0.366424 3.54171V3.54083Z" fill="white"/>
</svg>
