<svg width="9" height="6" viewBox="0 0 9 6" fill="none" xmlns="http://www.w3.org/2000/svg">
<path d="M8.88207 5.4964C8.8144 5.89608 8.46092 6.07905 8.07359 5.96802C7.57229 5.83213 7.09504 5.45288 6.6534 5.15978C5.96601 4.69082 5.31512 4.25739 4.49951 3.9714C3.70972 3.68896 2.8674 3.56994 2.03576 3.45537C1.41515 3.34168 -0.52059 3.24576 0.132966 2.30251L0.140097 2.29274C0.618243 1.72253 1.45254 1.45696 2.1809 1.34772C2.78726 1.25801 3.40966 1.29354 4.00089 1.21716C4.46924 1.16209 4.92156 1.0413 5.36498 0.876983C6.10134 0.613194 6.88847 0.193086 7.64264 0.0465363C8.00949 -0.0218535 8.31311 -0.0129717 8.46181 0.0607471C8.82153 0.281904 8.22585 0.625629 7.9792 0.797936C7.59722 1.0635 7.16894 1.26068 7.00332 1.6568C6.80922 2.34958 7.99702 3.07345 8.4529 3.90745C8.73605 4.36309 8.97913 4.97415 8.88207 5.4964Z" fill="white"/>
</svg>
