<svg width="72" height="77" viewBox="0 0 72 77" fill="none" xmlns="http://www.w3.org/2000/svg">
<path d="M35.7 0.530273C15.78 0.530273 0 15.9003 0 35.2803C0 41.1103 1.43 46.5703 3.97 51.3603C5.45 54.1703 7.32 56.7403 9.5 59.0303L13.63 62.7203L17.8 65.4503L33.4 75.6603C34.78 76.5603 36.57 76.5603 37.95 75.6603L52.91 65.8703L58.63 62.1303L61.72 59.3303C64.02 56.9803 65.98 54.3103 67.52 51.3803C70.07 46.5803 71.5 41.1103 71.5 35.2903C71.5 15.9103 55.73 0.540276 35.68 0.540276L35.7 0.530273ZM35.7 17.1003C45.72 17.1003 53.21 24.8503 53.21 35.2803C53.21 41.5603 50.56 46.8003 46.31 50.0203C45.66 50.5103 44.96 50.9603 44.24 51.3603C41.74 52.7203 38.85 53.4703 35.7 53.4703C32.55 53.4703 29.66 52.7203 27.16 51.3603C26.44 50.9603 25.74 50.5203 25.09 50.0203C20.84 46.8003 18.19 41.5603 18.19 35.2803C18.19 24.8503 25.67 17.1003 35.7 17.1003Z" fill="url(#paint0_linear_414_1706)"/>
<defs>
<linearGradient id="paint0_linear_414_1706" x1="35.76" y1="76.3303" x2="35.76" y2="0.530273" gradientUnits="userSpaceOnUse">
<stop stop-color="#9BEC00"/>
<stop offset="1" stop-color="#059212"/>
</linearGradient>
</defs>
</svg>
