<svg width="72" height="113" viewBox="0 0 72 113" fill="none" xmlns="http://www.w3.org/2000/svg">
<path d="M35.9113 36.7465C15.8734 36.7465 0 52.2075 0 71.7023C0 77.5668 1.43847 83.0591 3.9935 87.8775C5.48226 90.7041 7.36334 93.2893 9.55624 95.5929L13.7107 99.3047L17.9054 102.051L33.5977 112.321C34.9859 113.227 36.7865 113.227 38.1747 112.321L53.2232 102.473L58.9771 98.7112L62.0854 95.8946C64.399 93.5307 66.3706 90.8449 67.9197 87.8976C70.4848 83.0692 71.9233 77.5668 71.9233 71.7123C71.9233 52.2176 56.0599 36.7566 35.8912 36.7566L35.9113 36.7465ZM35.9113 53.4146C45.9907 53.4146 53.525 61.2105 53.525 71.7023C53.525 78.0194 50.8593 83.2905 46.5842 86.5295C45.9303 87.0224 45.2262 87.4751 44.5019 87.8775C41.9871 89.2455 39.08 90 35.9113 90C32.7427 90 29.8356 89.2455 27.3208 87.8775C26.5965 87.4751 25.8924 87.0325 25.2385 86.5295C20.9634 83.2905 18.2977 78.0194 18.2977 71.7023C18.2977 61.2105 25.822 53.4146 35.9113 53.4146Z" fill="url(#paint0_linear_414_1709)"/>
<path d="M64.5195 35.6699C64.5195 37.5409 64.2479 39.3415 63.755 41.0516C63.6242 40.9711 63.4733 40.8907 63.3426 40.8102C56.794 33.3664 47.0064 28.6788 35.9111 28.6788C24.8158 28.6788 15.2596 33.306 8.71103 40.6694C8.27849 39.0699 8.05718 37.39 8.05718 35.6699C8.05718 28.6888 11.769 22.5628 17.3519 19.1427C17.3619 19.1427 17.3619 19.1125 17.3821 19.1125C17.4122 19.1024 17.4324 19.0823 17.4525 19.0722C19.6353 17.3622 23.0756 16.0344 27.2401 15.2699H27.2501L35.3277 11.1959L40.1058 0L48.7165 3.10829L43.0129 13.087L47.5194 16.145C48.2236 16.3462 48.8875 16.5474 49.5313 16.7888C49.5413 16.7888 49.5614 16.7888 49.5715 16.7989C58.152 18.8509 64.5094 26.5161 64.5094 35.6599L64.5195 35.6699Z" fill="url(#paint1_linear_414_1709)"/>
<defs>
<linearGradient id="paint0_linear_414_1709" x1="35.9717" y1="112.995" x2="35.9717" y2="36.7465" gradientUnits="userSpaceOnUse">
<stop stop-color="#9BEC00"/>
<stop offset="1" stop-color="#059212"/>
</linearGradient>
<linearGradient id="paint1_linear_414_1709" x1="36.2833" y1="66.6623" x2="36.2833" y2="25.6107" gradientUnits="userSpaceOnUse">
<stop stop-color="#9BEC00"/>
<stop offset="1" stop-color="#059212"/>
</linearGradient>
</defs>
</svg>
