<?xml version="1.0" encoding="UTF-8"?>
<svg width="21" height="32" viewBox="0 0 21 32" fill="none" xmlns="http://www.w3.org/2000/svg">
<path d="M10.4835 10.4063C4.6351 10.4063 0 14.7845 0 20.3057C0 21.9658 0.420311 23.5231 1.16559 24.8859C1.60049 25.6853 2.14826 26.4196 2.78845 27.0708L4.00171 28.1222L9.80824 31.8068C10.214 32.0644 10.7384 32.0644 11.1441 31.8068L17.2182 27.9514L18.1269 27.1539C18.8041 26.4838 19.3781 25.7221 19.8305 24.8888C20.5807 23.5221 21 21.9649 21 20.3048C21 14.7836 16.3688 10.4053 10.4805 10.4053L10.4835 10.4063ZM10.4835 15.1271C13.4276 15.1271 15.6255 17.3356 15.6255 20.3057C15.6255 22.0951 14.8481 23.5882 13.5998 24.5056C13.4072 24.6462 13.2038 24.7717 12.9917 24.8859C12.2581 25.2748 11.4097 25.4871 10.4835 25.4871C9.55722 25.4871 8.70979 25.2738 7.97521 24.8859C7.76311 24.7717 7.55879 24.6462 7.36712 24.5056C6.11884 23.5882 5.34146 22.0951 5.34146 20.3057C5.34146 17.3356 7.53933 15.1271 10.4835 15.1271Z" fill="white"/>
<path d="M18.8362 10.1014C18.8362 10.6309 18.7574 11.1405 18.6124 11.6247C18.5735 11.602 18.5297 11.5794 18.4908 11.5558C16.5789 9.44642 13.7214 8.12134 10.4835 8.12134C7.24551 8.12134 4.45413 9.43132 2.54327 11.518C2.41776 11.065 2.35063 10.5894 2.35063 10.1014C2.35063 8.12511 3.43352 6.38948 5.06319 5.42209C5.06709 5.42209 5.06709 5.41454 5.07098 5.41454C5.07876 5.41076 5.08655 5.40699 5.09044 5.40321C5.72674 4.91999 6.73082 4.54247 7.94797 4.3254H7.95186L10.3112 3.17209L11.7084 0L14.2235 0.880559L12.5587 3.70722L13.8751 4.57268C14.0795 4.63025 14.276 4.68687 14.4638 4.75577C14.4677 4.75577 14.4716 4.75577 14.4754 4.75955C16.9798 5.34187 18.8362 7.51259 18.8362 10.1014Z" fill="white"/>
</svg>
