<svg width="623" height="819" viewBox="0 0 623 819" fill="none" xmlns="http://www.w3.org/2000/svg">
<path d="M74.2537 629.061C75.0143 634.136 75.8544 639.37 76.1547 644.494C77.6559 666.913 67.6982 681.825 45.1496 679.273C36.5825 678.302 26.9246 674.619 20.3792 669.395C-7.10352 646.406 -6.17244 597.816 19.4487 573.686C23.7923 569.362 28.1956 564.929 31.138 559.614C44.5691 531.781 51.5945 497.393 75.234 473.573C82.5801 466.277 90.607 459.782 99.0339 453.567C101.706 451.625 105.739 449.163 108.592 449.283C115.337 449.673 116.388 459.622 116.288 466.858C116.098 479.448 106.86 488.926 98.7036 497.643C85.873 511.975 77.8163 531.331 72.3918 549.596C69.6195 558.914 72.0919 564.028 79.7182 569.652C98.8439 583.944 110.644 614.94 101.686 636.377C99.6448 641.312 94.4004 647.216 88.8057 645.395C80.5789 641.622 83.8911 626.95 78.4867 619.604C76.7753 616.831 74.1637 616.621 73.7933 621.165C73.5632 623.697 73.8829 626.279 74.2332 628.851L74.2635 629.071L74.2537 629.061Z" fill="white"/>
<path d="M622.456 623.297C624.438 658.386 581.872 693.775 552.578 670.165C547.014 665.592 543.911 658.766 544.862 651.55C545.923 642.222 552.448 628.451 550.286 619.414C550.076 618.373 549.336 617.022 548.385 618.182C546.734 620.464 546.093 623.507 544.832 626.75C541.969 633.975 539.107 640.231 533.343 641.992C523.144 644.494 515.988 621.825 520.132 604.892C521.903 595.844 525.696 587.237 531.221 580.031C533.353 577.229 535.754 574.577 538.366 572.245C543.26 567.681 550.316 564.798 552.088 558.263C552.928 555.261 552.378 551.557 551.528 548.365C545.062 524.585 531.181 502.387 512.795 486.334C509.953 483.762 507.071 481.219 504.769 478.207C499.565 471.742 496.392 458.571 500.465 452.125C511.714 439.325 553.089 479.708 559.614 489.496C565.379 496.902 569.383 504.529 573.616 512.866C580.512 526.056 586.316 540.789 590.289 554.96C593.171 564.878 601.269 570.373 607.975 578.089C618.343 590.54 622.827 607.173 622.446 623.087V623.277L622.456 623.297Z" fill="white"/>
<path d="M220.894 752.513C210.706 720.467 212.467 684.487 219.893 652.04C219.663 649.558 217.892 649.608 216.891 648.527C211.967 643.243 205.161 639.02 198.876 635.527C197.595 634.816 191.381 631.163 190.88 631.533C188.959 638.87 186.196 646.025 184.144 653.311C175.927 682.576 172.624 709.678 180.861 739.513C182.943 747.059 186.336 754.325 189.779 761.321C189.508 761.371 189.208 761.441 188.868 761.511C185.415 760.52 181.282 759.179 177.859 758.508C154.189 753.874 127.187 757.728 104.798 766.505C94.8702 770.398 79.7175 778.375 75.5741 788.803C71.2906 799.582 75.8946 806.888 85.7827 811.502C110.213 822.911 176.798 819.178 204.071 814.184C210.976 812.923 219.533 811.332 225.898 808.5C227.34 807.859 227.86 807.148 228.901 806.498C232.544 804.206 236.217 802.124 237.448 797.52C239.62 789.354 228.33 770.258 224.898 761.501C223.817 758.728 221.655 754.905 220.894 752.503V752.513Z" fill="white"/>
<path d="M541.158 807.499C538.986 809.16 536.685 810.501 534.152 811.502C507.801 821.971 451.524 819.559 423.061 815.505C413.803 814.184 397.59 811.632 390.033 806.508C374.26 795.789 388.092 781.207 393.036 769.507C407.648 734.899 414.354 694.195 403.335 657.735C402.354 654.502 398.03 648.067 400.042 645.525C402.604 642.302 422.16 629.492 425.613 629.782C426.583 629.962 426.634 630.913 427.064 631.533C428.315 633.355 429.076 635.797 430.067 637.528C431.418 639.89 432.929 641.982 434.07 644.524C451.224 682.596 448.842 718.445 433.52 756.457C433.089 757.528 431.087 759.929 433.069 760.51C454.317 751.653 495.07 757.828 516.138 766.505C524.765 770.068 540.658 779.265 545.161 787.502C549.335 795.149 547.894 802.365 541.158 807.499Z" fill="white"/>
<path d="M519.881 124.165C515.057 123.514 509.853 124.535 504.539 126.717C485.243 134.824 466.458 154.45 452.186 170.033C445.08 178.51 436.323 185.896 438.014 194.363L438.044 194.483C439.956 200.198 447.261 201.038 452.756 200.438C466.317 199.027 475.835 189.879 486.744 181.542C494.08 175.898 501.987 171.013 510.104 166.54C520.672 160.325 530.86 156.131 535.184 145.993C539.337 135.684 530.27 125.136 519.881 124.165ZM533.993 147.504V147.464C534.073 146.894 534.093 147.224 533.993 147.504Z" fill="white"/>
<path d="M516.138 386.601C454.457 338.572 145.732 299.95 104.088 367.385C98.0229 395.539 95.6914 425.263 97.4428 454.748C98.2134 467.878 99.8048 480.959 102.237 493.83C113.136 551.668 140.959 605.252 188.388 639.9C197.696 646.696 207.763 652.771 218.602 657.995C219.693 658.526 220.794 659.046 221.895 659.557C259.927 675.019 273.568 706.045 298.959 706.045C325.981 706.045 326.982 682.025 379.376 663.81C387.142 661.108 394.628 657.875 401.804 654.152C411.592 649.098 420.829 643.133 429.486 636.397C474.033 601.739 503.377 546.653 514.807 488.145C517.009 476.846 518.55 465.416 519.391 453.987C521.092 431.218 520.051 408.439 516.138 386.601ZM311.129 527.247C205.171 527.247 184.574 596.815 184.574 557.072C184.574 517.329 225.929 463.195 311.129 463.195C396.329 463.195 437.783 517.329 437.783 557.072C437.783 596.815 417.086 527.247 311.129 527.247Z" fill="white"/>
<path d="M529.148 368.596C467.988 324.94 387.632 320.677 314.972 312.6C266.912 309.238 202.879 301.711 134.823 320.727C90.7866 335.739 77.8459 361.04 83.7808 317.594C99.2636 136.045 472.031 154.13 541.158 284.607C556.171 311.72 558.272 392.927 529.148 368.596Z" fill="white"/>
<path d="M438.394 33.3899L438.294 33.1997C425.083 6.89804 396.279 -7.20359 371.018 8.01897C356.736 16.6961 347.148 32.329 341.624 48.1421C330.454 81.4195 331.615 122.133 351.462 151.597C358.798 162.306 369.327 171.043 381.357 173.836C423.211 181.952 447.042 133.372 449.594 96.2718C451.575 74.714 447.541 50.494 438.394 33.3899ZM367.015 72.5122H367.025C367.035 72.6323 367.035 73.513 367.025 73.453C367.015 73.4429 366.995 72.6623 367.015 72.5122ZM413.274 96.8923C412.323 107.871 409.26 117.229 404.056 124.995L403.955 125.146C386.271 149.986 368.366 123.774 365.824 103.748C363.763 88.2652 366.144 72.1019 374.391 59.3113C380.596 49.8635 390.695 47.0111 399.772 54.9877C410.631 64.2754 414.525 81.8799 413.274 96.8923Z" fill="white"/>
<path d="M286.108 32.7494L286.008 32.5692C271.416 3.83552 241.761 -11.287 215.099 10.0006C202.168 20.2891 193.111 36.7126 188.277 52.8259C178.769 85.8632 181.251 126.317 202.999 154.12C214.989 169.282 234.485 176.908 253.121 170.693C281.044 161.536 295.065 131.201 298.198 101.336C300.87 78.5171 296.256 51.4648 286.108 32.7494ZM253.961 132.822L253.841 132.892C235.856 142.05 223.946 115.378 222.855 100.495C221.784 90.8073 223.016 80.5588 226.419 71.4913C230.622 59.1412 243.052 43.2681 256.493 54.2972C277.02 72.0018 276.36 118.07 253.961 132.822Z" fill="white"/>
</svg>
