<svg width="667" height="812" viewBox="0 0 667 812" fill="none" xmlns="http://www.w3.org/2000/svg">
<path d="M126.197 430.697C125.617 431.817 122.927 429.097 118.656 425.086C110.164 417.115 95.4417 404.042 78.7087 406.083C54.4944 409.023 58.1754 444.88 59.5256 447.68C62.4061 453.801 69.8471 455.411 75.4581 459.052C78.4387 460.902 81.249 463.093 83.8395 465.483C90.5207 471.614 95.7519 479.426 99.0624 488.027C106.084 503.97 94.8415 511.041 92.8411 513.042C88.5804 517.303 81.8391 515.042 78.8386 512.042C76.3782 509.581 75.5885 507.961 73.5681 506.001C72.4379 505.02 71.9377 506.481 71.9077 507.541C71.3376 516.812 88.1803 518.053 90.8408 527.044C93.0212 533.975 89.5205 542.577 84.8397 548.048C60.1153 576.373 5.696 558.77 1.55526 523.884L1.51521 523.694C-1.61535 508.101 -0.0951336 490.948 7.95631 476.905C13.2072 468.144 24.7189 457.292 25.8291 447.03C27.2794 432.397 29.4701 425.936 33.1708 417.325C60.2756 354.303 101.523 384.179 119.916 399.311C122.337 401.312 124.367 403.042 125.907 404.282C131.038 409.913 130.208 423.436 126.197 430.697Z" fill="white"/>
<path d="M589.11 566.361C583.559 561.791 578.619 553.919 579.559 546.718C580.619 537.406 596.982 533.255 594.811 524.224C594.601 523.184 593.861 521.833 592.911 523.004C591.261 525.274 590.771 527.014 588.77 529.865C586.34 533.335 580.089 536.736 575.158 533.275C572.838 531.655 560.545 526.644 564.686 509.721C566.456 500.68 570.247 492.078 575.758 484.877C577.898 482.076 580.289 479.426 582.899 477.095C587.8 472.535 594.841 469.644 596.612 463.123C597.462 460.122 594.861 424.176 570.497 425.486C558.145 426.146 548.273 434.628 541.142 442.779C533.66 451.331 529.18 459.512 528.009 457.982C522.799 451.521 519.628 438.348 523.708 431.917C527.159 427.987 533.29 420.055 541.372 412.814C559.615 396.461 587.78 383.659 617.295 428.647C622.436 436.488 625.717 442.469 629.687 456.632C632.568 466.543 645.78 475.225 652.481 482.946C662.843 495.379 667.324 512.012 666.944 527.915V528.104C668.914 563.171 618.386 589.966 589.11 566.361Z" fill="white"/>
<path d="M259.111 789.801C257.891 794.402 254.221 796.473 250.58 798.763C249.54 799.423 249.02 800.123 247.58 800.763C241.218 803.594 232.657 805.184 225.755 806.444C198.51 811.435 131.969 815.156 107.554 803.764C97.6727 799.153 93.0717 791.852 97.3524 781.08C101.493 770.668 116.636 762.686 126.558 758.796C148.932 750.024 175.907 746.173 199.571 750.804C202.992 751.474 207.122 752.815 210.573 753.805C210.913 753.735 211.213 753.665 211.483 753.615C208.042 746.614 204.652 739.362 202.571 731.821C194.34 701.996 197.64 674.911 205.852 645.676C207.112 641.175 208.653 636.734 210.093 632.273C210.993 629.503 211.843 626.722 212.583 623.912C213.083 623.542 219.294 627.192 220.575 627.902C226.856 631.383 233.657 635.614 238.578 640.895C239.578 641.965 241.348 641.925 241.578 644.395C241.128 646.366 240.698 648.356 240.288 650.356C233.987 681.182 233.017 714.738 242.579 744.813C243.339 747.214 245.499 751.034 246.579 753.805C250 762.556 261.292 781.64 259.111 789.801Z" fill="white"/>
<path d="M562.636 799.763C560.465 801.423 558.165 802.764 555.634 803.764C529.3 814.226 473.06 811.815 444.614 807.765C435.363 806.444 419.16 803.894 411.609 798.773C395.846 788.061 409.668 773.488 414.609 761.796C429.212 727.21 435.912 686.533 424.9 650.096C424.61 649.126 424.011 647.866 423.37 646.516C421.9 643.355 420.2 639.674 421.61 637.894C424.171 634.674 443.714 621.871 447.165 622.161C448.135 622.341 448.185 623.291 448.615 623.912C449.615 625.362 450.295 627.212 451.036 628.772C451.226 629.173 451.416 629.553 451.616 629.903C452.966 632.263 454.476 634.353 455.616 636.894C472.76 674.941 470.379 710.767 455.066 748.754C454.636 749.824 452.636 752.225 454.616 752.805C475.85 743.953 516.577 750.124 537.631 758.796C546.253 762.356 562.135 771.548 566.636 779.78C570.807 787.421 569.367 794.632 562.636 799.763Z" fill="white"/>
<path d="M541.372 116.871C536.551 116.221 531.35 117.241 526.039 119.421C506.756 127.523 487.982 147.136 473.72 162.709C466.618 171.181 457.867 178.562 459.557 187.023L459.587 187.143C461.498 192.855 468.799 193.695 474.29 193.095C487.843 191.684 497.354 182.543 508.256 174.211C515.587 168.57 523.489 163.689 531.6 159.218C542.162 153.007 552.344 148.817 556.665 138.685C560.815 128.383 551.754 117.841 541.372 116.871ZM555.475 140.195V140.155C555.555 139.585 555.575 139.915 555.475 140.195Z" fill="white"/>
<path d="M541.372 412.814C533.29 420.055 527.159 427.987 523.708 431.917C519.628 438.348 522.799 451.521 528.009 457.982C529.18 459.512 533.66 451.331 541.142 442.779C541.752 432.757 541.832 422.736 541.372 412.814ZM447.165 622.161C443.714 621.871 424.171 634.674 421.61 637.894C420.2 639.674 421.9 643.355 423.37 646.516C433.152 641.465 442.384 635.504 451.036 628.772C450.295 627.212 449.615 625.362 448.615 623.912C448.185 623.291 448.135 622.341 447.165 622.161ZM238.578 640.895C233.657 635.614 226.856 631.383 220.575 627.902C219.294 627.192 213.083 623.542 212.583 623.912C211.843 626.722 210.993 629.503 210.093 632.273C219.394 639.064 229.456 645.135 240.288 650.356C240.698 648.356 241.128 646.366 241.578 644.395C241.348 641.925 239.578 641.965 238.578 640.895ZM119.916 399.321C119.146 407.863 118.726 416.465 118.656 425.086C122.927 429.097 125.617 431.817 126.197 430.697C130.208 423.436 131.038 409.913 125.907 404.282C124.367 403.042 122.337 401.312 119.916 399.321Z" fill="white"/>
<path d="M528.009 457.982C522.799 451.521 519.628 438.348 523.708 431.917C527.159 427.987 533.29 420.055 541.372 412.814C540.852 401.432 539.612 390.17 537.631 379.138C475.99 331.139 167.465 292.542 125.847 359.934C123.077 372.787 121.086 385.969 119.916 399.311C122.337 401.312 124.367 403.042 125.907 404.282C131.038 409.913 130.208 423.436 126.197 430.697C125.617 431.817 122.927 429.097 118.656 425.086C117.926 504.59 146.231 585.615 210.093 632.273C210.993 629.503 211.843 626.722 212.583 623.912C213.083 623.542 219.294 627.192 220.575 627.902C226.856 631.383 233.657 635.614 238.578 640.895C239.578 641.965 241.348 641.925 241.578 644.395C241.128 646.366 240.698 648.356 240.288 650.356C241.378 650.886 242.479 651.407 243.579 651.917C281.586 667.369 295.218 698.375 320.593 698.375C347.597 698.375 348.597 674.371 400.957 656.167C408.718 653.467 416.199 650.236 423.37 646.516C421.9 643.355 420.2 639.674 421.61 637.894C424.171 634.674 443.714 621.871 447.165 622.161C448.135 622.341 448.185 623.291 448.615 623.912C449.615 625.362 450.295 627.212 451.036 628.772C505.085 586.735 536.731 514.592 541.142 442.779C533.66 451.331 529.18 459.512 528.009 457.982ZM329.884 509.741C254.91 509.741 193.86 579.754 194.26 536.826C194.94 464.523 254.97 366.015 329.944 366.015C404.917 366.015 465.488 464.513 465.758 536.826C465.908 578.323 404.857 509.741 329.884 509.741Z" fill="white"/>
<path d="M550.634 361.145C489.513 317.517 409.209 313.256 336.596 305.185C288.567 301.824 224.576 294.303 156.563 313.306C112.556 328.309 99.6232 353.593 105.554 310.175C121.027 128.743 493.554 146.816 562.636 277.21C577.639 304.304 579.739 385.459 550.634 361.145Z" fill="white"/>
<path d="M459.937 26.1547L459.837 25.9646C456.547 19.4135 452.276 13.6124 447.345 8.85158L360.08 51.8493C352.528 82.7648 355.359 118.001 373.062 144.286C380.393 154.988 390.915 163.719 402.937 166.51C444.764 174.621 468.579 126.073 471.129 88.9959C473.11 67.4521 469.079 43.2477 459.937 26.1547ZM388.605 65.2517H388.614C388.624 65.3717 388.624 66.2519 388.614 66.1918C388.604 66.1818 388.585 65.4017 388.605 65.2517ZM434.833 89.616C433.882 100.588 430.822 109.94 425.621 117.701L425.521 117.851C407.848 142.676 389.954 116.481 387.414 96.4673C385.354 80.9945 387.734 64.8416 395.976 52.0593C402.177 42.6176 412.269 39.7671 421.341 47.7385C432.192 57.0202 436.083 74.6133 434.833 89.616Z" fill="white"/>
<path d="M317.922 54.6798C299.608 41.7675 267.703 19.2334 240.608 0C239.328 0.84015 238.058 1.77032 236.788 2.7805C223.865 13.0623 214.813 29.4753 209.982 45.5782C200.481 78.5941 202.961 119.021 224.695 146.806C236.677 161.959 256.161 169.58 274.784 163.369C302.689 154.218 316.702 123.902 319.832 94.0568C321.302 81.5146 320.562 67.6921 317.922 54.6798ZM275.624 125.522L275.504 125.592C257.531 134.744 245.629 108.089 244.539 93.2167C243.469 83.5349 244.699 73.2931 248.1 64.2315C252.3 51.8893 264.722 36.0264 278.155 47.0484C298.668 64.7416 298.008 110.78 275.624 125.522Z" fill="white"/>
</svg>
