<svg width="660" height="823" viewBox="0 0 660 823" fill="none" xmlns="http://www.w3.org/2000/svg">
<path d="M45.3403 386.261C43.729 402.124 48.5228 408.23 52.2659 411.442C57.3601 415.816 70.6813 422.862 102.698 421C116.089 420.219 128.159 418.068 135.144 416.616C134.064 431.839 134.054 447.232 135.144 462.534C124.165 464.446 109.313 466.347 93.4601 466.347C68.8598 466.347 41.8271 461.794 23.0015 445.68C10.8415 435.272 -2.91982 415.726 0.543044 381.698C3.48547 352.684 18.7381 325.121 45.8505 299.8C67.108 279.944 91.5783 265.011 109.443 254.102C111.505 252.841 113.476 251.64 115.348 250.489C115.728 250.179 116.119 249.879 116.549 249.608C129.65 241.322 139.798 235.507 148.826 231.413C139.458 240.131 131.531 249.669 125.086 259.957C116.299 273.999 110.294 289.431 107.191 306.055C107.001 307.106 106.811 308.147 106.641 309.208C78.6778 328.173 48.613 354.075 45.3403 386.261Z" fill="white"/>
<path d="M152.818 458.761C150.617 459.342 144.192 460.943 135.144 462.534C134.054 447.232 134.064 431.839 135.144 416.616C139.048 415.806 141.359 415.205 141.419 415.195L152.818 458.761Z" fill="white"/>
<path d="M590.04 674.169C584.475 669.585 581.373 662.76 582.313 655.554C583.374 646.226 589.91 632.455 587.738 623.417C587.528 622.376 586.787 621.025 585.836 622.186C584.185 624.468 583.545 627.511 582.284 630.753C579.431 637.989 576.559 644.234 570.804 646.006C560.605 648.508 553.44 625.829 557.583 608.905C559.354 599.858 563.158 591.251 568.672 584.045C570.804 581.232 573.206 578.59 575.818 576.258C580.712 571.685 587.758 568.802 589.54 562.277C590.38 559.274 589.83 555.571 588.979 552.379C582.754 529.48 569.653 508.042 552.259 492.149C551.598 491.538 550.927 490.938 550.247 490.347C547.404 487.775 544.532 485.233 542.23 482.221C537.016 475.765 533.853 462.584 537.927 456.149C541.68 451.876 548.796 453.527 556.843 457.991C572.916 466.888 592.732 486.995 597.076 493.51C602.84 500.916 606.834 508.552 611.077 516.879C617.963 530.07 623.778 544.802 627.751 558.974C630.633 568.892 638.74 574.387 645.436 582.113C655.814 594.553 660.288 611.197 659.918 627.1V627.3C661.889 662.389 619.324 697.779 590.04 674.169Z" fill="white"/>
<path d="M274.89 801.534C273.669 806.138 269.996 808.21 266.353 810.502C265.312 811.162 264.792 811.863 263.35 812.503C256.985 815.336 248.418 816.927 241.512 818.188C214.249 823.182 147.665 826.905 123.235 815.506C113.346 810.892 108.742 803.586 113.026 792.807C117.169 782.389 132.322 774.402 142.25 770.509C164.639 761.731 191.631 757.878 215.311 762.512C218.734 763.183 222.867 764.524 226.32 765.515C226.66 765.445 226.96 765.374 227.23 765.324C223.787 758.319 220.395 751.063 218.313 743.516C210.076 713.672 213.379 686.569 221.596 657.315C222.857 652.812 224.398 648.368 225.839 643.904C226.74 641.132 227.591 638.35 228.331 635.537C228.832 635.167 235.047 638.82 236.328 639.531C242.613 643.013 249.419 647.247 254.343 652.531C255.344 653.602 257.115 653.562 257.345 656.034C256.895 658.006 256.465 659.997 256.054 661.999C249.749 692.845 248.778 726.422 258.346 756.517C259.107 758.919 261.269 762.742 262.35 765.515C265.772 774.272 277.071 793.368 274.89 801.534Z" fill="white"/>
<path d="M578.61 811.503C576.439 813.164 574.137 814.505 571.605 815.506C545.253 825.975 488.976 823.563 460.513 819.509C451.255 818.188 435.042 815.636 427.486 810.512C411.713 799.793 425.544 785.211 430.488 773.511C445.1 738.903 451.805 698.199 440.786 661.739C440.496 660.768 439.896 659.507 439.255 658.156C437.784 654.993 436.083 651.31 437.494 649.529C440.056 646.306 459.612 633.496 463.065 633.786C464.036 633.966 464.086 634.917 464.516 635.537C465.517 636.988 466.198 638.84 466.938 640.401C467.128 640.802 467.318 641.182 467.519 641.532C468.87 643.894 470.381 645.986 471.522 648.528C488.676 686.599 486.294 722.449 470.971 760.46C470.541 761.531 468.54 763.933 470.521 764.514C491.769 755.657 532.522 761.832 553.59 770.509C562.217 774.072 578.11 783.269 582.614 791.506C586.787 799.152 585.346 806.368 578.61 811.503Z" fill="white"/>
<path d="M610.146 155.04C605.663 153.159 600.368 152.799 594.674 153.519C573.937 156.321 550.687 170.393 532.862 181.732C523.785 188.068 513.416 192.922 512.846 201.539V201.659C513.206 207.684 520.042 210.386 525.507 211.237C538.968 213.409 550.537 207.043 563.228 201.819C571.785 198.286 580.692 195.624 589.69 193.412C601.509 190.159 612.448 188.758 619.254 180.101C625.94 171.224 619.925 158.673 610.146 155.04ZM617.703 181.242V181.202C617.793 181.002 617.843 180.932 617.863 180.932C617.863 180.962 617.803 181.112 617.703 181.242Z" fill="white"/>
<path d="M556.843 457.991C558.544 435.222 557.503 412.443 553.59 390.605C491.909 342.575 183.184 303.953 141.539 371.389C138.367 386.121 136.215 401.284 135.144 416.616C139.048 415.806 141.359 415.205 141.419 415.195L152.818 458.761C150.617 459.342 144.192 460.943 135.144 462.534C140.189 533.363 168.872 602.28 225.839 643.904C226.74 641.132 227.591 638.35 228.331 635.537C228.832 635.167 235.047 638.82 236.328 639.531C242.613 643.013 249.419 647.247 254.343 652.531C255.344 653.602 257.115 653.562 257.345 656.034C256.895 658.006 256.465 659.997 256.054 661.999C257.145 662.53 258.246 663.05 259.347 663.56C297.378 679.023 311.02 710.049 336.411 710.049C363.433 710.049 364.433 686.029 416.827 667.814C424.593 665.112 432.079 661.879 439.255 658.156C437.784 654.993 436.083 651.31 437.494 649.529C440.056 646.306 459.612 633.496 463.065 633.786C464.036 633.966 464.086 634.917 464.516 635.537C465.517 636.988 466.198 638.84 466.938 640.401C511.485 605.743 540.829 550.657 552.259 492.149C551.598 491.538 550.927 490.938 550.247 490.347C547.404 487.775 544.532 485.233 542.23 482.221C537.016 475.765 533.853 462.584 537.927 456.149C541.68 451.876 548.796 453.527 556.843 457.991ZM458.832 531.842C456.76 532.462 454.618 531.691 453.357 530.09C446.912 522.494 439.185 516.499 430.788 511.675C391.086 488.856 330.456 488.206 287.17 500.175C269.175 505.61 249.619 513.426 239.23 529.63C236.388 534.214 229.182 531.671 229.892 526.287C233.826 502.217 257.615 485.393 278.252 476.086C328.514 454.127 401.524 457.39 442.848 495.912C449.313 502.047 454.978 509.173 458.962 517.19C460.263 519.882 461.394 522.654 462.245 525.506C463.055 528.199 461.524 531.031 458.832 531.842Z" fill="white"/>
<path d="M141.419 415.195L152.818 458.761C150.617 459.342 144.192 460.943 135.144 462.534C134.054 447.232 134.064 431.839 135.144 416.616C139.048 415.806 141.359 415.205 141.419 415.195Z" fill="white"/>
<path d="M257.345 656.034C256.895 658.006 256.465 659.997 256.054 661.999C245.215 656.775 235.147 650.7 225.839 643.904C226.74 641.132 227.591 638.35 228.331 635.537C228.832 635.167 235.047 638.82 236.328 639.531C242.613 643.013 249.419 647.247 254.343 652.531C255.344 653.602 257.115 653.562 257.345 656.034Z" fill="white"/>
<path d="M464.516 635.537C465.517 636.988 466.198 638.84 466.938 640.401C458.281 647.137 449.043 653.102 439.255 658.156C437.784 654.993 436.083 651.31 437.494 649.529C440.056 646.306 459.612 633.496 463.065 633.786C464.036 633.966 464.086 634.917 464.516 635.537Z" fill="white"/>
<path d="M556.843 457.991C556.002 469.42 554.461 480.849 552.259 492.149C551.598 491.538 550.927 490.938 550.247 490.347C547.404 487.775 544.532 485.233 542.23 482.221C537.016 475.765 533.853 462.584 537.927 456.149C541.68 451.876 548.796 453.527 556.843 457.991Z" fill="white"/>
<path d="M589.359 341.835C589.409 350.632 588.618 358.789 586.837 365.034C586.717 365.454 586.587 365.875 586.467 366.275C586.206 367.075 585.936 367.846 585.646 368.567C585.426 369.117 585.196 369.638 584.956 370.138C584.715 370.648 584.465 371.119 584.205 371.569C583.594 372.63 582.924 373.561 582.203 374.342C581.943 374.622 581.673 374.872 581.393 375.112C581.302 375.182 581.212 375.262 581.122 375.332C580.902 375.502 580.692 375.663 580.462 375.803C580.381 375.863 580.301 375.923 580.211 375.973C579.941 376.143 579.651 376.283 579.361 376.413C579.241 376.473 579.11 376.523 578.98 376.573C578.78 376.653 578.58 376.713 578.38 376.774C578.24 376.814 578.11 376.854 577.97 376.894C577.67 376.964 577.369 377.014 577.049 377.044C576.909 377.054 576.759 377.054 576.609 377.064C576.389 377.074 576.158 377.074 575.928 377.064C575.798 377.064 575.668 377.064 575.528 377.054C575.208 377.024 574.877 376.974 574.537 376.904C574.397 376.874 574.257 376.844 574.116 376.814C573.736 376.723 573.366 376.613 572.975 376.483C572.785 376.413 572.585 376.343 572.385 376.263C571.995 376.103 571.594 375.923 571.184 375.713C570.984 375.603 570.774 375.492 570.564 375.382C570.143 375.152 569.723 374.892 569.293 374.612C568.852 374.331 568.412 374.021 567.971 373.681C567.521 373.351 567.061 372.99 566.601 372.6C505.44 328.944 425.084 324.68 352.424 316.604C339.783 315.723 326.042 314.542 311.42 313.641C309.758 313.541 308.077 313.441 306.395 313.351C303.783 313.201 301.151 313.061 298.489 312.941C296.717 312.861 294.936 312.781 293.134 312.711C291.343 312.641 289.531 312.58 287.72 312.53C285.898 312.47 284.077 312.43 282.235 312.39C280.394 312.35 278.552 312.32 276.691 312.3C274.829 312.28 272.968 312.27 271.086 312.27C255.654 312.27 239.57 312.981 223.037 314.882C218.903 315.363 214.74 315.913 210.556 316.554C209.506 316.704 208.465 316.874 207.414 317.044C205.312 317.384 203.2 317.745 201.098 318.125C200.038 318.315 198.977 318.515 197.926 318.716C194.743 319.326 191.561 319.987 188.358 320.697C183.024 321.878 177.659 323.219 172.275 324.731C170.664 325.281 169.092 325.841 167.571 326.412C165.279 327.273 163.077 328.153 160.965 329.044C160.265 329.334 159.574 329.635 158.894 329.935C155.481 331.426 152.318 332.937 149.386 334.388C149.376 334.388 149.376 334.399 149.376 334.399C148.205 334.979 147.074 335.549 145.983 336.12C144.882 336.68 143.831 337.231 142.81 337.771C140.768 338.852 138.877 339.863 137.126 340.784C136.695 341.014 136.265 341.244 135.844 341.464C135.004 341.895 134.203 342.315 133.433 342.695C132.662 343.086 131.931 343.436 131.231 343.756C128.438 345.047 126.197 345.818 124.465 345.818C123.384 345.818 122.504 345.518 121.823 344.867C121.693 344.747 121.573 344.617 121.463 344.467C121.353 344.327 121.242 344.167 121.142 344.006C120.992 343.756 120.862 343.476 120.732 343.166C120.602 342.856 120.492 342.515 120.402 342.145C120.242 341.524 120.122 340.824 120.032 340.033C119.831 338.192 119.831 335.86 120.011 332.977C120.202 329.865 120.622 326.102 121.233 321.598C121.683 316.364 122.424 311.299 123.445 306.395C124.125 303.153 124.926 299.98 125.846 296.878C128.098 289.271 131.061 282.085 134.684 275.33C146.233 253.702 164.378 236.368 186.907 223.017C227.22 199.137 281.565 188.028 337.271 188.028H337.281C357.908 188.028 378.715 189.549 399.062 192.511C400.633 192.742 402.194 192.972 403.756 193.222C405.327 193.462 406.898 193.712 408.46 193.983C411.552 194.503 414.635 195.063 417.708 195.654C419.249 195.944 420.78 196.244 422.311 196.565C436.092 199.367 449.544 202.85 462.434 206.973C463.866 207.424 465.297 207.894 466.708 208.374C477.347 211.927 487.585 215.931 497.303 220.364C534.224 237.208 563.588 260.257 578.61 288.611C579.021 289.361 579.431 290.152 579.821 290.983C580.412 292.224 580.982 293.555 581.533 294.956C582.073 296.357 582.594 297.838 583.094 299.38C583.244 299.86 583.394 300.35 583.544 300.841C583.574 300.951 583.604 301.051 583.644 301.161C583.774 301.611 583.905 302.052 584.035 302.502C584.045 302.532 584.055 302.572 584.065 302.602C584.185 303.023 584.295 303.443 584.415 303.873C584.745 305.064 585.056 306.295 585.346 307.546C587.858 318.205 589.309 330.545 589.359 341.835Z" fill="white"/>
<path d="M135.844 341.464C135.004 341.905 134.203 342.315 133.433 342.695C134.203 342.315 135.004 341.895 135.844 341.464Z" fill="white"/>
<path d="M145.983 336.12C144.882 336.68 143.831 337.241 142.81 337.771C143.831 337.231 144.882 336.68 145.983 336.12Z" fill="white"/>
<path d="M149.376 334.399C148.205 334.979 147.074 335.559 145.983 336.12C147.074 335.549 148.205 334.979 149.376 334.399Z" fill="white"/>
<path d="M576.609 377.064C576.489 377.074 576.379 377.084 576.259 377.084C576.149 377.084 576.038 377.084 575.928 377.064C576.158 377.074 576.389 377.074 576.609 377.064Z" fill="white"/>
<path d="M581.533 294.956C582.073 296.357 582.594 297.838 583.094 299.38C582.604 297.838 582.083 296.357 581.533 294.956Z" fill="white"/>
<path d="M583.644 301.161C583.604 301.051 583.574 300.951 583.544 300.841H583.555C583.585 300.951 583.614 301.051 583.644 301.161Z" fill="white"/>
<path d="M584.035 302.502C583.905 302.052 583.774 301.611 583.644 301.161C583.774 301.581 583.895 302.012 584.025 302.442C584.025 302.462 584.035 302.482 584.035 302.502Z" fill="white"/>
<path d="M586.467 366.275C586.216 367.075 585.946 367.836 585.646 368.567C585.936 367.846 586.206 367.075 586.467 366.275Z" fill="white"/>
<path d="M135.844 341.464C135.004 341.905 134.203 342.315 133.433 342.695C134.203 342.315 135.004 341.895 135.844 341.464ZM149.376 334.399C148.205 334.979 147.074 335.559 145.983 336.12C147.074 335.549 148.205 334.979 149.376 334.399ZM145.983 336.12C144.882 336.68 143.831 337.241 142.81 337.771C143.831 337.231 144.882 336.68 145.983 336.12ZM575.928 377.064C576.038 377.074 576.149 377.084 576.259 377.084C576.379 377.084 576.489 377.084 576.609 377.064C576.389 377.074 576.158 377.074 575.928 377.064ZM581.533 294.956C582.073 296.357 582.594 297.838 583.094 299.38C582.604 297.838 582.083 296.357 581.533 294.956ZM584.025 302.442C583.895 302.012 583.774 301.581 583.644 301.161C583.774 301.611 583.905 302.052 584.035 302.502C584.035 302.482 584.025 302.462 584.025 302.442ZM583.555 300.841C583.405 300.35 583.244 299.86 583.094 299.38C583.244 299.86 583.394 300.35 583.544 300.841C583.574 300.951 583.604 301.051 583.644 301.161C583.614 301.051 583.585 300.951 583.555 300.841ZM586.467 366.275C586.216 367.075 585.946 367.836 585.646 368.567C585.936 367.846 586.206 367.075 586.467 366.275Z" fill="black"/>
<path d="M475.846 33.3899L475.745 33.1998C462.534 6.89805 433.731 -7.20359 408.47 8.01898C394.188 16.6961 384.6 32.3291 379.076 48.1421C367.907 81.4196 369.068 122.133 388.914 151.598C396.25 162.306 406.778 171.044 418.808 173.836C460.663 181.953 484.493 133.373 487.045 96.2719C489.026 74.7141 484.993 50.4941 475.846 33.3899ZM477.747 95.8915C476.796 106.871 473.734 116.228 468.529 123.995L468.429 124.145C450.745 148.985 432.84 122.774 430.298 102.747C428.236 87.2644 430.618 71.1011 438.865 58.3105C445.07 48.8627 455.169 46.0104 464.246 53.9869C475.105 63.2746 478.998 80.8791 477.747 95.8915Z" fill="white"/>
<path d="M323.56 32.7494L323.46 32.5693C308.868 3.83552 279.213 -11.287 252.551 10.0006C239.621 20.2891 230.563 36.7127 225.729 52.826C216.221 85.8633 218.703 126.317 240.451 154.12C252.441 169.282 271.937 176.908 290.573 170.693C318.496 161.536 332.517 131.201 335.65 101.336C338.322 78.5172 333.708 51.4649 323.56 32.7494ZM312.43 136.825L312.311 136.895C294.326 146.053 282.416 119.381 281.325 104.499C280.254 94.8107 281.485 84.5622 284.888 75.4947C289.092 63.1445 301.522 47.2714 314.963 58.3005C335.49 76.0051 334.829 122.073 312.43 136.825Z" fill="white"/>
</svg>
