<svg width="623" height="819" viewBox="0 0 623 819" fill="none" xmlns="http://www.w3.org/2000/svg">
<path d="M74.2538 629.061C75.0144 634.136 75.8551 639.37 76.1553 644.494C77.6566 666.913 67.6984 681.825 45.1498 679.273C36.5827 678.302 26.9247 674.619 20.3793 669.395C-7.10336 646.406 -6.17259 597.816 19.4485 573.686C23.7921 569.362 28.1958 564.929 31.1382 559.614C44.5693 531.781 51.5951 497.393 75.2346 473.573C82.5806 466.277 90.6073 459.782 99.0342 453.567C101.706 451.625 105.74 449.163 108.592 449.283C115.338 449.673 116.389 459.622 116.288 466.858C116.098 479.448 106.861 488.926 98.7039 497.643C85.8734 511.975 77.8167 531.331 72.3922 549.596C69.6199 558.914 72.092 564.028 79.7183 569.652C98.8441 583.944 110.644 614.94 101.686 636.377C99.6447 641.312 94.4004 647.216 88.8058 645.395C80.579 641.622 83.8917 626.95 78.4873 619.604C76.7759 616.831 74.1637 616.621 73.7934 621.165C73.5632 623.697 73.8835 626.279 74.2338 628.851L74.2638 629.071L74.2538 629.061Z" fill="white"/>
<path d="M622.456 623.297C624.438 658.386 581.873 693.775 552.578 670.165C547.014 665.592 543.911 658.766 544.862 651.55C545.923 642.222 552.448 628.451 550.287 619.414C550.076 618.373 549.336 617.022 548.385 618.182C546.734 620.464 546.093 623.507 544.832 626.75C541.97 633.975 539.107 640.231 533.343 641.992C523.144 644.494 515.988 621.825 520.132 604.892C521.903 595.844 525.696 587.237 531.221 580.031C533.353 577.229 535.755 574.577 538.367 572.245C543.261 567.681 550.317 564.798 552.088 558.263C552.929 555.261 552.378 551.557 551.528 548.365C545.062 524.585 531.181 502.387 512.796 486.334C509.953 483.762 507.071 481.219 504.769 478.207C499.565 471.742 496.392 458.571 500.465 452.125C511.715 439.325 553.089 479.708 559.614 489.496C565.379 496.902 569.382 504.529 573.616 512.866C580.512 526.056 586.316 540.789 590.29 554.96C593.172 564.878 601.269 570.373 607.974 578.089C618.343 590.54 622.826 607.173 622.446 623.087V623.277L622.456 623.297Z" fill="white"/>
<path d="M220.895 752.513C210.706 720.467 212.468 684.487 219.894 652.04C219.664 649.558 217.892 649.608 216.891 648.527C211.967 643.243 205.162 639.02 198.877 635.527C197.596 634.816 191.38 631.163 190.88 631.533C188.958 638.87 186.196 646.025 184.144 653.311C175.928 682.576 172.625 709.678 180.862 739.513C182.943 747.059 186.336 754.325 189.779 761.321C189.509 761.371 189.209 761.441 188.868 761.511C185.416 760.52 181.282 759.179 177.859 758.508C154.19 753.874 127.187 757.728 104.799 766.505C94.8708 770.398 79.7183 778.375 75.5749 788.803C71.2913 799.582 75.8951 806.888 85.7833 811.502C110.213 822.911 176.798 819.178 204.071 814.184C210.977 812.923 219.534 811.332 225.899 808.5C227.34 807.859 227.861 807.148 228.901 806.498C232.544 804.206 236.217 802.124 237.448 797.52C239.62 789.354 228.331 770.258 224.898 761.501C223.817 758.728 221.655 754.905 220.895 752.503V752.513Z" fill="white"/>
<path d="M541.159 807.499C538.987 809.16 536.685 810.501 534.153 811.502C507.801 821.971 451.525 819.559 423.062 815.505C413.804 814.184 397.591 811.632 390.034 806.508C374.261 795.789 388.093 781.207 393.037 769.507C407.649 734.899 414.354 694.195 403.335 657.735C402.354 654.502 398.031 648.067 400.043 645.525C402.605 642.302 422.161 629.492 425.614 629.782C426.584 629.962 426.635 630.913 427.065 631.533C428.316 633.355 429.077 635.797 430.067 637.528C431.418 639.89 432.93 641.982 434.071 644.524C451.225 682.596 448.843 718.445 433.52 756.457C433.09 757.528 431.088 759.929 433.07 760.51C454.317 751.653 495.071 757.828 516.138 766.505C524.765 770.068 540.659 779.265 545.162 787.502C549.336 795.149 547.895 802.365 541.159 807.499Z" fill="white"/>
<path d="M519.881 124.165C515.057 123.514 509.853 124.535 504.539 126.717C485.243 134.824 466.457 154.45 452.186 170.033C445.08 178.51 436.323 185.896 438.014 194.363L438.044 194.483C439.956 200.198 447.262 201.038 452.756 200.438C466.317 199.027 475.835 189.879 486.744 181.542C494.08 175.898 501.987 171.013 510.103 166.54C520.672 160.325 530.861 156.131 535.184 145.993C539.338 135.684 530.27 125.136 519.881 124.165ZM533.993 147.504V147.464C534.073 146.894 534.093 147.224 533.993 147.504Z" fill="white"/>
<path d="M516.138 386.601C454.457 338.572 145.733 299.95 104.088 367.385C98.0234 395.539 95.6915 425.263 97.4429 454.748C98.2135 467.878 99.8049 480.959 102.237 493.83C113.136 551.668 140.959 605.252 188.388 639.9C197.696 646.696 207.764 652.771 218.603 657.995C219.694 658.526 220.795 659.046 221.896 659.557C259.927 675.019 273.568 706.045 298.959 706.045C325.981 706.045 326.982 682.025 379.376 663.81C387.142 661.108 394.628 657.875 401.804 654.152C411.592 649.098 420.83 643.133 429.487 636.397C474.034 601.739 503.378 546.653 514.807 488.145C517.009 476.846 518.55 465.416 519.391 453.987C521.092 431.218 520.052 408.439 516.138 386.601ZM299.199 586.346C259.447 586.346 227.23 538.627 227.23 479.758C227.23 420.89 259.447 373.17 299.199 373.17C338.952 373.17 371.159 420.89 371.159 479.758C371.159 538.627 338.942 586.346 299.199 586.346Z" fill="white"/>
<path d="M529.149 368.596C467.989 324.94 387.632 320.677 314.972 312.6C266.913 309.238 202.88 301.711 134.824 320.727C90.7874 335.739 77.8467 361.04 83.7816 317.594C99.2644 136.045 472.032 154.13 541.159 284.607C556.171 311.72 558.273 392.927 529.149 368.596Z" fill="white"/>
<path d="M438.394 33.3899L438.294 33.1997C425.083 6.89804 396.279 -7.20359 371.019 8.01897C356.737 16.6961 347.149 32.329 341.624 48.1421C330.455 81.4195 331.616 122.133 351.462 151.597C358.799 162.306 369.327 171.043 381.357 173.836C423.212 181.952 447.041 133.372 449.594 96.2718C451.575 74.714 447.542 50.494 438.394 33.3899ZM367.015 72.5122H367.025C367.025 72.6323 367.025 73.513 367.025 73.453C367.015 73.4429 366.995 72.6623 367.015 72.5122ZM413.274 96.8923C412.323 107.871 409.26 117.229 404.056 124.995L403.956 125.146C386.271 149.986 368.366 123.774 365.824 103.748C363.763 88.2652 366.145 72.1019 374.391 59.3113C380.597 49.8635 390.695 47.0111 399.772 54.9877C410.631 64.2754 414.525 81.8799 413.274 96.8923Z" fill="white"/>
<path d="M286.109 32.7494L286.008 32.5692C271.416 3.83552 241.762 -11.287 215.1 10.0006C202.169 20.2891 193.112 36.7126 188.278 52.8259C178.77 85.8632 181.252 126.317 203 154.12C214.99 169.282 234.486 176.908 253.121 170.693C281.044 161.536 295.066 131.201 298.199 101.336C300.871 78.5171 296.257 51.4648 286.109 32.7494ZM253.962 132.822L253.842 132.892C235.857 142.05 223.947 115.378 222.856 100.495C221.785 90.8073 223.017 80.5588 226.419 71.4913C230.623 59.1412 243.053 43.2681 256.494 54.2972C277.021 72.0018 276.361 118.07 253.962 132.822Z" fill="white"/>
</svg>
