<svg width="804" height="819" viewBox="0 0 804 819" fill="none" xmlns="http://www.w3.org/2000/svg">
<path d="M66.7947 359.017C63.7536 354.895 60.6425 350.604 57.2313 346.772C42.4462 329.867 24.8701 326.365 10.7352 344.102C5.36337 350.844 1.14188 360.277 0.201552 368.59C-2.97955 404.262 32.0325 437.954 67.1947 436.894C73.3168 436.874 79.559 436.894 85.401 438.574C114.571 448.748 143.831 468.094 177.373 468.225C187.716 468.184 197.98 467.104 208.334 465.554C211.595 465.033 216.186 463.933 218.117 461.822C222.608 456.781 216.316 448.998 211.144 443.966C202.111 435.203 188.887 435.033 176.963 434.633C157.766 433.573 138.389 425.59 121.654 416.507C113.111 411.885 111.24 406.523 112.66 397.15C116.082 373.532 102.507 343.281 81.0296 334.458C76.0979 332.417 68.2152 331.947 65.5543 337.189C62.4132 345.672 75.1175 353.705 76.488 362.718C77.2382 365.889 75.5475 367.88 72.0663 364.939C70.1156 363.318 68.5152 361.257 66.9446 359.197L66.8145 359.017H66.7947Z" fill="white"/>
<path d="M787.614 442.095C813.813 418.687 808.741 363.598 771.348 359.587C764.186 358.897 757.164 361.528 752.742 367.29C746.9 374.632 741.778 388.977 733.855 393.839C732.965 394.429 731.495 394.859 731.645 393.359C732.085 390.578 733.785 387.977 735.196 384.796C738.287 377.663 740.678 371.221 737.847 365.899C732.415 356.926 711.327 367.89 702.284 382.785C697.143 390.428 693.741 399.201 692.551 408.194C692.081 411.685 691.901 415.246 692.091 418.747C692.321 425.43 695.272 432.452 691.911 438.324C690.39 441.045 687.379 443.266 684.518 444.926C663.141 457.161 637.652 463.043 613.304 461.392C609.482 461.192 605.641 460.962 601.89 461.462C593.647 462.342 582.083 469.415 580.422 476.857C579.322 493.853 637.102 494.554 648.636 492.253C657.949 491.092 666.162 488.532 675.045 485.631C689.24 481.179 703.765 474.867 716.589 467.664C725.632 462.693 735.246 464.533 745.439 463.813C761.565 462.352 776.5 453.76 787.474 442.246L787.614 442.105V442.095Z" fill="white"/>
<path d="M314.74 752.153C304.557 720.122 306.318 684.159 313.74 651.728C313.51 649.247 311.739 649.297 310.739 648.217C305.817 642.935 299.015 638.714 292.733 635.222C291.452 634.512 285.24 630.861 284.74 631.231C282.819 638.564 280.058 645.716 278.008 652.999C269.795 682.249 266.494 709.338 274.727 739.158C276.807 746.701 280.198 753.964 283.64 760.956C283.369 761.006 283.069 761.076 282.729 761.146C279.278 760.156 275.147 758.815 271.726 758.145C248.067 753.513 221.078 757.365 198.7 766.138C188.777 770.029 173.632 778.002 169.49 788.425C165.209 799.199 169.81 806.502 179.694 811.113C204.112 822.517 270.665 818.786 297.925 813.794C304.827 812.534 313.38 810.943 319.742 808.112C321.183 807.472 321.703 806.762 322.743 806.112C326.384 803.821 330.056 801.74 331.286 797.138C333.457 788.976 322.173 769.889 318.742 761.136C317.661 758.365 315.501 754.544 314.74 752.143V752.153Z" fill="white"/>
<path d="M634.851 807.112C632.68 808.773 630.38 810.113 627.849 811.113C601.51 821.577 545.26 819.166 516.81 815.115C507.557 813.794 491.352 811.243 483.799 806.122C468.033 795.408 481.858 780.833 486.8 769.139C501.405 734.547 508.107 693.863 497.094 657.42C496.113 654.189 491.792 647.757 493.802 645.216C496.363 641.995 515.91 629.19 519.361 629.48C520.332 629.66 520.382 630.611 520.812 631.231C522.062 633.052 522.822 635.492 523.813 637.223C525.163 639.584 526.674 641.675 527.814 644.215C544.96 682.269 542.579 718.101 527.264 756.094C526.834 757.165 524.833 759.565 526.814 760.146C548.051 751.293 588.785 757.465 609.843 766.138C618.466 769.699 634.351 778.892 638.853 787.125C643.024 794.768 641.584 801.98 634.851 807.112Z" fill="white"/>
<path d="M613.584 124.105C608.762 123.455 603.56 124.475 598.248 126.656C578.962 134.759 560.185 154.376 545.92 169.951C538.818 178.424 530.065 185.807 531.755 194.27L531.785 194.39C533.696 200.102 540.999 200.942 546.49 200.342C560.045 198.931 569.559 189.788 580.462 181.455C587.795 175.813 595.698 170.932 603.81 166.46C614.374 160.248 624.558 156.056 628.879 145.923C633.031 135.619 623.967 125.076 613.584 124.105ZM627.689 147.433V147.393C627.769 146.823 627.789 147.153 627.689 147.433Z" fill="white"/>
<path d="M609.843 386.416C548.191 338.41 239.614 299.806 197.99 367.21C193.228 389.287 190.777 412.325 190.777 435.463C190.777 446.147 191.308 456.851 192.388 467.484C199.17 535.008 227.77 599.79 282.249 639.594C291.552 646.386 301.616 652.458 312.45 657.68C313.54 658.21 314.64 658.731 315.741 659.241C353.754 674.696 367.389 705.707 392.767 705.707C419.777 705.707 420.777 681.698 473.145 663.492C480.908 660.791 488.39 657.56 495.563 653.839C505.346 648.787 514.579 642.825 523.232 636.093C566.848 602.161 595.878 548.642 607.782 491.503C609.863 481.529 611.413 471.446 612.434 461.342C614.984 436.083 614.194 410.665 609.843 386.416ZM402.851 555.355C327.875 555.355 267.014 486.401 267.014 435.773C267.014 385.146 327.875 435.523 402.851 435.523C477.827 435.523 538.558 385.156 538.558 435.773C538.558 486.391 477.837 555.355 402.851 555.355Z" fill="white"/>
<path d="M622.847 368.42C561.716 324.785 481.398 320.523 408.773 312.451C360.736 309.089 296.734 301.567 228.711 320.573C184.695 335.579 171.761 360.867 177.693 317.442C193.168 135.979 565.757 154.056 634.851 284.471C649.856 311.57 651.957 392.738 622.847 368.42Z" fill="white"/>
<path d="M532.136 33.3739L532.036 33.1838C518.831 6.89474 490.041 -7.20014 464.792 8.01513C450.517 16.6881 440.934 32.3135 435.412 48.119C424.248 81.3805 425.409 122.075 445.246 151.525C452.578 162.229 463.102 170.962 475.126 173.753C516.961 181.865 540.779 133.309 543.33 96.2257C545.31 74.6782 541.279 50.4698 532.136 33.3739ZM460.791 72.4774H460.801C460.811 72.5975 460.811 73.4778 460.801 73.4178C460.791 73.4078 460.771 72.6275 460.791 72.4774ZM507.027 96.8459C506.077 107.82 503.016 117.173 497.814 124.936L497.714 125.086C480.038 149.914 462.142 123.715 459.601 103.698C457.54 88.2229 459.921 72.0673 468.164 59.2829C474.366 49.8396 484.459 46.9886 493.532 54.9614C504.386 64.2446 508.277 81.8407 507.027 96.8459Z" fill="white"/>
<path d="M379.923 32.7337L379.823 32.5536C365.238 3.83368 335.597 -11.2816 308.948 9.99582C296.024 20.2794 286.971 36.6951 282.139 52.8006C272.636 85.8221 275.117 126.256 296.854 154.046C308.838 169.201 328.325 176.824 346.951 170.611C374.861 161.458 388.876 131.138 392.007 101.287C394.678 78.4795 390.066 51.4402 379.923 32.7337ZM347.792 132.758L347.672 132.828C329.695 141.982 317.791 115.322 316.701 100.447C315.631 90.7638 316.861 80.5202 320.262 71.4571C324.464 59.1128 336.888 43.2473 350.323 54.2711C370.84 71.9673 370.18 118.013 347.792 132.758Z" fill="white"/>
</svg>
