<svg width="682" height="819" viewBox="0 0 682 819" fill="none" xmlns="http://www.w3.org/2000/svg">
<path d="M607.717 625.448C606.956 630.523 606.116 635.757 605.816 640.881C604.314 663.3 614.272 678.212 636.821 675.66C645.388 674.689 655.046 671.006 661.591 665.782C689.074 642.793 688.144 594.203 662.523 570.073C658.179 565.749 653.775 561.316 650.832 556.001C637.401 528.168 630.376 493.78 606.736 469.96C599.39 462.664 591.363 456.169 582.936 449.954C580.264 448.012 576.231 445.55 573.379 445.67C566.633 446.06 565.582 456.009 565.682 463.245C565.872 475.835 575.11 485.313 583.267 494.03C596.097 508.362 604.154 527.718 609.578 545.983C612.351 555.301 609.878 560.415 602.252 566.039C583.126 580.331 571.327 611.327 580.285 632.764C582.326 637.699 587.571 643.603 593.166 641.782C601.392 638.009 598.079 623.337 603.484 615.991C605.195 613.218 607.808 613.008 608.178 617.552C608.408 620.084 608.087 622.666 607.737 625.238L607.707 625.458L607.717 625.448Z" fill="white"/>
<path d="M1.66686 284.887C-7.96109 251.08 25.8074 207.223 59.5652 223.837C65.9905 227.08 70.5139 233.065 71.1744 240.301C72.1852 249.628 68.8322 264.501 72.9356 272.847C73.376 273.818 74.3869 274.969 75.0575 273.628C76.1684 271.046 79.6717 267.543 80.9628 264.32C84.6958 254.983 90.4705 245.815 96.3954 246.896C106.294 248.708 105.863 262.979 105.533 280.404C105.793 289.621 103.971 298.849 100.168 307.086C98.6968 310.288 96.9456 313.401 94.9039 316.253C91.1308 321.778 84.8861 326.141 84.5859 332.897C84.4157 336.01 85.7768 339.502 87.2981 342.435C98.8176 364.213 117.222 382.828 138.69 394.458C142.033 396.339 178.103 413.594 181.005 416.026C187.501 421.19 185.178 432.219 182.606 439.395C174.439 454.347 100.829 409.75 92.312 401.634C85.066 395.669 79.4909 389.103 73.526 381.907C63.908 370.548 55.0112 357.447 48.0254 344.497C43.0413 335.449 33.9342 331.866 25.6974 325.801C12.8468 315.933 4.82951 300.68 1.70693 285.078L1.66686 284.887Z" fill="white"/>
<path d="M290.905 752.513C280.717 720.467 282.478 684.487 289.904 652.04C289.674 649.558 287.903 649.608 286.902 648.527C281.978 643.243 275.172 639.02 268.887 635.527C267.606 634.816 261.392 631.163 260.891 631.533C258.97 638.87 256.207 646.025 254.155 653.311C245.938 682.576 242.635 709.678 250.872 739.513C252.954 747.059 256.347 754.325 259.79 761.321C259.519 761.371 259.219 761.441 258.879 761.511C255.426 760.52 251.292 759.179 247.87 758.508C224.2 753.874 197.198 757.728 174.809 766.505C164.881 770.398 149.728 778.375 145.585 788.803C141.301 799.582 145.905 806.888 155.794 811.502C180.224 822.911 246.809 819.178 274.082 814.184C280.987 812.923 289.544 811.332 295.909 808.5C297.35 807.859 297.871 807.148 298.912 806.498C302.555 804.206 306.228 802.124 307.459 797.52C309.631 789.354 298.341 770.258 294.908 761.501C293.828 758.728 291.666 754.905 290.905 752.503V752.513Z" fill="white"/>
<path d="M611.169 807.499C608.997 809.16 606.695 810.501 604.163 811.502C577.812 821.971 521.535 819.559 493.072 815.505C483.814 814.184 467.601 811.632 460.044 806.508C444.271 795.789 458.103 781.207 463.047 769.507C477.659 734.899 484.365 694.195 473.345 657.735C472.365 654.502 468.041 648.067 470.053 645.525C472.615 642.302 492.171 629.492 495.624 629.782C496.594 629.962 496.645 630.913 497.075 631.533C498.326 633.355 499.087 635.797 500.077 637.528C501.429 639.89 502.94 641.982 504.081 644.524C521.235 682.596 518.853 718.445 503.53 756.457C503.1 757.528 501.098 759.929 503.08 760.51C524.327 751.653 565.081 757.828 586.148 766.505C594.776 770.068 610.669 779.265 615.172 787.502C619.346 795.149 617.905 802.365 611.169 807.499Z" fill="white"/>
<path d="M589.892 124.165C585.068 123.514 579.864 124.535 574.549 126.717C555.254 134.824 536.468 154.45 522.197 170.033C515.091 178.51 506.333 185.896 508.025 194.363L508.055 194.483C509.967 200.198 517.272 201.038 522.766 200.438C536.328 199.027 545.845 189.879 556.754 181.542C564.091 175.898 571.998 171.013 580.115 166.54C590.683 160.325 600.871 156.131 605.195 145.993C609.348 135.684 600.281 125.136 589.892 124.165ZM604.003 147.504V147.464C604.084 146.894 604.104 147.224 604.003 147.504Z" fill="white"/>
<path d="M586.149 386.601C524.468 338.572 215.743 299.95 174.099 367.385C171.176 380.957 169.115 394.898 167.974 409C167.103 419.649 166.753 430.387 166.933 441.136C168.244 517.9 196.778 594.873 258.399 639.9C267.706 646.696 277.774 652.771 288.613 657.995C289.704 658.526 290.805 659.046 291.906 659.557C329.937 675.019 343.579 706.045 368.969 706.045C395.992 706.045 396.993 682.025 449.386 663.81C457.153 661.108 464.639 657.875 471.815 654.152C481.603 649.098 490.84 643.133 499.497 636.397C542.473 602.97 571.297 550.517 583.537 494.32C586.38 481.279 588.331 468.039 589.342 454.788C591.123 431.759 590.112 408.69 586.149 386.601ZM379.058 555.621C304.046 555.621 243.156 486.634 243.156 435.982C243.156 385.33 304.046 435.732 379.058 435.732C454.07 435.732 514.83 385.34 514.83 435.982C514.83 486.624 454.08 555.621 379.058 555.621Z" fill="white"/>
<path d="M599.159 368.596C537.999 324.94 457.642 320.677 384.982 312.6C336.923 309.238 272.89 301.711 204.834 320.727C160.797 335.739 147.857 361.04 153.792 317.594C169.274 136.045 542.042 154.13 611.169 284.607C626.181 311.72 628.283 392.927 599.159 368.596Z" fill="white"/>
<path d="M508.405 33.3899L508.305 33.1997C495.094 6.89804 466.29 -7.20359 441.029 8.01897C426.747 16.6961 417.159 32.329 411.635 48.1421C400.465 81.4195 401.626 122.133 421.473 151.597C428.809 162.306 439.338 171.043 451.368 173.836C493.222 181.952 517.052 133.372 519.605 96.2718C521.586 74.714 517.552 50.494 508.405 33.3899ZM437.026 72.5122C437.036 72.6323 437.036 73.513 437.026 73.453C437.026 73.4429 436.996 72.6623 437.026 72.5122ZM483.284 96.8923C482.334 107.871 479.271 117.229 474.067 124.995L473.966 125.146C456.282 149.986 438.377 123.774 435.835 103.748C433.773 88.2652 436.155 72.1019 444.402 59.3113C450.607 49.8635 460.706 47.0111 469.783 54.9877C480.642 64.2754 484.536 81.8799 483.284 96.8923Z" fill="white"/>
<path d="M356.119 32.7494L356.019 32.5692C341.427 3.83552 311.772 -11.287 285.11 10.0006C272.179 20.2891 263.122 36.7126 258.288 52.8259C248.78 85.8632 251.262 126.317 273.01 154.12C285 169.282 304.496 176.908 323.131 170.693C351.054 161.536 365.076 131.201 368.209 101.336C370.881 78.5171 366.267 51.4648 356.119 32.7494ZM323.972 132.822L323.852 132.892C305.867 142.05 293.957 115.378 292.866 100.495C291.795 90.8073 293.027 80.5588 296.43 71.4913C300.633 59.1412 313.063 43.2681 326.504 54.2972C347.031 72.0018 346.37 118.07 323.972 132.822Z" fill="white"/>
</svg>
