<svg width="42" height="17" viewBox="0 0 42 17" fill="none" xmlns="http://www.w3.org/2000/svg">
<path d="M0.406249 16.7072V13.6603H4.72265V4.64667L1.52344 6.7287L8.70203e-08 4.3166L5.07812 0.254104H8.12499V13.6603H12.0351V16.7072H0.406249ZM18.5117 4.54511C18.0039 5.52688 17.75 6.83873 17.75 8.48065C17.75 10.1226 18.0039 11.4429 18.5117 12.4416C19.0195 13.4234 19.7474 13.9142 20.6953 13.9142C21.6432 13.9142 22.3711 13.4234 22.8789 12.4416C23.3867 11.4429 23.6406 10.1226 23.6406 8.48065C23.6406 6.83873 23.3867 5.52688 22.8789 4.54511C22.3711 3.54642 21.6432 3.04707 20.6953 3.04707C19.7474 3.04707 19.0195 3.54642 18.5117 4.54511ZM15.9473 14.5998C14.7285 13.0086 14.1191 10.9689 14.1191 8.48065C14.1191 5.99238 14.7285 3.96113 15.9473 2.38691C17.166 0.795769 18.7487 0.000197044 20.6953 0.000197044C22.6419 0.000197044 24.2246 0.795769 25.4433 2.38691C26.6621 3.96113 27.2715 5.99238 27.2715 8.48065C27.2715 10.9689 26.6621 13.0086 25.4433 14.5998C24.2246 16.174 22.6419 16.9611 20.6953 16.9611C18.7487 16.9611 17.166 16.174 15.9473 14.5998ZM33.2402 4.54511C32.7324 5.52688 32.4785 6.83873 32.4785 8.48065C32.4785 10.1226 32.7324 11.4429 33.2402 12.4416C33.7481 13.4234 34.4759 13.9142 35.4238 13.9142C36.3717 13.9142 37.0996 13.4234 37.6074 12.4416C38.1152 11.4429 38.3691 10.1226 38.3691 8.48065C38.3691 6.83873 38.1152 5.52688 37.6074 4.54511C37.0996 3.54642 36.3717 3.04707 35.4238 3.04707C34.4759 3.04707 33.7481 3.54642 33.2402 4.54511ZM30.6758 14.5998C29.457 13.0086 28.8477 10.9689 28.8477 8.48065C28.8477 5.99238 29.457 3.96113 30.6758 2.38691C31.8945 0.795769 33.4772 0.000197044 35.4238 0.000197044C37.3704 0.000197044 38.9531 0.795769 40.1719 2.38691C41.3906 3.96113 42 5.99238 42 8.48065C42 10.9689 41.3906 13.0086 40.1719 14.5998C38.9531 16.174 37.3704 16.9611 35.4238 16.9611C33.4772 16.9611 31.8945 16.174 30.6758 14.5998Z" fill="white"/>
</svg>
