<svg width="140" height="140" viewBox="0 0 140 140" fill="none" xmlns="http://www.w3.org/2000/svg">
<rect width="140" height="140" fill="#0A0400"/>
<path d="M38.0607 46.3977C36.8364 48.3226 36.5557 50.7888 36.3189 53.0113C37.7191 53.1399 38.1927 52.1893 39.1295 51.533C44.0472 48.0824 48.9514 46.8071 54.8025 48.7556C55.2287 48.8977 57.3257 49.8788 57.4678 49.8483C58.2693 49.6758 57.6199 46.232 57.3663 45.5926C56.1081 42.4397 52.638 42.3044 49.7124 42.4093C49.2389 41.3166 48.9345 40.1495 48.3392 39.111C48.1126 38.7185 47.5309 37.6563 47.0506 37.751C46.107 37.9371 44.9503 39.0365 44.0033 39.385C45.3866 40.1021 46.4181 41.161 47.0134 42.6224C44.169 42.4296 39.647 43.9214 38.0675 46.4011L38.0607 46.3977Z" fill="url(#paint0_linear_492_6828)"/>
<path d="M54.1667 74.8446C55.2795 75.281 56.4767 75.5077 57.6435 75.7343C59.0742 76.0117 63.4981 76.8541 64.692 76.6477C65.1723 76.5632 66.072 76.0794 66.5827 75.9035C67.621 75.5381 71.1757 72.2398 72.1498 71.3027C72.2851 71.1742 72.5793 71.0896 72.5929 71.0693C72.7112 70.9002 72.0855 69.9935 71.8521 69.8785C71.2704 69.2256 70.8882 68.363 70.3437 67.6966C68.0269 64.8718 61.9863 60.8225 58.2422 61.1608C57.9378 61.1878 56.2332 61.5295 56.0844 61.6378C55.8848 61.7866 54.2682 64.3914 54.0551 64.8042C52.7766 67.2771 52.1983 69.8176 52.7935 72.6018L54.16 74.8413L54.1667 74.8446ZM58.4621 68.045C60.3561 63.9855 65.8961 66.2385 64.4418 70.413L64.6278 70.7818C64.3775 70.5145 63.2208 71.8677 63.1126 72.0707L63.1227 72.4394L62.7439 72.3311C59.5917 74.1376 56.9604 71.2757 58.4655 68.045H58.4621Z" fill="url(#paint1_linear_492_6828)"/>
<path d="M26.6121 68.3697C26.8623 68.478 26.8116 68.2716 26.8657 68.1803C27.505 67.0944 27.9277 66.1303 28.7936 65.1391C31.2964 62.2805 36.9379 59.3813 40.7563 59.3272C42.5726 59.3002 44.3854 59.9125 46.107 60.3895C46.2626 60.2305 45.576 59.104 45.4204 58.8942C42.9345 55.5722 38.9672 54.7434 34.9897 55.244C34.824 54.8043 34.6245 54.3814 34.3674 53.9856C34.0664 53.5255 33.0653 52.4159 32.9266 52.0979C32.8184 51.8544 33.0111 51.577 32.9435 51.4924C32.8589 51.3875 32.629 51.4044 32.5343 51.3368C32.4193 51.2522 32.3888 51.1 32.3685 51.0898C31.7395 50.7718 29.3821 52.3753 28.7969 52.7847C28.7969 53.0046 31.1036 55.1662 31.4317 55.5688C31.5433 55.7075 32.0811 56.3604 31.9559 56.472C31.3201 56.4585 30.7045 56.8509 30.1464 57.1486C26.6966 58.9754 24.6098 61.9659 25.3573 66.0119C25.5061 66.817 25.797 68.0145 26.6188 68.3664L26.6121 68.3697Z" fill="url(#paint2_linear_492_6828)"/>
<path d="M75.9175 32.8289C76.019 32.6936 73.78 30.6198 73.3132 30.7382C72.7856 30.8702 70.6312 34.0907 70.1949 34.7199C68.9604 34.5643 67.7699 34.0975 66.5117 34.0264C62.8962 33.8302 58.6617 35.8735 56.7947 39.0027C58.9255 38.4716 61.1442 38.8099 63.2716 39.2293C66.7484 39.9127 70.4181 41.3369 73.0596 43.7489C73.3606 44.0263 74.3415 45.4979 74.7135 45.1833C74.6966 43.6237 77.2941 41.9695 77.1216 40.6028C76.9389 39.1854 74.1994 36.8545 72.9142 36.2253C73.4147 34.8045 74.3718 33.2484 75.9209 32.8323L75.9175 32.8289Z" fill="url(#paint3_linear_492_6828)"/>
<path d="M77.426 47.4397L78.4711 46.6041C83.1858 44.4965 89.1216 45.349 93.5387 47.8152C94.7969 48.5188 96.2141 49.5066 96.7011 50.9038C96.8803 50.9275 96.8972 50.9579 97.0122 50.8124C97.2321 50.5317 97.5195 49.5033 97.6041 49.0973C97.6751 49.0601 97.7056 48.9857 97.7563 48.9451C98.2771 48.5154 97.8814 48.688 97.7563 48.3429C97.7022 48.1941 97.6616 48.0418 97.6041 47.8896C97.4012 47.3314 97.2388 46.9255 97.0021 46.3842C96.0753 44.2631 94.9998 42.9303 92.8183 41.9086C92.338 41.6853 90.3561 41.1711 90.2614 41.0764C90.0585 40.8768 89.8894 37.3011 89.3415 36.5298C89.1047 36.1983 87.1329 36.567 86.683 36.7328C86.1622 36.9256 85.8273 37.3485 85.2591 37.3451C85.4249 37.6698 86.152 37.7645 85.4079 38.0183C85.6684 38.3058 86.8352 39.9127 86.612 40.2036C82.0596 39.4154 77.4158 42.6326 77.4293 47.4329L77.426 47.4397Z" fill="url(#paint4_linear_492_6828)"/>
<path d="M40.5331 71.8372C41.2671 71.8812 45.9953 72.9536 46.2557 72.825C46.6379 72.6356 46.9897 70.254 47.0506 69.7026C47.1825 68.5017 46.8646 66.2419 46.4114 65.1289C46.2964 64.8515 45.1227 62.6357 45.0077 62.541C44.8319 62.3989 43.3336 62.0775 43.0156 62.0471C39.1769 61.6885 34.8477 62.7067 31.8714 65.2033C31.3708 65.6228 28.3573 68.6235 28.7868 69.1208L36.7654 70.9272C36.8364 70.5213 36.4914 70.6363 36.2817 70.2879C36.0551 69.9123 35.612 68.9042 35.5173 68.4915C35.0709 66.6005 36.8026 64.5572 38.7609 64.7906C41.0675 65.0646 42.2817 67.4124 41.8217 69.5842C41.6391 70.4435 40.8274 71.0389 40.5331 71.8338V71.8372Z" fill="url(#paint5_linear_492_6828)"/>
<path d="M91.1746 59.5167C90.0212 58.7758 89.409 59.1547 90.4643 57.3922C91.5601 55.562 93.1261 55.4335 94.8916 54.5945C92.037 52.5411 89.4158 53.9382 87.2884 56.1743C86.7608 56.7291 86.5579 57.6222 85.709 57.6831C83.8183 56.7799 81.3662 57.2535 79.4959 58.0214C79.0325 58.2109 77.3042 58.9551 77.4496 59.5302C77.639 60.2677 78.8397 60.9815 78.6334 62.0538C81.6774 61.2183 85.4654 62.4632 88.1171 64.0092C89.4835 64.8075 93.8059 68.7655 94.2219 70.1762C94.3809 70.7107 94.1915 71.0219 94.1407 71.5361C95.5511 71.0456 95.8285 71.2757 96.099 69.7297C96.116 69.6349 96.0855 69.5233 96.099 69.4286C96.718 64.8515 94.9491 61.9388 91.1779 59.5167H91.1746Z" fill="url(#paint6_linear_492_6828)"/>
<path d="M76.9322 77.0841L91.868 72.3514C89.8691 67.5105 84.3122 63.6201 78.9311 64.3069V66.4922C78.9311 67.5105 76.8375 70.8122 76.0562 71.597C75.7823 71.8711 74.426 72.7439 74.4057 72.8453C74.1994 73.9008 75.9446 76.5327 76.9322 77.0841ZM81.603 67.3583C83.4361 67.1147 85.0495 68.3528 85.1137 70.254C85.2186 73.417 81.806 76.1166 79.4554 73.0449C77.7981 70.8832 78.8093 67.7304 81.6064 67.3583H81.603Z" fill="url(#paint7_linear_492_6828)"/>
<path d="M51.0314 65.4672C51.4846 65.1086 52.1881 63.2006 52.665 62.5105C52.851 62.2399 53.311 61.9557 53.4159 61.7426C53.5681 61.4348 53.0945 61.0288 52.9829 60.6635C52.3403 58.5153 52.9965 56.966 54.3899 55.3489C54.7417 54.943 55.4823 54.4491 55.6988 54.175C55.8781 53.945 55.8578 53.5898 56.1081 53.2989C56.2671 53.1128 56.6188 53.0215 56.6357 52.9978C56.7236 52.876 56.4293 52.4937 56.3786 52.2975C56.3313 52.1182 56.5309 51.9017 56.3516 51.7326C56.1385 51.533 54.6943 51.0222 54.3121 50.9004C50.3178 49.6386 46.0326 49.8855 42.3358 51.8781C41.6695 52.2366 41.1115 52.8253 40.3809 53.0113L45.5759 55.7177C45.9852 53.1297 48.4339 51.3774 50.7541 53.2481C53.3787 55.3624 51.7789 59.8211 48.3561 59.6351C48.3291 60.3083 48.6842 61.1235 48.4779 61.79C48.3697 62.1418 47.8184 62.2128 47.7676 62.4361C47.7203 62.6289 49.408 65.4469 49.2625 66.11C49.7225 65.8156 50.6323 65.7717 51.0247 65.4604L51.0314 65.4672Z" fill="url(#paint8_linear_492_6828)"/>
<path d="M59.957 51.6548C62.3178 51.1135 64.7123 51.303 67.0325 51.9592C67.8341 49.554 70.3133 47.6021 72.9074 47.5885C72.2783 46.9153 71.6594 46.144 70.9525 45.5554C68.3922 43.4208 61.5263 40.5081 58.2557 41.4452C57.9987 41.5196 57.7688 41.9221 57.5523 42.0913C60.2479 43.4208 60.789 46.6921 60.559 49.4694C60.4812 50.393 60.1126 50.8598 59.9604 51.6548H59.957ZM63.6876 44.165C64.2321 44.1007 64.8578 44.1853 65.3854 44.3477C69.5962 45.6535 66.7281 52.5107 62.4192 50.3287C59.8995 49.0499 60.6334 44.5236 63.6909 44.165H63.6876Z" fill="url(#paint9_linear_492_6828)"/>
<path d="M87.5083 50.3794C88.3538 50.7008 88.8747 51.7596 89.2502 51.8104C89.6966 51.8713 91.1543 51.4011 91.8036 51.3571C92.4057 51.3165 93.1295 51.2827 93.6808 51.5059C93.7552 51.215 93.5692 51.215 93.4305 51.0797C91.0427 48.759 85.8409 47.8016 82.6177 48.0418C82.0393 48.0858 79.2355 48.5899 78.9176 48.8977C77.93 49.8517 79.0596 52.2434 79.0765 53.4613L78.6267 53.0079C78.6537 52.8523 78.6402 52.5749 78.6267 52.4058C78.6064 52.1318 78.4204 51.8138 78.4745 51.5025C78.0821 51.6006 78.3054 52.0506 78.3257 52.4058C78.3426 52.7102 78.4407 53.0452 78.4779 53.309C78.5827 54.1108 78.6335 54.9227 78.8567 55.721C80.1859 55.2339 81.5997 55.0478 83.0033 54.8956C83.1859 54.784 82.9829 53.9518 83.0133 53.5526C83.2027 51.1067 85.0325 49.4288 87.5117 50.3727L87.5083 50.3794Z" fill="url(#paint10_linear_492_6828)"/>
<path d="M76.2998 67.1722C77.3313 63.1871 74.8488 58.7623 71.5546 56.6277C71.4869 56.2082 72.2276 54.9396 72.5151 54.4998C73.1882 53.4646 74.1047 52.6764 74.8454 51.7055C74.9029 51.0188 72.1329 50.0547 71.4937 50.1528C70.3167 50.3321 68.47 53.6101 68.3922 54.8212C64.9356 53.6541 61.8544 53.1263 58.5061 54.9464C56.6695 55.9443 55.7969 57.0708 55.3099 59.131C55.2524 59.3712 55.293 59.361 55.5196 59.3408C56.0946 59.2968 56.7642 59.2494 57.3257 59.1851C57.904 59.1209 58.8104 58.8029 59.2501 58.7792C59.9807 58.742 61.7429 59.1987 62.5208 59.4118C65.2502 60.1662 67.638 61.587 69.9007 63.2514C71.7068 64.9868 74.0032 66.8948 74.5681 69.4252C75.6537 69.2155 76.0495 68.1397 76.3032 67.1688L76.2998 67.1722Z" fill="url(#paint11_linear_492_6828)"/>
<path d="M99.3324 63.2514C99.9817 63.7521 100.469 64.4997 101.064 65.0579L101.521 59.7061C101.341 58.2684 99.1531 57.1047 97.8104 57.0911C97.2625 57.0844 94.9558 57.6391 94.6244 58.0045C94.5939 58.0383 94.7191 58.5525 94.1374 58.654C94.6616 59.3746 95.6086 59.926 96.1768 60.5315C96.5556 60.9341 97.002 61.8272 97.3064 62.1114C97.6785 62.4564 98.798 62.8353 99.3324 63.248V63.2514Z" fill="url(#paint12_linear_492_6828)"/>
<path d="M101.365 51.5837C101.345 51.3706 101.294 50.6805 101.067 50.6061C100.509 51.9559 99.6808 53.1636 99.559 54.669C100.263 54.6757 100.919 54.9294 101.514 55.2711C101.622 55.1223 101.412 52.0675 101.365 51.5837Z" fill="url(#paint13_linear_492_6828)"/>
<path d="M100.313 80.1186C100.75 80.2032 100.634 79.8818 100.611 79.5976C100.503 78.2851 100.476 77.4123 100.469 76.1335C100.462 74.9529 100.462 73.7689 100.462 72.5882C95.9434 74.185 91.3132 75.4637 86.7608 76.9556C83.6965 77.9603 80.426 78.9752 77.426 80.1186C76.0596 80.2404 74.6459 80.7681 73.2828 80.8696C69.4711 81.1571 64.5094 79.7871 60.7112 79.0665C53.0539 77.6085 45.4204 75.9948 37.824 74.2459C35.3787 73.8501 32.9976 73.1633 30.5963 72.5882C30.4948 72.5646 30.3832 72.5172 30.2648 72.4766C30.2276 72.4529 30.187 72.436 30.1464 72.436C28.6346 72.074 18.4102 69.8041 17.9739 69.1005C17.2197 67.8826 20.4565 66.9726 20.6357 66.6884C20.7676 66.4821 20.4565 65.8258 21.072 66.1675C21.1025 66.1844 21.116 66.4212 21.1769 66.4144C21.2614 66.4043 22.709 65.8698 22.7631 65.8021C22.8206 65.7243 22.4317 64.2122 22.6143 63.8536C20.0405 64.3475 15.4035 65.7006 14.4768 68.4408C14.0709 69.6451 13.8646 73.0077 14.098 74.256C14.1521 74.5436 14.2366 74.7702 14.3854 75.0239C14.9435 75.9847 17.8454 76.7323 18.9683 77.0672C22.5264 78.1193 26.2062 78.9515 29.842 79.6687C30.8127 80.193 33.8465 80.6666 35.1115 80.9508C44.7507 83.1159 54.4575 85.1084 64.1746 86.8979C66.9141 87.402 69.6266 88.2646 72.4575 88.1023C76.0426 87.8993 80.1723 86.1943 83.6357 85.1997C89.2027 83.5996 94.9626 82.1281 100.313 80.1186ZM100.425 79.8412C100.425 79.8412 100.425 79.8277 100.425 79.8243C100.435 79.8243 100.445 79.8243 100.459 79.8209L100.425 79.8412Z" fill="url(#paint14_linear_492_6828)"/>
<path d="M125.456 64.909C125.243 64.8211 125.348 64.5809 125.304 64.4557C124.303 61.6073 120.441 62.6526 118.347 61.8813C118.222 61.834 118.205 61.6445 118.11 61.6073C117.762 61.4754 117.251 61.4754 116.96 61.2825C116.741 61.1371 116.812 60.8292 116.575 60.8428C116.463 61.6242 116.145 63.0653 116.967 63.5356C118.557 63.9855 120.765 63.5897 122.341 63.8908C122.808 63.9787 123.014 64.3914 122.757 64.8008C122.291 65.5349 115.641 67.3007 114.278 67.8082C113.125 68.2378 112.002 68.7622 110.852 69.1986C110.379 71.6715 110.636 74.327 109.949 76.8033L122.977 72.7405C123.627 72.6119 123.857 72.2364 124.256 71.8338C124.526 71.5564 124.736 71.5463 124.932 71.0795C125.108 70.6634 125.419 68.5964 125.46 68.0687C125.541 67.047 125.402 65.9374 125.46 64.9056L125.456 64.909Z" fill="url(#paint15_linear_492_6828)"/>
<path d="M113.629 65.0511C114.535 63.7825 114.353 61.1405 113.338 59.9395C112.881 59.3983 111.843 58.654 111.099 58.9044C110.835 58.9923 110.869 59.1885 110.845 59.405C110.696 60.677 110.69 64.6046 110.845 65.8968C110.991 67.0775 113.172 65.6905 113.629 65.0511Z" fill="url(#paint16_linear_492_6828)"/>
<path d="M113.193 86.4514C112.922 86.536 112.655 86.6408 112.364 86.5867C111.498 83.9041 112.651 81.4041 112.584 78.7621L101.551 82.7133C101.105 84.2491 101.071 85.8966 101.064 87.4967C102.129 87.3107 103.12 86.8202 104.189 86.6307C104.524 86.5732 106.543 86.2112 106.418 86.7491C106.283 87.3276 105.623 88.5894 105.119 88.9209L94.3504 92.4561L93.9987 92.7064C93.5049 94.7057 93.8363 96.7761 93.5353 98.7923C95.1689 98.3119 96.7552 97.5744 98.3888 97.0974C99.5455 96.7591 100.773 96.3363 101.967 96.6847C102.099 96.8336 101.277 98.6333 101.071 98.8329C100.885 99.0122 99.7788 99.3065 100.026 99.682C100.039 99.7023 100.279 99.6684 100.313 99.7936C100.418 100.183 100.06 101.641 100.009 102.182C99.9344 103.001 99.9818 103.85 99.86 104.665C102.583 103.647 105.329 102.669 108.041 101.62C108.234 101.546 108.373 101.38 108.444 101.35C108.853 101.191 110.632 100.771 110.818 100.562L111.606 95.1759C110.382 95.5481 109.141 95.8897 107.842 95.7781C107.717 95.3079 107.149 94.8715 107.46 94.2693C107.504 94.1847 108.907 93.2815 109.046 93.2172C112.303 91.6983 116.467 90.9879 119.815 89.6043C120.079 89.496 120.481 89.3979 120.64 89.151L121.391 83.2782C120.732 83.515 120.096 83.7958 119.433 84.0292C117.39 84.7599 115.181 85.8256 113.193 86.448V86.4514ZM121.09 83.5827V83.5928C121.043 83.6064 120.995 83.6199 120.948 83.6334C121.029 83.5895 121.08 83.5692 121.09 83.5827Z" fill="url(#paint17_linear_492_6828)"/>
<path d="M52.8815 110.24C54.5963 110.612 56.2805 111.099 57.9987 111.444L57.8567 105.22C57.8026 104.997 57.2716 105.024 57.0957 104.969C52.019 103.413 46.3369 102.311 41.1351 101.055C38.8285 100.497 36.5151 99.956 34.2084 99.3978C34.2389 101.387 34.2186 103.481 34.5805 105.426C35.4936 105.727 41.2569 107.195 41.6864 107.869C41.7 107.913 41.7135 107.957 41.7237 108.004C41.7643 108.474 41.4125 109.459 40.8342 109.489C40.5264 109.455 40.2828 109.519 39.9311 109.415C39.4948 109.286 38.8589 108.755 38.6492 108.728C38.3245 108.684 38.4226 109.019 38.2806 109.117C38.0303 109.286 37.0089 108.836 36.6199 108.735C34.205 108.116 31.7902 107.463 29.3922 106.776C29.4801 109.293 29.8725 111.759 30.4745 114.201C30.6233 114.492 32.6966 115.095 33.1904 115.25C35.5545 115.984 37.9965 116.512 40.3843 117.168L50.771 120.03L50.4497 112.219C48.9277 111.742 46.939 111.502 46.8578 109.489C48.833 109.144 50.9334 109.821 52.8815 110.24Z" fill="url(#paint18_linear_492_6828)"/>
<path d="M36.1633 90.883C35.541 91.0961 35.6831 91.3059 34.7395 91.2619C32.1791 91.1435 29.5376 89.902 26.9841 89.6077C27.0551 90.3485 27.2445 91.2145 27.2817 91.9419C27.3122 92.4696 27.1465 94.5941 27.4306 94.8038L47.913 99.6955C47.9198 98.9513 47.771 98.2544 47.7541 97.5034C47.7473 97.1583 47.93 96.7625 47.9198 96.6137C47.913 96.519 47.6222 96.5393 47.6256 96.4648C47.6357 96.0014 48.0111 95.1387 47.6256 94.6313C47.399 94.3336 43.9288 93.6604 43.1678 93.3661C42.7112 93.1902 40.8612 92.3681 41.0033 91.8099C41.1284 91.3059 41.8589 91.4209 42.2107 91.3194C45.0619 90.4805 47.8758 91.5359 50.7777 92.1584C50.7845 92.1584 50.7507 92.2835 50.8556 92.3072C53.1284 92.7978 55.4249 93.2105 57.7045 93.6638C57.3764 93.1834 57.6605 92.7199 57.6469 92.2599C57.6165 91.0758 57.3527 89.8783 57.3324 88.6909C57.1971 88.4879 55.2693 88.1733 54.8432 88.0955C53.585 87.8621 52.3099 87.7098 51.0483 87.4494C44.7676 86.1469 38.5309 84.6145 32.2603 83.2782L33.0889 87.9433C34.0123 88.3898 37.8511 88.8499 37.3606 90.406C37.2321 90.8154 36.5049 90.7646 36.1701 90.8796L36.1633 90.883Z" fill="url(#paint19_linear_492_6828)"/>
<path d="M88.9626 111.461C87.7991 111.722 86.2366 112.669 85.0326 113.105C82.7259 113.944 80.2197 114.736 77.8792 115.511C76.5128 115.964 75.1261 116.346 73.7292 116.708L73.5128 124.699H73.6616L77.727 123.795C80.2061 122.902 82.7834 122.239 85.249 121.302C85.6785 121.14 87.9547 120.274 88.1171 120.105C88.2828 119.935 88.364 119.435 88.3978 119.181C88.7056 117.053 89.0709 114.245 89.1723 112.124C89.1859 111.877 89.3008 111.38 88.9592 111.458L88.9626 111.461Z" fill="url(#paint20_linear_492_6828)"/>
<path d="M70.9491 99.0967C68.223 99.3471 65.7067 98.4438 63.1194 97.8924C58.9525 97.0027 54.7992 96.0352 50.6222 95.1827C50.5444 96.9587 50.9739 98.684 50.9908 100.46C51.1633 100.724 53.7304 101.137 54.2344 101.208C54.2276 101.279 54.2344 101.326 54.3121 101.357L70.8781 105.26C71.0709 105.243 71.0945 104.198 71.1047 103.995C71.1757 102.368 70.8476 100.734 70.9525 99.1001L70.9491 99.0967Z" fill="url(#paint21_linear_492_6828)"/>
<path d="M91.5703 110.791L90.8262 118.975C93.7213 118.071 96.6233 117.043 99.444 115.927C99.8566 115.764 102.691 114.634 102.718 114.459C102.992 114.394 103.225 114.418 103.367 114.12C103.695 113.44 104.081 111.414 104.203 110.599C104.443 108.992 104.402 107.327 104.673 105.724C104.426 105.829 104.172 105.927 103.922 106.025C99.8093 107.618 95.727 109.316 91.5669 110.791H91.5703Z" fill="url(#paint22_linear_492_6828)"/>
<path d="M88.2659 100.602C89.0945 100.308 89.9671 100.091 90.8059 99.8308C90.9818 97.6894 91.1036 95.5278 91.1239 93.3762C91.0393 93.2815 89.0134 94.1678 88.7157 94.2795C86.1893 95.2267 83.4362 96.316 80.886 97.1414C79.6042 97.5541 78.1599 97.933 76.8544 98.3018C75.9142 98.569 74.9367 98.8058 73.9694 98.9547C73.9254 100.304 74.0032 101.664 73.9626 103.014C73.9626 103.041 73.8104 103.254 73.8003 103.522C73.78 104.107 73.851 104.699 73.8882 105.274L84.231 102.067C85.5805 101.603 86.9198 101.079 88.2659 100.606V100.602Z" fill="url(#paint23_linear_492_6828)"/>
<path d="M106.337 113.102C109.76 111.4 115.959 110.588 117.704 106.776C118.628 104.76 118.678 102.3 119.135 100.149L107.274 104.702L106.337 113.102Z" fill="url(#paint24_linear_492_6828)"/>
<path d="M31.4993 104.445C31.5872 103.718 31.364 103.139 31.3437 102.49C31.2998 101.214 31.4012 99.9323 31.3336 98.6569L19.9052 95.6326L21.1058 101.732C24.5219 102.551 27.8804 103.84 31.2896 104.651C31.5771 104.719 31.4722 104.645 31.4993 104.445Z" fill="url(#paint25_linear_492_6828)"/>
<path d="M70.7969 107.831C70.5669 107.801 70.3369 107.764 70.1069 107.73L60.9345 105.873C60.6199 105.856 60.7416 105.873 60.7112 106.096C60.6469 106.515 60.6706 107.138 60.8634 107.534C60.7822 108.518 60.7011 111.39 60.8533 112.266C60.8668 112.341 61.6244 112.5 61.7665 112.503L70.9491 114.462L71.081 107.933L70.807 107.879C70.807 107.879 70.8003 107.852 70.7969 107.838V107.831ZM70.2828 114.147C69.3696 114.046 68.4395 113.839 67.5094 113.599C68.4328 113.779 69.3561 113.961 70.2828 114.147Z" fill="url(#paint26_linear_492_6828)"/>
<path d="M29.0641 82.4021L17.6459 79.5164C17.5985 81.1808 17.9063 82.808 18.4948 84.3506C22.2761 85.2809 26.0033 86.536 29.8421 87.199L29.0641 82.4054V82.4021Z" fill="url(#paint27_linear_492_6828)"/>
<path d="M67.939 90.6631L60.4102 89.1577L60.9379 94.5772C61.178 94.9087 64.4249 95.3518 65.0777 95.4838C67.0732 95.8863 69.0517 96.3701 71.1013 96.5392L71.2535 90.9676C70.1408 91.0352 69.0416 90.7782 67.939 90.6665V90.6631Z" fill="url(#paint28_linear_492_6828)"/>
<path d="M80.7371 94.4283L82.4012 93.8769L82.6954 88.5556C81.5387 88.8262 80.3752 89.1273 79.2321 89.4588C77.4767 89.9696 75.7754 90.6564 73.9626 90.9642V96.2348C75.5624 95.8525 77.1892 95.5142 78.7822 95.1049C79.1137 95.0203 80.7067 94.638 80.7371 94.4249V94.4283Z" fill="url(#paint29_linear_492_6828)"/>
<path d="M114.18 94.1408L113.412 99.5467L119.507 97.1346C119.825 96.7693 120.515 92.3681 120.336 92.1685L114.18 94.1408Z" fill="url(#paint30_linear_492_6828)"/>
<path d="M25.7496 105.463C25.6177 105.277 22.2457 104.614 21.7147 104.52C22.2389 106.36 22.1442 108.809 23.0404 110.497C23.7811 111.894 25.9187 113.044 27.4373 113.403C26.8353 110.94 26.6053 108.413 26.5343 105.873C25.5095 106.018 25.9288 105.707 25.753 105.463H25.7496Z" fill="url(#paint31_linear_492_6828)"/>
<path d="M122.389 75.7682C121.12 76.0422 119.568 76.8609 118.381 77.2567C117.468 77.5611 116.45 77.666 115.553 78.0449C115.377 78.2512 114.911 81.9251 114.911 82.446C114.911 82.6964 114.792 83.0414 115.124 82.9636C115.976 82.7674 117.512 82.1247 118.381 81.7762C118.976 81.536 121.831 80.3486 122.067 79.9664C122.209 79.7363 122.609 76.5733 122.602 76.1335C122.602 75.9069 122.703 75.7005 122.389 75.7682Z" fill="url(#paint32_linear_492_6828)"/>
<path d="M24.2006 88.8533L18.7011 87.199L19.7902 92.7335L24.4204 94.1272L24.2006 88.8533Z" fill="url(#paint33_linear_492_6828)"/>
<path d="M98.4293 83.7315C95.2704 84.6754 92.1655 85.7681 89.0201 86.7457C87.8837 87.1009 86.7676 87.5407 85.5635 87.6557L85.2558 92.7707C86.0235 92.5643 86.7574 92.2632 87.515 92.0197C90.9987 90.8932 94.4249 89.655 97.9694 88.6943L98.2061 88.3289C98.1385 87.473 98.426 86.6781 98.5071 85.8425C98.5545 85.3689 98.6627 84.3033 98.5951 83.8905C98.5815 83.8127 98.8115 83.6943 98.4293 83.7282V83.7315Z" fill="url(#paint34_linear_492_6828)"/>
<path d="M73.8036 108.082L73.6582 113.853C75.0686 113.738 76.3843 113.203 77.7236 112.801C78.6267 112.53 79.5331 112.182 80.4327 111.898C80.683 111.82 81.5996 111.691 81.6436 111.498L81.7856 105.423C80.869 105.683 79.9863 106.038 79.0765 106.326C78.4203 106.532 73.8645 107.814 73.8003 108.085L73.8036 108.082ZM73.9626 108.332C73.9558 108.474 73.9525 108.62 73.9457 108.762C73.8375 108.653 73.8476 108.494 73.9626 108.332Z" fill="url(#paint35_linear_492_6828)"/>
<path d="M96.9716 105.771L97.7495 100.152C96.2005 100.663 94.6311 101.137 93.0821 101.658C90.2749 102.601 87.5184 103.725 84.6639 104.533L84.3493 110.541C88.2084 109.08 92.1521 107.75 95.9435 106.174C96.258 106.042 96.8329 106.12 96.9716 105.771Z" fill="url(#paint36_linear_492_6828)"/>
<path d="M70.9491 116.718C70.709 116.732 70.3166 116.624 70.1949 116.867C65.2873 116.458 60.373 114.939 55.5906 113.856C55.5196 113.839 55.3539 113.67 55.1509 113.626C54.5455 113.494 53.93 113.41 53.3313 113.258C53.3246 113.758 53.3381 114.262 53.3313 114.763C53.3178 115.72 53.2129 116.874 53.4801 117.774C53.4801 118.075 53.4767 118.376 53.4801 118.677C53.4869 119.154 53.3381 120.517 53.6323 120.785C53.8589 120.994 56.683 121.688 57.2445 121.84C60.6639 122.76 64.1272 123.559 67.4824 124.702H69.5895C69.7281 124.584 69.8871 124.499 70.0427 124.401C70.3505 124.205 70.4655 124.286 70.6515 123.731C71.1521 122.239 71.0201 118.704 70.9457 117.023C70.9423 116.921 70.9525 116.823 70.9457 116.722L70.9491 116.718ZM64.6481 123.498C64.6481 123.498 64.638 123.488 64.6346 123.481C64.6481 123.484 64.6582 123.491 64.6717 123.494C64.665 123.494 64.6549 123.498 64.6481 123.498ZM63.5759 123.115C63.5759 123.115 63.5658 123.115 63.5624 123.115C63.5522 123.112 63.5421 123.105 63.5286 123.098C63.5455 123.105 63.559 123.109 63.5759 123.115Z" fill="url(#paint37_linear_492_6828)"/>
<path d="M39.5557 42.0202C39.9277 29.9737 46.8781 21.2255 58.9998 19.6017C65.8758 18.6815 78.2411 20.0753 85.1036 21.689C87.7992 22.3216 91.7191 23.8067 94.0088 25.3594C99.099 28.81 101.007 35.0142 102.573 40.6671V40.5149C102.579 40.5656 102.566 40.6163 102.573 40.6671C103.212 44.9093 103.827 48.8571 103.929 53.1669C103.929 53.2177 103.929 53.2684 103.929 53.3192C104.02 57.8726 103.543 62.3414 103.476 66.8745C103.222 67.0369 103.327 67.4936 103.323 67.7777C103.317 68.3258 103.35 68.8873 103.323 69.4354C103.323 69.476 103.191 69.8785 103.171 70.1898C103.1 71.4922 103.029 72.8013 103.019 74.1038C102.752 74.3541 102.87 74.9326 102.87 75.3081C102.867 75.9576 102.853 76.6173 102.87 77.2668C102.623 77.4292 102.66 78.3053 102.786 78.4813C103.053 78.8568 103.449 78.5049 103.624 78.4745C104.064 78.3933 104.558 78.3155 104.981 78.1734C105.231 78.0889 105.491 77.9806 105.735 77.8723C107.23 77.189 108.018 75.758 107.994 74.1072C108.14 72.6796 108.092 71.2486 108.146 69.8176C108.234 67.5375 108.288 65.2608 108.295 62.9638C108.572 62.4632 108.444 61.6242 108.447 61.0051C108.447 60.7041 108.447 60.403 108.447 60.1019C108.458 54.4389 108.738 48.3734 107.994 42.7814C105.914 27.105 98.6357 19.7607 83.3008 16.8785C72.7518 14.8961 59.9198 13.4617 49.9221 18.0557C42.4847 21.4724 37.7124 27.0745 35.974 35.1293C35.0405 39.4492 34.6413 44.0838 34.6684 48.5053L35.2434 46.8984C36.2209 44.7333 37.6617 43.3869 39.5625 42.0304L39.5557 42.0202ZM102.87 78.4643C102.87 78.4643 102.87 78.4441 102.87 78.4373C102.877 78.4474 102.884 78.4576 102.894 78.4643H102.87ZM52.2795 18.9759C52.4824 19.0232 52.6718 19.0435 52.7327 18.8236C52.7834 18.915 52.8341 18.915 52.8815 18.8236C52.7056 19.2025 52.5906 19.1924 52.2795 18.9759Z" fill="url(#paint38_linear_492_6828)"/>
<defs>
<linearGradient id="paint0_linear_492_6828" x1="14" y1="69.8422" x2="125.475" y2="69.8422" gradientUnits="userSpaceOnUse">
<stop stop-color="#9BEC00"/>
<stop offset="1" stop-color="#059212"/>
</linearGradient>
<linearGradient id="paint1_linear_492_6828" x1="14.0269" y1="69.8553" x2="125.498" y2="69.8553" gradientUnits="userSpaceOnUse">
<stop stop-color="#9BEC00"/>
<stop offset="1" stop-color="#059212"/>
</linearGradient>
<linearGradient id="paint2_linear_492_6828" x1="13.9597" y1="69.8638" x2="125.473" y2="69.8638" gradientUnits="userSpaceOnUse">
<stop stop-color="#9BEC00"/>
<stop offset="1" stop-color="#059212"/>
</linearGradient>
<linearGradient id="paint3_linear_492_6828" x1="14" y1="69.8571" x2="125.478" y2="69.8571" gradientUnits="userSpaceOnUse">
<stop stop-color="#9BEC00"/>
<stop offset="1" stop-color="#059212"/>
</linearGradient>
<linearGradient id="paint4_linear_492_6828" x1="14" y1="69.8592" x2="125.46" y2="69.8592" gradientUnits="userSpaceOnUse">
<stop stop-color="#9BEC00"/>
<stop offset="1" stop-color="#059212"/>
</linearGradient>
<linearGradient id="paint5_linear_492_6828" x1="14.0072" y1="69.8421" x2="125.488" y2="69.8421" gradientUnits="userSpaceOnUse">
<stop stop-color="#9BEC00"/>
<stop offset="1" stop-color="#059212"/>
</linearGradient>
<linearGradient id="paint6_linear_492_6828" x1="13.9711" y1="69.8484" x2="125.469" y2="69.8484" gradientUnits="userSpaceOnUse">
<stop stop-color="#9BEC00"/>
<stop offset="1" stop-color="#059212"/>
</linearGradient>
<linearGradient id="paint7_linear_492_6828" x1="13.9776" y1="69.8556" x2="125.464" y2="69.8556" gradientUnits="userSpaceOnUse">
<stop stop-color="#9BEC00"/>
<stop offset="1" stop-color="#059212"/>
</linearGradient>
<linearGradient id="paint8_linear_492_6828" x1="14.0232" y1="69.8635" x2="125.49" y2="69.8635" gradientUnits="userSpaceOnUse">
<stop stop-color="#9BEC00"/>
<stop offset="1" stop-color="#059212"/>
</linearGradient>
<linearGradient id="paint9_linear_492_6828" x1="14" y1="69.8398" x2="125.486" y2="69.8398" gradientUnits="userSpaceOnUse">
<stop stop-color="#9BEC00"/>
<stop offset="1" stop-color="#059212"/>
</linearGradient>
<linearGradient id="paint10_linear_492_6828" x1="14.0269" y1="69.8662" x2="125.51" y2="69.8662" gradientUnits="userSpaceOnUse">
<stop stop-color="#9BEC00"/>
<stop offset="1" stop-color="#059212"/>
</linearGradient>
<linearGradient id="paint11_linear_492_6828" x1="13.9809" y1="69.8418" x2="125.487" y2="69.8418" gradientUnits="userSpaceOnUse">
<stop stop-color="#9BEC00"/>
<stop offset="1" stop-color="#059212"/>
</linearGradient>
<linearGradient id="paint12_linear_492_6828" x1="14" y1="69.8747" x2="125.486" y2="69.8747" gradientUnits="userSpaceOnUse">
<stop stop-color="#9BEC00"/>
<stop offset="1" stop-color="#059212"/>
</linearGradient>
<linearGradient id="paint13_linear_492_6828" x1="14" y1="69.8112" x2="125.475" y2="69.8112" gradientUnits="userSpaceOnUse">
<stop stop-color="#9BEC00"/>
<stop offset="1" stop-color="#059212"/>
</linearGradient>
<linearGradient id="paint14_linear_492_6828" x1="13.9998" y1="69.8516" x2="125.485" y2="69.8516" gradientUnits="userSpaceOnUse">
<stop stop-color="#9BEC00"/>
<stop offset="1" stop-color="#059212"/>
</linearGradient>
<linearGradient id="paint15_linear_492_6828" x1="14" y1="69.8525" x2="125.468" y2="69.8525" gradientUnits="userSpaceOnUse">
<stop stop-color="#9BEC00"/>
<stop offset="1" stop-color="#059212"/>
</linearGradient>
<linearGradient id="paint16_linear_492_6828" x1="13.9734" y1="69.8414" x2="125.462" y2="69.8414" gradientUnits="userSpaceOnUse">
<stop stop-color="#9BEC00"/>
<stop offset="1" stop-color="#059212"/>
</linearGradient>
<linearGradient id="paint17_linear_492_6828" x1="14" y1="69.8725" x2="125.486" y2="69.8725" gradientUnits="userSpaceOnUse">
<stop stop-color="#9BEC00"/>
<stop offset="1" stop-color="#059212"/>
</linearGradient>
<linearGradient id="paint18_linear_492_6828" x1="14" y1="69.842" x2="125.486" y2="69.842" gradientUnits="userSpaceOnUse">
<stop stop-color="#9BEC00"/>
<stop offset="1" stop-color="#059212"/>
</linearGradient>
<linearGradient id="paint19_linear_492_6828" x1="14" y1="69.8849" x2="125.461" y2="69.8849" gradientUnits="userSpaceOnUse">
<stop stop-color="#9BEC00"/>
<stop offset="1" stop-color="#059212"/>
</linearGradient>
<linearGradient id="paint20_linear_492_6828" x1="13.976" y1="69.8568" x2="125.493" y2="69.8568" gradientUnits="userSpaceOnUse">
<stop stop-color="#9BEC00"/>
<stop offset="1" stop-color="#059212"/>
</linearGradient>
<linearGradient id="paint21_linear_492_6828" x1="14.0144" y1="69.8326" x2="125.486" y2="69.8326" gradientUnits="userSpaceOnUse">
<stop stop-color="#9BEC00"/>
<stop offset="1" stop-color="#059212"/>
</linearGradient>
<linearGradient id="paint22_linear_492_6828" x1="14" y1="69.837" x2="125.513" y2="69.837" gradientUnits="userSpaceOnUse">
<stop stop-color="#9BEC00"/>
<stop offset="1" stop-color="#059212"/>
</linearGradient>
<linearGradient id="paint23_linear_492_6828" x1="14.0013" y1="69.8368" x2="125.508" y2="69.8368" gradientUnits="userSpaceOnUse">
<stop stop-color="#9BEC00"/>
<stop offset="1" stop-color="#059212"/>
</linearGradient>
<linearGradient id="paint24_linear_492_6828" x1="14" y1="69.8653" x2="125.456" y2="69.8653" gradientUnits="userSpaceOnUse">
<stop stop-color="#9BEC00"/>
<stop offset="1" stop-color="#059212"/>
</linearGradient>
<linearGradient id="paint25_linear_492_6828" x1="14" y1="69.8672" x2="125.485" y2="69.8672" gradientUnits="userSpaceOnUse">
<stop stop-color="#9BEC00"/>
<stop offset="1" stop-color="#059212"/>
</linearGradient>
<linearGradient id="paint26_linear_492_6828" x1="13.9807" y1="69.8172" x2="125.45" y2="69.8172" gradientUnits="userSpaceOnUse">
<stop stop-color="#9BEC00"/>
<stop offset="1" stop-color="#059212"/>
</linearGradient>
<linearGradient id="paint27_linear_492_6828" x1="14.0126" y1="69.8268" x2="125.486" y2="69.8268" gradientUnits="userSpaceOnUse">
<stop stop-color="#9BEC00"/>
<stop offset="1" stop-color="#059212"/>
</linearGradient>
<linearGradient id="paint28_linear_492_6828" x1="14" y1="69.8007" x2="125.451" y2="69.8007" gradientUnits="userSpaceOnUse">
<stop stop-color="#9BEC00"/>
<stop offset="1" stop-color="#059212"/>
</linearGradient>
<linearGradient id="paint29_linear_492_6828" x1="14" y1="69.851" x2="125.443" y2="69.851" gradientUnits="userSpaceOnUse">
<stop stop-color="#9BEC00"/>
<stop offset="1" stop-color="#059212"/>
</linearGradient>
<linearGradient id="paint30_linear_492_6828" x1="14" y1="69.8761" x2="125.505" y2="69.8761" gradientUnits="userSpaceOnUse">
<stop stop-color="#9BEC00"/>
<stop offset="1" stop-color="#059212"/>
</linearGradient>
<linearGradient id="paint31_linear_492_6828" x1="13.9341" y1="69.851" x2="125.42" y2="69.851" gradientUnits="userSpaceOnUse">
<stop stop-color="#9BEC00"/>
<stop offset="1" stop-color="#059212"/>
</linearGradient>
<linearGradient id="paint32_linear_492_6828" x1="14.0037" y1="69.8395" x2="125.456" y2="69.8395" gradientUnits="userSpaceOnUse">
<stop stop-color="#9BEC00"/>
<stop offset="1" stop-color="#059212"/>
</linearGradient>
<linearGradient id="paint33_linear_492_6828" x1="14" y1="69.851" x2="125.486" y2="69.851" gradientUnits="userSpaceOnUse">
<stop stop-color="#9BEC00"/>
<stop offset="1" stop-color="#059212"/>
</linearGradient>
<linearGradient id="paint34_linear_492_6828" x1="14" y1="69.8665" x2="125.467" y2="69.8665" gradientUnits="userSpaceOnUse">
<stop stop-color="#9BEC00"/>
<stop offset="1" stop-color="#059212"/>
</linearGradient>
<linearGradient id="paint35_linear_492_6828" x1="14.0464" y1="69.851" x2="125.532" y2="69.851" gradientUnits="userSpaceOnUse">
<stop stop-color="#9BEC00"/>
<stop offset="1" stop-color="#059212"/>
</linearGradient>
<linearGradient id="paint36_linear_492_6828" x1="14.0281" y1="69.8331" x2="125.486" y2="69.8331" gradientUnits="userSpaceOnUse">
<stop stop-color="#9BEC00"/>
<stop offset="1" stop-color="#059212"/>
</linearGradient>
<linearGradient id="paint37_linear_492_6828" x1="14.0069" y1="69.8023" x2="125.516" y2="69.8023" gradientUnits="userSpaceOnUse">
<stop stop-color="#9BEC00"/>
<stop offset="1" stop-color="#059212"/>
</linearGradient>
<linearGradient id="paint38_linear_492_6828" x1="34.6615" y1="46.8172" x2="108.501" y2="46.8172" gradientUnits="userSpaceOnUse">
<stop stop-color="#9BEC00"/>
<stop offset="1" stop-color="#059212"/>
</linearGradient>
</defs>
</svg>
