<svg width="140" height="140" viewBox="0 0 140 140" fill="none" xmlns="http://www.w3.org/2000/svg">
<rect width="140" height="140" fill="#0A0400"/>
<path d="M27.588 100.611C27.9127 101.318 31.7379 104.572 32.1336 104.268C30.5846 95.462 30.5812 86.4669 31.0547 77.5563L26.4143 74.5962C26.323 75.9257 26.3331 77.2687 26.2689 78.5982C26.2587 78.7911 26.1133 78.9433 26.1133 78.9636C25.9814 82.289 25.9442 86.3451 26.1133 89.657C26.2249 91.8457 26.5632 94.7178 26.8878 96.9404C27.0197 97.8402 27.2531 99.8835 27.588 100.607V100.611Z" fill="url(#paint0_linear_492_6826)"/>
<path d="M51.7368 110.411C54.6353 110.844 57.5811 111.281 60.5067 111.5C62.4244 111.642 65.2756 111.9 67.1189 111.805C67.4876 111.785 67.863 111.582 68.2554 111.649L68.3974 84.0921C65.1809 83.8147 61.9307 83.879 58.6973 83.632C56.0017 83.4256 53.3264 83.0062 50.6443 82.7288C50.3501 91.9641 50.4278 101.25 51.7334 110.411H51.7368ZM55.4572 90.7835C55.4944 90.2084 55.7649 88.0907 55.9509 87.661C56.0423 87.4513 56.1234 87.3566 56.3669 87.4006L56.4413 87.8539L56.6646 87.4006C56.8405 89.1597 56.8811 90.9797 56.8303 92.7489C56.7898 94.1562 56.722 96.2063 56.5124 97.5628C56.4853 97.7421 56.4177 97.918 56.2181 97.9451L55.9172 97.644C56.2114 96.6325 55.5958 95.7834 55.4741 94.9986C55.3286 94.0514 55.3929 91.8051 55.4572 90.7835Z" fill="url(#paint1_linear_492_6826)"/>
<path d="M89.1099 82.8776C88.9847 82.6983 88.0445 82.8708 87.7739 82.9013C84.0535 83.3072 80.695 83.791 76.9204 83.9398C75.04 84.0143 73.1459 83.9162 71.2688 84.0853V111.653C72.8957 111.605 74.5394 111.71 76.1662 111.659C77.0456 111.632 78.1245 111.565 79.0174 111.5C82.0208 111.291 84.9836 110.712 87.9768 110.448C88.1155 107.904 88.5315 105.377 88.7276 102.84C89.12 97.7354 89.2214 92.4648 89.1741 87.3329C89.1606 85.8478 89.235 84.3559 89.1099 82.881V82.8776ZM79.5079 104.004C79.376 104.779 79.1561 105.536 78.7908 106.226L78.642 105.624L78.3443 106.074C78.2023 105.547 78.5 104.944 78.4932 104.494C78.4898 104.234 78.341 103.98 78.3443 103.74C78.368 101.199 78.6826 98.6758 78.7976 96.1352L79.2474 96.5852L79.3962 95.983C79.9847 98.5608 79.9542 101.396 79.5112 104.004H79.5079Z" fill="url(#paint2_linear_492_6826)"/>
<path d="M33.4898 78.5103C33.2835 82.7457 33.0501 86.9946 33.182 91.2469C33.3342 96.0777 34.0141 101 34.7717 105.77C39.2869 107.705 44.0726 109.291 48.9903 109.839C47.9182 100.699 47.7761 91.4905 48.0805 82.2822C43.129 81.4061 38.1505 80.4216 33.4898 78.5103ZM38.9047 95.232L38.607 95.0798V95.6819C38.4481 95.6853 38.3973 95.5365 38.3364 95.4214C37.4571 93.7435 37.2136 88.9026 37.5484 87.0149C37.6127 86.6529 38.0287 86.7071 38.005 86.3417C38.1504 86.2571 38.3703 86.7477 38.4143 86.9067C38.6172 87.6137 38.8438 89.542 38.9013 90.3369C39.0197 91.9404 38.8675 93.6217 38.9013 95.232H38.9047Z" fill="url(#paint3_linear_492_6826)"/>
<path d="M90.5337 109.843C94.2575 109.075 98.1132 108.364 101.624 106.859C102.131 106.643 103.958 105.817 104.117 105.438C105.672 96.6156 105.946 87.59 105.584 78.6659C101.073 80.2119 96.4593 81.379 91.8021 82.4209C91.4841 82.8776 91.9002 89.8295 91.8934 91.0981C91.8697 95.1102 91.6194 99.278 91.2846 103.29C91.1019 105.472 90.7705 107.668 90.5337 109.843ZM100.315 99.6738C100.515 96.4702 100.602 93.2293 101.086 90.0494C101.188 89.3897 101.174 89.5927 101.448 89.6299C101.637 89.6536 101.411 89.2375 101.597 89.2104C101.847 89.3829 101.813 89.6231 101.83 89.8802C102.047 92.7422 101.999 95.7563 101.482 98.5845C101.428 98.872 100.968 100.692 100.887 100.777C100.836 100.831 100.129 101.047 100.021 100.888C100.176 100.543 100.295 100.049 100.318 99.6772L100.315 99.6738Z" fill="url(#paint4_linear_492_6826)"/>
<path d="M112.508 74.8973C112.285 74.6673 110.634 76.0171 110.296 76.2234C109.822 76.511 108.07 77.2518 107.993 77.6848C107.796 78.7403 107.966 81.291 107.986 82.5123C108.037 85.5636 108.209 88.6286 107.999 91.7002L106.792 104.271C108.229 103.273 111.091 101.683 111.564 99.9376C111.899 98.7029 112.048 96.7814 112.207 95.4587C112.829 90.2118 112.853 85.063 112.653 79.8025C112.592 78.172 112.609 76.5313 112.508 74.9007V74.8973Z" fill="url(#paint5_linear_492_6826)"/>
<path d="M50.766 60.2425C65.3466 62.8508 90.483 62.8372 103.785 55.8515C105.601 54.8976 109.315 52.4551 108.676 50.0397C108.618 49.8232 108.256 49.1263 107.986 49.2007C107.891 49.2278 106.332 50.1243 106.257 50.1919C105.946 50.4693 105.544 51.447 105.138 51.9341C102.49 55.1242 94.5924 56.7784 90.5642 57.5362C85.4199 58.5003 80.0456 59.0856 74.8133 59.2412C72.2835 59.3156 69.2429 58.9773 66.8145 59.2243C66.4492 59.2615 66.7232 59.5693 66.4526 59.5389L66.3545 59.2344C58.0918 58.9266 49.5518 57.9828 41.651 55.5132C39.4492 54.8231 34.5992 53.1215 33.2733 51.244C32.1741 49.6879 33.6218 48.8658 33.5913 48.3178C33.5812 48.125 32.8946 47.4619 33.0366 47.0357C30.4898 47.8104 29.0693 50.0498 30.8687 52.4449C34.1764 56.8529 45.4492 59.2953 50.7694 60.2459L50.766 60.2425Z" fill="url(#paint6_linear_492_6826)"/>
<path d="M71.2688 72.0354C76.9137 72.0218 82.5551 71.6024 88.1357 70.7634L87.8246 63.7506C82.3691 64.7655 76.8021 64.9279 71.2688 65.2594V72.0354Z" fill="url(#paint7_linear_492_6826)"/>
<path d="M51.6995 70.6788C57.1448 71.5449 62.6646 71.9643 68.164 72.0151C68.3839 71.9508 68.323 71.8629 68.3467 71.7242C68.3906 71.4637 68.4008 70.6348 68.4109 70.3169C68.4684 68.6694 68.3838 67.005 68.3872 65.3575L52.3049 63.754L51.7029 70.6822L51.6995 70.6788Z" fill="url(#paint8_linear_492_6826)"/>
<path d="M41.7356 68.6795C44.1606 69.329 46.6669 69.8466 49.1426 70.2289L49.5788 63.3142C44.9317 62.3907 40.3151 61.2574 35.8979 59.5355L35.0118 66.2134C37.0209 67.3467 39.4729 68.074 41.7356 68.6795Z" fill="url(#paint9_linear_492_6826)"/>
<path d="M90.6825 70.2289C95.1978 69.8196 99.5608 68.2228 103.758 66.5923L102.872 59.681L90.2936 63.5882L90.6792 70.2255L90.6825 70.2289Z" fill="url(#paint10_linear_492_6826)"/>
<path d="M49.9679 44.3158C50.3704 43.4295 49.9678 39.5865 49.0715 38.893C48.3444 38.3281 45.7908 38.0811 44.854 38.0777C42.0535 38.0642 37.7446 39.485 36.0738 41.8598C34.7514 43.7441 36.7164 47.1744 38.0084 48.7576C39.7604 50.9091 41.0355 51.2305 43.5451 51.9544C43.8833 52.0525 44.9521 52.6107 45.1347 52.5769C45.3174 52.543 46.2001 51.474 46.2542 51.288C46.3828 50.8448 46.3354 50.1276 46.4808 49.5559C46.7074 48.6696 47.5327 46.9206 48.0907 46.1967C48.4695 45.7062 49.792 44.7015 49.9679 44.3124V44.3158ZM41.5192 46.5248C40.1798 45.378 39.8856 43.6494 40.836 42.1034C41.8033 40.5303 44.0964 40.4525 45.2971 41.7651C47.8743 44.5831 45.3783 49.83 41.5192 46.5248Z" fill="url(#paint11_linear_492_6826)"/>
<path d="M64.2407 29.8302C62.7322 30.3748 60.4932 31.8261 59.6139 33.1826C58.8258 34.3971 58.1595 36.5723 58.951 37.895C59.6984 39.1433 60.1584 37.594 60.7875 36.9918C62.2046 35.6319 64.951 34.6238 66.8754 34.2719C70.3185 33.6427 74.5597 33.6732 77.5191 35.73C78.8078 33.3992 76.5755 30.9465 74.5665 29.952C72.7097 29.0318 70.8866 29.0589 68.8607 29.0352C68.6375 28.291 67.9543 25.2497 67.3624 24.9588C66.6995 24.634 65.6172 25.2903 65.0558 25.6658C62.7728 27.205 65.0761 26.8972 66.0062 27.9696C67.3421 29.5054 65.1573 29.4987 64.2441 29.8268L64.2407 29.8302Z" fill="url(#paint12_linear_492_6826)"/>
<path d="M86.996 55.1614C88.5552 54.2649 88.7378 52.861 88.5585 51.1899C88.2034 47.8307 85.1797 45.828 82.3962 44.5188C82.1222 43.3584 84.1685 42.3909 85.1155 42.3571C85.6025 41.8564 82.5924 40.0499 81.8483 40.3578C80.969 40.7198 80.3094 43.3618 79.8494 43.6426C79.3556 43.9437 77.607 43.5445 76.9069 43.558C74.7829 43.5952 72.0028 44.4917 70.8427 46.3794C70.3286 47.2183 70.0141 48.0336 70.4368 48.991L73.014 48.2535C78.2902 47.9085 84.9058 49.8503 86.9926 55.1614H86.996Z" fill="url(#paint13_linear_492_6826)"/>
<path d="M86.7796 21.8093C85.7751 22.1307 84.6082 22.1171 83.4616 22.5569C80.8506 23.5583 78.3647 26.2545 79.2441 29.2551C79.3455 29.3498 80.6882 28.3113 80.9486 28.1759C85.6465 25.6895 93.7468 26.7348 97.6059 30.4628C98.7829 28.5413 97.8224 26.3086 96.483 24.7355C94.7581 22.7159 92.1877 22.1171 89.6477 21.86C89.695 21.2004 89.536 18.2031 89.0355 17.8784C88.2609 17.3743 86.2689 18.0035 85.4165 18.264C85.1493 18.6294 88.8968 21.1327 86.7796 21.8093Z" fill="url(#paint14_linear_492_6826)"/>
<path d="M90.571 38.5581C90.3376 38.9877 89.9047 40.9803 90.527 40.7807C91.1967 40.5642 91.5654 40.2157 92.4312 40.121C97.6533 39.5594 104.154 41.9816 106.17 47.1236C106.21 47.2285 106.146 47.4416 106.406 47.33C107.333 46.9308 108.162 44.9247 108.145 43.9505C108.07 39.9214 104.857 37.8342 101.529 36.4675C101.752 34.9215 103.352 34.546 104.418 33.8965C104.871 33.6224 104.719 33.4939 104.428 33.1962C103.927 32.6854 102.327 31.6367 101.624 31.8464C100.917 32.0561 99.7773 34.9891 99.3849 35.7097C96.3308 35.3376 92.235 35.5067 90.5676 38.5615L90.571 38.5581Z" fill="url(#paint15_linear_492_6826)"/>
<path d="M33.2666 41.7583L34.4673 40.1007C37.5112 36.4133 44.5192 34.6982 48.96 36.2949C49.5823 36.5182 49.9307 36.8294 50.4955 37.0899C51.4188 33.9844 48.4898 32.046 45.8618 31.41C44.3398 31.0446 42.8788 31.0243 41.323 31.0582C41.3669 30.4459 39.9532 27.2761 39.5642 27.1644C38.783 26.9446 36.8653 28.2402 36.3546 28.8796C36.3512 29.3803 40.3861 30.8045 38.5631 31.8464C37.3354 32.55 36.429 32.5094 35.0761 33.6292C32.8371 35.483 30.6116 39.3632 33.2666 41.7583Z" fill="url(#paint16_linear_492_6826)"/>
<path d="M91.9576 54.7183C92.2756 54.9009 92.3297 54.8671 92.6747 54.8299C94.1155 54.6675 97.5653 53.5714 99.0061 53.0234C101.171 52.198 103.575 51.0782 104.046 48.5783C104.184 47.8408 103.937 47.4754 103.545 46.8902C101.536 43.8895 96.5574 42.1068 93.0636 42.4078C92.4413 42.462 91.6668 42.5195 91.2034 42.9593C90.784 43.3551 89.5056 46.1155 89.4853 46.6703C89.4684 47.1338 90.0603 47.9423 90.2396 48.4565C90.5101 49.2379 90.757 50.4998 90.8348 51.3252C90.9836 52.8813 90.297 53.7643 91.9576 54.7183ZM95.9115 45.4085C99.8044 44.6879 100.711 49.945 97.3388 51.6567C96.3072 52.1811 95.58 52.3434 94.6093 51.6161C92.6307 50.1378 93.4593 45.8652 95.9148 45.4119L95.9115 45.4085Z" fill="url(#paint17_linear_492_6826)"/>
<path d="M49.819 54.5593C52.1662 49.8908 59.6171 47.3604 64.4638 48.6425C65.1504 48.8252 65.6679 49.1737 66.3004 49.4409C66.9802 45.7332 63.1922 43.9437 60.0535 43.7204C59.5665 43.6866 57.9735 43.8625 57.7638 43.7644C57.0061 43.4058 56.7423 40.2901 55.6837 40.1041C54.5642 39.9045 53.1606 41.2373 52.6025 42.1338C52.7006 42.5567 55.8427 43.169 55.1392 44.2989C55.058 44.4308 52.7953 45.3205 52.315 45.6148C49.403 47.3875 46.5586 51.7684 49.819 54.5626V54.5593Z" fill="url(#paint18_linear_492_6826)"/>
<path d="M65.2451 12.6112C62.9215 14.6815 61.1594 18.7681 64.5754 20.6523C66.412 15.9467 72.8516 13.1051 77.6645 13.5922C78.6555 13.6937 80.0591 14.7492 79.9847 13.2269C79.8257 9.90146 75.5675 8.78509 72.8652 9.08617C71.492 9.2384 70.3556 10.1349 69.0197 10.2668C68.191 8.26074 67.5552 5.6762 65.0963 7.78713C63.2226 9.3974 65.5597 9.22149 66.4593 10.0402C67.8629 11.3189 66.0704 11.8703 65.2451 12.6078V12.6112Z" fill="url(#paint19_linear_492_6826)"/>
<path d="M45.686 23.0204C46.0344 22.9358 46.6465 22.4757 47.1031 22.3201C51.297 20.9094 58.9036 22.3776 61.5586 26.2409C64.1696 23.2369 61.0952 19.4717 58.1662 18.1896C57.7265 17.9968 56.0084 17.5401 55.9272 17.2559C55.6803 16.3763 57.456 15.0942 58.1696 14.7898C58.3556 14.5191 55.8123 13.2302 54.9735 13.6227C54.2429 13.9643 53.7254 16.2241 53.3602 16.9853C50.323 16.8601 44.8675 18.1558 45.2158 22.1036C45.2361 22.3404 45.3038 23.1083 45.6792 23.017L45.686 23.0204Z" fill="url(#paint20_linear_492_6826)"/>
<path d="M79.0309 16.1395C78.6893 15.8892 76.1019 15.808 75.554 15.8418C72.9802 16.011 67.7243 18.4095 66.872 21.0076C66.2902 22.7768 67.173 22.2998 68.1166 22.5434C69.5845 22.9257 70.244 25.0434 70.66 26.3221C72.6927 26.5589 74.6578 27.0799 76.4639 28.0474C76.7649 25.0941 78.4728 22.7396 81.0535 21.4101C80.8776 20.0434 80.8641 18.944 80.1809 17.6991C80.0389 17.4386 79.2068 16.2579 79.0343 16.1328L79.0309 16.1395ZM75.527 25.4595C72.9599 26.0447 70.6465 22.5772 71.8404 20.2633C72.1143 19.7288 73.058 19.015 73.6363 18.8966C77.9047 18.0171 78.3714 24.8099 75.527 25.4595Z" fill="url(#paint21_linear_492_6826)"/>
<path d="M91.589 34.6779C92.4143 34.4343 93.1347 33.91 93.9633 33.6664C94.3421 33.5548 95.8742 33.3856 95.9419 33.3146C95.9791 33.274 95.9791 32.364 95.9453 32.1948C95.8336 31.6062 93.9362 30.5507 93.341 30.2835C89.5631 28.5785 84.6792 28.7172 81.084 30.7977C80.6544 33.1928 80.6849 35.7131 81.6758 37.9695C83.7593 38.1826 86.3602 39.3801 87.1787 41.42C87.6725 42.648 86.5123 43.098 88.4233 42.6616C88.43 42.2353 88.0343 41.9782 87.8956 41.6095C87.554 40.7062 87.8044 39.7556 87.9464 38.8355C86.1099 37.9492 85.0885 36.1258 85.4808 34.0724C86.1708 30.4763 91.7142 31.0514 91.5823 34.6813L91.589 34.6779Z" fill="url(#paint22_linear_492_6826)"/>
<path d="M50.7593 26.5826C51.8822 26.0345 52.677 26.1902 53.6443 26.9344C55.1764 28.115 54.6488 29.9384 53.7187 31.3525C53.4989 31.6874 52.3523 32.8342 52.3185 32.9797C52.2475 33.2638 53.3703 35.3917 53.0592 36.0344C53.7559 35.7739 54.4662 35.5371 55.1156 35.1549C56.7728 34.1806 56.5834 33.2774 57.4526 31.7686C58.4876 29.9756 61.2035 28.1523 58.6195 26.3255C56.1235 24.563 52.704 23.8627 49.677 24.1334C49.1527 24.1807 47.1945 24.6205 46.8292 24.8979C46.1764 25.3918 45.8382 28.0914 46.0074 28.9303C46.6838 29.1502 47.4448 29.3464 48.0941 29.6272C48.3918 29.7558 48.6792 30.0636 48.9261 30.1516C49.2373 30.2632 49.0885 30.1888 49.0783 30.0027C48.9836 28.5514 49.3692 27.2558 50.766 26.5758L50.7593 26.5826Z" fill="url(#paint23_linear_492_6826)"/>
<path d="M69.8619 38.9065C71.553 38.8423 72.8483 40.8111 72.7739 42.3605C74.0016 41.8598 75.1448 41.1494 76.5349 41.3084C76.5789 40.3307 76.5248 39.3429 76.1899 38.416C76.146 38.2942 75.6352 37.3267 75.5913 37.2827C75.4154 37.1068 74.5428 36.843 74.2418 36.7516C70.8664 35.7063 65.5022 36.2374 62.7017 38.5344C61.403 39.6 61.589 39.9992 61.7886 41.6095C63.5913 41.7346 65.766 43.1555 66.9803 44.4714C67.5349 45.0736 67.8765 45.8212 68.4075 46.4301C69.1956 45.0228 68.7592 45.6148 67.9509 44.8537C65.6882 42.7157 66.412 39.0385 69.8619 38.9099V38.9065Z" fill="url(#paint24_linear_492_6826)"/>
<path d="M80.1505 56.6702L84.9667 56.068C83.925 53.1824 80.4616 51.4707 77.5935 50.8719C76.315 50.6046 72.3342 50.087 71.4413 51.1933C70.9949 51.7481 70.2474 54.1059 70.1324 54.857C70.014 55.6486 70.1865 56.4029 69.916 57.1235L73.8156 56.9611C74.0693 52.5295 79.8122 52.1845 80.1538 56.6736L80.1505 56.6702Z" fill="url(#paint25_linear_492_6826)"/>
<path d="M66.3004 56.9713C66.5101 55.3069 66.4154 52.9388 65.2993 51.5891C64.1798 50.2325 60.067 50.6046 58.474 51.0207C56.1504 51.6263 52.9611 53.311 52.0039 55.6147L56.8202 56.2203C57.1245 51.8462 63.0502 52.6885 62.8405 56.9713H66.3038H66.3004Z" fill="url(#paint26_linear_492_6826)"/>
<path d="M30.1043 63.7472C30.4087 63.9874 32.5259 65.4793 32.7356 65.256L33.6251 58.4936C32.3399 57.7121 30.7942 56.7345 29.8134 55.6046C29.6375 55.4016 29.4515 54.8942 29.4211 54.8637C29.164 54.6371 29.1674 54.9077 29.1166 55.0802C28.5518 57.0153 28.3015 59.3765 27.9396 61.3792C28.4639 62.3332 29.2621 63.0842 30.1009 63.7472H30.1043Z" fill="url(#paint27_linear_492_6826)"/>
<path d="M106.038 65.4049C106.389 65.7905 110.658 62.0829 110.823 61.5348C110.959 61.0781 110.759 59.8637 110.685 59.3258C110.472 57.7832 109.954 56.2676 109.802 54.7115L108.906 55.997C107.783 56.978 106.586 57.8204 105.3 58.5782L106.038 65.4049Z" fill="url(#paint28_linear_492_6826)"/>
<path d="M85.9407 122.64C84.9193 122.647 83.5495 122.999 82.4807 123.097C78.7536 123.445 75.0163 123.628 71.2688 123.55L71.12 132.738H74.5834L74.9486 132.583C78.2462 132.583 81.5439 132.19 84.784 131.649L86.3196 122.864C86.3906 122.546 86.1639 122.64 85.9441 122.64H85.9407Z" fill="url(#paint29_linear_492_6826)"/>
<path d="M58.8528 123.246C56.9757 123.067 55.0513 122.59 53.2046 122.573L54.5676 131.679L61.7142 132.586C62.3365 132.451 63.1009 132.711 63.5947 132.738C65.0389 132.813 66.5135 132.684 67.961 132.738V123.615L63.0637 123.554C61.6905 123.283 60.2395 123.378 58.8562 123.246H58.8528Z" fill="url(#paint30_linear_492_6826)"/>
<path d="M101.712 110.256C86.0456 116.182 64.8461 116.213 48.5135 113.107C41.5699 111.788 34.3184 109.755 28.4436 105.777L26.7153 103.74C26.8743 104.968 27.1448 106.179 27.4492 107.373C27.8923 109.109 27.9532 110.124 29.3534 111.341C33.5947 115.025 43.0242 117.285 48.5372 118.354C61.1392 120.797 75.5067 120.983 88.1561 118.831C94.5213 117.749 103.011 115.688 108.436 112.163C108.831 111.906 110.316 110.81 110.56 110.523C111.307 109.636 111.618 105.546 112.061 104.268C109.268 107.204 105.456 108.838 101.715 110.256H101.712Z" fill="url(#paint31_linear_492_6826)"/>
<path d="M37.704 118.882L40.2678 127.84C43.9915 129.443 48.0265 130.435 52.0039 131.233L50.4718 122.072L37.704 118.882Z" fill="url(#paint32_linear_492_6826)"/>
<path d="M87.3748 131.081C91.2981 130.465 95.1606 129.264 98.8133 127.691L101.073 119.183L89.1809 122.116L87.3781 131.081H87.3748Z" fill="url(#paint33_linear_492_6826)"/>
<path d="M101.675 126.111C101.908 126.341 103.43 125.14 103.701 124.904C104.194 124.47 105.321 123.31 105.649 122.786C106.758 121.01 106.981 117.667 107.996 115.722C106.572 116.352 105.398 117.41 103.917 117.928L101.675 126.115V126.111Z" fill="url(#paint34_linear_492_6826)"/>
<path d="M30.9329 115.567C30.8179 115.716 31.8021 118.703 31.9442 119.146C32.3534 120.411 33.0095 122.627 33.7908 123.625C34.6161 124.684 36.0298 125.333 37.102 126.111C36.4256 123.286 35.4989 120.502 34.7649 117.681C33.4526 117.035 32.0828 116.5 30.9329 115.567Z" fill="url(#paint35_linear_492_6826)"/>
<path d="M77.137 80.469C82.5417 80.2153 87.8144 79.6334 93.1245 78.6185C100.142 77.2755 107.827 75.5502 113.042 70.3744C112.809 68.5239 112.805 66.6193 112.359 64.8061L111.459 65.7871C99.3173 74.0313 82.775 75.1883 68.4109 75.0496C58.403 74.9514 47.3027 73.8013 37.7784 70.6856C33.8314 69.3933 29.668 67.756 26.7931 64.6572C26.4278 66.0476 26.2587 67.526 26.2722 68.9603L26.1167 69.3257V70.8311C27.2903 71.7309 28.3184 72.5462 29.6273 73.2668C42.2497 80.2085 62.9758 81.1388 77.1403 80.4724L77.137 80.469Z" fill="url(#paint36_linear_492_6826)"/>
<defs>
<linearGradient id="paint0_linear_492_6826" x1="25.9761" y1="69.8745" x2="113.042" y2="69.8745" gradientUnits="userSpaceOnUse">
<stop stop-color="#9BEC00"/>
<stop offset="1" stop-color="#059212"/>
</linearGradient>
<linearGradient id="paint1_linear_492_6826" x1="26.0129" y1="69.8734" x2="113.059" y2="69.8734" gradientUnits="userSpaceOnUse">
<stop stop-color="#9BEC00"/>
<stop offset="1" stop-color="#059212"/>
</linearGradient>
<linearGradient id="paint2_linear_492_6826" x1="26" y1="69.8776" x2="113.039" y2="69.8776" gradientUnits="userSpaceOnUse">
<stop stop-color="#9BEC00"/>
<stop offset="1" stop-color="#059212"/>
</linearGradient>
<linearGradient id="paint3_linear_492_6826" x1="26.0069" y1="69.8879" x2="113.042" y2="69.8879" gradientUnits="userSpaceOnUse">
<stop stop-color="#9BEC00"/>
<stop offset="1" stop-color="#059212"/>
</linearGradient>
<linearGradient id="paint4_linear_492_6826" x1="26" y1="69.8811" x2="113.061" y2="69.8811" gradientUnits="userSpaceOnUse">
<stop stop-color="#9BEC00"/>
<stop offset="1" stop-color="#059212"/>
</linearGradient>
<linearGradient id="paint5_linear_492_6826" x1="26" y1="69.8722" x2="113.045" y2="69.8722" gradientUnits="userSpaceOnUse">
<stop stop-color="#9BEC00"/>
<stop offset="1" stop-color="#059212"/>
</linearGradient>
<linearGradient id="paint6_linear_492_6826" x1="25.999" y1="69.843" x2="113.044" y2="69.843" gradientUnits="userSpaceOnUse">
<stop stop-color="#9BEC00"/>
<stop offset="1" stop-color="#059212"/>
</linearGradient>
<linearGradient id="paint7_linear_492_6826" x1="26" y1="69.9068" x2="113.042" y2="69.9068" gradientUnits="userSpaceOnUse">
<stop stop-color="#9BEC00"/>
<stop offset="1" stop-color="#059212"/>
</linearGradient>
<linearGradient id="paint8_linear_492_6826" x1="26" y1="69.8296" x2="113.043" y2="69.8296" gradientUnits="userSpaceOnUse">
<stop stop-color="#9BEC00"/>
<stop offset="1" stop-color="#059212"/>
</linearGradient>
<linearGradient id="paint9_linear_492_6826" x1="25.9798" y1="69.8612" x2="113.042" y2="69.8612" gradientUnits="userSpaceOnUse">
<stop stop-color="#9BEC00"/>
<stop offset="1" stop-color="#059212"/>
</linearGradient>
<linearGradient id="paint10_linear_492_6826" x1="26.0219" y1="69.8811" x2="113.042" y2="69.8811" gradientUnits="userSpaceOnUse">
<stop stop-color="#9BEC00"/>
<stop offset="1" stop-color="#059212"/>
</linearGradient>
<linearGradient id="paint11_linear_492_6826" x1="25.9963" y1="69.8751" x2="113.039" y2="69.8751" gradientUnits="userSpaceOnUse">
<stop stop-color="#9BEC00"/>
<stop offset="1" stop-color="#059212"/>
</linearGradient>
<linearGradient id="paint12_linear_492_6826" x1="25.9876" y1="69.8818" x2="113.018" y2="69.8818" gradientUnits="userSpaceOnUse">
<stop stop-color="#9BEC00"/>
<stop offset="1" stop-color="#059212"/>
</linearGradient>
<linearGradient id="paint13_linear_492_6826" x1="26.0041" y1="69.8863" x2="113.049" y2="69.8863" gradientUnits="userSpaceOnUse">
<stop stop-color="#9BEC00"/>
<stop offset="1" stop-color="#059212"/>
</linearGradient>
<linearGradient id="paint14_linear_492_6826" x1="26.005" y1="69.8838" x2="113.042" y2="69.8838" gradientUnits="userSpaceOnUse">
<stop stop-color="#9BEC00"/>
<stop offset="1" stop-color="#059212"/>
</linearGradient>
<linearGradient id="paint15_linear_492_6826" x1="25.9993" y1="69.8781" x2="113.057" y2="69.8781" gradientUnits="userSpaceOnUse">
<stop stop-color="#9BEC00"/>
<stop offset="1" stop-color="#059212"/>
</linearGradient>
<linearGradient id="paint16_linear_492_6826" x1="25.9925" y1="69.8715" x2="113.035" y2="69.8715" gradientUnits="userSpaceOnUse">
<stop stop-color="#9BEC00"/>
<stop offset="1" stop-color="#059212"/>
</linearGradient>
<linearGradient id="paint17_linear_492_6826" x1="26.0021" y1="69.865" x2="113.052" y2="69.865" gradientUnits="userSpaceOnUse">
<stop stop-color="#9BEC00"/>
<stop offset="1" stop-color="#059212"/>
</linearGradient>
<linearGradient id="paint18_linear_492_6826" x1="26.0078" y1="69.8508" x2="113.048" y2="69.8508" gradientUnits="userSpaceOnUse">
<stop stop-color="#9BEC00"/>
<stop offset="1" stop-color="#059212"/>
</linearGradient>
<linearGradient id="paint19_linear_492_6826" x1="26.0083" y1="69.8761" x2="113.045" y2="69.8761" gradientUnits="userSpaceOnUse">
<stop stop-color="#9BEC00"/>
<stop offset="1" stop-color="#059212"/>
</linearGradient>
<linearGradient id="paint20_linear_492_6826" x1="26.0289" y1="69.9112" x2="113.048" y2="69.9112" gradientUnits="userSpaceOnUse">
<stop stop-color="#9BEC00"/>
<stop offset="1" stop-color="#059212"/>
</linearGradient>
<linearGradient id="paint21_linear_492_6826" x1="25.981" y1="69.9187" x2="113.022" y2="69.9187" gradientUnits="userSpaceOnUse">
<stop stop-color="#9BEC00"/>
<stop offset="1" stop-color="#059212"/>
</linearGradient>
<linearGradient id="paint22_linear_492_6826" x1="26.0148" y1="69.8752" x2="113.054" y2="69.8752" gradientUnits="userSpaceOnUse">
<stop stop-color="#9BEC00"/>
<stop offset="1" stop-color="#059212"/>
</linearGradient>
<linearGradient id="paint23_linear_492_6826" x1="25.9524" y1="69.8927" x2="113.014" y2="69.8927" gradientUnits="userSpaceOnUse">
<stop stop-color="#9BEC00"/>
<stop offset="1" stop-color="#059212"/>
</linearGradient>
<linearGradient id="paint24_linear_492_6826" x1="25.9974" y1="69.8537" x2="113.064" y2="69.8537" gradientUnits="userSpaceOnUse">
<stop stop-color="#9BEC00"/>
<stop offset="1" stop-color="#059212"/>
</linearGradient>
<linearGradient id="paint25_linear_492_6826" x1="25.9804" y1="69.8651" x2="113.042" y2="69.8651" gradientUnits="userSpaceOnUse">
<stop stop-color="#9BEC00"/>
<stop offset="1" stop-color="#059212"/>
</linearGradient>
<linearGradient id="paint26_linear_492_6826" x1="26" y1="69.8849" x2="113.034" y2="69.8849" gradientUnits="userSpaceOnUse">
<stop stop-color="#9BEC00"/>
<stop offset="1" stop-color="#059212"/>
</linearGradient>
<linearGradient id="paint27_linear_492_6826" x1="26.0518" y1="69.8989" x2="113.042" y2="69.8989" gradientUnits="userSpaceOnUse">
<stop stop-color="#9BEC00"/>
<stop offset="1" stop-color="#059212"/>
</linearGradient>
<linearGradient id="paint28_linear_492_6826" x1="26" y1="69.8951" x2="113.012" y2="69.8951" gradientUnits="userSpaceOnUse">
<stop stop-color="#9BEC00"/>
<stop offset="1" stop-color="#059212"/>
</linearGradient>
<linearGradient id="paint29_linear_492_6826" x1="25.9806" y1="69.858" x2="113.005" y2="69.858" gradientUnits="userSpaceOnUse">
<stop stop-color="#9BEC00"/>
<stop offset="1" stop-color="#059212"/>
</linearGradient>
<linearGradient id="paint30_linear_492_6826" x1="26" y1="69.8801" x2="113.042" y2="69.8801" gradientUnits="userSpaceOnUse">
<stop stop-color="#9BEC00"/>
<stop offset="1" stop-color="#059212"/>
</linearGradient>
<linearGradient id="paint31_linear_492_6826" x1="25.9966" y1="69.9016" x2="113.039" y2="69.9016" gradientUnits="userSpaceOnUse">
<stop stop-color="#9BEC00"/>
<stop offset="1" stop-color="#059212"/>
</linearGradient>
<linearGradient id="paint32_linear_492_6826" x1="26" y1="69.8639" x2="113.022" y2="69.8639" gradientUnits="userSpaceOnUse">
<stop stop-color="#9BEC00"/>
<stop offset="1" stop-color="#059212"/>
</linearGradient>
<linearGradient id="paint33_linear_492_6826" x1="26" y1="69.899" x2="113.021" y2="69.899" gradientUnits="userSpaceOnUse">
<stop stop-color="#9BEC00"/>
<stop offset="1" stop-color="#059212"/>
</linearGradient>
<linearGradient id="paint34_linear_492_6826" x1="26" y1="69.8482" x2="113.042" y2="69.8482" gradientUnits="userSpaceOnUse">
<stop stop-color="#9BEC00"/>
<stop offset="1" stop-color="#059212"/>
</linearGradient>
<linearGradient id="paint35_linear_492_6826" x1="25.9884" y1="69.8609" x2="112.995" y2="69.8609" gradientUnits="userSpaceOnUse">
<stop stop-color="#9BEC00"/>
<stop offset="1" stop-color="#059212"/>
</linearGradient>
<linearGradient id="paint36_linear_492_6826" x1="26.1133" y1="72.651" x2="113.042" y2="72.651" gradientUnits="userSpaceOnUse">
<stop stop-color="#9BEC00"/>
<stop offset="1" stop-color="#059212"/>
</linearGradient>
</defs>
</svg>
