<svg width="140" height="140" viewBox="0 0 140 140" fill="none" xmlns="http://www.w3.org/2000/svg">
<rect width="140" height="140" fill="#0A0400"/>
<path d="M86.5252 64.3379C86.5712 64.4103 87.9727 64.6242 88.2162 64.6801C92.2891 65.6407 97.2668 67.9536 97.961 72.5989C98.0794 73.3819 98.0761 75.9251 97.3359 76.389C96.8753 76.6752 96.6055 76.3067 96.2502 76.1619C90.8119 73.9445 82.7549 73.3293 76.9449 73.8853C76.0566 73.9708 74.3853 74.1189 73.5826 74.3656C73.1351 74.5038 72.7864 74.9644 72.3357 74.4282C71.8126 73.8064 72.0626 71.8949 72.2732 71.1316C73.5595 66.4468 79.6163 64.3017 84.0084 64.2425C84.1564 63.7063 84.2025 63.2457 84.3933 62.7061C85.0414 60.8506 86.5219 58.9161 88.1208 57.7844C88.9137 57.2251 90.325 56.35 91.0587 57.4784C91.9009 58.7747 89.9862 59.403 89.2163 59.9886C88.3215 60.6697 87.2457 61.9363 86.8015 62.9693C86.6765 63.2588 86.3607 64.0747 86.5285 64.3379H86.5252Z" fill="url(#paint0_linear_492_6813)"/>
<path d="M62.8476 79.0045C63.1996 78.988 64.7952 78.9124 64.9762 79.0505C65.3413 79.3302 66.1474 83.5939 66.1869 84.2684C66.5093 89.5092 64.259 92.1148 61.2388 95.8752C60.6993 96.5464 59.9426 98.0269 59.0477 98.1223C58.3272 98.1979 57.3073 97.4478 56.6296 97.1517C52.2277 95.2304 49.2009 94.3158 47.0329 89.6013C46.4341 88.3018 45.4471 85.6995 45.2892 84.321C45.253 84.015 45.2761 84.0084 45.5162 83.8472C46.1018 83.4525 47.3355 82.9688 48.0297 82.6662C52.4942 80.7251 57.9653 79.2446 62.8476 79.0045ZM60.6433 86.7161C60.6433 84.5151 58.8602 82.7287 56.6559 82.7287C54.4517 82.7287 52.6685 84.5118 52.6685 86.7161C52.6685 88.9203 54.4517 90.7035 56.6559 90.7035C58.8602 90.7035 60.6433 88.9203 60.6433 86.7161Z" fill="url(#paint1_linear_492_6813)"/>
<path d="M74.0366 75.8922C74.8032 75.7409 75.5829 75.606 76.3593 75.5172C81.6594 74.9184 87.749 75.3264 92.9011 76.695C93.2728 76.7937 95.3948 77.3793 95.4968 77.5767C95.3323 81.7056 94.3519 85.6601 91.2824 88.5914C89.5486 90.2462 87.7523 91.1477 85.808 92.4307C84.9394 93.0032 83.9788 94.1514 82.8372 93.7796C82.2878 93.602 81.2448 92.3255 80.7481 91.878C79.2347 90.5061 77.6884 89.3481 76.4317 87.6965C73.8359 84.2882 73.4806 80.0409 74.0366 75.8922ZM83.4655 78.1162C82.4128 78.2577 81.3008 79.0966 80.7645 79.9981C78.8827 83.1465 81.6528 86.7786 85.2158 85.7061C90.1869 84.2125 88.5847 77.4221 83.4655 78.1162Z" fill="url(#paint2_linear_492_6813)"/>
<path d="M71.0756 48.2994C71.1282 48.3784 72.6482 48.6251 72.9278 48.7008C76.1487 49.543 79.7939 51.5005 81.2415 54.6523C81.8896 56.0604 82.1232 58.212 81.4751 59.6497C80.9651 60.7847 80.5046 60.1202 79.7808 59.8076C76.4579 58.3666 71.2434 57.7218 67.6212 57.554C64.5977 57.4125 60.8439 57.3402 57.8896 58.0179C57.2678 58.1594 56.5341 58.8206 56.0998 58.0639C55.6228 57.2316 56.0307 55.2938 56.3532 54.4088C58.0837 49.6318 63.9332 48.0395 68.5391 48.079C68.8812 45.9241 70.184 43.7396 71.8356 42.3216C72.6844 41.5945 74.8492 40.1503 75.5993 41.6669C76.3066 43.0947 74.5366 43.483 73.6549 44.1409C72.964 44.6575 72.3554 45.3484 71.8882 46.0721C71.6382 46.4604 70.8124 47.8981 71.0723 48.3027L71.0756 48.2994Z" fill="url(#paint3_linear_492_6813)"/>
<path d="M78.82 61.028C78.7279 61.9624 78.6391 62.9198 78.4186 63.8278C74.6089 65.0878 70.9373 68.0915 70.6248 72.3684C70.6018 72.6744 70.707 74.0101 70.661 74.1055C70.5886 74.2536 69.1805 75.0267 68.8976 75.2274C68.7495 75.3327 68.1573 75.9216 68.0356 75.8064C67.3414 71.615 63.9725 69.2693 60.0542 68.3778C59.7845 68.3152 58.5442 68.1869 58.4784 68.029C58.327 67.6803 58.1954 66.5815 58.1428 66.1505C57.9191 64.318 57.9289 62.242 58.0605 60.3964C58.0737 60.2253 58.1461 59.6035 58.2612 59.5443C58.508 59.416 59.6693 59.3008 60.0279 59.2581C62.548 58.962 65.1076 58.9784 67.631 59.1001C71.4177 59.2844 75.211 59.8766 78.82 61.028ZM67.5026 61.9328C66.4334 62.0446 65.3214 62.6928 64.7227 63.5876C62.4987 66.9104 66.8019 71.7302 70.2892 68.71C73.1975 66.1867 71.4012 61.5215 67.5059 61.9328H67.5026Z" fill="url(#paint4_linear_492_6813)"/>
<path d="M53.2574 69.6675L56.3927 69.3747C60.413 69.401 64.9268 70.7729 66.3908 74.9018C66.6178 75.5367 66.9501 76.8593 66.5191 77.4317C66.1901 77.866 65.8381 77.5568 65.4795 77.514C61.7026 77.0666 55.5768 78.376 51.9052 79.5241C49.3917 80.3104 45.8353 81.5705 43.8284 83.199C42.9533 83.9096 42.4828 82.6792 42.292 81.9982C40.8642 76.9547 44.9207 73.1088 49.0627 71.1381C49.3621 70.9966 50.7669 70.513 50.8491 70.3387C50.9774 70.0787 50.7307 69.5359 50.734 69.197C50.757 67.0652 51.7144 64.4661 53.1751 62.91C53.8167 62.2224 55.1524 61.2124 55.9452 62.2882C56.7513 63.3837 55.0899 64.4168 54.5207 65.2162C53.6949 66.3743 53.0008 68.243 53.2541 69.6708L53.2574 69.6675Z" fill="url(#paint5_linear_492_6813)"/>
<defs>
<linearGradient id="paint0_linear_492_6813" x1="41.996" y1="69.5656" x2="98.0152" y2="69.5656" gradientUnits="userSpaceOnUse">
<stop stop-color="#9BEC00"/>
<stop offset="1" stop-color="#059212"/>
</linearGradient>
<linearGradient id="paint1_linear_492_6813" x1="41.9925" y1="69.5646" x2="98.0152" y2="69.5646" gradientUnits="userSpaceOnUse">
<stop stop-color="#9BEC00"/>
<stop offset="1" stop-color="#059212"/>
</linearGradient>
<linearGradient id="paint2_linear_492_6813" x1="42.0047" y1="69.5764" x2="98.0183" y2="69.5764" gradientUnits="userSpaceOnUse">
<stop stop-color="#9BEC00"/>
<stop offset="1" stop-color="#059212"/>
</linearGradient>
<linearGradient id="paint3_linear_492_6813" x1="42.009" y1="69.5591" x2="98.0258" y2="69.5591" gradientUnits="userSpaceOnUse">
<stop stop-color="#9BEC00"/>
<stop offset="1" stop-color="#059212"/>
</linearGradient>
<linearGradient id="paint4_linear_492_6813" x1="41.9949" y1="69.5555" x2="98.0183" y2="69.5555" gradientUnits="userSpaceOnUse">
<stop stop-color="#9BEC00"/>
<stop offset="1" stop-color="#059212"/>
</linearGradient>
<linearGradient id="paint5_linear_492_6813" x1="42.0025" y1="72.6117" x2="66.7296" y2="72.6117" gradientUnits="userSpaceOnUse">
<stop stop-color="#9BEC00"/>
<stop offset="1" stop-color="#059212"/>
</linearGradient>
</defs>
</svg>
