&@<svg width="140" height="141" viewBox="0 0 140 141" fill="none" xmlns="http://www.w3.org/2000/svg">
<rect width="140" height="140" fill="#0A0400"/>
<path d="M73.9686 98.3477C74.9639 97.2485 76.2047 93.9261 76.8036 97.4336C77.1536 99.498 76.5877 100.803 75.3026 102.345C74.928 102.796 74.2858 102.649 74.4471 103.294C74.9886 103.212 76.4288 103.663 76.5985 104.18C76.8063 104.811 75.9262 105.896 75.3329 105.91C74.5235 105.929 74.0752 103.953 73.326 103.818L73.3202 103.813C72.896 103.737 70.7333 105.06 69.5194 104.973C68.7099 104.915 66.1563 103.786 66.4872 102.717C66.5993 102.353 68.259 102.11 68.8114 101.886C70.5586 101.172 72.6999 99.7476 73.9686 98.3477Z" fill="url(#paint0_linear_492_6823)"/>
<path fill-rule="evenodd" clip-rule="evenodd" d="M66.5995 91.459C68.8388 91.0353 70.7203 91.6423 72.369 93.0449C72.8201 93.4277 73.8015 94.1442 73.9003 94.7539C74.2311 96.8265 68.3522 101.617 66.3368 100.166L66.3338 100.168C64.5321 98.8686 63.9992 91.9511 66.5995 91.459ZM69.9813 94.8281C66.9574 92.3978 66.7797 97.3821 69.0653 97.7051C70.2165 97.8664 71.2419 95.8398 69.9813 94.8281Z" fill="url(#paint1_linear_492_6823)"/>
<path fill-rule="evenodd" clip-rule="evenodd" d="M80.6727 87.8203C81.1294 87.8941 81.6659 88.6295 81.953 88.9658C83.0029 90.199 83.4567 91.6071 83.1395 93.2832C82.7704 95.2272 77.5923 94.8282 76.621 93.4805V93.4824C75.5359 91.973 79.1222 87.5721 80.6727 87.8203ZM80.618 90.751C79.8605 89.8081 78.3464 90.5763 78.4667 91.4375C78.7073 93.1465 82.4364 93.015 80.618 90.751Z" fill="url(#paint2_linear_492_6823)"/>
<path d="M74.9969 86.7695C76.1506 85.8073 77.127 85.384 78.6717 85.6465C81.296 86.0921 78.8115 87.0239 77.9881 87.7676C76.9382 88.7164 75.8747 90.3219 75.3387 91.6289C75.1692 92.0418 74.9881 93.2834 74.7147 93.3682C73.9137 93.6166 73.0692 91.7031 73.0253 91.0986C72.9596 90.1881 73.9489 88.5691 73.8915 88.252H73.8944C73.7932 87.6942 72.3146 87.3551 72.328 86.751C72.3389 86.3053 73.1508 85.6459 73.6239 85.8018C74.0093 85.9302 74.3486 87.0071 74.286 87.4121C74.7697 87.5294 74.6607 87.0511 74.9969 86.7695Z" fill="url(#paint3_linear_492_6823)"/>
<path d="M60.0917 82.6465C60.6194 79.5567 61.713 82.4824 62.5907 83.4531C63.709 84.6891 65.5962 85.9443 67.1356 86.5732C67.6227 86.7728 69.0848 86.9859 69.1835 87.3057C69.4733 88.2518 67.2223 89.2449 66.5087 89.2969C65.4394 89.3732 63.5336 88.2051 63.159 88.2734L63.1571 88.2715C62.5009 88.389 62.104 90.1302 61.3905 90.1143C60.8655 90.1006 60.0911 89.1457 60.2743 88.5879C60.4223 88.1341 61.6914 87.7348 62.1698 87.8086C62.3116 87.2404 61.7457 87.3687 61.4149 86.9727C60.2801 85.6164 59.7827 84.4676 60.0917 82.6465Z" fill="url(#paint4_linear_492_6823)"/>
<path d="M83.2684 78.0332C84.2636 76.9336 85.5046 73.6127 86.1034 77.1201C86.4534 79.1846 85.8876 80.4891 84.6024 82.0312C84.2278 82.4824 83.5856 82.3352 83.7469 82.9805C84.2886 82.8987 85.7288 83.3495 85.8983 83.8662C86.1059 84.4978 85.226 85.5827 84.6327 85.5967C83.8234 85.6158 83.3749 83.6394 82.6258 83.5049L82.62 83.5C82.1962 83.4234 80.0333 84.7466 78.8192 84.6592C78.0099 84.6018 75.4564 83.4724 75.787 82.4033C75.8991 82.0396 77.5588 81.7965 78.1112 81.5723C79.8585 80.8586 81.9997 79.4332 83.2684 78.0332Z" fill="url(#paint5_linear_492_6823)"/>
<path fill-rule="evenodd" clip-rule="evenodd" d="M63.9989 78.7832C65.4536 77.5473 67.1133 77.0111 69.0848 77.3857C71.3733 77.8206 70.9057 83.9172 69.3172 85.0605V85.0586C67.5398 86.3407 62.3587 82.1156 62.6512 80.2891C62.7364 79.7506 63.6024 79.1222 63.9989 78.7832ZM66.911 82.8896C68.9235 82.6052 68.7647 78.2145 66.1014 80.3555C64.9917 81.2469 65.8966 83.0318 66.911 82.8896Z" fill="url(#paint6_linear_492_6823)"/>
<path fill-rule="evenodd" clip-rule="evenodd" d="M75.8993 71.1455C78.1385 70.7218 80.0201 71.3288 81.6688 72.7314C82.12 73.1143 83.1015 73.8308 83.2001 74.4404C83.5309 76.5131 77.6518 81.3035 75.6366 79.8516L75.6337 79.8545C73.8317 78.5556 73.2989 71.6377 75.8993 71.1455ZM79.2811 74.5146C76.257 72.0839 76.0794 77.0677 78.3651 77.3906C79.5163 77.552 80.5417 75.5264 79.2811 74.5146Z" fill="url(#paint7_linear_492_6823)"/>
<path fill-rule="evenodd" clip-rule="evenodd" d="M56.7176 73.7217C56.7723 71.8623 62.293 70.5471 63.3758 71.6846C63.6954 72.021 63.6733 72.9281 63.6952 73.3711C63.7799 74.9898 63.2852 76.385 62.0165 77.5225C60.5426 78.8457 56.6714 75.3842 56.7176 73.7217ZM61.5516 73.9785C61.5215 72.7672 59.8513 72.4584 59.4247 73.2158C58.577 74.7197 61.6227 76.8797 61.5516 73.9785Z" fill="url(#paint8_linear_492_6823)"/>
<path d="M65.6503 67.7471C65.694 67.1428 66.5395 65.2287 67.3407 65.4775C67.6139 65.5635 67.7943 66.8041 67.9637 67.2168C68.4997 68.5237 69.5633 70.1284 70.6131 71.0771C71.4362 71.8209 73.9217 72.7535 71.2967 73.1992C69.7519 73.4617 68.7758 73.0377 67.6219 72.0752C67.2857 71.7935 67.3949 71.3151 66.911 71.4326C66.9739 71.8373 66.6344 72.9145 66.2489 73.043C65.7759 73.1985 64.9641 72.5404 64.953 72.0947C64.9393 71.4905 66.4187 71.1514 66.5204 70.5938H66.5174C66.5749 70.2766 65.5848 68.6577 65.6503 67.7471Z" fill="url(#paint9_linear_492_6823)"/>
<path d="M57.3954 65.7646C57.6743 65.4174 58.7191 65.3868 59.0008 65.7969C59.2304 66.133 58.8449 67.1936 58.5497 67.4785C58.8614 67.8695 59.0663 67.4215 59.5038 67.4023C61.002 67.3395 62.0353 67.594 63.1044 68.7422C64.92 70.6891 62.3797 69.9178 61.2723 70.0107C59.8642 70.1284 58.0435 70.7551 56.8241 71.4688C56.4413 71.693 55.5413 72.5701 55.2733 72.4717C54.4861 72.1815 54.9759 70.1501 55.3094 69.6416C55.8101 68.8788 57.5788 68.1953 57.7264 67.9082H57.7294C57.9861 67.4023 57.0156 66.2377 57.3954 65.7646Z" fill="url(#paint10_linear_492_6823)"/>
<path fill-rule="evenodd" clip-rule="evenodd" d="M69.2489 65.3652C70.2196 64.0172 75.3983 63.6184 75.7674 65.5625C76.0845 67.2385 75.6308 68.6468 74.5809 69.8799C74.2939 70.2162 73.7581 70.9512 73.3016 71.0254C71.7512 71.2742 68.1633 66.8717 69.2489 65.3623V65.3652ZM73.244 68.0967C75.0618 65.833 71.3327 65.7016 71.0917 67.4102C70.9713 68.2715 72.4866 69.04 73.244 68.0967Z" fill="url(#paint11_linear_492_6823)"/>
<path fill-rule="evenodd" clip-rule="evenodd" d="M79.6561 66.752C79.3635 64.9255 84.5445 60.7007 86.3221 61.9824V61.9805C87.9108 63.1235 88.3783 69.2205 86.0897 69.6553C84.1183 70.0298 82.4584 69.4937 81.0038 68.2578C80.6073 67.9188 79.7412 67.2904 79.6561 66.752ZM83.9159 64.1514C82.9016 64.0094 81.9969 65.7941 83.1063 66.6855C85.7696 68.8266 85.9284 64.4357 83.9159 64.1514Z" fill="url(#paint12_linear_492_6823)"/>
<path d="M78.3954 56.9268C79.109 56.9104 79.5057 58.652 80.162 58.7695L80.1649 58.7676C80.5406 58.8349 82.4458 57.6676 83.5145 57.7441C84.2286 57.7964 86.4781 58.7894 86.1883 59.7354C86.0894 60.0551 84.6274 60.2682 84.1405 60.4678C82.601 61.0967 80.7139 62.352 79.5956 63.5879C78.7178 64.5587 77.6243 67.4843 77.0965 64.3945C76.7876 62.5734 77.285 61.4246 78.4198 60.0684C78.7506 59.6722 79.3165 59.8007 79.1747 59.2324C78.6963 59.3062 77.4285 58.9068 77.2801 58.4531C77.0969 57.8953 77.8704 56.9404 78.3954 56.9268Z" fill="url(#paint13_linear_492_6823)"/>
<path d="M65.7489 56.5576C66.7442 55.4583 67.986 52.1364 68.5848 55.6445C68.9348 57.7089 68.368 59.0135 67.0829 60.5557C66.7083 61.0064 66.0665 60.8592 66.2274 61.5039C66.7688 61.4219 68.2102 61.8738 68.3797 62.3906C68.587 63.0223 67.7064 64.1074 67.1131 64.1211C66.3039 64.1399 65.8555 62.1633 65.1063 62.0293L65.1004 62.0234C64.6756 61.9478 62.5133 63.2711 61.2997 63.1836C60.49 63.1259 57.9374 61.9966 58.2674 60.9277C58.3796 60.5641 60.0393 60.3199 60.5917 60.0957C62.3389 59.382 64.4801 57.9576 65.7489 56.5576Z" fill="url(#paint14_linear_492_6823)"/>
<path fill-rule="evenodd" clip-rule="evenodd" d="M58.3797 49.6699C60.6192 49.2461 62.5005 49.8531 64.1493 51.2559C64.6005 51.6387 65.5821 52.3551 65.6805 52.9648C66.0114 55.0375 60.1323 59.8279 58.1171 58.376L58.1141 58.3789C56.3123 57.0797 55.7795 50.1621 58.3797 49.6699ZM61.7626 53.0391C58.7383 50.6082 58.5606 55.5924 60.8465 55.915C61.9974 56.0758 63.0222 54.0508 61.7626 53.0391Z" fill="url(#paint15_linear_492_6823)"/>
<path fill-rule="evenodd" clip-rule="evenodd" d="M71.9422 47.6904C74.2008 46.0635 80.7821 51.4285 80.4129 53.75C80.3032 54.4335 79.2021 55.2349 78.6991 55.6641C76.8507 57.2336 74.7446 57.9143 72.2372 57.4385C69.3282 56.8883 69.9244 49.1421 71.9422 47.6875V47.6904ZM74.9989 50.4463C72.4427 50.8076 72.6425 56.388 76.0272 53.668C77.4354 52.5332 76.2868 50.2658 74.9989 50.4463Z" fill="url(#paint16_linear_492_6823)"/>
<path d="M82.0106 41.2559C82.6751 41.2727 83.659 42.4872 83.4266 43.1953C83.2347 43.7749 81.6244 44.2804 81.0174 44.1875C80.8398 44.9093 81.5563 44.748 81.9774 45.251C83.4184 46.9764 84.0528 48.4367 83.659 50.75C82.9891 54.6738 81.5999 50.9578 80.4842 49.7246C79.0651 48.1578 76.6668 46.5639 74.7118 45.7627C74.0965 45.5112 72.2387 45.2402 72.1122 44.833C71.7403 43.6354 74.6024 42.3724 75.5077 42.3066C76.8694 42.2109 79.2897 43.6902 79.7655 43.6055V43.5996C80.6021 43.4489 81.1056 41.234 82.0106 41.2559Z" fill="url(#paint17_linear_492_6823)"/>
<path fill-rule="evenodd" clip-rule="evenodd" d="M60.7342 46.4053C60.4417 44.5787 65.6229 40.3543 67.4003 41.6367V41.6338C68.9889 42.7768 69.4565 48.8738 67.1678 49.3086C65.1964 49.6832 63.5365 49.148 62.0819 47.9121C61.6855 47.5731 60.8192 46.9439 60.7342 46.4053ZM64.994 43.8047C63.9796 43.6628 63.0744 45.4485 64.1844 46.3398C66.8477 48.4809 67.0065 44.0891 64.994 43.8047Z" fill="url(#paint18_linear_492_6823)"/>
<path d="M59.4735 36.5801C60.1871 36.5638 60.5839 38.3063 61.2401 38.4238L61.243 38.4209C61.6186 38.4883 63.5239 37.3219 64.5926 37.3984C65.3068 37.4507 67.5562 38.4428 67.2665 39.3887C67.1681 39.7085 65.7057 39.9215 65.2186 40.1211C63.6792 40.75 61.7921 42.0053 60.6737 43.2412C59.796 44.2119 58.7024 47.1377 58.1747 44.0479C57.8658 42.227 58.3634 41.0787 59.4979 39.7227C59.8287 39.3262 60.3948 39.4543 60.2528 38.8857C59.7744 38.9596 58.5064 38.5602 58.3583 38.1064C58.1751 37.5486 58.9485 36.5938 59.4735 36.5801Z" fill="url(#paint19_linear_492_6823)"/>
<path d="M71.1083 35.5957C71.1523 34.9911 71.9968 33.0782 72.7977 33.3262C73.0711 33.4109 73.2522 34.6525 73.4217 35.0654C73.9577 36.3725 75.0211 37.9779 76.0712 38.9268C76.8943 39.6705 79.3796 40.6031 76.7547 41.0488C75.21 41.3113 74.2337 40.8871 73.0799 39.9248C72.7436 39.6432 72.8528 39.1648 72.369 39.2822C72.4317 39.6871 72.0924 40.7641 71.7069 40.8926C71.2338 41.0483 70.4219 40.389 70.411 39.9434C70.398 39.3393 71.8763 39.0001 71.9774 38.4424H71.9754C72.0323 38.1246 71.0427 36.506 71.1083 35.5957Z" fill="url(#paint20_linear_492_6823)"/>
<path fill-rule="evenodd" clip-rule="evenodd" d="M74.704 33.2148C75.6746 31.8668 80.853 31.4672 81.2225 33.4111C81.5397 35.0872 81.0859 36.4954 80.036 37.7285C79.749 38.0648 79.2133 38.8009 78.7567 38.875C77.2064 39.1238 73.6187 34.7214 74.704 33.2119V33.2148ZM78.702 35.9463C80.5202 33.6823 76.7903 33.5508 76.5497 35.2598C76.4294 36.1211 77.9446 36.8896 78.702 35.9463Z" fill="url(#paint21_linear_492_6823)"/>
<path fill-rule="evenodd" clip-rule="evenodd" d="M64.4198 26.5293C66.435 25.0773 72.3141 29.8678 71.9833 31.9404C71.8847 32.5502 70.9031 33.2666 70.452 33.6494C68.8032 35.0521 66.9219 35.6591 64.6825 35.2354C62.0822 34.7432 62.6152 27.8258 64.4169 26.5264L64.4198 26.5293ZM67.1493 28.9902C64.8633 29.3129 65.0411 34.2971 68.0653 31.8662C69.3252 30.8545 68.3002 28.8294 67.1493 28.9902Z" fill="url(#paint22_linear_492_6823)"/>
<path d="M73.4159 20.7842C74.0091 20.7978 74.8899 21.883 74.6825 22.5146C74.5129 23.0314 73.0715 23.4824 72.5301 23.4004C72.3688 24.0456 73.011 23.8987 73.3856 24.3496C74.6708 25.8918 75.2376 27.1963 74.8876 29.2607C74.2888 32.7685 73.0469 29.4471 72.0516 28.3477C70.7829 26.9477 68.6417 25.5223 66.8944 24.8086C66.3418 24.5844 64.6823 24.3411 64.5702 23.9775C64.2398 22.9086 66.7927 21.7794 67.6024 21.7217C68.8162 21.6342 70.9786 22.9567 71.4032 22.8809L71.409 22.876C72.1582 22.742 72.6066 20.7653 73.4159 20.7842Z" fill="url(#paint23_linear_492_6823)"/>
<path fill-rule="evenodd" clip-rule="evenodd" d="M47.1366 0C47.1772 5.30135 47.0907 10.6041 46.5292 15.8652H46.7694C46.9225 14.5474 47.6639 12.9585 47.91 11.5723C48.6119 7.59712 48.8927 3.80338 49.0243 0H51.5379C51.1964 5.48711 50.7077 10.9643 50.3758 16.4414C50.2391 18.7082 50.4254 21.1645 50.2723 23.2207L50.2665 23.2178C50.2471 23.461 49.8024 23.6688 49.8954 23.8027C49.9132 23.8296 50.2344 23.7678 50.3026 23.8633C50.5975 24.2906 50.3568 31.0823 50.1327 32.0254L50.6171 32.2656C52.7744 26.3868 52.2956 17.9351 52.5526 11.6133C52.6018 10.3555 52.9872 8.77969 53.0419 7.51367C53.1516 5.02872 53.0603 2.51122 52.8895 0H57.2098C57.3921 0.970054 57.5513 1.95435 57.5624 2.92871C57.5924 5.53159 56.6847 7.61507 56.4413 9.94727C56.2635 11.6562 56.5008 13.453 56.3641 15.1592C56.1755 17.5244 55.2595 19.4878 54.9969 21.79C54.8602 22.9959 54.8684 24.5629 54.9696 25.7441C55.4208 26.1187 56.9139 20.8766 57.0233 20.4336C57.3459 19.1157 57.6143 17.7511 57.8358 16.4141C58.0161 15.3228 57.6744 12.764 58.8309 12.4551C58.8829 12.0066 58.344 12.477 58.3358 11.8672C58.3167 10.6996 58.8608 9.06953 59.0741 7.86914C59.0989 7.72158 59.2906 7.53326 59.3153 7.38574C59.8087 4.54388 59.4266 2.24547 59.0458 0H62.7713C62.8485 1.4355 63.0774 2.75266 63.5917 3.47266C63.7556 3.70227 63.6052 3.89913 64.1463 3.77344C64.2174 2.63326 64.0483 1.40562 64.1522 0.276367C64.1606 0.184298 64.1723 0.0922556 64.1815 0H69.9393C70.052 1.30568 70.1644 2.60986 70.1844 3.9209C70.802 4.05739 70.6931 3.69093 70.827 3.24805C71.0677 2.45428 71.2344 1.1096 71.329 0H74.4647C74.1103 4.48266 73.7549 9.49814 77.1864 12.6982C77.2438 12.7502 77.594 12.7531 77.7909 12.9307C81.1979 16.0232 82.5544 19.094 84.8758 23.0068C85.1438 23.4607 85.1219 24.1444 85.6385 24.2949C85.6385 23.6305 85.696 22.9605 85.5838 22.2988C85.3432 20.8742 82.8411 15.9111 81.9715 14.5576C79.4888 10.697 77.2686 11.3913 76.4921 5.78613C76.3051 4.43992 76.3014 2.07465 76.1561 0H78.8758C79.0917 1.30354 79.4016 2.50097 79.9071 3.35742C80.9954 5.20039 80.8895 1.97402 80.8212 0.995117C80.7979 0.666939 80.7666 0.335256 80.7323 0H84.4383C84.7038 2.40839 84.5087 4.86764 84.6786 7.25977C84.8618 9.85742 85.7317 12.4086 86.4891 14.875C87.0713 15.0663 86.8039 14.3777 86.7792 14.0986C86.6534 12.6221 86.2126 10.85 86.1278 9.43359H86.1307C85.9105 5.73285 86.4644 3.13702 85.4999 0H88.5262C88.5322 0.382899 88.5399 0.764331 88.5399 1.14258C88.5399 1.17539 88.8329 1.77695 88.9012 1.74414V1.74707C89.3345 1.20851 89.5717 0.618729 89.6903 0H98.7528C98.1405 0.710266 97.5666 1.45761 97.036 2.23633C95.8165 4.02733 95.0563 5.56174 94.8485 7.7793C93.8805 18.0605 95.8321 29.5941 96.5047 39.8809C98.5008 70.3609 98.3866 101.273 102.611 131.608C103.082 134.985 103.709 137.59 104.585 140H100.617C100.348 138.852 100.099 137.683 99.7645 136.626C99.461 135.672 99.2314 134.239 98.1981 133.968C97.963 134.29 98.8297 138.562 98.9911 139.333C99.0387 139.56 99.0846 139.782 99.1297 140H95.2997C95.1937 137.83 95.4554 135.522 95.2997 133.366C94.9551 128.598 93.5381 123.112 93.1307 118.382C93.0488 117.444 93.3411 112.78 92.8661 112.484C92.7348 112.405 92.3762 112.501 92.1629 112.468C92.3051 113.652 91.9717 114.795 91.9198 115.954C91.6245 122.705 92.5345 132.442 94.6454 138.854V138.852C94.7446 139.155 94.9288 139.924 95.2792 140H90.0848C89.3779 136.401 88.8501 132.779 88.2499 129.109C87.9135 127.056 86.9456 125.128 87.3475 122.883C86.7598 123.173 86.7518 124.341 86.6561 124.967C85.9517 129.545 86.7261 134.823 87.9764 140H82.1376C82.0779 139.691 82.0266 139.459 82.0213 139.401C81.4991 133.927 82.1827 130.331 82.3631 125.152V125.149C82.4533 122.516 81.7477 119.834 82.0184 117.182C82.2344 115.068 83.6536 113.471 84.0829 111.516C84.5039 109.593 84.5802 107.204 84.911 105.222C82.683 106.149 82.9428 109.32 82.202 111.327C80.6161 115.626 80.1538 115.309 80.0936 120.31C80.028 125.786 79.0465 134.588 80.7362 139.475C80.7671 139.564 80.8377 139.756 80.9247 140H74.8358C74.6564 138.207 74.4422 136.393 74.534 134.58C74.8102 129.139 75.4229 125.122 75.0155 119.479C75.0045 119.317 75.0292 119.153 75.0155 118.994C74.887 117.455 74.8649 115.363 74.4247 113.908C74.2989 113.493 74.1869 112.859 73.5692 112.957C73.3532 117.597 73.0768 122.193 73.0741 126.855C73.0714 130.593 72.6067 134.463 72.8309 138.212C72.8663 138.807 72.9536 139.404 73.0604 140H66.5262C66.7351 137.974 66.783 135.92 66.7909 133.858C66.7963 132.625 66.591 130.312 66.785 129.271V129.275C66.8456 128.956 67.5292 129.306 67.5292 129.021C67.4772 128.745 66.9471 129.007 66.8182 128.888C66.4409 128.538 67.2337 123.195 67.2801 122.254C67.4579 118.669 66.6241 113.971 64.9999 110.77C64.7046 110.184 63.5637 107.978 62.6942 108.609C64.5535 113.312 64.959 117.966 64.8797 122.989C64.7902 128.642 64.969 134.34 64.6649 140H59.7547C60.439 136.717 60.9135 133.39 61.0155 129.992V129.989C61.0811 127.788 60.917 125.426 60.2772 123.34C59.9056 123.277 59.9874 123.779 59.952 124.039C59.2651 129.053 58.7519 134.939 57.6649 140H52.7938C53.7958 137.304 54.5577 134.512 54.9374 131.644C55.5772 126.79 55.2186 122.426 55.451 117.783C55.1176 117.668 55.2491 117.31 55.2108 117.059C55.1315 116.515 55.1231 115.85 54.4891 115.609L52.4296 139.771L52.7792 140H47.0633C47.762 137.869 48.3894 135.713 48.8338 133.52C50.294 126.301 51.369 118.12 51.369 110.701C51.369 108.292 51.2618 103.942 50.6493 101.735C50.5563 101.404 50.6192 100.986 50.1571 100.901C49.3287 104.407 49.6354 107.901 49.4276 111.406C48.9108 120.077 47.7926 131.294 45.0829 139.552C45.0259 139.725 44.9139 139.877 44.8114 140H36.7186C37.2271 138.419 37.6886 136.816 38.077 135.204C38.1536 134.881 38.2434 134.553 38.3172 134.238C43.034 114.406 42.3977 90.8577 42.7723 70.3418C43.2008 46.9184 44.1976 23.4501 44.8797 0H47.1366ZM45.4188 95.0742L43.6141 108.729C43.3215 118.33 42.0907 128.403 40.2313 137.837C40.1794 138.11 39.9008 138.434 39.9911 138.803C40.5489 138.379 42.0579 133.804 42.4051 132.762C42.5719 132.264 42.8265 131.745 42.8895 131.554C44.027 128.043 45.5225 121.319 45.785 117.66C45.8999 116.058 45.4707 111.563 45.7987 110.444L45.7958 110.447C45.8751 110.174 46.3979 110.496 46.2694 109.936L45.7713 109.679C46.7585 104.76 45.9434 99.777 45.7821 94.8359L45.4188 95.0742ZM95.5458 94.8359C95.193 100.132 95.2723 105.364 95.5458 110.657C95.7946 115.451 95.9366 119.662 97.3065 124.356C97.7549 125.893 98.4573 127.867 99.078 129.347C99.1436 129.5 99.7481 131.258 100.134 130.826C100.183 130.774 99.7706 129.799 99.7157 129.438C98.5344 121.48 98.1516 113.723 97.2684 105.793C96.8993 102.49 96.6307 98.763 95.9061 95.5557C95.846 95.2906 95.9034 94.7763 95.5458 94.8359ZM48.9188 73.2188C49.1211 80.3471 49.0884 87.4157 50.6825 94.4102C52.0907 97.6913 53.7701 100.718 55.6512 103.693C57.2012 106.149 56.9663 109.919 57.453 112.763C57.8002 114.8 58.4374 117.458 58.9569 119.476C59.028 119.749 58.9432 120.26 59.3124 120.2C59.9384 118.237 59.3391 116.181 59.3036 114.294C59.2352 110.726 59.7334 108.084 58.2762 104.691C56.6931 101.006 54.1882 97.7622 52.8592 93.6826C51.8202 90.4916 51.8147 87.117 51.3143 83.874C50.7456 80.1963 50.1272 76.5046 49.4081 72.8516L48.9188 73.2188ZM92.6522 84.6914C91.985 87.3191 92.127 90.0596 91.6102 92.7119C90.7871 96.9365 88.1958 101.503 87.8485 105.618C87.7063 107.292 88.0913 108.634 88.0721 110.185C88.0529 111.724 87.372 113.597 88.1786 115.123C88.9907 115.068 89.8741 108.735 89.9862 107.756C90.1255 106.531 89.8741 105.298 90.0956 104.002H90.1014C90.3639 102.457 91.3212 100.852 91.7587 99.3779C93.1586 94.6531 93.5627 90.9833 93.1034 86.0479C93.076 85.7823 92.9912 84.7187 92.6522 84.6914ZM88.5672 46.1289C87.4872 37.3789 82.5104 15.974 70.6131 17.1143C64.614 17.6885 60.1184 24.3746 58.1688 29.5508C51.5983 46.9988 50.8682 79.4471 58.784 96.4521C61.3653 102 66.1895 108.954 73.1922 108.229V108.232C85.565 106.947 87.7907 89.7144 88.9911 79.9473C90.3719 68.7091 89.9454 57.296 88.5672 46.1289ZM45.3065 55.459C45.2381 56.6702 44.8797 57.9966 44.8114 59.1914C44.2728 68.8245 44.836 78.783 44.8251 88.4297L45.3036 90.2422C45.9433 87.1552 45.8512 83.9366 46.2723 80.8223C46.3051 80.5681 46.365 80.3108 46.5126 80.0977C46.3596 79.2406 46.4685 73.534 46.7528 73.333C46.7117 73.1746 46.5293 72.9808 46.5126 72.8496C45.8344 67.627 46.592 61.6789 45.7499 56.582C45.7007 56.2946 45.6864 55.4535 45.3065 55.459ZM94.1346 58.7588C94.2276 68.0419 93.5411 77.4346 94.9383 86.6221C95.4414 86.6274 95.2635 82.6766 95.2909 82.1406C95.5452 77.1723 95.6989 72.1027 95.5458 67.1699C95.4528 64.2087 95.3432 61.2639 94.8182 58.3574H94.8153L94.1346 58.7588ZM53.1542 32.2686C52.6512 32.8345 52.394 33.6765 52.1288 34.3818V34.3789C48.2187 44.8077 47.5247 56.3415 49.2391 67.3418L49.8895 69.4639C49.9414 67.1561 49.5229 64.889 49.6405 62.5703C49.9823 55.8166 50.0349 47.4826 51.454 40.9531C51.6863 39.8924 52.3882 38.5798 52.5497 37.8223C52.5661 37.7457 52.5333 37.6576 52.5497 37.5811L53.1542 32.2686ZM88.8983 29.3701C88.3678 29.7283 88.671 29.8156 88.7557 30.2285C88.9416 31.1389 89.4691 32.0056 89.6825 32.9297C91.1372 39.2488 91.8155 45.7957 93.1854 52.1367L94.0907 54.0068C93.3169 50.5588 93.8715 46.9684 93.6063 43.5039L93.6044 43.501C93.3336 39.9682 91.4408 33.1436 89.5487 30.1631C89.3601 29.8679 89.1853 29.5861 88.8983 29.3701ZM47.7157 21.3994C46.9719 21.2791 47.3333 21.5908 47.243 22.001C46.5923 25.0088 45.829 30.7642 45.6786 33.8486C45.4544 38.5189 45.8286 43.816 45.8094 48.582C45.8065 49.6372 45.1622 50.389 46.5126 48.9375C47.7321 44.1606 47.4829 39.6019 47.7098 34.7949C47.8684 31.4371 48.8778 25.6455 47.9481 22.542C47.8713 22.2825 47.0846 22.4301 47.7215 21.3994H47.7157ZM89.9891 7.62891C89.4504 10.6887 89.8194 13.8715 89.9588 16.9395C90.101 20.0758 90.109 22.3865 91.0223 25.5557L92.4012 28.6426C92.6473 27.1095 92.1193 25.5355 91.951 23.9951L91.9227 23.6904C91.5426 18.6756 91.4491 13.7371 90.6561 8.77148C90.6229 8.56833 90.3006 7.63721 89.9891 7.62891ZM68.7323 4.4873C68.2565 4.77986 67.8979 5.73376 67.7147 6.24512C67.3182 7.35252 67.3428 8.36702 66.621 9.49902H66.6239C65.1775 11.7685 62.2683 13.1031 61.0077 15.5967C60.9202 15.7662 60.1649 18.1291 60.0965 18.4326C60.02 18.7663 59.9113 19.4417 60.16 19.7041C61.1253 18.3971 61.9809 16.7996 63.0555 15.5938C64.4255 14.0572 66.5937 12.9743 67.7284 11.3311C69.0791 9.37605 69.0084 6.7513 68.7323 4.4873Z" fill="url(#paint24_linear_492_6823)"/>
<path d="M25.9256 131.507C28.2686 131.253 27.2297 136.956 23.9325 137.047C20.4598 137.143 23.4674 131.772 25.9256 131.507Z" fill="url(#paint25_linear_492_6823)"/>
<path fill-rule="evenodd" clip-rule="evenodd" d="M114.223 124.324C113.794 122.514 118.789 119.815 120.13 120.635C120.526 120.878 120.74 121.761 120.877 122.183C121.377 123.728 121.259 125.202 120.327 126.629C119.244 128.286 114.61 125.943 114.226 124.324H114.223ZM118.963 123.326C118.621 122.167 116.926 122.298 116.71 123.14C116.281 124.81 119.78 126.112 118.963 123.326Z" fill="url(#paint26_linear_492_6823)"/>
<path d="M112.821 116.465C113.002 116.058 114.002 115.757 114.38 116.082C114.689 116.347 114.59 117.474 114.38 117.824C114.782 118.117 114.864 117.633 115.282 117.502C116.715 117.054 117.778 117.031 119.107 117.865C121.363 119.279 118.712 119.192 117.667 119.566C116.335 120.042 114.738 121.12 113.745 122.123C113.433 122.441 112.791 123.52 112.507 123.492C111.673 123.416 111.621 121.327 111.812 120.75C112.097 119.886 113.631 118.767 113.699 118.45H113.696C113.816 117.895 112.578 117.02 112.821 116.465Z" fill="url(#paint27_linear_492_6823)"/>
<path fill-rule="evenodd" clip-rule="evenodd" d="M15.409 111.379C16.5609 110.561 23.8279 110.362 24.6239 111.601C25.1489 112.415 24.6512 115.746 24.2274 116.679C23.6504 117.95 21.7937 120.238 20.4403 120.58C19.3794 120.848 17.1564 118.962 16.5711 118.111C15.8684 117.089 14.3155 112.158 15.412 111.379H15.409ZM21.1297 116.225C22.1819 115.467 21.1731 111.905 18.8739 113.318C17.6326 114.084 18.6052 116.296 19.6551 116.638C20.0161 116.755 20.8153 116.449 21.1297 116.225Z" fill="url(#paint28_linear_492_6823)"/>
<path d="M129.512 106.821C131.795 105.487 131.789 109.411 130.288 110.857V110.854C129.522 111.59 127.873 111.923 127.704 110.589C127.507 109.041 128.153 107.614 129.512 106.821Z" fill="url(#paint29_linear_492_6823)"/>
<path d="M18.3211 102.189C18.4852 101.662 19.861 101.133 20.1454 101.306C21.7746 102.287 19.278 104.221 19.9149 105.044C19.9751 105.123 21.4032 105.035 21.868 105.131C24.1265 105.59 26.418 107.658 25.6278 110.13V110.127C22.1469 108.339 17.1887 108.782 13.7489 110.488C12.8329 107.839 16.3604 105.041 18.8924 105.158C18.5371 104.644 18.1574 102.718 18.3211 102.189Z" fill="url(#paint30_linear_492_6823)"/>
<path d="M111.957 99.7168C111.547 93.8932 117.272 98.5608 117.464 101.94C117.48 102.201 117.305 104.046 117.248 104.142V104.145C117.181 104.251 116.392 104.432 116.184 104.432C113.909 104.445 112.105 101.82 111.957 99.7168Z" fill="url(#paint31_linear_492_6823)"/>
<path d="M11.1844 88.5146C13.9433 87.9186 12.8222 92.4049 10.8563 93.5098C6.77662 95.8066 8.00162 89.201 11.1844 88.5146Z" fill="url(#paint32_linear_492_6823)"/>
<path fill-rule="evenodd" clip-rule="evenodd" d="M127.256 80.6719C127.649 80.6828 130.204 80.8855 130.368 80.9512C130.491 81.0003 130.62 81.0226 130.71 81.1318C131.306 84.4294 131.004 87.3686 128.374 89.7803H128.377C126.878 91.1529 126.233 90.7784 124.678 89.5645C122.843 88.1344 120.253 83.4834 122.159 81.4873C122.845 80.7682 126.181 80.6418 127.256 80.6719ZM127.146 83.1035C125.681 82.2668 124.516 84.2676 125.307 85.6621C127.037 88.7136 129.397 84.3887 127.146 83.1035Z" fill="url(#paint33_linear_492_6823)"/>
<path fill-rule="evenodd" clip-rule="evenodd" d="M27.9247 86.1816C27.9801 84.3225 33.5001 83.0071 34.5829 84.1445C34.9028 84.4809 34.8803 85.3891 34.9022 85.832C34.987 87.4507 34.4921 88.845 33.2235 89.9824C31.7497 91.3059 27.8782 87.8441 27.9247 86.1816ZM32.7586 86.4395C32.7286 85.2284 31.0587 84.919 30.6317 85.6758C29.7841 87.1796 32.8295 89.3401 32.7586 86.4395Z" fill="url(#paint34_linear_492_6823)"/>
<path d="M28.6024 78.2246C28.8816 77.8776 29.9263 77.8478 30.2079 78.2578C30.4372 78.5943 30.0519 79.6548 29.7567 79.9395C30.0683 80.3301 30.2734 79.8824 30.7108 79.8633C32.2091 79.8004 33.2423 80.0547 34.3114 81.2031C36.1269 83.1499 33.5868 82.3787 32.4794 82.4717C31.0713 82.5893 29.2505 83.2152 28.0311 83.9287C27.6483 84.1529 26.7483 85.0311 26.4803 84.9326C25.6929 84.6427 26.1829 82.6111 26.5165 82.1025C27.0168 81.3399 28.7851 80.6564 28.9335 80.3691H28.9364C29.1934 79.8633 28.2223 78.6977 28.6024 78.2246Z" fill="url(#paint35_linear_492_6823)"/>
<path d="M106.184 81.2305C106.053 77.5336 111.194 73.6778 110.527 79.2695C110.41 80.2484 109.583 82.0035 108.744 82.5586C108.317 82.8402 107.15 83.2642 106.726 83.002C106.524 82.8762 106.196 81.5837 106.184 81.2305Z" fill="url(#paint36_linear_492_6823)"/>
<path d="M125.41 71.498C127.371 71.4598 125.952 73.9352 126.684 74.8047C127.002 75.1818 128.451 75.2065 129.001 75.4443C129.766 75.7752 130.384 76.3792 130.912 77.0107C131.1 77.2375 132.228 79.0802 132.252 79.209C132.276 79.3539 132.134 79.5291 131.88 79.5674C131.073 79.6877 128.844 79.0668 127.857 79.0176C125.235 78.8864 122.359 79.1659 120.177 80.708C119.665 79.3408 120.284 77.8367 121.208 76.7812C122.028 75.8437 124.75 75.3185 124.959 74.9521C125.402 74.1701 122.949 71.5474 125.41 71.498Z" fill="url(#paint37_linear_492_6823)"/>
<path fill-rule="evenodd" clip-rule="evenodd" d="M9.00474 55.9121C9.65826 55.532 13.8126 57.5746 14.5946 58.0723C15.4396 58.611 17.2983 59.9678 17.1288 60.9932C16.6528 63.8724 12.1355 66.4316 9.40123 66.1172H9.40416C7.34268 65.8791 6.86965 62.4971 7.02818 60.8154C7.10747 59.9624 8.38946 56.268 9.00474 55.9121ZM11.2801 59.0684C9.70519 59.2406 9.31141 62.9011 11.2499 62.8877C13.5194 62.8713 14.184 58.7512 11.2801 59.0684Z" fill="url(#paint38_linear_492_6823)"/>
<path fill-rule="evenodd" clip-rule="evenodd" d="M106.942 57.3945C108.025 56.2571 113.546 57.5723 113.6 59.4316C113.647 61.0941 109.776 64.5553 108.302 63.2324C107.033 62.095 106.537 60.7006 106.622 59.082C106.644 58.6391 106.622 57.7309 106.942 57.3945ZM110.893 58.9258C110.467 58.1684 108.797 58.4773 108.766 59.6885C108.695 62.5896 111.741 60.4297 110.893 58.9258Z" fill="url(#paint39_linear_492_6823)"/>
<path d="M30.1532 58.5186C30.7192 57.8323 32.8701 56.4517 33.5047 57.4707C33.9559 58.1953 33.3575 60.2084 32.8133 60.9385C30.5685 63.946 27.5991 61.6248 30.1551 58.5215L30.1532 58.5186Z" fill="url(#paint40_linear_492_6823)"/>
<path d="M17.9823 49.5986C18.2041 49.6375 19.0918 50.5618 19.0672 50.8652C18.9874 51.7947 17.014 52.4399 17.1698 53.0742C19.3517 54.3402 21.0361 57.0306 19.7704 59.5488C18.8935 61.2893 18.0167 58.531 17.0975 57.666L17.0116 57.5918C16.3226 57.0395 12.1566 54.7265 11.3817 54.5234C10.5915 54.3156 9.73808 54.4878 8.95885 54.168C9.19948 52.5602 11.2936 51.6391 12.7401 51.6035C13.697 51.5789 15.1433 52.2812 15.9637 51.877C16.5079 51.609 17.2522 49.4701 17.9823 49.5986Z" fill="url(#paint41_linear_492_6823)"/>
<path d="M111.317 51.5098C111.599 51.0999 112.644 51.1304 112.923 51.4775C113.302 51.9508 112.332 53.1153 112.589 53.6211H112.592C112.74 53.9083 114.508 54.5917 115.009 55.3545C115.342 55.8631 115.831 57.8947 115.044 58.1846C114.776 58.2824 113.877 57.4061 113.494 57.1816C112.274 56.468 110.453 55.8412 109.045 55.7236C107.937 55.6307 105.397 56.4018 107.213 54.4551C108.282 53.3066 109.316 53.0523 110.814 53.1152C111.252 53.1346 111.457 53.5823 111.768 53.1914C111.473 52.9068 111.088 51.846 111.317 51.5098Z" fill="url(#paint42_linear_492_6823)"/>
<path d="M124.886 46.3555C127.199 45.3883 130.023 49.6723 127.748 50.7988C126.012 51.6602 123.628 47.9852 124.886 46.3555Z" fill="url(#paint43_linear_492_6823)"/>
<path fill-rule="evenodd" clip-rule="evenodd" d="M28.2684 33.9365C28.5364 32.49 36.8547 31.0406 37.8309 32.0469C38.52 32.7606 38.4922 36.4166 38.2215 37.4229C37.784 39.0553 36.144 42.3603 34.1044 41.7646L34.1063 41.7617C33.496 41.5834 31.1926 39.9253 30.7518 39.4355C30.2296 38.856 28.1734 34.4545 28.2684 33.9365ZM35.3807 36.5723C35.6295 34.423 33.4643 33.4416 32.3788 35.0166C31.3261 36.5451 34.9979 39.8398 35.3807 36.5723Z" fill="url(#paint44_linear_492_6823)"/>
<path d="M18.1493 35.916C20.5275 35.9821 18.7091 39.9461 16.828 40.5176C14.8593 41.1136 14.7501 39.5064 15.2586 37.9834C15.5458 37.1303 17.2196 35.8914 18.1493 35.916Z" fill="url(#paint45_linear_492_6823)"/>
<path d="M105.285 32.7744C107.79 31.9295 109.904 37.1738 107.968 38.1172C105.496 39.323 103.281 33.4501 105.285 32.7744Z" fill="url(#paint46_linear_492_6823)"/>
<path d="M31.2792 23.2422C32.5806 23.3871 31.9931 24.385 31.952 25.249C31.9383 25.5662 32.0317 25.8811 31.9715 26.1982C34.7276 26.1244 37.0029 26.3761 38.493 29.0283C39.7339 31.2345 36.7258 29.8973 35.4872 29.9082V29.9062C32.7119 29.931 29.4277 31.0512 27.0243 32.4102C26.3524 32.2914 27.0003 29.3954 27.3338 28.9219C28.0526 27.9025 30.8063 26.5441 30.8338 26.3242C30.8585 26.0918 28.8267 22.9689 31.2792 23.2422Z" fill="url(#paint47_linear_492_6823)"/>
<path fill-rule="evenodd" clip-rule="evenodd" d="M125.812 18.0986C127.65 17.7487 128.33 17.9571 128.951 19.6797C129.719 21.8097 130.084 24.6835 128.823 26.6631C127.5 28.7439 124.688 28.0682 122.853 26.9854H122.85C121.956 26.4573 119.862 24.3987 119.723 23.3926C119.433 21.2898 124.019 18.4404 125.812 18.0986ZM126.045 21.5C124.095 19.7201 121.842 22.9801 124.207 24.4238C124.778 24.7709 126.279 24.7351 126.569 24.2871C126.878 23.8113 126.564 21.973 126.045 21.5Z" fill="url(#paint48_linear_492_6823)"/>
<path d="M118.383 11.6182C120.411 11.0057 119.892 14.2671 120.923 14.3525C121.04 14.3635 122.244 13.7598 122.859 13.6914C125.085 13.4426 127.532 13.7895 127.811 16.3486C124.85 16.0479 120.75 18.3695 118.872 20.5762C118.421 21.1067 118.224 22.5038 117.306 21.6621C116.143 20.593 116.765 17.4287 117.79 16.3486C118.233 15.8811 120.132 15.1701 119.446 14.3965C118.893 13.7757 115.859 12.3783 118.383 11.6182Z" fill="url(#paint49_linear_492_6823)"/>
<path d="M10.5087 17.2871C12.8219 16.3191 15.6469 20.6039 13.3719 21.7305C11.6358 22.5915 9.25162 18.917 10.5087 17.2871Z" fill="url(#paint50_linear_492_6823)"/>
<path d="M106.231 9.34082C108.515 8.00644 108.509 11.9305 107.008 13.377V13.374C106.242 14.1094 104.593 14.4427 104.424 13.1084C104.227 11.5608 104.872 10.1338 106.231 9.34082Z" fill="url(#paint51_linear_492_6823)"/>
<path d="M32.8241 4.84766C35.5831 4.25156 34.462 8.73906 32.496 9.84375C28.4164 12.1405 29.6413 5.53402 32.8241 4.84766Z" fill="url(#paint52_linear_492_6823)"/>
<defs>
<linearGradient id="paint0_linear_492_6823" x1="132" y1="92" x2="16" y2="65.5" gradientUnits="userSpaceOnUse">
<stop stop-color="#059212"/>
<stop offset="1" stop-color="#9BEC00"/>
</linearGradient>
<linearGradient id="paint1_linear_492_6823" x1="132" y1="92" x2="16" y2="65.5" gradientUnits="userSpaceOnUse">
<stop stop-color="#059212"/>
<stop offset="1" stop-color="#9BEC00"/>
</linearGradient>
<linearGradient id="paint2_linear_492_6823" x1="132" y1="92" x2="16" y2="65.5" gradientUnits="userSpaceOnUse">
<stop stop-color="#059212"/>
<stop offset="1" stop-color="#9BEC00"/>
</linearGradient>
<linearGradient id="paint3_linear_492_6823" x1="132" y1="92" x2="16" y2="65.5" gradientUnits="userSpaceOnUse">
<stop stop-color="#059212"/>
<stop offset="1" stop-color="#9BEC00"/>
</linearGradient>
<linearGradient id="paint4_linear_492_6823" x1="132" y1="92" x2="16" y2="65.5" gradientUnits="userSpaceOnUse">
<stop stop-color="#059212"/>
<stop offset="1" stop-color="#9BEC00"/>
</linearGradient>
<linearGradient id="paint5_linear_492_6823" x1="132" y1="92" x2="16" y2="65.5" gradientUnits="userSpaceOnUse">
<stop stop-color="#059212"/>
<stop offset="1" stop-color="#9BEC00"/>
</linearGradient>
<linearGradient id="paint6_linear_492_6823" x1="132" y1="92" x2="16" y2="65.5" gradientUnits="userSpaceOnUse">
<stop stop-color="#059212"/>
<stop offset="1" stop-color="#9BEC00"/>
</linearGradient>
<linearGradient id="paint7_linear_492_6823" x1="132" y1="92" x2="16" y2="65.5" gradientUnits="userSpaceOnUse">
<stop stop-color="#059212"/>
<stop offset="1" stop-color="#9BEC00"/>
</linearGradient>
<linearGradient id="paint8_linear_492_6823" x1="132" y1="92" x2="16" y2="65.5" gradientUnits="userSpaceOnUse">
<stop stop-color="#059212"/>
<stop offset="1" stop-color="#9BEC00"/>
</linearGradient>
<linearGradient id="paint9_linear_492_6823" x1="132" y1="92" x2="16" y2="65.5" gradientUnits="userSpaceOnUse">
<stop stop-color="#059212"/>
<stop offset="1" stop-color="#9BEC00"/>
</linearGradient>
<linearGradient id="paint10_linear_492_6823" x1="132" y1="92" x2="16" y2="65.5" gradientUnits="userSpaceOnUse">
<stop stop-color="#059212"/>
<stop offset="1" stop-color="#9BEC00"/>
</linearGradient>
<linearGradient id="paint11_linear_492_6823" x1="132" y1="92" x2="16" y2="65.5" gradientUnits="userSpaceOnUse">
<stop stop-color="#059212"/>
<stop offset="1" stop-color="#9BEC00"/>
</linearGradient>
<linearGradient id="paint12_linear_492_6823" x1="132" y1="92" x2="16" y2="65.5" gradientUnits="userSpaceOnUse">
<stop stop-color="#059212"/>
<stop offset="1" stop-color="#9BEC00"/>
</linearGradient>
<linearGradient id="paint13_linear_492_6823" x1="132" y1="92" x2="16" y2="65.5" gradientUnits="userSpaceOnUse">
<stop stop-color="#059212"/>
<stop offset="1" stop-color="#9BEC00"/>
</linearGradient>
<linearGradient id="paint14_linear_492_6823" x1="132" y1="92" x2="16" y2="65.5" gradientUnits="userSpaceOnUse">
<stop stop-color="#059212"/>
<stop offset="1" stop-color="#9BEC00"/>
</linearGradient>
<linearGradient id="paint15_linear_492_6823" x1="132" y1="92" x2="16" y2="65.5" gradientUnits="userSpaceOnUse">
<stop stop-color="#059212"/>
<stop offset="1" stop-color="#9BEC00"/>
</linearGradient>
<linearGradient id="paint16_linear_492_6823" x1="132" y1="92" x2="16" y2="65.5" gradientUnits="userSpaceOnUse">
<stop stop-color="#059212"/>
<stop offset="1" stop-color="#9BEC00"/>
</linearGradient>
<linearGradient id="paint17_linear_492_6823" x1="132" y1="92" x2="16" y2="65.5" gradientUnits="userSpaceOnUse">
<stop stop-color="#059212"/>
<stop offset="1" stop-color="#9BEC00"/>
</linearGradient>
<linearGradient id="paint18_linear_492_6823" x1="132" y1="92" x2="16" y2="65.5" gradientUnits="userSpaceOnUse">
<stop stop-color="#059212"/>
<stop offset="1" stop-color="#9BEC00"/>
</linearGradient>
<linearGradient id="paint19_linear_492_6823" x1="132" y1="92" x2="16" y2="65.5" gradientUnits="userSpaceOnUse">
<stop stop-color="#059212"/>
<stop offset="1" stop-color="#9BEC00"/>
</linearGradient>
<linearGradient id="paint20_linear_492_6823" x1="132" y1="92" x2="16" y2="65.5" gradientUnits="userSpaceOnUse">
<stop stop-color="#059212"/>
<stop offset="1" stop-color="#9BEC00"/>
</linearGradient>
<linearGradient id="paint21_linear_492_6823" x1="132" y1="92" x2="16" y2="65.5" gradientUnits="userSpaceOnUse">
<stop stop-color="#059212"/>
<stop offset="1" stop-color="#9BEC00"/>
</linearGradient>
<linearGradient id="paint22_linear_492_6823" x1="132" y1="92" x2="16" y2="65.5" gradientUnits="userSpaceOnUse">
<stop stop-color="#059212"/>
<stop offset="1" stop-color="#9BEC00"/>
</linearGradient>
<linearGradient id="paint23_linear_492_6823" x1="132" y1="92" x2="16" y2="65.5" gradientUnits="userSpaceOnUse">
<stop stop-color="#059212"/>
<stop offset="1" stop-color="#9BEC00"/>
</linearGradient>
<linearGradient id="paint24_linear_492_6823" x1="132" y1="92" x2="16" y2="65.5" gradientUnits="userSpaceOnUse">
<stop stop-color="#059212"/>
<stop offset="1" stop-color="#9BEC00"/>
</linearGradient>
<linearGradient id="paint25_linear_492_6823" x1="132" y1="92" x2="16" y2="65.5" gradientUnits="userSpaceOnUse">
<stop stop-color="#059212"/>
<stop offset="1" stop-color="#9BEC00"/>
</linearGradient>
<linearGradient id="paint26_linear_492_6823" x1="132" y1="92" x2="16" y2="65.5" gradientUnits="userSpaceOnUse">
<stop stop-color="#059212"/>
<stop offset="1" stop-color="#9BEC00"/>
</linearGradient>
<linearGradient id="paint27_linear_492_6823" x1="132" y1="92" x2="16" y2="65.5" gradientUnits="userSpaceOnUse">
<stop stop-color="#059212"/>
<stop offset="1" stop-color="#9BEC00"/>
</linearGradient>
<linearGradient id="paint28_linear_492_6823" x1="132" y1="92" x2="16" y2="65.5" gradientUnits="userSpaceOnUse">
<stop stop-color="#059212"/>
<stop offset="1" stop-color="#9BEC00"/>
</linearGradient>
<linearGradient id="paint29_linear_492_6823" x1="132" y1="92" x2="16" y2="65.5" gradientUnits="userSpaceOnUse">
<stop stop-color="#059212"/>
<stop offset="1" stop-color="#9BEC00"/>
</linearGradient>
<linearGradient id="paint30_linear_492_6823" x1="132" y1="92" x2="16" y2="65.5" gradientUnits="userSpaceOnUse">
<stop stop-color="#059212"/>
<stop offset="1" stop-color="#9BEC00"/>
</linearGradient>
<linearGradient id="paint31_linear_492_6823" x1="132" y1="92" x2="16" y2="65.5" gradientUnits="userSpaceOnUse">
<stop stop-color="#059212"/>
<stop offset="1" stop-color="#9BEC00"/>
</linearGradient>
<linearGradient id="paint32_linear_492_6823" x1="132" y1="92" x2="16" y2="65.5" gradientUnits="userSpaceOnUse">
<stop stop-color="#059212"/>
<stop offset="1" stop-color="#9BEC00"/>
</linearGradient>
<linearGradient id="paint33_linear_492_6823" x1="132" y1="92" x2="16" y2="65.5" gradientUnits="userSpaceOnUse">
<stop stop-color="#059212"/>
<stop offset="1" stop-color="#9BEC00"/>
</linearGradient>
<linearGradient id="paint34_linear_492_6823" x1="132" y1="92" x2="16" y2="65.5" gradientUnits="userSpaceOnUse">
<stop stop-color="#059212"/>
<stop offset="1" stop-color="#9BEC00"/>
</linearGradient>
<linearGradient id="paint35_linear_492_6823" x1="132" y1="92" x2="16" y2="65.5" gradientUnits="userSpaceOnUse">
<stop stop-color="#059212"/>
<stop offset="1" stop-color="#9BEC00"/>
</linearGradient>
<linearGradient id="paint36_linear_492_6823" x1="132" y1="92" x2="16" y2="65.5" gradientUnits="userSpaceOnUse">
<stop stop-color="#059212"/>
<stop offset="1" stop-color="#9BEC00"/>
</linearGradient>
<linearGradient id="paint37_linear_492_6823" x1="132" y1="92" x2="16" y2="65.5" gradientUnits="userSpaceOnUse">
<stop stop-color="#059212"/>
<stop offset="1" stop-color="#9BEC00"/>
</linearGradient>
<linearGradient id="paint38_linear_492_6823" x1="132" y1="92" x2="16" y2="65.5" gradientUnits="userSpaceOnUse">
<stop stop-color="#059212"/>
<stop offset="1" stop-color="#9BEC00"/>
</linearGradient>
<linearGradient id="paint39_linear_492_6823" x1="132" y1="92" x2="16" y2="65.5" gradientUnits="userSpaceOnUse">
<stop stop-color="#059212"/>
<stop offset="1" stop-color="#9BEC00"/>
</linearGradient>
<linearGradient id="paint40_linear_492_6823" x1="132" y1="92" x2="16" y2="65.5" gradientUnits="userSpaceOnUse">
<stop stop-color="#059212"/>
<stop offset="1" stop-color="#9BEC00"/>
</linearGradient>
<linearGradient id="paint41_linear_492_6823" x1="132" y1="92" x2="16" y2="65.5" gradientUnits="userSpaceOnUse">
<stop stop-color="#059212"/>
<stop offset="1" stop-color="#9BEC00"/>
</linearGradient>
<linearGradient id="paint42_linear_492_6823" x1="132" y1="92" x2="16" y2="65.5" gradientUnits="userSpaceOnUse">
<stop stop-color="#059212"/>
<stop offset="1" stop-color="#9BEC00"/>
</linearGradient>
<linearGradient id="paint43_linear_492_6823" x1="132" y1="92" x2="16" y2="65.5" gradientUnits="userSpaceOnUse">
<stop stop-color="#059212"/>
<stop offset="1" stop-color="#9BEC00"/>
</linearGradient>
<linearGradient id="paint44_linear_492_6823" x1="132" y1="92" x2="16" y2="65.5" gradientUnits="userSpaceOnUse">
<stop stop-color="#059212"/>
<stop offset="1" stop-color="#9BEC00"/>
</linearGradient>
<linearGradient id="paint45_linear_492_6823" x1="132" y1="92" x2="16" y2="65.5" gradientUnits="userSpaceOnUse">
<stop stop-color="#059212"/>
<stop offset="1" stop-color="#9BEC00"/>
</linearGradient>
<linearGradient id="paint46_linear_492_6823" x1="132" y1="92" x2="16" y2="65.5" gradientUnits="userSpaceOnUse">
<stop stop-color="#059212"/>
<stop offset="1" stop-color="#9BEC00"/>
</linearGradient>
<linearGradient id="paint47_linear_492_6823" x1="132" y1="92" x2="16" y2="65.5" gradientUnits="userSpaceOnUse">
<stop stop-color="#059212"/>
<stop offset="1" stop-color="#9BEC00"/>
</linearGradient>
<linearGradient id="paint48_linear_492_6823" x1="132" y1="92" x2="16" y2="65.5" gradientUnits="userSpaceOnUse">
<stop stop-color="#059212"/>
<stop offset="1" stop-color="#9BEC00"/>
</linearGradient>
<linearGradient id="paint49_linear_492_6823" x1="132" y1="92" x2="16" y2="65.5" gradientUnits="userSpaceOnUse">
<stop stop-color="#059212"/>
<stop offset="1" stop-color="#9BEC00"/>
</linearGradient>
<linearGradient id="paint50_linear_492_6823" x1="132" y1="92" x2="16" y2="65.5" gradientUnits="userSpaceOnUse">
<stop stop-color="#059212"/>
<stop offset="1" stop-color="#9BEC00"/>
</linearGradient>
<linearGradient id="paint51_linear_492_6823" x1="132" y1="92" x2="16" y2="65.5" gradientUnits="userSpaceOnUse">
<stop stop-color="#059212"/>
<stop offset="1" stop-color="#9BEC00"/>
</linearGradient>
<linearGradient id="paint52_linear_492_6823" x1="132" y1="92" x2="16" y2="65.5" gradientUnits="userSpaceOnUse">
<stop stop-color="#059212"/>
<stop offset="1" stop-color="#9BEC00"/>
</linearGradient>
</defs>
</svg>
