<svg width="140" height="140" viewBox="0 0 140 140" fill="none" xmlns="http://www.w3.org/2000/svg">
<rect width="140" height="140" fill="#0A0400"/>
<path d="M74.4755 69.5829C73.8904 70.0024 72.8216 71.9544 73.6063 72.4956C79.5386 72.0829 85.5082 71.2034 91.2207 69.4713C93.3075 68.8387 100.427 66.5316 101.337 64.6845C101.672 64.0045 101.709 62.993 101.08 62.4822C99.5104 63.9639 97.7043 64.786 95.7021 65.5201C88.9073 68.0167 81.639 68.8083 74.4755 69.5829Z" fill="url(#paint0_linear_492_6830)"/>
<path d="M67.1599 98.6354C66.8825 99.268 66.5037 99.8397 66.2061 100.466C65.8882 101.139 64.4034 104.539 64.4169 105.016C64.4473 106.115 67.63 107.346 68.4925 106.819C68.7055 106.69 68.7461 106.149 69.0167 105.99C69.6491 106.196 69.4631 107.282 69.683 107.428C69.8149 107.516 70.4981 107.549 70.5826 107.478C70.7382 107.346 71.418 103.957 71.4823 103.483C71.6649 102.076 71.692 100.648 71.6311 99.2308C70.2004 98.7775 68.6751 98.5305 67.1599 98.632V98.6354Z" fill="url(#paint1_linear_492_6830)"/>
<path d="M49.6029 91.829L44.9288 98.8959C44.8713 99.3695 46.1599 100.692 46.4406 100.692C46.6672 100.692 47.2151 99.6097 47.5703 99.8871C47.9085 100.151 47.763 101.443 48.0539 101.738C48.1283 101.815 49.3121 102.215 49.4643 102.221C50.1137 102.252 50.2828 100.797 50.5026 100.266C51.0708 98.9026 52.8126 95.672 52.9716 94.4541C53.1441 93.1077 52.6706 93.4528 51.7269 93.0164C50.9862 92.6713 50.2997 92.2485 49.6029 91.829Z" fill="url(#paint2_linear_492_6830)"/>
<path d="M43.4034 65.6554C42.8961 65.4152 40.9953 64.1601 40.8465 64.1398C40.3358 64.062 40.1328 65.4761 40.3797 65.97C40.8262 66.8699 43.6605 68.1824 44.6548 68.6188C48.4226 70.2765 52.6807 71.3454 56.7495 71.9544C56.6581 71.0681 57.0302 70.246 57.2027 69.3935C52.6165 68.5241 47.6514 67.6547 43.4034 65.6554Z" fill="url(#paint3_linear_492_6830)"/>
<path d="M69.5443 91.9846H72.179C72.2297 91.9846 72.3853 92.2654 72.5375 91.8932C73.0516 87.6274 73.2782 83.3988 72.2534 79.1837C71.3842 79.7114 70.3729 79.6539 69.3955 79.637C69.7506 81.1627 69.7844 82.6748 69.8487 84.2276C69.8589 84.5185 70.0009 84.8061 70.0043 85.1274C70.0212 87.3872 69.4699 89.718 69.5477 91.988L69.5443 91.9846Z" fill="url(#paint4_linear_492_6830)"/>
<path d="M61.3898 77.1235C61.471 76.9881 61.8194 76.4097 61.7179 76.3251C61.2241 76.5754 59.9456 75.8515 59.7089 75.8955C59.4146 75.9496 57.2196 78.7879 56.8983 79.2547C56.1847 80.2865 53.2827 85.2154 53.4316 86.1829C53.5093 86.6836 54.6424 86.9407 55.099 87.0997C55.9682 85.2695 56.9524 83.4698 58.0415 81.758C59.0392 80.1918 60.5003 78.6187 61.3865 77.1235H61.3898Z" fill="url(#paint5_linear_492_6830)"/>
<path d="M71.7935 69.1872C68.2794 66.6601 64.4879 70.6249 63.223 73.7608C65.9659 73.4598 68.506 72.4923 70.5995 70.6756C70.8836 70.4287 71.8915 69.5221 71.7935 69.1872Z" fill="url(#paint6_linear_492_6830)"/>
<path d="M65.259 67.8915C65.5905 67.3908 64.4744 67.2758 64.2004 67.2724C61.9716 67.2589 59.0325 69.6912 59.1542 72.022C59.1914 72.7358 60.1722 73.7981 60.6525 73.4496C60.6796 73.4327 60.7844 73.0335 60.8994 72.8678C61.745 71.6262 62.6548 70.4185 63.6728 69.3157C63.9874 68.974 65.1508 68.0606 65.2624 67.8915H65.259Z" fill="url(#paint7_linear_492_6830)"/>
<path d="M72.639 96.6598C73.4271 96.5583 73.4676 95.3709 72.94 94.8364C72.2737 94.1632 68.4823 93.8046 67.7382 94.1666C67.4237 94.3188 66.9535 95.4453 67.1531 95.7328C67.3121 95.9629 72.1554 96.724 72.639 96.6631V96.6598Z" fill="url(#paint8_linear_492_6830)"/>
<path d="M71.1982 73.1587C71.0426 73.0471 68.3504 74.8637 67.8904 75.0396C68.5499 76.3116 69.5883 78.0301 71.1847 76.6803C72.3989 75.6519 71.4857 74.4002 71.1982 73.1587Z" fill="url(#paint9_linear_492_6830)"/>
<path d="M55.1734 90.9325C55.5962 90.2255 54.7033 89.7485 54.2399 89.4542C53.5635 89.0245 51.5781 87.9894 50.834 88.2431C50.533 88.3446 50.3775 88.8723 50.4552 89.1632C50.6683 89.9481 54.5815 91.9237 55.1768 90.9325H55.1734Z" fill="url(#paint10_linear_492_6830)"/>
<path d="M66.2331 77.526L65.9321 76.0206C65.7021 75.7568 62.533 77.9117 66.2331 77.526Z" fill="url(#paint11_linear_492_6830)"/>
<path d="M40.9716 60.1074C41.5195 61.0073 41.5702 61.8293 42.4496 62.4687C44.3267 63.8252 47.8036 64.424 49.975 65.3272C48.5342 63.7813 46.1903 62.7799 45.7607 60.51C46.0279 60.2427 48.4226 61.8868 48.9197 62.0154C52.0652 63.8523 54.5139 66.9747 58.4778 66.8496C59.2489 66.8259 59.2692 66.4977 59.7562 66.2339C62.3537 64.8367 64.1768 64.424 67.1328 65.1784C67.1531 65.3374 67.7179 65.6689 67.9276 65.6148C68.0832 65.5742 68.3132 65.2664 68.5296 65.148C70.0719 64.3124 71.3402 63.5715 73.1159 63.2603C73.9141 63.1216 74.9828 62.8814 75.7066 63.2941C75.5071 64.062 72.9468 65.7467 72.8521 66.1662C72.7912 66.4436 73.7213 66.9375 73.9851 66.9781C78.4124 66.5147 83.1407 66.0749 87.4496 64.9551C91.312 63.9504 92.9118 61.3016 95.9795 59.1839C96.3684 58.9166 97.5116 58.1521 97.9073 58.1013C98.2286 58.0574 98.1575 58.213 98.1034 58.4498C97.684 60.3172 96.3109 61.738 94.9715 62.9998L97.8295 62.0188C99.9332 61.0174 99.8723 60.351 101.019 58.6595C101.678 57.6853 102.605 56.7211 103.4 55.8449C105.926 53.0507 112.183 48.274 109.468 43.9878C109.42 43.9134 108.964 43.3451 108.822 43.4973C108.801 43.521 108.923 43.8525 108.866 44.0656C108.003 47.2253 103.718 48.7814 100.944 49.9993C93.9163 53.0845 85.2241 55.6893 77.6615 57.0493C65.7664 59.1906 51.8961 55.6014 41.2287 50.2056C38.9558 49.0554 35.5127 47.4486 35.966 44.4006C34.7518 44.6847 33.8352 45.9432 33.4429 47.0697C32.5703 49.5595 33.6187 50.6962 35.0663 52.5331C37.0956 55.1109 39.2129 57.2489 40.9614 60.1108L40.9716 60.1074ZM61.1159 63.2197C61.099 63.2028 61.0854 63.1892 61.0753 63.1757C61.099 63.1994 61.1159 63.2163 61.1159 63.2197Z" fill="url(#paint12_linear_492_6830)"/>
<path d="M80.5702 44.6577C81.4766 46.0379 82.4879 47.2794 82.9411 48.9134C83.0155 49.1874 83.0865 49.1975 83.0899 49.2144C83.3267 50.2868 83.188 51.7212 83.2421 52.8274C83.3673 52.9559 86.3064 52.144 86.7359 52.0324C87.1147 51.9309 87.4868 51.6975 87.7574 51.6231C88.2139 51.4979 88.8126 51.4539 89.2624 51.322C91.7652 50.5811 94.4237 49.6847 96.8656 48.7645C97.4845 48.5311 101.032 47.249 101.144 46.8599C101.252 46.4878 99.8081 44.7862 99.4969 44.3972C97.2173 41.5488 94.3222 39.1537 91.0685 37.469C89.7359 36.7822 85.7652 34.9893 84.4022 35.3919C83.6547 35.6118 81.7844 39.5698 81.4733 40.4426C80.9862 41.816 80.719 43.2098 80.5668 44.6577H80.5702ZM83.3943 52.276C83.4011 52.3639 83.4079 52.4519 83.418 52.5398C83.4079 52.5398 83.3977 52.5331 83.3943 52.5297C83.3707 52.4485 83.3774 52.3639 83.3943 52.276ZM91.6063 41.4913L91.9749 41.3864L92.0054 41.8025C93.1317 42.814 93.4902 44.4073 93.1215 45.8518L93.3312 46.207L92.9558 46.1664C91.9242 47.8511 90.091 48.8863 88.1632 48.0203L87.7641 48.1624L87.6694 47.7666C83.4755 45.3748 87.7979 39.1131 91.6131 41.4946L91.6063 41.4913Z" fill="url(#paint13_linear_492_6830)"/>
<path d="M58.7111 41.1597C58.7991 41.0312 58.9208 41.0109 58.86 40.7842C54.4056 38.9744 49.5758 38.9169 45.0843 40.6286C44.1779 40.9737 41.8848 42.0156 41.3098 42.7294C41.0798 43.0136 41.1644 43.0914 41.0967 43.3417C40.9581 43.8492 40.7518 44.5325 41.0967 44.9993C41.117 45.5541 41.1508 45.9601 41.2489 46.5047C41.2996 46.7923 41.1373 47.0155 41.4011 47.3302C41.6649 47.6448 44.4755 48.9776 45.0606 49.2415C48.4597 50.7638 52.1802 51.8633 55.772 52.8308C55.9209 52.1407 56.0494 51.4336 56.2624 50.7571C56.4282 50.2192 57.2703 48.3214 57.135 48.0135C57.0911 47.912 56.8678 47.7327 56.7528 47.7091C56.1238 46.2206 56.4789 44.3803 57.2331 42.9933C57.6356 42.2524 58.2985 41.7585 58.7111 41.1597ZM53.9625 47.8444C52.515 50.8315 48.8724 50.0534 47.7833 47.2287L47.4214 47.1069L47.6548 46.8295C46.9987 42.1949 53.0663 41.586 53.9896 45.9871L54.3447 46.2037V47.408C53.9321 47.5095 53.9152 47.8511 54.3447 47.8613L53.9625 47.8477V47.8444Z" fill="url(#paint14_linear_492_6830)"/>
<path d="M63.223 54.5662C63.409 54.4512 63.7878 53.7577 64.2275 53.4566C65.6345 52.5026 67.3526 52.6616 68.6412 53.734C69.0234 54.052 69.6255 55.2225 69.9197 55.2462L74.5871 54.7895C74.8983 54.4749 74.4417 54.485 74.2895 54.3396C72.4395 52.5635 70.4439 51.2171 68.0392 50.2699C65.4924 49.2686 62.6007 48.548 59.8543 48.6326C59.0088 50.0839 58.2681 51.7584 58.0922 53.4938C58.8295 53.69 62.8475 54.7996 63.2196 54.5662H63.223Z" fill="url(#paint15_linear_492_6830)"/>
<path d="M80.0122 30.534C75.3042 30.2363 69.4462 32.3811 65.9321 35.5103C65.4688 35.923 64.2005 37.0292 64.3019 37.655C64.3121 37.7193 64.5454 38.4906 64.5792 38.5211C64.6807 38.6158 66.9062 38.2098 67.356 38.2132C67.9547 38.2234 69.4124 38.6428 69.8893 38.5244C70.0043 38.4974 70.9581 36.8837 71.2016 36.5624C72.639 35.358 74.2828 33.4974 76.3188 34.6036C77.1509 35.3919 77.8476 35.8993 78.409 36.9548C78.5139 37.1544 79.2613 39.2856 79.4778 39.1198C79.7247 38.4636 79.9749 37.7802 80.303 37.1578C80.5499 36.6909 81.984 34.5428 82.011 34.3499C82.0347 34.174 81.6356 33.6361 81.5849 33.3959C81.5578 33.2674 81.5984 33.0881 81.5849 32.9426C81.5646 32.6991 81.5849 32.4352 81.5849 32.1883C81.5849 31.7552 81.5341 31.3188 81.6965 30.9027C81.6593 30.6829 80.3301 30.5475 80.0088 30.5272L80.0122 30.534Z" fill="url(#paint16_linear_492_6830)"/>
<path d="M78.0471 54.1975C78.4056 54.2347 80.3436 53.9201 80.5939 53.7509C80.7292 53.6596 80.8239 52.8375 80.8408 52.6109C81.1452 48.3349 79.3256 45.8451 76.0178 43.4939C75.6931 43.2605 73.816 42.2017 73.7788 42.0494C73.6097 41.3492 75.2534 40.1922 75.2636 39.81C75.2703 39.5021 74.0122 37.6449 73.6841 37.655C72.4767 38.5955 71.7157 39.8505 70.8092 41.0515C66.5477 40.0569 59.1712 40.5643 58.8566 46.207C65.0359 45.8654 71.1813 48.3247 75.8656 52.232C76.2951 52.7293 77.4654 54.1433 78.0437 54.2009L78.0471 54.1975Z" fill="url(#paint17_linear_492_6830)"/>
<path d="M38.9152 41.9818C39.3549 41.3627 39.9028 40.791 40.4947 40.3275C45.3786 36.5184 54.3921 36.1327 59.9119 38.6699C60.1215 38.768 61.1227 39.5292 61.2647 39.4243C61.7822 38.1659 61.6029 37.195 61.2647 35.9602C60.0167 31.4034 55.5184 30.304 51.3211 29.8642C51.1351 29.7593 51.3583 29.0929 51.4023 28.8798C51.5477 28.1626 52.4812 25.94 52.2715 25.4596C51.9333 24.668 49.6165 24.6139 48.8555 24.6579L47.7258 30.1382C43.1092 31.3764 37.701 34.9318 38.0798 40.3275C38.134 40.6286 38.648 41.9885 38.9085 41.9818H38.9152Z" fill="url(#paint18_linear_492_6830)"/>
<path d="M68.7393 30.7133C72.6863 28.7614 77.6345 27.557 82.0381 28.1321C82.0178 28.2776 82.887 28.6024 83.002 28.5922C83.0629 28.5888 83.7393 27.733 83.7664 27.6788C84.0268 27.1071 83.7494 25.8148 83.5127 25.2262C82.9546 23.8494 81.1249 22.6248 79.7822 22.1072C77.1001 21.072 74.3977 21.2716 71.6446 21.8805C70.772 20.2195 69.2602 16.6844 66.9501 17.0227C66.6491 17.0666 66.1385 17.2865 65.8341 17.4117C61.8363 19.0659 67.6773 20.7608 67.8802 23.0713C67.8397 23.2506 65.8137 24.1505 65.4349 24.394C63.1959 25.8216 61.542 28.193 60.8487 30.7471C61.9445 31.8567 62.8408 33.0983 63.6018 34.4548C65.046 32.902 66.8386 31.6538 68.7427 30.7133H68.7393Z" fill="url(#paint19_linear_492_6830)"/>
<path d="M94.8329 37.0157C97.0685 38.7748 98.9185 39.925 100.853 42.1374C101.776 43.1929 102.849 44.4175 103.265 45.7537C104.523 45.4256 105.669 44.5934 106.123 43.3451C107.337 39.9926 105.47 36.1632 103.258 33.6361C102.96 33.2979 101.462 31.8263 101.154 31.7485C100.982 31.647 100.674 31.4745 100.715 31.241C100.758 30.9839 102.209 29.8168 102.527 29.58C103.566 28.8087 106.302 27.8953 104.621 26.3967C104.289 26.099 102.994 25.4495 102.571 25.4292C101.168 25.3649 98.719 28.3791 97.7348 29.3162C97.3323 29.4244 96.3379 28.8459 95.8543 28.6937C93.02 27.8141 89.5262 27.4826 86.8069 28.9102C85.542 29.5766 83.878 31.2343 84.1553 32.7904C88.0753 33.2539 91.6063 34.8235 94.8329 37.0157Z" fill="url(#paint20_linear_492_6830)"/>
<path d="M114.098 92.7356C113.076 86.6836 108.866 79.4577 105.517 74.363C105.456 74.2717 105.429 74.1533 105.365 74.0619C104.547 72.8305 103.765 71.5789 102.805 70.449L101.506 68.3279C100.244 68.8049 99.0809 69.4713 97.8397 69.9957C97.4135 70.175 96.9975 70.3001 96.5578 70.449C96.3955 70.5031 96.2906 70.3272 96.3312 70.6722L99.6423 78.1282C99.7607 79.1498 100.424 80.0835 100.319 81.139C97.7754 78.1823 95.9253 74.7182 93.9975 71.3488C93.7573 70.9699 92.3064 71.7514 92.1846 71.9544C91.9884 72.2791 94.1463 78.0944 94.3086 79.1735C94.3932 79.752 94.498 80.3068 94.2241 80.8379C94.2173 80.5368 94.0313 80.3541 93.7709 80.2357C93.2636 78.9401 91.5352 76.8934 90.7607 75.4151C90.5341 74.9821 89.6852 72.773 89.4654 72.7223C86.7529 73.3617 83.8103 73.859 81.0302 74.1871C78.7675 74.4543 76.4575 74.4983 74.2252 74.8332C74.0629 75.3136 74.347 75.8075 74.3538 76.2439C74.3808 77.9151 74.5635 78.047 74.9084 79.6065C75.4868 82.2215 75.5477 85.4657 75.4124 88.1484C75.3447 89.5218 74.7765 91.7275 74.9456 92.969C75.0065 93.4223 75.3752 93.6828 75.5612 94.1598C76.0144 95.3134 75.8791 96.856 75.2331 97.9081C74.9862 98.3073 74.1779 98.8384 74.0798 99.1665C73.8972 99.7856 74.1102 101.108 74.0561 101.853C73.9513 103.294 73.3188 107.725 72.5443 108.774C71.3977 110.323 69.0775 109.873 67.4237 109.535C65.6446 109.17 62.1677 107.641 61.8667 105.604C61.5758 103.645 64.285 99.2984 65.1441 97.448C65.205 97.042 64.8397 96.7917 64.7247 96.423C64.1869 94.7112 65.1407 92.3635 66.9772 91.8831L67.4237 86.643C67.4609 85.6112 67.3459 80.7973 66.8386 80.1545C66.5172 79.7452 64.8295 80.0125 64.2038 79.9313C63.5747 79.8467 63.0843 79.4103 62.4755 79.3596C61.8769 80.547 60.984 81.5449 60.2873 82.6681C59.6751 83.6592 57.5409 87.2722 57.365 88.189C57.1655 89.2343 58.0787 90.0259 57.5206 91.6463C57.0099 93.1212 55.745 93.402 55.4947 93.9873C55.3154 94.4101 55.3188 95.0833 55.1531 95.6043C54.5883 97.3939 53.6514 99.1496 52.9005 100.882C52.5826 101.616 52.3899 102.522 52.0483 103.192C50.3572 106.518 44.8002 103.05 43.2749 101.014C42.5206 100.005 42.1689 99.1056 42.6762 97.881C43.3459 96.2741 45.338 93.4494 46.4338 92.0015C46.7619 91.5685 47.922 90.4454 48.0437 90.1341C48.3481 89.373 47.6413 88.2871 48.6289 86.8155C49.2952 85.8243 49.9784 85.7871 51.0235 85.4454C52.0144 82.6714 53.3943 80.0294 55.1057 77.6309C55.6942 76.8055 56.4823 76.0578 57.0336 75.2696C57.1892 75.0497 57.3278 74.8163 57.48 74.5897L57.0404 74.2852L47.8679 72.7189C47.8138 72.9287 47.7529 73.1215 47.621 73.3008C46.4744 74.8501 45.1858 76.6025 43.9378 78.0504C43.7754 78.2398 42.1418 80.1275 41.9863 79.938L45.2839 71.8969L39.5748 69.0112C36.2467 73.8116 32.9795 78.683 30.4158 83.9536C28.5015 87.8845 26.3606 93.0265 26.0291 97.4108C25.9378 98.6286 26.0967 99.9446 26.0291 101.176C26.1847 103.449 26.4688 105.428 27.453 107.61C27.9603 108.733 29.5331 112.038 30.4835 112.502C30.5984 112.556 30.7202 112.593 30.8453 112.624C30.8487 112.746 30.8589 112.867 30.8893 112.982C31.2241 114.241 35.5905 116.988 36.9028 117.695C44.1407 121.602 53.2624 123.226 61.4 123.013V123.165H65.9152L66.2771 123.006C68.719 123.074 71.0426 122.319 73.2884 121.656C73.3357 121.643 73.3932 121.67 73.4406 121.656C74.391 121.372 75.3752 121.098 76.3019 120.753C82.1125 118.581 88.7754 114.007 93.0099 109.457L96.9231 105.692C96.1046 107.999 94.5961 109.924 93.1621 111.866C92.9591 111.994 92.9625 112.072 92.8611 112.167C88.9377 115.841 85.8667 119.264 80.8205 121.656C80.3165 121.896 79.5082 121.95 79.1632 122.407C83.4992 122.482 87.8318 122.417 92.1068 121.656C101.374 120.009 111.128 114.596 113.973 105.056C115.2 100.946 115.055 96.8932 114.084 92.7424L114.098 92.7356ZM56.7461 74.4137C56.6176 74.3731 56.4586 74.3292 56.276 74.2818C56.5127 74.3123 56.6818 74.3461 56.7292 74.3833C56.736 74.3901 56.7394 74.4036 56.7461 74.4137ZM37.0381 112.231C35.1069 110.838 33.9705 108.114 33.4801 105.841L33.1181 105.54L33.3786 105.225C33.1384 103.547 33.294 103.497 33.8419 105.08L34.1734 105.09L34.0482 105.53C34.9344 107.377 35.8983 109.183 36.94 110.946C37.0922 111.277 37.7349 112.735 37.0381 112.235V112.231ZM74.2117 121.047H74.1441C74.161 121.044 74.1813 121.04 74.2016 121.037L74.2117 121.047ZM113.198 106.105C113.198 106.105 113.198 106.129 113.198 106.132C113.198 106.132 113.188 106.139 113.185 106.139C113.188 106.129 113.195 106.115 113.198 106.105ZM104.34 106.24C103.292 108.639 99.2805 114.407 96.6829 114.995C96.0809 115.134 96.4428 114.779 96.3346 114.42C96.4969 114.346 96.6559 114.264 96.8013 114.163C96.9467 114.065 97.0854 113.967 97.1869 113.838C99.4834 110.98 101.53 107.539 103.217 104.281C103.292 104.136 103.326 103.97 103.359 103.801C103.393 103.629 103.403 103.453 103.41 103.273C104.198 101.765 105.01 100.279 105.656 98.6997L105.97 98.6828C105.642 101.376 105.436 103.723 104.34 106.237V106.24Z" fill="url(#paint21_linear_492_6830)"/>
<defs>
<linearGradient id="paint0_linear_492_6830" x1="26.0005" y1="70.0824" x2="114.85" y2="70.0824" gradientUnits="userSpaceOnUse">
<stop stop-color="#9BEC00"/>
<stop offset="1" stop-color="#059212"/>
</linearGradient>
<linearGradient id="paint1_linear_492_6830" x1="26.0011" y1="70.0895" x2="114.868" y2="70.0895" gradientUnits="userSpaceOnUse">
<stop stop-color="#9BEC00"/>
<stop offset="1" stop-color="#059212"/>
</linearGradient>
<linearGradient id="paint2_linear_492_6830" x1="26.0205" y1="70.08" x2="114.877" y2="70.08" gradientUnits="userSpaceOnUse">
<stop stop-color="#9BEC00"/>
<stop offset="1" stop-color="#059212"/>
</linearGradient>
<linearGradient id="paint3_linear_492_6830" x1="25.9997" y1="70.1034" x2="114.853" y2="70.1034" gradientUnits="userSpaceOnUse">
<stop stop-color="#9BEC00"/>
<stop offset="1" stop-color="#059212"/>
</linearGradient>
<linearGradient id="paint4_linear_492_6830" x1="26" y1="70.0821" x2="114.879" y2="70.0821" gradientUnits="userSpaceOnUse">
<stop stop-color="#9BEC00"/>
<stop offset="1" stop-color="#059212"/>
</linearGradient>
<linearGradient id="paint5_linear_492_6830" x1="25.9867" y1="70.0595" x2="114.837" y2="70.0595" gradientUnits="userSpaceOnUse">
<stop stop-color="#9BEC00"/>
<stop offset="1" stop-color="#059212"/>
</linearGradient>
<linearGradient id="paint6_linear_492_6830" x1="26" y1="70.0641" x2="114.854" y2="70.0641" gradientUnits="userSpaceOnUse">
<stop stop-color="#9BEC00"/>
<stop offset="1" stop-color="#059212"/>
</linearGradient>
<linearGradient id="paint7_linear_492_6830" x1="26.004" y1="70.0773" x2="114.852" y2="70.0773" gradientUnits="userSpaceOnUse">
<stop stop-color="#9BEC00"/>
<stop offset="1" stop-color="#059212"/>
</linearGradient>
<linearGradient id="paint8_linear_492_6830" x1="26.0063" y1="70.0437" x2="114.86" y2="70.0437" gradientUnits="userSpaceOnUse">
<stop stop-color="#9BEC00"/>
<stop offset="1" stop-color="#059212"/>
</linearGradient>
<linearGradient id="paint9_linear_492_6830" x1="26" y1="70.1231" x2="114.818" y2="70.1231" gradientUnits="userSpaceOnUse">
<stop stop-color="#9BEC00"/>
<stop offset="1" stop-color="#059212"/>
</linearGradient>
<linearGradient id="paint10_linear_492_6830" x1="25.9304" y1="70.0941" x2="114.871" y2="70.0941" gradientUnits="userSpaceOnUse">
<stop stop-color="#9BEC00"/>
<stop offset="1" stop-color="#059212"/>
</linearGradient>
<linearGradient id="paint11_linear_492_6830" x1="26.0359" y1="70.0754" x2="114.853" y2="70.0754" gradientUnits="userSpaceOnUse">
<stop stop-color="#9BEC00"/>
<stop offset="1" stop-color="#059212"/>
</linearGradient>
<linearGradient id="paint12_linear_492_6830" x1="26.0119" y1="70.0719" x2="114.865" y2="70.0719" gradientUnits="userSpaceOnUse">
<stop stop-color="#9BEC00"/>
<stop offset="1" stop-color="#059212"/>
</linearGradient>
<linearGradient id="paint13_linear_492_6830" x1="26.0146" y1="70.0941" x2="114.857" y2="70.0941" gradientUnits="userSpaceOnUse">
<stop stop-color="#9BEC00"/>
<stop offset="1" stop-color="#059212"/>
</linearGradient>
<linearGradient id="paint14_linear_492_6830" x1="25.998" y1="70.0922" x2="114.839" y2="70.0922" gradientUnits="userSpaceOnUse">
<stop stop-color="#9BEC00"/>
<stop offset="1" stop-color="#059212"/>
</linearGradient>
<linearGradient id="paint15_linear_492_6830" x1="26.0181" y1="70.0551" x2="114.864" y2="70.0551" gradientUnits="userSpaceOnUse">
<stop stop-color="#9BEC00"/>
<stop offset="1" stop-color="#059212"/>
</linearGradient>
<linearGradient id="paint16_linear_492_6830" x1="26.0119" y1="70.1122" x2="114.865" y2="70.1122" gradientUnits="userSpaceOnUse">
<stop stop-color="#9BEC00"/>
<stop offset="1" stop-color="#059212"/>
</linearGradient>
<linearGradient id="paint17_linear_492_6830" x1="26" y1="70.0717" x2="114.856" y2="70.0717" gradientUnits="userSpaceOnUse">
<stop stop-color="#9BEC00"/>
<stop offset="1" stop-color="#059212"/>
</linearGradient>
<linearGradient id="paint18_linear_492_6830" x1="26.02" y1="70.085" x2="114.854" y2="70.085" gradientUnits="userSpaceOnUse">
<stop stop-color="#9BEC00"/>
<stop offset="1" stop-color="#059212"/>
</linearGradient>
<linearGradient id="paint19_linear_492_6830" x1="25.9869" y1="70.0793" x2="114.852" y2="70.0793" gradientUnits="userSpaceOnUse">
<stop stop-color="#9BEC00"/>
<stop offset="1" stop-color="#059212"/>
</linearGradient>
<linearGradient id="paint20_linear_492_6830" x1="26.0007" y1="70.0851" x2="114.849" y2="70.0851" gradientUnits="userSpaceOnUse">
<stop stop-color="#9BEC00"/>
<stop offset="1" stop-color="#059212"/>
</linearGradient>
<linearGradient id="paint21_linear_492_6830" x1="26.0156" y1="95.7432" x2="114.869" y2="95.7432" gradientUnits="userSpaceOnUse">
<stop stop-color="#9BEC00"/>
<stop offset="1" stop-color="#059212"/>
</linearGradient>
</defs>
</svg>
