<svg width="140" height="140" viewBox="0 0 140 140" fill="none" xmlns="http://www.w3.org/2000/svg">
<rect width="140" height="140" fill="#0A0400"/>
<path d="M53.8804 79.3391C58.7812 76.9507 65.8196 74.9717 71.2344 74.4338C71.4813 74.4101 71.8026 74.312 71.8737 74.3053C72.3336 74.2681 72.8139 74.3323 73.2773 74.3053C73.5039 74.2917 73.7914 74.2072 73.8861 74.1835L73.9131 74.1767C74.5456 74.1429 75.1916 74.2004 75.8274 74.1767C77.6876 74.2478 77.8669 74.1531 77.4238 72.262C77.1533 71.105 76.5851 70.2221 75.8274 69.329C73.7609 66.8899 70.7643 65.8412 67.6087 65.7567C66.2593 65.7195 64.9436 65.9292 63.6009 65.8683C63.2863 64.8873 63.1882 63.6626 63.4926 62.6681C63.8647 61.4536 65.4475 60.4861 65.2344 59.1938C65.1668 58.7913 64.8759 58.48 64.4464 58.5139C62.2717 58.6898 61.0574 61.9137 60.9053 63.781C60.8511 64.4509 61.0575 66.2979 60.7835 66.7208C60.6313 66.9576 57.6956 68.0367 57.0732 68.3683C53.4036 70.3236 50.6099 73.808 51.0935 78.1787C51.151 78.7031 51.567 80.3878 52.2638 80.2795C52.5208 80.2389 53.5253 79.5082 53.8804 79.3323V79.3391Z" fill="url(#paint0_linear_492_6820)"/>
<path d="M96.8511 94.0987C96.195 93.801 95.7181 93.3511 95.045 93.0365C93.2626 92.2043 90.1814 91.3281 88.2265 90.8004C87.7632 90.6752 84.655 89.887 84.4994 89.9986C84.8748 90.5196 84.9458 91.2232 84.8816 91.8491C84.8173 92.4986 84.4554 92.8775 84.2457 93.4424C84.7327 93.1887 85.2976 93.3646 85.8015 93.4796C90.9729 94.6704 89.7553 102.18 84.4994 101.605C84.1848 101.541 83.9582 101.585 83.5727 101.45C80.4002 100.323 79.8692 96.3754 82.3314 94.2103C81.2153 94.3862 79.9131 93.6724 78.8545 93.8551C78.7801 93.8687 78.2863 94.0682 78.2694 94.0953C78.08 94.4032 79.1589 95.9661 79.3348 96.3788C80.4374 98.9464 80.4644 102.224 79.9097 104.924C79.7508 104.951 79.443 105.841 79.5309 105.939C79.5479 105.959 79.8387 105.966 80.0417 106.128C81.036 106.913 81.9864 109.335 83.6132 108.821C83.9819 108.706 84.5061 108.077 84.9593 107.871C85.7812 107.498 86.9007 107.285 87.8105 106.896C93.1747 104.609 96.567 99.9782 96.8511 94.0987Z" fill="url(#paint1_linear_492_6820)"/>
<path d="M65.3664 97.5222C63.5501 95.0561 61.3855 92.5899 58.9876 90.6955C54.8782 93.0635 51.6245 96.4058 50.6065 101.193C50.2277 102.972 50.4171 104.444 50.3224 106.125C50.2784 106.886 49.7745 108.977 50.062 109.511C50.5456 110.404 52.3619 110.367 53.16 110.56C54.1104 110.793 55.372 111.477 56.4408 111.744C60.8951 112.867 64.5546 112.258 68.5186 110.042C68.921 109.819 70.6493 108.797 70.8556 108.554C71.1296 108.232 70.8793 107.62 70.7643 107.245C70 104.762 66.9594 99.6805 65.3697 97.5222H65.3664ZM63.452 99.8192L63.4182 100.171C64.3585 101.406 64.4092 103.114 63.6279 104.447L63.7057 104.792L63.3404 104.853C61.4633 107.163 57.7497 106.974 56.6302 104.028C55.1352 100.1 60.1544 96.9336 63.0969 99.8192H63.452Z" fill="url(#paint2_linear_492_6820)"/>
<path d="M76.0811 92.803C77.1161 91.7171 78.2525 91.5311 79.7136 91.6562C80.6132 91.734 83.1465 92.7692 82.9672 90.9661C82.7474 88.7199 77.9142 89.5148 76.4633 89.9343C75.7936 90.1272 75.496 90.3673 74.9312 90.6346C74.2446 90.9627 74.4069 90.7733 73.7846 90.506C70.6764 86.5176 64.6121 83.6489 60.0935 87.2111C58.4565 88.5 59.664 88.5101 60.7125 89.481C63.4689 92.0317 67.0371 96.3348 68.9379 99.5621C69.5907 100.672 70.1521 101.852 70.7237 103.006C70.8015 103.165 70.9334 103.293 70.9774 103.388C71.2987 104.048 71.5625 104.758 71.8703 105.428C72.0495 105.817 72.2694 106.186 72.4419 106.578C73.2536 108.412 73.1724 110.486 75.5704 108.107C75.939 107.881 76.1927 107.539 76.4633 107.214C76.6223 107.025 76.6324 106.947 76.717 106.832C79.9233 102.438 78.4114 97.556 75.9763 93.2124C75.9052 93.0466 76.054 92.9113 76.0811 92.7997V92.803Z" fill="url(#paint3_linear_492_6820)"/>
<path d="M57.1409 87.8268C58.027 86.5007 59.4915 85.5095 60.9458 84.8735C61.1927 84.7652 62.1228 84.5453 62.1634 84.498C62.1905 84.4642 62.2141 83.906 62.2987 83.6793C63.1916 81.291 65.549 80.0596 68.045 80.6888C68.0687 80.8275 69.6583 81.5988 70.1893 82.4344C71.1025 83.8654 70.5715 84.4303 70.9131 85.6685C70.9605 85.841 71.0146 86.0744 71.2344 85.8579C71.3427 85.7497 71.779 84.136 71.9379 83.7538C72.4689 82.4682 73.1724 81.4568 74.0991 80.4317L76.2062 79.0955C76.5106 78.7437 75.9965 76.4534 75.7429 76.3689C75.3539 76.2369 74.4712 76.4331 73.9808 76.22L71.4881 76.609C68.4509 76.8188 65.3494 77.3262 62.4306 78.2024C60.6989 78.7234 58.2198 79.6334 56.6031 80.4114C56.3731 80.5231 54.8917 81.3654 54.841 81.4534C54.7361 81.6191 54.7598 81.8323 54.7835 82.0183C55.4261 84.0379 55.8049 86.1083 57.1375 87.8302L57.1409 87.8268Z" fill="url(#paint4_linear_492_6820)"/>
<path d="M91.372 65.5503C91.5411 65.3676 93.0056 62.6579 93.0292 62.4752C93.1138 61.8765 91.3584 60.8582 90.8782 60.5301C87.6854 58.3481 84.3404 56.4672 80.6437 55.2663C79.4362 54.8738 74.0281 53.3008 73.1454 53.8319C72.9763 53.9334 71.6944 57.0457 71.5557 57.4753C70.8658 59.6471 70.8049 62.2283 71.1905 64.4576C71.2784 64.6674 72.4453 64.8839 72.7936 65.0293C74.9684 65.9427 76.744 67.279 78.1206 69.2038C78.2762 69.6166 78.5839 70.08 78.7192 70.4521C78.8308 70.7634 79.169 72.2316 79.2942 72.3635C79.3652 72.4345 81.1239 72.7728 81.2525 72.7661C81.6211 72.7458 82.3348 71.3486 82.6426 70.99C83.3866 70.1274 84.5704 69.3561 85.7203 69.2208C86.2108 69.1632 87.9154 69.3527 88.0642 69.2783C88.3314 69.143 89.8534 66.8561 90.2964 66.3994C90.6583 66.0307 91.0845 65.8548 91.3652 65.5537L91.372 65.5503ZM80.5152 58.9063C85.8759 58.277 86.8331 66.7715 81.1172 67.1606C75.6583 67.5327 75.107 59.5389 80.5152 58.9063Z" fill="url(#paint5_linear_492_6820)"/>
<path d="M90.2389 76.9237C90.1172 75.3709 89.4813 73.5746 88.4565 72.3939C87.7733 71.6057 86.4611 70.5908 85.4565 71.4975C84.4825 72.377 86.045 73.5137 86.5456 74.1801C86.7519 74.4541 87.4689 75.8208 87.567 75.8377C87.7598 76.6733 87.9932 77.6645 87.5975 78.4832C87.2626 79.1801 86.505 78.7741 85.9774 78.764C84.3269 78.7335 82.8083 78.747 81.1882 79.0887C77.0992 79.9446 72.9932 82.6306 73.0202 87.2348C73.8726 87.8674 74.9921 87.4547 75.8951 87.4716C78.8308 87.5291 81.8883 87.6813 84.8072 88.1008C87.0292 88.4188 89.204 89.0209 91.3923 89.4878C93.0056 90.1644 94.6899 90.8342 96.3675 91.4025C96.3911 91.5412 98.6741 92.6677 98.8669 92.6813C99.2728 92.7049 99.4182 92.3599 99.5569 92.0419C99.8444 91.3822 99.9018 90.5805 99.939 89.8734C100.149 89.7111 100.149 89.1427 99.939 88.9803C99.7868 85.5162 97.2705 83.1211 94.4531 81.4534C94.2062 81.3079 94.0033 81.0846 93.6888 81.0711C93.6482 81.0407 93.6144 80.9798 93.5602 80.9426C92.6166 80.3133 91.3923 80.0258 90.3708 79.5386C90.0326 78.6861 90.3134 77.8607 90.2423 76.927L90.2389 76.9237Z" fill="url(#paint6_linear_492_6820)"/>
<path d="M47.3123 83.7436C47.6437 84.0007 49.8083 85.7835 49.974 85.77C50.2987 85.7429 51.6415 84.224 51.7801 83.8722C52.5141 82.0014 51.0293 82.634 50.1871 81.5785C48.5095 79.4744 49.142 75.2829 49.9301 72.9048C45.4351 72.5529 40.9504 72.6409 36.5129 73.5813C35.7519 73.7437 34.8726 73.9061 34.142 74.1429C33.9492 74.2072 32.6539 74.7045 32.5862 74.7518C32.3326 74.9311 32.4273 76.9981 32.4577 77.4277C32.4915 77.881 32.9109 80.7937 33.0969 80.9358C34.9267 79.3357 36.9831 78.9094 39.3506 78.7098C41.0654 73.6186 48.1679 75.0766 47.5017 80.611C47.4374 81.1557 47.1364 81.0305 47.3799 81.8289C47.4678 82.1198 47.6606 82.2416 47.6437 82.6543C47.6234 83.1415 47.1364 83.358 47.3089 83.7368L47.3123 83.7436Z" fill="url(#paint7_linear_492_6820)"/>
<path d="M58.9639 64.5862C59.1804 64.2479 59.1702 62.4888 59.2514 62.005C59.2987 61.7107 59.5186 61.342 59.6268 61.0409C60.31 59.1701 62.0755 56.7412 64.2198 56.5754C64.5648 56.8528 65.1803 56.6431 65.6234 56.704C65.7925 56.7514 65.965 56.7886 66.1341 56.8325C66.2491 56.9442 66.5298 57.3061 66.7057 57.0863C66.8985 56.8461 67.4633 55.1614 67.5682 54.7588C67.9368 53.3786 68.0383 51.8326 68.1533 50.4084C66.9188 49.3631 65.4644 49.2311 63.9627 48.9199C58.4938 47.7833 53.5456 47.3502 47.9583 47.7731C47.2818 47.8238 46.5919 48.0877 45.912 48.1452C45.5332 50.405 45.2221 52.7731 45.655 55.0498C45.8309 55.9801 47.1093 59.8332 47.9244 60.1782C48.3134 60.344 49.0676 60.3102 49.5783 60.4387C50.8771 60.7669 53.0282 61.6938 54.1443 62.4414C54.425 62.6309 55.0439 63.1484 55.2976 63.392C55.7677 63.8453 56.593 65.3101 57.2322 65.2255C57.4182 65.2019 58.9132 64.6606 58.9639 64.5828V64.5862ZM55.5141 50.8685C60.5907 50.2122 62.2108 57.3772 57.4013 59.0044C51.5501 60.98 49.8624 51.6026 55.5141 50.8685Z" fill="url(#paint8_linear_492_6820)"/>
<path d="M74.1972 51.6364C79.9131 52.6107 86.8703 55.2087 91.6425 58.4902C92.5659 59.1262 93.6177 59.9685 94.4531 60.7195C94.8759 61.1018 95.0721 61.8663 95.7316 61.369C96.3742 60.8819 97.2908 59.5456 97.3855 58.7473C97.4125 58.4056 97.4633 58.0639 97.514 57.7256C97.6189 56.9949 97.585 57.0186 97.514 56.3217C97.0811 52.1269 94.2502 49.6134 90.8714 47.4653C89.5693 46.6364 88.8658 46.8191 90.1916 45.1074C90.7327 44.4105 91.5884 43.7001 92.4137 43.3753C93.2322 43.0539 95.7519 42.7089 94.5817 41.2035C93.3776 39.6541 90.1104 42.2116 89.0924 43.1182C88.2029 43.9132 87.5602 44.8469 86.7384 45.6859C82.7711 44.4139 78.4047 44.0384 74.7688 46.3963C73.487 47.2285 72.5298 48.3008 72.036 49.7859C71.2852 52.0525 72.5095 51.3489 74.1972 51.6364Z" fill="url(#paint9_linear_492_6820)"/>
<path d="M44.9075 46.0005C50.1736 45.0634 58.5715 45.5066 63.8342 46.6263C66.1104 47.1101 68.2886 47.8543 70.4261 48.7643C71.0383 48.7947 71.5524 47.4957 71.6166 47.012C71.6268 46.403 71.8838 45.696 71.8703 45.0972C71.8635 44.8029 71.7959 44.6811 71.7587 44.5323L71.7451 44.4579C70.974 39.1907 65.5727 36.9715 61 36.0073C60.381 35.8788 60.009 35.8551 60.0969 35.165C60.2795 33.7137 61.6189 32.0493 62.779 31.2138C64.0236 30.3173 66.3607 29.5731 63.9661 28H62.8196C60.0428 29.4174 58.0473 32.4654 57.4351 35.4965C56.735 35.7841 55.9605 35.5811 55.2333 35.6555C50.6775 36.119 44.823 38.2807 43.7508 43.3077C43.5851 44.0824 43.4092 45.2224 43.7846 45.9565C44.0856 46.5485 44.4881 46.0783 44.9143 46.0039L44.9075 46.0005Z" fill="url(#paint10_linear_492_6820)"/>
<path d="M31.4397 72.8405C36.5603 70.8649 42.5366 71.0103 47.8906 70.6044C48.0665 70.8276 48.5028 70.7262 48.7835 70.7329C49.6392 70.7532 50.478 70.8919 51.3337 70.8615L53.2446 68.6288C54.0157 68.0976 54.682 67.2824 55.6696 67.1606C55.717 66.758 55.4092 66.5178 55.1589 66.2675C52.8557 62.6207 47.9955 61.501 43.9267 61.4908C43.717 59.8806 43.2029 58.3616 42.2559 57.0389C41.3461 55.7669 38.6911 53.3989 37.186 54.9855C36.1849 56.0443 38.4137 56.863 39.0259 57.3366C39.8917 58.0064 42.0935 60.4489 41.0112 61.4908C40.5851 61.9002 38.4949 62.1978 37.7474 62.4346C33.5535 63.754 28.0981 67.2993 29.7181 72.5157C30.168 73.9602 30.5502 73.1822 31.4431 72.8371L31.4397 72.8405Z" fill="url(#paint11_linear_492_6820)"/>
<path d="M110.14 74.9446C110.015 74.9345 109.883 74.9514 109.758 74.9446C109.541 74.7045 109.061 74.8364 108.736 74.8161C107.999 74.7721 107.299 74.6097 106.568 74.5624C106.294 74.3425 105.888 74.4406 105.547 74.4338C105.165 74.4271 104.779 74.4338 104.4 74.4338C104.268 74.2207 103.916 74.3053 103.7 74.3053C102.875 74.2951 102.033 74.2816 101.211 74.3053C99.2795 74.3662 96.9424 74.559 95.0247 74.8161C94.6696 74.8635 92.4035 75.2897 92.2784 75.3844C92.0146 75.584 92.1431 77.8607 92.3494 78.2531C92.5659 78.6726 94.4126 79.2105 94.9469 79.4811C96.0462 80.0393 97.1251 80.9324 98.089 81.6969L99.2964 82.9757C98.7248 80.3573 100.003 77.722 102.743 77.2349H103.889C104.478 77.3567 104.877 77.536 105.422 77.7457C106.287 78.561 106.862 79.0177 107.174 80.2693C108.114 84.0514 104.072 86.5514 100.832 85.019C101.157 85.337 101.938 86.7645 102.181 86.9202C102.652 87.2178 104.295 87.2483 104.911 87.6982C104.968 87.8234 106.037 88.3444 106.304 88.5372C106.937 88.9973 107.454 89.6468 108.012 90.1035C109.487 89.1698 110.61 87.7523 111.543 86.2943C112.416 84.9378 113.238 83.27 113.65 81.7037C114.137 79.8499 114.053 78.04 114.33 76.1659C114.198 75.5975 110.759 74.9988 110.143 74.9446H110.14Z" fill="url(#paint12_linear_492_6820)"/>
<path d="M115.369 68.5679C115.21 68.3243 115.037 68.0232 114.858 67.8033C114.709 67.6206 114.587 67.5462 114.476 67.4211C112.379 65.0902 109.179 63.7371 106.057 63.595C105.983 63.5747 105.773 63.5003 105.675 63.4664C105.689 63.4833 105.696 63.5003 105.699 63.5172L105.675 63.4664C105.608 63.4428 105.493 63.4867 105.422 63.4664C105.263 63.4191 104.847 63.3176 104.779 63.277C104.637 63.1924 104.691 63.0064 104.657 62.959C104.887 60.9969 102.378 55.7974 100.254 55.8109C99.4858 55.8143 99.1713 56.5788 99.3269 57.2554C99.4283 57.6986 100.94 59.0247 101.339 59.5828C102.097 60.6451 102.327 61.6464 102.236 62.959C102.158 63.0334 102.131 63.206 101.982 63.277C101.738 63.392 101.542 63.3074 101.343 63.3413C100.528 63.4833 99.7124 63.4901 98.8939 63.6356C95.0078 64.3122 90.9965 66.7309 89.9244 70.7295L91.328 73.3073C91.5039 73.4798 91.7102 73.2227 91.9841 73.1788C97.7372 72.2721 105.56 72.191 111.296 73.1652C112.402 73.3547 113.583 73.6456 114.668 73.9399C115.453 74.153 116.048 74.8567 116.441 73.7809C117.063 72.0726 116.305 70.0124 115.379 68.5746L115.369 68.5679ZM105.364 63.5984C105.34 63.5984 105.32 63.595 105.293 63.5916C105.313 63.5916 105.34 63.5916 105.364 63.5984Z" fill="url(#paint13_linear_492_6820)"/>
<path d="M112.734 100.222C111.557 99.42 111.638 100.093 111.192 98.5235C111.192 98.4897 111.185 98.4525 111.161 98.4119C111.019 97.9146 110.965 97.3395 110.782 96.8118C109.426 92.9012 105.902 89.3491 101.85 88.3342C101.813 90.0866 101.874 91.8085 100.977 93.3951C100.365 94.481 99.7226 94.7009 98.5557 94.9952C97.9334 99.3151 95.7891 103.222 92.664 106.193C92.4847 106.318 91.1927 106.944 91.3889 107.211C96.3167 109.714 102.526 110.401 107.245 107.062C108.986 105.831 109.954 104.413 111.868 103.395C113.001 102.793 114.09 101.142 112.73 100.218L112.734 100.222ZM102.198 95.5127C107.376 94.623 108.963 101.876 104.299 103.097C98.8601 104.525 97.5918 96.301 102.198 95.5127Z" fill="url(#paint14_linear_492_6820)"/>
<path d="M52.1048 94.2746C52.2942 94.0378 52.8523 93.6183 52.9334 93.4357C53.1026 93.0568 52.2367 91.5006 51.9932 91.0575C50.9583 89.1766 49.5107 87.4953 47.823 86.1725C47.5659 85.9729 46.0879 84.9073 45.9188 84.9006C45.2796 84.8633 44.5659 85.5941 44.1905 86.044C43.3078 86.7916 42.5129 87.6509 41.7688 88.5338C39.5366 91.1894 37.6764 94.1359 36.2593 97.3091C36.009 97.8639 34.4667 101.768 34.4938 102.049C34.5377 102.471 36.7463 103.916 37.2164 104.18C40.4329 105.986 43.5885 106.122 47.1229 105.306C47.6336 105.188 48.1274 105.019 48.6415 104.91C48.5095 101.128 49.7474 97.2347 52.1014 94.2746H52.1048ZM46.4836 100.124L46.3619 100.459L46.0507 100.303C38.5051 101.67 39.2119 89.8024 46.7914 93.5067L47.1262 93.4424L47.1431 93.7942C48.9526 95.5331 48.797 98.9058 46.4802 100.124H46.4836Z" fill="url(#paint15_linear_492_6820)"/>
<path d="M43.1725 84.3187C43.5005 84.0278 45.1341 82.9419 45.195 82.8336C45.4081 82.4649 44.593 81.7612 44.3224 81.5785C40.4329 78.9737 36.2796 80.3911 32.9109 82.9858C32.5186 83.2869 31.3247 84.5081 30.9695 84.613C30.2796 84.8194 28.9605 84.4168 28.1928 84.3796C26.133 84.2747 23.3258 84.8634 22 86.5548V87.3193C22.6561 88.7503 24.283 87.3599 25.2841 86.9675C26.3901 86.5345 27.4047 86.1894 28.5783 86.6732C29.779 87.1671 28.6088 88.527 28.3145 89.2341C26.5659 93.4526 25.6088 99.7617 29.8636 102.86C32.0282 104.437 31.9943 102.282 32.6505 100.719C34.7069 95.8138 37.3991 90.9391 40.7474 86.8119C41.522 86.23 42.3675 85.0291 43.1691 84.3221L43.1725 84.3187Z" fill="url(#paint16_linear_492_6820)"/>
<defs>
<linearGradient id="paint0_linear_492_6820" x1="22.0015" y1="70.1687" x2="116.669" y2="70.1687" gradientUnits="userSpaceOnUse">
<stop stop-color="#9BEC00"/>
<stop offset="1" stop-color="#059212"/>
</linearGradient>
<linearGradient id="paint1_linear_492_6820" x1="21.9926" y1="70.1338" x2="116.668" y2="70.1338" gradientUnits="userSpaceOnUse">
<stop stop-color="#9BEC00"/>
<stop offset="1" stop-color="#059212"/>
</linearGradient>
<linearGradient id="paint2_linear_492_6820" x1="21.9857" y1="70.1555" x2="116.644" y2="70.1555" gradientUnits="userSpaceOnUse">
<stop stop-color="#9BEC00"/>
<stop offset="1" stop-color="#059212"/>
</linearGradient>
<linearGradient id="paint3_linear_492_6820" x1="22.0166" y1="70.155" x2="116.672" y2="70.155" gradientUnits="userSpaceOnUse">
<stop stop-color="#9BEC00"/>
<stop offset="1" stop-color="#059212"/>
</linearGradient>
<linearGradient id="paint4_linear_492_6820" x1="22.015" y1="70.1227" x2="116.688" y2="70.1227" gradientUnits="userSpaceOnUse">
<stop stop-color="#9BEC00"/>
<stop offset="1" stop-color="#059212"/>
</linearGradient>
<linearGradient id="paint5_linear_492_6820" x1="22.0143" y1="70.1398" x2="116.67" y2="70.1398" gradientUnits="userSpaceOnUse">
<stop stop-color="#9BEC00"/>
<stop offset="1" stop-color="#059212"/>
</linearGradient>
<linearGradient id="paint6_linear_492_6820" x1="21.9768" y1="70.1415" x2="116.662" y2="70.1415" gradientUnits="userSpaceOnUse">
<stop stop-color="#9BEC00"/>
<stop offset="1" stop-color="#059212"/>
</linearGradient>
<linearGradient id="paint7_linear_492_6820" x1="22.0101" y1="70.1384" x2="116.677" y2="70.1384" gradientUnits="userSpaceOnUse">
<stop stop-color="#9BEC00"/>
<stop offset="1" stop-color="#059212"/>
</linearGradient>
<linearGradient id="paint8_linear_492_6820" x1="22.0019" y1="70.1552" x2="116.668" y2="70.1552" gradientUnits="userSpaceOnUse">
<stop stop-color="#9BEC00"/>
<stop offset="1" stop-color="#059212"/>
</linearGradient>
<linearGradient id="paint9_linear_492_6820" x1="21.997" y1="70.1405" x2="116.659" y2="70.1405" gradientUnits="userSpaceOnUse">
<stop stop-color="#9BEC00"/>
<stop offset="1" stop-color="#059212"/>
</linearGradient>
<linearGradient id="paint10_linear_492_6820" x1="21.9886" y1="70.1462" x2="116.677" y2="70.1462" gradientUnits="userSpaceOnUse">
<stop stop-color="#9BEC00"/>
<stop offset="1" stop-color="#059212"/>
</linearGradient>
<linearGradient id="paint11_linear_492_6820" x1="21.9926" y1="70.1731" x2="116.687" y2="70.1731" gradientUnits="userSpaceOnUse">
<stop stop-color="#9BEC00"/>
<stop offset="1" stop-color="#059212"/>
</linearGradient>
<linearGradient id="paint12_linear_492_6820" x1="21.9982" y1="70.1553" x2="116.653" y2="70.1553" gradientUnits="userSpaceOnUse">
<stop stop-color="#9BEC00"/>
<stop offset="1" stop-color="#059212"/>
</linearGradient>
<linearGradient id="paint13_linear_492_6820" x1="21.9761" y1="70.1156" x2="116.63" y2="70.1156" gradientUnits="userSpaceOnUse">
<stop stop-color="#9BEC00"/>
<stop offset="1" stop-color="#059212"/>
</linearGradient>
<linearGradient id="paint14_linear_492_6820" x1="21.9996" y1="70.1677" x2="116.682" y2="70.1677" gradientUnits="userSpaceOnUse">
<stop stop-color="#9BEC00"/>
<stop offset="1" stop-color="#059212"/>
</linearGradient>
<linearGradient id="paint15_linear_492_6820" x1="22.0191" y1="70.1408" x2="116.678" y2="70.1408" gradientUnits="userSpaceOnUse">
<stop stop-color="#9BEC00"/>
<stop offset="1" stop-color="#059212"/>
</linearGradient>
<linearGradient id="paint16_linear_492_6820" x1="22" y1="91.8016" x2="45.2288" y2="91.8016" gradientUnits="userSpaceOnUse">
<stop stop-color="#9BEC00"/>
<stop offset="1" stop-color="#059212"/>
</linearGradient>
</defs>
</svg>
