<svg width="71" height="54" viewBox="0 0 71 54" fill="none" xmlns="http://www.w3.org/2000/svg">
<path d="M26.4038 9.06822C21.0905 9.60881 17.3775 12.6528 14.321 15.6584C15.0062 16.9738 17.8563 17.4076 19.35 18.3452C18.187 19.8248 15.4544 17.714 13.8274 17.5358C11.3248 16.5363 12.2923 20.9274 10.1786 20.92C10.1144 20.1503 9.7985 19.6333 10.2743 18.8946C10.4738 18.4645 10.5853 18.7039 10.4748 18.1242C10.3918 17.454 11.4798 16.9613 11.6585 16.2859C9.33253 15.2077 8.74612 14.9941 7.81121 17.2419C1.2471 25.8575 14.7633 22.0446 11.8589 24.9553C0.358587 22.0387 5.82094 31.6817 8.69873 37.0346C9.34339 38.2219 10.4817 36.9477 11.3603 36.6656C10.3879 35.527 9.5744 33.9502 8.69774 32.693C8.60494 30.929 6.92664 27.083 9.63067 26.4379C10.0048 28.5104 10.1351 37.8779 14.9114 34.68C17.1633 34.0503 13.011 30.739 13.5302 29.1253C13.163 26.4622 14.1137 23.7636 14.8127 21.2882C17.9817 17.5505 13.1008 31.2848 17.4772 33.2814C19.9305 33.8581 21.5416 31.3776 23.9742 31.5978C20.9059 35.826 32.8 37.8389 37.0037 37.6231C37.6395 35.4725 37.748 36.0308 38.8863 37.6916C41.9309 37.4375 44.4849 36.1449 46.4722 34.2381C47.2373 33.5311 45.2421 32.7224 45.9786 32.1045C47.0922 32.0728 47.6105 33.7793 48.2473 32.3254C50.0154 30.3958 49.502 28.0898 50.2346 25.9724C53.7343 26.2191 50.431 31.5595 49.7271 33.2078C49.585 33.4324 48.7853 33.903 49.3322 34.0908C53.1133 37.8035 55.0868 30.602 54.6593 28.6459C52.3265 28.173 51.9445 27.7415 54.5596 27.3953C56.1718 27.2406 58.4819 28.2526 59.5906 27.1751C59.7969 27.1582 59.635 27.4299 59.6873 27.469C65.7104 26.2471 51.3472 9.61397 60.7723 18.4917C62.8169 20.3485 61.8286 28.1915 64.2237 27.8365C69.068 28.3609 62.0972 12.4598 58.8995 12.8266C58.2855 13.1506 58.5579 13.1551 58.8995 13.5623C57.7721 12.5946 55.4778 15.8919 54.2635 16.4318C53.3572 17.4408 58.9508 21.5556 55.9398 24.8934C55.1006 22.709 54.0117 16.9245 50.6147 17.8296C48.6353 18.2553 49.5524 17.3377 50.59 16.8376C51.6187 16.3515 47.7102 14.4373 46.9658 14.1508C42.7533 11.8949 36.279 11.3079 31.5275 12.6763C31.9747 17.6831 41.8836 13.119 45.1898 17.1683C46.5058 18.0278 53.2989 22.8157 49.8673 23.5007C47.9827 19.7998 43.0594 16.6682 37.6947 16.2108C35.8486 16.3507 32.3973 15.6032 32.961 17.8296C31.3616 19.1958 33.2305 14.2119 25.8598 18.5654C18.3993 22.1728 22.0027 32.5236 19.351 28.4249C17.6401 22.4129 23.2792 16.8825 30.8483 15.2556C30.0526 11.7697 25.9654 14.357 22.9998 14.8129C21.981 15.0582 17.9659 18.1942 19.0538 15.9906C24.2664 10.5339 31.4929 14.1972 26.4038 9.06822ZM8.50128 23.0536C8.51017 23.0264 8.5388 23.05 8.5615 23.0551L8.50128 23.0536ZM10.6041 23.1221C10.6406 23.142 10.6604 23.1693 10.6722 23.2009C10.6475 23.1715 10.6248 23.1457 10.6041 23.1221ZM10.2052 37.193C10.1667 37.2202 10.1253 37.2423 10.0799 37.2548C10.1223 37.235 10.1628 37.2136 10.2052 37.193ZM8.79844 36.9602C8.78659 36.9426 8.77572 36.9212 8.76486 36.8991C8.77572 36.919 8.78659 36.9381 8.79844 36.9602ZM8.17154 24.8257C8.02839 24.8139 8.21991 24.8257 8.27125 24.8279C8.23472 24.8279 8.20017 24.8279 8.17154 24.8257ZM12.1412 26.2913C12.1313 26.2913 12.1501 26.253 12.1501 26.2869C12.1471 26.2883 12.1442 26.2898 12.1412 26.2913ZM14.8146 34.6064C14.7969 34.63 14.7919 34.6498 14.7722 34.669C14.786 34.6484 14.8008 34.6285 14.8146 34.6064ZM15.3073 18.0513H15.3556C15.3388 18.0535 15.3211 18.055 15.3073 18.0513ZM15.406 28.0574C15.4297 28.0169 15.4475 28.0073 15.4603 28.0162L15.406 28.0574ZM15.8009 24.3786V24.3049C15.7959 24.3293 15.8058 24.3543 15.8009 24.3786ZM63.5356 18.1242C63.501 18.0417 63.4694 17.9585 63.4378 17.876C63.4862 17.9629 63.5227 18.0469 63.5356 18.1242ZM52.3068 33.2969C52.2939 33.2969 52.2772 33.3006 52.2673 33.2925C52.2821 33.2939 52.2959 33.2954 52.3068 33.2969ZM51.7993 35.1212C51.749 35.1322 51.7075 35.1278 51.673 35.1146C51.7154 35.1183 51.7579 35.1205 51.7993 35.1212ZM51.6019 23.0544C51.6019 23.0544 51.6019 23.0581 51.5999 23.0588L51.6019 23.0544ZM31.7782 13.0475C31.7753 13.0372 31.7763 13.0262 31.7782 13.0151V13.0475ZM35.822 14.8873C35.8555 14.8881 35.8911 14.8873 35.9256 14.8888C35.8723 14.8932 35.8348 14.8939 35.822 14.8873ZM40.457 14.5927V14.5191C40.455 14.5441 40.4639 14.5736 40.457 14.5927ZM48.0528 19.2275C48.0459 19.2231 48.0419 19.2187 48.04 19.215C48.0439 19.2194 48.0518 19.2253 48.0528 19.2275ZM24.2822 31.3687C24.2901 31.3687 24.3 31.3731 24.3118 31.3783C24.3019 31.3754 24.2931 31.3731 24.2822 31.3687ZM30.8809 34.244C30.9065 34.244 30.9322 34.244 30.9539 34.2536C30.9292 34.2499 30.9045 34.2462 30.8809 34.244ZM44.946 35.267C44.9065 35.2538 44.946 35.2309 44.9529 35.2103C44.9529 35.228 44.9499 35.2464 44.946 35.267ZM45.8819 32.1045H45.9273C45.9115 32.106 45.8967 32.1067 45.8819 32.1045ZM46.0823 22.6898C46.0842 22.7178 46.0833 22.7421 46.0783 22.7598C46.0783 22.7355 46.0803 22.7126 46.0823 22.6898ZM33.1633 16.8015C33.1614 16.8074 33.1604 16.8081 33.1594 16.8007L33.1633 16.8015ZM24.9723 20.9944C24.9723 20.9958 24.9723 20.9958 24.9723 20.9944V20.9944ZM24.4796 26.4754C24.296 21.5843 30.1918 19.4485 35.2306 18.7871C53.2772 18.5617 46.6085 40.2045 30.3961 33.9435C27.3772 32.3571 23.8498 30.0555 24.4796 26.4754ZM24.3572 25.8221C24.3612 25.7573 24.3661 25.6925 24.374 25.6292C24.3858 25.6852 24.3582 25.7588 24.3572 25.8221ZM24.377 19.9021C24.3276 19.9323 24.2407 19.9552 24.0847 19.964C24.1558 19.9544 24.2605 19.9323 24.377 19.9021ZM23.7994 28.1487C23.8113 28.1694 23.7975 28.1546 23.7896 28.1311C23.7925 28.137 23.8014 28.1546 23.7994 28.1487ZM23.4085 31.4299C23.3799 31.4431 23.3453 31.4505 23.2959 31.4424C23.3344 31.4365 23.372 31.4335 23.4085 31.4299ZM18.7567 29.7455C18.7567 29.7455 18.7566 29.7484 18.7586 29.7499L18.7567 29.7455ZM28.5233 13.5631C28.4345 13.5822 28.3437 13.5999 28.2538 13.6191C28.317 13.5793 28.3999 13.5513 28.5233 13.5631ZM27.7997 16.143L27.8036 16.1445C27.7809 16.1445 27.78 16.1445 27.7997 16.143ZM21.6907 18.0933C21.6601 18.1102 21.6335 18.125 21.6196 18.1242C21.6532 18.1014 21.6759 18.0926 21.6907 18.0933ZM19.9946 16.5687C19.9749 16.582 19.969 16.6247 19.9433 16.6166C19.9522 16.5997 19.9709 16.5835 19.9946 16.5687Z" fill="#06D001"/>
<path d="M21.6196 6.79317C17.721 8.81192 12.4887 10.62 10.5725 14.0035C12.5173 15.4331 13.1788 14.5183 14.6172 13.2677C17.5562 10.7025 21.3906 8.49891 25.7502 7.44644C25.6199 4.96517 23.7382 5.99112 21.6196 6.79317ZM23.7906 7.962C23.7659 7.96862 23.7787 7.96494 23.7906 7.962C23.7678 7.96789 23.7925 7.97599 23.7906 7.962ZM23.5576 8.02313C23.4184 8.07173 23.2723 8.1336 23.1972 8.11813C23.3157 8.0872 23.4371 8.05479 23.5576 8.02313Z" fill="#06D001"/>
<path d="M42.8244 5.76354C44.6537 3.19315 30.1434 4.04234 28.1709 4.73097C28.2874 8.33614 31.1662 5.76796 35.1319 6.64661C36.0806 6.82778 40.3859 6.9007 37.7944 7.60332C33.6619 7.96494 25.1519 7.42361 31.2846 11.2829C37.8981 10.0382 44.7367 11.1923 50.0243 14.2252C52.7244 16.501 54.4421 14.1663 56.4354 12.3854C60.564 11.0133 47.4871 5.28408 45.5403 5.61919C43.1916 9.27739 41.2488 12.1195 42.8254 5.76428L42.8244 5.76354ZM31.1948 4.39733C31.3073 4.31411 31.7832 4.31484 31.877 4.29201C31.644 4.32368 31.4169 4.35903 31.1948 4.39733ZM37.4005 6.20397C37.4005 6.20397 37.4065 6.2025 37.4055 6.20397C37.4035 6.20397 37.4025 6.20397 37.4005 6.20397ZM30.3971 8.19178C30.4336 8.20578 30.479 8.21314 30.5136 8.23155C30.4761 8.21977 30.4376 8.20725 30.3971 8.19178ZM37.3285 10.0036C37.3897 9.99327 37.4381 10.0102 37.4993 10.0308C37.443 10.0227 37.3857 10.0132 37.3285 10.0036ZM45.6844 9.66258C45.6943 9.65153 45.6972 9.65668 45.7061 9.66552C45.6992 9.66552 45.6913 9.66479 45.6844 9.66258ZM52.5111 13.6073C52.5368 13.6168 52.5615 13.6257 52.5881 13.6367C52.5782 13.6367 52.5496 13.625 52.5111 13.6073ZM45.487 7.89718C47.2827 7.5223 57.2419 12.7898 51.7026 12.0525C50.3481 10.4455 45.8473 9.60734 45.487 7.89718ZM43.7632 8.50332C43.8294 8.4827 43.7623 8.60864 43.7504 8.56445C43.7544 8.54383 43.7603 8.52395 43.7632 8.50332Z" fill="#06D001"/>
<path d="M3.02905 22.0247C5.0045 14.061 12.3495 7.94358 22.213 4.58735C24.7403 4.37818 23.8271 2.90444 22.8626 1.79675C19.0666 3.10625 15.9618 4.95044 12.3495 6.49931C9.74223 7.90676 8.47659 10.1899 6.40735 11.9251C4.0992 12.5835 -1.91897 22.7288 3.02905 22.0247ZM22.7757 4.3826C22.7362 4.40249 22.6957 4.4209 22.6552 4.43858C22.6483 4.41132 22.7401 4.40322 22.7757 4.3826ZM18.3628 5.2502C18.3351 5.25388 18.3035 5.25388 18.266 5.24799C18.2996 5.24799 18.3312 5.24873 18.3628 5.2502ZM15.0299 6.93973C15.022 6.94194 15.0131 6.95078 15.0121 6.94121L15.0299 6.93973ZM1.41097 21.8472C1.3774 21.8355 1.35865 21.8134 1.33792 21.7854C1.36062 21.8075 1.3853 21.8281 1.41097 21.8472Z" fill="#06D001"/>
<path d="M71 25.3081C70.1194 10.4521 51.5239 -1.07634 31.952 0.0799633C30.4761 0.116052 25.6377 -0.108581 27.0435 1.71647C42.9764 2.57891 59.246 4.33399 66.0994 18.1264C67.8448 21.0511 67.1291 25.6005 68.6632 28.1318C71.3673 29.0318 70.7631 26.6559 71 25.3081ZM31.1968 0.191175C31.1997 0.187492 31.2007 0.186019 31.1968 0.191175V0.191175ZM36.4133 0.46589L36.5525 0.451896C36.5792 0.456315 36.4498 0.460734 36.4133 0.46589ZM65.1141 12.3854C65.1052 12.3515 65.0944 12.3169 65.0816 12.2808C65.1072 12.3147 65.121 12.3493 65.1141 12.3854ZM68.2436 25.993C68.2525 26.0188 68.2624 26.0453 68.2703 26.0711C68.2515 26.046 68.2446 26.0203 68.2436 25.993ZM68.2723 27.983C68.2723 27.9816 68.2723 27.9816 68.2723 27.983V27.983Z" fill="#06D001"/>
<path d="M47.8543 47.4826C49.5623 47.1416 60.3122 42.646 56.928 40.9344C50.3826 35.3679 51.591 39.6337 44.9321 41.3542C40.2576 40.5949 50.3609 38.4156 50.59 36.6296C46.8622 31.3577 42.3258 45.6959 23.3947 35.1941C22.2238 34.3641 22.1873 33.0671 20.5347 34.3118C15.9529 35.4151 23.8843 40.234 26.3524 39.6831C26.8934 39.4371 27.4255 37.6253 27.9675 38.7271C26.5834 41.6238 31.8158 40.9668 34.4912 41.5943C35.9217 41.8226 39.7472 40.9506 38.5823 42.7727C32.0813 43.9872 26.2794 39.39 25.6584 44.2074C27.4601 45.4676 42.8698 47.3803 40.7532 43.8038C40.5538 43.0253 40.7364 41.4905 41.8381 42.8464C42.5124 43.373 42.4176 45.0382 43.6132 44.6861C45.6992 44.5322 47.417 43.7103 49.3342 43.141C61.4999 37.5016 48.651 46.0207 43.9084 46.2298C43.6922 48.524 45.6242 48.5093 47.8543 47.4819V47.4826ZM22.8102 38.6947C22.8349 38.7065 22.8596 38.7175 22.8833 38.7271C22.8359 38.7396 22.8152 38.7249 22.8102 38.6947ZM28.4019 40.6398H28.5233C28.4838 40.6435 28.4424 40.6413 28.4019 40.6398ZM26.8549 42.1511C26.8549 42.1511 26.85 42.1489 26.847 42.1474C26.852 42.1482 26.8668 42.1474 26.8549 42.1511ZM40.5478 42.4148C40.5488 42.3794 40.5518 42.3507 40.5557 42.3323C40.5538 42.361 40.5508 42.3883 40.5478 42.4148ZM47.0833 43.8208C47.1445 43.7972 47.2057 43.7729 47.2659 43.7478C47.2146 43.7913 47.1495 43.8171 47.0833 43.8208ZM50.8131 46.1577L50.8052 46.1525C50.8101 46.1547 50.8141 46.1569 50.8131 46.1577ZM44.785 47.929C44.7811 47.9245 44.7919 47.9267 44.7969 47.9245L44.785 47.929Z" fill="#06D001"/>
<path d="M43.2193 51.0142C43.3664 50.1966 42.161 50.6783 41.543 50.7932C32.9491 51.7993 23.0797 50.3697 16.097 46.5259C15.0387 45.9279 13.9113 45.1163 12.8905 44.4667C12.9379 44.4814 12.2607 45.036 12.3495 44.6125C12.153 42.5827 8.13698 40.1655 6.92564 38.2845C0.64684 30.9062 5.09334 20.9075 0.0653611 24.9626C-1.00085 37.0243 11.0937 50.7498 27.8333 52.3391C31.2007 52.9556 44.0821 55.062 43.2193 51.0142ZM2.86515 25.1505L2.88194 25.1527C2.85923 25.255 2.86022 25.244 2.86515 25.1505ZM6.92366 39.021C6.9671 39.0018 7.00462 38.9864 7.03621 38.9746C6.98882 38.9959 6.94834 39.0195 6.92366 39.021ZM8.30481 43.0283V42.9944C8.30876 43.0047 8.30679 43.0165 8.30481 43.0283ZM9.93966 43.7397C9.95349 43.7368 9.96731 43.7331 9.98113 43.7294C9.97027 43.7361 9.95546 43.7383 9.93966 43.7397ZM24.3809 51.8228C24.3552 51.8258 24.373 51.8177 24.3809 51.8081C24.3829 51.8162 24.3829 51.8214 24.3809 51.8228ZM25.0127 50.0685C25.0275 50.0493 25.0414 50.0442 25.0512 50.0685C25.0384 50.0685 25.0256 50.0685 25.0127 50.0685ZM25.7127 51.1644C25.7117 51.16 25.7127 51.1622 25.7127 51.1644V51.1644ZM27.1244 50.3373C27.1531 50.3373 27.1718 50.3395 27.1837 50.3439C27.1639 50.3417 27.1442 50.3395 27.1244 50.3373ZM30.6686 52.9114C30.7101 52.9165 30.7495 52.9217 30.791 52.9276C30.7476 52.9276 30.7071 52.921 30.6686 52.9114ZM33.3558 51.9709C33.3558 51.9709 33.3637 51.9753 33.3667 51.9782C33.3628 51.976 33.3598 51.9738 33.3558 51.9709Z" fill="#06D001"/>
<path d="M24.0847 40.7135C20.6462 39.9681 18.9284 37.5354 16.5897 35.9299C12.7997 37.1643 14.8669 38.1026 16.7861 40.1986C18.575 42.2233 14.5925 39.7089 13.9261 39.2419C4.18311 35.3208 20.1072 48.8842 22.1123 46.5996C22.9563 45.8984 23.1864 44.3444 21.5199 44.7605C21.8724 44.4306 18.7566 43.423 18.266 42.9207C16.9342 40.3319 23.4746 45.307 24.3799 42.9944C24.8538 42.2874 25.2418 41.1679 24.0847 40.7135ZM15.7959 36.413C15.789 36.3747 15.8097 36.3659 15.8591 36.3725C15.8384 36.3872 15.8177 36.4005 15.7959 36.413ZM17.6746 42.1113C17.7477 42.1275 17.8247 42.1393 17.9047 42.1482C17.8227 42.1452 17.7447 42.1349 17.6746 42.1113ZM22.8793 40.5168C22.8833 40.5094 22.8902 40.5013 22.9011 40.4925C22.8922 40.5013 22.8862 40.5087 22.8793 40.5168Z" fill="#06D001"/>
<path d="M65.508 30.9268C66.3018 29.7315 63.5622 29.3721 62.5493 29.5289C61.6065 32.2312 61.5354 34.4068 58.6033 36.592C55.7848 37.2298 64.7962 28.8072 58.2084 28.9405C57.782 28.8278 56.2804 28.8145 56.7305 29.3817C56.9388 33.5237 50.6946 36.4174 54.7571 37.6224C60.8364 43.8922 63.7666 34.6786 65.508 30.9268ZM58.6043 38.3589C58.6073 38.3684 58.6083 38.3751 58.6092 38.3832C58.6063 38.3736 58.6033 38.3647 58.6043 38.3589ZM59.3941 36.3718C59.3941 36.3556 59.3941 36.3394 59.3941 36.3239C59.4079 36.3261 59.4089 36.3408 59.3941 36.3718ZM62.0211 37.1068C62.0369 37.0913 62.0429 37.0847 62.0567 37.1053L62.0211 37.1068ZM63.5355 31.4424C63.5622 31.4637 63.5849 31.4836 63.6046 31.5028C63.5849 31.4932 63.5622 31.4748 63.5355 31.4424Z" fill="#06D001"/>
<path d="M42.0938 47.5563C41.4659 45.9861 37.8379 47.3788 35.9207 47.2609C32.2413 47.2175 28.706 46.4722 25.1737 45.5994C21.6848 48.3001 27.3614 48.5808 30.1019 48.7332C32.6835 49.5463 42.9883 50.4279 42.0938 47.5563ZM24.0857 47.7021C24.0917 47.6925 24.0956 47.6999 24.1025 47.7051L24.0857 47.7021ZM25.84 47.5953C25.84 47.585 25.8499 47.5916 25.8588 47.5938L25.84 47.5953ZM30.1769 46.7542C30.249 46.752 30.3231 46.7513 30.3971 46.7469C30.326 46.7528 30.252 46.7542 30.1769 46.7542ZM32.1721 47.1144C32.2541 47.135 32.3133 47.1527 32.3568 47.1681C32.2985 47.1549 32.2373 47.1372 32.1721 47.1144ZM34.3194 49.1722C34.351 49.1722 34.3914 49.1722 34.4408 49.1744C34.4003 49.1766 34.3589 49.1744 34.3194 49.1722ZM37.4993 48.7347C37.4993 48.7347 37.4993 48.7347 37.4983 48.7347C37.4983 48.7347 37.5002 48.7347 37.4993 48.7347ZM38.6405 49.1074C38.6731 49.1118 38.7056 49.1155 38.7392 49.1191C38.7017 49.1184 38.6681 49.1125 38.6405 49.1074Z" fill="#06D001"/>
<path d="M69.6505 30.7803C66.6976 29.6534 66.9711 34.9584 65.507 36.3718C60.3902 47.269 44.6883 48.9556 46.1247 50.9398C46.3636 52.8134 50.9799 50.6371 52.1932 50.0582C61.1415 47.1873 70.9299 37.9597 69.6505 30.7803ZM52.289 48.8849C52.289 48.8849 52.288 48.8864 52.287 48.8879C52.287 48.8871 52.289 48.8849 52.289 48.8849ZM56.5331 46.8198C56.5548 46.8124 56.5825 46.8095 56.6131 46.8095C56.5874 46.8132 56.5617 46.8168 56.5331 46.8198ZM57.0978 46.0288C57.003 46.0023 57.0593 46.0089 57.1245 46.0111L57.0978 46.0288ZM60.5235 42.6232C60.5423 42.5915 60.561 42.5665 60.5768 42.5525C60.56 42.5768 60.5413 42.5996 60.5235 42.6232Z" fill="#06D001"/>
<path d="M26.3534 28.1311C29.1236 36.4918 47.0813 34.2772 44.5994 25.4082C42.0001 16.7367 23.2782 19.9323 26.3534 28.1311ZM39.4461 31.3776C39.452 31.3746 39.4599 31.3717 39.4718 31.3687C39.4708 31.3717 39.4599 31.3746 39.4461 31.3776ZM41.541 26.5447C41.541 26.5233 41.5361 26.5064 41.5726 26.5122C41.5607 26.5218 41.5499 26.5321 41.541 26.5447ZM31.4702 22.5086C31.4673 22.5145 31.4702 22.5234 31.4653 22.5263L31.4702 22.5086ZM30.4939 23.1302C30.4939 23.1302 30.4948 23.1317 30.4939 23.1324V23.1302ZM29.5096 26.8805C33.0528 15.9545 50.3017 28.6002 36.1171 31.0749C36.1142 31.0572 35.7558 31.3835 35.822 31.0749C35.7489 31.0336 34.7755 31.0594 34.5938 31.0749C34.6728 30.6249 33.4082 30.9916 32.961 30.5593C31.1918 29.8096 29.5125 28.5008 29.5086 26.8805H29.5096ZM29.4721 26.5579C29.4484 26.6205 29.4276 26.6588 29.4109 26.6595C29.4326 26.6279 29.4523 26.5933 29.4721 26.5579ZM26.769 28.447C26.8095 28.5082 26.8559 28.5929 26.769 28.4875C26.7641 28.4802 26.7651 28.4662 26.769 28.447Z" fill="#06D001"/>
<path d="M31.7782 27.7636C32.1741 29.0443 35.0193 29.9053 36.2168 29.2351C46.0161 27.631 30.5965 19.24 31.7782 27.7636ZM38.9841 26.5226C38.9762 26.5041 38.9781 26.4187 38.9781 26.3657C38.9762 26.4224 38.9791 26.4739 38.9841 26.5226ZM38.9278 25.9488C38.9199 25.9304 38.91 25.912 38.9011 25.8928C38.9248 25.9083 38.9367 25.9267 38.9278 25.9488ZM37.439 27.7407C37.3768 27.7407 37.3008 27.7275 37.2021 27.6899C37.2771 27.7142 37.3561 27.7304 37.439 27.7407ZM31.6795 26.9173C31.6825 26.9114 31.6835 26.9136 31.6835 26.9181C31.6825 26.9181 31.6805 26.9181 31.6795 26.9173Z" fill="#06D001"/>
</svg>
