<svg width="66" height="59" viewBox="0 0 66 59" fill="none" xmlns="http://www.w3.org/2000/svg">
<ellipse cx="34" cy="30" rx="27" ry="24" fill="#F1E61C"/>
<ellipse cx="33.5" cy="29.5" rx="31.5" ry="28.5" stroke="white" stroke-width="2"/>
<path d="M25.0129 19.9034C23.9754 18.8594 22.7552 17.7758 21.5788 16.8213C20.8441 16.2163 17.3849 13.5341 17.6413 14.5307L17.6427 14.5342C17.9721 15.2186 18.3437 15.6084 19.3254 16.6909C20.1095 17.5186 21.2165 18.5573 22.3507 19.5349C23.7491 20.7459 25.2936 21.9451 26.8217 22.9417C29.3006 24.5722 25.4719 20.3051 25.0129 19.9034Z" fill="#F3FF90"/>
<path d="M34.2334 18.9927C34.1969 19.4519 33.8883 24.049 33.6298 23.3772C33.4594 22.7165 33.4315 22.162 33.3355 21.4036L33.3341 21.3905C33.0154 18.3872 32.9753 14.8826 33.2825 11.7928C33.4501 10.2446 33.7923 7.94812 34.0501 10.2185C34.3845 13.0275 34.4024 16.1067 34.2334 18.9927Z" fill="#F3FF90"/>
<path d="M55.2142 29.9313C53.8194 30.0456 52.3164 30.096 50.8865 30.1067C48.3409 30.1298 45.655 29.9965 43.1231 29.7441C42.3548 29.6659 41.5707 29.5716 40.9019 29.4561C40.6191 29.401 39.6782 29.2458 39.9639 29.0823C40.095 29.0153 40.4401 28.9596 40.9879 28.9152C43.3186 28.7564 46.4348 28.7848 49.1014 28.8144C51.4056 28.8642 53.152 28.9264 55.1419 29.0751C55.7992 29.1391 56.947 29.2073 57.3867 29.4259L57.3888 29.4271C57.7755 29.7233 55.5837 29.8969 55.2142 29.9313Z" fill="#F3FF90"/>
<path d="M27.4668 35.128C26.4028 37.1401 24.9764 39.221 23.4763 41.1454L23.4634 41.1619C22.7724 42.0388 22.2683 42.6343 21.6182 43.3352C20.9229 44.08 20.519 44.3964 20.3465 44.3851C20.1266 44.3288 20.3479 43.8353 20.6221 43.2742C21.833 40.986 23.7241 38.4934 25.618 36.4629C26.4665 35.5819 28.0217 34.0722 27.4668 35.128Z" fill="#F3FF90"/>
<path d="M32.5872 18.5869C32.5794 18.8896 32.6066 20.7181 32.2564 20.3726C32.0989 20.189 32.0316 20.0106 31.9142 19.7713C31.7287 19.3672 31.5611 18.9667 31.3757 18.4909C31.0384 17.6448 30.6532 16.4148 30.4205 15.4212L30.4155 15.4005C30.1248 14.1793 29.9071 12.9227 29.8333 11.698C29.761 10.407 29.8498 9.76588 30.0073 9.59465C30.3625 9.25575 31.0735 11.1221 31.2003 11.432C32.0037 13.5543 32.5743 16.355 32.5872 18.5869Z" fill="#F3FF90"/>
<path d="M31.9006 22.3711C31.6865 21.2685 31.448 20.1416 31.0492 18.8582C30.5687 17.3006 29.9293 15.6262 29.2512 14.1112C28.7901 13.0696 27.7983 11.0812 27.247 10.4004C26.9405 10.0224 26.894 10.3655 26.8897 10.6736V10.6789C26.9219 12.8279 27.8972 15.8863 28.9025 18.229C29.6558 19.9934 30.5515 21.6874 31.637 23.2717C32.3502 24.2505 31.9457 22.7302 31.9006 22.3711Z" fill="#F3FF90"/>
<path d="M57.1934 25.8141L57.1891 25.8129C56.8318 25.6606 54.9371 25.7536 54.0822 25.8289C50.8356 26.0866 45.3772 26.8871 42.4393 27.9251C42.1271 28.1396 43.532 28.158 43.7346 28.1692C45.5412 28.2231 47.6478 28.1046 49.5883 27.8576C50.8535 27.7017 52.1295 27.5021 53.3575 27.255C53.9339 27.1495 58.1779 26.2182 57.1934 25.8141Z" fill="#F3FF90"/>
<path d="M60.6719 24.8471L60.6697 24.8359C59.3887 17.5719 53.5515 11.0788 45.4645 8.07135C26.7099 1.01242 5.7599 12.9073 7.05737 29.955C8.73291 49.9332 38.1322 58.3459 54.2396 43.3465C59.5384 38.3601 61.9271 31.3971 60.6719 24.8471ZM54.5905 39.9414L54.5826 39.9515C48.3036 47.9466 35.7013 51.1365 25 47.7451C12.9089 43.9964 6.56402 33.1284 10.0304 22.9079C13.8977 11.0948 29.6965 4.88613 43.3372 9.31855C58.1528 14.0217 63.1365 29.1759 54.5905 39.9414Z" fill="#F3FF90"/>
<path d="M35.6727 32.2325L35.6598 32.2367C32.4727 33.3097 29.1424 31.1672 29.3214 28.3778C29.504 25.285 33.7179 23.6325 36.7174 25.4918C39.6159 27.2959 39.0195 31.0944 35.6727 32.2325Z" fill="#F3FF90"/>
<path d="M27.6816 29.1498C26.2424 29.3797 24.6728 29.4063 22.7381 29.4911C19.4829 29.6232 14.921 29.5936 11.9888 29.3222L11.9766 29.321C9.46046 29.084 10.4121 28.8364 12.1134 28.7161C13.7245 28.5982 15.4616 28.5603 17.11 28.5354C19.5073 28.501 21.9676 28.5413 24.3506 28.6456C25.0602 28.6776 25.7927 28.7196 26.4371 28.7736C26.9706 28.8293 27.5484 28.8571 27.8986 28.9981C27.9895 29.0509 27.9129 29.1006 27.6816 29.1498Z" fill="#F3FF90"/>
<path d="M24.0749 30.8728C22.8483 31.2727 21.6848 31.5861 20.3164 31.8824L20.2935 31.8871C18.3559 32.2983 16.2307 32.6283 14.2443 32.7835C13.882 32.8108 13.5469 32.8309 13.2032 32.8434C11.91 32.8884 11.3265 32.7966 11.1496 32.6633C10.7687 32.3214 12.8989 31.8207 13.3407 31.7005C16.6567 30.8947 20.8341 30.3134 24.231 30.429C25.0767 30.4651 24.8626 30.6008 24.0749 30.8728Z" fill="#F3FF90"/>
<path d="M27.4203 31.1708C26.9219 31.4528 26.4758 31.6892 25.8815 31.9926C22.4681 33.7025 17.9284 35.4865 14.0109 36.1975L13.9995 36.1992C11.5792 36.5921 12.2222 36.0944 14.1104 35.2394C15.3764 34.6446 16.7254 34.0461 18.0845 33.5076C20.6322 32.4814 23.5594 31.4706 26.1794 30.8579C26.8224 30.711 27.4661 30.5427 28.0561 30.5048C28.6583 30.4971 27.6888 31.009 27.4203 31.1708Z" fill="#F3FF90"/>
<path d="M24.738 34.0367C22.3041 35.9984 19.1213 37.8754 16.1154 39.0622L16.1032 39.0669C11.7897 40.6174 17.3047 37.0827 18.2241 36.5743C20.2498 35.3792 22.5762 34.1729 24.796 33.4542C25.8099 33.1384 25.1382 33.7037 24.738 34.0367Z" fill="#F3FF90"/>
<path d="M28.9068 32.207C28.6282 32.5803 28.2079 33.0425 27.8542 33.4163C25.9216 35.4569 22.9894 38.0757 20.6393 39.9195L20.625 39.9302C19.4221 40.9167 15.2268 43.9899 18.0415 40.8953C20.751 38.0152 23.9074 35.2767 27.1782 32.8345C27.5527 32.5542 29.9028 30.8425 28.9068 32.207Z" fill="#F3FF90"/>
<path d="M30.2286 33.8174C29.1524 36.5725 27.547 39.5059 25.918 42.0412L25.9073 42.0578C25.222 43.1195 24.6671 43.92 24.0541 44.7975C23.636 45.3663 23.462 45.6412 23.2056 45.8065C22.723 46.0281 23.4613 43.8933 23.6524 43.4241C24.1809 42.0347 24.8883 40.6885 25.6524 39.3418C26.7415 37.4358 28.084 35.3763 29.4266 33.7878C30.1813 32.9091 30.9124 32.1152 30.2286 33.8174Z" fill="#F3FF90"/>
<path d="M30.0868 36.3663C30.0496 36.7005 29.9887 37.0992 29.9207 37.4861C29.4896 39.9586 28.6196 42.5792 27.6215 44.884C27.416 45.3467 27.131 45.9309 26.9226 46.2882C26.7493 46.5743 26.6362 46.7752 26.4257 46.9565C25.8951 47.2865 26.1257 45.704 26.3133 44.8709C26.7952 42.6562 27.6845 40.0155 28.6583 38.0117C29.0364 37.2254 29.8441 35.7158 30.0367 35.759H30.0388C30.1677 35.7981 30.099 36.1649 30.0868 36.3663Z" fill="#F3FF90"/>
<path d="M32.1555 36.5861C32.1283 39.2233 31.6091 42.5253 30.9117 45.2033C30.6811 46.0814 30.2665 47.8595 29.9751 47.5792C29.8591 47.4815 29.8255 47.3618 29.7682 47.1923C29.7223 47.0448 29.6787 46.8546 29.6386 46.6176C29.5892 46.3225 29.5448 45.9534 29.5161 45.5037C29.3529 42.1467 30.0789 38.2996 31.2332 34.9971C31.3857 34.5746 31.5447 34.148 31.7187 33.8245C31.8046 33.6741 31.869 33.6071 31.9263 33.6225H31.927C32.1096 33.7914 32.0975 34.2594 32.1462 35.2104C32.1583 35.6601 32.1612 36.1246 32.1555 36.5861Z" fill="#F3FF90"/>
<path d="M34.0687 47.3997C33.526 45.3123 33.3684 42.8926 33.3183 40.5902C33.2897 38.9952 33.3326 37.4139 33.4945 35.8509C33.6477 34.4384 33.7859 33.1076 34.0394 34.279C34.6294 37.0323 34.8621 40.1488 34.855 43.0407V43.0603C34.8635 43.5657 34.7361 49.6891 34.0687 47.3997Z" fill="#F3FF90"/>
<path d="M39.4756 46.4807C39.4498 46.8297 39.4376 47.0809 39.3159 47.3387C38.955 47.892 38.2311 45.8551 37.7707 44.7726C36.5584 41.6804 35.6362 38.161 35.4815 34.9728C35.4822 34.7554 35.3834 33.5639 35.6705 33.6972C35.7529 33.6195 36.4904 34.9983 36.8076 35.7193C38.0091 38.2019 39.0008 41.505 39.3417 44.0237L39.3445 44.0409C39.4613 44.9705 39.5092 45.6969 39.4756 46.4807Z" fill="#F3FF90"/>
<path d="M43.5699 46.0986C43.5255 46.8113 42.7923 46.0778 42.1801 45.2963C41.4289 44.3353 40.7752 43.2487 40.2088 42.181C39.5049 40.8805 38.8848 39.3946 38.5512 38.1166C38.5154 37.9329 38.1838 36.9659 38.6135 37.2634C38.8848 37.3925 40.2926 39.154 40.7788 39.9171C41.6223 41.1602 42.5073 42.8322 42.9928 44.0243L42.9992 44.0397C43.2907 44.8034 43.5427 45.3971 43.5699 46.0986Z" fill="#F3FF90"/>
<path d="M44.2258 42.37C42.3104 40.5588 40.5475 38.5633 38.9994 36.5103C38.2805 35.5321 37.4291 34.436 36.9895 33.4252C36.4252 31.7194 42.1765 38.0656 42.5359 38.4466C43.6859 39.7151 44.7378 40.9427 45.6908 42.1147C46.3303 42.8855 47.2933 44.1919 47.3428 44.4781L47.3442 44.4823C47.6614 45.5641 44.4557 42.6124 44.2258 42.37Z" fill="#F3FF90"/>
<path d="M47.2883 40.7454C46.0088 39.8999 44.7099 38.9478 43.5534 37.9933C43.1102 37.6716 39.868 34.708 40.5339 34.7642C40.9499 34.8656 41.2729 35.0812 41.6796 35.2844C42.624 35.794 43.6229 36.3823 44.5573 37.021C46.4319 38.2978 48.946 40.2335 50.2349 41.7153L50.2399 41.7213C51.7436 43.5295 48.2056 41.3652 47.2883 40.7454Z" fill="#F3FF90"/>
<path d="M47.6886 37.6319C45.3973 36.5577 43.1389 35.2844 41.0502 33.9567C40.41 33.5484 39.7692 33.123 39.245 32.7219C38.9751 32.514 38.7839 32.3445 38.6772 32.2201C38.597 32.1265 38.5648 32.0571 38.5798 32.0139C38.6758 31.867 39.1777 32.0417 39.666 32.2088C41.4955 32.8932 43.7038 33.9827 45.7438 34.9977C47.3334 35.7964 49.2374 36.8344 50.5606 37.6153C51.3569 38.0644 53.2494 39.2689 53.3031 39.5599L53.3045 39.5622C53.5215 40.3094 48.1325 37.8641 47.6886 37.6319Z" fill="#F3FF90"/>
<path d="M55.2737 36.3089H55.2715C54.8304 36.4647 52.9551 36.0458 52.1982 35.8657C48.6051 35.0018 44.3998 33.4163 41.2549 31.6199C40.8848 31.4072 40.5869 31.2259 40.2775 31.0203C40.1014 30.8941 39.6997 30.6393 39.7677 30.5404C39.8236 30.4918 40.0778 30.5362 40.5554 30.6553C44.0497 31.5559 47.8877 32.8215 51.2502 34.2079C51.9884 34.532 55.8007 36.1169 55.2737 36.3089Z" fill="#F3FF90"/>
<path d="M54.5691 33.1657C53.0145 33.0739 51.3096 32.8238 49.73 32.5382C47.7566 32.1863 45.6421 31.6738 43.948 31.0552C43.8041 30.9942 42.5123 30.5658 42.793 30.4379C42.836 30.3318 44.9741 30.4805 45.7316 30.5576C48.2163 30.7768 51.18 31.268 53.4563 31.7846L53.4771 31.7893C54.655 32.0767 55.598 32.2764 56.5461 32.7024C57.5829 33.2374 55.6782 33.2404 54.5691 33.1657Z" fill="#F3FF90"/>
<path d="M55.1992 23.5614C51.0647 25.2388 46.4785 26.4469 41.9638 27.1975C41.6545 27.2402 39.4892 27.5898 40.0004 27.1472C40.1572 27.018 40.5411 26.8337 41.1268 26.6039C41.84 26.3236 42.8567 25.9746 44.0776 25.5889C47.0334 24.6409 51.5144 23.418 54.413 22.8652L54.4273 22.8629C56.6356 22.428 57.6194 22.524 55.1992 23.5614Z" fill="#F3FF90"/>
<path d="M53.722 20.6606C52.8584 21.2158 51.8187 21.7822 50.7855 22.3012C49.0885 23.155 47.0033 24.081 45.2426 24.6712C44.7192 24.8353 42.5696 25.5883 42.5274 25.2992C42.5589 25.064 43.8735 24.2564 44.4743 23.8766C47.0477 22.3077 50.6716 20.631 53.6332 19.7541L53.6432 19.7511C55.3503 19.2706 55.1791 19.7333 53.722 20.6606Z" fill="#F3FF90"/>
<path d="M52.3085 17.9648C51.4142 18.6852 50.3616 19.4217 49.3613 20.0989C47.5819 21.3046 45.6758 22.4618 43.7733 23.5401C42.6491 24.1705 41.4125 24.8673 40.2704 25.3679C39.8673 25.5439 39.2629 25.7489 39.6589 25.2885C40.6105 24.3003 42.1264 23.267 43.5749 22.2378C45.9407 20.5818 49.1629 18.6029 51.5817 17.4428L51.5925 17.4374C53.5 16.5321 53.8609 16.717 52.3085 17.9648Z" fill="#F3FF90"/>
<path d="M50.0372 15.5569C49.2603 16.3917 48.3166 17.2579 47.4194 18.0596C45.7696 19.5331 43.9881 20.9776 42.2059 22.3444C41.2442 23.078 40.1995 23.876 39.2071 24.5041C36.668 26.0511 40.3663 22.3575 41.0287 21.7573C43.151 19.6972 46.3109 17.06 48.7376 15.4674L48.7483 15.4603C50.0773 14.5674 51.7171 13.7213 50.0372 15.5569Z" fill="#F3FF90"/>
<path d="M46.636 14.5491C44.7564 17.1371 42.3978 19.8815 40.0348 22.1217C39.3646 22.7426 38.9443 23.1491 38.3177 23.6361C37.7234 24.0686 37.9082 23.6497 38.4917 22.6312C39.994 20.0201 42.4121 17.1139 44.5996 14.9644L44.6132 14.9508C46.0166 13.5649 49.6885 10.3927 46.636 14.5491Z" fill="#F3FF90"/>
<path d="M43.6988 12.8545C42.6505 15.1795 41.0824 17.8516 39.255 19.8163C38.4072 20.7329 38.1115 21.0232 38.7688 19.3796C39.0037 18.7806 39.2336 18.2213 39.5314 17.5956L39.5393 17.5785C40.2475 16.0984 41.1848 14.539 42.1758 13.1413C42.5839 12.5476 43.8127 10.99 44.2015 10.91C44.6239 10.8389 43.8263 12.5464 43.6988 12.8545Z" fill="#F3FF90"/>
<path d="M41.0115 10.8857C40.806 13.5312 39.709 16.3876 38.5762 18.9524C38.0012 20.2589 36.567 22.9488 35.818 23.7024C35.3741 24.0959 35.7973 22.4315 35.8316 22.175L35.8338 22.1637C36.2949 19.7784 37.1807 17.143 38.2304 14.7783C38.7316 13.6034 40.047 11.0741 40.5812 10.5059C40.97 10.0698 41.0237 10.5705 41.0115 10.8857Z" fill="#F3FF90"/>
<path d="M37.5573 11.509C37.4492 13.6834 37.0174 16.2228 36.4503 18.402C36.2541 19.1438 35.4521 21.8586 35.1048 21.8035H35.1034C34.8965 21.8651 34.7969 20.6736 34.8177 19.8447C34.8177 17.5476 35.2846 14.7884 35.9519 12.4534C36.5427 10.4099 37.7578 7.60862 37.5573 11.509Z" fill="#F3FF90"/>
<path d="M28.5967 20.2559C27.585 19.1148 26.6763 17.819 25.913 16.5037C25.1826 15.2452 24.6341 14.1391 24.2425 13.0649C23.9167 12.108 23.7942 11.6731 23.863 11.2607L23.8644 11.2578C24.1952 10.4277 26.1385 13.5602 26.4601 14.0715C27.1353 15.1706 27.7998 16.3982 28.3239 17.5394C28.7385 18.437 29.0077 19.18 29.2541 19.9638C29.5806 21.0167 29.5376 21.3094 28.5967 20.2559Z" fill="#F3FF90"/>
<path d="M30.5709 24.4401C30.4942 24.4662 30.3167 24.3743 30.0481 24.1687C27.9702 22.4179 25.6366 19.7114 23.8329 17.4754C22.6822 16.0042 21.3095 14.2179 20.693 12.9618L20.6909 12.9564C19.8288 10.9438 24.4515 16.0854 24.6377 16.317C26.4643 18.3665 28.1936 20.5385 29.7159 22.7308C30.0374 23.2077 30.3675 23.706 30.5515 24.1267C30.6296 24.3127 30.6353 24.4188 30.5709 24.4401Z" fill="#F3FF90"/>
<path d="M28.7564 25.6719C28.6254 25.6908 28.3253 25.5966 27.8735 25.3958C27.3286 25.1534 26.5603 24.7547 25.6352 24.2309C23.2593 22.9103 19.9827 20.7619 17.879 19.0911C17.0892 18.4992 15.4101 17.0665 15.3062 16.7164L15.3048 16.7134C14.959 15.772 19.8524 18.8867 20.4181 19.241C21.5594 19.9644 22.7431 20.7471 23.8451 21.5221C24.7208 22.1436 29.3944 25.4248 28.7564 25.6719Z" fill="#F3FF90"/>
<path d="M23.0173 24.3542C20.2956 23.5543 17.0204 21.9712 14.8702 20.5759C14.3661 20.2672 13.1896 19.4051 13.2555 19.1776V19.1758C13.3343 18.8168 15.0585 19.4667 15.6449 19.6735C17.5897 20.4029 19.5581 21.3597 21.3138 22.3557C22.3843 22.9861 23.2085 23.5117 24.0205 24.1889C24.8346 24.9099 23.4341 24.4733 23.0173 24.3542Z" fill="#F3FF90"/>
<path d="M28.0984 27.159C27.9788 27.2017 27.6494 27.1827 27.1288 27.1039C24.9907 26.7514 22.4574 26.1002 20.0013 25.4047C18.2814 24.9088 16.4068 24.2736 15.037 23.7605C13.3228 23.0839 12.4614 22.7971 11.6945 22.2271L11.6924 22.2248C10.9477 21.2833 20.7761 24.2197 21.6203 24.5325C23.3918 25.1037 26.0011 26.0108 27.262 26.5713C27.5184 26.6904 28.3626 27.0506 28.0984 27.159Z" fill="#F3FF90"/>
<path d="M25.6423 27.8872C23.8472 28.033 20.4052 27.7361 18.3394 27.4677C15.8304 27.1205 12.3225 26.6299 10.7343 25.7868L10.7314 25.7845C9.91228 25.0746 15.2296 25.6103 15.8597 25.6802C17.5926 25.8656 19.4686 26.134 21.1542 26.4546C21.568 26.5085 26.9892 27.694 25.6423 27.8872Z" fill="#F3FF90"/>
</svg>
