<svg width="100" height="100" viewBox="0 0 100 100" fill="none" xmlns="http://www.w3.org/2000/svg">
<path d="M65.914 50.4941C63.5358 50.9001 60.9605 49.9566 58.5452 49.7965C51.142 49.0874 43.4134 49.3876 36.1217 50.6542C30.2117 51.3948 31.5365 45.6677 34.2802 42.6998C35.7876 41.0557 37.8119 39.9778 39.8846 39.2058C42.5712 38.0964 45.4719 38.1307 46.7139 35.6917C47.559 33.7446 46.928 31.2027 47.9986 29.3327C48.6239 28.2148 49.7545 27.5943 50.5482 27.6601C52.1442 27.9031 51.8786 29.9446 51.773 31.2427C50.6795 37.556 54.8079 37.5302 59.6301 38.9341C62.4937 39.8205 65.2688 41.4217 66.9276 43.9864C68.3551 46.0451 69.1374 49.8193 65.9625 50.4884L65.9197 50.497L65.914 50.4941Z" fill="#0A0400"/>
<path d="M52.2498 98.0751C50.4939 100.42 46.6939 100.142 45.215 97.6262C43.0737 94.3666 45.8602 89.7975 49.7488 90.3865C53.2291 90.884 54.3568 95.5075 52.2812 98.0322L52.2469 98.0751H52.2498Z" fill="#0A0400"/>
<path d="M47.3848 23.4427C45.963 25.2125 43.7618 25.6729 41.5491 26.6422C39.0652 27.6972 36.7212 29.0868 34.7141 30.8996C33.1125 32.2921 31.7192 34.0362 30.1918 34.8025C27.0484 36.4094 14.0265 28.7895 16.2021 24.8551C17.2242 22.9995 18.763 21.3726 20.2334 19.8429C24.573 15.4139 29.892 12.0542 35.7791 10.0813C38.4714 9.20926 44.9266 6.8132 47.3106 8.50588C49.3519 9.99556 48.9437 21.567 47.4105 23.4055L47.382 23.4427H47.3848Z" fill="#0A0400"/>
<path d="M99.7148 55.5121C97.5564 76.7936 82.065 94.8298 61.2003 99.7163C59.2332 100.217 56.8921 100.28 56.5438 97.9922C56.2012 96.5225 56.401 94.2322 55.6216 92.4223C54.7108 90.1921 52.6409 88.5995 50.2598 88.1163C47.1621 87.4215 43.7104 88.8225 42.2257 91.6789C39.9845 96.3281 42.5113 101.177 34.9854 98.7241C21.3269 94.2951 10.235 83.7645 4.43644 70.6834C-3.08373 54.0997 -0.882495 34.6824 9.81819 20.0058C16.0079 11.2222 25.0984 4.53437 35.4707 1.6408C38.7169 0.817332 42.6112 -0.549394 45.9145 0.234043C47.0394 0.51711 47.9958 1.59791 47.1279 2.59865C46.2228 3.84529 43.7218 4.46861 42.063 4.76025C40.1273 5.11194 38.1402 5.54083 36.1788 6.14413C32.0161 7.41936 28.2618 9.19496 24.6758 11.4852C13.8352 18.1016 7.21725 30.1533 4.93608 42.4339C3.66273 50.2911 4.66485 58.4028 6.98314 65.957C9.70114 74.1831 15.1885 81.2626 21.7865 86.781C24.9613 89.2257 30.1889 93.2658 34.2859 93.0256C37.278 92.2794 32.4501 89.2914 31.388 88.7682C29.2439 87.5559 27.1683 86.3264 25.2954 84.7967C21.3954 81.4914 31.5508 70.6033 34.6057 71.5497C36.7412 72.4847 38.223 74.469 40.3471 75.933C43.8874 78.3262 48.0814 81.0968 52.4125 79.8902C56.6066 78.6121 60.5922 75.5841 63.7413 72.4733C65.4915 70.712 67.5585 68.6018 70.2365 69.1994C72.4692 69.6769 79.9294 75.4412 80.3805 77.4913C80.7459 79.6357 78.9044 81.2798 77.4198 82.5893C74.3135 85.217 70.9817 87.4186 67.3073 89.137C65.9454 89.7918 64.4951 90.418 63.2417 91.2329C61.4202 92.3708 59.7671 94.1007 62.1254 94.3666C63.4044 94.4896 65.5086 93.8262 66.9047 93.2572C69.44 92.2736 71.7212 91.0727 73.9395 89.6917C81.4255 85.2198 87.3611 78.4748 91.1269 70.5204C93.0483 66.343 94.6871 61.914 95.4437 57.3563C96.4515 49.9394 95.3323 42.2566 93.3138 35.1056C89.7993 23.8887 80.3348 13.2637 69.6827 8.39723C66.702 6.99334 63.5929 5.82104 60.3495 5.14339C58.3824 4.66018 53.1491 4.17982 53.4518 1.54072C55.3133 -2.26781 68.0867 2.42138 71.0188 3.98253C84.5688 11.002 95.8634 23.4884 98.5871 38.8655C99.6121 44.3524 100.451 49.8708 99.7291 55.4549L99.7234 55.5093L99.7148 55.5121Z" fill="#0A0400"/>
<path d="M90.9527 62.5945C90.0134 65.6825 88.0634 72.1845 85.3254 73.8714C82.3419 75.4783 79.5411 72.5533 76.8945 70.9436C72.4663 68.0242 69.8625 66.6461 72.2465 61.0334C75.1015 54.5714 75.0758 47.1345 72.1608 40.6668C71.6955 39.5746 71.1901 38.4166 70.9303 37.3044C69.9082 33.6445 72.8232 31.0654 75.2443 28.7352C79.701 24.2461 82.4304 21.9273 86.299 28.4378C88.2005 31.4915 89.6851 34.8054 90.7157 38.2279C91.8092 41.7963 92.346 45.6591 92.5829 49.4562C92.8941 53.9853 92.1947 58.2227 90.9698 62.5345L90.9527 62.5917V62.5945Z" fill="#0A0400"/>
<path d="M29.4409 69.9743C28.2846 71.5268 26.72 72.8879 25.3553 74.2832C23.3054 76.2075 21.3897 78.9438 18.5261 78.4377C16.913 78.0603 15.5882 76.3561 14.6346 74.9551C9.00165 66.6547 6.4778 56.1783 7.47135 46.1881C7.75686 43.2373 8.34214 40.3094 9.11871 37.4302C9.7354 35.2543 10.5948 32.3064 12.9873 31.7288C15.2456 31.2942 21.8922 35.2114 23.0741 35.9433C27.9591 38.8684 27.017 42.1222 26.3517 46.88C24.7386 60.919 33.712 64.3158 29.4694 69.9314L29.438 69.9743H29.4409Z" fill="#0A0400"/>
<path d="M63.6129 54.1768C62.1768 52.1697 59.4531 52.001 56.8236 51.7207C53.369 51.4291 49.7659 51.4634 46.4227 51.6407C40.6755 52.1496 34.5 51.6435 35.5564 59.4036C36.1788 64.9563 38.4657 70.4689 43.3021 73.4969C48.3156 77.0395 51.3333 77.4569 56.3011 73.6856C60.1525 71.0236 62.8591 66.9635 64.0268 62.3944C64.7006 59.5094 65.1831 56.5329 63.6385 54.2169L63.6129 54.1797V54.1768ZM54.2797 65.1678C51.6188 68.0671 46.5968 67.2437 45.1836 63.5123C43.4734 59.3064 46.8309 54.7859 51.3876 55.9953C55.4532 56.9675 57.2004 62.0027 54.3197 65.125L54.2826 65.165L54.2797 65.1678Z" fill="#0A0400"/>
<path d="M77.5283 20.1316C77.514 22.0817 71.5042 28.6923 69.6284 30.1419C66.4022 32.6352 63.6728 29.6959 60.6094 27.9889C59.8442 27.5657 59.0534 27.1912 58.2482 26.848C54.3454 25.3126 51.4475 23.8144 51.3505 19.108C51.3162 16.4146 51.1363 13.1179 51.6331 10.6589C52.2355 7.62237 54.6595 7.62523 57.209 8.05698C62.4851 8.9748 67.5328 11.1278 71.9838 14.0957C74.1765 15.6883 77.3056 17.341 77.5283 20.0916V20.1345V20.1316Z" fill="#0A0400"/>
</svg>
