<svg width="71" height="60" viewBox="0 0 71 60" fill="none" xmlns="http://www.w3.org/2000/svg">
<ellipse cx="35.5" cy="30" rx="35.5" ry="30" fill="#0A0400"/>
<path d="M26.4038 10.0057C21.0905 10.5463 17.3775 13.5903 14.321 16.5959C15.0062 17.9113 17.8563 18.3451 19.35 19.2827C18.187 20.7623 15.4544 18.6515 13.8274 18.4733C11.3248 17.4738 12.2923 21.8649 10.1786 21.8575C10.1144 21.0878 9.7985 20.5708 10.2743 19.8321C10.4738 19.402 10.5853 19.6414 10.4748 19.0617C10.3918 18.3915 11.4798 17.8988 11.6585 17.2234C9.33253 16.1452 8.74612 15.9316 7.81121 18.1794C1.2471 26.795 14.7633 22.9821 11.8589 25.8928C0.358587 22.9762 5.82094 32.6192 8.69873 37.9721C9.34339 39.1594 10.4817 37.8852 11.3603 37.6031C10.3879 36.4645 9.5744 34.8877 8.69774 33.6305C8.60494 31.8665 6.92664 28.0205 9.63067 27.3754C10.0048 29.4479 10.1351 38.8154 14.9114 35.6175C17.1633 34.9878 13.011 31.6765 13.5302 30.0628C13.163 27.3997 14.1137 24.7011 14.8127 22.2257C17.9817 18.488 13.1008 32.2223 17.4772 34.2189C19.9305 34.7956 21.5416 32.3151 23.9742 32.5353C20.9059 36.7635 32.8 38.7764 37.0037 38.5606C37.6395 36.41 37.748 36.9683 38.8863 38.6291C41.9309 38.375 44.4849 37.0824 46.4722 35.1756C47.2373 34.4686 45.2421 33.6599 45.9786 33.042C47.0922 33.0103 47.6105 34.7168 48.2473 33.2629C50.0154 31.3333 49.502 29.0273 50.2346 26.9099C53.7343 27.1566 50.431 32.497 49.7271 34.1453C49.585 34.3699 48.7853 34.8405 49.3322 35.0283C53.1133 38.741 55.0868 31.5395 54.6593 29.5834C52.3265 29.1105 51.9445 28.679 54.5596 28.3328C56.1718 28.1781 58.4819 29.1901 59.5906 28.1126C59.7969 28.0957 59.635 28.3674 59.6873 28.4065C65.7104 27.1846 51.3472 10.5515 60.7723 19.4292C62.8169 21.286 61.8286 29.129 64.2237 28.774C69.068 29.2984 62.0972 13.3973 58.8995 13.7641C58.2855 14.0881 58.5579 14.0926 58.8995 14.4998C57.7721 13.5321 55.4778 16.8294 54.2635 17.3693C53.3572 18.3783 58.9508 22.4931 55.9398 25.8309C55.1006 23.6465 54.0117 17.862 50.6147 18.7671C48.6353 19.1928 49.5524 18.2752 50.59 17.7751C51.6187 17.289 47.7102 15.3748 46.9658 15.0883C42.7533 12.8324 36.279 12.2454 31.5275 13.6138C31.9747 18.6206 41.8836 14.0565 45.1898 18.1058C46.5058 18.9653 53.2989 23.7532 49.8673 24.4382C47.9827 20.7373 43.0594 17.6057 37.6947 17.1483C35.8486 17.2882 32.3973 16.5407 32.961 18.7671C31.3616 20.1333 33.2305 15.1494 25.8598 19.5029C18.3993 23.1103 22.0027 33.4611 19.351 29.3624C17.6401 23.3504 23.2792 17.82 30.8483 16.1931C30.0526 12.7072 25.9654 15.2945 22.9998 15.7504C21.981 15.9957 17.9659 19.1317 19.0538 16.9281C24.2664 11.4714 31.4929 15.1347 26.4038 10.0057ZM8.50128 23.9911C8.51017 23.9639 8.5388 23.9875 8.5615 23.9926L8.50128 23.9911ZM10.6041 24.0596C10.6406 24.0795 10.6604 24.1068 10.6722 24.1384C10.6475 24.109 10.6248 24.0832 10.6041 24.0596ZM10.2052 38.1305C10.1667 38.1577 10.1253 38.1798 10.0799 38.1923C10.1223 38.1725 10.1628 38.1511 10.2052 38.1305ZM8.79844 37.8977C8.78659 37.8801 8.77572 37.8587 8.76486 37.8366C8.77572 37.8565 8.78659 37.8756 8.79844 37.8977ZM8.17154 25.7632C8.02839 25.7514 8.21991 25.7632 8.27125 25.7654C8.23472 25.7654 8.20017 25.7654 8.17154 25.7632ZM12.1412 27.2288C12.1313 27.2288 12.1501 27.1905 12.1501 27.2244C12.1471 27.2258 12.1442 27.2273 12.1412 27.2288ZM14.8146 35.5439C14.7969 35.5675 14.7919 35.5873 14.7722 35.6065C14.786 35.5859 14.8008 35.566 14.8146 35.5439ZM15.3073 18.9888H15.3556C15.3388 18.991 15.3211 18.9925 15.3073 18.9888ZM15.406 28.9949C15.4297 28.9544 15.4475 28.9448 15.4603 28.9537L15.406 28.9949ZM15.8009 25.3161V25.2424C15.7959 25.2668 15.8058 25.2918 15.8009 25.3161ZM63.5356 19.0617C63.501 18.9792 63.4694 18.896 63.4378 18.8135C63.4862 18.9004 63.5227 18.9844 63.5356 19.0617ZM52.3068 34.2344C52.2939 34.2344 52.2772 34.2381 52.2673 34.23C52.2821 34.2314 52.2959 34.2329 52.3068 34.2344ZM51.7993 36.0587C51.749 36.0697 51.7075 36.0653 51.673 36.0521C51.7154 36.0558 51.7579 36.058 51.7993 36.0587ZM51.6019 23.9919C51.6019 23.9919 51.6019 23.9956 51.5999 23.9963L51.6019 23.9919ZM31.7782 13.985C31.7753 13.9747 31.7763 13.9637 31.7782 13.9526V13.985ZM35.822 15.8248C35.8555 15.8256 35.8911 15.8248 35.9256 15.8263C35.8723 15.8307 35.8348 15.8314 35.822 15.8248ZM40.457 15.5302V15.4566C40.455 15.4816 40.4639 15.5111 40.457 15.5302ZM48.0528 20.165C48.0459 20.1606 48.0419 20.1562 48.04 20.1525C48.0439 20.1569 48.0518 20.1628 48.0528 20.165ZM24.2822 32.3062C24.2901 32.3062 24.3 32.3106 24.3118 32.3158C24.3019 32.3129 24.2931 32.3106 24.2822 32.3062ZM30.8809 35.1815C30.9065 35.1815 30.9322 35.1815 30.9539 35.1911C30.9292 35.1874 30.9045 35.1837 30.8809 35.1815ZM44.946 36.2045C44.9065 36.1913 44.946 36.1684 44.9529 36.1478C44.9529 36.1655 44.9499 36.1839 44.946 36.2045ZM45.8819 33.042H45.9273C45.9115 33.0435 45.8967 33.0442 45.8819 33.042ZM46.0823 23.6273C46.0842 23.6553 46.0833 23.6796 46.0783 23.6973C46.0783 23.673 46.0803 23.6501 46.0823 23.6273ZM33.1633 17.739C33.1614 17.7449 33.1604 17.7456 33.1594 17.7382L33.1633 17.739ZM24.9723 21.9319C24.9723 21.9333 24.9723 21.9333 24.9723 21.9319V21.9319ZM24.4796 27.4129C24.296 22.5218 30.1918 20.386 35.2306 19.7246C53.2772 19.4992 46.6085 41.142 30.3961 34.881C27.3772 33.2946 23.8498 30.993 24.4796 27.4129ZM24.3572 26.7596C24.3612 26.6948 24.3661 26.63 24.374 26.5667C24.3858 26.6227 24.3582 26.6963 24.3572 26.7596ZM24.377 20.8396C24.3276 20.8698 24.2407 20.8927 24.0847 20.9015C24.1558 20.8919 24.2605 20.8698 24.377 20.8396ZM23.7994 29.0862C23.8113 29.1069 23.7975 29.0921 23.7896 29.0686C23.7925 29.0745 23.8014 29.0921 23.7994 29.0862ZM23.4085 32.3674C23.3799 32.3806 23.3453 32.388 23.2959 32.3799C23.3344 32.374 23.372 32.371 23.4085 32.3674ZM18.7567 30.683C18.7567 30.683 18.7566 30.6859 18.7586 30.6874L18.7567 30.683ZM28.5233 14.5006C28.4345 14.5197 28.3437 14.5374 28.2538 14.5566C28.317 14.5168 28.3999 14.4888 28.5233 14.5006ZM27.7997 17.0805L27.8036 17.082C27.7809 17.082 27.78 17.082 27.7997 17.0805ZM21.6907 19.0308C21.6601 19.0477 21.6335 19.0625 21.6196 19.0617C21.6532 19.0389 21.6759 19.0301 21.6907 19.0308ZM19.9946 17.5062C19.9749 17.5195 19.969 17.5622 19.9433 17.5541C19.9522 17.5372 19.9709 17.521 19.9946 17.5062Z" fill="#7C6354"/>
<path d="M21.6196 7.73067C17.721 9.74942 12.4887 11.5575 10.5725 14.941C12.5173 16.3706 13.1788 15.4558 14.6172 14.2052C17.5562 11.64 21.3906 9.43641 25.7502 8.38394C25.6199 5.90267 23.7382 6.92862 21.6196 7.73067ZM23.7906 8.8995C23.7659 8.90612 23.7787 8.90244 23.7906 8.8995C23.7678 8.90539 23.7925 8.91349 23.7906 8.8995ZM23.5576 8.96063C23.4184 9.00923 23.2723 9.0711 23.1972 9.05563C23.3157 9.0247 23.4371 8.99229 23.5576 8.96063Z" fill="#7C6354"/>
<path d="M42.8244 6.70104C44.6537 4.13065 30.1434 4.97984 28.1709 5.66847C28.2874 9.27364 31.1662 6.70546 35.1319 7.58411C36.0806 7.76528 40.3859 7.8382 37.7944 8.54082C33.6619 8.90244 25.1519 8.36111 31.2846 12.2204C37.8981 10.9757 44.7367 12.1298 50.0243 15.1627C52.7244 17.4385 54.4421 15.1038 56.4354 13.3229C60.564 11.9508 47.4871 6.22158 45.5403 6.55669C43.1916 10.2149 41.2488 13.057 42.8254 6.70178L42.8244 6.70104ZM31.1948 5.33483C31.3073 5.25161 31.7832 5.25234 31.877 5.22951C31.644 5.26118 31.4169 5.29653 31.1948 5.33483ZM37.4005 7.14147C37.4005 7.14147 37.4065 7.14 37.4055 7.14147C37.4035 7.14147 37.4025 7.14147 37.4005 7.14147ZM30.3971 9.12928C30.4336 9.14328 30.479 9.15064 30.5136 9.16905C30.4761 9.15727 30.4376 9.14475 30.3971 9.12928ZM37.3285 10.9411C37.3897 10.9308 37.4381 10.9477 37.4993 10.9683C37.443 10.9602 37.3857 10.9507 37.3285 10.9411ZM45.6844 10.6001C45.6943 10.589 45.6972 10.5942 45.7061 10.603C45.6992 10.603 45.6913 10.6023 45.6844 10.6001ZM52.5111 14.5448C52.5368 14.5543 52.5615 14.5632 52.5881 14.5742C52.5782 14.5742 52.5496 14.5625 52.5111 14.5448ZM45.487 8.83468C47.2827 8.4598 57.2419 13.7273 51.7026 12.99C50.3481 11.383 45.8473 10.5448 45.487 8.83468ZM43.7632 9.44082C43.8294 9.4202 43.7623 9.54614 43.7504 9.50195C43.7544 9.48133 43.7603 9.46145 43.7632 9.44082Z" fill="#7C6354"/>
<path d="M3.02905 22.9622C5.0045 14.9985 12.3495 8.88108 22.213 5.52485C24.7403 5.31568 23.8271 3.84194 22.8626 2.73425C19.0666 4.04375 15.9618 5.88794 12.3495 7.43681C9.74223 8.84426 8.47659 11.1274 6.40735 12.8626C4.0992 13.521 -1.91897 23.6663 3.02905 22.9622ZM22.7757 5.3201C22.7362 5.33999 22.6957 5.3584 22.6552 5.37608C22.6483 5.34882 22.7401 5.34072 22.7757 5.3201ZM18.3628 6.1877C18.3351 6.19138 18.3035 6.19138 18.266 6.18549C18.2996 6.18549 18.3312 6.18623 18.3628 6.1877ZM15.0299 7.87723C15.022 7.87944 15.0131 7.88828 15.0121 7.87871L15.0299 7.87723ZM1.41097 22.7847C1.3774 22.773 1.35865 22.7509 1.33792 22.7229C1.36062 22.745 1.3853 22.7656 1.41097 22.7847Z" fill="#7C6354"/>
<path d="M71 26.2456C70.1194 11.3896 51.5239 -0.138843 31.952 1.01746C30.4761 1.05355 25.6377 0.828919 27.0435 2.65397C42.9764 3.51641 59.246 5.27149 66.0994 19.0639C67.8448 21.9886 67.1291 26.538 68.6632 29.0693C71.3673 29.9693 70.7631 27.5934 71 26.2456ZM31.1968 1.12867C31.1997 1.12499 31.2007 1.12352 31.1968 1.12867V1.12867ZM36.4133 1.40339L36.5525 1.3894C36.5792 1.39382 36.4498 1.39823 36.4133 1.40339ZM65.1141 13.3229C65.1052 13.289 65.0944 13.2544 65.0816 13.2183C65.1072 13.2522 65.121 13.2868 65.1141 13.3229ZM68.2436 26.9305C68.2525 26.9563 68.2624 26.9828 68.2703 27.0086C68.2515 26.9835 68.2446 26.9578 68.2436 26.9305ZM68.2723 28.9205C68.2723 28.9191 68.2723 28.9191 68.2723 28.9205V28.9205Z" fill="#7C6354"/>
<path d="M47.8543 48.4201C49.5623 48.0791 60.3122 43.5835 56.928 41.8719C50.3826 36.3054 51.591 40.5712 44.9321 42.2917C40.2576 41.5324 50.3609 39.3531 50.59 37.5671C46.8622 32.2952 42.3258 46.6334 23.3947 36.1316C22.2238 35.3016 22.1873 34.0046 20.5347 35.2493C15.9529 36.3526 23.8843 41.1715 26.3524 40.6206C26.8934 40.3746 27.4255 38.5628 27.9675 39.6646C26.5834 42.5613 31.8158 41.9043 34.4912 42.5318C35.9217 42.7601 39.7472 41.8881 38.5823 43.7102C32.0813 44.9247 26.2794 40.3275 25.6584 45.1449C27.4601 46.4051 42.8698 48.3178 40.7532 44.7413C40.5538 43.9628 40.7364 42.428 41.8381 43.7839C42.5124 44.3105 42.4176 45.9757 43.6132 45.6236C45.6992 45.4697 47.417 44.6478 49.3342 44.0785C61.4999 38.4391 48.651 46.9582 43.9084 47.1673C43.6922 49.4615 45.6242 49.4468 47.8543 48.4194V48.4201ZM22.8102 39.6322C22.8349 39.644 22.8596 39.655 22.8833 39.6646C22.8359 39.6771 22.8152 39.6624 22.8102 39.6322ZM28.4019 41.5773H28.5233C28.4838 41.581 28.4424 41.5788 28.4019 41.5773ZM26.8549 43.0886C26.8549 43.0886 26.85 43.0864 26.847 43.0849C26.852 43.0857 26.8668 43.0849 26.8549 43.0886ZM40.5478 43.3523C40.5488 43.3169 40.5518 43.2882 40.5557 43.2698C40.5538 43.2985 40.5508 43.3258 40.5478 43.3523ZM47.0833 44.7583C47.1445 44.7347 47.2057 44.7104 47.2659 44.6853C47.2146 44.7288 47.1495 44.7546 47.0833 44.7583ZM50.8131 47.0952L50.8052 47.09C50.8101 47.0922 50.8141 47.0944 50.8131 47.0952ZM44.785 48.8665C44.7811 48.862 44.7919 48.8642 44.7969 48.862L44.785 48.8665Z" fill="#7C6354"/>
<path d="M43.2193 51.9517C43.3664 51.1341 42.161 51.6158 41.543 51.7307C32.9491 52.7368 23.0797 51.3072 16.097 47.4634C15.0387 46.8654 13.9113 46.0538 12.8905 45.4042C12.9379 45.4189 12.2607 45.9735 12.3495 45.55C12.153 43.5202 8.13698 41.103 6.92564 39.222C0.64684 31.8437 5.09334 21.845 0.0653611 25.9001C-1.00085 37.9618 11.0937 51.6873 27.8333 53.2766C31.2007 53.8931 44.0821 55.9995 43.2193 51.9517ZM2.86515 26.088L2.88194 26.0902C2.85923 26.1925 2.86022 26.1815 2.86515 26.088ZM6.92366 39.9585C6.9671 39.9393 7.00462 39.9239 7.03621 39.9121C6.98882 39.9334 6.94834 39.957 6.92366 39.9585ZM8.30481 43.9658V43.9319C8.30876 43.9422 8.30679 43.954 8.30481 43.9658ZM9.93966 44.6772C9.95349 44.6743 9.96731 44.6706 9.98113 44.6669C9.97027 44.6736 9.95546 44.6758 9.93966 44.6772ZM24.3809 52.7603C24.3552 52.7633 24.373 52.7552 24.3809 52.7456C24.3829 52.7537 24.3829 52.7589 24.3809 52.7603ZM25.0127 51.006C25.0275 50.9868 25.0414 50.9817 25.0512 51.006C25.0384 51.006 25.0256 51.006 25.0127 51.006ZM25.7127 52.1019C25.7117 52.0975 25.7127 52.0997 25.7127 52.1019V52.1019ZM27.1244 51.2748C27.1531 51.2748 27.1718 51.277 27.1837 51.2814C27.1639 51.2792 27.1442 51.277 27.1244 51.2748ZM30.6686 53.8489C30.7101 53.854 30.7495 53.8592 30.791 53.8651C30.7476 53.8651 30.7071 53.8585 30.6686 53.8489ZM33.3558 52.9084C33.3558 52.9084 33.3637 52.9128 33.3667 52.9157C33.3628 52.9135 33.3598 52.9113 33.3558 52.9084Z" fill="#7C6354"/>
<path d="M24.0847 41.651C20.6462 40.9056 18.9284 38.4729 16.5897 36.8674C12.7997 38.1018 14.8669 39.0401 16.7861 41.1361C18.575 43.1608 14.5925 40.6464 13.9261 40.1794C4.18311 36.2583 20.1072 49.8217 22.1123 47.5371C22.9563 46.8359 23.1864 45.2819 21.5199 45.698C21.8724 45.3681 18.7566 44.3605 18.266 43.8582C16.9342 41.2694 23.4746 46.2445 24.3799 43.9319C24.8538 43.2249 25.2418 42.1054 24.0847 41.651ZM15.7959 37.3505C15.789 37.3122 15.8097 37.3034 15.8591 37.31C15.8384 37.3247 15.8177 37.338 15.7959 37.3505ZM17.6746 43.0488C17.7477 43.065 17.8247 43.0768 17.9047 43.0857C17.8227 43.0827 17.7447 43.0724 17.6746 43.0488ZM22.8793 41.4543C22.8833 41.4469 22.8902 41.4388 22.9011 41.43C22.8922 41.4388 22.8862 41.4462 22.8793 41.4543Z" fill="#7C6354"/>
<path d="M65.508 31.8643C66.3018 30.669 63.5622 30.3096 62.5493 30.4664C61.6065 33.1687 61.5354 35.3443 58.6033 37.5295C55.7848 38.1673 64.7962 29.7447 58.2084 29.878C57.782 29.7653 56.2804 29.752 56.7305 30.3192C56.9388 34.4612 50.6946 37.3549 54.7571 38.5599C60.8364 44.8297 63.7666 35.6161 65.508 31.8643ZM58.6043 39.2964C58.6073 39.3059 58.6083 39.3126 58.6092 39.3207C58.6063 39.3111 58.6033 39.3022 58.6043 39.2964ZM59.3941 37.3093C59.3941 37.2931 59.3941 37.2769 59.3941 37.2614C59.4079 37.2636 59.4089 37.2783 59.3941 37.3093ZM62.0211 38.0443C62.0369 38.0288 62.0429 38.0222 62.0567 38.0428L62.0211 38.0443ZM63.5355 32.3799C63.5622 32.4012 63.5849 32.4211 63.6046 32.4403C63.5849 32.4307 63.5622 32.4123 63.5355 32.3799Z" fill="#7C6354"/>
<path d="M42.0938 48.4938C41.4659 46.9236 37.8379 48.3163 35.9207 48.1984C32.2413 48.155 28.706 47.4097 25.1737 46.5369C21.6848 49.2376 27.3614 49.5183 30.1019 49.6707C32.6835 50.4838 42.9883 51.3654 42.0938 48.4938ZM24.0857 48.6396C24.0917 48.63 24.0956 48.6374 24.1025 48.6426L24.0857 48.6396ZM25.84 48.5328C25.84 48.5225 25.8499 48.5291 25.8588 48.5313L25.84 48.5328ZM30.1769 47.6917C30.249 47.6895 30.3231 47.6888 30.3971 47.6844C30.326 47.6903 30.252 47.6917 30.1769 47.6917ZM32.1721 48.0519C32.2541 48.0725 32.3133 48.0902 32.3568 48.1056C32.2985 48.0924 32.2373 48.0747 32.1721 48.0519ZM34.3194 50.1097C34.351 50.1097 34.3914 50.1097 34.4408 50.1119C34.4003 50.1141 34.3589 50.1119 34.3194 50.1097ZM37.4993 49.6722C37.4993 49.6722 37.4993 49.6722 37.4983 49.6722C37.4983 49.6722 37.5002 49.6722 37.4993 49.6722ZM38.6405 50.0449C38.6731 50.0493 38.7056 50.053 38.7392 50.0566C38.7017 50.0559 38.6681 50.05 38.6405 50.0449Z" fill="#7C6354"/>
<path d="M69.6505 31.7178C66.6976 30.5909 66.9711 35.8959 65.507 37.3093C60.3902 48.2065 44.6883 49.8931 46.1247 51.8773C46.3636 53.7509 50.9799 51.5746 52.1932 50.9957C61.1415 48.1248 70.9299 38.8972 69.6505 31.7178ZM52.289 49.8224C52.289 49.8224 52.288 49.8239 52.287 49.8254C52.287 49.8246 52.289 49.8224 52.289 49.8224ZM56.5331 47.7573C56.5548 47.7499 56.5825 47.747 56.6131 47.747C56.5874 47.7507 56.5617 47.7543 56.5331 47.7573ZM57.0978 46.9663C57.003 46.9398 57.0593 46.9464 57.1245 46.9486L57.0978 46.9663ZM60.5235 43.5607C60.5423 43.529 60.561 43.504 60.5768 43.49C60.56 43.5143 60.5413 43.5371 60.5235 43.5607Z" fill="#7C6354"/>
<path d="M26.3534 29.0686C29.1236 37.4293 47.0813 35.2147 44.5994 26.3457C42.0001 17.6742 23.2782 20.8698 26.3534 29.0686ZM39.4461 32.3151C39.452 32.3121 39.4599 32.3092 39.4718 32.3062C39.4708 32.3092 39.4599 32.3121 39.4461 32.3151ZM41.541 27.4822C41.541 27.4608 41.5361 27.4439 41.5726 27.4497C41.5607 27.4593 41.5499 27.4696 41.541 27.4822ZM31.4702 23.4461C31.4673 23.452 31.4702 23.4609 31.4653 23.4638L31.4702 23.4461ZM30.4939 24.0677C30.4939 24.0677 30.4948 24.0692 30.4939 24.0699V24.0677ZM29.5096 27.818C33.0528 16.892 50.3017 29.5377 36.1171 32.0124C36.1142 31.9947 35.7558 32.321 35.822 32.0124C35.7489 31.9711 34.7755 31.9969 34.5938 32.0124C34.6728 31.5624 33.4082 31.9291 32.961 31.4968C31.1918 30.7471 29.5125 29.4383 29.5086 27.818H29.5096ZM29.4721 27.4954C29.4484 27.558 29.4276 27.5963 29.4109 27.597C29.4326 27.5654 29.4523 27.5308 29.4721 27.4954ZM26.769 29.3845C26.8095 29.4457 26.8559 29.5304 26.769 29.425C26.7641 29.4177 26.7651 29.4037 26.769 29.3845Z" fill="#7C6354"/>
<path d="M31.7782 28.7011C32.1741 29.9818 35.0193 30.8428 36.2168 30.1726C46.0161 28.5685 30.5965 20.1775 31.7782 28.7011ZM38.9841 27.4601C38.9762 27.4416 38.9781 27.3562 38.9781 27.3032C38.9762 27.3599 38.9791 27.4114 38.9841 27.4601ZM38.9278 26.8863C38.9199 26.8679 38.91 26.8495 38.9011 26.8303C38.9248 26.8458 38.9367 26.8642 38.9278 26.8863ZM37.439 28.6782C37.3768 28.6782 37.3008 28.665 37.2021 28.6274C37.2771 28.6517 37.3561 28.6679 37.439 28.6782ZM31.6795 27.8548C31.6825 27.8489 31.6835 27.8511 31.6835 27.8556C31.6825 27.8556 31.6805 27.8556 31.6795 27.8548Z" fill="#7C6354"/>
</svg>
