<svg width="42" height="67" viewBox="0 0 42 67" fill="none" xmlns="http://www.w3.org/2000/svg">
<path d="M19.8516 24.8449C19.8575 25.0053 19.8716 25.2156 19.8885 25.3739C19.8752 25.1976 19.8627 25.0212 19.8516 24.8449Z" fill="#F3FF90"/>
<path d="M40.3068 5.18476L40.3097 5.17536C40.8468 4.02046 42.1583 3.21607 41.9842 1.7598C41.8669 0.202337 40.008 -0.406915 38.6958 0.279668C38.1779 0.502988 37.6822 0.906265 37.1334 1.01467C36.5617 1.12959 36.0136 0.842666 35.4442 0.789907C34.0397 0.65765 33.5462 2.19054 32.8528 3.112C31.404 5.00697 30.465 0.909156 28.7087 3.26666C27.6368 4.5849 28.2166 7.15995 26.5304 6.86147C25.4873 6.66922 24.9503 7.54661 24.7799 8.43555C24.4944 9.69091 24.6066 11.0503 24.147 12.2797C23.7406 13.4165 22.9358 14.4059 22.3501 15.4792C21.909 16.277 21.2561 17.4746 20.5177 16.0899C19.6407 14.471 18.6566 12.5847 16.8132 11.888C16.0417 11.4233 12.9701 12.4922 14.6121 11.1609C15.7407 10.1245 12.5157 9.53408 11.8296 9.87376C11.2521 9.93591 9.61595 10.8335 9.30318 10.358C9.58644 9.72777 10.8154 9.56371 10.8626 8.8251C10.4856 7.88267 8.50283 7.60298 7.57043 7.61454C7.16472 7.55889 4.77473 8.06263 5.16421 7.40134C5.38034 7.13249 5.99702 6.94169 5.98079 6.53841C5.67245 5.94867 4.78431 5.76366 4.3491 5.28955C3.354 4.16139 5.96604 5.31051 6.33413 5.19849C6.79369 5.17175 6.68525 4.4447 6.95154 4.324C7.30267 4.38543 7.44356 4.7056 7.72092 5.00408C8.09786 5.49553 8.49472 5.99493 9.01181 6.35557C9.78045 6.8976 11.8274 7.98457 11.4741 6.27462C11.3177 5.62634 11.1008 3.8658 11.9698 5.42181C12.332 6.15537 12.5393 7.03998 13.032 7.71934C13.5277 8.40375 14.4122 9.10912 15.2339 9.06721C15.6559 9.01445 15.7997 8.52372 15.9679 8.2144C16.4274 7.18886 16.8671 10.358 17.7656 10.6565C19.2844 11.3777 17.3185 4.38616 15.768 4.81834C14.7382 5.06696 14.2359 6.02745 13.4554 4.68103C12.751 3.54274 11.8016 0.930838 10.0674 1.98167C9.63218 2.28088 9.26778 2.93566 8.67175 2.75859C7.78435 2.40157 7.27537 1.42807 6.52002 0.895424C6.03021 0.507324 5.26969 0.167646 4.71497 0.60706C4.27091 0.949628 4.12928 1.6803 3.61956 1.92819C2.46734 2.25052 0.916056 1.24522 0.133405 2.72318C-0.481799 4.1173 1.20595 4.87616 1.63969 5.93567C1.79165 6.46253 1.52241 7.02263 1.52831 7.56395C1.52167 8.43121 2.29621 8.97253 3.1032 9.23994C3.80471 9.62948 6.10914 9.14165 6.01103 10.2055C5.95719 10.655 5.63999 11.179 5.72556 11.6596C6.03538 12.8622 7.70321 12.915 8.75437 12.7314C9.7148 12.6078 11.0426 11.7882 11.6467 12.9041C11.8842 13.2344 12.1557 13.5531 12.5798 13.6767C14.0234 14.0706 15.5924 13.1368 16.9807 13.8646C20.1651 15.7343 19.8148 20.1205 19.7794 23.2853C19.7912 23.8063 19.817 24.326 19.8516 24.8449C19.8516 24.8073 19.8502 24.7719 19.8502 24.7415H19.8509V24.7437C19.8509 24.7488 19.8531 24.7603 19.8553 24.7784V24.7813C19.8775 24.9822 19.8988 25.285 19.8974 25.4527C19.8944 25.431 19.8915 25.4072 19.8893 25.3819C20.008 26.9473 20.1858 28.5076 20.2692 30.0795C20.2802 30.3281 20.2994 30.5941 20.3053 30.8593C20.3156 31.2373 20.2994 31.6153 20.1939 31.9456V31.947C19.9505 33.0759 19.6672 36.5486 18.8801 36.9967C18.5039 37.212 18.0938 37.3638 17.7538 37.4296C14.5317 38.1877 11.1429 40.8162 11.3568 44.3474C11.6283 46.8401 14.528 45.7575 16.215 45.6491C19.2527 45.4192 22.3132 45.5862 25.3509 45.7914C26.852 45.7958 29.0332 46.6695 30.0482 45.214C30.5203 44.445 30.4547 43.2648 30.1626 42.386C29.208 39.6613 26.2471 38.2788 23.61 37.4433C21.996 36.9056 22.581 33.1222 22.6341 31.9347C22.6348 31.9311 22.6348 31.9282 22.6348 31.9254C22.7137 30.8839 22.3516 29.5288 22.3516 29.5288L22.3449 29.471L22.3117 29.1942L21.7408 24.365C21.6847 22.1549 21.9879 19.9123 22.7794 17.854C23.5414 15.8904 24.8367 13.3609 27.3646 13.689C28.1775 13.7533 28.9602 14.0178 29.7724 14.1667C33.6753 14.7095 30.3462 11.2831 33.2511 11.7745C34.4255 11.9509 36.3899 12.4864 36.9062 11.0373C37.0891 10.3739 36.409 9.58467 36.9165 9.08383C37.503 8.72102 38.31 8.87641 38.9834 8.78535C39.8635 8.71307 40.9788 8.29968 40.9803 7.30955C40.9699 6.57383 40.0899 5.95373 40.3075 5.18476H40.3068ZM18.8801 15.6837C18.886 15.6866 18.9207 15.7451 18.9163 15.7437C18.9163 15.7495 18.8809 15.6916 18.8794 15.6837H18.8801ZM39.575 2.60827C39.4246 2.98047 38.8352 3.51456 38.4405 3.83183C37.9655 4.2539 37.1282 4.7851 36.8184 5.22379C36.3884 5.85183 37.5738 5.97831 37.7752 6.37291C37.8216 6.64899 37.0619 6.6367 36.7557 6.63164C36.0933 6.60201 35.4102 6.5507 34.7677 6.74945C34.1909 6.91278 33.6568 7.23367 33.1302 7.57551C32.6315 7.89857 32.0746 8.22307 31.8769 8.48614C31.5641 8.8793 32.1424 9.1019 32.4574 9.23704C32.7576 9.3628 33.1973 9.55432 33.4112 9.74367C33.9202 10.204 33.2142 10.2019 32.7783 10.1513C32.034 10.0559 31.2196 9.87521 30.4562 9.97566C29.5378 10.0653 28.3354 10.6254 27.7836 11.2599C27.2879 11.8721 28.9041 12.1445 28.5759 12.4437C28.0743 12.6801 27.2975 12.4727 26.731 12.5204C26.0465 12.5037 24.2813 13.0877 25.0624 11.927L25.0698 11.9169C25.9329 10.8003 27.4982 10.1787 28.2528 8.94434C28.7072 8.2462 28.8532 7.40712 29.0664 6.6143C29.2021 6.09466 29.3932 5.56491 29.5828 5.34087C29.9228 4.9412 30.0298 5.48035 30.0121 5.81569C30.0106 6.06648 29.9686 6.38303 29.9177 6.68802C29.866 7.12309 29.6079 8.04673 30.2164 7.99686C30.7143 7.90724 31.2064 7.5336 31.6541 7.28354C32.4375 6.79787 33.2725 6.31076 33.8265 5.62201C34.2411 5.13489 34.452 4.4895 34.7508 3.94313C34.8998 3.6909 35.1683 3.271 35.3608 3.59406C35.546 3.90627 35.5386 4.61887 36.1014 4.38977C36.8288 4.09635 37.7169 3.28112 38.3881 2.78172C38.633 2.59815 38.906 2.42181 39.187 2.31412C39.4681 2.19993 39.7447 2.23824 39.575 2.60827Z" fill="#F3FF90"/>
<path d="M28.2948 47.7659L28.2838 47.7616C27.7645 47.5628 27.1161 47.5361 26.5488 47.4862C25.387 47.3944 24.2628 47.3438 23.1084 47.2723C21.2672 47.153 19.4017 47.0656 17.5627 47.2145C16.8605 47.2651 16.1678 47.3424 15.47 47.4436C14.629 47.5867 13.6126 47.5816 12.9656 48.1771C12.2472 48.897 12.3947 50.0844 12.3999 51.0239C12.4721 52.6132 12.748 54.2118 13.5978 55.5792C14.1901 56.5433 15.0001 57.3398 15.9192 58.0104C16.6222 58.551 17.472 58.9485 18.1713 59.4754C19.0498 60.1439 19.111 61.0509 18.3513 61.8495C17.5974 62.7023 15.4058 63.7857 15.2752 64.9052C15.3534 65.1025 15.7768 64.7975 15.917 64.7245C16.3035 64.4954 16.8088 64.095 17.0788 64.6537C17.1968 64.8466 17.2551 65.0953 17.3953 65.2644C17.4978 65.3663 17.6055 65.2333 17.6623 65.143C17.8297 64.8849 18.0016 64.2981 18.2332 63.8146C18.4317 63.4012 18.6972 63.0232 18.9819 62.6648C19.2158 62.3908 19.6975 61.8148 20.07 61.9088C20.4329 62.0837 20.3724 63.0174 20.4248 63.4359C20.4609 64.2078 20.7235 64.9297 21.0216 65.6438C21.2222 66.1136 21.535 67.0213 21.8359 66.9996C22.1421 66.7727 21.8588 65.7869 21.7548 65.4429C21.6227 64.9435 21.1802 63.9534 21.8131 63.7871C22.294 63.6903 23.0464 64.1781 23.4625 64.5062C23.8829 64.8344 24.4081 65.406 24.6582 65.5065C24.8965 65.6243 25.0189 65.354 25.1458 65.1943C25.28 64.9999 25.4755 64.8459 25.7071 64.7787C25.8805 64.7079 26.118 64.718 26.2139 64.5532C26.2493 64.2511 25.6798 63.8905 25.2712 63.712C24.895 63.5537 24.4952 63.4576 24.102 63.347C23.5288 63.1952 22.9358 62.977 22.5256 62.5585C21.6235 61.6616 21.8868 60.3998 22.8768 59.6785C23.4079 59.2658 24.0526 58.9659 24.642 58.6291C25.4888 58.1564 26.2766 57.5718 26.9405 56.8714C28.463 55.2952 29.2162 53.1639 29.2759 51.0145C29.2774 49.9095 29.5599 48.2545 28.2948 47.7659ZM19.8125 54.902L19.7993 54.8963C17.7058 53.9524 17.5384 51.545 19.2025 50.0837C20.6107 48.8232 22.9026 49.7772 23.4101 51.4539C24.0858 53.638 22.1111 55.8907 19.8125 54.902Z" fill="#F3FF90"/>
</svg>
