<svg width="22" height="30" viewBox="0 0 22 30" fill="none" xmlns="http://www.w3.org/2000/svg">
<path d="M18.4951 29.9162C17.6116 29.8814 16.7613 29.8598 15.8863 29.8806C12.5338 29.9701 9.16274 29.9187 5.78657 29.9477C5.07254 29.9494 4.30007 29.9983 3.53861 30C3.07953 30 2.62723 29.9842 2.19271 29.9278C1.80987 29.8797 1.44227 29.8001 1.10177 29.6765C-0.642221 29.0063 0.0760415 26.8156 0.613892 25.4386C1.25762 23.8618 2.64332 22.7046 3.90621 21.6072C4.43305 21.1742 4.99377 20.752 5.58837 20.4227C7.4772 19.3087 8.40382 20.937 10.7517 21.0415C11.6513 21.1286 12.6583 20.9444 13.4749 20.5363C14.3473 20.095 15.0672 19.7259 16.015 20.0851C18.9745 21.2729 21.6155 24.2101 21.9678 27.4626L21.9695 27.4783C22.2592 29.9146 20.4381 29.9793 18.4968 29.9162H18.4951Z" fill="url(#paint0_linear_1128_3513)"/>
<path d="M11.3844 19.3783C11.3497 19.3825 11.2659 19.3933 11.2286 19.4041V19.4057C11.2438 19.4099 11.3751 19.3875 11.3921 19.3817C11.4107 19.3775 11.4082 19.3759 11.3844 19.3783Z" fill="url(#paint1_linear_1128_3513)"/>
<path d="M17.4262 12.3691V12.3758C17.2695 13.2451 17.3389 14.2313 16.9163 15.089C16.3225 16.3822 14.9444 17.6646 13.6485 18.412C12.6812 18.976 11.6496 19.4845 10.6171 19.3253C9.14157 19.1129 6.91733 17.4324 6.09996 16.2288C5.3673 15.1645 4.91415 13.8572 4.93872 12.5583C4.95396 11.9312 4.97006 11.134 5.67138 10.9308C5.84332 10.8777 6.0322 10.8553 6.21685 10.8445C6.88006 10.8047 7.69911 10.8205 8.39705 10.8288C10.5586 10.9374 13.3368 10.5011 15.4382 10.7276C15.9642 10.7989 16.4851 10.9067 16.9095 11.2211C17.3016 11.5521 17.4719 11.9212 17.4262 12.3691Z" fill="url(#paint2_linear_1128_3513)"/>
<path d="M17.4091 9.31769C16.9661 9.45871 16.4206 9.45539 15.9345 9.44709C12.9657 9.23723 5.68058 10.7079 3.85359 8.94359L3.84596 8.93447C3.59356 8.64166 3.50293 8.23603 3.53596 7.84617C3.73839 5.8388 5.98042 4.09438 8.06068 3.35945C8.56888 3.18442 9.11859 3.02682 9.50059 2.65769C9.82245 2.36737 10.0808 1.87382 10.34 1.43585C10.5712 1.04433 10.8617 0.676866 11.1844 0.413087C11.4953 0.158433 11.8392 0.000829493 12.1788 0C13.08 0.0282028 13.0885 0.635391 12.5939 1.18783C12.0696 1.77843 11.2183 2.66101 12.4651 3.00193C12.8403 3.10811 13.2588 3.15622 13.6458 3.26074C15.0366 3.64147 16.2834 4.37143 17.1762 5.55428C17.9283 6.53308 19.1548 8.7105 17.4091 9.31769Z" fill="url(#paint3_linear_1128_3513)"/>
<defs>
<linearGradient id="paint0_linear_1128_3513" x1="11" y1="0" x2="11" y2="30" gradientUnits="userSpaceOnUse">
<stop stop-color="#F3FF90"/>
<stop offset="0.33" stop-color="#9BEC00"/>
<stop offset="0.66" stop-color="#06D001"/>
<stop offset="1" stop-color="#059212"/>
</linearGradient>
<linearGradient id="paint1_linear_1128_3513" x1="11" y1="0" x2="11" y2="30" gradientUnits="userSpaceOnUse">
<stop stop-color="#F3FF90"/>
<stop offset="0.33" stop-color="#9BEC00"/>
<stop offset="0.66" stop-color="#06D001"/>
<stop offset="1" stop-color="#059212"/>
</linearGradient>
<linearGradient id="paint2_linear_1128_3513" x1="11" y1="0" x2="11" y2="30" gradientUnits="userSpaceOnUse">
<stop stop-color="#F3FF90"/>
<stop offset="0.33" stop-color="#9BEC00"/>
<stop offset="0.66" stop-color="#06D001"/>
<stop offset="1" stop-color="#059212"/>
</linearGradient>
<linearGradient id="paint3_linear_1128_3513" x1="11" y1="0" x2="11" y2="30" gradientUnits="userSpaceOnUse">
<stop stop-color="#F3FF90"/>
<stop offset="0.33" stop-color="#9BEC00"/>
<stop offset="0.66" stop-color="#06D001"/>
<stop offset="1" stop-color="#059212"/>
</linearGradient>
</defs>
</svg>
