<svg width="115" height="100" viewBox="0 0 115 100" fill="none" xmlns="http://www.w3.org/2000/svg">
<path d="M0 15C0 9.47715 4.47715 5 10 5H105C110.523 5 115 9.47715 115 15V90C115 95.5229 110.523 100 105 100H10C4.47715 100 0 95.5229 0 90V15Z" fill="#0A0400"/>
<path d="M0 10C0 4.47715 4.47715 0 10 0H105C110.523 0 115 4.47715 115 10V85C115 90.5229 110.523 95 105 95H10C4.47715 95 0 90.5229 0 85V10Z" fill="#7C6354"/>
<path d="M105 94V95H10L10 94H105ZM114 85V10C114 5.02944 109.971 1 105 1H10C5.02944 1 1 5.02944 1 10V85C1 89.9706 5.02944 94 10 94L10 95L9.48535 94.9873C4.20167 94.7195 0 90.3503 0 85V10C0 4.47715 4.47715 0 10 0H105C110.523 0 115 4.47715 115 10V85C115 90.5229 110.523 95 105 95V94C109.971 94 114 89.9706 114 85Z" fill="#F3FF90"/>
</svg>
