<svg width="29" height="51" viewBox="0 0 29 51" fill="none" xmlns="http://www.w3.org/2000/svg">
<path d="M26.9493 20.4642H6.56568V9.04046C6.56568 6.28615 8.76821 4.04615 11.4747 4.04615H17.5245C20.2318 4.04615 22.4335 6.28695 22.4335 9.04046V20.9016H23.7397L23.8022 22.1557H22.496L22.4335 23.4098H26.4106V9.04046C26.4106 7.82428 26.174 6.6411 25.708 5.52473C25.2595 4.45021 24.6179 3.48434 23.8022 2.6537C22.9865 1.82387 22.0372 1.17111 20.9802 0.714737C19.8829 0.24066 18.7199 0 17.5245 0H11.4747C10.2793 0 9.11631 0.24066 8.019 0.714737C6.96283 1.17111 6.01268 1.82387 5.19701 2.6537C4.38135 3.48354 3.73974 4.4494 3.29116 5.52473C2.82518 6.6411 2.58863 7.82428 2.58863 9.04046V20.4642H2.05066C0.922496 20.4642 3.00271e-05 21.4027 3.00271e-05 22.5504V36.3534C3.00271e-05 36.3647 3.0027e-05 36.3768 0.000821165 36.388C0.074397 44.4707 6.53799 50.9999 14.5 50.9999C22.462 50.9999 28.9256 44.4707 28.9992 36.388C28.9992 36.3768 29 36.3647 29 36.3534V22.5504C29 21.4027 28.0775 20.4642 26.9493 20.4642ZM16.2532 34.5529C16.5158 36.8645 16.7168 41.3791 16.7168 41.3791C16.7168 41.6922 16.4652 41.9482 16.1574 41.9482H12.8426C12.5348 41.9482 12.2832 41.6922 12.2832 41.3791C12.2832 41.3791 12.4842 36.8645 12.7468 34.5529C11.7271 33.9412 11.0435 32.8127 11.0435 31.5217C11.0435 29.5795 12.591 28.0052 14.5 28.0052C16.409 28.0052 17.9565 29.5795 17.9565 31.5217C17.9565 32.8127 17.2721 33.9412 16.2532 34.5529Z" fill="#F3FF90"/>
</svg>
