<svg width="116" height="100" viewBox="0 0 116 100" fill="none" xmlns="http://www.w3.org/2000/svg">
<path d="M0 15C0 9.47715 4.47715 5 10 5H105C110.523 5 115 9.47715 115 15V90C115 95.5229 110.523 100 105 100H10C4.47715 100 0 95.5229 0 90V15Z" fill="#06D001"/>
<path d="M0.25 10C0.25 4.47715 4.72715 0 10.25 0H105.25C110.773 0 115.25 4.47715 115.25 10V83.4426C115.25 88.9655 110.773 93.4426 105.25 93.4426H10.25C4.72715 93.4426 0.25 88.9655 0.25 83.4426V10Z" fill="#9BEC00"/>
<path d="M105.25 92.4426V93.4426H10.25L10.25 92.4426H105.25ZM114.25 83.4426V10C114.25 5.02945 110.221 1 105.25 1H10.25C5.27944 1 1.25 5.02945 1.25 10V83.4426C1.25 88.4132 5.27944 92.4426 10.25 92.4426L10.25 93.4426L9.73535 93.4299C4.62205 93.1707 0.521788 89.0706 0.262695 83.9572L0.25 83.4426V10C0.25 4.47715 4.72715 0 10.25 0H105.25C110.773 0 115.25 4.47715 115.25 10V83.4426L115.237 83.9572C114.978 89.0706 110.878 93.1707 105.765 93.4299L105.25 93.4426V92.4426C110.221 92.4426 114.25 88.4132 114.25 83.4426Z" fill="white"/>
</svg>
