<svg width="84" height="94" viewBox="0 0 84 94" fill="none" xmlns="http://www.w3.org/2000/svg">
<path d="M75.1572 53.2596L75.1642 53.2399C75.5349 52.1409 76.4817 50.1992 75.6965 49.3148C74.8686 48.523 73.5129 49.6231 72.7716 50.336C71.946 51.1011 71.3017 52.1885 70.3109 52.709C69.3028 53.219 68.2844 51.6297 67.4056 51.9531C66.8491 52.2012 66.617 52.7936 66.4045 53.3627C66.1481 54.1046 65.9923 55.0842 65.7625 55.8133C65.4749 56.67 65.1655 57.4385 64.2983 56.9552C63.7406 56.6538 63.1447 56.0336 62.4831 55.9327C61.1759 55.8701 60.8064 58.0205 60.6679 59.0325C60.3226 62.473 60.1355 62.9321 58.0409 65.5635C57.6332 66.135 57.4981 66.4932 58.3041 66.3541C58.7695 66.2706 59.3965 66.0851 59.9184 65.9356C60.6217 65.7293 61.3468 65.5589 62.0824 65.5368C63.5904 65.4313 65.0523 65.9843 66.259 65.1682C66.6216 64.9143 66.9114 64.6013 67.2544 64.3173C68.1666 63.4537 69.5961 63.4189 70.7428 63.0202C71.9587 62.5924 71.6388 61.7346 71.3605 60.7504C71.0984 59.9158 71.5465 59.6121 72.3605 59.3281C73.3109 58.9699 74.5522 58.6975 75.2011 57.8327C76.0753 56.5448 74.4078 55.1653 75.1572 53.2596ZM72.6781 53.6259C71.7301 55.2163 70.4807 56.6572 69.2209 58.0158C67.8791 59.4347 66.4853 60.8293 64.9692 62.0522C64.3387 62.5032 63.6597 63.1164 62.9149 63.0665C62.5258 63.0028 62.2937 62.5681 62.445 62.2029C62.826 61.2999 64.0362 61.0773 64.8756 60.5279L64.8918 60.5174C66.2267 59.7118 67.3883 57.0351 68.4865 56.5054C69.349 56.0243 70.1031 55.5687 70.7786 54.7608C71.4275 54.0455 72.2705 52.9489 72.9587 52.4238C73.6007 52.0053 72.8536 53.3384 72.6781 53.6259Z" fill="white"/>
<path d="M24.4085 61.228C24.0298 60.6113 23.7157 59.9575 23.4663 59.2759C23.0402 58.1584 22.8116 57.1198 22.2238 56.2759C21.8058 55.6615 21.0645 55.5316 20.419 55.2975C19.7839 55.0633 19.4433 54.5637 19.0853 53.9076C18.583 53.0498 18.1523 51.923 17.2851 51.3758C16.6327 51.0095 16.0646 51.6784 15.5368 51.9404C15.0022 52.2116 14.6362 51.8987 14.1674 51.4871C13.6015 50.9794 13.023 50.2989 12.3383 49.9384C11.2263 49.3322 10.0877 50.4856 8.83025 50.5227C7.99885 50.6015 7.05198 50.4137 6.24599 50.6026C5.32106 50.8472 5.18825 51.6471 5.64321 52.5316C6.24828 53.7569 7.69861 54.5243 8.57504 55.5351C9.69974 56.6874 8.44342 58.4262 9.55426 59.1797C10.933 60.0375 13.0623 59.2284 14.456 59.7558C15.1269 60.0839 14.3198 61.257 14.3914 61.8586C14.3844 62.189 14.5657 62.4684 14.8452 62.6411C16.1061 63.4189 18.4283 62.9448 19.9467 62.7837C21.0483 62.6562 22.1291 62.735 23.1441 63.201L23.1649 63.2103C23.8658 63.5198 24.8243 64.038 25.3277 64.1608C26.9409 64.6489 24.6164 61.694 24.4085 61.228ZM20.2042 59.8891C19.4386 59.4938 18.6823 59.0557 17.9317 58.6256L17.9075 58.6117C15.784 57.3875 13.5727 56.1762 11.3995 55.0216C10.7205 54.6564 10.0092 54.2507 9.43185 53.845C7.55543 52.4794 10.3556 53.4984 11.5554 54.1012C13.0045 54.7979 14.4468 55.5398 15.8706 56.2828C17.6569 57.2368 19.4825 58.2152 21.0853 59.4544C22.6846 60.7249 22.2527 60.9603 20.2042 59.8891Z" fill="white"/>
<path d="M47.0976 57.6982C46.4025 58.0645 45.421 58.2268 44.5457 58.2952C43.5272 58.3787 42.4221 58.4007 41.3598 58.388C39.9453 58.3543 38.212 58.3114 36.9961 57.8385L36.9765 57.8304C35.8391 57.4409 34.3657 55.8435 35.8864 55.0204C37.1751 54.4176 38.9003 54.8593 40.4799 54.8245C41.6912 54.85 42.9037 54.8361 44.1127 54.7631C45.653 54.719 47.7928 54.231 48.4475 55.5803C48.7327 56.495 47.8874 57.2902 47.0976 57.6982Z" fill="white"/>
<path d="M53.1622 79.6074C46.257 79.9795 39.1855 80.0062 32.271 79.7013C31.3588 79.6514 30.3519 79.6387 29.4824 79.4231C27.1371 78.7913 27.6545 77.2507 29.2445 76.1576C30.1221 75.5258 31.1867 75.0505 32.0932 74.4141C32.8322 73.9041 33.5066 73.3013 34.0886 72.6173L34.1036 72.5999C35.6728 70.7174 36.6359 68.3433 37.092 65.9391C37.1809 65.4661 37.2502 64.9885 37.2998 64.5098C37.5181 62.9784 37.1797 61.3022 38.279 60.2473C39.2074 59.5019 40.4741 59.626 41.6289 59.5854C43.5191 59.575 45.8701 59.2492 46.2639 61.5688C46.4406 62.4869 46.4163 63.5291 46.5399 64.4762C46.9371 67.7741 48.1773 71.0976 50.6495 73.3557C51.9197 74.5984 53.7072 75.2464 55.0305 76.3929C57.1979 78.3021 55.2776 79.4949 53.1622 79.6074Z" fill="white"/>
<path d="M55.1402 93.3638C48.2269 94.006 41.2178 94.224 34.2745 93.7278C31.7491 93.5342 29.2445 93.3568 26.7053 93.0323C25.4651 92.8572 24.1072 92.6636 23.121 91.8835C21.7608 90.8263 21.7943 88.8058 21.9663 87.2107C22.2123 85.3316 22.3035 83.0016 23.7238 81.7624C24.8716 80.7701 26.703 80.835 28.2203 80.8779C33.2098 81.0703 38.1797 81.5189 43.1773 81.4563C47.8539 81.4471 52.5236 80.8594 57.1945 80.7852C61.3838 80.8118 61.6413 83.6125 62.0073 87.0739L62.0096 87.0971C62.7775 92.6034 59.5663 92.8665 55.1402 93.3638Z" fill="white"/>
<path d="M79.5683 18.0704H79.5729C79.5925 18.0472 79.5948 18.0356 79.5683 18.0704ZM79.5683 18.0704H79.5729C79.5925 18.0472 79.5948 18.0356 79.5683 18.0704ZM79.5683 18.0704H79.5729C79.5925 18.0472 79.5948 18.0356 79.5683 18.0704Z" fill="white"/>
<path d="M82.4897 11.3701L82.4759 11.3528C80.7692 9.22559 77.9609 8.66917 75.3339 8.65294C73.8767 8.59845 71.8952 9.05518 70.7647 7.94466C69.8075 6.81558 70.0742 5.04893 69.2232 3.81437C68.2786 2.45693 66.7948 2.10452 65.1308 1.71155C63.1112 1.27569 60.7406 1.00791 58.7083 0.822432C50.8447 0.157042 42.9418 -0.18029 35.047 0.0979214C29.7018 0.21848 23.9074 0.505966 18.5818 1.51217C17.105 1.82515 15.702 2.10916 14.6512 3.10261C12.5484 5.20311 14.5057 8.41646 10.3556 8.64714C7.31641 8.75263 3.87765 8.5857 1.73565 11.187C-2.45021 16.4046 1.7853 28.0976 5.49195 32.7983C7.99192 35.9652 11.3475 38.3416 14.9214 40.1616C17.0195 41.2976 19.4363 41.8761 21.5102 43.026C22.8855 43.783 24.0252 44.89 25.0748 46.0574C26.0864 47.1691 27.1602 48.2552 28.3404 49.193C31.2318 51.5567 34.7017 52.8886 38.4476 53.2491C41.2224 53.532 44.0595 53.4972 46.8066 53.0498C50.8424 52.3751 54.6783 50.0161 57.5074 47.0601C60.0963 44.2131 61.1505 43.237 64.8941 41.9016C74.3016 38.6164 79.5925 33.7268 82.6456 24.096C83.2276 22.2042 83.8361 19.8591 83.9724 17.565C84.1063 15.2848 83.7749 13.0545 82.4897 11.3701ZM18.9259 36.4741C18.0842 37.2207 15.5992 35.7183 14.6477 35.1909L14.6281 35.1781C10.2863 32.6023 7.21941 29.0389 5.44923 24.2861C4.67095 22.1369 4.13169 19.8614 4.01853 17.5743C3.83724 13.1171 6.84298 12.2906 10.7505 12.7496C13.8533 13.0301 14.6731 14.4989 15.0646 17.4131C15.538 20.7517 15.9687 24.074 16.7285 27.3801C17.2135 29.4667 17.8163 31.5602 18.5229 33.5517C18.7654 34.3539 19.449 35.818 18.9259 36.4741ZM52.2176 39.5414C50.7892 41.6002 48.6761 43.2242 46.5838 44.591C45.8251 45.0964 45.1057 45.589 44.4244 46.0643C43.6519 46.5952 42.7616 47.1667 41.8252 47.2282H41.809C39.9788 47.3487 38.0423 45.3468 36.4938 44.3487C35.1243 43.4109 33.7179 42.5206 32.5528 41.3312C30.3623 39.08 28.8727 36.1182 28.2607 33.0255C27.7942 30.1807 27.2365 26.5304 30.4108 25.2367C36.092 23.1084 47.2974 23.9557 52.8828 26.3658C53.4786 26.6637 53.9901 27.0451 54.3735 27.5331C56.631 30.4636 54.1391 36.8625 52.2176 39.5414ZM57.4681 24.5156C57.0975 25.734 55.5236 25.9624 54.3689 25.6899C53.7338 25.5601 53.0548 25.3074 52.422 25.0813C46.7627 23.0446 40.4915 22.931 34.5262 23.4515C33.368 23.5825 32.2537 23.8097 31.1579 24.1528C30.502 24.3557 29.8334 24.6466 29.1949 24.8623C28.2434 25.195 27.2457 25.3051 26.6152 24.467C25.7573 23.2347 26.0898 21.4507 26.5217 20.0828C27.1903 18.1481 28.5967 16.6596 30.1868 15.4796C32.2225 13.9308 34.6047 13.109 37.1393 12.8192C38.7259 12.6406 40.2039 12.1746 41.2836 10.9888C42.488 9.7171 43.2697 7.95277 44.8494 7.02887C45.5722 6.59649 46.5018 6.07368 47.2881 6.50375L47.2974 6.50955C48.7269 7.68383 45.5999 10.1877 45.3113 11.3852C44.8702 12.9699 47.1692 13.3941 48.4417 13.8822C49.3528 14.1975 50.2442 14.5731 51.0929 15.0298C52.8516 15.9687 54.4566 17.3088 55.5675 19.0013C56.4035 20.2961 57.8804 23.1976 57.4681 24.5156ZM79.2334 20.8664C78.4147 25.7178 76.4713 29.6452 72.7658 32.9223L72.7497 32.9374C71.7243 33.8671 70.6631 34.7457 69.5165 35.5189C68.5049 36.1808 64.983 38.3892 64.0974 37.238C63.7948 36.7523 63.9646 36.1229 64.2013 35.2639C64.7429 33.5784 65.3895 31.85 65.8953 30.1436C66.9472 26.7135 67.7082 23.0527 68.207 19.5136C68.513 17.8107 68.4368 15.592 69.5904 14.2485C70.8606 12.8887 72.8536 12.9745 74.7381 12.9061C76.3305 12.8771 78.387 13.1808 79.1595 14.6994C80.0163 16.4058 79.4979 18.9387 79.2334 20.8664Z" fill="white"/>
<path d="M46.2593 35.3149L46.2489 35.3369C45.011 38.2222 41.6139 39.4556 38.8957 37.8188C35.674 35.9316 35.2906 31.2692 38.3379 29.0447C42.6312 25.916 48.3828 30.3442 46.2593 35.3149Z" fill="white"/>
</svg>
