<svg width="29" height="51" viewBox="0 0 29 51" fill="none" xmlns="http://www.w3.org/2000/svg">
<path d="M26.9494 20.4642H6.56569V9.04048C6.56569 6.28616 8.76823 4.04616 11.4747 4.04616H17.5246C20.2318 4.04616 22.4336 6.28697 22.4336 9.04048V20.9016H23.7397L23.8022 22.1557H22.4961L22.4336 23.4098H26.4106V9.04048C26.4106 7.8243 26.1741 6.64112 25.7081 5.52474C25.2595 4.45022 24.6179 3.48435 23.8022 2.65371C22.9866 1.82387 22.0372 1.17111 20.9803 0.714739C19.8829 0.240661 18.72 0 17.5246 0H11.4747C10.2793 0 9.11633 0.240661 8.01902 0.714739C6.96285 1.17111 6.01269 1.82387 5.19702 2.65371C4.38136 3.48355 3.73974 4.44941 3.29117 5.52474C2.82519 6.64112 2.58864 7.8243 2.58864 9.04048V20.4642H2.05066C0.922498 20.4642 3.00271e-05 21.4027 3.00271e-05 22.5505V36.3535C3.00271e-05 36.3648 3.00271e-05 36.3768 0.000821166 36.3881C0.0743971 44.4708 6.538 51 14.5 51C22.4621 51 28.9257 44.4708 28.9992 36.3881C28.9992 36.3768 29 36.3648 29 36.3535V22.5505C29 21.4027 28.0776 20.4642 26.9494 20.4642ZM16.2532 34.553C16.5159 36.8646 16.7168 41.3792 16.7168 41.3792C16.7168 41.6923 16.4652 41.9482 16.1575 41.9482H12.8426C12.5348 41.9482 12.2833 41.6923 12.2833 41.3792C12.2833 41.3792 12.4842 36.8646 12.7469 34.553C11.7271 33.9412 11.0435 32.8128 11.0435 31.5218C11.0435 29.5796 12.591 28.0052 14.5 28.0052C16.409 28.0052 17.9565 29.5796 17.9565 31.5218C17.9565 32.8128 17.2722 33.9412 16.2532 34.553Z" fill="#F3FF90"/>
</svg>
