<svg width="29" height="51" viewBox="0 0 29 51" fill="none" xmlns="http://www.w3.org/2000/svg">
<path d="M26.9493 20.4642H6.56566V9.04047C6.56566 6.28615 8.76819 4.04616 11.4747 4.04616H17.5245C20.2318 4.04616 22.4335 6.28696 22.4335 9.04047V20.9016H23.7397L23.8022 22.1557H22.496L22.4335 23.4098H26.4106V9.04047C26.4106 7.82429 26.174 6.64111 25.708 5.52473C25.2595 4.45021 24.6179 3.48435 23.8022 2.65371C22.9865 1.82387 22.0372 1.17111 20.9802 0.714738C19.8829 0.240661 18.7199 0 17.5245 0H11.4747C10.2793 0 9.11629 0.240661 8.01898 0.714738C6.96281 1.17111 6.01265 1.82387 5.19699 2.65371C4.38132 3.48354 3.73971 4.44941 3.29113 5.52473C2.82515 6.64111 2.5886 7.82429 2.5886 9.04047V20.4642H2.05063C0.922467 20.4642 -4.90461e-07 21.4027 -4.90461e-07 22.5505V36.3534C-4.90461e-07 36.3647 -4.90508e-07 36.3768 0.000790648 36.3881C0.0743665 44.4707 6.53797 50.9999 14.5 50.9999C22.462 50.9999 28.9256 44.4707 28.9992 36.3881C28.9992 36.3768 29 36.3647 29 36.3534V22.5505C29 21.4027 28.0775 20.4642 26.9493 20.4642ZM16.2531 34.5529C16.5158 36.8646 16.7168 41.3792 16.7168 41.3792C16.7168 41.6923 16.4652 41.9482 16.1574 41.9482H12.8425C12.5348 41.9482 12.2832 41.6923 12.2832 41.3792C12.2832 41.3792 12.4842 36.8646 12.7468 34.5529C11.727 33.9412 11.0435 32.8128 11.0435 31.5217C11.0435 29.5795 12.591 28.0052 14.5 28.0052C16.409 28.0052 17.9565 29.5795 17.9565 31.5217C17.9565 32.8128 17.2721 33.9412 16.2531 34.5529Z" fill="#F3FF90"/>
</svg>
