<svg width="88" height="92" viewBox="0 0 88 92" fill="none" xmlns="http://www.w3.org/2000/svg">
<ellipse cx="43.75" cy="45.8125" rx="38.5" ry="40" fill="#F1E61C"/>
<path d="M81.194 44.9376C82.7358 16.7472 52.1317 -3.13645 27.2747 9.38908C18.7158 13.2496 11.9965 20.5768 8.79549 29.2621C2.35467 46.1535 8.70719 66.5879 25.046 75.6488C48.6076 89.335 80.4915 72.9334 81.193 44.9599V44.9386L81.194 44.9376ZM38.5612 6.05513C38.5525 6.05609 38.4807 6.06287 38.4545 6.0648C38.4128 6.06771 38.537 6.05609 38.5593 6.05513H38.5612ZM31.8225 7.69112C31.8167 7.69306 31.7536 7.71049 31.7575 7.70855C31.7507 7.70952 31.8138 7.69209 31.8225 7.69112ZM6.26011 41.8437C6.26011 41.865 6.24555 42.2019 6.25137 42.0412C6.25332 41.9948 6.2572 41.8854 6.26011 41.8437ZM8.87796 56.7719C8.87602 56.7603 8.87602 56.7497 8.87796 56.7419C8.87796 56.7516 8.87796 56.7623 8.87796 56.7719ZM27.7783 76.8569C27.7851 76.8589 27.8404 76.8743 27.8336 76.8734C27.8375 76.8753 27.7832 76.8598 27.7783 76.8569ZM39.3142 80.1454C39.3229 80.1463 39.3966 80.158 39.3908 80.158C39.3937 80.158 39.3209 80.1473 39.3142 80.1454ZM46.5904 78.2035C46.5826 78.2035 46.5205 78.2093 46.4982 78.2103C46.4623 78.2122 46.57 78.2035 46.5894 78.2025L46.5904 78.2035ZM57.7915 76.2277C57.7857 76.2229 57.7313 76.1473 57.7236 76.1299C57.7187 76.1202 57.7236 76.1232 57.7362 76.1377C57.7546 76.1599 57.7789 76.1987 57.7924 76.2267L57.7915 76.2277ZM78.5432 48.4119C78.1104 50.1118 77.7407 51.9917 77.2798 53.6974C76.8898 55.0905 76.296 56.436 75.738 57.8116C75.4625 58.4873 75.1083 59.1195 74.7124 59.7342C71.6851 64.4873 68.1484 68.9877 63.6278 72.1997C61.9259 73.4058 60.0823 74.5356 58.1107 75.2819C57.1035 75.6856 56.1759 76.0951 55.1872 76.432C53.8598 76.855 52.4985 77.1493 51.1285 77.4203C49.5983 77.7746 47.9343 78.0399 46.3711 78.1551C45.5085 78.249 44.6314 78.3187 43.76 78.2848C40.8686 78.1996 37.9587 77.8134 35.1497 77.1764C33.2867 76.6895 31.5062 76.1048 29.7577 75.2538C28.7486 74.8076 27.6861 74.4542 26.7382 73.8899C25.8785 73.3691 25.0062 72.7747 24.1766 72.1832C23.0132 71.3913 21.9449 70.6547 20.9135 69.6924C19.0884 68.1194 17.4971 66.3643 15.9776 64.4853C13.2356 60.3314 10.4993 55.7536 9.47954 50.9985C9.26414 49.8166 8.90998 48.7207 8.746 47.5271C8.58784 46.3781 8.61792 45.1951 8.57717 44.0354C8.50246 40.8718 8.67711 37.5098 9.63673 34.4479C10.1762 32.9416 10.3722 31.2891 11.034 29.8332C11.9645 27.7713 13.2666 25.8507 14.428 23.8788C14.7754 23.2524 15.0539 22.6019 15.4566 22.0104C15.9242 21.3318 16.521 20.7094 17.0692 20.0928C19.7899 16.8227 23.2655 14.5274 27.0351 12.1867C28.019 11.6098 29.0319 11.1751 30.1109 10.8344C31.0482 10.5236 31.9952 10.1374 32.9384 9.84793C33.7699 9.57881 34.615 9.39489 35.4553 9.20708C36.707 8.89731 38.0081 8.60786 39.3093 8.45975C41.5546 8.22645 43.7833 8.20032 45.9859 8.23807C46.8223 8.25646 47.7266 8.39198 48.5164 8.55752C50.1921 8.93699 51.9231 9.14223 53.5726 9.60883C54.4139 9.8702 55.228 10.1925 56.0653 10.4733C57.3141 10.907 58.4649 11.3106 59.6234 11.9563C60.3113 12.3329 60.9779 12.8101 61.6232 13.2671C62.7215 14.0396 63.948 14.6833 64.929 15.5836C65.3607 15.9718 65.7702 16.3803 66.1923 16.7811C66.6299 17.1983 67.085 17.6029 67.542 17.9979C70.4005 20.4345 72.2469 23.6406 74.4602 26.7839C78.1065 32.9784 79.399 41.7866 78.549 48.3925L78.5451 48.4109L78.5432 48.4119ZM78.7605 48.1176C78.7605 48.1089 78.7673 48.0334 78.7673 48.0402C78.7673 48.0373 78.7615 48.1109 78.7605 48.1176Z" fill="#F3FF90"/>
<path d="M38.3564 74.7563C38.4321 74.4813 38.3041 74.0447 38.1139 73.5549C37.8762 72.9702 37.6142 72.2974 37.327 71.7447C37.1251 71.3497 36.7797 70.8308 36.3489 71.2103C35.955 71.5646 35.6794 72.1387 35.3738 72.7708C34.9818 73.6149 34.7353 74.4387 35.8463 74.8018C36.3741 74.9779 38.1682 75.4716 38.3526 74.7679L38.3564 74.7563Z" fill="#F3FF90"/>
<path d="M46.1159 14.9814C45.2533 15.7259 44.2695 16.6968 44.1035 17.812C43.8522 19.7984 45.885 21.5864 47.5073 22.3909C47.9585 22.5767 48.3845 22.5438 48.8143 22.2969C49.2878 22.0278 49.7177 21.6116 50.1766 21.3028C50.7666 20.8885 51.4332 20.6068 52.0978 20.3067C54.084 19.4277 55.4987 18.5951 55.9421 16.3299C56.0741 15.7259 56.1876 15.1247 56.1983 14.5158C56.2817 13.3164 55.0989 12.9185 54.1626 12.4374C53.1651 11.9631 52.1075 11.3348 51.0014 11.8295C50.4861 12.0289 50.0272 12.3542 49.5692 12.661C48.4097 13.4335 47.1881 14.0821 46.1315 14.9689L46.1159 14.9814Z" fill="#F3FF90"/>
<path d="M29.7335 22.5602C27.2369 25.1081 25.9542 29.4662 29.816 30.9618C30.5175 31.2764 31.2821 31.5843 31.937 31.9783C32.5182 32.3113 33.3061 32.9367 33.7602 33.0809C34.3928 33.2726 34.7557 32.9086 35.3903 32.4362C35.9376 31.9802 36.6391 31.4391 36.9738 30.8525C37.5356 29.8621 36.9661 28.7479 36.8409 27.6356C36.741 26.9561 36.7371 26.2736 36.5731 25.6066C36.3237 24.5544 35.6678 23.6792 34.8615 22.9329C32.9025 21.1526 31.906 20.2737 29.749 22.5457L29.7345 22.5612L29.7335 22.5602Z" fill="#F3FF90"/>
<path d="M55.2959 37.6272C55.5646 38.3919 55.7228 39.2138 55.8974 40.0037C56.0964 40.9553 56.3321 41.8614 57.0463 41.9504C57.545 42.0589 58.3853 41.9166 59.211 41.7268C59.9135 41.5652 60.6092 41.3532 61.3156 41.0047C66.5746 38.4326 65.057 33.8741 59.5108 32.271C58.0117 31.8131 56.303 31.6989 54.9766 32.6175C52.6994 34.1761 54.6991 35.753 55.29 37.6088L55.2968 37.6281L55.2959 37.6272Z" fill="#F3FF90"/>
<path d="M71.0224 59.374C70.3199 58.6848 69.5165 58.0701 68.814 57.2482C68.0572 56.4089 67.4488 55.346 66.6435 54.6064C65.6091 53.6219 64.3439 53.3605 62.9758 53.833C61.5048 54.3228 60.3793 55.165 60.4831 56.861C60.4928 57.7681 60.716 58.8716 61.2904 59.6625C61.6562 60.1921 62.1636 60.5967 62.6682 60.9878C63.3076 61.4892 63.9538 61.9907 64.5409 62.5483C64.9261 62.9132 65.287 63.3062 65.6024 63.7331C66.1021 64.3963 66.4572 65.1155 66.9462 65.2491C67.9854 65.5086 69.6359 63.193 70.1928 62.4021C70.5819 61.8203 70.8711 61.3392 71.1078 60.8009C71.362 60.2579 71.4008 59.7477 71.0302 59.3837L71.0224 59.374Z" fill="#F3FF90"/>
<path d="M58.5425 59.0282C58.8384 57.278 58.5599 55.3264 57.3005 54.0099C56.4204 53.1028 55.0125 52.1309 53.7832 51.8666C52.9652 51.6943 52.1182 51.9247 51.4341 52.3894C50.2348 53.1686 49.509 54.2674 49.9816 55.7078C50.2562 56.6159 50.4677 57.5655 50.5725 58.5142C50.6491 59.1337 50.7229 59.762 50.9693 60.3361C51.4506 61.5113 52.581 62.0524 53.6871 62.6574C54.5487 63.0843 55.6558 63.974 56.6378 63.5606C57.805 62.9933 58.2708 60.3922 58.5386 59.0495L58.5415 59.0292L58.5425 59.0282ZM58.1165 55.9702L58.1029 55.9895C58.0942 55.9798 58.1097 55.9769 58.1165 55.9702Z" fill="#F3FF90"/>
<path d="M65.8963 23.6366C63.5085 24.5379 60.1483 26.3704 59.8601 29.0751C59.8407 29.503 60.0261 29.8728 60.3608 30.1235C60.7907 30.4681 61.5873 30.7285 62.2073 31.1254C62.8846 31.5194 63.4842 32.0973 64.1721 32.4516C65.2647 33.017 66.2282 31.9473 67.084 31.3684C68.2901 30.3723 71.3426 29.4052 71.5619 27.8341C71.657 26.686 70.7895 25.6889 70.1841 24.7712C69.8309 24.2726 69.5039 23.7993 69.1255 23.5021C68.2154 22.7635 66.9646 23.2775 65.9138 23.6298L65.8963 23.6366Z" fill="#F3FF90"/>
<path d="M54.8224 21.2437C54.2761 21.2504 53.7075 21.4702 53.2069 21.7025C51.3905 22.5573 49.8991 23.7451 49.513 25.627C49.3975 26.1904 49.3626 26.7654 49.316 27.3443C49.284 27.7751 49.2481 28.2049 49.2131 28.6085C49.1559 29.3259 49.0938 29.9386 49.3402 30.4565C49.6381 31.1264 50.9315 32.1758 51.6505 32.2097C52.091 32.1884 52.4403 31.8418 52.7916 31.593C53.4291 31.0935 54.3712 30.4352 55.2105 30.0432C55.7937 29.7528 56.4379 29.5853 56.926 29.3026C57.5926 28.9415 58.0156 28.2707 58.1476 27.5205C58.493 25.7325 57.9041 23.7664 56.7611 22.3782C56.2963 21.7703 55.6462 21.2291 54.8399 21.2456H54.8214L54.8224 21.2437Z" fill="#F3FF90"/>
<path d="M57.054 70.2916C56.5097 67.2539 55.9809 65.9887 53.1748 64.617C52.614 64.3217 52.0425 64.0178 51.534 63.647C51.1314 63.3721 50.7238 62.9742 50.2794 62.8455C49.4469 62.6654 48.9375 63.6993 48.5397 64.3324C46.734 67.0139 48.5077 70.0051 50.2649 72.5104C50.7617 73.1774 51.2507 74.4775 52.0706 74.6643C52.5674 74.7824 53.2456 74.4988 53.9801 74.2606C56.2613 73.5365 57.5964 73.1048 57.0589 70.3139L57.055 70.2897L57.054 70.2916Z" fill="#F3FF90"/>
<path d="M31.5732 15.0819C32.1097 17.5359 33.864 19.6298 35.7445 21.2223C36.3742 21.7285 36.9379 22.3394 37.5812 22.8166C38.4836 23.4884 39.0677 22.6037 39.7033 21.9957C40.497 21.1535 41.8806 20.2494 41.2538 18.959C41.0869 18.5727 40.8074 18.1884 40.5581 17.8331C37.9994 14.5786 40.2427 11.1256 38.4069 11.0297C38.046 11.021 37.6375 11.1498 37.2707 11.2688C36.6818 11.4663 36.0908 11.6677 35.4844 11.8012C33.4934 12.2301 31.0977 12.415 31.5702 15.0616L31.5732 15.0819Z" fill="#F3FF90"/>
<path d="M15.2489 28.7478C16.0309 29.5591 17.204 30.1147 18.3335 30.3287C19.7743 30.591 21.2521 30.3451 22.7299 30.2541C23.541 30.1883 24.3095 30.2212 24.8102 29.6791C25.1032 29.3519 25.2128 28.8369 25.2575 28.2638C25.3167 27.32 25.3632 26.3606 25.0721 25.4507C24.4997 23.593 22.7619 22.593 21.0949 21.7508C20.504 21.4662 19.7889 21.0122 19.1514 21.3394C18.7982 21.5175 18.4664 21.9473 18.0608 22.4865C17.6717 23.0044 17.237 23.6191 16.8169 24.2522C16.1891 25.2125 15.6642 26.0567 15.2363 26.9879C14.9093 27.7169 14.7841 28.198 15.2392 28.7372L15.2489 28.7478ZM21.3724 29.9424C21.3239 29.9618 21.3181 29.8853 21.3714 29.9347L21.3724 29.9424Z" fill="#F3FF90"/>
<path d="M32.0379 35.81C32.1213 34.5815 30.8503 33.7306 29.781 33.295C28.7457 32.8981 27.6434 32.7858 26.5373 32.5816C25.0722 32.3541 22.8822 31.933 21.5451 32.5729C20.8252 32.9301 20.7029 33.7965 20.9251 34.5109C21.5888 36.9668 24.3813 38.9 26.9914 39.7025C27.8947 39.9716 28.9543 40.2882 29.8712 39.9794C30.7629 39.6531 31.023 38.658 31.4645 37.627C31.7226 37.0055 32.002 36.3908 32.0379 35.8284V35.81Z" fill="#F3FF90"/>
<path d="M56.6039 50.7915C58.7084 52.4294 59.1237 53.1729 61.923 52.1835C62.8875 51.8447 64.0839 51.6492 64.6806 50.8041C66.6309 47.4024 59.3323 42.3056 56.8649 44.6115C56.2468 45.1603 55.9402 45.9329 55.5724 46.6899C55.3221 47.2368 55.0679 47.7615 54.9068 48.1884C54.3305 49.4943 55.6646 50.0713 56.5883 50.7808L56.6039 50.7915Z" fill="#F3FF90"/>
<path d="M26.7401 51.4525C27.7308 51.7159 28.8553 51.9104 29.9052 51.7246C30.9424 51.5639 32.2203 50.9995 32.2222 49.8078C32.1844 48.8059 31.5013 48.0276 31.1501 47.0915C30.8871 46.4265 30.761 45.7178 30.6601 45.0092C30.5291 44.0877 30.467 42.9018 29.3997 42.6579C27.8744 42.319 26.7149 43.5552 25.6233 44.4846C24.8267 45.167 23.9864 45.8185 23.4207 46.7188C22.6697 47.8659 22.2564 49.7168 23.5536 50.5261C24.065 50.8533 24.6986 50.9792 25.2876 51.1137C25.7843 51.2222 26.2588 51.3325 26.7207 51.4487L26.7391 51.4535L26.7401 51.4525ZM23.8564 50.5523C23.9117 50.5484 23.9107 50.5552 23.8544 50.5523H23.8564Z" fill="#F3FF90"/>
<path d="M20.1363 47.2995C19.7375 46.9849 19.1175 46.9588 18.6071 47.012C16.5064 47.1514 13.2637 49.0507 12.5826 51.0701C12.2546 52.224 12.7427 53.4176 13.1007 54.5105C13.5082 55.7099 14.0341 56.0884 15.2994 55.9393C16.5404 55.7854 18.0317 55.92 18.9778 54.98C20.4623 53.3488 20.7961 50.6916 20.6962 48.6016C20.6593 48.1156 20.5244 47.6016 20.1479 47.3092L20.1363 47.2995Z" fill="#F3FF90"/>
<path d="M29.7296 59.1458C29.9237 58.6095 29.9207 58.0471 29.9013 57.3859C29.879 56.7818 29.8586 56.1749 29.8014 55.5834C29.652 54.0926 29.2745 54.0761 27.6687 53.8448C27.3563 53.8003 27.0438 53.7538 26.7236 53.7025C25.1178 53.505 23.4431 52.5921 22.3359 54.2281C21.2376 55.9164 21.7256 58.2716 22.0594 60.351C22.1574 60.8815 22.2845 61.5156 22.7532 61.8089C23.1394 62.0509 23.6808 62.0131 24.1388 61.956C26.0056 61.6801 28.9669 61.0286 29.7238 59.1613L29.7296 59.1458ZM28.0762 54.4217C28.0946 54.4421 28.05 54.4701 28.0675 54.4246L28.0762 54.4217Z" fill="#F3FF90"/>
<path d="M36.4848 61.2716C38.2051 60.35 39.3404 58.5756 39.4723 56.6201C39.5063 56.1981 39.4947 55.7383 39.3414 55.352C38.9658 54.4382 37.915 54.0723 37.0932 53.5611C36.5983 53.2756 36.086 52.9706 35.6222 52.7218C34.4181 52.0578 33.7981 51.9087 32.9927 53.0994C31.9477 54.5292 31.8148 56.2029 32.1097 57.8525C32.2524 58.7992 32.4251 59.7711 32.7375 60.6801C33.015 61.3936 33.2741 62.047 34.0115 62.1719C34.6296 62.2687 35.7386 61.7092 36.4664 61.2823L36.4848 61.2716ZM32.1301 56.5311C32.1311 56.5233 32.1321 56.5224 32.133 56.5253C32.1369 56.6076 32.1272 56.7334 32.1214 56.7828C32.1088 56.8118 32.1253 56.5466 32.1282 56.5398L32.1301 56.5311Z" fill="#F3FF90"/>
<path d="M47.9207 60.9026C48.4301 59.4109 48.5329 56.2454 47.1124 55.2803C46.4448 54.8688 45.7753 54.9995 44.9254 55.0702C43.4253 55.2125 41.9466 55.1399 41.6584 56.9617C41.2014 59.6258 41.6691 62.6761 43.6543 64.5648C44.0599 64.9433 44.5877 65.3034 45.1349 65.1407C46.2062 64.8387 47.5073 62.0091 47.9148 60.9191L47.9207 60.9026ZM41.7321 60.3673C41.7321 60.3673 41.737 60.4525 41.7379 60.4893C41.7379 60.5609 41.7292 60.3857 41.7312 60.3683L41.7321 60.3673ZM47.943 60.802C47.9391 60.8533 47.9449 60.8542 47.943 60.802V60.802Z" fill="#F3FF90"/>
<path d="M70.6256 31.7521C70.0162 32.1945 69.3816 32.5362 68.7413 32.9253C68.1193 33.3116 67.5294 33.6833 67.1752 34.2874C66.6891 35.1238 66.7289 36.3551 67.2829 37.1063C67.7603 37.691 68.5443 37.8149 69.2429 38.0085C70.807 38.4151 72.44 39.2109 74.04 38.9437C75.0724 38.8024 75.7342 38.0705 75.6759 37.0115C75.5595 35.3803 74.8483 33.8518 74.3117 32.3203C74.0614 31.6408 73.8382 30.9099 73.453 30.5788C72.6331 29.8934 71.4125 31.2545 70.6421 31.7405L70.6256 31.7521ZM68.8587 37.5032C68.8499 37.5032 68.7801 37.4974 68.7869 37.4974C68.782 37.4965 68.8519 37.5023 68.8587 37.5032Z" fill="#F3FF90"/>
<path d="M46.6117 24.2127C46.1887 23.3588 45.2854 22.8622 44.5343 22.2998C43.7659 21.719 43.011 21.295 42.1833 21.8565C40.1651 23.4208 38.0935 26.2572 39.3413 28.7538C39.7818 29.5844 40.6881 29.596 41.5158 29.5272C42.1203 29.4924 42.7296 29.4895 43.3331 29.5563C45.1815 29.7664 46.703 30.202 47.0396 28.1265C47.2211 26.9368 47.1328 25.3085 46.6215 24.232L46.6117 24.2127ZM46.8757 26.5708C46.8747 26.5592 46.8776 26.475 46.8766 26.474C46.8766 26.4711 46.8757 26.5631 46.8757 26.5708Z" fill="#F3FF90"/>
<path d="M57.8167 20.3175C58.2223 21.3446 59.0606 22.3049 59.6224 23.2836C60.4472 24.5401 60.2298 24.6737 61.6727 23.6418C62.1656 23.3146 62.6924 23.0039 63.2261 22.7251C63.9247 22.3572 64.6272 22.0629 65.3559 21.7861C65.9002 21.5402 67.1306 21.2227 66.8084 20.4482C66.3912 19.5731 64.3439 18.4589 63.2387 17.7261C62.7012 17.3737 62.2655 16.9933 61.791 16.5489C60.8246 15.7 59.4526 14.2179 58.6201 15.003C58.1835 15.516 58.1117 16.2595 57.9525 16.9061C57.7197 18.0029 57.3849 19.2265 57.8109 20.3001L57.8167 20.3175ZM60.1309 24.0948C60.1338 24.1006 60.1571 24.152 60.1551 24.1481C60.1561 24.1529 60.1328 24.1016 60.1309 24.0948Z" fill="#F3FF90"/>
<path d="M34.2531 65.395C33.8999 65.0088 33.3381 64.9488 32.7899 64.6003C32.4212 64.3786 32.0884 64.0282 31.8012 63.6864C31.5052 63.3612 31.2432 62.9488 30.8076 62.8684C29.7868 62.7126 29.0116 65.5596 28.5652 67.487C28.2635 68.849 27.7056 70.4405 28.7244 71.6341C29.2493 72.2614 30.0168 72.6505 30.7629 72.9622C32.1068 73.515 33.047 73.4618 33.6632 72.1956C34.0125 71.5034 34.2046 70.7077 34.3443 69.9052C34.4782 69.1104 34.551 68.3185 34.584 67.5267C34.6043 66.5983 34.6694 65.9023 34.2609 65.4057L34.2521 65.396L34.2531 65.395Z" fill="#F3FF90"/>
<path d="M74.9162 51.3103C74.531 50.9144 73.8887 50.653 73.2832 50.3635C72.9087 50.1854 72.539 49.9947 72.1751 49.7972C71.1612 49.2551 70.1385 48.4836 68.9392 48.4943C64.3177 48.8185 68.9208 55.2057 71.7579 57.1699C72.7729 57.8078 73.5404 57.197 73.9838 56.1292C74.302 55.3461 74.5621 54.5765 74.9007 53.7875C75.2277 52.9521 75.5925 52.0034 74.9279 51.3238L74.9162 51.3122V51.3103Z" fill="#F3FF90"/>
<path d="M23.0957 20.8681C23.8253 21.2224 24.4764 21.6232 25.1013 22.1227C25.6708 22.5631 26.4277 23.2708 27.1447 22.7442C27.6687 22.3676 28.1558 21.4867 28.7418 20.993C29.3793 20.3598 30.5766 19.688 30.7668 18.8662C30.8978 18.1479 30.3583 17.3076 30.1332 16.5158C29.7402 15.5274 29.7839 13.4064 28.2809 14.0889C26.8012 14.8042 25.4913 15.8643 24.2076 16.8768C23.4537 17.5138 22.6076 18.0733 21.9071 18.7587C20.9154 19.7819 22.1894 20.4315 23.0753 20.8574L23.0947 20.8671L23.0957 20.8681Z" fill="#F3FF90"/>
<path d="M11.882 38.5235C12.6844 39.2447 13.8682 39.3454 14.791 38.8237C15.6894 38.3474 16.6122 37.5884 17.5738 37.1363C18.1598 36.8246 18.8371 36.48 18.9681 35.7762C19.1194 34.7182 18.4363 33.1083 17.599 32.3552C17.0838 31.8857 16.4337 31.5614 15.7952 31.2652C14.3543 30.6059 13.287 30.2661 12.8911 32.0686C12.6534 33.2351 12.471 34.2806 11.9237 35.3696C11.4192 36.4422 10.8438 37.6059 11.8675 38.511L11.882 38.5235Z" fill="#F3FF90"/>
<path d="M43.1449 69.1047C43.8998 67.1406 41.8592 65.7747 40.7667 64.3778C40.1185 63.6295 39.7886 62.4969 39.0531 62.2752C38.503 62.1474 37.9567 62.6624 37.6006 63.1096C37.1126 63.7311 36.7623 64.5007 36.6817 65.2848C36.479 66.9905 37.7161 68.3632 38.4923 69.7475C38.8164 70.3361 39.0357 70.9934 39.2685 71.6158C40.069 73.8027 40.9316 73.0001 42.2357 70.8762C42.5908 70.307 42.944 69.6991 43.139 69.1241L43.1449 69.1047Z" fill="#F3FF90"/>
<path d="M65.154 66.9983C64.9813 66.1416 64.3895 65.3584 63.8131 64.6682C63.3328 64.1038 62.7623 63.6769 62.2073 63.281C61.6028 62.9035 60.8081 61.9896 60.0503 62.2007C59.3798 62.493 59.1334 63.2442 58.7258 64.0419C58.5328 64.462 58.3513 64.9034 58.2359 65.3468C57.8846 66.553 58.36 67.6265 58.6832 68.8172C59.2013 70.6284 59.0334 72.6062 61.3767 70.5946C62.1617 69.9257 63.0039 69.309 63.882 68.7572C64.4865 68.3661 65.3035 67.8134 65.157 67.0147L65.154 66.9983Z" fill="#F3FF90"/>
<path d="M65.6178 45.9519C66.5173 47.1291 67.2654 46.9674 68.3143 46.1678C69.3952 45.3421 70.4528 44.3546 71.0253 43.0904C71.2611 42.5376 71.4891 41.9103 71.2562 41.3353C71.036 40.7971 70.1666 40.5861 69.5437 40.3944C68.7781 40.1892 68.0426 39.7961 67.2606 39.6655C65.7333 39.4263 65.0201 41.042 64.1003 41.9684C63.8985 42.1901 63.7083 42.3857 63.5162 42.5967C63.1698 42.98 63.1581 43.0817 63.4948 43.4524C63.8713 43.858 64.2691 44.2472 64.6369 44.6838C64.9755 45.0787 65.2947 45.5415 65.6072 45.9364L65.6178 45.9519Z" fill="#F3FF90"/>
<path d="M22.4058 44.5503C22.7512 44.3044 23.1277 43.983 23.5275 43.6539C24.2484 43.0073 25.078 42.4826 24.8626 41.6559C24.5201 40.7682 23.2422 40.1428 22.3825 39.7382C19.1243 38.2977 14.561 39.3558 16.5831 41.9066C16.9343 42.319 17.4379 42.7275 17.9832 43.1621C18.7672 43.773 19.5667 44.4448 20.4322 44.8127C21.1085 45.1176 21.7897 45.0237 22.3913 44.5619L22.4058 44.5503Z" fill="#F3FF90"/>
<path d="M76.0408 40.9861C75.4722 40.4392 74.4815 40.6424 73.9653 41.1739C73.3143 41.8399 73.323 42.9764 72.8223 43.9803C72.4662 44.8641 71.3096 45.7479 71.7269 46.7508C72.213 47.7702 73.6112 48.5398 74.6931 48.8399C75.9651 49.1835 76.0942 48.0548 76.2436 46.8873C76.4076 45.6269 76.525 44.3549 76.5211 43.0819C76.5007 42.323 76.5453 41.5147 76.0524 40.9968L76.0408 40.9861Z" fill="#F3FF90"/>
<path d="M48.8521 74.1096C48.5756 73.2277 47.6723 72.4697 47.2279 71.5994C46.8815 71.0079 46.6661 70.3594 46.31 69.8211C45.4581 68.6479 44.9341 70.2103 44.1734 71.5084C44.0026 71.8114 43.8202 72.1057 43.6184 72.3951C43.2671 72.9034 42.8577 73.3855 42.4686 73.8608C42.0475 74.3729 41.2615 75.3409 42.1202 75.6536C42.4356 75.7746 42.7965 75.792 43.1575 75.7969C43.8522 75.794 44.5353 75.7398 45.2553 75.7252C46.3653 75.6604 49.2247 75.7882 48.856 74.126L48.8521 74.1096Z" fill="#F3FF90"/>
<path d="M14.0293 46.7992C14.6386 46.35 15.3353 45.9996 15.9757 45.6104C16.7461 45.1448 16.9508 44.774 16.1659 44.078C15.5934 43.5494 14.9433 43.0674 14.3301 42.5746C13.68 42.0722 13.0861 41.5311 12.3371 41.1971C10.871 40.5621 10.9593 42.2068 10.9816 43.1903C11 43.8892 11.0214 44.6152 11.0301 45.3151C11.0388 46.4352 11.0524 48.2745 11.7869 48.2019C12.2371 48.1893 12.6039 47.896 12.9755 47.622C13.3064 47.3645 13.646 47.0741 14.0137 46.8098L14.0302 46.7982L14.0293 46.7992Z" fill="#F3FF90"/>
<path d="M41.0296 15.0967C41.2159 15.573 41.5342 16.5139 42.0853 16.5623C42.5278 16.5768 43.1177 15.573 43.5194 15.1257C44.4295 13.9496 45.8103 13.2894 47.0717 12.5778C49.0462 11.423 47.8498 10.8209 46.1673 10.7812C45.0389 10.7357 43.8639 10.845 42.7306 10.8325C41.8486 10.8421 41.2276 10.696 40.8414 11.1858C40.2844 12.0551 40.7094 14.1461 41.0228 15.0773L41.0296 15.0967Z" fill="#F3FF90"/>
<path d="M27.069 64.2686C26.646 63.8649 26.0871 63.9268 25.3749 63.9539C24.424 64.0207 23.4469 64.1592 22.5853 64.5532C21.8906 64.86 21.0522 65.497 21.3375 66.346C21.4782 66.8019 21.9216 67.2376 22.3825 67.649C22.9501 68.162 23.5517 68.6635 24.1795 69.1581C24.5472 69.4379 25.0178 69.8174 25.4729 69.8193C26.2734 69.7922 26.4694 68.3276 26.7226 67.6867C26.8924 67.1466 27.0351 66.5851 27.1525 66.0275C27.2815 65.3179 27.4445 64.7545 27.0797 64.2773L27.071 64.2676L27.069 64.2686ZM25.3565 64.285C25.3565 64.285 25.3477 64.2821 25.3429 64.2802C25.3487 64.2812 25.3536 64.2831 25.3565 64.285Z" fill="#F3FF90"/>
<path d="M19.9218 59.9685C19.7986 59.1767 19.8161 58.2086 19.1679 57.864C18.8516 57.7111 18.3703 57.7537 17.827 57.8321C17.269 57.9231 16.6665 57.984 16.1251 58.0983C15.4226 58.2348 15.0422 58.6365 15.3964 59.4158C15.6419 59.9782 15.9883 60.4855 16.3618 61.1195C17.1051 62.2647 18.1345 64.4002 19.2543 63.5609C20.2022 62.6539 20.0625 61.2057 19.9247 59.9898L19.9218 59.9685Z" fill="#F3FF90"/>
<path d="M53.6764 42.4305C53.9734 27.875 31.1724 29.1693 32.884 43.8071C33.3022 49.294 38.4176 52.7654 43.6339 52.6144C49.4033 52.5398 53.7871 48.537 53.6755 42.4547V42.4315L53.6764 42.4305Z" fill="#F3FF90"/>
<path d="M44 1C67.7118 1 87 20.9981 87 45.75C87 70.5019 67.7118 90.5 44 90.5C20.2882 90.5 1 70.5019 1 45.75C1 20.9981 20.2882 1 44 1Z" stroke="white" stroke-width="2"/>
</svg>
