<svg width="89" height="92" viewBox="0 0 89 92" fill="none" xmlns="http://www.w3.org/2000/svg">
<ellipse cx="44.25" cy="46.0625" rx="38.5" ry="40" fill="#0A0400"/>
<path d="M81.694 45.1876C83.2358 16.9972 52.6317 -2.88645 27.7747 9.63908C19.2158 13.4996 12.4965 20.8268 9.29549 29.5121C2.85467 46.4035 9.20719 66.8379 25.546 75.8988C49.1076 89.585 80.9915 73.1834 81.693 45.2099V45.1886L81.694 45.1876ZM39.0612 6.30513C39.0525 6.30609 38.9807 6.31287 38.9545 6.3148C38.9128 6.31771 39.037 6.30609 39.0593 6.30513H39.0612ZM32.3225 7.94112C32.3167 7.94306 32.2536 7.96049 32.2575 7.95855C32.2507 7.95952 32.3138 7.94209 32.3225 7.94112ZM6.76011 42.0937C6.76011 42.115 6.74555 42.4519 6.75137 42.2912C6.75332 42.2448 6.7572 42.1354 6.76011 42.0937ZM9.37796 57.0219C9.37602 57.0103 9.37602 56.9997 9.37796 56.9919C9.37796 57.0016 9.37796 57.0123 9.37796 57.0219ZM28.2783 77.1069C28.2851 77.1089 28.3404 77.1243 28.3336 77.1234C28.3375 77.1253 28.2832 77.1098 28.2783 77.1069ZM39.8142 80.3954C39.8229 80.3963 39.8966 80.408 39.8908 80.408C39.8937 80.408 39.8209 80.3973 39.8142 80.3954ZM47.0904 78.4535C47.0826 78.4535 47.0205 78.4593 46.9982 78.4603C46.9623 78.4622 47.07 78.4535 47.0894 78.4525L47.0904 78.4535ZM58.2915 76.4777C58.2857 76.4729 58.2313 76.3973 58.2236 76.3799C58.2187 76.3702 58.2236 76.3732 58.2362 76.3877C58.2546 76.4099 58.2789 76.4487 58.2924 76.4767L58.2915 76.4777ZM79.0432 48.6619C78.6104 50.3618 78.2407 52.2417 77.7798 53.9474C77.3898 55.3405 76.796 56.686 76.238 58.0616C75.9625 58.7373 75.6083 59.3695 75.2124 59.9842C72.1851 64.7373 68.6484 69.2377 64.1278 72.4497C62.4259 73.6558 60.5823 74.7856 58.6107 75.5319C57.6035 75.9356 56.6759 76.3451 55.6872 76.682C54.3598 77.105 52.9985 77.3993 51.6285 77.6703C50.0983 78.0246 48.4343 78.2899 46.8711 78.4051C46.0085 78.499 45.1314 78.5687 44.26 78.5348C41.3686 78.4496 38.4587 78.0634 35.6497 77.4264C33.7867 76.9395 32.0062 76.3548 30.2577 75.5038C29.2486 75.0576 28.1861 74.7042 27.2382 74.1399C26.3785 73.6191 25.5062 73.0247 24.6766 72.4332C23.5132 71.6413 22.4449 70.9047 21.4135 69.9424C19.5884 68.3694 17.9971 66.6143 16.4776 64.7353C13.7356 60.5814 10.9993 56.0036 9.97954 51.2485C9.76414 50.0666 9.40998 48.9707 9.246 47.7771C9.08784 46.6281 9.11792 45.4451 9.07717 44.2854C9.00246 41.1218 9.17711 37.7598 10.1367 34.6979C10.6762 33.1916 10.8722 31.5391 11.534 30.0832C12.4645 28.0213 13.7666 26.1007 14.928 24.1288C15.2754 23.5024 15.5539 22.8519 15.9566 22.2604C16.4242 21.5818 17.021 20.9594 17.5692 20.3428C20.2899 17.0727 23.7655 14.7774 27.5351 12.4367C28.519 11.8598 29.5319 11.4251 30.6109 11.0844C31.5482 10.7736 32.4952 10.3874 33.4384 10.0979C34.2699 9.82881 35.115 9.64489 35.9553 9.45708C37.207 9.14731 38.5081 8.85786 39.8093 8.70975C42.0546 8.47645 44.2833 8.45032 46.4859 8.48807C47.3223 8.50646 48.2266 8.64198 49.0164 8.80752C50.6921 9.18699 52.4231 9.39223 54.0726 9.85883C54.9139 10.1202 55.728 10.4425 56.5653 10.7233C57.8141 11.157 58.9649 11.5606 60.1234 12.2063C60.8113 12.5829 61.4779 13.0601 62.1232 13.5171C63.2215 14.2896 64.448 14.9333 65.429 15.8336C65.8607 16.2218 66.2702 16.6303 66.6923 17.0311C67.1299 17.4483 67.585 17.8529 68.042 18.2479C70.9005 20.6845 72.7469 23.8906 74.9602 27.0339C78.6065 33.2284 79.899 42.0366 79.049 48.6425L79.0451 48.6609L79.0432 48.6619ZM79.2605 48.3676C79.2605 48.3589 79.2673 48.2834 79.2673 48.2902C79.2673 48.2873 79.2615 48.3609 79.2605 48.3676Z" fill="#7C6354"/>
<path d="M38.8564 75.0063C38.9321 74.7313 38.8041 74.2947 38.6139 73.8049C38.3762 73.2202 38.1142 72.5474 37.827 71.9947C37.6251 71.5997 37.2797 71.0808 36.8489 71.4603C36.455 71.8146 36.1794 72.3887 35.8738 73.0208C35.4818 73.8649 35.2353 74.6887 36.3463 75.0518C36.8741 75.2279 38.6682 75.7216 38.8526 75.0179L38.8564 75.0063Z" fill="#7C6354"/>
<path d="M46.6159 15.2314C45.7533 15.9759 44.7695 16.9468 44.6035 18.062C44.3522 20.0484 46.385 21.8364 48.0073 22.6409C48.4585 22.8267 48.8845 22.7938 49.3143 22.5469C49.7878 22.2778 50.2177 21.8616 50.6766 21.5528C51.2666 21.1385 51.9332 20.8568 52.5978 20.5567C54.584 19.6777 55.9987 18.8451 56.4421 16.5799C56.5741 15.9759 56.6876 15.3747 56.6983 14.7658C56.7817 13.5664 55.5989 13.1685 54.6626 12.6874C53.6651 12.2131 52.6075 11.5848 51.5014 12.0795C50.9861 12.2789 50.5272 12.6042 50.0692 12.911C48.9097 13.6835 47.6881 14.3321 46.6315 15.2189L46.6159 15.2314Z" fill="#7C6354"/>
<path d="M30.2335 22.8102C27.7369 25.3581 26.4542 29.7162 30.316 31.2118C31.0175 31.5264 31.7821 31.8343 32.437 32.2283C33.0182 32.5613 33.8061 33.1867 34.2602 33.3309C34.8928 33.5226 35.2557 33.1586 35.8903 32.6862C36.4376 32.2302 37.1391 31.6891 37.4738 31.1025C38.0356 30.1121 37.4661 28.9979 37.3409 27.8856C37.241 27.2061 37.2371 26.5236 37.0731 25.8566C36.8237 24.8044 36.1678 23.9292 35.3615 23.1829C33.4025 21.4026 32.406 20.5237 30.249 22.7957L30.2345 22.8112L30.2335 22.8102Z" fill="#7C6354"/>
<path d="M55.7959 37.8772C56.0646 38.6419 56.2228 39.4638 56.3974 40.2537C56.5964 41.2053 56.8321 42.1114 57.5463 42.2004C58.045 42.3089 58.8853 42.1666 59.711 41.9768C60.4135 41.8152 61.1092 41.6032 61.8156 41.2547C67.0746 38.6826 65.557 34.1241 60.0108 32.521C58.5117 32.0631 56.803 31.9489 55.4766 32.8675C53.1994 34.4261 55.1991 36.003 55.79 37.8588L55.7968 37.8781L55.7959 37.8772Z" fill="#7C6354"/>
<path d="M71.5224 59.624C70.8199 58.9348 70.0165 58.3201 69.314 57.4982C68.5572 56.6589 67.9488 55.596 67.1435 54.8564C66.1091 53.8719 64.8439 53.6105 63.4758 54.083C62.0048 54.5728 60.8793 55.415 60.9831 57.111C60.9928 58.0181 61.216 59.1216 61.7904 59.9125C62.1562 60.4421 62.6636 60.8467 63.1682 61.2378C63.8076 61.7392 64.4538 62.2407 65.0409 62.7983C65.4261 63.1632 65.787 63.5562 66.1024 63.9831C66.6021 64.6463 66.9572 65.3655 67.4462 65.4991C68.4854 65.7586 70.1359 63.443 70.6928 62.6521C71.0819 62.0703 71.3711 61.5892 71.6078 61.0509C71.862 60.5079 71.9008 59.9977 71.5302 59.6337L71.5224 59.624Z" fill="#7C6354"/>
<path d="M59.0425 59.2782C59.3384 57.528 59.0599 55.5764 57.8005 54.2599C56.9204 53.3528 55.5125 52.3809 54.2832 52.1166C53.4652 51.9443 52.6182 52.1747 51.9341 52.6394C50.7348 53.4186 50.009 54.5174 50.4816 55.9578C50.7562 56.8659 50.9677 57.8155 51.0725 58.7642C51.1491 59.3837 51.2229 60.012 51.4693 60.5861C51.9506 61.7613 53.081 62.3024 54.1871 62.9074C55.0487 63.3343 56.1558 64.224 57.1378 63.8106C58.305 63.2433 58.7708 60.6422 59.0386 59.2995L59.0415 59.2792L59.0425 59.2782ZM58.6165 56.2202L58.6029 56.2395C58.5942 56.2298 58.6097 56.2269 58.6165 56.2202Z" fill="#7C6354"/>
<path d="M66.3963 23.8866C64.0085 24.7879 60.6483 26.6204 60.3601 29.3251C60.3407 29.753 60.5261 30.1228 60.8608 30.3735C61.2907 30.7181 62.0873 30.9785 62.7073 31.3754C63.3846 31.7694 63.9842 32.3473 64.6721 32.7016C65.7647 33.267 66.7282 32.1973 67.584 31.6184C68.7901 30.6223 71.8426 29.6552 72.0619 28.0841C72.157 26.936 71.2895 25.9389 70.6841 25.0212C70.3309 24.5226 70.0039 24.0493 69.6255 23.7521C68.7154 23.0135 67.4646 23.5275 66.4138 23.8798L66.3963 23.8866Z" fill="#7C6354"/>
<path d="M55.3224 21.4937C54.7761 21.5004 54.2075 21.7202 53.7069 21.9525C51.8905 22.8073 50.3991 23.9951 50.013 25.877C49.8975 26.4404 49.8626 27.0154 49.816 27.5943C49.784 28.0251 49.7481 28.4549 49.7131 28.8585C49.6559 29.5759 49.5938 30.1886 49.8402 30.7065C50.1381 31.3764 51.4315 32.4258 52.1505 32.4597C52.591 32.4384 52.9403 32.0918 53.2916 31.843C53.9291 31.3435 54.8712 30.6852 55.7105 30.2932C56.2937 30.0028 56.9379 29.8353 57.426 29.5526C58.0926 29.1915 58.5156 28.5207 58.6476 27.7705C58.993 25.9825 58.4041 24.0164 57.2611 22.6282C56.7963 22.0203 56.1462 21.4791 55.3399 21.4956H55.3214L55.3224 21.4937Z" fill="#7C6354"/>
<path d="M57.554 70.5416C57.0097 67.5039 56.4809 66.2387 53.6748 64.867C53.114 64.5717 52.5425 64.2678 52.034 63.897C51.6314 63.6221 51.2238 63.2242 50.7794 63.0955C49.9469 62.9154 49.4375 63.9493 49.0397 64.5824C47.234 67.2639 49.0077 70.2551 50.7649 72.7604C51.2617 73.4274 51.7507 74.7275 52.5706 74.9143C53.0674 75.0324 53.7456 74.7488 54.4801 74.5106C56.7613 73.7865 58.0964 73.3548 57.5589 70.5639L57.555 70.5397L57.554 70.5416Z" fill="#7C6354"/>
<path d="M32.0732 15.3319C32.6097 17.7859 34.364 19.8798 36.2445 21.4723C36.8742 21.9785 37.4379 22.5894 38.0812 23.0666C38.9836 23.7384 39.5677 22.8537 40.2033 22.2457C40.997 21.4035 42.3806 20.4994 41.7538 19.209C41.5869 18.8227 41.3074 18.4384 41.0581 18.0831C38.4994 14.8286 40.7427 11.3756 38.9069 11.2797C38.546 11.271 38.1375 11.3998 37.7707 11.5188C37.1818 11.7163 36.5908 11.9177 35.9844 12.0512C33.9934 12.4801 31.5977 12.665 32.0702 15.3116L32.0732 15.3319Z" fill="#7C6354"/>
<path d="M15.7489 28.9978C16.5309 29.8091 17.704 30.3647 18.8335 30.5787C20.2743 30.841 21.7521 30.5951 23.2299 30.5041C24.041 30.4383 24.8095 30.4712 25.3102 29.9291C25.6032 29.6019 25.7128 29.0869 25.7575 28.5138C25.8167 27.57 25.8632 26.6106 25.5721 25.7007C24.9997 23.843 23.2619 22.843 21.5949 22.0008C21.004 21.7162 20.2889 21.2622 19.6514 21.5894C19.2982 21.7675 18.9664 22.1973 18.5608 22.7365C18.1717 23.2544 17.737 23.8691 17.3169 24.5022C16.6891 25.4625 16.1642 26.3067 15.7363 27.2379C15.4093 27.9669 15.2841 28.448 15.7392 28.9872L15.7489 28.9978ZM21.8724 30.1924C21.8239 30.2118 21.8181 30.1353 21.8714 30.1847L21.8724 30.1924Z" fill="#7C6354"/>
<path d="M32.5379 36.06C32.6213 34.8315 31.3503 33.9806 30.281 33.545C29.2457 33.1481 28.1434 33.0358 27.0373 32.8316C25.5722 32.6041 23.3822 32.183 22.0451 32.8229C21.3252 33.1801 21.2029 34.0465 21.4251 34.7609C22.0888 37.2168 24.8813 39.15 27.4914 39.9525C28.3947 40.2216 29.4543 40.5382 30.3712 40.2294C31.2629 39.9031 31.523 38.908 31.9645 37.877C32.2226 37.2555 32.502 36.6408 32.5379 36.0784V36.06Z" fill="#7C6354"/>
<path d="M57.1039 51.0415C59.2084 52.6794 59.6237 53.4229 62.423 52.4335C63.3875 52.0947 64.5839 51.8992 65.1806 51.0541C67.1309 47.6524 59.8323 42.5556 57.3649 44.8615C56.7468 45.4103 56.4402 46.1829 56.0724 46.9399C55.8221 47.4868 55.5679 48.0115 55.4068 48.4384C54.8305 49.7443 56.1646 50.3213 57.0883 51.0308L57.1039 51.0415Z" fill="#7C6354"/>
<path d="M27.2401 51.7025C28.2308 51.9659 29.3553 52.1604 30.4052 51.9746C31.4424 51.8139 32.7203 51.2495 32.7222 50.0578C32.6844 49.0559 32.0013 48.2776 31.6501 47.3415C31.3871 46.6765 31.261 45.9678 31.1601 45.2592C31.0291 44.3377 30.967 43.1518 29.8997 42.9079C28.3744 42.569 27.2149 43.8052 26.1233 44.7346C25.3267 45.417 24.4864 46.0685 23.9207 46.9688C23.1697 48.1159 22.7564 49.9668 24.0536 50.7761C24.565 51.1033 25.1986 51.2292 25.7876 51.3637C26.2843 51.4722 26.7588 51.5825 27.2207 51.6987L27.2391 51.7035L27.2401 51.7025ZM24.3564 50.8023C24.4117 50.7984 24.4107 50.8052 24.3544 50.8023H24.3564Z" fill="#7C6354"/>
<path d="M20.6363 47.5495C20.2375 47.2349 19.6175 47.2088 19.1071 47.262C17.0064 47.4014 13.7637 49.3007 13.0826 51.3201C12.7546 52.474 13.2427 53.6676 13.6007 54.7605C14.0082 55.9599 14.5341 56.3384 15.7994 56.1893C17.0404 56.0354 18.5317 56.17 19.4778 55.23C20.9623 53.5988 21.2961 50.9416 21.1962 48.8516C21.1593 48.3656 21.0244 47.8516 20.6479 47.5592L20.6363 47.5495Z" fill="#7C6354"/>
<path d="M30.2296 59.3958C30.4237 58.8595 30.4207 58.2971 30.4013 57.6359C30.379 57.0318 30.3586 56.4249 30.3014 55.8334C30.152 54.3426 29.7745 54.3261 28.1687 54.0948C27.8563 54.0503 27.5438 54.0038 27.2236 53.9525C25.6178 53.755 23.9431 52.8421 22.8359 54.4781C21.7376 56.1664 22.2256 58.5216 22.5594 60.601C22.6574 61.1315 22.7845 61.7656 23.2532 62.0589C23.6394 62.3009 24.1808 62.2631 24.6388 62.206C26.5056 61.9301 29.4669 61.2786 30.2238 59.4113L30.2296 59.3958ZM28.5762 54.6717C28.5946 54.6921 28.55 54.7201 28.5675 54.6746L28.5762 54.6717Z" fill="#7C6354"/>
<path d="M36.9848 61.5216C38.7051 60.6 39.8404 58.8256 39.9723 56.8701C40.0063 56.4481 39.9947 55.9883 39.8414 55.602C39.4658 54.6882 38.415 54.3223 37.5932 53.8111C37.0983 53.5256 36.586 53.2206 36.1222 52.9718C34.9181 52.3078 34.2981 52.1587 33.4927 53.3494C32.4477 54.7792 32.3148 56.4529 32.6097 58.1025C32.7524 59.0492 32.9251 60.0211 33.2375 60.9301C33.515 61.6436 33.7741 62.297 34.5115 62.4219C35.1296 62.5187 36.2386 61.9592 36.9664 61.5323L36.9848 61.5216ZM32.6301 56.7811C32.6311 56.7733 32.6321 56.7724 32.633 56.7753C32.6369 56.8576 32.6272 56.9834 32.6214 57.0328C32.6088 57.0618 32.6253 56.7966 32.6282 56.7898L32.6301 56.7811Z" fill="#7C6354"/>
<path d="M48.4207 61.1526C48.9301 59.6609 49.0329 56.4954 47.6124 55.5303C46.9448 55.1188 46.2753 55.2495 45.4254 55.3202C43.9253 55.4625 42.4466 55.3899 42.1584 57.2117C41.7014 59.8758 42.1691 62.9261 44.1543 64.8148C44.5599 65.1933 45.0877 65.5534 45.6349 65.3907C46.7062 65.0887 48.0073 62.2591 48.4148 61.1691L48.4207 61.1526ZM42.2321 60.6173C42.2321 60.6173 42.237 60.7025 42.2379 60.7393C42.2379 60.8109 42.2292 60.6357 42.2312 60.6183L42.2321 60.6173ZM48.443 61.052C48.4391 61.1033 48.4449 61.1042 48.443 61.052V61.052Z" fill="#7C6354"/>
<path d="M71.1256 32.0021C70.5162 32.4445 69.8816 32.7862 69.2413 33.1753C68.6193 33.5616 68.0294 33.9333 67.6752 34.5374C67.1891 35.3738 67.2289 36.6051 67.7829 37.3563C68.2603 37.941 69.0443 38.0649 69.7429 38.2585C71.307 38.6651 72.94 39.4609 74.54 39.1937C75.5724 39.0524 76.2342 38.3205 76.1759 37.2615C76.0595 35.6303 75.3483 34.1018 74.8117 32.5703C74.5614 31.8908 74.3382 31.1599 73.953 30.8288C73.1331 30.1434 71.9125 31.5045 71.1421 31.9905L71.1256 32.0021ZM69.3587 37.7532C69.3499 37.7532 69.2801 37.7474 69.2869 37.7474C69.282 37.7465 69.3519 37.7523 69.3587 37.7532Z" fill="#7C6354"/>
<path d="M47.1117 24.4627C46.6887 23.6088 45.7854 23.1122 45.0343 22.5498C44.2659 21.969 43.511 21.545 42.6833 22.1065C40.6651 23.6708 38.5935 26.5072 39.8413 29.0038C40.2818 29.8344 41.1881 29.846 42.0158 29.7772C42.6203 29.7424 43.2296 29.7395 43.8331 29.8063C45.6815 30.0164 47.203 30.452 47.5396 28.3765C47.7211 27.1868 47.6328 25.5585 47.1215 24.482L47.1117 24.4627ZM47.3757 26.8208C47.3747 26.8092 47.3776 26.725 47.3766 26.724C47.3766 26.7211 47.3757 26.8131 47.3757 26.8208Z" fill="#7C6354"/>
<path d="M58.3167 20.5675C58.7223 21.5946 59.5606 22.5549 60.1224 23.5336C60.9472 24.7901 60.7298 24.9237 62.1727 23.8918C62.6656 23.5646 63.1924 23.2539 63.7261 22.9751C64.4247 22.6072 65.1272 22.3129 65.8559 22.0361C66.4002 21.7902 67.6306 21.4727 67.3084 20.6982C66.8912 19.8231 64.8439 18.7089 63.7387 17.9761C63.2012 17.6237 62.7655 17.2433 62.291 16.7989C61.3246 15.95 59.9526 14.4679 59.1201 15.253C58.6835 15.766 58.6117 16.5095 58.4525 17.1561C58.2197 18.2529 57.8849 19.4765 58.3109 20.5501L58.3167 20.5675ZM60.6309 24.3448C60.6338 24.3506 60.6571 24.402 60.6551 24.3981C60.6561 24.4029 60.6328 24.3516 60.6309 24.3448Z" fill="#7C6354"/>
<path d="M34.7531 65.645C34.3999 65.2588 33.8381 65.1988 33.2899 64.8503C32.9212 64.6286 32.5884 64.2782 32.3012 63.9364C32.0052 63.6112 31.7432 63.1988 31.3076 63.1184C30.2868 62.9626 29.5116 65.8096 29.0652 67.737C28.7635 69.099 28.2056 70.6905 29.2244 71.8841C29.7493 72.5114 30.5168 72.9005 31.2629 73.2122C32.6068 73.765 33.547 73.7118 34.1632 72.4456C34.5125 71.7534 34.7046 70.9577 34.8443 70.1552C34.9782 69.3604 35.051 68.5685 35.084 67.7767C35.1043 66.8483 35.1694 66.1523 34.7609 65.6557L34.7521 65.646L34.7531 65.645Z" fill="#7C6354"/>
<path d="M75.4162 51.5603C75.031 51.1644 74.3887 50.903 73.7832 50.6135C73.4087 50.4354 73.039 50.2447 72.6751 50.0472C71.6612 49.5051 70.6385 48.7336 69.4392 48.7443C64.8177 49.0685 69.4208 55.4557 72.2579 57.4199C73.2729 58.0578 74.0404 57.447 74.4838 56.3792C74.802 55.5961 75.0621 54.8265 75.4007 54.0375C75.7277 53.2021 76.0925 52.2534 75.4279 51.5738L75.4162 51.5622V51.5603Z" fill="#7C6354"/>
<path d="M23.5957 21.1181C24.3253 21.4724 24.9764 21.8732 25.6013 22.3727C26.1708 22.8131 26.9277 23.5208 27.6447 22.9942C28.1687 22.6176 28.6558 21.7367 29.2418 21.243C29.8793 20.6098 31.0766 19.938 31.2668 19.1162C31.3978 18.3979 30.8583 17.5576 30.6332 16.7658C30.2402 15.7774 30.2839 13.6564 28.7809 14.3389C27.3012 15.0542 25.9913 16.1143 24.7076 17.1268C23.9537 17.7638 23.1076 18.3233 22.4071 19.0087C21.4154 20.0319 22.6894 20.6815 23.5753 21.1074L23.5947 21.1171L23.5957 21.1181Z" fill="#7C6354"/>
<path d="M12.382 38.7735C13.1844 39.4947 14.3682 39.5954 15.291 39.0737C16.1894 38.5974 17.1122 37.8384 18.0738 37.3863C18.6598 37.0746 19.3371 36.73 19.4681 36.0262C19.6194 34.9682 18.9363 33.3583 18.099 32.6052C17.5838 32.1357 16.9337 31.8114 16.2952 31.5152C14.8543 30.8559 13.787 30.5161 13.3911 32.3186C13.1534 33.4851 12.971 34.5306 12.4237 35.6196C11.9192 36.6922 11.3438 37.8559 12.3675 38.761L12.382 38.7735Z" fill="#7C6354"/>
<path d="M43.6449 69.3547C44.3998 67.3906 42.3592 66.0247 41.2667 64.6278C40.6185 63.8795 40.2886 62.7469 39.5531 62.5252C39.003 62.3974 38.4567 62.9124 38.1006 63.3596C37.6126 63.9811 37.2623 64.7507 37.1817 65.5348C36.979 67.2405 38.2161 68.6132 38.9923 69.9975C39.3164 70.5861 39.5357 71.2434 39.7685 71.8658C40.569 74.0527 41.4316 73.2501 42.7357 71.1262C43.0908 70.557 43.444 69.9491 43.639 69.3741L43.6449 69.3547Z" fill="#7C6354"/>
<path d="M65.654 67.2483C65.4813 66.3916 64.8895 65.6084 64.3131 64.9182C63.8328 64.3538 63.2623 63.9269 62.7073 63.531C62.1028 63.1535 61.3081 62.2396 60.5503 62.4507C59.8798 62.743 59.6334 63.4942 59.2258 64.2919C59.0328 64.712 58.8513 65.1534 58.7359 65.5968C58.3846 66.803 58.86 67.8765 59.1832 69.0672C59.7013 70.8784 59.5334 72.8562 61.8767 70.8446C62.6617 70.1757 63.5039 69.559 64.382 69.0072C64.9865 68.6161 65.8035 68.0634 65.657 67.2647L65.654 67.2483Z" fill="#7C6354"/>
<path d="M66.1178 46.2019C67.0173 47.3791 67.7654 47.2174 68.8143 46.4178C69.8952 45.5921 70.9528 44.6046 71.5253 43.3404C71.7611 42.7876 71.9891 42.1603 71.7562 41.5853C71.536 41.0471 70.6666 40.8361 70.0437 40.6444C69.2781 40.4392 68.5426 40.0461 67.7606 39.9155C66.2333 39.6763 65.5201 41.292 64.6003 42.2184C64.3985 42.4401 64.2083 42.6357 64.0162 42.8467C63.6698 43.23 63.6581 43.3317 63.9948 43.7024C64.3713 44.108 64.7691 44.4972 65.1369 44.9338C65.4755 45.3287 65.7947 45.7915 66.1072 46.1864L66.1178 46.2019Z" fill="#7C6354"/>
<path d="M22.9058 44.8003C23.2512 44.5544 23.6277 44.233 24.0275 43.9039C24.7484 43.2573 25.578 42.7326 25.3626 41.9059C25.0201 41.0182 23.7422 40.3928 22.8825 39.9882C19.6243 38.5477 15.061 39.6058 17.0831 42.1566C17.4343 42.569 17.9379 42.9775 18.4832 43.4121C19.2672 44.023 20.0667 44.6948 20.9322 45.0627C21.6085 45.3676 22.2897 45.2737 22.8913 44.8119L22.9058 44.8003Z" fill="#7C6354"/>
<path d="M76.5408 41.2361C75.9722 40.6892 74.9815 40.8924 74.4653 41.4239C73.8143 42.0899 73.823 43.2264 73.3223 44.2303C72.9662 45.1141 71.8096 45.9979 72.2269 47.0008C72.713 48.0202 74.1112 48.7898 75.1931 49.0899C76.4651 49.4335 76.5942 48.3048 76.7436 47.1373C76.9076 45.8769 77.025 44.6049 77.0211 43.3319C77.0007 42.573 77.0453 41.7647 76.5524 41.2468L76.5408 41.2361Z" fill="#7C6354"/>
<path d="M49.3521 74.3596C49.0756 73.4777 48.1723 72.7197 47.7279 71.8494C47.3815 71.2579 47.1661 70.6094 46.81 70.0711C45.9581 68.8979 45.4341 70.4603 44.6734 71.7584C44.5026 72.0614 44.3202 72.3557 44.1184 72.6451C43.7671 73.1534 43.3577 73.6355 42.9686 74.1108C42.5475 74.6229 41.7615 75.5909 42.6202 75.9036C42.9356 76.0246 43.2965 76.042 43.6575 76.0469C44.3522 76.044 45.0353 75.9898 45.7553 75.9752C46.8653 75.9104 49.7247 76.0382 49.356 74.376L49.3521 74.3596Z" fill="#7C6354"/>
<path d="M14.5293 47.0492C15.1386 46.6 15.8353 46.2496 16.4757 45.8604C17.2461 45.3948 17.4508 45.024 16.6659 44.328C16.0934 43.7994 15.4433 43.3174 14.8301 42.8246C14.18 42.3222 13.5861 41.7811 12.8371 41.4471C11.371 40.8121 11.4593 42.4568 11.4816 43.4403C11.5 44.1392 11.5214 44.8652 11.5301 45.5651C11.5388 46.6852 11.5524 48.5245 12.2869 48.4519C12.7371 48.4393 13.1039 48.146 13.4755 47.872C13.8064 47.6145 14.146 47.3241 14.5137 47.0598L14.5302 47.0482L14.5293 47.0492Z" fill="#7C6354"/>
<path d="M41.5296 15.3467C41.7159 15.823 42.0342 16.7639 42.5853 16.8123C43.0278 16.8268 43.6177 15.823 44.0194 15.3757C44.9295 14.1996 46.3103 13.5394 47.5717 12.8278C49.5462 11.673 48.3498 11.0709 46.6673 11.0312C45.5389 10.9857 44.3639 11.095 43.2306 11.0825C42.3486 11.0921 41.7276 10.946 41.3414 11.4358C40.7844 12.3051 41.2094 14.3961 41.5228 15.3273L41.5296 15.3467Z" fill="#7C6354"/>
<path d="M27.569 64.5186C27.146 64.1149 26.5871 64.1768 25.8749 64.2039C24.924 64.2707 23.9469 64.4092 23.0853 64.8032C22.3906 65.11 21.5522 65.747 21.8375 66.596C21.9782 67.0519 22.4216 67.4876 22.8825 67.899C23.4501 68.412 24.0517 68.9135 24.6795 69.4081C25.0472 69.6879 25.5178 70.0674 25.9729 70.0693C26.7734 70.0422 26.9694 68.5776 27.2226 67.9367C27.3924 67.3966 27.5351 66.8351 27.6525 66.2775C27.7815 65.5679 27.9445 65.0045 27.5797 64.5273L27.571 64.5176L27.569 64.5186ZM25.8565 64.535C25.8565 64.535 25.8477 64.5321 25.8429 64.5302C25.8487 64.5312 25.8536 64.5331 25.8565 64.535Z" fill="#7C6354"/>
<path d="M20.4218 60.2185C20.2986 59.4267 20.3161 58.4586 19.6679 58.114C19.3516 57.9611 18.8703 58.0037 18.327 58.0821C17.769 58.1731 17.1665 58.234 16.6251 58.3483C15.9226 58.4848 15.5422 58.8865 15.8964 59.6658C16.1419 60.2282 16.4883 60.7355 16.8618 61.3695C17.6051 62.5147 18.6345 64.6502 19.7543 63.8109C20.7022 62.9039 20.5625 61.4557 20.4247 60.2398L20.4218 60.2185Z" fill="#7C6354"/>
<path d="M54.1764 42.6805C54.4734 28.125 31.6724 29.4193 33.384 44.0571C33.8022 49.544 38.9176 53.0154 44.1339 52.8644C49.9033 52.7898 54.2871 48.787 54.1755 42.7047V42.6815L54.1764 42.6805Z" fill="#7C6354"/>
<path d="M44.5 1.25C68.2118 1.25 87.5 21.2481 87.5 46C87.5 70.7519 68.2118 90.75 44.5 90.75C20.7882 90.75 1.5 70.7519 1.5 46C1.5 21.2481 20.7882 1.25 44.5 1.25Z" stroke="white" stroke-width="2"/>
</svg>
