<svg width="89" height="92" viewBox="0 0 89 92" fill="none" xmlns="http://www.w3.org/2000/svg">
<ellipse cx="44.5" cy="46.5" rx="38.5" ry="40" fill="#7C6354"/>
<path d="M81.944 45.8751C83.4858 17.6847 52.8817 -2.19895 28.0247 10.3266C19.4658 14.1871 12.7465 21.5143 9.54549 30.1996C3.10467 47.091 9.45719 67.5254 25.796 76.5863C49.3576 90.2725 81.2415 73.8709 81.943 45.8974V45.8761L81.944 45.8751ZM39.3112 6.99263C39.3025 6.99359 39.2307 7.00037 39.2045 7.0023C39.1628 7.00521 39.287 6.99359 39.3093 6.99263H39.3112ZM32.5725 8.62862C32.5667 8.63056 32.5036 8.64799 32.5075 8.64605C32.5007 8.64702 32.5638 8.62959 32.5725 8.62862ZM7.01011 42.7812C7.01011 42.8025 6.99555 43.1394 7.00137 42.9787C7.00332 42.9323 7.0072 42.8229 7.01011 42.7812ZM9.62796 57.7094C9.62602 57.6978 9.62602 57.6872 9.62796 57.6794C9.62796 57.6891 9.62796 57.6998 9.62796 57.7094ZM28.5283 77.7944C28.5351 77.7964 28.5904 77.8118 28.5836 77.8109C28.5875 77.8128 28.5332 77.7973 28.5283 77.7944ZM40.0642 81.0829C40.0729 81.0838 40.1466 81.0955 40.1408 81.0955C40.1437 81.0955 40.0709 81.0848 40.0642 81.0829ZM47.3404 79.141C47.3326 79.141 47.2705 79.1468 47.2482 79.1478C47.2123 79.1497 47.32 79.141 47.3394 79.14L47.3404 79.141ZM58.5415 77.1652C58.5357 77.1604 58.4813 77.0848 58.4736 77.0674C58.4687 77.0577 58.4736 77.0607 58.4862 77.0752C58.5046 77.0974 58.5289 77.1362 58.5424 77.1642L58.5415 77.1652ZM79.2932 49.3494C78.8604 51.0493 78.4907 52.9292 78.0298 54.6349C77.6398 56.028 77.046 57.3735 76.488 58.7491C76.2125 59.4248 75.8583 60.057 75.4624 60.6717C72.4351 65.4248 68.8984 69.9252 64.3778 73.1372C62.6759 74.3433 60.8323 75.4731 58.8607 76.2194C57.8535 76.6231 56.9259 77.0326 55.9372 77.3695C54.6098 77.7925 53.2485 78.0868 51.8785 78.3578C50.3483 78.7121 48.6843 78.9774 47.1211 79.0926C46.2585 79.1865 45.3814 79.2562 44.51 79.2223C41.6186 79.1371 38.7087 78.7509 35.8997 78.1139C34.0367 77.627 32.2562 77.0423 30.5077 76.1913C29.4986 75.7451 28.4361 75.3917 27.4882 74.8274C26.6285 74.3066 25.7562 73.7122 24.9266 73.1207C23.7632 72.3288 22.6949 71.5922 21.6635 70.6299C19.8384 69.0569 18.2471 67.3018 16.7276 65.4228C13.9856 61.2689 11.2493 56.6911 10.2295 51.936C10.0141 50.7541 9.65998 49.6582 9.496 48.4646C9.33784 47.3156 9.36792 46.1326 9.32717 44.9729C9.25246 41.8093 9.42711 38.4473 10.3867 35.3854C10.9262 33.8791 11.1222 32.2266 11.784 30.7707C12.7145 28.7088 14.0166 26.7882 15.178 24.8163C15.5254 24.1899 15.8039 23.5394 16.2066 22.9479C16.6742 22.2693 17.271 21.6469 17.8192 21.0303C20.5399 17.7602 24.0155 15.4649 27.7851 13.1242C28.769 12.5473 29.7819 12.1126 30.8609 11.7719C31.7982 11.4611 32.7452 11.0749 33.6884 10.7854C34.5199 10.5163 35.365 10.3324 36.2053 10.1446C37.457 9.83481 38.7581 9.54536 40.0593 9.39725C42.3046 9.16395 44.5333 9.13782 46.7359 9.17557C47.5723 9.19396 48.4766 9.32948 49.2664 9.49502C50.9421 9.87449 52.6731 10.0797 54.3226 10.5463C55.1639 10.8077 55.978 11.13 56.8153 11.4108C58.0641 11.8445 59.2149 12.2481 60.3734 12.8938C61.0613 13.2704 61.7279 13.7476 62.3732 14.2046C63.4715 14.9771 64.698 15.6208 65.679 16.5211C66.1107 16.9093 66.5202 17.3178 66.9423 17.7186C67.3799 18.1358 67.835 18.5404 68.292 18.9354C71.1505 21.372 72.9969 24.5781 75.2102 27.7214C78.8565 33.9159 80.149 42.7241 79.299 49.33L79.2951 49.3484L79.2932 49.3494ZM79.5105 49.0551C79.5105 49.0464 79.5173 48.9709 79.5173 48.9777C79.5173 48.9748 79.5115 49.0484 79.5105 49.0551Z" fill="#7C6354"/>
<path d="M39.1064 75.6938C39.1821 75.4188 39.0541 74.9822 38.8639 74.4924C38.6262 73.9077 38.3642 73.2349 38.077 72.6822C37.8751 72.2872 37.5297 71.7683 37.0989 72.1478C36.705 72.5021 36.4294 73.0762 36.1238 73.7083C35.7318 74.5524 35.4853 75.3762 36.5963 75.7393C37.1241 75.9154 38.9182 76.4091 39.1026 75.7054L39.1064 75.6938Z" fill="#7C6354"/>
<path d="M46.8659 15.9189C46.0033 16.6634 45.0195 17.6343 44.8535 18.7495C44.6022 20.7359 46.635 22.5239 48.2573 23.3284C48.7085 23.5142 49.1345 23.4813 49.5643 23.2344C50.0378 22.9653 50.4677 22.5491 50.9266 22.2403C51.5166 21.826 52.1832 21.5443 52.8478 21.2442C54.834 20.3652 56.2487 19.5326 56.6921 17.2674C56.8241 16.6634 56.9376 16.0622 56.9483 15.4533C57.0317 14.2539 55.8489 13.856 54.9126 13.3749C53.9151 12.9006 52.8575 12.2723 51.7514 12.767C51.2361 12.9664 50.7772 13.2917 50.3192 13.5985C49.1597 14.371 47.9381 15.0196 46.8815 15.9064L46.8659 15.9189Z" fill="#7C6354"/>
<path d="M30.4835 23.4977C27.9869 26.0456 26.7042 30.4037 30.566 31.8993C31.2675 32.2139 32.0321 32.5218 32.687 32.9158C33.2682 33.2488 34.0561 33.8742 34.5102 34.0184C35.1428 34.2101 35.5057 33.8461 36.1403 33.3737C36.6876 32.9177 37.3891 32.3766 37.7238 31.79C38.2856 30.7996 37.7161 29.6854 37.5909 28.5731C37.491 27.8936 37.4871 27.2111 37.3231 26.5441C37.0737 25.4919 36.4178 24.6167 35.6115 23.8704C33.6525 22.0901 32.656 21.2112 30.499 23.4832L30.4845 23.4987L30.4835 23.4977Z" fill="#7C6354"/>
<path d="M56.0459 38.5647C56.3146 39.3294 56.4728 40.1513 56.6474 40.9412C56.8464 41.8928 57.0821 42.7989 57.7963 42.8879C58.295 42.9964 59.1353 42.8541 59.961 42.6643C60.6635 42.5027 61.3592 42.2907 62.0656 41.9422C67.3246 39.3701 65.807 34.8116 60.2608 33.2085C58.7617 32.7506 57.053 32.6364 55.7266 33.555C53.4494 35.1136 55.4491 36.6905 56.04 38.5463L56.0468 38.5656L56.0459 38.5647Z" fill="#7C6354"/>
<path d="M71.7724 60.3115C71.0699 59.6223 70.2665 59.0076 69.564 58.1857C68.8072 57.3464 68.1988 56.2835 67.3935 55.5439C66.3591 54.5594 65.0939 54.298 63.7258 54.7705C62.2548 55.2603 61.1293 56.1025 61.2331 57.7985C61.2428 58.7056 61.466 59.8091 62.0404 60.6C62.4062 61.1296 62.9136 61.5342 63.4182 61.9253C64.0576 62.4267 64.7038 62.9282 65.2909 63.4858C65.6761 63.8507 66.037 64.2437 66.3524 64.6706C66.8521 65.3338 67.2072 66.053 67.6962 66.1866C68.7354 66.4461 70.3859 64.1305 70.9428 63.3396C71.3319 62.7578 71.6211 62.2767 71.8578 61.7384C72.112 61.1954 72.1508 60.6852 71.7802 60.3212L71.7724 60.3115ZM59.2925 59.9657C59.5884 58.2155 59.3099 56.2639 58.0505 54.9474C57.1704 54.0403 55.7625 53.0684 54.5332 52.8041C53.7152 52.6318 52.8682 52.8622 52.1841 53.3269C50.9848 54.1061 50.259 55.2049 50.7316 56.6453C51.0062 57.5534 51.2177 58.503 51.3225 59.4517C51.3991 60.0712 51.4729 60.6995 51.7193 61.2736C52.2006 62.4488 53.331 62.9899 54.4371 63.5949C55.2987 64.0218 56.4058 64.9115 57.3878 64.4981C58.555 63.9308 59.0208 61.3297 59.2886 59.987L59.2915 59.9667L59.2925 59.9657ZM58.8665 56.9077L58.8529 56.927C58.8442 56.9173 58.8597 56.9144 58.8665 56.9077Z" fill="#7C6354"/>
<path d="M66.6463 24.5741C64.2585 25.4754 60.8983 27.3079 60.6101 30.0126C60.5907 30.4405 60.7761 30.8103 61.1108 31.061C61.5407 31.4056 62.3373 31.666 62.9573 32.0629C63.6346 32.4569 64.2342 33.0348 64.9221 33.3891C66.0147 33.9545 66.9782 32.8848 67.834 32.3059C69.0401 31.3098 72.0926 30.3427 72.3119 28.7716C72.407 27.6235 71.5395 26.6264 70.9341 25.7087C70.5809 25.2101 70.2539 24.7368 69.8755 24.4396C68.9654 23.701 67.7146 24.215 66.6638 24.5673L66.6463 24.5741Z" fill="#7C6354"/>
<path d="M55.5724 22.1812C55.0261 22.1879 54.4575 22.4077 53.9569 22.64C52.1405 23.4948 50.6491 24.6826 50.263 26.5645C50.1475 27.1279 50.1126 27.7029 50.066 28.2818C50.034 28.7126 49.9981 29.1424 49.9631 29.546C49.9059 30.2634 49.8438 30.8761 50.0902 31.394C50.3881 32.0639 51.6815 33.1133 52.4005 33.1472C52.841 33.1259 53.1903 32.7793 53.5416 32.5305C54.1791 32.031 55.1212 31.3727 55.9605 30.9807C56.5437 30.6903 57.1879 30.5228 57.676 30.2401C58.3426 29.879 58.7656 29.2082 58.8976 28.458C59.243 26.67 58.6541 24.7039 57.5111 23.3157C57.0463 22.7078 56.3962 22.1666 55.5899 22.1831H55.5714L55.5724 22.1812Z" fill="#7C6354"/>
<path d="M57.804 71.2291C57.2597 68.1914 56.7309 66.9262 53.9248 65.5545C53.364 65.2592 52.7925 64.9553 52.284 64.5845C51.8814 64.3096 51.4738 63.9117 51.0294 63.783C50.1969 63.6029 49.6875 64.6368 49.2897 65.2699C47.484 67.9514 49.2577 70.9426 51.0149 73.4479C51.5117 74.1149 52.0007 75.415 52.8206 75.6018C53.3174 75.7199 53.9956 75.4363 54.7301 75.1981C57.0113 74.474 58.3464 74.0423 57.8089 71.2514L57.805 71.2272L57.804 71.2291Z" fill="#7C6354"/>
<path d="M32.3232 16.0194C32.8597 18.4734 34.614 20.5673 36.4945 22.1598C37.1242 22.666 37.6879 23.2769 38.3312 23.7541C39.2336 24.4259 39.8177 23.5412 40.4533 22.9332C41.247 22.091 42.6306 21.1869 42.0038 19.8965C41.8369 19.5102 41.5574 19.1259 41.3081 18.7706C38.7494 15.5161 40.9927 12.0631 39.1569 11.9672C38.796 11.9585 38.3875 12.0873 38.0207 12.2063C37.4318 12.4038 36.8408 12.6052 36.2344 12.7387C34.2434 13.1676 31.8477 13.3525 32.3202 15.9991L32.3232 16.0194Z" fill="#7C6354"/>
<path d="M15.9989 29.6853C16.7809 30.4966 17.954 31.0522 19.0835 31.2662C20.5243 31.5285 22.0021 31.2826 23.4799 31.1916C24.291 31.1258 25.0595 31.1587 25.5602 30.6166C25.8532 30.2894 25.9628 29.7744 26.0075 29.2013C26.0667 28.2575 26.1132 27.2981 25.8221 26.3882C25.2497 24.5305 23.5119 23.5305 21.8449 22.6883C21.254 22.4037 20.5389 21.9497 19.9014 22.2769C19.5482 22.455 19.2164 22.8848 18.8108 23.424C18.4217 23.9419 17.987 24.5566 17.5669 25.1897C16.9391 26.15 16.4142 26.9942 15.9863 27.9254C15.6593 28.6544 15.5341 29.1355 15.9892 29.6747L15.9989 29.6853ZM22.1224 30.8799C22.0739 30.8993 22.0681 30.8228 22.1214 30.8722L22.1224 30.8799Z" fill="#7C6354"/>
<path d="M32.7879 36.7475C32.8713 35.519 31.6003 34.6681 30.531 34.2325C29.4957 33.8356 28.3934 33.7233 27.2873 33.5191C25.8222 33.2916 23.6322 32.8705 22.2951 33.5104C21.5752 33.8676 21.4529 34.734 21.6751 35.4484C22.3388 37.9043 25.1313 39.8375 27.7414 40.64C28.6447 40.9091 29.7043 41.2257 30.6212 40.9169C31.5129 40.5906 31.773 39.5955 32.2145 38.5645C32.4726 37.943 32.752 37.3283 32.7879 36.7659V36.7475Z" fill="#7C6354"/>
<path d="M57.3539 51.729C59.4584 53.3669 59.8737 54.1104 62.673 53.121C63.6375 52.7822 64.8339 52.5867 65.4306 51.7416C67.3809 48.3399 60.0823 43.2431 57.6149 45.549C56.9968 46.0978 56.6902 46.8704 56.3224 47.6274C56.0721 48.1743 55.8179 48.699 55.6568 49.1259C55.0805 50.4318 56.4146 51.0088 57.3383 51.7183L57.3539 51.729Z" fill="#7C6354"/>
<path d="M27.4901 52.39C28.4808 52.6534 29.6053 52.8479 30.6552 52.6621C31.6924 52.5014 32.9703 51.937 32.9722 50.7453C32.9344 49.7434 32.2513 48.9651 31.9001 48.029C31.6371 47.364 31.511 46.6553 31.4101 45.9467C31.2791 45.0252 31.217 43.8393 30.1497 43.5954C28.6244 43.2565 27.4649 44.4927 26.3733 45.4221C25.5767 46.1045 24.7364 46.756 24.1707 47.6563C23.4197 48.8034 23.0064 50.6543 24.3036 51.4636C24.815 51.7908 25.4486 51.9167 26.0376 52.0512C26.5343 52.1597 27.0088 52.27 27.4707 52.3862L27.4891 52.391L27.4901 52.39ZM24.6064 51.4898C24.6617 51.4859 24.6607 51.4927 24.6044 51.4898H24.6064Z" fill="#7C6354"/>
<path d="M20.8863 48.237C20.4875 47.9224 19.8675 47.8963 19.3571 47.9495C17.2564 48.0889 14.0137 49.9882 13.3326 52.0076C13.0046 53.1615 13.4927 54.3551 13.8507 55.448C14.2582 56.6474 14.7841 57.0259 16.0494 56.8768C17.2904 56.7229 18.7817 56.8575 19.7278 55.9175C21.2123 54.2863 21.5461 51.6291 21.4462 49.5391C21.4093 49.0531 21.2744 48.5391 20.8979 48.2467L20.8863 48.237Z" fill="#7C6354"/>
<path d="M30.4796 60.0833C30.6737 59.547 30.6707 58.9846 30.6513 58.3234C30.629 57.7193 30.6086 57.1124 30.5514 56.5209C30.402 55.0301 30.0245 55.0136 28.4187 54.7823C28.1063 54.7378 27.7938 54.6913 27.4736 54.64C25.8678 54.4425 24.1931 53.5296 23.0859 55.1656C21.9876 56.8539 22.4756 59.2091 22.8094 61.2885C22.9074 61.819 23.0345 62.4531 23.5032 62.7464C23.8894 62.9884 24.4308 62.9506 24.8888 62.8935C26.7556 62.6176 29.7169 61.9661 30.4738 60.0988L30.4796 60.0833ZM28.8262 55.3592C28.8446 55.3796 28.8 55.4076 28.8175 55.3621L28.8262 55.3592Z" fill="#7C6354"/>
<path d="M37.2348 62.2091C38.9551 61.2875 40.0904 59.5131 40.2223 57.5576C40.2563 57.1356 40.2447 56.6758 40.0914 56.2895C39.7158 55.3757 38.665 55.0098 37.8432 54.4986C37.3483 54.2131 36.836 53.9081 36.3722 53.6593C35.1681 52.9953 34.5481 52.8462 33.7427 54.0369C32.6977 55.4667 32.5648 57.1404 32.8597 58.79C33.0024 59.7367 33.1751 60.7086 33.4875 61.6176C33.765 62.3311 34.0241 62.9845 34.7615 63.1094C35.3796 63.2062 36.4886 62.6467 37.2164 62.2198L37.2348 62.2091ZM32.8801 57.4686C32.8811 57.4608 32.8821 57.4599 32.883 57.4628C32.8869 57.5451 32.8772 57.6709 32.8714 57.7203C32.8588 57.7493 32.8753 57.4841 32.8782 57.4773L32.8801 57.4686Z" fill="#7C6354"/>
<path d="M48.6707 61.8401C49.1801 60.3484 49.2829 57.1829 47.8624 56.2178C47.1948 55.8063 46.5253 55.937 45.6754 56.0077C44.1753 56.15 42.6966 56.0774 42.4084 57.8992C41.9514 60.5633 42.4191 63.6136 44.4043 65.5023C44.8099 65.8808 45.3377 66.2409 45.8849 66.0782C46.9562 65.7762 48.2573 62.9466 48.6648 61.8566L48.6707 61.8401ZM42.4821 61.3048C42.4821 61.3048 42.487 61.39 42.4879 61.4268C42.4879 61.4984 42.4792 61.3232 42.4812 61.3058L42.4821 61.3048ZM48.693 61.7395C48.6891 61.7908 48.6949 61.7917 48.693 61.7395V61.7395Z" fill="#7C6354"/>
<path d="M71.3756 32.6896C70.7662 33.132 70.1316 33.4737 69.4913 33.8628C68.8693 34.2491 68.2794 34.6208 67.9252 35.2249C67.4391 36.0613 67.4789 37.2926 68.0329 38.0438C68.5103 38.6285 69.2943 38.7524 69.9929 38.946C71.557 39.3526 73.19 40.1484 74.79 39.8812C75.8224 39.7399 76.4842 39.008 76.4259 37.949C76.3095 36.3178 75.5983 34.7893 75.0617 33.2578C74.8114 32.5783 74.5882 31.8474 74.203 31.5163C73.3831 30.8309 72.1625 32.192 71.3921 32.678L71.3756 32.6896ZM69.6087 38.4407C69.5999 38.4407 69.5301 38.4349 69.5369 38.4349C69.532 38.434 69.6019 38.4398 69.6087 38.4407Z" fill="#7C6354"/>
<path d="M47.3617 25.1502C46.9387 24.2963 46.0354 23.7997 45.2843 23.2373C44.5159 22.6565 43.761 22.2325 42.9333 22.794C40.9151 24.3583 38.8435 27.1947 40.0913 29.6913C40.5318 30.5219 41.4381 30.5335 42.2658 30.4647C42.8703 30.4299 43.4796 30.427 44.0831 30.4938C45.9315 30.7039 47.453 31.1395 47.7896 29.064C47.9711 27.8743 47.8828 26.246 47.3715 25.1695L47.3617 25.1502ZM47.6257 27.5083C47.6247 27.4967 47.6276 27.4125 47.6266 27.4115C47.6266 27.4086 47.6257 27.5006 47.6257 27.5083Z" fill="#7C6354"/>
<path d="M58.5667 21.255C58.9723 22.2821 59.8106 23.2424 60.3724 24.2211C61.1972 25.4776 60.9798 25.6112 62.4227 24.5793C62.9156 24.2521 63.4424 23.9414 63.9761 23.6626C64.6747 23.2947 65.3772 23.0004 66.1059 22.7236C66.6502 22.4777 67.8806 22.1602 67.5584 21.3857C67.1412 20.5106 65.0939 19.3964 63.9887 18.6636C63.4512 18.3112 63.0155 17.9308 62.541 17.4864C61.5746 16.6375 60.2026 15.1554 59.3701 15.9405C58.9335 16.4535 58.8617 17.197 58.7025 17.8436C58.4697 18.9404 58.1349 20.164 58.5609 21.2376L58.5667 21.255ZM60.8809 25.0323C60.8838 25.0381 60.9071 25.0895 60.9051 25.0856C60.9061 25.0904 60.8828 25.0391 60.8809 25.0323Z" fill="#7C6354"/>
<path d="M35.0031 66.3325C34.6499 65.9463 34.0881 65.8863 33.5399 65.5378C33.1712 65.3161 32.8384 64.9657 32.5512 64.6239C32.2552 64.2987 31.9932 63.8863 31.5576 63.8059C30.5368 63.6501 29.7616 66.4971 29.3152 68.4245C29.0135 69.7865 28.4556 71.378 29.4744 72.5716C29.9993 73.1989 30.7668 73.588 31.5129 73.8997C32.8568 74.4525 33.797 74.3993 34.4132 73.1331C34.7625 72.4409 34.9546 71.6452 35.0943 70.8427C35.2282 70.0479 35.301 69.256 35.334 68.4642C35.3543 67.5358 35.4194 66.8398 35.0109 66.3432L35.0021 66.3335L35.0031 66.3325Z" fill="#7C6354"/>
<path d="M75.6662 52.2478C75.281 51.8519 74.6387 51.5905 74.0332 51.301C73.6587 51.1229 73.289 50.9322 72.9251 50.7347C71.9112 50.1926 70.8885 49.4211 69.6892 49.4318C65.0677 49.756 69.6708 56.1432 72.5079 58.1074C73.5229 58.7453 74.2904 58.1345 74.7338 57.0667C75.052 56.2836 75.3121 55.514 75.6507 54.725C75.9777 53.8896 76.3425 52.9409 75.6779 52.2613L75.6662 52.2497V52.2478Z" fill="#7C6354"/>
<path d="M23.8457 21.8056C24.5753 22.1599 25.2264 22.5607 25.8513 23.0602C26.4208 23.5006 27.1777 24.2083 27.8947 23.6817C28.4187 23.3051 28.9058 22.4242 29.4918 21.9305C30.1293 21.2973 31.3266 20.6255 31.5168 19.8037C31.6478 19.0854 31.1083 18.2451 30.8832 17.4533C30.4902 16.4649 30.5339 14.3439 29.0309 15.0264C27.5512 15.7417 26.2413 16.8018 24.9576 17.8143C24.2037 18.4513 23.3576 19.0108 22.6571 19.6962C21.6654 20.7194 22.9394 21.369 23.8253 21.7949L23.8447 21.8046L23.8457 21.8056Z" fill="#7C6354"/>
<path d="M12.632 39.461C13.4344 40.1822 14.6182 40.2829 15.541 39.7612C16.4394 39.2849 17.3622 38.5259 18.3238 38.0738C18.9098 37.7621 19.5871 37.4175 19.7181 36.7137C19.8694 35.6557 19.1863 34.0458 18.349 33.2927C17.8338 32.8232 17.1837 32.4989 16.5452 32.2027C15.1043 31.5434 14.037 31.2036 13.6411 33.0061C13.4034 34.1726 13.221 35.2181 12.6737 36.3071C12.1692 37.3797 11.5938 38.5434 12.6175 39.4485L12.632 39.461Z" fill="#7C6354"/>
<path d="M43.8949 70.0422C44.6498 68.0781 42.6092 66.7122 41.5167 65.3153C40.8685 64.567 40.5386 63.4344 39.8031 63.2127C39.253 63.0849 38.7067 63.5999 38.3506 64.0471C37.8626 64.6686 37.5123 65.4382 37.4317 66.2223C37.229 67.928 38.4661 69.3007 39.2423 70.685C39.5664 71.2736 39.7857 71.9309 40.0185 72.5533C40.819 74.7402 41.6816 73.9376 42.9857 71.8137C43.3408 71.2445 43.694 70.6366 43.889 70.0616L43.8949 70.0422Z" fill="#7C6354"/>
<path d="M65.904 67.9358C65.7313 67.0791 65.1395 66.2959 64.5631 65.6057C64.0828 65.0413 63.5123 64.6144 62.9573 64.2185C62.3528 63.841 61.5581 62.9271 60.8003 63.1382C60.1298 63.4305 59.8834 64.1817 59.4758 64.9794C59.2828 65.3995 59.1013 65.8409 58.9859 66.2843C58.6346 67.4905 59.11 68.564 59.4332 69.7547C59.9513 71.5659 59.7834 73.5437 62.1267 71.5321C62.9117 70.8632 63.7539 70.2465 64.632 69.6947C65.2365 69.3036 66.0535 68.7509 65.907 67.9522L65.904 67.9358Z" fill="#7C6354"/>
<path d="M66.3678 46.8894C67.2673 48.0666 68.0154 47.9049 69.0643 47.1053C70.1452 46.2796 71.2028 45.2921 71.7753 44.0279C72.0111 43.4751 72.2391 42.8478 72.0062 42.2728C71.786 41.7346 70.9166 41.5236 70.2937 41.3319C69.5281 41.1267 68.7926 40.7336 68.0106 40.603C66.4833 40.3638 65.7701 41.9795 64.8503 42.9059C64.6485 43.1276 64.4583 43.3232 64.2662 43.5342C63.9198 43.9175 63.9081 44.0192 64.2448 44.3899C64.6213 44.7955 65.0191 45.1847 65.3869 45.6213C65.7255 46.0162 66.0447 46.479 66.3572 46.8739L66.3678 46.8894Z" fill="#7C6354"/>
<path d="M23.1558 45.4878C23.5012 45.2419 23.8777 44.9205 24.2775 44.5914C24.9984 43.9448 25.828 43.4201 25.6126 42.5934C25.2701 41.7057 23.9922 41.0803 23.1325 40.6757C19.8743 39.2352 15.311 40.2933 17.3331 42.8441C17.6843 43.2565 18.1879 43.665 18.7332 44.0996C19.5172 44.7105 20.3167 45.3823 21.1822 45.7502C21.8585 46.0551 22.5397 45.9612 23.1413 45.4994L23.1558 45.4878Z" fill="#7C6354"/>
<path d="M76.7908 41.9236C76.2222 41.3767 75.2315 41.5799 74.7153 42.1114C74.0643 42.7774 74.073 43.9139 73.5723 44.9178C73.2162 45.8016 72.0596 46.6854 72.4769 47.6883C72.963 48.7077 74.3612 49.4773 75.4431 49.7774C76.7151 50.121 76.8442 48.9923 76.9936 47.8248C77.1576 46.5644 77.275 45.2924 77.2711 44.0194C77.2507 43.2605 77.2953 42.4522 76.8024 41.9343L76.7908 41.9236Z" fill="#7C6354"/>
<path d="M49.6021 75.0471C49.3256 74.1652 48.4223 73.4072 47.9779 72.5369C47.6315 71.9454 47.4161 71.2969 47.06 70.7586C46.2081 69.5854 45.6841 71.1478 44.9234 72.4459C44.7526 72.7489 44.5702 73.0432 44.3684 73.3326C44.0171 73.8409 43.6077 74.323 43.2186 74.7983C42.7975 75.3104 42.0115 76.2784 42.8702 76.5911C43.1856 76.7121 43.5465 76.7295 43.9075 76.7344C44.6022 76.7315 45.2853 76.6773 46.0053 76.6627C47.1153 76.5979 49.9747 76.7257 49.606 75.0635L49.6021 75.0471Z" fill="#7C6354"/>
<path d="M14.7793 47.7367C15.3886 47.2875 16.0853 46.9371 16.7257 46.5479C17.4961 46.0823 17.7008 45.7115 16.9159 45.0155C16.3434 44.4869 15.6933 44.0049 15.0801 43.5121C14.43 43.0097 13.8361 42.4686 13.0871 42.1346C11.621 41.4996 11.7093 43.1443 11.7316 44.1278C11.75 44.8267 11.7714 45.5527 11.7801 46.2526C11.7888 47.3727 11.8024 49.212 12.5369 49.1394C12.9871 49.1268 13.3539 48.8335 13.7255 48.5595C14.0564 48.302 14.396 48.0116 14.7637 47.7473L14.7802 47.7357L14.7793 47.7367Z" fill="#7C6354"/>
<path d="M41.7796 16.0342C41.9659 16.5105 42.2842 17.4514 42.8353 17.4998C43.2778 17.5143 43.8677 16.5105 44.2694 16.0632C45.1795 14.8871 46.5603 14.2269 47.8217 13.5153C49.7962 12.3605 48.5998 11.7584 46.9173 11.7187C45.7889 11.6732 44.6139 11.7825 43.4806 11.77C42.5986 11.7796 41.9776 11.6335 41.5914 12.1233C41.0344 12.9926 41.4594 15.0836 41.7728 16.0148L41.7796 16.0342Z" fill="#7C6354"/>
<path d="M27.819 65.2061C27.396 64.8024 26.8371 64.8643 26.1249 64.8914C25.174 64.9582 24.1969 65.0967 23.3353 65.4907C22.6406 65.7975 21.8022 66.4345 22.0875 67.2835C22.2282 67.7394 22.6716 68.1751 23.1325 68.5865C23.7001 69.0995 24.3017 69.601 24.9295 70.0956C25.2972 70.3754 25.7678 70.7549 26.2229 70.7568C27.0234 70.7297 27.2194 69.2651 27.4726 68.6242C27.6424 68.0841 27.7851 67.5226 27.9025 66.965C28.0315 66.2554 28.1945 65.692 27.8297 65.2148L27.821 65.2051L27.819 65.2061ZM26.1065 65.2225C26.1065 65.2225 26.0977 65.2196 26.0929 65.2177C26.0987 65.2187 26.1036 65.2206 26.1065 65.2225Z" fill="#7C6354"/>
<path d="M20.6718 60.906C20.5486 60.1142 20.5661 59.1461 19.9179 58.8015C19.6016 58.6486 19.1203 58.6912 18.577 58.7696C18.019 58.8606 17.4165 58.9215 16.8751 59.0358C16.1726 59.1723 15.7922 59.574 16.1464 60.3533C16.3919 60.9157 16.7383 61.423 17.1118 62.057C17.8551 63.2022 18.8845 65.3377 20.0043 64.4984C20.9522 63.5914 20.8125 62.1432 20.6747 60.9273L20.6718 60.906Z" fill="#7C6354"/>
<path d="M54.4264 43.368C54.7234 28.8125 31.9224 30.1068 33.634 44.7446C34.0522 50.2315 39.1676 53.7029 44.3839 53.5519C50.1533 53.4773 54.5371 49.4745 54.4255 43.3922V43.369L54.4264 43.368Z" fill="#7C6354"/>
<path d="M44.5 1.25C68.2118 1.25 87.5 21.2481 87.5 46C87.5 70.7519 68.2118 90.75 44.5 90.75C20.7882 90.75 1.5 70.7519 1.5 46C1.5 21.2481 20.7882 1.25 44.5 1.25Z" stroke="white" stroke-width="2"/>
</svg>
