<svg width="75" height="75" viewBox="0 0 75 75" fill="none" xmlns="http://www.w3.org/2000/svg">
<path d="M74.944 39.3751C76.4858 11.1847 45.8817 -8.69895 21.0247 3.82658C12.4658 7.68714 5.74649 15.0143 2.54549 23.6996C-3.89533 40.591 2.45719 61.0254 18.796 70.0863C42.3576 83.7725 74.2415 67.3709 74.943 39.3974V39.3761L74.944 39.3751ZM32.3112 0.492626C32.3025 0.493594 32.2307 0.500368 32.2045 0.502304C32.1628 0.505208 32.287 0.493594 32.3093 0.492626H32.3112ZM25.5725 2.12862C25.5667 2.13056 25.5036 2.14799 25.5075 2.14605C25.5007 2.14702 25.5638 2.12959 25.5725 2.12862ZM0.0101072 36.2812C0.0101072 36.3025 -0.00444718 36.6394 0.00137458 36.4787C0.00331517 36.4323 0.00719635 36.3229 0.0101072 36.2812ZM2.62796 51.2094C2.62602 51.1978 2.62602 51.1872 2.62796 51.1794C2.62796 51.1891 2.62796 51.1998 2.62796 51.2094ZM21.5283 71.2944C21.5351 71.2964 21.5904 71.3118 21.5836 71.3109C21.5875 71.3128 21.5332 71.2973 21.5283 71.2944ZM33.0642 74.5829C33.0729 74.5838 33.1466 74.5955 33.1408 74.5955C33.1437 74.5955 33.0709 74.5848 33.0642 74.5829ZM40.3404 72.641C40.3326 72.641 40.2705 72.6468 40.2482 72.6478C40.2123 72.6497 40.32 72.641 40.3394 72.64L40.3404 72.641ZM51.5415 70.6652C51.5357 70.6604 51.4813 70.5848 51.4736 70.5674C51.4687 70.5577 51.4736 70.5607 51.4862 70.5752C51.5046 70.5974 51.5289 70.6362 51.5424 70.6642L51.5415 70.6652ZM72.2932 42.8494C71.8604 44.5493 71.4907 46.4292 71.0298 48.1349C70.6398 49.528 70.046 50.8735 69.488 52.2491C69.2125 52.9248 68.8583 53.557 68.4624 54.1717C65.4351 58.9248 61.8984 63.4252 57.3778 66.6372C55.6759 67.8433 53.8323 68.9731 51.8607 69.7194C50.8535 70.1231 49.9259 70.5326 48.9372 70.8695C47.6098 71.2925 46.2485 71.5868 44.8785 71.8578C43.3483 72.2121 41.6843 72.4774 40.1211 72.5926C39.2585 72.6865 38.3814 72.7562 37.51 72.7223C34.6186 72.6371 31.7087 72.2509 28.8997 71.6139C27.0367 71.127 25.2562 70.5423 23.5077 69.6913C22.4986 69.2451 21.4361 68.8917 20.4882 68.3274C19.6285 67.8066 18.7562 67.2122 17.9266 66.6207C16.7632 65.8288 15.6949 65.0922 14.6635 64.1299C12.8384 62.5569 11.2471 60.8018 9.72761 58.9228C6.98555 54.7689 4.24932 50.1911 3.22954 45.436C3.01414 44.2541 2.65998 43.1582 2.496 41.9646C2.33784 40.8156 2.36792 39.6326 2.32717 38.4729C2.25246 35.3093 2.42711 31.9473 3.38673 28.8854C3.92622 27.3791 4.12222 25.7266 4.78396 24.2707C5.71447 22.2088 7.0166 20.2882 8.17805 18.3163C8.52541 17.6899 8.80389 17.0394 9.20656 16.4479C9.67424 15.7693 10.271 15.1469 10.8192 14.5303C13.5399 11.2602 17.0155 8.96495 20.7851 6.62422C21.769 6.04726 22.7819 5.61261 23.8609 5.27186C24.7982 4.96112 25.7452 4.57487 26.6884 4.28543C27.5199 4.01631 28.365 3.83239 29.2053 3.64458C30.457 3.33481 31.7581 3.04536 33.0593 2.89725C35.3046 2.66395 37.5333 2.63782 39.7359 2.67557C40.5723 2.69396 41.4766 2.82948 42.2664 2.99502C43.9421 3.37449 45.6731 3.57973 47.3226 4.04633C48.1639 4.3077 48.978 4.63005 49.8153 4.91078C51.0641 5.34447 52.2149 5.74815 53.3734 6.39383C54.0613 6.7704 54.7279 7.24764 55.3732 7.70456C56.4715 8.47706 57.698 9.12081 58.679 10.0211C59.1107 10.4093 59.5202 10.8178 59.9423 11.2186C60.3799 11.6358 60.835 12.0404 61.292 12.4354C64.1505 14.872 65.9969 18.0781 68.2102 21.2214C71.8565 27.4159 73.149 36.2241 72.299 42.83L72.2951 42.8484L72.2932 42.8494ZM72.5105 42.5551C72.5105 42.5464 72.5173 42.4709 72.5173 42.4777C72.5173 42.4748 72.5115 42.5484 72.5105 42.5551Z" fill="#06D001"/>
<path d="M32.1064 69.1938C32.1821 68.9188 32.0541 68.4822 31.8639 67.9924C31.6262 67.4077 31.3642 66.7349 31.077 66.1822C30.8751 65.7872 30.5297 65.2683 30.0989 65.6478C29.705 66.0021 29.4294 66.5762 29.1238 67.2083C28.7318 68.0524 28.4853 68.8762 29.5963 69.2393C30.1241 69.4154 31.9182 69.9091 32.1026 69.2054L32.1064 69.1938Z" fill="#06D001"/>
<path d="M39.8659 9.41895C39.0033 10.1634 38.0195 11.1343 37.8535 12.2495C37.6022 14.2359 39.635 16.0239 41.2573 16.8284C41.7085 17.0142 42.1345 16.9813 42.5643 16.7344C43.0378 16.4653 43.4677 16.0491 43.9266 15.7403C44.5166 15.326 45.1832 15.0443 45.8478 14.7442C47.834 13.8652 49.2487 13.0326 49.6921 10.7674C49.8241 10.1634 49.9376 9.56221 49.9483 8.95331C50.0317 7.7539 48.8489 7.35604 47.9126 6.87492C46.9151 6.40058 45.8575 5.77232 44.7514 6.26699C44.2361 6.46641 43.7772 6.79167 43.3192 7.09854C42.1597 7.87103 40.9381 8.51963 39.8815 9.40636L39.8659 9.41895Z" fill="#06D001"/>
<path d="M23.4835 16.9977C20.9869 19.5456 19.7042 23.9037 23.566 25.3993C24.2675 25.7139 25.0321 26.0218 25.687 26.4158C26.2682 26.7488 27.0561 27.3742 27.5102 27.5184C28.1428 27.7101 28.5057 27.3461 29.1403 26.8737C29.6876 26.4177 30.3891 25.8766 30.7238 25.29C31.2856 24.2996 30.7161 23.1854 30.5909 22.0731C30.491 21.3936 30.4871 20.7111 30.3231 20.0441C30.0737 18.9919 29.4178 18.1167 28.6115 17.3704C26.6525 15.5901 25.656 14.7112 23.499 16.9832L23.4845 16.9987L23.4835 16.9977Z" fill="#06D001"/>
<path d="M49.0459 32.0647C49.3146 32.8294 49.4728 33.6513 49.6474 34.4412C49.8464 35.3928 50.0821 36.2989 50.7963 36.3879C51.295 36.4964 52.1353 36.3541 52.961 36.1643C53.6635 36.0027 54.3592 35.7907 55.0656 35.4422C60.3246 32.8701 58.807 28.3116 53.2608 26.7085C51.7617 26.2506 50.053 26.1364 48.7266 27.055C46.4494 28.6136 48.4491 30.1905 49.04 32.0463L49.0468 32.0656L49.0459 32.0647Z" fill="#06D001"/>
<path d="M64.7724 53.8115C64.0699 53.1223 63.2665 52.5076 62.564 51.6857C61.8072 50.8464 61.1988 49.7835 60.3935 49.0439C59.3591 48.0594 58.0939 47.798 56.7258 48.2705C55.2548 48.7603 54.1293 49.6025 54.2331 51.2985C54.2428 52.2056 54.466 53.3091 55.0404 54.1C55.4062 54.6296 55.9136 55.0342 56.4182 55.4253C57.0576 55.9267 57.7038 56.4282 58.2909 56.9858C58.6761 57.3507 59.037 57.7437 59.3524 58.1706C59.8521 58.8338 60.2072 59.553 60.6962 59.6866C61.7354 59.9461 63.3859 57.6305 63.9428 56.8396C64.3319 56.2578 64.6211 55.7767 64.8578 55.2384C65.112 54.6954 65.1508 54.1852 64.7802 53.8212L64.7724 53.8115Z" fill="#06D001"/>
<path d="M52.2925 53.4657C52.5884 51.7155 52.3099 49.7639 51.0505 48.4474C50.1704 47.5403 48.7625 46.5684 47.5332 46.3041C46.7152 46.1318 45.8682 46.3622 45.1841 46.8269C43.9848 47.6061 43.259 48.7049 43.7316 50.1453C44.0062 51.0534 44.2177 52.003 44.3225 52.9517C44.3991 53.5712 44.4729 54.1995 44.7193 54.7736C45.2006 55.9488 46.331 56.4899 47.4371 57.0949C48.2987 57.5218 49.4058 58.4115 50.3878 57.9981C51.555 57.4308 52.0208 54.8297 52.2886 53.487L52.2915 53.4667L52.2925 53.4657ZM51.8665 50.4077L51.8529 50.427C51.8442 50.4173 51.8597 50.4144 51.8665 50.4077Z" fill="#06D001"/>
<path d="M59.6463 18.0741C57.2585 18.9754 53.8983 20.8079 53.6101 23.5126C53.5907 23.9405 53.7761 24.3103 54.1108 24.561C54.5407 24.9056 55.3373 25.166 55.9573 25.5629C56.6346 25.9569 57.2342 26.5348 57.9221 26.8891C59.0147 27.4545 59.9782 26.3848 60.834 25.8059C62.0401 24.8098 65.0926 23.8427 65.3119 22.2716C65.407 21.1235 64.5395 20.1264 63.9341 19.2087C63.5809 18.7101 63.2539 18.2368 62.8755 17.9396C61.9654 17.201 60.7146 17.715 59.6638 18.0673L59.6463 18.0741Z" fill="#06D001"/>
<path d="M48.5724 15.6812C48.0261 15.6879 47.4575 15.9077 46.9569 16.14C45.1405 16.9948 43.6491 18.1826 43.263 20.0645C43.1475 20.6279 43.1126 21.2029 43.066 21.7818C43.034 22.2126 42.9981 22.6424 42.9631 23.046C42.9059 23.7634 42.8438 24.3761 43.0902 24.894C43.3881 25.5639 44.6815 26.6133 45.4005 26.6472C45.841 26.6259 46.1903 26.2793 46.5416 26.0305C47.1791 25.531 48.1212 24.8727 48.9605 24.4807C49.5437 24.1903 50.1879 24.0228 50.676 23.7401C51.3426 23.379 51.7656 22.7082 51.8976 21.958C52.243 20.17 51.6541 18.2039 50.5111 16.8157C50.0463 16.2078 49.3962 15.6666 48.5899 15.6831H48.5714L48.5724 15.6812Z" fill="#06D001"/>
<path d="M50.804 64.7291C50.2597 61.6914 49.7309 60.4262 46.9248 59.0545C46.364 58.7592 45.7925 58.4553 45.284 58.0845C44.8814 57.8096 44.4738 57.4117 44.0294 57.283C43.1969 57.1029 42.6875 58.1368 42.2897 58.7699C40.484 61.4514 42.2577 64.4426 44.0149 66.9479C44.5117 67.6149 45.0007 68.915 45.8206 69.1018C46.3174 69.2199 46.9956 68.9363 47.7301 68.6981C50.0113 67.974 51.3464 67.5423 50.8089 64.7514L50.805 64.7272L50.804 64.7291Z" fill="#06D001"/>
<path d="M25.3232 9.51945C25.8597 11.9734 27.614 14.0673 29.4945 15.6598C30.1242 16.166 30.6879 16.7769 31.3312 17.2541C32.2336 17.9259 32.8177 17.0412 33.4533 16.4332C34.247 15.591 35.6306 14.6869 35.0038 13.3965C34.8369 13.0102 34.5574 12.6259 34.3081 12.2706C31.7494 9.01607 33.9927 5.56305 32.1569 5.46722C31.796 5.4585 31.3875 5.58725 31.0207 5.70632C30.4318 5.9038 29.8408 6.10515 29.2344 6.23874C27.2434 6.66759 24.8477 6.85249 25.3202 9.49912L25.3232 9.51945Z" fill="#06D001"/>
<path d="M8.99889 23.1853C9.78094 23.9966 10.954 24.5522 12.0835 24.7662C13.5243 25.0285 15.0021 24.7826 16.4799 24.6916C17.291 24.6258 18.0595 24.6587 18.5602 24.1166C18.8532 23.7894 18.9628 23.2744 19.0075 22.7013C19.0667 21.7575 19.1132 20.7981 18.8221 19.8882C18.2497 18.0305 16.5119 17.0305 14.8449 16.1883C14.254 15.9037 13.5389 15.4497 12.9014 15.7769C12.5482 15.955 12.2164 16.3848 11.8108 16.924C11.4217 17.4419 10.987 18.0566 10.5669 18.6897C9.9391 19.65 9.41417 20.4942 8.98627 21.4254C8.65928 22.1544 8.53412 22.6355 8.98918 23.1747L8.99889 23.1853ZM15.1224 24.3799C15.0739 24.3993 15.0681 24.3228 15.1214 24.3722L15.1224 24.3799Z" fill="#06D001"/>
<path d="M25.7879 30.2475C25.8713 29.019 24.6003 28.1681 23.531 27.7325C22.4957 27.3356 21.3934 27.2233 20.2873 27.0191C18.8222 26.7916 16.6322 26.3705 15.2951 27.0104C14.5752 27.3676 14.4529 28.234 14.6751 28.9484C15.3388 31.4043 18.1313 33.3375 20.7414 34.14C21.6447 34.4091 22.7043 34.7257 23.6212 34.4169C24.5129 34.0906 24.773 33.0955 25.2145 32.0645C25.4726 31.443 25.752 30.8283 25.7879 30.2659V30.2475Z" fill="#06D001"/>
<path d="M50.3539 45.229C52.4584 46.8669 52.8737 47.6104 55.673 46.621C56.6375 46.2822 57.8339 46.0867 58.4306 45.2416C60.3809 41.8399 53.0823 36.7431 50.6149 39.049C49.9968 39.5978 49.6902 40.3704 49.3224 41.1274C49.0721 41.6743 48.8179 42.199 48.6568 42.6259C48.0805 43.9318 49.4146 44.5088 50.3383 45.2183L50.3539 45.229Z" fill="#06D001"/>
<path d="M20.4901 45.89C21.4808 46.1534 22.6053 46.3479 23.6552 46.1621C24.6924 46.0014 25.9703 45.437 25.9722 44.2453C25.9344 43.2434 25.2513 42.4651 24.9001 41.529C24.6371 40.864 24.511 40.1553 24.4101 39.4467C24.2791 38.5252 24.217 37.3393 23.1497 37.0954C21.6244 36.7565 20.4649 37.9927 19.3733 38.9221C18.5767 39.6045 17.7364 40.256 17.1707 41.1563C16.4197 42.3034 16.0064 44.1543 17.3036 44.9636C17.815 45.2908 18.4486 45.4167 19.0376 45.5512C19.5343 45.6597 20.0088 45.77 20.4707 45.8862L20.4891 45.891L20.4901 45.89ZM17.6064 44.9898C17.6617 44.9859 17.6607 44.9927 17.6044 44.9898H17.6064Z" fill="#06D001"/>
<path d="M13.8863 41.737C13.4875 41.4224 12.8675 41.3963 12.3571 41.4495C10.2564 41.5889 7.0137 43.4882 6.33255 45.5076C6.00459 46.6615 6.49265 47.8551 6.85069 48.948C7.25821 50.1474 7.78411 50.5259 9.04938 50.3768C10.2904 50.2229 11.7817 50.3575 12.7278 49.4175C14.2123 47.7863 14.5461 45.1291 14.4462 43.0391C14.4093 42.5531 14.2744 42.0391 13.8979 41.7467L13.8863 41.737Z" fill="#06D001"/>
<path d="M23.4796 53.5833C23.6737 53.047 23.6707 52.4846 23.6513 51.8234C23.629 51.2193 23.6086 50.6124 23.5514 50.0209C23.402 48.5301 23.0245 48.5136 21.4187 48.2823C21.1063 48.2378 20.7938 48.1913 20.4736 48.14C18.8678 47.9425 17.1931 47.0296 16.0859 48.6656C14.9876 50.3539 15.4756 52.7091 15.8094 54.7885C15.9074 55.319 16.0345 55.9531 16.5032 56.2464C16.8894 56.4884 17.4308 56.4506 17.8888 56.3935C19.7556 56.1176 22.7169 55.4661 23.4738 53.5988L23.4796 53.5833ZM21.8262 48.8592C21.8446 48.8796 21.8 48.9076 21.8175 48.8621L21.8262 48.8592Z" fill="#06D001"/>
<path d="M30.2348 55.7091C31.9551 54.7875 33.0904 53.0131 33.2223 51.0576C33.2563 50.6356 33.2447 50.1758 33.0914 49.7895C32.7158 48.8757 31.665 48.5098 30.8432 47.9986C30.3483 47.7131 29.836 47.4081 29.3722 47.1593C28.1681 46.4953 27.5481 46.3462 26.7427 47.5369C25.6977 48.9667 25.5648 50.6404 25.8597 52.29C26.0024 53.2367 26.1751 54.2086 26.4875 55.1176C26.765 55.8311 27.0241 56.4845 27.7615 56.6094C28.3796 56.7062 29.4886 56.1467 30.2164 55.7198L30.2348 55.7091ZM25.8801 50.9686C25.8811 50.9608 25.8821 50.9599 25.883 50.9628C25.8869 51.0451 25.8772 51.1709 25.8714 51.2203C25.8588 51.2493 25.8753 50.9841 25.8782 50.9773L25.8801 50.9686Z" fill="#06D001"/>
<path d="M41.6707 55.3401C42.1801 53.8484 42.2829 50.6829 40.8624 49.7178C40.1948 49.3063 39.5253 49.437 38.6754 49.5077C37.1753 49.65 35.6966 49.5774 35.4084 51.3992C34.9514 54.0633 35.4191 57.1136 37.4043 59.0023C37.8099 59.3808 38.3377 59.7409 38.8849 59.5782C39.9562 59.2762 41.2573 56.4466 41.6648 55.3566L41.6707 55.3401ZM35.4821 54.8048C35.4821 54.8048 35.487 54.89 35.4879 54.9268C35.4879 54.9984 35.4792 54.8232 35.4812 54.8058L35.4821 54.8048ZM41.693 55.2395C41.6891 55.2908 41.6949 55.2917 41.693 55.2395V55.2395Z" fill="#06D001"/>
<path d="M64.3756 26.1896C63.7662 26.632 63.1316 26.9737 62.4913 27.3628C61.8693 27.7491 61.2794 28.1208 60.9252 28.7249C60.4391 29.5613 60.4789 30.7926 61.0329 31.5438C61.5103 32.1285 62.2943 32.2524 62.9929 32.446C64.557 32.8526 66.19 33.6484 67.79 33.3812C68.8224 33.2399 69.4842 32.508 69.4259 31.449C69.3095 29.8178 68.5983 28.2893 68.0617 26.7578C67.8114 26.0783 67.5882 25.3474 67.203 25.0163C66.3831 24.3309 65.1625 25.692 64.3921 26.178L64.3756 26.1896ZM62.6087 31.9407C62.5999 31.9407 62.5301 31.9349 62.5369 31.9349C62.532 31.934 62.6019 31.9398 62.6087 31.9407Z" fill="#06D001"/>
<path d="M40.3617 18.6502C39.9387 17.7963 39.0354 17.2997 38.2843 16.7373C37.5159 16.1565 36.761 15.7325 35.9333 16.294C33.9151 17.8583 31.8435 20.6947 33.0913 23.1913C33.5318 24.0219 34.4381 24.0335 35.2658 23.9647C35.8703 23.9299 36.4796 23.927 37.0831 23.9938C38.9315 24.2039 40.453 24.6395 40.7896 22.564C40.9711 21.3743 40.8828 19.746 40.3715 18.6695L40.3617 18.6502ZM40.6257 21.0083C40.6247 20.9967 40.6276 20.9125 40.6266 20.9115C40.6266 20.9086 40.6257 21.0006 40.6257 21.0083Z" fill="#06D001"/>
<path d="M51.5667 14.755C51.9723 15.7821 52.8106 16.7424 53.3724 17.7211C54.1972 18.9776 53.9798 19.1112 55.4227 18.0793C55.9156 17.7521 56.4424 17.4414 56.9761 17.1626C57.6747 16.7947 58.3772 16.5004 59.1059 16.2236C59.6502 15.9777 60.8806 15.6602 60.5584 14.8857C60.1412 14.0106 58.0939 12.8964 56.9887 12.1636C56.4512 11.8112 56.0155 11.4308 55.541 10.9864C54.5746 10.1375 53.2026 8.65539 52.3701 9.44047C51.9335 9.95353 51.8617 10.697 51.7025 11.3436C51.4697 12.4404 51.1349 13.664 51.5609 14.7376L51.5667 14.755ZM53.8809 18.5323C53.8838 18.5381 53.9071 18.5895 53.9051 18.5856C53.9061 18.5904 53.8828 18.5391 53.8809 18.5323Z" fill="#06D001"/>
<path d="M28.0031 59.8325C27.6499 59.4463 27.0881 59.3863 26.5399 59.0378C26.1712 58.8161 25.8384 58.4657 25.5512 58.1239C25.2552 57.7987 24.9932 57.3863 24.5576 57.3059C23.5368 57.1501 22.7616 59.9971 22.3152 61.9245C22.0135 63.2865 21.4556 64.878 22.4744 66.0716C22.9993 66.6989 23.7668 67.088 24.5129 67.3997C25.8568 67.9525 26.797 67.8993 27.4132 66.6331C27.7625 65.9409 27.9546 65.1452 28.0943 64.3427C28.2282 63.5479 28.301 62.756 28.334 61.9642C28.3543 61.0358 28.4194 60.3398 28.0109 59.8432L28.0021 59.8335L28.0031 59.8325Z" fill="#06D001"/>
<path d="M68.6662 45.7478C68.281 45.3519 67.6387 45.0905 67.0332 44.801C66.6587 44.6229 66.289 44.4322 65.9251 44.2347C64.9112 43.6926 63.8885 42.9211 62.6892 42.9318C58.0677 43.256 62.6708 49.6432 65.5079 51.6074C66.5229 52.2453 67.2904 51.6345 67.7338 50.5667C68.052 49.7836 68.3121 49.014 68.6507 48.225C68.9777 47.3896 69.3425 46.4409 68.6779 45.7613L68.6662 45.7497V45.7478Z" fill="#06D001"/>
<path d="M16.8457 15.3056C17.5753 15.6599 18.2264 16.0607 18.8513 16.5602C19.4208 17.0006 20.1777 17.7083 20.8947 17.1817C21.4187 16.8051 21.9058 15.9242 22.4918 15.4305C23.1293 14.7973 24.3266 14.1255 24.5168 13.3037C24.6478 12.5854 24.1083 11.7451 23.8832 10.9533C23.4902 9.96488 23.5339 7.84389 22.0309 8.52636C20.5512 9.24175 19.2413 10.3018 17.9576 11.3143C17.2037 11.9513 16.3576 12.5108 15.6571 13.1962C14.6654 14.2194 15.9394 14.869 16.8253 15.2949L16.8447 15.3046L16.8457 15.3056Z" fill="#06D001"/>
<path d="M5.63201 32.961C6.43444 33.6822 7.6182 33.7829 8.54095 33.2612C9.43944 32.7849 10.3622 32.0259 11.3238 31.5738C11.9098 31.2621 12.5871 30.9175 12.7181 30.2137C12.8694 29.1557 12.1863 27.5458 11.349 26.7927C10.8338 26.3232 10.1837 25.9989 9.54521 25.7027C8.10432 25.0434 7.03699 24.7036 6.64111 26.5061C6.40339 27.6726 6.22098 28.7181 5.67373 29.8071C5.16918 30.8797 4.59379 32.0434 5.61745 32.9485L5.63201 32.961Z" fill="#06D001"/>
<path d="M36.8949 63.5422C37.6498 61.5781 35.6092 60.2122 34.5167 58.8153C33.8685 58.067 33.5386 56.9344 32.8031 56.7127C32.253 56.5849 31.7067 57.0999 31.3506 57.5471C30.8626 58.1686 30.5123 58.9382 30.4317 59.7223C30.229 61.428 31.4661 62.8007 32.2423 64.185C32.5664 64.7736 32.7857 65.4309 33.0185 66.0533C33.819 68.2402 34.6816 67.4376 35.9857 65.3137C36.3408 64.7445 36.694 64.1366 36.889 63.5616L36.8949 63.5422Z" fill="#06D001"/>
<path d="M58.904 61.4358C58.7313 60.5791 58.1395 59.7959 57.5631 59.1057C57.0828 58.5413 56.5123 58.1144 55.9573 57.7185C55.3528 57.341 54.5581 56.4271 53.8003 56.6382C53.1298 56.9305 52.8834 57.6817 52.4758 58.4794C52.2828 58.8995 52.1013 59.3409 51.9859 59.7843C51.6346 60.9905 52.11 62.064 52.4332 63.2547C52.9513 65.0659 52.7834 67.0437 55.1267 65.0321C55.9117 64.3632 56.7539 63.7465 57.632 63.1947C58.2365 62.8036 59.0535 62.2509 58.907 61.4522L58.904 61.4358Z" fill="#06D001"/>
<path d="M59.3678 40.3894C60.2673 41.5666 61.0154 41.4049 62.0643 40.6053C63.1452 39.7796 64.2028 38.7921 64.7753 37.5279C65.0111 36.9751 65.2391 36.3478 65.0062 35.7728C64.786 35.2346 63.9166 35.0236 63.2937 34.8319C62.5281 34.6267 61.7926 34.2336 61.0106 34.103C59.4833 33.8638 58.7701 35.4795 57.8503 36.4059C57.6485 36.6276 57.4583 36.8232 57.2662 37.0342C56.9198 37.4175 56.9081 37.5192 57.2448 37.8899C57.6213 38.2955 58.0191 38.6847 58.3869 39.1213C58.7255 39.5162 59.0447 39.979 59.3572 40.3739L59.3678 40.3894Z" fill="#06D001"/>
<path d="M16.1558 38.9878C16.5012 38.7419 16.8777 38.4205 17.2775 38.0914C17.9984 37.4448 18.828 36.9201 18.6126 36.0934C18.2701 35.2057 16.9922 34.5803 16.1325 34.1757C12.8743 32.7352 8.31099 33.7933 10.3331 36.3441C10.6843 36.7565 11.1879 37.165 11.7332 37.5996C12.5172 38.2105 13.3167 38.8823 14.1822 39.2502C14.8585 39.5551 15.5397 39.4612 16.1413 38.9994L16.1558 38.9878Z" fill="#06D001"/>
<path d="M69.7908 35.4236C69.2222 34.8767 68.2315 35.0799 67.7153 35.6114C67.0643 36.2774 67.073 37.4139 66.5723 38.4178C66.2162 39.3016 65.0596 40.1854 65.4769 41.1883C65.963 42.2077 67.3612 42.9773 68.4431 43.2774C69.7151 43.621 69.8442 42.4923 69.9936 41.3248C70.1576 40.0644 70.275 38.7924 70.2711 37.5194C70.2507 36.7605 70.2953 35.9522 69.8024 35.4343L69.7908 35.4236Z" fill="#06D001"/>
<path d="M42.6021 68.5471C42.3256 67.6652 41.4223 66.9072 40.9779 66.0369C40.6315 65.4454 40.4161 64.7969 40.06 64.2586C39.2081 63.0854 38.6841 64.6478 37.9234 65.9459C37.7526 66.2489 37.5702 66.5432 37.3684 66.8326C37.0171 67.3409 36.6077 67.823 36.2186 68.2983C35.7975 68.8104 35.0115 69.7784 35.8702 70.0911C36.1856 70.2121 36.5465 70.2295 36.9075 70.2344C37.6022 70.2315 38.2853 70.1773 39.0053 70.1627C40.1153 70.0979 42.9747 70.2257 42.606 68.5635L42.6021 68.5471Z" fill="#06D001"/>
<path d="M7.77926 41.2367C8.38861 40.7875 9.08528 40.4371 9.72568 40.0479C10.4961 39.5823 10.7008 39.2115 9.91585 38.5155C9.34338 37.9869 8.69328 37.5049 8.08006 37.0121C7.42996 36.5097 6.83614 35.9686 6.08707 35.6346C4.62096 34.9996 4.70925 36.6443 4.73157 37.6278C4.75 38.3267 4.77135 39.0527 4.78008 39.7526C4.78882 40.8727 4.8024 42.712 5.53691 42.6394C5.98713 42.6268 6.3539 42.3335 6.72552 42.0595C7.05639 41.802 7.396 41.5116 7.76374 41.2473L7.78023 41.2357L7.77926 41.2367Z" fill="#06D001"/>
<path d="M34.7796 9.5342C34.9659 10.0105 35.2842 10.9514 35.8353 10.9998C36.2778 11.0143 36.8677 10.0105 37.2694 9.56324C38.1795 8.38707 39.5603 7.72686 40.8217 7.01535C42.7962 5.86047 41.5998 5.25835 39.9173 5.21866C38.7889 5.17316 37.6139 5.28254 36.4806 5.26996C35.5986 5.27964 34.9776 5.13347 34.5914 5.6233C34.0344 6.4926 34.4594 8.58358 34.7728 9.51484L34.7796 9.5342Z" fill="#06D001"/>
<path d="M20.819 58.7061C20.396 58.3024 19.8371 58.3643 19.1249 58.3914C18.174 58.4582 17.1969 58.5967 16.3353 58.9907C15.6406 59.2975 14.8022 59.9345 15.0875 60.7835C15.2282 61.2394 15.6716 61.6751 16.1325 62.0865C16.7001 62.5995 17.3017 63.101 17.9295 63.5956C18.2972 63.8754 18.7678 64.2549 19.2229 64.2568C20.0234 64.2297 20.2194 62.7651 20.4726 62.1242C20.6424 61.5841 20.7851 61.0226 20.9025 60.465C21.0315 59.7554 21.1945 59.192 20.8297 58.7148L20.821 58.7051L20.819 58.7061ZM19.1065 58.7225C19.1065 58.7225 19.0977 58.7196 19.0929 58.7177C19.0987 58.7187 19.1036 58.7206 19.1065 58.7225Z" fill="#06D001"/>
<path d="M13.6718 54.406C13.5486 53.6142 13.5661 52.6461 12.9179 52.3015C12.6016 52.1486 12.1203 52.1912 11.577 52.2696C11.019 52.3606 10.4165 52.4215 9.87506 52.5358C9.17257 52.6723 8.79222 53.074 9.14637 53.8533C9.39186 54.4157 9.73825 54.923 10.1118 55.557C10.8551 56.7022 11.8845 58.8377 13.0043 57.9984C13.9522 57.0914 13.8125 55.6432 13.6747 54.4273L13.6718 54.406Z" fill="#06D001"/>
<path d="M47.4264 36.868C47.7234 22.3125 24.9224 23.6068 26.634 38.2446C27.0522 43.7315 32.1676 47.2029 37.3839 47.0519C43.1533 46.9773 47.5371 42.9745 47.4255 36.8922V36.869L47.4264 36.868Z" fill="#06D001"/>
</svg>
