<svg width="14" height="12" viewBox="0 0 14 12" fill="none" xmlns="http://www.w3.org/2000/svg">
<path d="M0.732847 7.08166C2.0157 9.52495 7.22994 11.4374 9.82385 11.8891C13.5173 12.6309 14.2398 9.53198 13.7165 6.51566C13.4063 4.38701 11.6953 3.5011 9.77098 3.01772C8.71368 2.78042 7.36387 2.41832 6.54094 3.06342C6.00524 3.49407 5.74795 4.49248 5.54002 5.00399C5.44134 5.2571 5.26865 5.6403 5.1083 5.21843C4.90212 4.67353 4.62193 2.6978 3.91001 1.80662C3.30207 0.933011 1.73904 -0.648974 0.688793 0.286155C0.172479 0.869732 0.096692 1.74861 0.0138702 2.93158C-0.0513299 4.28682 0.101977 5.91627 0.716972 7.05354L0.732847 7.08342V7.08166Z" fill="white"/>
</svg>
