<svg width="60" height="56" viewBox="0 0 60 56" fill="none" xmlns="http://www.w3.org/2000/svg">
<path d="M53.1873 46.3764C53.1396 51.0119 53.0523 54.9429 51.1674 55.8934C51.1362 55.9085 51.1016 55.9219 51.067 55.9286C50.1155 56.121 49.7287 55.1939 49.5147 54.2183C49.5097 54.1982 49.5081 54.1781 49.5064 54.158C49.49 53.9304 49.4735 53.7045 49.4587 53.4769C49.4455 53.2694 49.276 53.1088 49.0718 53.1088H48.8134C48.6043 53.1088 48.4364 53.2761 48.4265 53.4886C48.3969 54.1363 48.3014 54.7906 47.9656 55.2341L47.9524 55.2508C46.6865 56.7151 43.6624 55.942 43.697 53.7229C43.6987 53.6526 43.7003 53.5824 43.7019 53.5121C43.7069 53.2912 43.5324 53.1088 43.3151 53.1088H43.0665C42.8706 53.1088 42.7076 53.2577 42.6829 53.4552C42.6187 53.9606 42.5002 54.4174 42.2911 54.7739C41.8714 55.5102 40.9972 55.9152 40.1264 55.8349C38.2695 55.6675 37.9452 53.8886 37.9896 52.2787C38.1213 43.9247 40.5561 31.0138 29.8212 29.9997C19.6395 29.491 21.6511 45.6869 21.638 52.513C21.666 53.5991 21.6116 54.8693 20.6206 55.4985C19.8123 56.0089 18.6057 55.9871 17.855 55.378C17.3694 54.9747 17.1274 54.2718 17.0171 53.4518C16.9908 53.256 16.8278 53.1088 16.6335 53.1088C16.4475 53.1088 16.2862 53.2443 16.2533 53.4317C16.1133 54.2082 15.8615 54.8458 15.4236 55.2123C14.3947 56.0624 12.7156 55.6876 12.0176 54.5697C11.7921 54.245 11.6472 53.8468 11.5567 53.4234C11.5172 53.241 11.3608 53.1088 11.178 53.1088H10.9262C10.7286 53.1088 10.5657 53.2594 10.541 53.4602C10.4834 53.9472 10.3731 54.4174 10.1673 54.7906C9.75245 55.5654 9.01166 55.9152 8.32848 55.547C7.47905 55.1136 7.17286 53.8367 7.12512 52.8343C6.88971 45.5162 6.58023 37.9086 7.0461 30.5971C7.0461 30.5804 7.04939 30.5653 7.05104 30.5486C7.1778 29.7955 7.42143 29.0609 7.78524 28.3999C8.16222 27.692 8.70053 27.0711 9.21085 26.8C9.2339 26.7883 9.25529 26.7732 9.27505 26.7565L29.7488 9.32557C30.0023 9.10969 30.1175 9.19169 30.2575 9.32557L46.8297 23.4999L46.833 23.5033L50.853 26.9423C51.9016 27.6987 52.6572 29.3102 52.7461 30.6708L52.7494 30.6959C52.7033 35.6761 53.1034 41.1551 53.1873 46.3764Z" fill="white"/>
<path d="M59.7425 29.5897C59.1795 30.2005 57.9975 29.8407 56.4567 28.8651C49.5476 24.2781 41.1701 13.9644 35.4183 9.37745C33.7622 7.97005 32.1028 5.42469 30.1324 5.18706C28.8533 5.07661 27.7503 6.07065 26.812 6.93751C19.6461 13.8607 12.4143 20.6316 5.21882 27.5179C4.45499 28.2258 3.63683 29.0341 2.6985 29.4207C0.946947 30.2055 -0.705833 28.9437 0.311515 27.1581C1.0309 25.9549 2.29353 24.9508 3.30265 23.9785C4.05332 23.2807 4.77764 22.5812 5.51843 21.8716C12.8275 14.838 20.3046 7.80438 27.8063 0.934753C29.3274 -0.357172 30.6048 -0.278518 32.1637 0.97659C40.7042 9.05781 49.5607 17.0236 57.8921 25.3859C58.5786 26.0771 59.3573 26.9774 59.7244 27.7807L59.7326 27.8008C59.9993 28.3965 60.1655 29.0793 59.7408 29.5914L59.7425 29.5897Z" fill="white"/>
</svg>
