<svg width="50" height="56" viewBox="0 0 50 56" fill="none" xmlns="http://www.w3.org/2000/svg">
<path d="M49.9926 48.7765V48.7465C49.9844 48.5419 49.9763 48.3323 49.9665 48.1194L49.9795 31.4404L49.9828 29.1646L49.9926 16.3684L49.8574 16.2769C49.7923 15.7845 49.693 15.3087 49.5448 14.8645C48.7225 12.2677 46.3468 11.0915 43.7968 11.0765C43.3279 11.0549 42.8247 11.0849 42.3737 11.208L6.7103 11.0716H6.30646L6.29834 11.0699C6.11271 11.0765 5.93032 11.0932 5.75772 11.1165C2.22428 11.4974 0.31916 14.0211 0.0716562 17.5395C0.0716562 17.5445 0.0716562 17.5495 0.0716562 17.5545L0.0667665 19.5308L0 48.4055C0.0341946 51.4199 0.849991 54.5458 3.61324 55.4458C4.5251 55.7435 6.24786 56.1012 7.4984 55.8234H7.50166L43.2171 55.9997C43.7919 56.0047 44.3993 55.9398 45.0001 55.83C46.0813 55.6104 47.213 55.0864 48.0565 54.248C49.5643 52.8256 50.0691 50.7395 49.9926 48.7765ZM32.8496 39.354C32.3905 41.3669 31.6821 43.3133 30.3681 44.887C29.2332 46.2412 26.5416 48.5186 24.8628 48.6135C23.3354 48.7366 22.0148 47.434 20.9532 46.4392C20.4647 45.9784 19.9909 45.5159 19.5561 45.0002L19.5398 44.9802C17.988 43.1586 17.1315 40.7647 16.8498 38.3642C16.7 37.0649 16.5323 35.4313 16.9329 34.345C17.3611 33.0258 18.8054 32.6415 20.0185 32.4169C21.5361 32.1407 23.0488 31.8113 24.5892 31.7781C26.5204 31.7681 28.4532 32.0775 30.2997 32.6465C31.5258 33.0191 32.7503 33.786 33.1037 35.1019C33.47 36.3429 33.146 37.9965 32.8496 39.354ZM34.2598 31.7182C33.7794 32.1041 33.0239 32.0892 32.1723 31.8995C28.8212 30.9097 25.278 30.2193 21.8455 30.6884C20.9401 30.7949 20.0625 31.0028 19.1751 31.2291C17.3204 31.7265 14.6304 32.2938 14.9447 29.3359C15.2134 27.13 16.8238 24.9291 18.7305 23.8944C19.7873 23.234 21.0346 22.9262 22.1467 22.4205C22.7345 22.1393 23.2605 21.7434 23.7115 21.2693C24.8823 19.9767 25.5499 17.6676 27.5511 17.4713H27.5674C29.3048 17.4364 27.5593 20.1813 27.6081 21.063C27.5739 21.424 27.6244 21.79 27.8019 22.1011C28.4939 23.2023 29.9968 23.4535 31.1269 24.1423C32.5598 24.8759 33.7859 26.0587 34.3949 27.6125C34.8541 28.7653 35.2954 30.8149 34.2598 31.7182Z" fill="white"/>
<path d="M49.9795 31.4404L49.9828 29.1646C49.9958 29.8284 49.9958 30.582 49.9795 31.4404Z" fill="white"/>
<path d="M36.217 8.77743C36.2346 8.77743 36.2451 8.77743 36.2451 8.75586C36.2363 8.76305 36.2258 8.77024 36.217 8.77743Z" fill="white"/>
<path d="M36.1144 8.19191C35.696 8.92554 34.7222 9.2882 34.0009 8.90392C33.1037 8.45475 32.7471 7.38341 32.2618 6.54663C31.1741 4.53703 28.7203 4.57696 26.6751 4.50875C24.7586 4.47382 22.7801 4.32909 20.862 4.6801C19.7466 4.90635 18.864 5.38213 18.1981 6.22057C17.7731 6.74127 17.4686 7.36012 17.0745 7.90078C16.4151 8.88562 15.0684 9.56103 14.1664 8.56289L14.1517 8.54791C13.6209 7.98063 13.4646 6.96086 13.5671 6.1324C13.9026 3.00322 16.1041 0.487891 19.2158 0.101942C21.0606 -0.134286 22.9804 0.120241 24.8221 0.0753245C27.5853 0.0786517 31.5193 -0.407112 33.8673 1.17994C35.0446 1.99842 35.7497 3.3509 36.1438 4.72335C36.4613 5.82963 36.655 7.247 36.1144 8.19191Z" fill="white"/>
<path d="M0.0423422 18.3148C0.0423422 18.0569 0.0537448 17.8024 0.0716562 17.5545L0.0667665 19.5308C0.0293153 19.1233 0.0276873 18.7024 0.0423422 18.3148Z" fill="white"/>
<path d="M6.7103 11.0716H6.30646C6.43999 11.0649 6.57515 11.0649 6.7103 11.0716Z" fill="white"/>
<path d="M23.2475 41.4019L23.2296 41.3802C22.1711 40.2057 22.1304 38.1446 22.8925 36.8054C24.0388 34.6477 26.6995 35.245 27.5609 37.3111C28.8342 40.2673 25.7355 44.0602 23.2475 41.4019Z" fill="white"/>
</svg>
